<svg width="549" height="469" viewBox="0 0 549 469" fill="none" xmlns="http://www.w3.org/2000/svg">
<path d="M201.409 72.7629C201.387 72.9259 201.365 73.0889 201.178 73.2298C201.156 73.3928 200.992 73.3706 200.805 73.5114C200.619 73.6523 200.454 73.6301 200.29 73.6079C200.125 73.5857 199.961 73.5635 199.818 73.3783C199.654 73.3561 199.676 73.1931 199.533 73.0078C199.391 72.8226 199.435 72.4965 199.457 72.3335C199.479 72.1705 199.501 72.0075 199.665 72.0296C199.852 71.8888 200.038 71.748 200.203 71.7702C200.367 71.7924 200.554 71.6515 200.696 71.8367C200.861 71.8589 201.025 71.8811 201.003 72.0442C201.146 72.2294 201.288 72.4146 201.266 72.5776C201.453 72.4368 201.431 72.5998 201.409 72.7629Z" fill="black"/>
<path d="M198.74 57.7952C198.926 57.6543 198.926 57.6543 199.113 57.5135C199.299 57.3727 199.628 57.4171 199.957 57.4614C200.242 57.8319 200.363 58.1801 200.648 58.5506C200.626 58.7136 200.604 58.8767 200.417 59.0175L200.231 59.1583C199.858 59.44 199.364 59.3734 199.057 59.166C198.421 58.9142 198.345 58.2399 198.74 57.7952Z" fill="black"/>
<path d="M193.123 59.6918C192.728 60.1365 192.048 60.2108 191.763 59.8403C191.314 59.4477 191.237 58.7734 191.61 58.4917C192.005 58.047 192.685 57.9728 192.97 58.3432C193.442 58.5728 193.518 59.2471 193.123 59.6918Z" fill="black"/>
<path d="M200.787 66.2038C200.392 66.6485 199.712 66.7228 199.427 66.3523C198.978 65.9597 198.901 65.2853 199.274 65.0037C199.669 64.559 200.349 64.4847 200.634 64.8552C201.084 65.2478 201.182 65.7591 200.787 66.2038Z" fill="black"/>
<path d="M186.267 59.598C186.245 59.7611 186.223 59.9241 186.037 60.0649C186.015 60.228 185.85 60.2058 185.664 60.3466C185.313 60.4652 184.819 60.3987 184.512 60.1913C184.205 59.9838 184.106 59.4726 184.15 59.1465C184.172 58.9835 184.194 58.8204 184.359 58.8426C184.545 58.7018 184.732 58.561 184.896 58.5831C185.247 58.4645 185.576 58.5089 185.862 58.8793C186.191 58.9237 186.311 59.272 186.267 59.598Z" fill="black"/>
<path d="M193.931 66.1097C193.909 66.2728 193.887 66.4358 193.701 66.5766C193.679 66.7397 193.514 66.7175 193.328 66.8583C192.977 66.977 192.483 66.9104 192.176 66.703C191.869 66.4956 191.77 65.9843 191.814 65.6582C191.836 65.4952 191.858 65.3321 192.023 65.3543C192.209 65.2135 192.396 65.0727 192.56 65.0948C192.912 64.9762 193.241 65.0206 193.526 65.391C193.811 65.7615 193.975 65.7837 193.931 66.1097Z" fill="black"/>
<path d="M185.086 45.9924C184.691 46.4371 184.011 46.5113 183.726 46.1409C183.277 45.7482 183.2 45.0739 183.573 44.7923L183.76 44.6514C184.133 44.3697 184.626 44.4363 185.098 44.6659C185.24 44.8512 185.383 45.0364 185.339 45.3624C185.481 45.5477 185.273 45.8515 185.086 45.9924Z" fill="black"/>
<path d="M177.981 46.5281C177.586 46.9728 176.906 47.0471 176.621 46.6767C176.171 46.284 176.095 45.6097 176.468 45.328C176.863 44.8833 177.543 44.8091 177.828 45.1795C178.299 45.4091 178.376 46.0834 177.981 46.5281Z" fill="black"/>
<path d="M185.645 53.0407C185.25 53.4854 184.57 53.5597 184.285 53.1892C183.835 52.7966 183.759 52.1223 184.132 51.8406C184.527 51.3959 185.207 51.3217 185.492 51.6921C185.941 52.0847 186.04 52.596 185.645 53.0407Z" fill="black"/>
<path d="M171.126 46.434C171.104 46.597 171.082 46.7601 170.895 46.9009C170.873 47.0639 170.709 47.0417 170.522 47.1826C170.336 47.3234 170.171 47.3012 170.007 47.279C169.842 47.2568 169.678 47.2346 169.535 47.0494C169.371 47.0272 169.393 46.8642 169.25 46.679C169.108 46.4938 169.151 46.1677 169.173 46.0047C169.195 45.8416 169.217 45.6786 169.382 45.7008C169.568 45.56 169.755 45.4191 169.92 45.4413C170.084 45.4635 170.271 45.3227 170.413 45.5079C170.578 45.5301 170.742 45.5523 170.72 45.7153C170.863 45.9005 171.005 46.0858 170.983 46.2488C171.17 46.108 171.148 46.271 171.126 46.434Z" fill="black"/>
<path d="M178.791 52.944C178.769 53.107 178.747 53.27 178.56 53.4109C178.538 53.5739 178.374 53.5517 178.187 53.6926C177.836 53.8112 177.342 53.7446 177.035 53.5372C176.728 53.3298 176.63 52.8185 176.674 52.4925C176.696 52.3294 176.718 52.1664 176.882 52.1886C177.069 52.0478 177.255 51.9069 177.42 51.9291C177.771 51.8105 178.1 51.8548 178.385 52.2253C178.714 52.2697 178.835 52.6179 178.791 52.944Z" fill="black"/>
<path d="M191.239 51.3042C191.634 50.8595 192.314 50.7853 192.599 51.1557C193.049 51.5483 193.125 52.2227 192.752 52.5043C192.357 52.949 191.677 53.0233 191.392 52.6528C190.943 52.2602 190.844 51.7489 191.239 51.3042Z" fill="black"/>
<path d="M194.629 80.8106C194.421 81.1145 194.07 81.2332 193.741 81.1888C193.576 81.1666 193.412 81.1444 193.269 80.9592C193.105 80.937 193.127 80.7739 192.984 80.5887C192.864 80.2405 192.93 79.7514 193.138 79.4475C193.347 79.1436 193.862 79.0472 194.191 79.0916C194.356 79.1138 194.52 79.136 194.498 79.299C194.641 79.4842 194.783 79.6694 194.761 79.8325C194.882 80.1807 194.838 80.5068 194.629 80.8106Z" fill="black"/>
<path d="M200.638 85.9384C200.824 85.7976 201.011 85.6568 201.175 85.679C201.362 85.5381 201.691 85.5825 201.833 85.7677C201.581 86.3977 201.493 87.0498 201.24 87.6797L201.076 87.6575C200.911 87.6353 200.911 87.6353 200.769 87.4501C200.769 87.4501 200.604 87.4279 200.626 87.2649C200.341 86.8944 200.243 86.3831 200.638 85.9384Z" fill="black"/>
<path d="M195.022 87.8348C194.627 88.2795 193.947 88.3537 193.662 87.9833C193.212 87.5907 193.136 86.9163 193.509 86.6347C193.904 86.19 194.584 86.1157 194.869 86.4861C195.34 86.7158 195.417 87.3901 195.022 87.8348Z" fill="black"/>
<path d="M201.737 80.2761C201.342 80.7208 200.662 80.795 200.377 80.4246C199.927 80.0319 199.851 79.3576 200.224 79.076C200.619 78.6313 201.299 78.557 201.584 78.9274C202.033 79.3201 202.132 79.8314 201.737 80.2761Z" fill="black"/>
<path d="M188.167 87.7408C188.145 87.9039 188.123 88.0669 187.936 88.2077C187.728 88.5116 187.377 88.6302 187.048 88.5859C186.883 88.5637 186.718 88.5415 186.576 88.3563C186.411 88.3341 186.433 88.171 186.291 87.9858C186.17 87.6376 186.236 87.1485 186.445 86.8446C186.631 86.7038 186.818 86.5629 186.982 86.5851C187.147 86.6073 187.333 86.4665 187.476 86.6517C187.64 86.6739 187.805 86.6961 187.783 86.8591C187.925 87.0443 188.068 87.2296 188.046 87.3926C188.211 87.4148 188.189 87.5778 188.167 87.7408Z" fill="black"/>
<path d="M195.83 94.2531C195.808 94.4162 195.786 94.5792 195.6 94.72C195.205 95.1647 194.525 95.239 194.24 94.8685C193.79 94.4759 193.714 93.8016 194.087 93.5199C194.273 93.3791 194.46 93.2382 194.624 93.2604C194.975 93.1418 195.304 93.1862 195.589 93.5566C195.754 93.5788 195.874 93.9271 195.83 94.2531Z" fill="black"/>
<path d="M179.487 67.6476C179.092 68.0923 178.412 68.1666 178.127 67.7962C177.677 67.4035 177.601 66.7292 177.974 66.4475C178.369 66.0028 179.049 65.9286 179.334 66.299C179.805 66.5286 179.882 67.2029 179.487 67.6476Z" fill="black"/>
<path d="M186.987 74.1359C186.592 74.5806 185.912 74.6549 185.627 74.2844C185.177 73.8918 185.101 73.2175 185.474 72.9358C185.869 72.4911 186.549 72.4169 186.834 72.7873C187.283 73.1799 187.382 73.6912 186.987 74.1359Z" fill="black"/>
<path d="M179.879 74.6717C179.484 75.1164 178.804 75.1907 178.519 74.8202C178.07 74.4276 177.993 73.7533 178.366 73.4716C178.761 73.0269 179.441 72.9526 179.726 73.3231C180.198 73.5527 180.274 74.227 179.879 74.6717Z" fill="black"/>
<path d="M186.594 67.1113C186.199 67.556 185.519 67.6302 185.234 67.2598C184.784 66.8671 184.708 66.1928 185.081 65.9111C185.476 65.4664 186.156 65.3922 186.441 65.7626C186.891 66.1553 186.989 66.6666 186.594 67.1113Z" fill="black"/>
<path d="M187.543 81.1837C187.148 81.6284 186.468 81.7026 186.183 81.3322C185.734 80.9395 185.657 80.2652 186.03 79.9836C186.425 79.5389 187.105 79.4646 187.39 79.835C187.84 80.2277 187.938 80.739 187.543 81.1837Z" fill="black"/>
<path d="M194.071 73.7635C193.676 74.2082 192.996 74.2824 192.711 73.912C192.261 73.5194 192.184 72.8451 192.558 72.5634C192.953 72.1187 193.633 72.0444 193.918 72.4149C194.389 72.6445 194.466 73.3188 194.071 73.7635Z" fill="black"/>
<path d="M173.024 74.5766C173.002 74.7397 172.98 74.9027 172.793 75.0435C172.398 75.4882 171.718 75.5625 171.433 75.192C170.984 74.7994 170.907 74.1251 171.28 73.8434C171.467 73.7026 171.653 73.5617 171.818 73.5839C172.169 73.4653 172.498 73.5097 172.783 73.8801C172.947 73.9023 173.068 74.2506 173.024 74.5766Z" fill="black"/>
<path d="M180.688 81.0894C180.666 81.2525 180.644 81.4155 180.457 81.5563C180.062 82.001 179.382 82.0753 179.097 81.7048C178.648 81.3122 178.571 80.6379 178.944 80.3562C179.131 80.2154 179.317 80.0745 179.482 80.0967C179.833 79.9781 180.162 80.0225 180.447 80.3929C180.611 80.4151 180.732 80.7634 180.688 81.0894Z" fill="black"/>
<path d="M164.366 54.3183C164.157 54.6222 163.806 54.7408 163.477 54.6965C163.313 54.6743 163.148 54.6521 163.006 54.4669C162.841 54.4447 162.863 54.2816 162.721 54.0964C162.6 53.7482 162.666 53.2591 162.875 52.9552C163.083 52.6513 163.599 52.5549 163.928 52.5993C164.092 52.6215 164.257 52.6436 164.235 52.8067C164.377 52.9919 164.52 53.1771 164.498 53.3402C164.596 53.8514 164.552 54.1775 164.366 54.3183Z" fill="black"/>
<path d="M171.844 60.972C171.449 61.4167 170.769 61.491 170.484 61.1206C170.199 60.7501 169.958 60.0536 170.331 59.7719C170.726 59.3272 171.406 59.253 171.691 59.6234C172.163 59.853 172.239 60.5273 171.844 60.972Z" fill="black"/>
<path d="M164.758 61.3451C164.363 61.7899 163.683 61.8641 163.398 61.4937C162.949 61.101 162.872 60.4267 163.245 60.145C163.64 59.7003 164.32 59.6261 164.605 59.9965C165.055 60.3892 165.131 61.0635 164.758 61.3451Z" fill="black"/>
<path d="M171.452 53.9483C171.057 54.393 170.376 54.4673 170.091 54.0968C169.642 53.7042 169.565 53.0299 169.938 52.7482C170.333 52.3035 171.013 52.2292 171.298 52.5997C171.77 52.8293 171.847 53.5036 171.452 53.9483Z" fill="black"/>
<path d="M172.401 68.0179C172.006 68.4626 171.326 68.5368 171.041 68.1664C170.591 67.7738 170.515 67.0995 170.888 66.8178C171.283 66.3731 171.963 66.2988 172.248 66.6693C172.719 66.8989 172.796 67.5732 172.401 68.0179Z" fill="black"/>
<path d="M178.93 60.5994C178.535 61.0441 177.855 61.1184 177.57 60.7479C177.12 60.3553 177.044 59.681 177.417 59.3993C177.812 58.9546 178.492 58.8804 178.777 59.2508C179.249 59.4804 179.325 60.1547 178.93 60.5994Z" fill="black"/>
<path d="M157.905 61.2484C157.883 61.4114 157.861 61.5745 157.674 61.7153C157.466 62.0192 157.115 62.1378 156.786 62.0934C156.621 62.0712 156.457 62.049 156.314 61.8638C156.15 61.8416 156.172 61.6786 156.029 61.4934C155.909 61.1451 155.975 60.656 156.183 60.3522C156.37 60.2113 156.556 60.0705 156.721 60.0927C156.885 60.1149 157.072 59.974 157.214 60.1593C157.379 60.1815 157.543 60.2036 157.521 60.3667C157.664 60.5519 157.806 60.7371 157.784 60.9002C157.927 61.0854 157.905 61.2484 157.905 61.2484Z" fill="black"/>
<path d="M165.545 67.9237C165.523 68.0867 165.501 68.2497 165.315 68.3906C164.92 68.8353 164.24 68.9095 163.955 68.5391C163.505 68.1464 163.429 67.4721 163.802 67.1904C163.988 67.0496 164.175 66.9088 164.339 66.931C164.69 66.8123 165.019 66.8567 165.304 67.2272C165.469 67.2493 165.589 67.5976 165.545 67.9237Z" fill="black"/>
<path d="M156.702 47.8078C156.471 48.2747 155.813 48.1859 155.341 47.9563C154.892 47.5637 154.815 46.8893 155.188 46.6077C155.583 46.163 156.263 46.0887 156.548 46.4592C157.02 46.6888 157.097 47.3631 156.702 47.8078Z" fill="black"/>
<path d="M149.617 48.1795C149.43 48.3204 149.408 48.4834 149.244 48.4612C148.893 48.5798 148.564 48.5355 148.257 48.328C148.816 47.9055 149.354 47.6461 149.913 47.2235C150.034 47.5718 149.968 48.0609 149.617 48.1795Z" fill="black"/>
<path d="M157.258 54.8541C156.863 55.2988 156.183 55.373 155.898 55.0026C155.449 54.6099 155.372 53.9356 155.745 53.6539C156.14 53.2092 156.82 53.135 157.105 53.5054C157.577 53.735 157.653 54.4094 157.258 54.8541Z" fill="black"/>
<path d="M163.811 47.2719C163.416 47.7166 162.736 47.7909 162.451 47.4204C162.001 47.0278 161.925 46.3535 162.298 46.0718C162.693 45.6271 163.373 45.5529 163.658 45.9233C164.107 46.3159 164.184 46.9902 163.811 47.2719Z" fill="black"/>
<path d="M150.403 54.7602C150.381 54.9232 150.359 55.0862 150.173 55.2271C149.778 55.6718 149.098 55.746 148.648 55.3534C148.199 54.9608 148.122 54.2864 148.495 54.0048C148.682 53.8639 148.868 53.7231 149.033 53.7453C149.384 53.6267 149.713 53.671 149.998 54.0415C150.327 54.0859 150.447 54.4341 150.403 54.7602Z" fill="black"/>
<path d="M205.086 128.7C205.229 128.886 205.185 129.212 204.976 129.515C204.976 129.515 204.954 129.678 204.79 129.656L204.603 129.797C204.603 129.797 204.439 129.775 204.417 129.938C204.23 130.079 204.066 130.057 203.901 130.034C203.737 130.012 203.572 129.99 203.43 129.805C203.265 129.783 203.287 129.62 203.145 129.434C203.002 129.249 203.046 128.923 203.068 128.76C203.09 128.597 203.112 128.434 203.277 128.456C203.277 128.456 203.299 128.293 203.463 128.315C203.65 128.174 204.001 128.056 204.33 128.1C204.494 128.122 204.659 128.145 204.637 128.308C204.637 128.308 204.637 128.308 204.801 128.33C204.966 128.352 205.108 128.537 205.086 128.7Z" fill="black"/>
<path d="M196.364 108.933C195.969 109.377 195.289 109.452 195.004 109.081C194.554 108.688 194.477 108.014 194.85 107.732C195.245 107.288 195.926 107.213 196.211 107.584C196.847 107.836 196.759 108.488 196.364 108.933Z" fill="black"/>
<path d="M196.922 115.979C196.527 116.424 195.847 116.498 195.562 116.128C195.113 115.735 195.036 115.061 195.409 114.779C195.804 114.334 196.484 114.26 196.769 114.63C197.241 114.86 197.317 115.534 196.922 115.979Z" fill="black"/>
<path d="M204.42 122.47C204.025 122.915 203.345 122.989 203.06 122.619C202.611 122.226 202.534 121.552 202.907 121.27C203.116 120.966 203.631 120.87 203.96 120.914C204.125 120.936 204.289 120.958 204.267 121.122C204.717 121.514 204.815 122.025 204.42 122.47Z" fill="black"/>
<path d="M189.856 116.189C189.856 116.189 189.834 116.352 189.669 116.33C189.647 116.493 189.483 116.47 189.296 116.611C188.945 116.73 188.452 116.663 188.145 116.456C187.838 116.248 187.739 115.737 187.783 115.411C187.805 115.248 187.827 115.085 187.992 115.107C187.992 115.107 188.014 114.944 188.178 114.966C188.551 114.685 189.045 114.751 189.516 114.981C190.152 115.233 190.251 115.744 189.856 116.189Z" fill="black"/>
<path d="M197.499 122.864C197.499 122.864 197.477 123.027 197.312 123.005C197.29 123.168 197.125 123.146 196.939 123.287C196.588 123.405 196.094 123.339 195.787 123.131C195.48 122.924 195.382 122.412 195.426 122.086C195.448 121.923 195.47 121.76 195.634 121.783C195.634 121.783 195.656 121.62 195.821 121.642C196.194 121.36 196.687 121.427 197.159 121.656C197.63 121.886 197.729 122.397 197.499 122.864Z" fill="black"/>
<path d="M181.385 95.7906C181.177 96.0945 180.826 96.2131 180.497 96.1687C180.332 96.1466 180.168 96.1244 180.025 95.9391C179.861 95.9169 179.883 95.7539 179.74 95.5687C179.62 95.2204 179.686 94.7313 179.894 94.4275C180.103 94.1236 180.618 94.0272 180.947 94.0715C181.112 94.0937 181.276 94.1159 181.254 94.279C181.397 94.4642 181.539 94.6494 181.517 94.8124C181.638 95.1607 181.594 95.4868 181.385 95.7906Z" fill="black"/>
<path d="M188.885 102.28C188.49 102.724 187.81 102.799 187.525 102.428C187.075 102.035 186.999 101.361 187.372 101.079C187.767 100.635 188.447 100.561 188.732 100.931C189.182 101.324 189.28 101.835 188.885 102.28Z" fill="black"/>
<path d="M181.778 102.814C181.383 103.259 180.703 103.333 180.418 102.963C179.968 102.57 179.892 101.896 180.265 101.614C180.66 101.17 181.34 101.095 181.625 101.466C182.096 101.695 182.173 102.37 181.778 102.814Z" fill="black"/>
<path d="M188.493 95.2557C188.098 95.7004 187.418 95.7746 187.132 95.4042C186.683 95.0115 186.606 94.3372 186.979 94.0556C187.374 93.6109 188.054 93.5366 188.339 93.907C188.789 94.2997 188.723 94.7888 188.493 95.2557Z" fill="black"/>
<path d="M189.278 109.305C188.883 109.75 188.203 109.824 187.918 109.454C187.468 109.061 187.392 108.387 187.765 108.105C188.16 107.661 188.84 107.586 189.125 107.957C189.739 108.372 189.673 108.861 189.278 109.305Z" fill="black"/>
<path d="M195.971 101.907C195.576 102.352 194.896 102.426 194.611 102.055C194.161 101.663 194.085 100.988 194.458 100.707C194.853 100.262 195.533 100.188 195.818 100.558C196.29 100.788 196.366 101.462 195.971 101.907Z" fill="black"/>
<path d="M174.879 103.046C174.879 103.046 174.857 103.209 174.692 103.187C174.67 103.35 174.506 103.328 174.319 103.469C174.133 103.61 173.968 103.588 173.803 103.565C173.639 103.543 173.474 103.521 173.332 103.336C173.167 103.314 173.189 103.151 173.047 102.965C172.904 102.78 172.948 102.454 172.97 102.291C172.992 102.128 173.014 101.965 173.179 101.987C173.179 101.987 173.201 101.824 173.365 101.846C173.552 101.705 173.903 101.587 174.232 101.631C174.396 101.653 174.561 101.676 174.539 101.839C174.681 102.024 174.824 102.209 174.802 102.372C174.944 102.557 174.923 102.72 174.879 103.046Z" fill="black"/>
<path d="M182.356 109.699C182.356 109.699 182.334 109.862 182.169 109.84C182.147 110.003 181.983 109.981 181.796 110.122C181.445 110.24 180.952 110.174 180.645 109.966C180.338 109.759 180.239 109.248 180.283 108.922C180.305 108.759 180.327 108.596 180.492 108.618C180.492 108.618 180.514 108.455 180.678 108.477C181.051 108.195 181.545 108.262 182.016 108.491C182.488 108.721 182.586 109.232 182.356 109.699Z" fill="black"/>
<path d="M166.266 82.4619C165.871 82.9066 165.191 82.9808 164.906 82.6104C164.456 82.2177 164.38 81.5434 164.753 81.2617C165.148 80.817 165.828 80.7428 166.113 81.1132C166.562 81.5059 166.474 82.158 166.266 82.4619Z" fill="black"/>
<path d="M173.743 89.1157C173.348 89.5604 172.668 89.6346 172.382 89.2642C171.933 88.8715 171.856 88.1972 172.229 87.9155C172.624 87.4708 173.304 87.3966 173.589 87.767C174.061 87.9966 174.138 88.671 173.743 89.1157Z" fill="black"/>
<path d="M166.657 89.4886C166.262 89.9333 165.582 90.0075 165.297 89.6371C164.847 89.2445 164.77 88.5702 165.143 88.2885C165.538 87.8438 166.218 87.7695 166.504 88.14C166.953 88.5326 167.03 89.2069 166.657 89.4886Z" fill="black"/>
<path d="M173.35 82.0911C172.955 82.5358 172.275 82.61 171.99 82.2396C171.376 81.8248 171.464 81.1726 171.859 80.7279C172.254 80.2832 172.934 80.209 173.219 80.5794C173.668 80.9721 173.581 81.6242 173.35 82.0911Z" fill="black"/>
<path d="M174.299 96.1635C173.904 96.6082 173.224 96.6825 172.939 96.312C172.49 95.9194 172.413 95.2451 172.786 94.9634C173.181 94.5187 173.861 94.4444 174.146 94.8149C174.618 95.0445 174.53 95.6966 174.299 96.1635Z" fill="black"/>
<path d="M180.828 88.743C180.433 89.1877 179.753 89.2619 179.468 88.8915C179.019 88.4989 178.942 87.8245 179.315 87.5429C179.71 87.0982 180.39 87.0239 180.675 87.3944C181.147 87.624 181.223 88.2983 180.828 88.743Z" fill="black"/>
<path d="M159.737 89.8823C159.737 89.8823 159.715 90.0454 159.55 90.0232C159.528 90.1862 159.364 90.164 159.177 90.3049C158.826 90.4235 158.333 90.3569 158.026 90.1495C157.719 89.9421 157.62 89.4308 157.664 89.1047C157.686 88.9417 157.708 88.7787 157.873 88.8009C157.873 88.8009 157.895 88.6378 158.059 88.66C158.432 88.3784 158.926 88.4449 159.397 88.6746C159.869 88.9042 159.967 89.4154 159.737 89.8823Z" fill="black"/>
<path d="M167.235 96.3717C167.235 96.3717 167.213 96.5348 167.048 96.5126C167.026 96.6756 166.862 96.6534 166.675 96.7942C166.324 96.9129 165.831 96.8463 165.524 96.6389C165.217 96.4315 165.118 95.9202 165.162 95.5941C165.184 95.4311 165.206 95.2681 165.371 95.2903C165.371 95.2903 165.393 95.1272 165.557 95.1494C165.93 94.8677 166.424 94.9343 166.895 95.1639C167.345 95.5566 167.443 96.0679 167.235 96.3717Z" fill="black"/>
<path d="M151.122 69.2984C150.913 69.6023 150.562 69.7209 150.233 69.6766C150.069 69.6544 149.904 69.6322 149.762 69.4469C149.597 69.4248 149.619 69.2617 149.476 69.0765C149.356 68.7283 149.422 68.2392 149.63 67.9353C149.839 67.6314 150.354 67.535 150.683 67.5794C150.848 67.6016 151.013 67.6238 150.991 67.7868C151.133 67.972 151.276 68.1572 151.254 68.3203C151.374 68.6685 151.308 69.1576 151.122 69.2984Z" fill="black"/>
<path d="M158.6 75.952C158.205 76.3967 157.525 76.4709 157.24 76.1005C156.79 75.7078 156.714 75.0335 157.087 74.7518C157.482 74.3071 158.162 74.2329 158.447 74.6033C158.918 74.8329 158.995 75.5072 158.6 75.952Z" fill="black"/>
<path d="M151.516 76.3227C151.121 76.7674 150.441 76.8417 150.156 76.4712C149.706 76.0786 149.63 75.4043 150.003 75.1226C150.398 74.6779 151.078 74.6036 151.363 74.9741C151.812 75.3667 151.889 76.041 151.516 76.3227Z" fill="black"/>
<path d="M158.209 68.9255C157.814 69.3702 157.134 69.4444 156.849 69.074C156.4 68.6814 156.323 68.007 156.696 67.7254C157.091 67.2807 157.771 67.2064 158.056 67.5769C158.528 67.8065 158.604 68.4808 158.209 68.9255Z" fill="black"/>
<path d="M159.157 82.9976C158.762 83.4423 158.082 83.5166 157.797 83.1461C157.347 82.7535 157.27 82.0792 157.643 81.7975C158.038 81.3528 158.718 81.2786 159.004 81.649C159.475 81.8786 159.387 82.5307 159.157 82.9976Z" fill="black"/>
<path d="M165.707 75.4166C165.312 75.8613 164.632 75.9355 164.347 75.5651C163.898 75.1724 163.821 74.4981 164.194 74.2165C164.589 73.7717 165.269 73.6975 165.554 74.0679C166.004 74.4606 166.08 75.1349 165.707 75.4166Z" fill="black"/>
<path d="M144.593 76.717C144.593 76.717 144.571 76.88 144.407 76.8578C144.385 77.0208 144.22 76.9987 144.034 77.1395C143.847 77.2803 143.683 77.2581 143.518 77.2359C143.354 77.2137 143.189 77.1916 143.047 77.0063C142.882 76.9841 142.904 76.8211 142.762 76.6359C142.619 76.4507 142.663 76.1246 142.685 75.9616C142.707 75.7985 142.729 75.6355 142.894 75.6577C142.894 75.6577 142.916 75.4947 143.08 75.5169C143.267 75.376 143.618 75.2574 143.947 75.3018C144.111 75.324 144.276 75.3461 144.254 75.5092C144.396 75.6944 144.539 75.8796 144.517 76.0427C144.659 76.2279 144.637 76.3909 144.593 76.717Z" fill="black"/>
<path d="M152.094 83.2075C152.094 83.2075 152.072 83.3706 151.908 83.3484C151.886 83.5114 151.721 83.4892 151.535 83.6301C151.184 83.7487 150.69 83.6821 150.383 83.4747C150.076 83.2673 149.978 82.756 150.021 82.4299C150.043 82.2669 150.065 82.1039 150.23 82.1261C150.23 82.1261 150.252 81.963 150.417 81.9852C150.79 81.7036 151.283 81.7701 151.755 81.9997C152.204 82.3924 152.303 82.9037 152.094 83.2075Z" fill="black"/>
<path d="M143.457 62.7862C143.062 63.2309 142.382 63.3052 142.097 62.9347C141.648 62.5421 141.571 61.8678 141.944 61.5861C142.339 61.1414 143.019 61.0671 143.304 61.4376C143.776 61.6672 143.852 62.3415 143.457 62.7862Z" fill="black"/>
<path d="M136.372 63.1594C136.35 63.3224 136.185 63.3003 135.999 63.4411C135.812 63.5819 135.483 63.5375 135.154 63.4932C135.407 62.8632 135.659 62.2333 135.912 61.6034C135.912 61.6034 136.076 61.6256 136.054 61.7886C136.197 61.9738 136.339 62.159 136.317 62.3221C136.789 62.5517 136.58 62.8556 136.372 63.1594Z" fill="black"/>
<path d="M143.067 55.7608C142.672 56.2055 141.992 56.2798 141.707 55.9093C141.399 55.7019 141.421 55.5389 141.279 55.3537C141.158 55.0054 141.202 54.6793 141.575 54.3977C141.784 54.0938 142.135 53.9751 142.628 54.0417C142.793 54.0639 142.958 54.0861 143.1 54.2713C143.385 54.6418 143.462 55.3161 143.067 55.7608Z" fill="black"/>
<path d="M144.014 69.8337C143.619 70.2784 142.939 70.3526 142.654 69.9822C142.204 69.5896 142.128 68.9152 142.501 68.6336C142.753 68.0036 143.411 68.0924 143.883 68.322C144.333 68.7147 144.409 69.389 144.014 69.8337Z" fill="black"/>
<path d="M150.567 62.2507C150.172 62.6954 149.492 62.7696 149.207 62.3992C148.757 62.0065 148.681 61.3322 149.054 61.0506C149.449 60.6059 150.129 60.5316 150.414 60.902C150.863 61.2947 150.94 61.969 150.567 62.2507Z" fill="black"/>
<path d="M136.952 70.0423C136.952 70.0423 136.93 70.2053 136.765 70.1831C136.743 70.3461 136.579 70.3239 136.392 70.4648C136.041 70.5834 135.548 70.5168 135.241 70.3094C134.933 70.102 134.835 69.5907 134.879 69.2647C134.901 69.1016 134.923 68.9386 135.087 68.9608C135.087 68.9608 135.109 68.7978 135.274 68.8199C135.647 68.5383 136.14 68.6049 136.612 68.8345C137.084 69.0641 137.16 69.7384 136.952 70.0423Z" fill="black"/>
<path d="M198.262 137.076C198.054 137.38 197.703 137.499 197.374 137.454C197.209 137.432 197.045 137.41 196.902 137.225C196.738 137.202 196.76 137.039 196.617 136.854C196.497 136.506 196.563 136.017 196.771 135.713C196.98 135.409 197.495 135.313 197.824 135.357C197.989 135.379 198.153 135.401 198.131 135.564C198.274 135.75 198.416 135.935 198.394 136.098C198.679 136.468 198.471 136.772 198.262 137.076Z" fill="black"/>
<path d="M183.33 123.607C183.308 123.77 183.308 123.77 183.143 123.748C182.956 123.889 182.935 124.052 182.77 124.03L182.605 124.008C182.671 123.519 182.715 123.193 182.781 122.703C182.803 122.54 182.847 122.214 182.869 122.051C183.034 122.074 183.034 122.074 183.176 122.259C183.319 122.444 183.461 122.629 183.439 122.792C183.395 123.118 183.516 123.467 183.33 123.607Z" fill="black"/>
<path d="M190.784 130.423C190.389 130.868 189.709 130.942 189.423 130.572C188.974 130.179 188.897 129.505 189.27 129.223C189.665 128.778 190.345 128.704 190.63 129.075C191.08 129.467 191.179 129.978 190.784 130.423Z" fill="black"/>
<path d="M183.675 130.958C183.467 131.262 182.951 131.359 182.622 131.314L182.458 131.292C182.458 131.292 182.293 131.27 182.315 131.107C181.866 130.714 181.789 130.04 182.162 129.758C182.184 129.595 182.349 129.617 182.535 129.476L182.7 129.499C183.051 129.38 183.38 129.424 183.665 129.795C183.994 129.839 184.07 130.513 183.675 130.958Z" fill="black"/>
<path d="M190.227 123.375C189.832 123.82 189.152 123.894 188.867 123.524C188.417 123.131 188.341 122.457 188.714 122.175C189.109 121.73 189.789 121.656 190.074 122.026C190.523 122.419 190.622 122.93 190.227 123.375Z" fill="black"/>
<path d="M191.176 137.449C190.781 137.894 190.101 137.968 189.816 137.597C189.367 137.205 189.29 136.53 189.663 136.249C190.058 135.804 190.738 135.73 191.023 136.1C191.473 136.493 191.571 137.004 191.176 137.449Z" fill="black"/>
<path d="M197.871 130.05C197.476 130.495 196.796 130.569 196.511 130.199C196.062 129.806 195.985 129.132 196.358 128.85C196.753 128.406 197.433 128.331 197.718 128.702C198.19 128.931 198.266 129.606 197.871 130.05Z" fill="black"/>
<path d="M184.322 137.353C184.3 137.516 184.278 137.679 184.092 137.82C184.07 137.983 183.883 138.124 183.697 138.265L183.532 138.243C183.247 137.872 182.984 137.339 182.885 136.828C182.907 136.665 182.743 136.642 182.765 136.479C182.765 136.479 182.951 136.338 183.116 136.361C183.28 136.383 183.28 136.383 183.445 136.405C183.609 136.427 183.938 136.472 184.081 136.657C184.245 136.679 184.366 137.027 184.322 137.353Z" fill="black"/>
<path d="M182.959 116.42C182.937 116.583 182.937 116.583 182.751 116.724C182.564 116.865 182.564 116.865 182.378 117.005C182.279 116.494 182.016 115.961 181.775 115.264C181.775 115.264 181.797 115.101 181.633 115.079C181.984 114.96 182.148 114.982 182.455 115.19C182.455 115.19 182.455 115.19 182.62 115.212C182.883 115.745 183.003 116.094 182.959 116.42Z" fill="black"/>
<path d="M153.022 97.4417C152.627 97.8864 151.947 97.9607 151.662 97.5902C151.212 97.1976 151.136 96.5233 151.509 96.2416C151.904 95.7969 152.584 95.7226 152.869 96.0931C153.318 96.4857 153.23 97.1378 153.022 97.4417Z" fill="black"/>
<path d="M160.108 97.0689C159.713 97.5136 159.033 97.5879 158.748 97.2174C158.298 96.8248 158.222 96.1505 158.595 95.8688C158.99 95.4241 159.67 95.3498 159.955 95.7203C160.426 95.9499 160.338 96.602 160.108 97.0689Z" fill="black"/>
<path d="M167.607 103.56C167.585 103.723 167.42 103.7 167.42 103.7C167.047 103.982 166.532 104.078 166.082 103.686C165.939 103.501 165.939 103.501 165.797 103.315C165.819 103.152 165.654 103.13 165.676 102.967C165.72 102.641 165.742 102.478 165.951 102.174C166.346 101.729 167.026 101.655 167.311 102.026C167.903 102.604 168.002 103.115 167.607 103.56Z" fill="black"/>
<path d="M137.88 84.2763C137.671 84.5801 137.32 84.6988 136.991 84.6544C136.827 84.6322 136.662 84.61 136.52 84.4248C136.355 84.4026 136.377 84.2396 136.235 84.0543C135.95 83.6839 135.994 83.3578 136.367 83.0761C136.575 82.7723 137.091 82.6758 137.42 82.7202C137.584 82.7424 137.749 82.7646 137.727 82.9276C137.869 83.1128 138.012 83.2981 137.99 83.4611C138.132 83.6463 138.066 84.1354 137.88 84.2763Z" fill="black"/>
<path d="M145.358 90.9297C144.963 91.3745 144.283 91.4487 143.998 91.0783C143.548 90.6856 143.472 90.0113 143.845 89.7296C144.24 89.2849 144.92 89.2107 145.205 89.5811C145.676 89.8107 145.753 90.485 145.358 90.9297Z" fill="black"/>
<path d="M138.119 89.9534C138.426 90.1608 138.404 90.3239 138.546 90.5091C138.404 90.3239 138.261 90.1386 138.119 89.9534Z" fill="black"/>
<path d="M144.963 83.9053C144.568 84.35 143.888 84.4243 143.603 84.0538C143.154 83.6612 143.077 82.9869 143.45 82.7052C143.845 82.2605 144.525 82.1863 144.81 82.5567C145.282 82.7863 145.194 83.4384 144.963 83.9053Z" fill="black"/>
<path d="M145.935 97.8135C145.485 97.4208 145.014 97.1912 144.399 96.7764C144.399 96.7764 144.235 96.7542 144.257 96.5912C144.443 96.4503 144.63 96.3095 144.981 96.1908C145.31 96.2352 145.475 96.2574 145.617 96.4426C145.924 96.6501 146.067 96.8353 146.045 96.9983C146.187 97.1835 146.143 97.5096 145.935 97.8135Z" fill="black"/>
<path d="M152.463 90.3945C152.068 90.8392 151.388 90.9134 151.103 90.543C150.654 90.1503 150.577 89.476 150.95 89.1944C151.345 88.7496 152.025 88.6754 152.31 89.0458C152.76 89.4385 152.836 90.1128 152.463 90.3945Z" fill="black"/>
<path d="M137.323 77.2304C136.928 77.6751 136.248 77.7494 135.963 77.3789C135.513 76.9863 135.436 76.312 135.809 76.0303C136.204 75.5856 136.885 75.5113 137.17 75.8818C137.619 76.2744 137.718 76.7857 137.323 77.2304Z" fill="black"/>
<rect x="212" y="2.5" width="214.016" height="452" rx="8" fill="#020A13" stroke="#020A13" stroke-width="4"/>
<rect x="199.492" y="16" width="211.016" height="449" rx="6.5" fill="#FFFAE2" stroke="#020A13" stroke-width="7"/>
<g clip-path="url(#clip0)">
<ellipse cx="469.041" cy="96.9495" rx="50.5311" ry="50.5062" fill="#58B7FE"/>
<path d="M444.34 53.0286C438.92 35.3091 459.02 26.2706 469.747 23.9663C486.543 21.8501 494.307 37.9331 495.295 48.0908C496.086 56.2169 478.592 83.8308 469.747 96.6219C463.536 89.4739 449.76 70.7481 444.34 53.0286Z" fill="#16DB93" stroke="black"/>
<ellipse cx="469.111" cy="48.7256" rx="10.939" ry="10.9336" fill="#FEBD00"/>
<path d="M472.729 155.875C503.565 153.989 528.041 128.325 528.041 97.1425C528.041 80.4012 520.896 64.4418 508.359 53.2656L503.427 58.7387C524.676 77.6877 526.52 110.204 507.529 131.407C507.114 131.867 506.7 132.327 506.285 132.787L502.782 129.291L505.732 120.415C506.1 119.357 505.916 118.161 505.317 117.195L499.601 108.641L504.856 103.398C505.271 102.984 505.547 102.524 505.732 101.972L509.419 90.9335C509.742 90.0137 509.65 89.0018 509.235 88.128L505.547 80.7692C504.902 79.5274 503.657 78.7455 502.229 78.7455H491.166V86.1043H499.97L501.952 90.0597L499.002 98.8442L492.226 105.605C490.982 106.847 490.797 108.779 491.765 110.25L498.126 119.771L494.992 129.107C494.531 130.441 494.9 131.867 495.868 132.879L500.754 137.754C480.795 153.345 452.447 152.15 433.918 134.948L438.066 126.624H450.604C451.986 126.624 453.277 125.842 453.922 124.6L457.61 117.241C458.532 115.402 457.794 113.194 455.95 112.32C455.858 112.274 455.766 112.228 455.674 112.182L439.541 105.743V93.4631C439.541 92.0833 438.757 90.7956 437.513 90.1517L432.996 87.898L434.425 83.5747L445.533 87.99L448.253 81.1371L433.503 75.2501C431.613 74.5142 429.446 75.434 428.709 77.3197C428.663 77.3657 428.663 77.4577 428.617 77.5037L424.929 88.5419C424.33 90.2896 425.16 92.1753 426.773 93.0032L432.12 95.6708V108.181C432.12 109.698 433.042 111.032 434.425 111.584L449.221 117.471L448.345 119.219H435.854C434.471 119.219 433.18 120.001 432.535 121.243L428.571 129.107C411.608 107.767 414.236 76.9058 434.609 58.7387L429.723 53.2656C417.186 64.4418 410.041 80.4012 410.041 97.1425C410.041 128.371 434.517 153.989 465.354 155.875H472.729Z" fill="black"/>
<path d="M469.041 100.822C470.193 100.822 471.254 100.27 471.945 99.3961C474.711 95.8547 498.541 64.3498 498.541 49.3102C498.541 33.0749 485.312 19.875 469.041 19.875C452.77 19.875 439.541 33.0749 439.541 49.3102C439.541 64.3498 463.371 95.8547 466.137 99.3961C466.829 100.27 467.889 100.822 469.041 100.822ZM446.916 49.3102C446.916 37.1222 456.826 27.2338 469.041 27.2338C481.256 27.2338 491.166 37.1222 491.166 49.3102C491.166 58.6927 477.154 79.8493 469.041 90.9795C466.598 87.622 462.911 82.3789 459.223 76.5838C448.529 59.6586 446.916 52.2538 446.916 49.3102Z" fill="black"/>
<path d="M483.791 49.3103C483.791 41.1696 477.2 34.5927 469.041 34.5927C460.882 34.5927 454.291 41.1696 454.291 49.3103C454.291 57.451 460.882 64.0279 469.041 64.0279C477.2 64.0279 483.791 57.451 483.791 49.3103ZM469.041 56.6691C464.985 56.6691 461.666 53.3576 461.666 49.3103C461.666 45.2629 464.985 41.9515 469.041 41.9515C473.097 41.9515 476.416 45.2629 476.416 49.3103C476.416 53.3576 473.097 56.6691 469.041 56.6691Z" fill="black"/>
</g>
<path d="M473.98 152V243.75C473.98 246.511 471.742 248.75 468.98 248.75H419.23" stroke="#020A13" stroke-width="6" stroke-dasharray="8 8"/>
<circle cx="308" cy="382.531" r="27.5" fill="#020A13"/>
<circle cx="308" cy="382.531" r="11.0079" fill="#C9D7EA"/>
<circle cx="353" cy="81" r="10" fill="#020A13"/>
<path d="M200 136H416" stroke="#020A13" stroke-width="3"/>
<path d="M25.241 421.18L31.4017 310.762C31.4643 309.639 31.9963 308.595 32.8674 307.885L217.472 157.324C220.085 155.193 224 157.052 224 160.424V417.089C224 419.263 222.264 421.039 220.09 421.088L29.3252 425.402C26.9933 425.455 25.1111 423.509 25.241 421.18Z" fill="#020A13"/>
<path d="M57 352.25H117.75" stroke="black"/>
<path d="M9.26039 408.252L21.7772 155.99C21.9039 153.437 23.9359 151.39 26.488 151.246L210.717 140.8C213.585 140.637 216 142.919 216 145.792V408.5C216 411.261 213.761 413.5 211 413.5H14.2542C11.3955 413.5 9.11871 411.107 9.26039 408.252Z" fill="#16DB93" stroke="#020A13" stroke-width="3"/>
<path d="M21.5 180.5L23.625 152.125L214.625 141.625L216 172L21.5 180.5Z" fill="#020A13"/>
<circle cx="38" cy="164.5" r="3" fill="#16DB93"/>
<circle cx="38" cy="164.5" r="3" fill="#16DB93"/>
<circle cx="47" cy="164.5" r="3" fill="#FEBD00"/>
<circle cx="56" cy="164.5" r="3" fill="#FE0E11"/>
<line x1="57" y1="328.5" x2="145" y2="328.5" stroke="#020A13" stroke-width="5"/>
<path d="M57 350.625H115.5" stroke="#020A13" stroke-width="5"/>
<path d="M57 360.625H86.25" stroke="#020A13" stroke-width="5"/>
<path d="M57 370.625H107.25" stroke="#020A13" stroke-width="5"/>
<path d="M57 340.625H147.5" stroke="#020A13" stroke-opacity="0.8" stroke-width="5"/>
<path d="M151.5 340.625H167.75" stroke="#020A13" stroke-opacity="0.8" stroke-width="5"/>
<path d="M57 314.5H84.5" stroke="#020A13" stroke-width="3"/>
<line x1="317" y1="82.5" x2="240" y2="82.5" stroke="#020A13" stroke-width="17"/>
<line x1="336.5" y1="208.562" x2="266.5" y2="208.562" stroke="#020A13" stroke-width="15" stroke-linecap="round"/>
<line x1="336.5" y1="238.562" x2="266.5" y2="238.562" stroke="#020A13" stroke-width="15" stroke-linecap="round"/>
<line x1="336.5" y1="268.562" x2="266.5" y2="268.562" stroke="#020A13" stroke-width="15" stroke-linecap="round"/>
<path d="M97.7688 115.948C103.827 108.823 105.862 99.9316 107.959 90.4603C111.062 93.0963 113.912 95.1884 117.731 94.6231C122.087 94.0278 121.854 89.5028 124.115 87.0153C126.156 89.264 127.882 91.5487 129.887 93.4832C134.203 97.5397 137.623 96.8291 139.832 91.3874C141.127 88.2468 141.709 84.997 142.025 81.6504C143.705 62.9962 142.43 44.3944 138.419 26.0748C138.142 24.7697 138.566 22.3656 136.494 22.8898C134.645 23.4202 136.021 25.4268 136.34 26.8225C139.64 43.3777 141.012 60.0584 140.053 76.943C139.79 81.5885 139.213 86.2701 137.482 90.6065C136.811 92.2433 135.716 94.6288 133.524 93.0023C129.14 89.7492 124.279 85.9461 124.126 80.1706C123.88 68.0397 122.057 56.3125 118.978 44.7294C116.833 36.5724 115.008 28.1558 109.787 21.211C108.537 19.4763 107.1 18.0497 104.895 18.5255C102.557 18.9529 101.873 21.0366 101.461 22.9937C100.546 26.9501 100.972 30.9436 101.713 34.9011C104.837 51.3172 112.258 66.0626 120 80.5485C121.786 83.9086 121.304 89.9797 118.537 91.3795C114.59 93.3282 112.061 90.9765 109.682 88.0027C108.342 86.3102 107.715 84.727 107.596 82.5763C107.142 74.7345 105.159 67.1635 102.409 59.8397C102.035 58.8004 101.583 57.3563 100.139 57.8084C99.0995 58.1823 99.4188 59.578 99.5269 60.5205C99.8491 66.6586 100.298 73.0686 102.783 78.6403C107.458 89.149 104.383 98.4142 100.052 107.824C98.9083 110.342 97.4568 112.673 96.2712 115.101C96.6636 115.47 97.1951 115.663 97.7688 115.948ZM103.438 29.1329C103.444 28.9094 103.402 28.8187 103.408 28.5952C103.7 26.1427 102.415 22.4385 105.569 21.6311C108.542 20.9081 109.156 24.5936 110.127 26.6785C117.433 42.3602 120.412 59.1749 121.053 76.417C112.563 61.5077 105.378 46.3214 103.438 29.1329Z" fill="#020A13"/>
<g clip-path="url(#clip1)">
<path d="M29.6871 115.987C28.3273 117.437 29.7626 119.345 29.8381 121.329C29.8381 122.168 29.8381 123.008 29.8381 123.847C29.536 123.924 29.3094 124 29.0072 124.076C28.4029 122.932 27.723 121.863 27.3453 120.718C25.6835 115.3 24.3237 109.805 22.5863 104.462C21.8309 102.097 20.6223 99.807 19.4137 97.5937C17.5252 94.1594 13.446 93.7778 10.4245 94.2357C9.89568 94.312 9.44245 94.9226 8.83813 95.3805C7.70504 94.2357 6.42086 94.6173 5.06115 95.2278C4.0036 95.6857 2.94604 96.1437 1.81295 96.22C1.20863 96.2963 0.604317 95.6094 0 95.3042C0.377698 94.8462 0.604317 94.1594 1.05755 93.9304C3.2482 92.862 5.51439 91.9461 7.78058 90.954C15.5612 87.4433 18.5072 79.0483 16.9964 71.1874C16.1655 66.9136 15.1835 62.6397 14.4281 58.2896C14.277 57.5264 14.8813 56.7632 15.1835 56C15.6367 56.6105 16.241 57.0685 16.4676 57.7553C17.9029 61.6476 18.9604 65.7688 20.7734 69.4321C23.795 75.6139 30.6691 79.8878 38.2986 79.4299C38.7518 79.4299 39.205 79.2009 39.5827 79.3535C40.4137 79.6588 41.1691 80.1167 41.9245 80.4983C41.4712 81.2615 41.1691 82.1773 40.5648 82.7116C38.223 84.8485 35.5036 86.5275 33.464 88.8934C28.2518 94.8462 26.741 102.02 27.7986 109.728C27.9496 110.644 28.0252 111.636 28.2518 112.552C28.6295 113.621 29.1583 114.613 29.6871 115.987ZM12.1619 91.1066C15.4101 91.7172 18.8094 92.0988 20.7734 95.1515C22.4353 97.899 23.8705 100.799 25.2302 103.394C25.3813 99.5017 26.1367 95.5331 28.3273 92.0224C30.518 88.5881 33.0863 85.459 35.2014 82.5589C32.7086 81.6431 29.6871 80.8799 27.1942 79.3535C24.6259 77.8272 22.5108 75.5376 20.1691 73.7059C19.2626 82.7116 18.9604 83.3221 12.1619 91.1066Z" fill="black"/>
</g>
<path d="M533.802 362.957C533.609 365.853 533.351 368.685 532 371.323C530.584 374.026 528.782 374.605 526.208 372.932C522.604 370.551 520.159 367.14 519.129 362.957C518.421 360.125 519.579 357.68 521.832 355.942C524.277 354.076 526.98 353.883 529.683 355.234C532.901 356.779 533.995 359.546 533.802 362.957Z" fill="#010101"/>
<path d="M533.603 313.667C533.217 315.598 533.925 319.202 530.771 319.781C527.682 320.425 526.202 317.207 524.851 314.761C523.692 312.702 523.757 310.643 525.494 308.905C526.975 307.361 528.776 306.974 530.771 307.811C533.024 308.841 533.796 310.707 533.603 313.667Z" fill="#020202"/>
<path d="M522.23 333.267C523.352 334.78 525.293 336.302 524.09 338.201C522.933 340.055 520.621 339.257 518.759 338.829C516.989 338.401 515.587 337.522 515.381 335.472C515.216 333.832 515.867 332.473 517.375 331.806C519.341 330.962 520.926 331.661 522.23 333.267Z" fill="#050505"/>
<path d="M502.95 349.85C502.757 351.588 502.886 353.583 501.084 354.677C499.99 355.32 499.025 354.419 498.317 353.711C496.708 352.103 495.228 350.301 495.936 347.855C496.45 346.053 497.995 345.088 499.926 345.41C502.371 345.796 503.079 347.598 502.95 349.85Z" fill="#050505"/>
<path d="M548.019 346.38C547.504 347.924 548.084 350.434 545.445 350.949C543.643 351.271 540.618 347.152 540.812 344.835C541.005 342.712 542.227 341.553 544.351 341.489C546.797 341.424 548.148 343.291 548.019 346.38Z" fill="#030303"/>
<path d="M421.641 343.4V277.078C421.641 276.125 420.411 275.693 419.751 276.381C415.671 280.643 408.107 284.776 388.759 279.322C388.129 279.145 387.482 279.618 387.466 280.272C386.444 322.861 407.301 335.352 420.053 344.228C420.722 344.694 421.641 344.214 421.641 343.4Z" fill="#020A13" stroke="#020A13" stroke-width="4"/>
<path d="M420.375 343.336V277.014C420.375 276.06 421.605 275.629 422.264 276.317C426.344 280.579 433.908 284.711 453.257 279.258C453.886 279.081 454.534 279.554 454.55 280.208C455.571 322.797 434.714 335.287 421.962 344.164C421.294 344.63 420.375 344.15 420.375 343.336Z" fill="#020A13" stroke="#020A13" stroke-width="4"/>
<path d="M418.086 341.172V274.85C418.086 273.897 416.856 273.465 416.197 274.154C412.117 278.415 404.553 282.548 385.204 277.095C384.575 276.917 383.927 277.391 383.911 278.045C382.889 320.633 403.747 333.124 416.499 342.001C417.167 342.466 418.086 341.986 418.086 341.172Z" fill="#0060F9" stroke="#020A13" stroke-width="4"/>
<path d="M416.82 341.108V274.786C416.82 273.833 418.05 273.401 418.709 274.09C422.789 278.351 430.354 282.484 449.702 277.03C450.331 276.853 450.979 277.327 450.995 277.98C452.017 320.569 431.16 333.06 418.407 341.937C417.739 342.402 416.82 341.922 416.82 341.108Z" fill="#00C6FC" stroke="#020A13" stroke-width="4"/>
<path d="M112.5 239.167C113.218 239.167 113.907 239.452 114.415 239.96C114.923 240.468 115.208 241.157 115.208 241.875C115.208 242.593 114.923 243.282 114.415 243.79C113.907 244.298 113.218 244.583 112.5 244.583C111.782 244.583 111.093 244.298 110.585 243.79C110.077 243.282 109.792 242.593 109.792 241.875C109.792 241.157 110.077 240.468 110.585 239.96C111.093 239.452 111.782 239.167 112.5 239.167V239.167ZM136.875 247.292C136.875 262.323 126.475 276.379 112.5 279.792C98.525 276.379 88.125 262.323 88.125 247.292V231.042L112.5 220.208L136.875 231.042V247.292ZM112.5 233.75C110.345 233.75 108.278 234.606 106.755 236.13C105.231 237.654 104.375 239.72 104.375 241.875C104.375 245.423 106.623 248.429 109.792 249.54V266.25H115.208V260.833H120.625V255.417H115.208V249.54C118.377 248.429 120.625 245.423 120.625 241.875C120.625 239.72 119.769 237.654 118.245 236.13C116.722 234.606 114.655 233.75 112.5 233.75Z" fill="black"/>
<path d="M134.832 222.822L134.558 222.991L134.259 222.85L134.21 223.017L133.794 223.035L133.617 222.828L133.512 223.019L133.093 222.752L133.185 222.641L133.075 222.463C133.237 222.266 133.282 221.992 133.552 221.909C133.468 221.744 133.58 221.603 133.659 221.526C133.846 221.343 133.922 221.06 134.123 220.93C134.359 220.778 134.458 220.536 134.629 220.348C134.833 220.123 135.042 219.889 135.23 219.641C135.413 219.4 135.591 219.122 135.872 218.96C136.152 218.437 136.641 218.095 137.022 217.66C137.318 217.321 137.601 216.953 137.978 216.68C138.109 216.585 138.152 216.362 138.425 216.483C138.411 216.228 138.468 216.047 138.677 215.927C138.824 215.836 138.955 215.72 139.063 215.585C139.35 215.242 139.703 214.971 140.026 214.666C140.321 214.387 140.655 214.147 140.942 213.868C141.328 213.492 141.811 213.289 142.236 212.987C142.31 212.934 142.43 212.948 142.519 212.909C142.615 212.867 142.704 212.752 142.791 212.756C142.904 212.762 142.932 212.676 143.005 212.649C143.112 212.609 143.223 212.578 143.354 212.536C143.442 212.584 143.601 212.526 143.69 212.672C143.713 212.708 143.826 212.735 143.859 212.712C144.11 212.536 144.303 212.713 144.527 212.824C144.788 213.148 144.769 213.5 144.534 213.856C144.504 213.904 144.468 213.948 144.427 213.986C144.262 214.128 144.063 214.243 143.934 214.412C143.792 214.597 143.608 214.703 143.424 214.823C143.248 214.939 143.006 215.018 142.916 215.182C142.815 215.364 142.538 215.345 142.535 215.586C142.334 215.533 142.333 215.799 142.174 215.812C142.114 216.003 141.916 216.043 141.794 216.163C141.68 216.274 141.555 216.375 141.449 216.487C141.099 216.849 140.723 217.185 140.324 217.494C140.24 217.77 139.89 217.774 139.78 218.039C139.686 218.267 139.444 218.386 139.274 218.552C139.08 218.74 138.868 218.924 138.661 219.104C138.467 219.272 138.292 219.463 138.1 219.637C137.818 219.894 137.6 220.22 137.285 220.449C137.247 220.699 136.941 220.693 136.852 220.921C136.778 221.112 136.583 221.257 136.431 221.389C136.06 221.71 135.82 222.136 135.473 222.471C135.391 222.55 135.31 222.631 135.216 222.723C135.143 222.638 135.087 222.573 135.001 222.471L134.832 222.822Z" fill="black"/>
<path d="M144.055 223.22C144.063 223.185 144.07 223.156 144.077 223.126L144.395 223.277C144.377 223.191 144.365 223.137 144.346 223.049C144.468 222.993 144.606 222.872 144.727 222.887C144.923 222.912 144.915 222.708 145.053 222.678C145.178 222.65 145.298 222.51 145.409 222.522C145.59 222.542 145.68 222.412 145.815 222.37C145.955 222.334 146.097 222.306 146.239 222.287L146.433 222.063L146.734 222.238C146.694 222.085 146.681 222.034 146.66 221.952C147.143 221.937 147.498 221.556 147.965 221.515C147.999 221.55 148.029 221.581 148.107 221.661C148.082 221.549 148.071 221.502 148.058 221.446L148.393 221.344C148.437 221.401 148.482 221.458 148.547 221.541L148.599 221.415L148.808 221.396L148.78 221.192C148.904 221.199 149.029 221.207 149.176 221.216C149.203 221.249 149.247 221.306 149.305 221.38L149.493 221.074C149.751 221.187 150.086 221.107 150.337 221.318L150.31 221.466C150.43 221.495 150.451 221.453 150.427 221.237C150.45 221.218 150.474 221.201 150.5 221.186C150.511 221.181 150.528 221.188 150.577 221.193C150.587 221.263 150.598 221.342 150.611 221.428L150.85 221.609L150.564 221.668C150.645 221.746 150.705 221.804 150.806 221.902L150.4 221.955L150.417 221.828L150.132 221.851L150.294 222.113L150.127 222.387L149.419 222.502C149.354 222.588 149 222.749 148.809 222.773L148.768 222.917L148.437 222.953L148.458 222.826C148.433 222.824 148.392 222.81 148.381 222.822C148.262 222.959 148.192 223.159 147.938 223.108C147.891 223.098 147.818 223.214 147.758 223.274C147.484 223.544 147.162 223.68 146.776 223.632C146.726 223.686 146.68 223.76 146.614 223.799C146.536 223.846 146.37 223.852 146.364 223.892C146.334 224.103 146.169 223.971 146.081 224.024C145.997 224.081 145.901 224.118 145.801 224.133C145.607 224.158 145.419 224.254 145.237 224.337C144.626 224.617 143.991 224.842 143.339 225.009C142.834 225.139 142.334 225.297 141.818 225.372C141.47 225.423 141.103 225.497 140.767 225.436C140.464 225.381 140.137 225.369 139.83 225.212C139.831 225.166 139.831 225.109 139.832 225.044L139.718 225.008L139.838 224.556C139.979 224.519 140.134 224.492 140.309 224.62C140.263 224.513 140.229 224.435 140.193 224.351L140.304 224.283C140.355 224.322 140.399 224.356 140.445 224.39L140.525 224.224L140.694 224.239L140.773 223.95C140.939 224.008 141.069 224.071 141.206 224.095C141.339 224.119 141.472 223.934 141.635 224.106C141.634 224.14 141.633 224.197 141.631 224.285L141.898 224.138L141.682 224.073C141.783 224.017 141.853 223.948 141.927 223.944C142.097 223.929 142.264 223.894 142.426 223.839C142.577 223.791 142.723 223.731 142.865 223.659C142.993 223.597 143.137 223.571 143.266 223.51C143.402 223.446 143.52 223.342 143.659 223.289C143.782 223.242 143.923 223.241 144.055 223.22Z" fill="black"/>
<path d="M152.468 231.392L152.67 231.718C152.624 231.939 152.513 232.102 152.268 232.222C152.225 232.199 152.144 232.158 152.049 232.109C151.89 232.425 151.58 232.143 151.412 232.322C151.004 232.309 150.623 232.176 150.223 232.192C150.162 232.187 150.103 232.174 150.046 232.153C149.63 232.058 149.207 232.001 148.782 231.982C148.487 231.958 148.194 231.912 147.906 231.845C147.593 231.773 147.272 231.742 146.951 231.754C146.89 231.748 146.831 231.735 146.774 231.714C146.537 231.661 146.303 231.579 146.065 231.565C145.873 231.554 145.696 231.491 145.513 231.459C145.195 231.405 144.888 231.29 144.578 231.197C144.266 231.104 143.95 231.018 143.644 230.906C143.517 230.859 143.411 230.753 143.291 230.67L143.455 230.132C143.527 230.002 143.71 230.174 143.869 230.142L143.924 229.994L144.495 229.785C145.141 229.87 145.871 229.934 146.597 230.064C146.951 230.127 147.31 230.154 147.67 230.145C147.929 230.137 148.192 230.228 148.455 230.266C149.152 230.368 149.858 230.478 150.526 230.691C151.154 230.891 151.823 230.978 152.468 231.392Z" fill="black"/>
<defs>
<clipPath id="clip0">
<rect width="118" height="136" fill="white" transform="translate(410.041 19.875)"/>
</clipPath>
<clipPath id="clip1">
<rect width="42" height="68" fill="white" transform="translate(0 56)"/>
</clipPath>
</defs>
</svg>
