<svg width="477" height="428" viewBox="0 0 477 428" fill="none" xmlns="http://www.w3.org/2000/svg">
<path fill-rule="evenodd" clip-rule="evenodd" d="M2.37817 189.465C6.16512 148.606 13.9359 105.977 42.1153 76.1292C68.7502 47.9172 111.354 47.7942 148.052 35.165C185.646 22.2274 219.827 -2.60496 259.39 1.35723C304.406 5.86559 351.461 22.3488 378.912 58.2853C406.585 94.5142 403.647 143.892 403.077 189.465C402.514 234.463 402.744 282.331 375.659 318.284C348.768 353.978 302.121 364.462 259.985 379.403C216.538 394.808 172.471 417.393 127.755 406.186C81.7291 394.651 43.34 360.205 19.5913 319.154C-2.79774 280.453 -1.74725 233.977 2.37817 189.465Z" fill="#F4F6AC"/>
<g clip-path="url(#clip0)">
<path d="M355.233 272.81C356.338 275.503 356.2 278.473 356.338 281.235C356.891 292.354 356.684 303.473 355.716 314.592C355.647 315.214 355.302 315.836 355.094 316.457C346.526 319.772 337.957 321.499 328.974 318.046C325.242 316.595 325.104 316.664 324.966 320.946C324.897 323.64 323.791 325.573 321.235 326.54C314.324 329.303 307.138 331.444 300.78 335.518C300.297 335.795 299.675 335.864 299.122 335.864C292.35 335.725 285.647 335.449 278.875 336.14C272.38 336.83 265.815 336.623 259.319 336.83C249.714 337.107 240.109 338.074 230.435 337.728C229.053 337.521 228.362 336.485 227.809 335.311C226.358 331.996 224.492 328.888 223.11 325.573C221.244 321.084 218.964 316.733 217.098 312.244C216.476 310.794 215.163 309.275 216.545 307.548C218.065 306.788 219.724 307.134 221.244 306.927C223.939 306.65 224.354 305.683 224.285 301.954C224.216 299.606 223.11 299.122 221.037 299.192C218.204 299.33 215.301 299.468 212.468 299.053C209.911 297.948 209.635 295.255 208.668 293.183C202.863 280.337 197.473 267.216 191.807 254.301C190.287 250.848 190.356 250.986 187.453 253.334C177.019 261.898 165.133 267.285 151.52 268.321C150.346 266.801 151.52 265.765 152.28 264.798C154.561 261.76 151.797 260.931 150.207 259.481C148.411 257.892 146.891 258.238 145.716 260.24C144.403 262.45 142.468 264.315 141.362 266.594C142.537 268.113 145.37 265.973 145.509 268.873C144.057 269.909 142.399 269.84 140.879 269.633C135.281 269.011 129.615 268.942 124.156 267.561C123.396 267.423 122.705 267.147 122.014 266.939C113.169 264.798 105.291 261 99.1412 254.094C97.9664 252.713 96.5844 251.469 96.3771 249.536C97.1372 247.257 98.1737 245.047 98.7956 242.768C99.1412 241.455 100.523 239.66 98.5883 238.831C96.5844 237.933 94.5113 235.723 92.0237 237.795C91.6091 238.14 91.2635 238.624 90.5725 238.417C87.532 233.03 86.15 227.298 86.841 221.082C85.9427 210.032 86.2191 199.051 88.5686 188.277C89.3287 184.824 86.7719 186.067 85.459 185.446C86.3573 183.927 87.8776 184.341 89.1905 184.272C93.3366 184.203 97.4827 184.41 101.629 184.203C105.499 183.996 108.263 185.377 110.474 188.485C111.303 189.659 112.201 190.833 113.445 191.869C113.722 190.626 113.238 189.59 113.238 188.485C113.238 186.344 113.791 184.893 116.209 184.203C121.807 182.545 124.225 179.023 124.225 173.291C124.225 172.117 124.087 171.012 124.225 169.838C125.193 160.86 117.453 153.332 108.055 153.056C106.051 152.987 103.909 153.608 102.113 152.089C103.011 148.981 104.6 146.218 106.12 143.387C107.226 141.315 108.885 140.072 111.303 140.21C114.067 138.553 116.969 139.865 119.734 140.141C127.611 140.901 135.489 142.006 143.159 143.87C144.956 144.285 146.683 144.837 148.342 145.804C150.069 147.047 151.382 148.636 151.797 150.777C151.52 152.296 152.073 154.092 150.277 155.058C148.825 154.161 147.789 154.161 147.236 156.025C145.578 161.205 143.435 166.316 141.57 171.426C140.81 173.36 141.293 174.465 143.228 175.017C145.232 175.639 146.752 176.675 146.752 179.092C145.785 185.584 143.643 191.8 142.053 198.153C141.639 199.742 141.293 201.261 141.293 202.919C141.362 206.924 143.919 209.549 147.858 209.963C153.11 210.515 157.187 208.098 160.987 204.991C165.617 201.192 169.556 196.841 171.698 190.902C173.357 186.344 176.121 182.338 179.714 178.954C180.059 178.609 180.405 178.263 180.82 177.918C184.758 173.843 189.526 170.943 194.364 168.111C197.266 167.282 199.408 164.313 202.863 165.28C203.001 165.487 203.209 165.694 203.209 165.901C202.863 170.736 205.074 174.327 208.391 177.504C208.668 179.921 207.286 181.924 206.456 183.996C205.282 186.965 207.355 187.518 209.29 188.347C211.293 189.175 213.021 189.451 213.988 186.896C214.887 184.548 215.232 181.924 217.236 180.128C218.964 179.368 220.83 179.783 222.695 179.576C229.675 178.954 235.894 176.744 240.593 171.219C242.804 168.595 243.564 165.97 242.182 162.655C241.629 161.205 240.178 159.686 241.698 157.959C245.844 156.785 249.921 157.614 253.998 158.166C268.164 159.962 281.777 163.691 294.147 171.012C295.045 171.564 296.081 171.91 296.772 172.669C301.195 177.089 306.654 177.711 312.666 177.573C324.621 177.297 336.644 177.435 348.599 177.504C350.257 177.504 352.399 176.813 353.298 179.161C351.847 180.473 350.05 180.128 348.392 180.128C335.884 180.197 323.377 180.128 310.869 180.128C309.764 180.128 308.589 179.921 307.207 180.473C308.174 182.96 311.007 184.065 311.906 186.551C308.658 190.28 311.007 193.871 312.251 197.463C313.357 200.709 314.67 203.886 315.637 207.201C316.19 209.134 317.158 209.825 319.161 209.065C321.235 208.306 323.308 207.753 324.759 205.957C326.763 206.165 327.454 207.96 328.559 209.203C330.771 211.897 333.189 214.314 335.815 216.524C346.388 225.226 350.948 237.035 353.09 250.088C353.16 250.572 353.021 250.986 352.814 251.4C350.603 251.884 348.322 251.746 346.388 253.472C344.591 255.061 344.107 256.097 345.558 258.238C348.875 262.934 352.192 267.768 355.233 272.81Z" fill="#FEDB4D"/>
<path d="M352.814 178.609C337.404 178.54 321.994 178.402 306.584 178.471C304.166 178.471 302.3 177.849 300.296 176.33C286.683 165.901 270.79 161.205 254.067 158.995C249.852 158.442 245.637 158.028 241.352 158.235C240.178 157.614 239.763 156.44 239.832 155.335C239.97 151.951 238.104 151.053 235.133 150.431C231.609 149.741 228.499 147.945 227.601 143.939C228.085 142.144 229.536 142.696 230.711 142.696C235.271 142.489 239.003 138.691 238.934 134.271C238.865 130.818 237.621 129.574 234.097 129.713C233.198 129.782 232.3 129.989 231.471 129.298C231.125 126.536 233.198 124.947 234.649 123.152C237.344 119.837 236.93 118.041 232.922 116.591C229.329 115.279 225.597 114.933 221.796 114.933C214.817 114.864 208.529 112.792 202.863 108.649C201.273 107.475 199.822 106.162 200.098 103.883C206.041 96.2173 211.984 88.4824 218.272 80.333C219.723 84.0624 219.931 87.5155 220.553 90.8995C220.967 92.9714 221.589 93.5239 223.731 92.9024C227.048 91.9355 230.434 91.452 233.751 90.4852C235.617 89.9327 236.515 90.347 237.413 92.1427C239.763 96.977 242.32 101.673 244.876 106.439C247.019 107.06 249.161 106.991 251.303 106.508C252.892 106.162 254.482 106.162 256.071 106.231C258.559 106.3 259.595 107.682 259.388 110.03C259.25 111.825 258.904 113.69 258.904 115.486C258.904 117.35 259.595 118.179 261.599 117.972C263.188 117.765 265.4 116.591 266.229 118.663C267.058 120.665 264.985 122.116 263.88 123.704C263.396 124.395 262.636 124.74 261.945 125.085C258.766 129.091 255.587 133.097 252.34 137.24C253.86 138.069 255.104 137.724 256.278 137.724C288.203 137.724 320.059 137.793 351.984 137.724C354.127 137.724 355.232 137.862 355.232 140.555C355.094 182.683 355.094 224.811 355.094 266.87C354.334 266.663 353.919 266.111 353.85 265.42C353.021 261.069 352.053 256.787 352.468 252.298C352.814 251.538 352.952 250.779 352.883 249.95C351.224 230.958 352.399 211.966 352.192 192.905C351.984 188.208 351.224 183.305 352.814 178.609Z" fill="black"/>
<path d="M96.8607 249.398C102.803 258.79 111.856 263.555 122.29 266.18C123.465 267.561 123.534 269.218 123.189 270.738C122.29 275.158 122.774 279.647 122.636 284.067C122.152 298.708 121.185 313.28 121.185 327.921C121.185 329.096 121.323 330.546 119.664 331.029C119.181 325.366 119.181 325.366 113.169 325.366C96.2388 325.366 79.3088 325.297 62.448 325.435C59.6148 325.435 58.7165 324.745 58.7165 321.775C58.7165 318.874 60.0294 315.559 57.4727 312.935C62.5171 310.034 64.7975 304.095 63.139 298.294C62.6553 296.567 61.6879 295.186 60.1676 294.219C59.3384 293.736 58.1637 293.528 58.0946 292.216C59.3384 291.111 58.8547 289.661 58.8547 288.349C58.8547 267.078 58.9238 245.875 58.7856 224.604C58.7856 221.704 59.6148 220.875 62.448 220.944C70.602 221.151 78.756 221.013 86.9101 221.013C88.0157 226.883 88.6376 232.892 91.1944 238.348C93.4747 241.939 95.4096 245.53 96.8607 249.398Z" fill="#007BFF"/>
<path d="M261.877 125.085C263.328 122.944 264.779 120.804 266.576 118.179C263.812 118.663 261.6 119.008 259.389 119.491C258.007 119.768 257.523 119.353 257.662 117.903C257.938 115.209 258.007 112.447 258.422 109.685C258.698 107.751 258.145 106.991 256.072 107.129C253.101 107.267 250.129 107.267 247.158 107.198C246.329 107.198 245.292 107.682 244.809 106.508C244.947 106.508 245.016 106.508 245.154 106.508C250.613 106.439 250.475 106.439 251.65 101.052C253.515 92.1427 256.28 83.648 261.877 76.2583C264.019 73.4268 266.576 71.2168 269.754 69.8355C271.758 69.0068 272.588 67.6946 272.449 65.6227C274.177 66.0371 273.831 67.4874 273.97 68.6615C274.868 73.7721 275.835 78.8136 278.461 83.3718C279.498 85.2364 280.603 87.6536 283.16 87.1011C285.579 86.5486 285.51 83.9243 285.717 81.9214C285.993 79.4352 285.993 76.8799 285.441 74.3937C285.095 72.8052 284.749 71.2168 285.993 69.8355C293.318 73.703 296.22 80.6093 298.432 87.9989C299.054 90.0708 298.432 93.662 299.952 93.8692C301.956 94.1455 302.578 90.6924 303.822 88.8967C305.48 86.5486 307.484 84.4768 309.626 82.543C314.325 78.3302 321.581 79.6424 325.865 85.2364C329.873 90.4852 332.844 96.2864 334.848 102.571C335.332 104.16 335.747 105.334 337.889 104.505C346.457 101.19 354.128 103.814 361.245 108.58C366.981 112.378 371.749 117.419 375.964 122.875C376.379 123.359 377.139 123.842 376.793 124.602C376.448 125.362 375.618 125.085 374.927 125.154C371.68 125.154 368.501 125.154 365.253 125.154C330.91 125.085 296.359 125.085 261.877 125.085Z" fill="#D0E9FE"/>
<path d="M200.03 103.883C204.591 111.204 212.054 112.93 219.794 114.035C222.972 114.45 226.22 114.45 229.399 114.726C231.472 114.933 233.476 115.555 235.203 116.66C238.036 118.455 238.382 120.32 236.171 122.806C234.305 124.878 232.647 127.019 231.264 129.436C231.403 129.989 231.403 130.679 230.988 131.025C227.671 134.133 227.049 137.931 228.086 142.213C228.155 142.627 227.878 143.111 227.878 143.525C229.537 147.531 232.716 149.603 236.862 149.879C239.833 150.086 241.077 151.122 240.662 154.161C240.524 155.404 241.146 156.785 241.492 158.166C241.699 158.719 241.906 159.271 242.113 159.755C245.016 167.213 243.91 170.805 237.276 175.432C231.195 179.714 224.354 180.612 217.237 180.266C213.713 181.026 210.81 179.714 208.184 177.573C203.486 174.672 201.827 170.39 202.725 165.073C202.103 162.793 202.38 160.514 202.725 158.235C203.071 155.749 202.034 154.713 199.892 153.884C196.575 152.641 193.189 151.467 190.08 149.603C185.795 146.702 182.824 143.18 184.344 137.517C185.174 133.235 185.45 128.815 187.454 124.809C187.868 124.947 188.214 125.224 188.629 125.5C189.458 125.983 190.425 126.329 190.978 125.293C191.6 124.05 190.563 123.497 189.527 123.29C189.112 123.152 188.629 123.152 188.283 122.875C188.767 120.942 189.665 119.146 190.84 117.558C191.185 117.627 191.462 117.765 191.807 117.972C192.637 118.525 193.604 119.491 194.433 118.179C195.193 116.936 193.949 116.453 193.051 115.9C192.775 115.762 192.498 115.486 192.36 115.21C193.189 113.621 194.019 112.102 194.917 110.513C195.608 109.754 196.368 110.513 197.128 110.306C196.506 110.03 195.884 109.754 195.47 109.201C195.193 108.856 195.608 109.27 195.401 108.856C195.331 108.718 195.539 108.649 195.815 108.718C196.99 107.198 198.51 105.541 200.03 103.883Z" fill="#EC4546"/>
<path d="M300.089 335.104C305.963 331.098 312.597 328.957 319.161 326.471C324.344 324.537 324.344 324.468 324.206 319.012C324.206 317.907 324.206 316.733 324.206 315.352C328.905 316.941 333.258 319.012 338.234 319.151C342.587 319.289 346.664 318.115 350.81 317.148C352.261 316.802 353.643 316.043 355.164 316.595C355.094 319.496 355.094 322.466 355.025 325.366C354.472 328.612 355.233 332.065 353.712 335.173C353.298 336.692 352.745 338.212 352.399 339.8C351.156 345.256 348.944 350.021 344.453 353.889C336.437 360.795 331.6 370.326 324.897 378.337C323.446 380.063 322.133 382.066 319.922 383.033C318.47 383.655 316.95 384.691 315.361 383.586C313.702 382.412 314.255 380.685 314.532 379.166C314.946 377.025 315.706 375.022 316.19 373.295C314.324 375.022 312.32 376.956 310.247 378.82C309.003 379.925 307.483 380.754 305.825 379.856C304.235 378.958 304.581 377.232 304.788 375.782C304.996 374.124 305.548 372.467 306.032 370.602C304.097 372.121 302.577 373.71 300.504 374.538C297.256 375.782 295.667 374.677 295.736 371.154C295.805 369.704 296.081 368.254 296.289 366.596C294.63 366.665 293.11 368.806 291.59 367.218C290.208 365.768 290.553 363.834 290.761 361.969C291.313 356.859 294.077 352.715 296.289 348.295C296.911 347.121 297.947 346.085 298.016 344.635C296.703 344.427 294.907 345.74 294.147 344.289C293.317 342.77 294.907 341.596 295.667 340.353C296.427 339.11 297.878 338.281 298.224 336.761C298.431 335.518 299.398 335.518 300.089 335.104Z" fill="#EC4546"/>
<path d="M148.618 146.564C139.427 143.111 129.753 142.351 120.217 141.039C117.314 140.624 114.343 140.417 111.372 140.141C111.441 138.76 111.648 137.448 110.957 136.135C108.193 130.956 109.022 125.845 112.063 121.08C118.351 111.135 123.188 100.43 128.025 89.7946C128.302 89.173 128.44 88.4824 128.647 87.8608C128.854 85.0983 130.444 82.9574 131.826 80.7474C132.586 79.5733 133.83 78.7446 135.35 79.0899C137.147 79.5043 137.008 81.0927 137.078 82.4049C137.216 83.7861 136.939 85.1674 136.732 85.7199C137.008 84.8911 137.423 83.3027 138.46 81.9215C139.565 80.4711 140.533 78.6755 142.744 79.0208C145.093 79.3661 145.024 81.5761 145.508 83.2336C147.305 81.8524 148.341 79.159 151.105 79.8496C153.386 80.4021 153.524 82.543 153.731 84.5458C157.532 81.1618 158.568 81.1618 160.365 84.3386C161.816 93.3167 159.467 101.811 156.772 110.237C156.081 112.309 155.32 114.312 154.491 116.798C157.739 116.591 160.088 114.795 162.783 114.243C164.787 113.828 167.137 112.102 168.795 114.45C170.454 116.867 168.795 119.215 167.275 120.942C163.751 125.016 159.881 128.746 156.219 132.682C154.837 134.202 153.662 135.859 152.349 137.517C151.52 140.763 151.036 144.078 148.618 146.564Z" fill="#EC4546"/>
<path d="M148.618 146.564C149.723 143.525 150 140.141 152.28 137.586C162.922 137.655 173.494 137.724 184.136 137.724C184.205 142.558 186.071 146.495 190.286 149.119C189.664 151.467 187.453 152.987 186.969 155.404C186.002 160.514 187.453 164.037 191.945 166.799C192.843 167.352 193.879 167.628 194.363 168.664C189.872 171.772 184.896 174.327 181.096 178.402C179.714 179.023 178.262 179.23 176.742 179.23C168.035 179.23 159.329 179.23 150.622 179.23C146.199 179.23 145.37 178.263 146.268 173.774C146.683 171.633 146.752 169.423 148.134 167.559C149.171 166.177 150.622 165.211 151.658 163.829C154.077 160.722 153.939 157.268 152.695 153.746C152.28 152.572 151.52 151.536 151.244 150.293C150.345 149.119 149.447 147.876 148.618 146.564Z" fill="black"/>
<path d="M286.062 69.9046C286.269 73.634 286.753 77.4324 286.615 81.1618C286.546 83.8552 286.891 87.6536 283.367 88.3442C279.912 89.0349 278.323 85.7889 277.01 83.0955C274.729 78.5374 273.693 73.6339 273.002 68.6615C272.864 67.6255 273.002 66.5896 272.38 65.6918C271.551 55.4706 271.136 45.2493 272.518 35.0281C272.864 32.68 269.27 28.3291 266.783 28.0528C263.88 27.7766 262.084 29.6413 261.047 32.1275C260.08 34.4756 259.803 36.8237 260.978 39.379C263.604 45.1803 264.641 51.465 265.332 57.7496C265.401 58.6474 266.092 60.0977 264.641 60.374C263.535 60.6502 263.397 59.269 263.12 58.4402C260.633 52.2246 258.56 45.8709 258.421 39.1028C258.421 37.6525 257.869 36.4784 257.178 35.2353C253.653 29.0197 248.678 24.1853 242.666 20.2488C241.561 19.5582 240.109 19.2128 239.557 17.6935C243.565 17.21 251.788 24.1853 258.421 33.7159C259.803 30.5391 261.116 27.4313 264.572 26.3953C268.372 25.2903 270.514 27.9838 272.933 30.6772C273.831 27.8456 274.591 25.2903 275.559 22.8041C277.355 18.1769 280.258 17.4172 283.989 20.6631C287.444 23.6328 289.863 27.4313 292.074 31.3678C299.122 43.8681 304.374 56.7827 307.829 70.4571C308.106 71.7002 308.866 72.9433 307.898 74.3246C306.24 73.634 306.585 72.1836 306.24 71.0786C302.578 56.7137 297.049 43.1775 289.379 30.47C287.513 27.2931 285.371 24.2544 282.469 21.9063C279.981 19.9035 278.392 20.3178 277.148 23.2875C275.075 28.3981 273.9 33.2325 276.872 38.8956C282.123 48.4953 283.92 59.269 286.062 69.9046Z" fill="#050505"/>
<path d="M106.604 50.4981C112.339 59.4072 111.718 69.2831 111.165 79.159C110.957 82.2668 109.368 85.0293 107.917 87.7918C103.909 92.8333 98.9337 96.3555 92.2999 96.8389C90.5032 96.9771 90.2268 97.7368 90.5032 99.2561C91.2634 104.229 91.8853 109.27 92.6454 115.21C88.6375 110.375 84.906 106.37 81.7964 101.95C79.1014 98.0821 75.9918 96.6318 71.2238 96.8389C60.7894 97.2533 50.286 97.0461 39.8516 96.908C24.0273 96.7008 11.5198 85.0983 10.1378 69.4903C8.75574 54.4347 19.0519 40.6913 34.2543 37.5835C36.6038 37.1 39.0224 37.031 41.4409 37.031C53.6028 36.9619 65.8339 37.3072 77.9958 36.9619C89.9504 36.7547 99.5556 40.8294 106.604 50.4981Z" fill="#050505"/>
<path d="M300.089 335.104C299.744 336.002 299.122 336.416 298.224 336.623C276.111 336.416 254.137 338.005 232.024 338.764C205.834 339.662 179.645 340.905 153.455 341.941C143.09 342.355 132.794 342.77 122.428 343.322C119.872 343.46 119.319 342.632 119.457 340.284C119.733 337.176 119.595 334.068 119.664 331.029C120.01 322.673 120.425 314.316 120.77 306.029C121.323 292.769 121.737 279.44 122.221 266.18C122.774 266.387 123.258 266.525 123.81 266.663C125.538 269.633 125.054 273.017 124.64 276.125C123.672 284.481 123.949 292.838 123.672 301.194C123.258 311.485 122.29 321.775 122.636 332.134C122.774 333.377 122.705 334.69 122.567 335.933C122.29 340.007 122.359 340.215 126.575 340.146C142.399 339.869 158.223 339.11 174.048 338.212C180.267 337.866 186.417 337.866 192.636 337.521C203.554 336.9 214.472 336.831 225.321 336.071C226.772 336.002 228.085 336.278 229.26 337.038C245.568 336.485 261.876 336.002 278.184 335.38C285.647 335.173 292.834 334.828 300.089 335.104Z" fill="#060605"/>
<path d="M102.113 152.02C105.292 152.227 108.54 152.158 111.718 152.641C119.527 153.884 125.055 160.238 125.401 168.042C125.47 169.976 125.47 171.979 125.401 173.912C125.193 179.507 121.807 183.996 116.417 185.032C113.93 185.515 113.791 186.551 114.137 188.485C114.482 190.418 114.69 192.352 114.344 194.631C112.479 192.352 110.475 190.142 108.747 187.725C107.503 185.998 106.052 185.239 103.841 185.308C97.7599 185.515 91.6789 185.377 85.5979 185.446C76.4765 184.479 70.741 179.368 69.4281 171.081C68.3225 164.106 72.3995 156.716 79.1714 153.746C81.7282 152.572 84.4923 152.296 87.2564 152.296C92.2317 152.227 97.1379 152.089 102.113 152.02Z" fill="#080705"/>
<path d="M58.0266 292.285C64.7295 295.186 66.8025 306.65 61.6199 312.037C60.376 313.28 58.9249 313.073 57.4738 313.004C54.4333 311.277 52.1529 308.791 50.4254 305.752C46.2793 298.432 49.6653 292.492 58.0266 292.285Z" fill="#010101"/>
<path d="M42.201 301.954C42.1319 304.924 41.7864 307.893 40.4043 310.656C39.0223 313.349 36.9492 314.04 34.4616 312.382C30.4537 309.758 27.7587 306.098 26.7913 301.402C25.8929 297.189 29.0716 293.183 33.425 292.423C37.4329 291.802 41.5791 294.772 42.201 298.846C42.3392 299.882 42.201 300.918 42.201 301.954Z" fill="#010101"/>
<path d="M174.118 46.9759C172.736 46.0091 172.39 45.8709 172.252 45.5947C169.35 40.0006 164.513 38.8266 158.777 39.5863C156.428 39.8625 153.94 39.6553 151.522 39.5863C144.681 39.3791 139.636 34.1303 139.567 27.4313C139.498 20.6632 144.542 15.2763 151.314 15.0691C157.395 14.862 163.476 14.862 169.557 15.0691C176.053 15.2763 180.959 20.3179 181.236 26.8097C181.374 30.8154 181.65 34.9591 177.85 37.7907C177.573 37.9978 177.297 38.2741 177.02 38.3431C172.114 39.241 172.045 42.3488 174.118 46.9759Z" fill="#090909"/>
<path d="M353.161 253.058C353.575 257.685 353.852 262.312 355.026 266.801C355.096 268.804 355.165 270.807 355.234 272.81C353.023 272.119 352.47 269.84 351.295 268.252C348.531 264.66 346.181 260.655 343.694 256.856C343.417 256.373 342.934 255.82 343.003 255.406C343.279 252.92 350.189 250.088 352.332 251.47C352.953 251.884 352.746 252.644 353.161 253.058Z" fill="#FEB74D"/>
<path d="M188.006 123.014C189.665 121.978 191.047 122.254 191.876 124.049C192.498 125.293 192.221 126.605 190.701 127.019C188.974 127.572 187.592 127.019 187.246 125.016C187.246 124.257 187.453 123.566 188.006 123.014Z" fill="#D80E0F"/>
<path d="M192.014 115.348C193.603 115.279 195.123 115.486 195.469 117.35C195.745 118.663 194.985 119.629 193.741 119.975C191.875 120.527 191.046 119.284 190.562 117.696C190.701 116.729 191.254 115.969 192.014 115.348Z" fill="#160808"/>
<path d="M195.469 108.856C195.676 108.994 195.815 109.132 196.022 109.201C197.266 109.685 199.339 110.375 198.786 111.48C197.888 113.207 196.713 110.928 195.538 110.79C195.193 110.72 194.916 110.651 194.571 110.651C193.88 109.408 191.116 110.79 191.599 109.063C191.945 107.613 194.087 108.649 195.469 108.856Z" fill="#180B0B"/>
<path d="M353.713 335.104C353.505 331.789 354.542 328.543 355.026 325.297C355.095 327.921 355.164 330.477 355.164 333.101C355.233 334.137 355.302 335.242 353.713 335.104Z" fill="#4B3535"/>
<path d="M121.738 332.203C122.015 322.051 122.222 311.83 122.568 301.678C122.982 290.006 123.466 278.335 123.88 266.663C129.961 267.561 136.111 268.459 142.262 268.597C143.505 268.597 144.818 268.873 145.924 268.183C147.651 266.663 149.517 266.801 151.383 267.906C165.618 266.042 178.471 261 188.974 250.848C190.978 248.914 191.255 250.364 191.877 251.815C196.852 263.417 201.758 275.02 206.734 286.622C208.461 290.628 210.327 294.564 212.124 298.501C214.473 301.332 215.924 304.509 216.339 308.17C218.826 313.902 221.245 319.703 223.733 325.435C222.074 326.955 220.07 326.54 218.135 326.54C188.836 326.54 159.537 326.54 130.307 326.54C129.063 326.54 127.75 326.54 126.506 326.54C124.641 326.54 123.535 327.3 123.328 329.303C123.328 330.408 123.535 331.927 121.738 332.203Z" fill="#007BFF"/>
<path d="M353.16 253.058C352.884 252.505 352.607 252.022 352.331 251.469C350.603 237.933 345.904 225.916 335.124 216.938C331.186 213.692 328.076 209.687 324.759 205.888C323.17 205.267 322.479 203.747 321.58 202.435C318.402 198.015 315.638 193.319 312.113 189.106C311.699 188.554 311.353 188.001 311.492 187.242C309.626 184.203 306.654 182.131 304.098 178.954C305.687 178.885 306.862 178.747 308.106 178.747C321.788 178.747 335.401 178.747 349.083 178.747C350.327 178.747 351.571 178.609 352.814 178.54C353.505 179.161 353.298 179.99 353.298 180.819C353.298 204.438 353.298 228.057 353.298 251.677C353.298 252.16 353.229 252.644 353.16 253.058Z" fill="#F4F6AC"/>
<path d="M121.738 332.203C122.499 331.582 122.36 330.753 122.36 329.993C122.291 324.883 122.015 325.366 127.336 325.366C159.468 325.366 191.67 325.366 223.802 325.366C225.668 329.234 227.533 333.17 229.399 337.038C207.701 338.004 186.003 338.902 164.305 339.869C150.969 340.422 137.632 340.905 124.364 341.596C121.738 341.734 120.771 341.181 121.255 338.419C121.6 336.416 121.6 334.275 121.738 332.203Z" fill="#F4F6AC"/>
<path d="M180.335 179.161C176.604 183.029 173.84 187.449 171.905 192.421C168.588 200.847 162.093 206.096 154.284 210.032C151.935 211.206 149.378 211.206 146.821 210.792C141.777 209.894 139.289 205.75 140.671 200.018C142.122 193.664 143.919 187.38 145.508 181.026C145.646 180.335 145.785 179.645 145.854 179.023C149.931 178.332 154.077 178.816 158.154 178.747C164.442 178.678 170.73 178.678 177.019 178.747C178.124 178.678 179.368 178.194 180.335 179.161Z" fill="#F4F6AC"/>
<path d="M194.364 168.664C189.942 167.628 186.901 165.142 186.003 160.652C185.036 155.956 186.487 152.089 190.357 149.119C194.364 150.777 198.303 152.503 202.311 154.092C203.279 154.506 203.97 154.989 203.762 156.094C203.071 159.064 203.693 162.241 202.588 165.211C199.754 166.385 197.059 167.49 194.364 168.664Z" fill="#FEFDFD"/>
<path d="M295.114 322.88C294.492 325.09 292.419 325.435 291.106 326.678C288.481 329.234 286.753 328.267 285.095 325.435C282.261 320.601 279.29 315.836 276.111 311.208C274.937 309.482 275.213 308.584 276.802 307.617C276.871 307.548 277.01 307.548 277.079 307.479C282.745 303.957 282.745 303.888 286.408 309.482C288.964 313.418 291.521 317.355 294.078 321.291C294.492 321.775 294.838 322.396 295.114 322.88Z" fill="#FEB74D"/>
<path d="M273.347 178.954C273.762 180.128 272.864 180.266 272.104 180.542C265.953 182.683 259.734 184.824 253.584 186.965C252.133 187.449 251.097 187.311 250.751 185.584C250.682 185.377 250.544 185.17 250.475 184.962C248.194 177.642 247.572 178.885 254.483 176.468C258.698 175.018 262.982 173.636 267.128 171.979C269.823 170.943 271.205 171.426 271.827 174.327C272.104 175.984 272.795 177.435 273.347 178.954Z" fill="#FEB84D"/>
<path d="M126.851 228.61C125.331 228.748 124.778 228.334 124.295 227.367C121.531 221.704 122.083 220.115 128.095 218.181C132.794 216.662 137.562 215.419 142.192 213.831C144.403 213.071 145.025 214.038 145.578 215.833C147.651 222.532 147.582 222.67 140.81 224.466C136.871 225.571 132.932 226.814 128.994 227.919C128.164 228.265 127.335 228.472 126.851 228.61Z" fill="#FEB74D"/>
<path d="M267.889 269.978C268.304 271.359 267.198 271.774 266.231 272.05C260.219 273.915 254.207 275.779 248.195 277.575C246.744 277.989 245.708 277.644 245.086 275.918C242.529 269.495 242.529 269.288 248.886 267.285C253.447 265.834 258.146 264.66 262.638 263.072C265.263 262.105 266.231 263.072 266.715 265.351C267.06 266.87 267.475 268.459 267.889 269.978Z" fill="#FEB74D"/>
<path d="M223.041 242.906C222.074 244.839 220.899 247.119 219.724 249.329C219.102 250.433 218.273 249.743 217.651 249.398C211.916 246.428 206.249 243.458 200.514 240.489C199.132 239.798 198.717 238.762 199.547 237.381C199.685 237.174 199.754 236.966 199.823 236.759C203.347 229.922 202.172 230.682 208.392 233.72C212.814 235.93 217.098 238.279 221.452 240.558C222.281 241.041 223.318 241.317 223.041 242.906Z" fill="#FEB74D"/>
<path d="M294.423 243.32C283.712 235.654 271.688 230.198 260.148 224.121C272.656 228.057 283.85 234.549 294.976 241.248C298.776 242.56 301.748 244.909 304.028 248.224C313.219 256.511 314.739 268.114 317.157 279.302C317.779 282.202 318.194 285.172 318.678 288.142C319.714 290.697 320.751 293.321 320.198 296.153C319.991 297.258 320.267 299.261 317.918 298.432L317.987 298.501C315.983 295.531 315.983 292.216 316.674 288.832C315.775 278.128 313.495 267.837 309.349 257.961C308.174 255.13 306.17 252.644 303.613 250.779C300.089 248.776 297.118 246.29 294.423 243.32Z" fill="#0A0803"/>
<path d="M311.491 187.311C316.674 192.974 320.544 199.604 324.828 205.957C324.275 207.753 318.125 211.068 316.467 210.446C315.499 210.101 315.361 209.065 315.085 208.167C313.219 202.711 311.491 197.256 309.418 191.938C308.382 189.313 308.658 187.863 311.491 187.311Z" fill="#FEB84D"/>
<path d="M317.918 298.363C319.853 298.432 319.3 296.912 319.3 295.946C319.162 293.321 318.885 290.766 318.678 288.142C320.198 290.075 322.617 289.661 324.621 290.144C328.076 290.973 331.531 291.595 335.055 292.216C336.506 292.492 336.783 292.976 336.645 294.495C336.023 302.299 336.023 302.368 328.421 300.711C324.966 299.882 321.304 299.744 317.918 298.363Z" fill="#FEB74D"/>
<path d="M180.336 179.161C168.865 178.609 157.394 178.954 145.854 179.023C146.061 177.158 144.955 176.33 143.297 175.984C140.187 175.363 139.22 174.189 140.74 170.805C143.09 165.694 144.679 160.307 146.545 154.989C146.959 153.884 147.236 152.641 148.756 152.779C150.069 152.917 149.862 154.022 150 154.851C151.935 159.202 149.862 163.208 149.032 167.352C147.374 170.321 147.305 173.705 146.545 176.882C145.992 179.23 148.134 178.263 149.032 178.263C159.674 178.332 170.316 178.332 181.027 178.332C180.819 178.678 180.543 178.885 180.336 179.161Z" fill="#FEB74D"/>
<path d="M294.423 243.32C297.74 245.392 300.919 247.74 303.614 250.641C301.679 253.058 301.61 256.166 300.781 258.928C300.159 261.069 299.537 262.381 297.049 261.207C296.635 261 296.151 261.069 295.667 261C290.346 259.55 290.554 259.619 291.867 254.301C292.834 250.641 294.493 247.188 294.423 243.32Z" fill="#FEB74D"/>
<path d="M216.477 308.101C214.749 304.993 213.367 301.747 212.262 298.432C215.924 298.225 219.587 298.777 223.249 298.156C223.664 298.087 224.355 298.017 224.493 298.225C226.151 300.573 225.115 303.335 225.253 305.891C225.322 307.686 223.733 308.032 222.351 308.101C220.347 308.17 218.412 308.101 216.477 308.101Z" fill="#FEB84D"/>
<path d="M151.452 267.837C149.655 267.906 147.789 268.044 145.993 268.114C144.058 268.114 142.192 268.114 139.773 268.114C141.708 264.108 144.334 261.207 146.545 258.099C147.444 256.925 148.48 257.133 149.586 257.823C149.793 257.961 150.001 258.099 150.139 258.238C155.045 261.622 155.045 261.622 151.452 267.837Z" fill="#FEB84D"/>
<path d="M207.976 177.711C211.017 178.609 213.988 179.507 217.029 180.404C216.545 181.717 216.061 182.96 215.647 184.272C213.09 191.592 213.781 190.833 205.903 187.863C204.521 187.311 204.452 186.275 205.005 185.032C206.041 182.614 207.009 180.128 207.976 177.711Z" fill="#FEB74D"/>
<path d="M96.8617 249.398C94.1667 246.152 92.37 242.422 91.1953 238.417C91.5408 235.93 92.7156 235.102 95.1341 236.276C102.252 239.522 101.491 237.243 99.142 244.632C98.5892 246.29 98.6583 248.293 96.8617 249.398Z" fill="#FEB84E"/>
<path d="M188.767 242.353C187.178 240.281 187.109 238.071 186.694 236C184.483 224.95 183.516 213.761 183.308 202.504C183.308 201.606 183.239 200.64 183.377 199.742C183.446 199.396 183.93 199.12 184.276 198.844C184.552 199.189 184.898 199.466 185.036 199.811C185.174 200.225 185.105 200.709 185.105 201.192C185.174 214.176 186.349 227.09 189.32 239.729C189.527 240.558 189.804 241.386 188.767 242.353Z" fill="#121005"/>
<path d="M303.959 248.224C300.918 245.875 297.947 243.527 294.906 241.248C297.809 236.483 297.739 236.552 304.097 238.693C305.479 239.176 306.032 239.591 305.617 241.317C305.064 243.596 303.82 245.806 303.959 248.224Z" fill="#FDB74C"/>
<path d="M149.101 167.421C148.341 164.382 149.723 161.619 149.93 158.719C150 157.476 150 156.233 150.069 154.92C151.105 153.608 149.861 151.674 151.174 150.431C156.357 156.094 155.459 163.415 149.101 167.421Z" fill="#FCFBF7"/>
<path d="M316.606 288.763C317.02 292.009 317.504 295.186 317.919 298.432C315.915 298.501 313.151 298.846 312.598 296.705C311.907 294.081 313.081 291.111 314.118 288.556C314.602 287.589 315.776 288.556 316.606 288.763Z" fill="#FDB84C"/>
<path d="M270.03 222.256C269.892 222.463 269.892 222.74 269.754 222.878C269.201 223.361 268.717 223.016 268.233 222.67C265.815 220.875 263.811 218.665 261.945 216.317C259.596 213.278 257.661 210.032 256.072 206.648C255.795 206.026 255.381 205.198 256.072 204.783C256.832 204.3 257.315 205.129 257.592 205.681C260.494 211.759 264.156 217.284 269.477 221.496C269.685 221.704 269.823 221.98 270.03 222.256Z" fill="#171407"/>
<path d="M227.809 143.594C225.252 138 226.979 133.442 231.195 129.505C233.959 128.953 236.93 127.503 239.072 130.61C240.869 133.304 240.385 136.204 238.796 138.76C236.861 141.798 234.304 144.008 230.365 143.663C229.467 143.525 228.707 142.558 227.809 143.594Z" fill="#D4090A"/>
<path d="M86.3582 301.471C86.3582 304.509 85.8745 307.41 84.6998 310.172C83.3868 313.211 81.0374 314.04 78.2733 312.175C74.3345 309.482 71.7086 305.752 70.7412 301.056C69.912 297.189 73.2289 293.114 77.375 292.354C81.452 291.664 85.7363 294.772 86.3582 299.053C86.4964 299.882 86.3582 300.711 86.3582 301.471Z" fill="#010101"/>
<path d="M291.66 117.558C292.904 116.453 294.079 116.867 295.115 116.867C317.781 116.867 340.377 116.867 363.042 116.867C363.595 116.867 364.217 116.867 364.77 116.867C365.392 116.936 366.29 116.798 366.221 117.834C366.152 118.525 365.461 118.594 364.839 118.594C364.01 118.663 363.25 118.594 362.42 118.594C340.101 118.594 317.85 118.594 295.53 118.594C294.286 118.525 292.766 119.146 291.66 117.558Z" fill="#0C0E0F"/>
<path d="M339.892 109.961C323.86 109.961 307.829 109.961 291.797 109.961C291.797 109.685 291.797 109.408 291.797 109.132C307.829 109.132 323.86 109.132 339.892 109.132C339.892 109.339 339.892 109.685 339.892 109.961Z" fill="#000101"/>
<path d="M200.998 132.613C200.169 134.133 199.063 133.304 198.096 132.959C196.092 132.199 194.088 131.37 191.531 130.265C194.572 127.572 197.059 124.947 200.031 122.875C201.689 121.701 201.551 123.221 201.136 124.326C201.067 124.464 200.998 124.533 200.929 124.602C198.787 128.124 198.787 129.782 200.998 132.613Z" fill="#160404"/>
<path d="M201.066 139.865C199.131 141.798 197.265 143.111 194.778 142.282C192.497 141.522 191.599 139.519 190.977 137.309C190.562 135.79 190.908 134.961 192.636 135.79C195.4 137.102 198.164 138.414 201.066 139.865Z" fill="#110505"/>
<path d="M200.997 132.613C199.062 131.646 197.127 130.679 195.123 129.644C196.92 127.572 198.993 125.914 201.135 124.326C201.066 127.088 201.066 129.851 200.997 132.613Z" fill="#CE0C0D"/>
<path d="M211.433 125.914C211.225 127.295 210.327 128.124 208.876 127.986C207.425 127.848 206.595 126.95 206.734 125.5C206.872 124.049 207.77 123.152 209.221 123.29C210.672 123.359 211.433 124.395 211.433 125.914Z" fill="#140606"/>
<path d="M208.736 136.826C207.285 136.688 206.594 135.859 206.732 134.478C206.87 133.097 207.7 131.992 209.151 132.13C210.533 132.199 211.569 133.166 211.362 134.685C211.155 136.066 210.118 136.826 208.736 136.826Z" fill="#D70C0D"/>
<path d="M208.943 117.005C212.606 116.245 214.679 117.419 216.614 119.077C217.097 119.491 217.788 120.044 217.097 120.804C216.614 121.287 215.992 120.942 215.577 120.527C213.988 118.801 211.5 118.732 208.943 117.005Z" fill="#240A0B"/>
<path d="M312.942 333.515C312.458 333.861 311.974 334.206 311.491 334.482C307.828 336.623 304.511 339.248 301.471 342.217C300.987 342.701 300.365 343.737 299.536 342.77C298.914 342.079 299.743 341.527 300.158 341.112C303.268 337.866 306.723 335.104 310.662 332.963C311.145 332.687 311.698 332.618 312.251 332.618C312.458 332.687 312.665 333.17 312.942 333.515Z" fill="#1A0708"/>
<path d="M317.366 356.79C317.159 357.135 317.02 357.48 316.813 357.756C314.464 361.002 312.183 364.248 309.834 367.494C309.419 368.047 309.074 368.875 308.244 368.392C307.415 367.909 307.968 367.149 308.314 366.665C310.594 363.35 312.874 360.105 315.224 356.859C315.638 356.306 316.122 355.685 316.882 355.961C317.159 356.03 317.228 356.513 317.366 356.79Z" fill="#170707"/>
<path d="M298.223 364.11C297.601 361.348 299.674 359.897 300.849 358.102C302.231 356.099 303.959 354.372 305.548 352.577C305.963 352.162 306.585 351.955 307.068 352.439C307.207 352.646 307.207 353.198 307.068 353.336C303.821 356.72 301.195 360.588 298.223 364.11Z" fill="#170707"/>
<path d="M324.206 362.176C323.722 362.867 323.308 363.558 322.893 364.179C321.511 366.389 320.06 368.599 318.678 370.809C318.401 371.293 317.987 371.845 317.365 371.5C316.674 371.224 316.743 370.602 317.088 370.049C318.885 367.287 320.682 364.524 322.547 361.762C322.755 361.486 323.308 361.348 323.722 361.348C323.791 361.417 323.999 361.831 324.206 362.176Z" fill="#1A0708"/>
<path d="M152.834 118.455C150.07 119.629 147.236 120.734 144.472 122.047C141.363 123.497 138.46 125.431 135.973 127.848C135.558 128.262 135.144 128.677 134.522 128.4C134.038 128.124 134.176 127.641 134.383 127.226C135.835 123.773 148.618 117.281 152.834 118.455Z" fill="#130505"/>
<path d="M144.197 89.7946C142.953 93.2477 141.709 96.8389 140.258 100.292C139.636 101.811 139.429 104.988 137.84 104.367C136.319 103.814 138.185 101.259 138.738 99.6705C139.844 96.2864 141.157 93.0405 142.4 89.7255C142.608 89.173 142.815 88.6205 143.575 88.6896C144.197 88.7586 144.266 89.2421 144.197 89.7946Z" fill="#1B0808"/>
<path d="M151.59 91.2449C152.142 94.0764 150.484 96.2864 149.724 98.6345C149.033 100.775 148.065 102.916 147.236 105.057C147.029 105.541 146.821 106.231 146.061 106.024C145.785 105.955 145.439 105.472 145.439 105.334C147.167 100.499 148.618 95.5267 151.59 91.2449Z" fill="#160606"/>
<path d="M135.144 93.0405C134.245 97.3223 133.071 100.568 131.481 104.16C130.445 101.121 132.31 95.3195 135.144 93.0405Z" fill="#220A0A"/>
<path d="M179.783 158.028C179.852 163.76 175.568 168.526 170.247 168.595C164.926 168.664 160.504 164.037 160.434 158.304C160.365 152.503 164.65 147.876 170.04 147.807C175.36 147.738 179.714 152.296 179.783 158.028Z" fill="#FEFEFE"/>
<path d="M274.521 67.1421C273.001 57.2662 273.001 47.3903 274.314 37.3762C278.944 46.5615 281.915 56.2302 283.435 66.3824C283.85 67.4183 283.988 68.7996 282.744 68.8686C279.911 68.8686 276.801 69.8355 274.521 67.1421Z" fill="#FDFFB6"/>
<path d="M274.521 67.1421C276.871 68.5234 279.635 67.3493 282.123 68.3162C283.297 68.7306 283.09 67.1421 283.367 66.3824C284.749 71.9765 285.163 77.6396 284.749 83.3718C284.679 84.6149 284.541 86.1343 283.228 86.6177C281.639 87.1702 280.741 85.789 279.911 84.684C277.493 81.369 276.456 77.5015 275.627 73.5649C275.213 71.424 274.936 69.2831 274.521 67.1421Z" fill="#CFE8FD"/>
<path d="M260.84 44.2134C261.877 46.4925 262.844 48.7716 262.706 52.1556C261.255 49.1169 260.495 46.7687 260.84 44.2134Z" fill="#7C7C7C"/>
<path d="M105.361 87.9299C101.836 92.9023 96.8611 95.1814 90.9183 95.3195C88.5689 95.3886 88.2233 96.1483 88.5688 98.1511C89.1908 101.604 89.5363 105.057 89.4672 108.787C86.4267 105.126 83.3171 101.466 80.4148 97.6676C79.1019 95.9411 77.7199 95.2505 75.5086 95.3195C63.6922 95.4577 51.8067 95.4577 39.9902 95.3195C25.0642 95.2505 12.6259 83.7861 11.7967 69.4902C10.8984 53.9512 21.1945 41.1056 36.2587 39.1028C40.1284 38.6193 44.0672 38.8265 48.0061 38.8265C59.2697 38.8265 70.5333 38.6884 81.7969 38.8956C90.7801 39.0337 98.2431 42.625 103.702 49.9456C103.909 50.9124 103.357 51.534 102.597 51.8103C98.5195 53.2606 95.4099 56.0921 92.5768 59.1999C92.3695 59.4762 91.9548 59.4762 91.6784 59.6143C90.5728 59.9596 89.3981 59.8905 88.2233 59.8905C68.4602 59.8905 48.628 59.8905 28.8648 59.8905C39.7829 59.8905 50.701 59.8905 61.55 59.8905C63.0012 59.8905 64.5214 59.6834 65.9725 60.443C67.3546 61.8243 65.9725 62.7912 65.2815 63.6199C63.554 65.899 61.6882 68.109 60.3753 70.6643C58.9933 73.2886 56.9202 74.3246 53.9488 74.3246C44.8274 74.2555 35.5677 74.1865 26.4463 74.3936C25.9626 74.7389 26.1699 74.9461 26.6536 75.0843C29.0721 75.2224 31.4907 75.0152 33.9093 75.2224C34.6694 75.2914 35.6368 75.4296 35.8441 76.3274C36.1205 77.2943 35.2222 77.7777 34.6003 78.123C31.2834 80.1949 28.0356 82.3358 25.2024 85.0292C24.8569 85.3055 24.5114 85.5817 24.4423 86.3414C25.617 87.032 26.9991 86.6867 28.2429 86.6867C52.1522 86.6867 75.9923 86.6867 99.9016 86.7558C101.698 86.8249 103.771 86.3414 105.361 87.9299Z" fill="#FDFFB6"/>
<path d="M105.361 87.9299C78.7566 87.9299 52.1523 87.8608 25.6172 87.7918C24.3734 87.7918 22.3694 88.6205 21.9548 87.1011C21.6093 85.858 23.5442 85.0983 24.5807 84.2005C27.8976 81.1618 31.4909 78.6755 35.8443 76.5346C31.6982 75.4296 27.8976 77.2252 24.3734 75.4296C25.6172 74.4627 26.9993 74.8081 28.3813 74.8081C40.3359 74.8081 52.2906 74.8081 64.2452 74.8081C52.2906 74.8081 40.3359 74.8081 28.3813 74.8081C26.9993 74.8081 25.6172 75.0843 24.3734 74.1865C25.2717 72.8743 26.6538 73.4268 27.8285 73.4268C36.8808 73.3577 45.9332 73.3577 54.9855 73.4268C56.9204 73.4268 58.0951 73.0124 59.0625 71.1478C60.9283 67.3493 63.7615 64.1725 66.4564 60.9265C68.3222 59.4072 70.6025 60.0287 72.6756 59.9597C75.5088 59.8906 78.342 59.7525 81.106 60.0978C84.2847 60.9265 85.5286 64.0343 87.9471 66.1062C89.2601 64.4487 89.26 62.515 90.2275 60.9956C90.8494 60.0287 92.3005 60.0978 92.646 58.8547C94.1663 55.0562 97.4832 53.2606 100.938 51.6722C101.975 51.1887 103.288 51.2578 103.771 49.9456C105.914 52.0865 107.296 54.78 108.125 57.6115C110.613 66.3824 111.027 75.2224 108.056 83.9933C107.434 85.4436 106.674 86.894 105.361 87.9299Z" fill="#FDFFB6"/>
<path d="M107.157 154.161C116.9 153.608 123.672 159.824 123.741 169.631C123.741 171.357 123.879 173.084 123.672 174.81C123.257 179.023 120.217 182.96 115.933 183.305C111.786 183.65 111.234 185.308 112.616 188.899C112.063 188.692 111.648 188.692 111.51 188.554C109.022 183.857 104.945 183.305 100.177 183.719C96.6532 183.996 93.0599 183.719 89.5357 183.65C88.8447 182.821 89.1902 181.924 89.5357 181.095C91.9542 174.81 94.1655 168.457 96.7914 162.241C97.1369 161.412 97.5515 160.583 98.4498 160.169C102.112 161.274 105.014 163.76 108.262 165.625C111.303 167.421 111.994 165.28 113.169 163.415C114.412 161.481 114.551 160.031 112.339 158.581C110.474 157.337 107.571 157.13 107.157 154.161Z" fill="#FEDB4D"/>
<path d="M98.727 160.169C95.0646 167.766 92.6461 175.846 89.5365 183.65C86.9106 183.857 84.2847 183.926 81.6589 183.167C74.5414 181.095 70.188 174.327 71.1554 166.661C71.9846 159.824 77.9274 154.299 84.9758 154.092C90.2275 153.953 95.5483 154.161 100.8 154.161C101.422 156.647 100.385 158.512 98.727 160.169Z" fill="#FDFFB6"/>
<path d="M98.7266 160.169C99.4176 158.166 100.178 156.163 100.869 154.23C102.942 154.23 105.084 154.23 107.157 154.23C108.746 156.163 111.027 156.992 113.1 158.097C115.38 159.34 115.933 160.791 114.413 163.001C110.197 169.147 112.547 168.664 105.913 165.142C103.425 163.76 100.523 162.655 98.7266 160.169Z" fill="#FEB84D"/>
<path d="M91.4717 358.861C93.5448 363.972 94.9268 369.221 94.6504 374.953C91.7481 372.743 90.3661 365.768 91.4717 358.861Z" fill="#F0F0F0"/>
<path d="M170.454 40.6222C169.003 37.8597 166.723 37.9978 164.373 38.0669C160.365 38.136 156.288 38.136 152.28 38.0669C145.854 37.9978 141.086 33.3707 141.086 27.3622C141.086 21.3538 145.923 16.7957 152.35 16.7957C157.739 16.7266 163.199 16.7266 168.588 16.7957C177.295 16.8648 182.893 26.7407 178.677 34.3375C177.364 36.6166 175.36 37.9978 172.804 37.9288C170.731 37.9288 170.523 38.8956 170.454 40.6222Z" fill="#00C6FC"/>
<path d="M234.581 137.517C233.959 133.856 232.508 133.58 230.366 136.066C230.159 136.343 229.468 136.481 229.191 136.343C228.569 135.928 228.777 135.307 229.191 134.892C230.642 133.235 232.439 131.992 234.581 131.37C235.203 131.163 236.447 131.646 236.032 132.061C234.374 133.58 236.793 135.721 234.581 137.517Z" fill="#1B0101"/>
<path d="M198.163 140.003C195.399 141.522 194.363 140.486 193.326 138.691C195.123 138.138 196.09 139.45 198.163 140.003Z" fill="#B53535"/>
<path d="M82.2801 60.8574C77.0284 60.5812 71.7076 60.5812 66.4558 60.8574C53.6029 60.7884 40.7499 60.7884 27.897 60.6503C26.7222 60.6503 24.5801 61.2718 24.5801 59.9596C24.5801 58.0259 26.7913 58.9928 27.897 58.9928C49.4568 58.8546 71.0856 58.8546 92.6454 58.8546C94.1657 61.6862 91.2634 60.2359 90.5724 60.8574C87.8083 62.584 85.0442 62.3078 82.2801 60.8574Z" fill="black"/>
<path d="M24.3047 74.1174C39.3689 74.1174 54.4331 74.1174 69.5664 74.1174C69.5664 74.5318 69.5664 74.9462 69.5664 75.3606C54.5022 75.3606 39.3689 75.3606 24.3047 75.3606C24.3047 74.9462 24.3047 74.5318 24.3047 74.1174Z" fill="#0C0C0D"/>
<path d="M82.2812 60.8575C85.0453 60.5812 87.8094 60.5812 90.6426 60.8575C90.2971 63.2056 90.0898 66.4515 88.3622 67.2112C86.7038 67.9709 85.8054 64.5178 84.2852 63.1365C83.5251 62.5149 82.9032 61.6171 82.2812 60.8575Z" fill="#FDFDFE"/>
<g clip-path="url(#clip1)">
<path d="M343.584 166.786C343.625 166.883 343.667 166.979 343.806 167.034C343.847 167.13 343.944 167.088 344.083 167.143C344.222 167.197 344.319 167.155 344.416 167.113C344.514 167.071 344.611 167.029 344.667 166.891C344.764 166.849 344.722 166.753 344.778 166.614C344.834 166.476 344.751 166.283 344.709 166.187C344.668 166.091 344.626 165.994 344.529 166.036C344.39 165.982 344.251 165.927 344.154 165.969C344.057 166.011 343.918 165.957 343.862 166.095C343.765 166.137 343.668 166.179 343.709 166.275C343.654 166.413 343.598 166.552 343.639 166.648C343.501 166.594 343.542 166.69 343.584 166.786Z" fill="black"/>
<path d="M342.651 157.132C342.512 157.077 342.512 157.077 342.373 157.023C342.234 156.968 342.04 157.052 341.845 157.136C341.734 157.413 341.72 157.647 341.608 157.924C341.65 158.02 341.691 158.117 341.83 158.171L341.969 158.226C342.246 158.335 342.538 158.209 342.691 158.029C343.039 157.765 342.97 157.337 342.651 157.132Z" fill="black"/>
<path d="M346.429 157.333C346.748 157.538 347.179 157.467 347.29 157.19C347.499 156.871 347.43 156.444 347.152 156.335C346.833 156.13 346.402 156.201 346.291 156.478C346.041 156.7 346.11 157.127 346.429 157.333Z" fill="black"/>
<path d="M342.839 162.651C343.158 162.856 343.589 162.785 343.7 162.508C343.909 162.19 343.84 161.762 343.562 161.653C343.243 161.448 342.813 161.519 342.701 161.796C342.493 162.114 342.52 162.445 342.839 162.651Z" fill="black"/>
<path d="M350.624 156.096C350.665 156.192 350.707 156.289 350.846 156.343C350.887 156.439 350.984 156.397 351.123 156.452C351.359 156.464 351.651 156.339 351.804 156.158C351.957 155.978 351.93 155.647 351.847 155.454C351.805 155.358 351.763 155.262 351.666 155.304C351.527 155.249 351.389 155.195 351.291 155.237C351.055 155.224 350.861 155.308 350.749 155.585C350.555 155.668 350.541 155.903 350.624 156.096Z" fill="black"/>
<path d="M347.034 161.414C347.075 161.51 347.117 161.607 347.256 161.661C347.297 161.758 347.395 161.716 347.533 161.77C347.769 161.783 348.061 161.657 348.214 161.477C348.367 161.296 348.34 160.965 348.257 160.773C348.215 160.676 348.174 160.58 348.076 160.622C347.938 160.567 347.799 160.513 347.702 160.555C347.465 160.542 347.271 160.626 347.16 160.903C347.048 161.179 346.951 161.221 347.034 161.414Z" fill="black"/>
<path d="M349.009 147.534C349.328 147.74 349.759 147.668 349.87 147.392C350.079 147.073 350.01 146.646 349.732 146.537L349.593 146.482C349.316 146.374 349.024 146.499 348.774 146.721C348.718 146.86 348.662 146.998 348.746 147.191C348.69 147.329 348.87 147.48 349.009 147.534Z" fill="black"/>
<path d="M353.468 146.641C353.787 146.846 354.218 146.775 354.329 146.499C354.538 146.18 354.469 145.753 354.191 145.644C353.872 145.438 353.442 145.51 353.33 145.786C353.08 146.008 353.149 146.436 353.468 146.641Z" fill="black"/>
<path d="M349.878 151.96C350.197 152.165 350.628 152.094 350.739 151.817C350.948 151.499 350.879 151.071 350.601 150.962C350.282 150.757 349.852 150.828 349.74 151.105C349.532 151.423 349.559 151.755 349.878 151.96Z" fill="black"/>
<path d="M357.662 145.405C357.703 145.501 357.745 145.597 357.884 145.652C357.925 145.748 358.022 145.706 358.161 145.761C358.3 145.815 358.397 145.773 358.495 145.731C358.592 145.689 358.689 145.647 358.745 145.509C358.842 145.467 358.801 145.371 358.856 145.233C358.912 145.094 358.829 144.902 358.787 144.805C358.746 144.709 358.704 144.612 358.607 144.654C358.468 144.6 358.329 144.545 358.232 144.587C358.135 144.629 357.996 144.575 357.94 144.713C357.843 144.755 357.746 144.797 357.787 144.893C357.732 145.032 357.676 145.17 357.718 145.266C357.579 145.212 357.62 145.308 357.662 145.405Z" fill="black"/>
<path d="M354.073 150.723C354.115 150.819 354.156 150.916 354.295 150.97C354.336 151.066 354.434 151.024 354.572 151.079C354.809 151.091 355.1 150.966 355.253 150.785C355.406 150.605 355.379 150.274 355.296 150.081C355.254 149.985 355.213 149.889 355.115 149.931C354.977 149.876 354.838 149.822 354.741 149.864C354.505 149.851 354.31 149.935 354.199 150.212C354.004 150.295 353.99 150.53 354.073 150.723Z" fill="black"/>
<path d="M346.144 151.855C345.825 151.65 345.395 151.721 345.283 151.998C345.075 152.316 345.143 152.744 345.421 152.853C345.74 153.058 346.171 152.987 346.282 152.71C346.491 152.391 346.463 152.06 346.144 151.855Z" fill="black"/>
<path d="M349.135 170.566C349.315 170.717 349.551 170.729 349.745 170.645C349.843 170.603 349.94 170.562 349.996 170.423C350.093 170.381 350.051 170.285 350.107 170.147C350.121 169.912 349.997 169.623 349.816 169.472C349.636 169.321 349.303 169.351 349.108 169.434C349.011 169.476 348.914 169.518 348.955 169.615C348.899 169.753 348.844 169.891 348.885 169.988C348.871 170.222 348.954 170.415 349.135 170.566Z" fill="black"/>
<path d="M346.324 174.748C346.185 174.694 346.047 174.639 345.949 174.681C345.811 174.627 345.616 174.711 345.56 174.849C345.824 175.192 345.99 175.578 346.253 175.922L346.351 175.88C346.448 175.838 346.448 175.838 346.504 175.699C346.504 175.699 346.601 175.658 346.559 175.561C346.671 175.285 346.643 174.953 346.324 174.748Z" fill="black"/>
<path d="M350.101 174.949C350.42 175.154 350.85 175.083 350.962 174.806C351.171 174.488 351.102 174.06 350.824 173.951C350.505 173.746 350.074 173.817 349.963 174.094C349.713 174.316 349.782 174.744 350.101 174.949Z" fill="black"/>
<path d="M344.675 171.459C344.994 171.664 345.425 171.593 345.536 171.316C345.745 170.998 345.676 170.571 345.398 170.462C345.079 170.256 344.649 170.328 344.537 170.604C344.328 170.923 344.356 171.254 344.675 171.459Z" fill="black"/>
<path d="M354.296 173.712C354.337 173.808 354.379 173.905 354.517 173.959C354.698 174.11 354.934 174.123 355.128 174.039C355.226 173.997 355.323 173.955 355.379 173.817C355.476 173.775 355.434 173.678 355.49 173.54C355.504 173.305 355.379 173.016 355.199 172.865C355.06 172.811 354.922 172.757 354.824 172.798C354.727 172.84 354.588 172.786 354.533 172.924C354.435 172.966 354.338 173.008 354.38 173.104C354.324 173.243 354.268 173.381 354.31 173.477C354.212 173.519 354.254 173.616 354.296 173.712Z" fill="black"/>
<path d="M350.707 179.03C350.749 179.127 350.79 179.223 350.929 179.278C351.248 179.483 351.679 179.412 351.79 179.135C351.999 178.817 351.93 178.389 351.652 178.28C351.513 178.226 351.375 178.171 351.277 178.213C351.041 178.201 350.847 178.285 350.735 178.561C350.638 178.603 350.624 178.838 350.707 179.03Z" fill="black"/>
<path d="M356.173 159.875C356.492 160.08 356.923 160.009 357.034 159.732C357.243 159.414 357.174 158.986 356.896 158.877C356.577 158.672 356.147 158.743 356.035 159.02C355.785 159.242 355.854 159.669 356.173 159.875Z" fill="black"/>
<path d="M352.681 165.151C353 165.356 353.431 165.285 353.542 165.009C353.751 164.69 353.682 164.263 353.404 164.154C353.085 163.948 352.654 164.02 352.543 164.296C352.334 164.615 352.362 164.946 352.681 165.151Z" fill="black"/>
<path d="M357.14 164.258C357.459 164.463 357.889 164.392 358.001 164.115C358.21 163.797 358.141 163.369 357.863 163.261C357.544 163.055 357.113 163.127 357.002 163.403C356.752 163.625 356.821 164.053 357.14 164.258Z" fill="black"/>
<path d="M351.716 160.768C352.035 160.973 352.466 160.902 352.577 160.625C352.786 160.307 352.717 159.879 352.439 159.77C352.12 159.565 351.69 159.636 351.578 159.913C351.369 160.231 351.397 160.563 351.716 160.768Z" fill="black"/>
<path d="M353.552 169.576C353.871 169.781 354.302 169.71 354.413 169.433C354.622 169.115 354.553 168.688 354.275 168.579C353.956 168.373 353.526 168.445 353.414 168.721C353.205 169.04 353.233 169.371 353.552 169.576Z" fill="black"/>
<path d="M348.265 166.14C348.584 166.346 349.014 166.274 349.126 165.998C349.335 165.679 349.266 165.252 348.988 165.143C348.669 164.938 348.238 165.009 348.127 165.286C347.877 165.508 347.946 165.935 348.265 166.14Z" fill="black"/>
<path d="M361.336 163.021C361.377 163.117 361.419 163.214 361.558 163.268C361.877 163.473 362.307 163.402 362.419 163.125C362.628 162.807 362.559 162.38 362.281 162.271C362.142 162.216 362.003 162.162 361.906 162.204C361.67 162.191 361.476 162.275 361.364 162.551C361.267 162.593 361.253 162.828 361.336 163.021Z" fill="black"/>
<path d="M357.746 168.339C357.788 168.436 357.829 168.532 357.968 168.586C358.287 168.792 358.718 168.72 358.829 168.444C359.038 168.125 358.969 167.698 358.691 167.589C358.552 167.534 358.414 167.48 358.316 167.522C358.08 167.509 357.886 167.593 357.774 167.87C357.677 167.912 357.663 168.146 357.746 168.339Z" fill="black"/>
<path d="M363.172 149.087C363.352 149.238 363.588 149.25 363.783 149.167C363.88 149.125 363.977 149.083 364.033 148.945C364.13 148.903 364.089 148.806 364.144 148.668C364.158 148.433 364.034 148.144 363.853 147.993C363.673 147.842 363.34 147.872 363.145 147.956C363.048 147.998 362.951 148.039 362.992 148.136C362.937 148.274 362.881 148.412 362.922 148.509C362.95 148.84 363.033 149.033 363.172 149.087Z" fill="black"/>
<path d="M359.721 154.46C360.04 154.665 360.471 154.594 360.582 154.317C360.694 154.041 360.722 153.571 360.444 153.463C360.125 153.257 359.695 153.329 359.583 153.605C359.333 153.827 359.402 154.255 359.721 154.46Z" fill="black"/>
<path d="M364.138 153.47C364.457 153.675 364.888 153.604 364.999 153.328C365.208 153.009 365.139 152.582 364.861 152.473C364.542 152.267 364.111 152.339 364 152.615C363.791 152.934 363.86 153.361 364.138 153.47Z" fill="black"/>
<path d="M358.753 150.077C359.072 150.282 359.503 150.211 359.614 149.934C359.823 149.616 359.754 149.188 359.476 149.079C359.157 148.874 358.727 148.945 358.615 149.222C358.365 149.444 358.434 149.872 358.753 150.077Z" fill="black"/>
<path d="M360.591 158.885C360.91 159.09 361.341 159.019 361.452 158.743C361.661 158.424 361.592 157.997 361.314 157.888C360.995 157.682 360.565 157.754 360.453 158.03C360.203 158.252 360.272 158.68 360.591 158.885Z" fill="black"/>
<path d="M355.304 155.449C355.623 155.655 356.054 155.583 356.165 155.307C356.374 154.988 356.305 154.561 356.027 154.452C355.708 154.247 355.277 154.318 355.166 154.595C354.916 154.817 354.985 155.244 355.304 155.449Z" fill="black"/>
<path d="M368.333 152.234C368.374 152.33 368.416 152.426 368.555 152.481C368.735 152.632 368.971 152.644 369.165 152.56C369.263 152.518 369.36 152.476 369.416 152.338C369.513 152.296 369.471 152.2 369.527 152.062C369.541 151.827 369.417 151.538 369.236 151.387C369.097 151.332 368.959 151.278 368.861 151.32C368.764 151.362 368.625 151.307 368.57 151.446C368.472 151.488 368.375 151.529 368.417 151.626C368.361 151.764 368.305 151.902 368.347 151.999C368.291 152.137 368.333 152.234 368.333 152.234Z" fill="black"/>
<path d="M364.785 157.648C364.827 157.745 364.868 157.841 365.007 157.895C365.326 158.101 365.757 158.029 365.868 157.753C366.077 157.434 366.008 157.007 365.73 156.898C365.591 156.843 365.453 156.789 365.355 156.831C365.119 156.818 364.925 156.902 364.813 157.179C364.716 157.221 364.702 157.455 364.785 157.648Z" fill="black"/>
<path d="M366.76 143.769C366.982 144.016 367.371 143.848 367.621 143.626C367.83 143.308 367.761 142.88 367.483 142.771C367.164 142.566 366.733 142.637 366.622 142.914C366.372 143.136 366.441 143.564 366.76 143.769Z" fill="black"/>
<path d="M371.178 142.779C371.317 142.834 371.358 142.93 371.456 142.888C371.692 142.901 371.886 142.817 372.039 142.637C371.623 142.473 371.248 142.406 370.832 142.243C370.817 142.478 370.942 142.767 371.178 142.779Z" fill="black"/>
<path d="M367.63 148.194C367.949 148.399 368.38 148.328 368.491 148.051C368.7 147.733 368.631 147.305 368.353 147.196C368.034 146.991 367.604 147.062 367.492 147.339C367.242 147.561 367.311 147.989 367.63 148.194Z" fill="black"/>
<path d="M362.302 144.662C362.621 144.867 363.052 144.796 363.163 144.519C363.372 144.201 363.303 143.774 363.025 143.665C362.706 143.459 362.276 143.531 362.164 143.807C361.955 144.126 362.024 144.553 362.302 144.662Z" fill="black"/>
<path d="M371.825 146.957C371.866 147.053 371.908 147.15 372.046 147.204C372.366 147.409 372.796 147.338 373.005 147.02C373.214 146.701 373.145 146.274 372.867 146.165C372.728 146.11 372.589 146.056 372.492 146.098C372.256 146.085 372.062 146.169 371.95 146.446C371.756 146.529 371.741 146.764 371.825 146.957Z" fill="black"/>
<path d="M350.943 201.785C350.888 201.923 350.971 202.116 351.151 202.267C351.151 202.267 351.193 202.363 351.29 202.321L351.429 202.376C351.429 202.376 351.526 202.334 351.568 202.43C351.706 202.485 351.804 202.443 351.901 202.401C351.998 202.359 352.095 202.317 352.151 202.179C352.248 202.137 352.207 202.041 352.262 201.902C352.318 201.764 352.235 201.571 352.194 201.475C352.152 201.378 352.111 201.282 352.013 201.324C352.013 201.324 351.972 201.228 351.874 201.27C351.736 201.215 351.5 201.203 351.305 201.286C351.208 201.328 351.111 201.37 351.152 201.467C351.152 201.467 351.152 201.467 351.055 201.509C350.958 201.55 350.902 201.689 350.943 201.785Z" fill="black"/>
<path d="M352.903 188.14C353.223 188.346 353.653 188.274 353.765 187.998C353.973 187.679 353.904 187.252 353.627 187.143C353.308 186.938 352.877 187.009 352.766 187.285C352.418 187.549 352.584 187.935 352.903 188.14Z" fill="black"/>
<path d="M353.773 192.566C354.092 192.771 354.522 192.7 354.634 192.423C354.842 192.104 354.773 191.677 354.496 191.568C354.177 191.363 353.746 191.434 353.635 191.711C353.385 191.933 353.453 192.36 353.773 192.566Z" fill="black"/>
<path d="M350.28 197.842C350.6 198.047 351.03 197.976 351.142 197.699C351.35 197.381 351.281 196.954 351.004 196.845C350.823 196.694 350.49 196.723 350.296 196.807C350.198 196.849 350.101 196.891 350.143 196.987C349.934 197.306 349.961 197.637 350.28 197.842Z" fill="black"/>
<path d="M358.148 191.479C358.148 191.479 358.19 191.576 358.287 191.534C358.329 191.63 358.426 191.588 358.565 191.643C358.801 191.655 359.092 191.53 359.245 191.349C359.398 191.169 359.371 190.838 359.288 190.645C359.246 190.549 359.205 190.453 359.108 190.495C359.108 190.495 359.066 190.398 358.969 190.44C358.691 190.331 358.399 190.457 358.149 190.679C357.802 190.943 357.829 191.274 358.148 191.479Z" fill="black"/>
<path d="M354.601 196.894C354.601 196.894 354.643 196.991 354.74 196.949C354.782 197.045 354.879 197.003 355.018 197.058C355.254 197.07 355.546 196.945 355.699 196.764C355.852 196.584 355.824 196.253 355.741 196.06C355.7 195.964 355.658 195.868 355.561 195.909C355.561 195.909 355.519 195.813 355.422 195.855C355.144 195.746 354.853 195.872 354.602 196.094C354.352 196.316 354.38 196.647 354.601 196.894Z" fill="black"/>
<path d="M359.846 177.491C360.026 177.642 360.262 177.655 360.456 177.571C360.554 177.529 360.651 177.487 360.707 177.349C360.804 177.307 360.762 177.21 360.818 177.072C360.832 176.837 360.708 176.548 360.527 176.398C360.347 176.247 360.014 176.276 359.819 176.36C359.722 176.402 359.625 176.444 359.666 176.54C359.61 176.678 359.555 176.817 359.596 176.913C359.582 177.148 359.665 177.341 359.846 177.491Z" fill="black"/>
<path d="M356.355 182.767C356.674 182.973 357.104 182.901 357.216 182.625C357.424 182.306 357.356 181.879 357.078 181.77C356.759 181.565 356.328 181.636 356.217 181.913C356.008 182.231 356.036 182.562 356.355 182.767Z" fill="black"/>
<path d="M360.812 181.874C361.131 182.079 361.561 182.008 361.673 181.732C361.881 181.413 361.813 180.986 361.535 180.877C361.216 180.671 360.785 180.743 360.674 181.019C360.424 181.241 360.493 181.669 360.812 181.874Z" fill="black"/>
<path d="M355.386 178.384C355.705 178.59 356.136 178.518 356.247 178.242C356.456 177.923 356.387 177.496 356.109 177.387C355.79 177.182 355.359 177.253 355.248 177.529C355.039 177.848 355.164 178.137 355.386 178.384Z" fill="black"/>
<path d="M357.319 187.151C357.639 187.356 358.069 187.285 358.181 187.008C358.389 186.69 358.32 186.262 358.043 186.153C357.724 185.948 357.293 186.019 357.182 186.296C356.876 186.656 357 186.945 357.319 187.151Z" fill="black"/>
<path d="M351.937 183.757C352.256 183.963 352.686 183.891 352.798 183.615C353.006 183.296 352.938 182.869 352.66 182.76C352.341 182.554 351.91 182.626 351.799 182.902C351.549 183.125 351.618 183.552 351.937 183.757Z" fill="black"/>
<path d="M365.091 180.83C365.091 180.83 365.132 180.927 365.229 180.885C365.271 180.981 365.368 180.939 365.507 180.994C365.646 181.048 365.743 181.006 365.84 180.964C365.938 180.922 366.035 180.881 366.091 180.742C366.188 180.7 366.146 180.604 366.202 180.466C366.258 180.327 366.175 180.135 366.133 180.038C366.091 179.942 366.05 179.845 365.953 179.887C365.953 179.887 365.911 179.791 365.814 179.833C365.675 179.778 365.439 179.766 365.245 179.85C365.147 179.892 365.05 179.934 365.092 180.03C365.036 180.168 364.98 180.307 365.022 180.403C364.966 180.541 365.008 180.638 365.091 180.83Z" fill="black"/>
<path d="M361.642 186.203C361.642 186.203 361.684 186.299 361.781 186.257C361.823 186.354 361.92 186.312 362.059 186.366C362.295 186.379 362.587 186.253 362.74 186.073C362.893 185.893 362.865 185.562 362.782 185.369C362.741 185.272 362.699 185.176 362.602 185.218C362.602 185.218 362.56 185.122 362.463 185.164C362.185 185.055 361.894 185.18 361.643 185.403C361.393 185.625 361.421 185.956 361.642 186.203Z" fill="black"/>
<path d="M366.843 166.704C367.162 166.909 367.593 166.838 367.704 166.561C367.913 166.243 367.844 165.815 367.566 165.706C367.247 165.501 366.817 165.572 366.705 165.849C366.496 166.167 366.663 166.553 366.843 166.704Z" fill="black"/>
<path d="M363.394 172.077C363.713 172.282 364.143 172.211 364.255 171.934C364.464 171.615 364.395 171.188 364.117 171.079C363.798 170.874 363.367 170.945 363.256 171.222C363.006 171.444 363.075 171.871 363.394 172.077Z" fill="black"/>
<path d="M367.81 171.087C368.129 171.292 368.559 171.221 368.671 170.944C368.88 170.626 368.811 170.198 368.533 170.089C368.214 169.884 367.783 169.955 367.672 170.232C367.463 170.551 367.532 170.978 367.81 171.087Z" fill="black"/>
<path d="M362.428 167.693C362.747 167.899 363.177 167.827 363.289 167.551C363.595 167.19 363.429 166.805 363.109 166.6C362.79 166.394 362.36 166.466 362.248 166.742C362.04 167.061 362.206 167.446 362.428 167.693Z" fill="black"/>
<path d="M364.263 176.502C364.582 176.707 365.013 176.635 365.124 176.359C365.333 176.04 365.264 175.613 364.986 175.504C364.667 175.299 364.236 175.37 364.125 175.647C363.875 175.869 364.041 176.254 364.263 176.502Z" fill="black"/>
<path d="M358.976 173.066C359.295 173.271 359.725 173.2 359.837 172.924C360.046 172.605 359.977 172.178 359.699 172.069C359.38 171.863 358.949 171.935 358.838 172.211C358.588 172.433 358.657 172.861 358.976 173.066Z" fill="black"/>
<path d="M372.131 170.139C372.131 170.139 372.172 170.236 372.269 170.194C372.311 170.29 372.408 170.248 372.547 170.303C372.783 170.315 373.075 170.189 373.228 170.009C373.381 169.829 373.353 169.498 373.27 169.305C373.229 169.209 373.187 169.112 373.09 169.154C373.09 169.154 373.048 169.058 372.951 169.1C372.674 168.991 372.382 169.117 372.132 169.339C371.881 169.561 371.909 169.892 372.131 170.139Z" fill="black"/>
<path d="M368.639 175.415C368.639 175.415 368.68 175.512 368.777 175.47C368.819 175.566 368.916 175.524 369.055 175.579C369.291 175.591 369.583 175.466 369.736 175.285C369.889 175.105 369.861 174.774 369.778 174.581C369.737 174.485 369.695 174.389 369.598 174.431C369.598 174.431 369.556 174.334 369.459 174.376C369.181 174.267 368.89 174.393 368.639 174.615C368.431 174.934 368.458 175.265 368.639 175.415Z" fill="black"/>
<path d="M373.883 156.013C374.063 156.163 374.299 156.176 374.494 156.092C374.591 156.05 374.688 156.008 374.744 155.87C374.841 155.828 374.799 155.732 374.855 155.593C374.869 155.359 374.745 155.07 374.564 154.919C374.384 154.768 374.051 154.797 373.856 154.881C373.759 154.923 373.662 154.965 373.703 155.061C373.648 155.2 373.592 155.338 373.633 155.434C373.619 155.669 373.744 155.958 373.883 156.013Z" fill="black"/>
<path d="M370.433 161.385C370.752 161.591 371.182 161.519 371.294 161.243C371.503 160.924 371.434 160.497 371.156 160.388C370.837 160.182 370.406 160.254 370.295 160.53C370.045 160.752 370.114 161.18 370.433 161.385Z" fill="black"/>
<path d="M374.849 160.396C375.168 160.601 375.598 160.53 375.71 160.253C375.919 159.935 375.85 159.507 375.572 159.399C375.253 159.193 374.822 159.265 374.711 159.541C374.502 159.86 374.571 160.287 374.849 160.396Z" fill="black"/>
<path d="M369.466 157.002C369.785 157.207 370.216 157.136 370.327 156.859C370.536 156.541 370.467 156.114 370.189 156.005C369.87 155.799 369.44 155.871 369.328 156.147C369.078 156.369 369.147 156.797 369.466 157.002Z" fill="black"/>
<path d="M371.302 165.81C371.621 166.016 372.052 165.944 372.163 165.668C372.372 165.349 372.303 164.922 372.025 164.813C371.706 164.608 371.276 164.679 371.164 164.956C370.914 165.178 371.08 165.563 371.302 165.81Z" fill="black"/>
<path d="M365.974 162.279C366.293 162.484 366.723 162.413 366.835 162.136C367.044 161.817 366.975 161.39 366.697 161.281C366.378 161.076 365.947 161.147 365.836 161.424C365.627 161.742 365.696 162.17 365.974 162.279Z" fill="black"/>
<path d="M375.678 164.725C375.678 164.725 375.719 164.821 375.816 164.779C375.858 164.876 375.955 164.834 376.094 164.888C376.33 164.901 376.622 164.775 376.775 164.595C376.928 164.414 376.9 164.083 376.817 163.891C376.776 163.794 376.734 163.698 376.637 163.74C376.637 163.74 376.595 163.643 376.498 163.685C376.221 163.576 375.929 163.702 375.679 163.924C375.47 164.243 375.497 164.574 375.678 164.725Z" fill="black"/>
<path d="M377.472 150.694C377.791 150.899 378.222 150.828 378.333 150.552C378.542 150.233 378.473 149.806 378.195 149.697C377.876 149.491 377.445 149.563 377.334 149.839C377.084 150.061 377.153 150.489 377.472 150.694Z" fill="black"/>
<path d="M376.506 146.311C376.825 146.517 377.255 146.445 377.367 146.169C377.52 145.988 377.478 145.892 377.534 145.754C377.548 145.519 377.465 145.326 377.187 145.217C377.007 145.067 376.771 145.054 376.479 145.18C376.382 145.222 376.285 145.264 376.229 145.402C376.118 145.678 376.187 146.106 376.506 146.311Z" fill="black"/>
<path d="M373.013 151.588C373.332 151.793 373.763 151.722 373.874 151.445C374.083 151.127 374.014 150.699 373.736 150.59C373.417 150.385 372.986 150.456 372.875 150.733C372.666 151.051 372.735 151.479 373.013 151.588Z" fill="black"/>
<path d="M356.576 205.757C356.756 205.908 356.992 205.921 357.187 205.837C357.284 205.795 357.381 205.753 357.437 205.615C357.534 205.573 357.493 205.476 357.549 205.338C357.563 205.103 357.438 204.814 357.258 204.663C357.077 204.513 356.744 204.542 356.55 204.626C356.452 204.668 356.355 204.71 356.397 204.806C356.341 204.944 356.285 205.083 356.327 205.179C356.215 205.456 356.396 205.606 356.576 205.757Z" fill="black"/>
<path d="M363.434 194.915C363.475 195.012 363.475 195.012 363.572 194.97C363.711 195.024 363.753 195.121 363.85 195.079L363.947 195.037C363.823 194.748 363.74 194.555 363.615 194.266C363.573 194.169 363.49 193.977 363.449 193.88C363.352 193.922 363.352 193.922 363.296 194.06C363.24 194.199 363.184 194.337 363.226 194.433C363.309 194.626 363.295 194.861 363.434 194.915Z" fill="black"/>
<path d="M360.025 200.384C360.344 200.59 360.774 200.518 360.886 200.242C361.094 199.923 361.025 199.496 360.748 199.387C360.429 199.182 359.998 199.253 359.887 199.53C359.678 199.848 359.705 200.179 360.025 200.384Z" fill="black"/>
<path d="M364.485 199.491C364.666 199.642 364.999 199.612 365.193 199.529L365.291 199.487C365.291 199.487 365.388 199.445 365.346 199.348C365.555 199.03 365.486 198.602 365.209 198.494C365.167 198.397 365.07 198.439 364.931 198.385L364.834 198.427C364.598 198.414 364.403 198.498 364.292 198.774C364.097 198.858 364.166 199.286 364.485 199.491Z" fill="black"/>
<path d="M359.157 195.959C359.477 196.164 359.907 196.093 360.018 195.816C360.227 195.498 360.158 195.071 359.881 194.962C359.562 194.756 359.131 194.828 359.02 195.104C358.811 195.423 358.838 195.754 359.157 195.959Z" fill="black"/>
<path d="M360.993 204.768C361.312 204.973 361.743 204.902 361.854 204.625C362.063 204.307 361.994 203.879 361.717 203.77C361.397 203.565 360.967 203.636 360.855 203.913C360.647 204.231 360.674 204.562 360.993 204.768Z" fill="black"/>
<path d="M355.609 201.374C355.928 201.579 356.358 201.508 356.47 201.232C356.678 200.913 356.609 200.486 356.332 200.377C356.013 200.171 355.582 200.243 355.471 200.519C355.221 200.741 355.289 201.169 355.609 201.374Z" fill="black"/>
<path d="M365.188 203.531C365.23 203.627 365.271 203.723 365.41 203.778C365.452 203.874 365.591 203.929 365.729 203.983L365.827 203.941C365.938 203.665 366.008 203.292 365.981 202.961C365.939 202.864 366.036 202.822 365.995 202.726C365.995 202.726 365.856 202.671 365.759 202.713C365.661 202.755 365.661 202.755 365.564 202.797C365.467 202.839 365.272 202.923 365.217 203.061C365.119 203.103 365.105 203.338 365.188 203.531Z" fill="black"/>
<path d="M362.425 190.436C362.467 190.532 362.467 190.532 362.606 190.587C362.744 190.641 362.744 190.641 362.883 190.695C362.856 190.364 362.926 189.991 362.954 189.522C362.954 189.522 362.913 189.426 363.01 189.384C362.774 189.371 362.677 189.413 362.524 189.593C362.524 189.593 362.524 189.593 362.426 189.635C362.356 190.008 362.342 190.243 362.425 190.436Z" fill="black"/>
<path d="M373.138 174.619C373.457 174.824 373.888 174.753 373.999 174.476C374.208 174.158 374.139 173.73 373.861 173.621C373.542 173.416 373.111 173.487 373 173.764C372.75 173.986 372.916 174.372 373.138 174.619Z" fill="black"/>
<path d="M369.646 179.895C369.688 179.992 369.785 179.95 369.785 179.95C370.062 180.059 370.396 180.029 370.604 179.711C370.66 179.572 370.66 179.572 370.716 179.434C370.674 179.338 370.771 179.296 370.73 179.199C370.647 179.007 370.605 178.91 370.425 178.76C370.106 178.554 369.675 178.626 369.564 178.902C369.299 179.359 369.327 179.69 369.646 179.895Z" fill="black"/>
<path d="M376.687 169.204C377.006 169.409 377.436 169.338 377.548 169.061C377.756 168.743 377.688 168.315 377.41 168.206C377.091 168.001 376.66 168.072 376.549 168.349C376.34 168.668 376.409 169.095 376.687 169.204Z" fill="black"/>
</g>
</g>
<g clip-path="url(#clip2)">
<path d="M416.083 106.336C416.267 104.784 416.114 103.217 416.481 101.664C416.741 100.63 416.909 99.595 417.521 98.6972C417.689 98.4385 417.887 98.1798 417.949 97.9059C418.514 95.593 419.936 93.7365 421.206 91.7888C421.848 90.7997 422.582 89.9171 423.576 89.2476C424.294 88.7606 424.952 88.2128 425.395 87.4368C425.762 86.8129 426.313 86.3107 426.939 85.9912C428.377 85.2608 429.707 84.3325 431.297 83.8608C433.82 83.1152 436.297 82.2174 438.82 81.4414C440.303 80.9849 441.832 80.8783 443.331 81.2131C444.279 81.4109 445.196 81.6696 446.175 81.6392C446.894 81.624 447.597 81.7913 448.254 82.0348C449.401 82.4609 450.548 82.8565 451.771 82.963C452.123 82.9935 452.475 83.1152 452.796 83.2522C454.004 83.7847 455.181 84.3478 456.389 84.8803C457.352 85.3064 457.887 86.2346 458.667 86.8737C458.881 87.4824 458.453 87.8781 458.086 88.152C455.303 90.1758 454.569 93.0822 454.417 96.2625C454.019 98.6972 454.218 101.162 454.906 103.43C455.41 105.103 456.832 106.473 457.933 107.919C460.349 111.068 463.713 112.544 467.505 113.275C467.811 113.336 468.117 113.381 468.254 113.701C467.031 115.603 466.313 117.749 465.349 119.788C464.661 121.264 463.698 122.42 462.521 123.485C462.001 123.957 461.756 124.718 461.221 125.144C459.738 126.346 458.392 127.716 456.924 128.918C456.588 129.207 456.144 129.389 455.716 129.542C454.936 129.815 454.294 130.211 453.759 130.881C452.995 131.809 451.863 132.25 450.67 132.387C448.3 132.676 445.961 133.117 443.667 133.802C443.01 134 442.322 134.061 441.71 133.894C440.242 133.483 438.698 133.391 437.276 132.798C436.389 132.433 435.487 132.128 434.493 132.083C433.897 132.052 433.3 131.824 432.75 131.581C430.9 130.759 429.065 129.907 427.23 129.039C425.426 128.187 424.279 126.453 423.117 124.855C422.857 124.49 422.704 124.079 422.245 123.835C420.288 122.816 419.585 120.838 418.713 119.042C417.719 117.003 417.459 114.675 416.282 112.697C415.976 112.179 415.884 111.555 415.869 110.931C416.557 110.201 417.398 110.505 418.147 110.703C419.554 111.068 420.946 111.16 422.352 110.734C423.163 110.49 423.958 110.581 424.738 110.886C426.527 111.555 428.3 111.601 430.074 110.825C430.747 110.536 431.435 110.445 432.154 110.551C434.111 110.81 435.747 110.231 437.123 108.801C438.102 107.782 439.08 106.792 440.043 105.423C437.245 106.792 434.187 106.245 431.649 107.736C430.976 108.132 430.135 107.812 429.417 107.614C427.918 107.219 426.481 107.356 425.105 108.01C424.172 108.451 423.254 108.482 422.306 108.116C421.343 107.736 420.334 107.69 419.325 107.614C418.132 107.538 416.878 107.462 416.083 106.336Z" fill="#238969"/>
<path d="M454.109 96.2929C454.232 95.106 454.308 93.9039 454.476 92.717C454.706 91.0888 455.638 89.8562 456.846 88.8215C457.534 88.228 458.131 87.5585 458.681 86.8585C459.767 86.2042 460.883 85.5955 462.137 85.3216C462.382 85.276 462.626 85.1695 462.825 85.0325C464.828 83.5869 466.801 83.9065 468.758 85.1238C468.987 85.2608 469.201 85.3521 469.446 85.3673C470.898 85.4586 472.015 86.2194 473.024 87.1781C473.788 87.9085 474.599 88.6085 475.302 89.4149C476.785 91.1192 477.244 93.1278 476.846 95.3343C476.77 95.7756 476.571 96.2321 476.617 96.6733C476.755 97.9059 476.372 98.9559 475.73 99.9602C475.47 100.341 475.256 100.736 475.256 101.223C475.271 102.836 474.247 103.886 473.024 104.616C471.632 105.438 470.164 106.169 468.513 106.382C468.437 106.443 468.36 106.519 468.268 106.549C465.852 107.705 460.99 107.021 459.048 105.24C456.434 102.806 454.446 100.006 454.109 96.2929Z" fill="#4848FF"/>
<path d="M416.082 106.336C417.397 106.899 418.728 107.34 420.196 107.188C421.128 107.097 421.985 107.523 422.841 107.858C423.453 108.101 424.018 108.116 424.599 107.782C426.404 106.762 428.3 106.792 430.211 107.401C430.853 107.599 431.358 107.614 431.923 107.234C433.284 106.321 434.829 106.032 436.434 106.047C437.214 106.047 437.933 105.91 438.605 105.484C439.156 105.134 439.752 104.799 440.517 105.256C440.196 106.26 439.446 106.99 438.804 107.721C437.474 109.242 436.082 110.871 433.835 110.947C431.908 111.023 430.058 111.205 428.208 111.799C427.199 112.118 425.991 111.966 424.951 111.388C424.003 110.871 422.994 110.84 422 111.236C420.899 111.662 419.798 111.616 418.712 111.281C417.78 111.008 416.832 110.855 415.853 110.931C413.957 110.429 412.382 109.41 410.792 108.253C409.186 107.097 407.856 105.621 406.205 104.54C405.15 103.856 404.431 102.806 404.034 101.664C403.208 99.1993 402.459 96.6886 402.046 94.0865C401.893 93.0974 402.122 92.1844 402.183 91.2257C402.199 90.8453 402.138 90.3584 402.688 90.2367C403.269 90.1149 403.712 90.404 403.927 90.9062C404.278 91.6975 404.584 92.504 404.63 93.3713C404.645 93.8278 404.737 94.2843 404.737 94.7256C404.752 96.1255 405.501 97.1907 406.144 98.3168C406.312 98.6059 406.526 98.7733 406.786 98.9254C408.131 99.7015 409.049 100.873 409.997 102.091C411.174 103.612 412.336 105.271 414.293 106.001C414.905 106.229 415.471 106.366 416.082 106.336Z" fill="#FED046"/>
<path d="M454.11 96.2929C454.736 97.7841 455.134 99.3515 455.944 100.782C456.954 102.577 458.284 104.099 459.859 105.393C460.837 106.199 462.03 106.701 463.391 106.534C463.59 106.503 463.804 106.458 463.987 106.503C465.516 106.777 467.015 106.686 468.528 106.366C468.513 106.869 468.544 107.371 468.483 107.873C468.391 108.71 468.345 109.486 468.651 110.353C469.033 111.449 468.88 112.636 468.253 113.686C466.235 113.823 464.492 112.97 462.779 112.118C461.74 111.601 460.501 111.327 459.721 110.475C458.437 109.075 456.969 107.782 456.128 106.016C455.914 105.545 455.669 105.103 455.21 104.845C454.385 104.373 454.217 103.49 454.262 102.745C454.308 101.999 454.186 101.36 453.957 100.706C453.895 100.523 453.85 100.31 453.85 100.112C453.926 99.0167 453.941 97.9211 453.865 96.8103C453.85 96.6581 454.018 96.4755 454.11 96.2929Z" fill="#222532"/>
</g>
<g clip-path="url(#clip3)">
<path d="M97.6003 342C89.1003 345.9 83.5003 353.1 77.6003 360.8C75.9003 357.1 74.2003 354 70.5003 352.9C66.3003 351.6 64.6003 355.8 61.5003 357.1C60.6003 354.2 60.0003 351.4 59.0003 348.8C56.8003 343.3 53.4003 342.5 49.1003 346.5C46.6003 348.8 44.7003 351.5 43.0003 354.4C33.5003 370.6 26.9003 388 22.7003 406.3C22.5003 407.5 21.0003 409.6 23.2003 410C25.1003 410.3 24.7003 407.9 25.0003 406.5C29.0003 390.1 34.8003 374.4 42.8003 359.5C45.0003 355.4 47.5003 351.4 50.9003 348.2C52.2003 347 54.2003 345.3 55.5003 347.7C58.1003 352.5 60.9003 358 58.6003 363.3C53.7003 374.4 50.4003 385.8 48.3003 397.6C46.8003 405.9 44.9003 414.3 46.7003 422.8C47.1003 424.9 47.8003 426.8 50.0003 427.3C52.3003 427.9 53.8003 426.3 55.0003 424.7C57.5003 421.5 58.8003 417.7 59.8003 413.8C63.9003 397.6 63.4003 381.1 62.5003 364.7C62.3003 360.9 65.3003 355.6 68.4003 355.5C72.8003 355.4 74.1003 358.6 75.0003 362.3C75.5003 364.4 75.4003 366.1 74.6003 368.1C71.7003 375.4 70.3003 383.1 69.7003 390.9C69.6003 392 69.4003 393.5 70.9003 393.7C72.0003 393.8 72.3003 392.4 72.6003 391.5C74.9003 385.8 77.2003 379.8 77.3003 373.7C77.5003 362.2 84.2003 355.1 92.1003 348.4C94.2003 346.6 96.5003 345.1 98.6003 343.4C98.4003 342.9 98.0003 342.5 97.6003 342ZM55.8003 418.3C55.7003 418.5 55.7003 418.6 55.6003 418.8C54.3003 420.9 53.9003 424.8 50.7003 424.2C47.7003 423.6 48.7003 420 48.7003 417.7C48.7003 400.4 53.1003 383.9 59.8003 368C61.2003 385.1 61.3003 401.9 55.8003 418.3Z" fill="#020A13"/>
</g>
<defs>
<clipPath id="clip0">
<rect width="367" height="369" fill="white" transform="translate(10 15.0001)"/>
</clipPath>
<clipPath id="clip1">
<rect width="49.7747" height="59.4009" fill="white" transform="translate(402.223 185.549) rotate(156.682)"/>
</clipPath>
<clipPath id="clip2">
<rect width="75" height="53" fill="white" transform="translate(402 81.0001)"/>
</clipPath>
<clipPath id="clip3">
<rect width="76.8" height="85.4" fill="white" transform="translate(22 342)"/>
</clipPath>
</defs>
</svg>
