<svg width="568" height="680" viewBox="0 0 568 680" fill="none" xmlns="http://www.w3.org/2000/svg">
<g clip-path="url(#clip0)">
<path d="M227.873 513.177C226.986 514.212 226.069 515.276 225.181 516.282C223.938 517.671 222.548 518.115 220.565 517.79C214.234 516.725 208.11 514.892 202.103 512.674C201.038 512.29 200.831 511.758 200.95 510.723C202.133 500.167 203.257 489.582 204.47 479.026C205.654 468.559 206.926 458.092 208.198 447.654C209.382 437.926 210.565 428.198 211.837 418.5C213.11 408.683 214.5 398.896 215.861 389.109C217.252 379.204 218.583 369.328 219.53 359.364C220.832 345.437 222.074 331.511 223.435 317.614C223.85 313.356 224.441 309.098 225.477 304.959C226.128 304.781 226.483 305.225 226.897 305.55C233.081 310.665 240.211 313.504 248.14 314.391C255.714 315.248 263.081 314.184 270.301 311.937C281.159 308.566 290.804 302.859 299.917 296.207C307.964 290.322 315.538 283.906 322.846 277.135C328.823 271.635 334.711 266.018 340.539 260.37C342.758 258.212 345.007 256.083 347.255 253.924C348.439 252.801 348.823 252.801 349.888 254.013C352.699 257.265 355.658 260.34 359.09 262.942C359.415 263.179 359.918 263.386 359.711 263.977C360.392 267.259 361.131 270.512 361.782 273.794C362.67 278.377 363.291 282.99 363.853 287.632C365.51 301.174 366.25 314.805 367.049 328.406C367.611 338.193 368.084 347.98 368.646 357.767C369.208 367.554 369.889 377.312 370.451 387.099C371.072 398.157 371.309 409.245 371.398 420.333C371.516 435.59 371.25 450.877 370.599 466.134C369.978 481.273 369.001 496.412 367.67 511.521C367.522 513.029 367.285 514.567 367.197 516.075C367.137 516.873 366.871 517.139 366.072 517.169C362.196 517.405 358.321 517.701 354.445 518.056C353.676 518.115 352.729 517.849 352.167 518.677C351.161 518.677 350.125 518.677 349.119 518.854C345.243 519.15 341.368 519.357 337.492 519.623C332.58 519.948 327.669 520.096 322.787 520.451C320.45 520.628 318.083 520.687 315.716 520.717C311.692 520.806 307.668 521.249 303.645 521.101C300.686 521.013 297.757 521.633 294.798 521.367C293.911 521.397 293.053 521.397 292.165 521.367C285.952 521.308 279.768 521.929 273.555 521.604C268.969 521.367 264.413 521.308 259.827 521.338C257.312 521.367 255.685 520.125 254.56 517.967C252.667 514.36 251.395 510.545 250.211 506.672C247.933 499.221 246.069 491.681 244.442 484.052C244.412 483.875 244.412 483.638 244.116 483.491C240.211 491.711 236.246 499.901 231.66 507.766C230.654 509.333 229.649 510.9 228.613 512.438C228.465 512.793 228.406 513.295 227.873 513.177Z" fill="#00B1B1"/>
<path d="M527.171 171.104C527.289 185.178 527.408 199.282 527.496 213.357C527.615 232.754 527.733 252.18 527.881 271.576C527.881 272.996 527.496 273.38 526.106 273.498C517.555 274.178 509.034 274.977 500.484 275.745C492.2 276.485 483.886 277.194 475.602 277.934C467.258 278.673 458.915 279.441 450.571 280.181C442.317 280.92 434.092 281.63 425.837 282.339C424.121 282.487 422.405 282.605 420.689 282.842C419.417 283.019 418.884 282.871 418.914 281.334C418.973 270.482 418.943 259.66 418.943 248.809C418.943 248.218 418.914 247.626 418.884 247.035C418.026 245.823 418.618 244.462 418.411 243.161C418.381 230.447 418.411 217.703 418.381 204.989C418.381 204.782 418.381 204.605 418.352 204.398C418.352 203.097 418.499 201.796 418.411 200.495C418.381 180.507 418.411 160.519 418.381 140.501C418.381 139.998 418.47 139.525 418.44 139.023C418.381 136.125 418.411 133.227 418.44 130.33C418.44 128.437 418.884 127.935 420.748 127.816C422.612 127.728 424.476 127.462 426.34 127.373C426.784 127.343 427.228 127.255 427.612 127.58C430.719 127.639 433.796 127.166 436.873 126.929C444.536 126.338 452.169 125.628 459.832 124.978C468.56 124.239 477.288 123.47 486.016 122.731C493.413 122.11 500.839 121.489 508.236 120.868C513.532 120.424 518.828 119.951 524.124 119.508C524.627 119.478 525.1 119.478 525.603 119.39C526.609 119.212 526.846 119.597 526.846 120.572C526.816 125.392 526.875 130.211 526.875 135.061C526.875 135.593 526.905 136.155 526.934 136.687C527.112 137.397 526.461 137.397 526.136 137.633C522.408 139.88 518.739 142.127 514.952 144.315C511.697 146.208 510.78 149.904 512.881 152.594C513.325 153.156 513.827 153.6 514.419 153.955C515.159 154.457 515.277 154.989 514.893 155.817C513.65 158.597 514.064 160.755 516.283 162.736C517.289 163.623 516.845 164.303 516.372 165.161C514.419 168.68 516.224 172.553 520.189 173.292C521.638 173.558 522.881 173.026 524.124 172.376C525.13 171.873 525.899 170.838 527.171 171.104Z" fill="#FEBD00"/>
<path d="M234.322 126.19C235.18 125.392 236.453 125.451 237.311 124.712C237.666 124.268 238.169 124.061 238.671 123.914C243.08 122.524 247.518 121.312 252.045 120.365C252.429 120.277 252.814 120.247 253.199 120.336C256.394 122.967 259.826 125.274 263.465 127.255C272.016 131.926 280.921 135.711 290.33 138.343C295.803 139.88 301.365 141.033 307.017 141.418C313.91 141.861 320.715 141.447 327.047 138.165C331.514 135.859 334.739 132.4 336.781 127.846C337.313 127.343 337.787 127.787 338.26 127.964C339.532 128.437 340.775 129.029 342.106 129.354C343.852 129.561 344.799 130.596 345.124 132.281C345.361 133.819 345.982 135.238 346.367 136.716C347.846 143.133 349.473 149.519 350.982 155.936C353.615 167.201 356.13 178.467 358.645 189.762C358.793 190.471 359 191.21 358.911 191.95C358.793 192.63 358.32 193.044 357.817 193.458C351.426 198.395 344.68 202.86 337.55 206.675C335.716 207.65 333.911 208.626 332.047 209.543C331.928 209.602 331.781 209.661 331.662 209.75C331.07 210.164 330.153 210.518 330.656 211.405C331.159 212.292 331.958 211.76 332.609 211.435C340.864 207.414 348.674 202.653 356.101 197.242C356.574 196.887 357.047 196.119 357.846 196.769C357.994 197.479 357.728 198.129 357.55 198.78C356.515 202.535 355.509 206.261 354.562 210.016C354.444 210.489 354.326 210.962 354.355 211.465C353.556 213.593 351.692 214.717 350.035 215.988C343.881 220.778 337.165 224.77 330.449 228.673C320.301 234.557 309.975 240.086 299.413 245.231C290.862 249.4 282.282 253.481 273.347 256.792C271.779 257.384 270.181 257.857 268.554 258.271C267.075 258.655 265.773 258.389 264.471 257.561C261.364 255.58 259.353 252.712 257.873 249.43C255.891 245.024 255.122 240.323 254.648 235.533C254.352 232.428 254.382 229.353 254.382 226.249C254.352 218.857 255.122 211.524 256.009 204.191C257.341 193.28 259.175 182.458 260.506 171.548C262.163 157.917 258.287 145.912 249.559 135.475C245.92 131.128 241.453 127.817 235.654 126.841C235.151 126.693 234.648 126.634 234.322 126.19Z" fill="#FED1E0"/>
<path d="M234.323 126.19C241.72 127.018 246.986 131.335 251.306 136.924C258.17 145.883 261.72 156.054 261.217 167.408C260.951 173.351 259.886 179.235 259.057 185.119C256.957 199.578 254.619 214.037 254.738 228.703C254.797 235.326 255.329 241.89 257.755 248.129C259.235 251.914 261.424 255.166 264.975 257.413C265.951 258.034 266.927 258.182 268.052 257.916C273.673 256.556 278.939 254.25 284.176 251.855C305.39 242.245 326.041 231.66 345.48 218.768C348.438 216.816 351.338 214.776 353.705 212.056C353.882 211.849 354.03 211.583 354.178 211.346C354.208 211.139 354.208 210.932 354.296 210.785C357.285 205.728 358.379 199.963 360.332 194.552C360.391 194.374 360.095 194.552 360.303 194.552C360.865 194.581 358.971 196.03 357.729 196.533C352.344 200.377 346.9 204.161 341.071 207.355C338.349 208.833 335.627 210.282 332.876 211.731C331.959 212.233 330.923 212.884 330.243 211.524C329.621 210.282 330.716 209.809 331.604 209.365C339.829 205.255 347.728 200.554 355.095 195.025C356.308 194.108 357.462 193.132 358.646 192.186C359.681 191.27 360.391 191.506 361.072 192.985C362.048 190.146 363.587 187.662 365.421 185.326C365.894 184.735 366.249 184.144 366.131 183.316C365.362 177.225 364.859 171.075 363.853 165.013C362.462 156.468 358.468 149.224 352.699 142.926C350.953 141.004 349.119 139.141 347.018 137.544C346.663 137.278 346.279 137.042 346.19 136.539C345.361 135.297 345.036 133.908 344.977 132.429C345.716 132.222 346.19 132.725 346.693 133.08C354.149 138.254 359.711 144.996 363.705 153.127C366.457 158.774 367.522 164.777 368.173 170.927C368.498 173.913 368.853 176.9 369.208 179.856C369.386 181.305 369.445 181.305 370.687 180.655C372.315 179.797 374.001 179.442 375.836 179.62C376.664 179.709 377.078 179.502 377.197 178.585C378.232 170.572 379.179 162.559 380.303 154.576C380.451 153.482 379.83 153.245 378.972 153.038C373.114 151.678 367.906 148.987 363.261 145.203C358.498 141.3 354.829 136.51 351.93 131.158C347.58 123.115 345.154 114.511 344.267 105.434C343.852 101.176 343.616 96.918 344 92.6306C344.03 92.3645 344.089 92.0392 343.852 91.6844C342.906 91.9801 341.959 92.394 340.894 92.3349C337.698 92.2758 338.261 92.4236 337.758 94.9665C337.225 97.5093 336.811 100.111 336.13 102.625C334.917 107.03 332.491 110.549 328.467 112.885C327.58 113.387 327.373 114.008 327.58 114.954C328.231 117.645 329.089 120.247 330.065 122.849C330.331 123.529 330.746 124.18 330.657 124.948C330.006 125.836 329.769 127.166 328.26 127.137C326.751 124.682 326.012 121.903 325.124 119.212C324.769 118.148 324.444 117.054 324.237 115.93C324.059 114.984 323.586 114.807 322.668 114.925C318.319 115.516 314.177 114.925 310.242 112.766C305.124 109.928 301.869 104.28 302.342 98.692C300.804 102.418 298.881 106.202 296.869 109.928C296.129 111.258 295.36 112.589 294.739 113.979C293.348 116.965 290.863 118.444 287.934 119.449C283.585 120.927 279.058 121.696 274.501 122.228C273.525 122.346 272.549 122.583 271.572 122.553C268.762 122.169 266.099 121.164 263.377 120.484C263.288 119.478 264.117 119.774 264.56 119.685C267.578 119.242 270.655 119.153 273.673 118.798C277.638 118.296 281.573 117.704 285.449 116.669C288.378 115.901 290.685 114.541 292.135 111.643C295.508 104.96 299.177 98.4259 301.396 91.2113C301.928 89.5259 302.431 87.8997 301.425 86.0961C300.774 84.9429 300.922 83.4941 301.425 82.1931C301.78 81.306 301.751 80.4781 301.484 79.6206C301.1 78.3492 300.715 77.0778 300.39 75.7768C299.946 73.9436 300.656 73.0565 302.52 72.9678C304.976 72.8496 304.976 72.8791 305.36 70.3658C305.538 69.331 305.686 68.3256 305.834 67.2908C306.218 65.014 307.727 63.6243 309.68 62.6486C310.242 63.1217 310.005 63.7426 309.917 64.3044C309.532 66.7881 309.059 69.2423 308.763 71.7555C308.674 72.3765 308.23 73.1748 309.118 73.5888C310.005 73.9731 310.656 73.6479 311.278 72.8496C312.905 70.7207 314.858 69.0944 317.609 68.5622C322.077 67.6752 326.426 69.8632 328.734 74.2097C329.799 76.2203 330.805 76.3386 332.195 74.6236C333.113 73.5001 334.237 72.613 335.479 71.933C338.32 70.3954 341.249 70.2771 344.207 71.5781C345.302 72.1104 346.219 72.9087 347.284 73.707C347.906 72.4947 348.172 71.2825 348.586 70.0997C349.503 67.8821 349.947 65.4871 351.515 63.5652C354.622 57.0898 358.261 51.117 363.025 45.8539C369.534 38.6689 377.078 33.0214 386.546 30.5081C401.665 26.5164 414.594 30.5968 425.127 41.9509C432.908 50.3778 436.991 60.6675 438.707 71.8442C441.37 89.1416 438.944 105.729 431.103 121.459C430.068 123.559 428.825 125.569 427.671 127.639C425.304 128.112 422.878 128.201 420.482 128.349C419.417 128.408 418.973 128.733 419.002 129.916C419.091 132.873 418.973 135.8 418.943 138.757C418.381 140.501 416.783 141.3 415.541 142.364C409.239 147.775 402.138 151.708 393.883 153.304C392.374 153.6 390.866 153.896 389.327 153.807C388.144 153.748 387.67 154.31 387.522 155.433C386.783 160.608 386.043 165.752 385.303 170.927C384.741 174.771 384.209 178.644 383.646 182.488C383.469 183.582 383.646 184.439 384.297 185.386C389.445 192.748 392.138 200.938 391.753 209.957C391.605 213.771 390.215 217.26 387.966 220.365C387.7 220.749 387.138 221.133 387.433 221.636C387.759 222.198 388.439 222.227 389.031 222.168C390.363 222.05 391.428 221.311 392.493 220.631C397.345 217.496 401.813 213.86 406.31 210.252C409.978 207.325 413.588 204.368 417.227 201.411C417.73 201.027 418.174 200.495 418.914 200.643C418.943 201.825 419.209 203.008 418.766 204.161C418.618 204.664 418.292 205.019 417.908 205.344C410.452 211.228 403.292 217.526 395.363 222.789C394.002 223.676 392.641 224.563 391.102 225.155C389.386 225.835 387.729 225.894 386.132 224.948C385.007 224.268 384.149 224.504 383.203 225.302C379.12 228.88 374.563 231.867 370.184 235.03C366.19 237.898 362.433 241.092 358.764 244.374C356.604 246.296 354.444 248.247 352.314 250.228C351.456 251.027 351.427 251.677 352.225 252.594C355.569 256.438 359.178 259.986 363.498 262.736C367.433 265.249 371.723 266.668 376.338 266.55C381.99 266.432 387.463 265.19 392.67 262.883C399.002 260.045 404.505 256.083 409.742 251.588C412.464 249.253 414.919 246.591 417.493 244.108C417.908 243.694 418.263 243.191 418.943 243.162C418.943 244.463 418.943 245.793 418.943 247.094C414.209 251.707 409.446 256.26 403.972 259.986C397.256 264.539 390.096 267.91 381.99 269.152C374.09 270.364 366.812 269.093 360.273 264.332C360.125 264.214 359.948 264.155 359.77 264.066C355.924 261.05 352.373 257.739 349.326 253.895C348.557 252.919 348.202 253.688 347.758 254.131C341.633 259.986 335.568 265.899 329.414 271.724C319.059 281.511 308.467 291.003 296.691 299.075C287.638 305.284 278.081 310.488 267.371 313.267C258.643 315.515 249.885 315.899 241.098 313.445C236.305 312.114 231.926 309.926 227.962 306.91C227.133 306.289 226.335 305.639 225.506 305.018C213.967 294.196 208.701 280.21 205.387 265.278C202.044 250.228 201.304 234.971 201.955 219.596C202.369 209.543 202.961 199.519 204.174 189.555C206.156 173.292 209.411 157.355 216.275 142.334C217.636 139.348 219.056 136.362 220.979 133.671C224.234 129.029 228.465 126.161 234.323 126.19Z" fill="black"/>
<path d="M344.386 71.8736C341.369 70.5726 338.41 70.7204 335.481 72.1101C332.936 72.0806 330.747 70.957 328.558 69.863C325.421 68.2959 322.788 65.96 320.155 63.6832C318.439 62.2048 316.575 61.1404 314.178 61.2587C313.054 61.3178 312.048 61.5839 311.101 62.1457C310.687 62.3822 310.362 62.8258 309.8 62.6484C307.344 64.2155 306.013 66.3739 305.924 69.3307C305.924 69.6264 305.894 69.9221 305.835 70.2178C305.658 71.2822 305.805 72.6424 305.184 73.3224C304.504 74.0616 303.172 73.2337 302.107 73.2929C300.864 73.352 300.362 73.8547 300.598 75.0669C300.776 76.0131 301.131 76.9593 301.367 77.9055C301.782 79.5613 302.551 81.1284 301.575 82.9912C301.012 84.0556 301.249 85.5636 301.989 86.6576C302.669 87.6334 302.492 88.5204 302.225 89.5553C300.214 97.036 296.367 103.689 293.113 110.608C291.19 114.688 288.201 116.551 284.089 117.468C277.728 118.887 271.278 119.508 264.798 120.04C264.207 120.099 263.615 120.158 263.023 120.217C262.254 120.661 261.396 120.543 260.597 120.395C259.355 120.158 258.171 120.247 256.958 120.513C256.662 120.543 256.366 120.483 256.159 120.277C255.064 119.242 254.118 119.449 253.23 120.572C248.348 121.578 243.526 122.79 238.792 124.357C238.289 124.534 237.756 124.623 237.253 124.771C237.875 121.578 237.46 118.532 236.099 115.575C234.058 111.14 231.839 106.734 230.863 101.885C229.413 94.641 230.774 87.9291 234.886 81.8085C237.668 77.6394 241.839 75.954 246.632 75.4218C250.863 74.9782 255.183 75.1261 259.355 73.9434C264.769 72.4058 268.763 69.3603 270.42 63.7719C270.716 62.7371 271.13 61.7318 271.455 60.6969C273.882 53.2753 279.355 49.461 286.693 47.953C290.036 47.273 293.438 47.273 296.841 47.5095C299.829 47.7165 302.847 47.6574 305.805 47.066C306.752 46.8886 307.551 46.5338 308.35 45.972C312.107 43.3109 316.397 42.3055 320.924 42.3351C330.126 42.4238 338.262 45.4102 345.215 51.5308C348.854 54.7241 351.073 58.5975 351.487 63.4763C350.57 65.6939 349.682 67.9115 348.765 70.1291C347.7 71.5484 346.162 72.051 344.386 71.8736Z" fill="#FEBD00"/>
<path d="M506.224 350.937C506.224 356.555 506.402 362.173 506.194 367.791C505.691 381.244 506.076 394.668 505.958 408.122C505.958 409.334 505.396 409.689 504.419 409.748C501.401 409.955 498.354 410.103 495.307 410.369C491.194 410.724 487.111 411.138 483.028 411.492C480.188 411.729 477.347 411.906 474.537 412.143C470.306 412.498 466.045 412.912 461.815 413.267C458.294 413.562 454.773 413.769 451.252 414.065C450.601 414.124 450.601 413.74 450.631 413.355C450.749 410.162 450.335 406.969 450.867 403.775C450.956 403.302 450.897 402.799 450.927 402.297C450.927 393.663 450.72 385.029 450.986 376.425C451.341 365.396 451.045 354.367 451.282 343.338C451.341 341.239 451.518 339.11 451.518 337.01C451.518 336.212 451.873 335.887 452.672 335.828C456.726 335.562 460.779 335.296 464.832 334.941C469.951 334.497 475.069 333.935 480.188 333.492C484.3 333.137 488.413 332.901 492.496 332.575C496.46 332.25 500.395 331.836 504.33 331.422C506.017 331.245 506.224 331.363 506.224 333.019C506.224 339.021 506.224 344.964 506.224 350.937Z" fill="#FED1E0"/>
<path d="M291.957 521.013C292.874 521.013 293.762 520.983 294.679 520.983C295.182 521.693 294.857 522.432 294.709 523.112C293.466 528.73 292.312 534.377 290.774 539.966C289.413 544.933 288.851 550.019 288.289 555.104C287.519 562.142 287.016 569.208 286.572 576.305C286.365 579.35 286.395 582.396 286.277 585.441C285.803 600.61 285.774 615.778 285.981 630.947C286.069 638.22 286.277 645.524 286.543 652.797C286.602 654.719 286.868 656.612 286.809 658.534C286.78 659.421 287.016 659.775 288.022 659.391C291.632 658.001 296.425 659.48 298.703 662.614C299.117 663.176 299.709 663.383 300.33 663.56C302.727 664.299 305.035 665.334 307.283 666.458C308.97 667.315 310.538 668.291 311.751 669.769C312.283 670.449 312.964 670.716 313.822 670.716C319.147 670.716 324.473 670.686 329.799 670.716C330.923 670.716 331.515 670.242 331.781 669.178C332.195 667.493 332.846 665.896 333.556 664.329C334.207 662.939 334.177 662.939 332.728 662.555C328.822 661.52 325.242 659.864 322.165 657.173C317.875 653.418 315.774 648.628 315.567 642.981C315.212 633.874 316.869 625.033 318.911 616.222C322.609 600.403 327.875 585.057 333.023 569.711C337.964 555.045 342.994 540.409 347.166 525.507C347.669 523.762 348.142 521.988 348.616 520.244C348.793 519.623 348.911 518.972 349.414 518.529C350.332 518.411 351.278 517.819 352.166 518.677C349.533 529.41 346.189 539.966 342.757 550.462C337.047 567.967 330.775 585.293 325.627 602.975C322.964 612.082 320.627 621.278 319.325 630.71C318.733 635.116 318.26 639.551 318.733 643.986C319.562 651.467 324.029 656.109 330.864 658.74C332.017 659.184 333.201 659.48 334.384 659.805C335.657 660.16 336.84 660.308 338.112 659.45C339.444 658.563 341.071 658.8 342.55 659.214C344.266 659.657 345.864 660.426 347.343 661.402C347.787 661.697 348.231 661.845 347.935 662.643C347.669 663.383 348.556 663.264 348.911 663.383C352.166 664.418 355.302 665.63 358.231 667.374C359.267 667.995 360.184 668.705 360.983 669.592C361.486 670.154 362.107 670.834 361.959 671.514C361.575 673.258 362.699 673.702 363.882 674.352C365.628 675.328 366.012 677.605 365.007 679.29C364.592 680 363.971 679.734 363.438 679.734C355.095 679.645 346.781 679.527 338.438 679.409C331.248 679.32 324.029 679.202 316.84 679.142C316.189 679.142 315.508 678.935 315.035 679.734C314.739 680.266 314.029 679.97 313.496 679.97C293.673 679.734 273.85 679.468 254.027 679.231C247.074 679.142 240.122 679.024 233.169 678.965C232.192 678.965 231.926 678.699 231.985 677.723C232.104 675.919 232.104 674.086 232.104 672.253C232.104 671.455 232.281 671.011 233.169 671.189C234.234 671.396 234.234 670.775 234.145 669.976C232.695 657.292 232.34 644.518 230.891 631.863C229.766 621.987 228.524 612.112 227.488 602.236C225.476 582.81 223.849 563.384 224.736 543.839C225.151 534.348 226.334 524.916 227.488 515.483C227.577 514.744 227.636 514.005 227.695 513.266C228.849 511.492 230.003 509.718 231.127 507.973C231.719 508.801 231.334 509.718 231.246 510.545C230.18 518.706 229.204 526.867 228.464 535.057C228.109 539.167 227.725 543.307 227.784 547.446C227.813 550.019 227.34 552.562 227.488 555.104C227.873 561.639 227.873 568.174 228.287 574.708C228.79 582.573 229.411 590.409 230.18 598.244C230.891 605.488 231.778 612.733 232.607 619.977C233.583 628.581 234.707 637.185 235.24 645.849C235.713 653.596 236.334 661.372 237.163 669.089C237.311 670.449 237.843 670.863 239.116 670.804C240.299 670.745 241.483 670.804 242.666 670.775C254.796 670.568 266.927 671.218 279.028 671.07C281.247 671.041 281.276 671.07 281.898 668.971C282.371 667.463 282.904 665.985 283.643 664.565C284.206 663.501 283.939 663.117 282.815 662.85C279.117 661.993 275.714 660.426 272.785 658.001C268.258 654.305 265.891 649.486 265.655 643.631C265.181 631.094 267.46 618.912 270.093 606.76C274.324 587.097 279.886 567.76 284.856 548.274C287.016 539.788 289.147 531.273 290.981 522.698C291.277 522.077 291.306 521.397 291.957 521.013Z" fill="black"/>
<path d="M176.127 235.503C176.068 222.02 187.281 210.844 200.921 210.844C214.531 210.844 225.655 221.813 225.714 235.326C225.773 248.986 214.679 260.104 200.95 260.134C187.311 260.134 176.186 249.105 176.127 235.503Z" fill="#00B1B1"/>
<path d="M527.172 171.104C526.047 171.725 524.952 172.375 523.828 172.967C521.254 174.327 518.443 173.854 516.579 171.725C514.804 169.685 514.686 166.787 516.372 164.51C516.905 163.801 516.816 163.594 516.165 163.091C513.739 161.258 513.147 158.272 514.656 155.581C514.982 155.019 515.159 154.753 514.39 154.28C510.366 151.855 510.337 146.77 514.361 144.256C518.532 141.654 522.793 139.2 526.994 136.657C528.177 135.977 529.361 135.268 530.574 134.617C533 133.346 535.663 133.76 537.497 135.652C539.302 137.515 539.657 140.176 538.266 142.571C537.911 143.192 537.882 143.428 538.592 143.872C541.787 145.764 542.527 149.372 540.338 152.358C539.894 152.979 539.835 153.156 540.485 153.688C544.006 156.379 543.71 161.051 539.894 163.416C536.077 165.752 532.201 167.999 528.355 170.276C527.97 170.513 527.586 170.808 527.172 171.104Z" fill="black"/>
<path d="M291.958 521.012C286.455 546.973 278.763 572.372 272.638 598.185C270.094 608.948 267.816 619.77 266.662 630.799C266.159 635.648 265.715 640.556 266.425 645.405C267.638 653.773 272.816 658.829 280.538 661.638C282.017 662.171 283.556 662.525 285.094 662.998C283.733 665.423 282.757 667.995 282.106 670.657C281.928 671.366 281.573 671.425 280.982 671.425C266.691 671.307 252.401 671.218 238.111 671.13C237.282 671.13 237.075 670.864 236.986 670.065C236.01 660.13 235.418 650.136 234.56 640.172C233.85 632.041 232.844 623.909 231.898 615.808C230.655 605.104 229.471 594.371 228.643 583.638C227.815 572.964 227.252 562.319 227.341 551.615C227.46 541.06 228.466 530.593 229.797 520.125C230.3 516.045 230.803 511.965 231.306 507.855C234.531 501.941 237.756 496.057 240.655 489.966C241.839 487.453 243.052 484.91 244.413 482.012C244.856 483.934 245.212 485.531 245.567 487.098C247.697 496.234 249.857 505.371 253.259 514.123C253.821 515.542 254.502 516.903 255.241 518.233C256.188 520.007 257.52 520.835 259.62 520.835C268.881 520.953 278.141 521.249 287.402 520.983C288.911 521.013 290.449 521.042 291.958 521.012Z" fill="#FEFEFE"/>
<path d="M349.444 518.529C346.84 529.173 343.497 539.611 340.094 550.019C334.266 567.878 327.846 585.56 322.638 603.655C320.094 612.437 317.875 621.307 316.662 630.385C315.981 635.648 315.33 641 316.366 646.263C317.904 654.039 323.023 658.741 330.272 661.343C331.751 661.875 333.289 662.23 334.858 662.703C333.526 665.157 332.491 667.729 331.84 670.479C331.721 671.011 331.426 671.159 330.893 671.159C324.828 671.1 318.762 671.07 312.697 671.011C312.401 671.011 312.076 671.011 311.898 670.745C309.768 667.611 306.366 666.458 303.141 665.039C302.105 664.595 301.011 664.299 299.945 663.885C299.176 663.59 297.815 663.767 298.229 662.2C298.259 662.111 297.993 661.904 297.845 661.816C295.36 660.249 292.785 658.948 289.708 659.273C288.939 659.362 288.259 659.568 287.667 660.042C286.543 660.929 286.424 660.308 286.395 659.302C286.217 652.916 285.951 646.499 285.773 640.113C285.359 623.229 285.359 606.316 285.744 589.433C286.04 576.423 286.839 563.472 288.288 550.521C289.028 543.928 291.099 537.659 292.401 531.214C293.111 527.784 293.88 524.383 294.62 520.983C300.774 520.776 306.928 520.569 313.082 520.332C323.703 519.919 334.355 519.386 344.976 518.647C346.485 518.588 347.964 518.588 349.444 518.529Z" fill="#FEFEFE"/>
<path d="M283.11 477.518C282.873 480.977 281.69 484.023 280.27 487.009C277.962 491.858 275.151 496.412 271.364 500.285C270.388 501.261 269.323 502.148 268.05 502.71C266.956 503.183 265.979 503.065 265.062 502.207C263.021 500.285 262.695 498.009 263.553 495.466C264.825 491.622 267.399 488.636 270.151 485.797C271.66 484.23 273.258 482.781 274.915 481.391C276.778 479.854 278.613 478.346 280.092 476.365C280.595 475.685 281.216 474.65 282.163 475.034C283.11 475.389 282.962 476.631 283.11 477.518Z" fill="#FED1E0"/>
<path d="M357.7 322.226C357.581 324.267 356.842 326.484 355.924 328.672C353.617 334.202 350.599 339.317 346.516 343.752C345.451 344.905 344.267 345.97 342.817 346.679C341.545 347.3 340.451 347.093 339.474 346.117C337.61 344.284 337.344 342.096 338.084 339.701C338.912 336.951 340.539 334.675 342.344 332.487C344.8 329.5 347.581 326.839 350.628 324.503C352.256 323.261 353.528 321.724 354.859 320.186C355.362 319.624 355.836 318.708 356.753 319.063C357.611 319.418 357.581 320.423 357.7 321.251C357.7 321.458 357.7 321.665 357.7 322.226Z" fill="#FED1E0"/>
<path d="M249.65 398.098C249.502 400.552 248.881 402.711 248.023 404.84C245.597 410.783 242.402 416.223 237.934 420.866C237.224 421.605 236.425 422.285 235.537 422.817C233.466 424.088 232.165 423.852 230.715 421.9C229.324 420.008 229.383 417.968 230.123 415.869C231.218 412.734 233.23 410.191 235.389 407.737C237.431 405.461 239.65 403.332 242.046 401.469C243.703 400.197 245.153 398.778 246.455 397.152C247.017 396.442 247.55 395.319 248.615 395.703C249.739 396.058 249.443 397.329 249.65 398.098Z" fill="#FED1E0"/>
<path d="M319.828 294.935C319.591 298.099 318.526 300.937 317.254 303.687C314.917 308.714 312.076 313.386 308.2 317.407C307.786 317.821 307.372 318.264 306.899 318.59C305.567 319.595 304.236 320.837 302.401 319.92C300.597 319.033 299.532 316.52 299.857 314.361C300.153 312.38 300.981 310.606 302.076 308.95C304.828 304.663 308.437 301.204 312.343 298.04C313.911 296.768 315.39 295.408 316.633 293.812C317.195 293.102 317.787 291.978 318.763 292.304C319.887 292.658 319.71 293.989 319.828 294.935Z" fill="#FED1E0"/>
<path d="M355.362 391.83C355.214 394.786 354.149 397.477 352.966 400.138C350.628 405.224 347.758 409.955 343.853 414.006C343.261 414.597 342.64 415.159 341.959 415.662C339.001 417.85 335.983 416.519 335.51 412.793C335.273 410.872 335.776 409.097 336.663 407.382C339.237 402.415 343.202 398.66 347.403 395.112C349.208 393.574 351.013 392.096 352.463 390.174C352.936 389.553 353.498 388.577 354.415 388.902C355.362 389.228 355.332 390.322 355.362 391.209C355.362 391.416 355.362 391.623 355.362 391.83Z" fill="#FED1E0"/>
<path d="M255.299 354.663C255.299 351.114 255.506 347.566 256.512 344.136C256.808 343.131 257.015 341.741 258.257 341.653C259.53 341.564 259.855 342.983 260.24 343.929C261.542 347.241 262.548 350.641 263.228 354.101C263.879 357.412 263.228 360.754 262.163 363.977C262.045 364.331 261.837 364.686 261.63 365.041C260.979 366.105 260.092 366.933 258.79 366.874C257.518 366.815 257.015 365.721 256.601 364.716C255.388 361.434 255.299 358.063 255.299 354.663Z" fill="#FED1E0"/>
<path d="M312.46 366.667C312.371 363.06 312.608 359.482 313.644 356.023C313.939 355.077 314.147 353.746 315.36 353.716C316.484 353.657 316.868 354.899 317.194 355.786C319.265 361.729 321.632 367.613 319.827 374.118C319.472 375.36 319.176 376.602 318.348 377.607C316.75 379.588 314.945 379.382 313.851 377.105C312.845 374.976 312.608 372.67 312.43 370.363C312.371 369.121 312.46 367.88 312.46 366.667Z" fill="#FED1E0"/>
<path d="M226.956 464.478C226.867 460.871 227.104 457.293 228.169 453.834C228.465 452.888 228.672 451.557 229.914 451.528C231.039 451.498 231.423 452.71 231.719 453.627C233.79 459.57 236.128 465.454 234.352 471.959C233.997 473.26 233.672 474.532 232.784 475.566C231.216 477.37 229.5 477.163 228.465 475.064C227.4 472.905 227.163 470.54 226.985 468.174C226.867 466.962 226.956 465.72 226.956 464.478Z" fill="#FED1E0"/>
<path d="M288.406 430.475C288.406 426.927 288.613 423.379 289.649 419.979C289.945 419.003 290.152 417.702 291.335 417.613C292.548 417.524 292.963 418.825 293.258 419.772C294.649 424.355 296.898 428.76 296.424 433.728C296.276 435.236 296.069 436.744 295.803 438.251C295.685 438.932 295.448 439.582 295.152 440.203C294.501 441.593 293.613 442.894 291.897 442.805C290.329 442.716 289.886 441.208 289.471 439.966C288.495 436.891 288.377 433.698 288.406 430.475Z" fill="#FED1E0"/>
<path d="M342.254 486.832C342.254 483.343 342.432 479.854 343.467 476.483C343.763 475.478 343.941 474.088 345.183 473.999C346.485 473.881 346.87 475.271 347.166 476.246C348.497 480.741 350.716 485.028 350.302 489.907C350.124 491.858 349.976 493.839 349.355 495.702C349.148 496.294 348.882 496.915 348.556 497.417C347.905 498.393 347.077 499.191 345.805 499.103C344.503 499.014 344 497.979 343.615 496.974C342.313 493.721 342.225 490.291 342.254 486.832Z" fill="#FED1E0"/>
<path d="M418.944 243.132C414.299 247.892 409.595 252.594 404.18 256.526C397.316 261.494 389.949 265.16 381.458 266.491C372.7 267.88 365.244 265.397 358.676 259.66C356.073 257.384 353.706 254.9 351.427 252.298C350.777 251.529 350.777 251.115 351.546 250.406C359.238 243.132 367.315 236.272 376.103 230.329C378.825 228.466 381.458 226.485 383.884 224.238C384.387 223.794 384.772 223.706 385.274 224.12C387.908 226.101 390.423 225.362 392.937 223.883C397.494 221.222 401.606 217.91 405.719 214.658C410.068 211.198 414.388 207.68 418.737 204.191C419.062 204.516 418.974 204.93 418.974 205.314C418.974 217.644 418.974 229.974 418.974 242.304C419.003 242.541 418.974 242.836 418.944 243.132Z" fill="#FEFEFE"/>
<path d="M432.168 157.651C432.198 149.46 439.032 142.837 447.464 142.837C455.926 142.837 462.79 149.549 462.761 157.769C462.731 165.9 455.867 172.583 447.464 172.553C439.003 172.583 432.138 165.9 432.168 157.651Z" fill="black"/>
<path d="M437.938 224.09C437.554 224.149 437.169 224.238 436.755 224.238C435.926 224.267 435.275 224.031 435.157 223.085C435.039 222.168 435.571 221.695 436.429 221.606C438.826 221.34 441.222 221.074 443.619 220.838C455.424 219.655 467.229 218.502 479.034 217.349C489.064 216.343 499.123 215.367 509.153 214.362C510.159 214.273 511.047 214.451 511.135 215.574C511.224 216.639 510.425 216.935 509.478 217.023C502.762 217.674 496.046 218.354 489.36 219.034C480.839 219.891 472.318 220.719 463.797 221.577C455.187 222.434 446.548 223.262 437.938 224.12C437.938 224.12 437.938 224.12 437.938 224.09Z" fill="black"/>
<path d="M435.482 208.094C434.831 208.094 434.151 207.828 434.062 206.911C433.944 205.935 434.535 205.492 435.482 205.403C441.251 204.841 447.05 204.25 452.82 203.659C461.4 202.801 469.98 201.973 478.531 201.116C486.963 200.288 495.395 199.46 503.797 198.632C505.218 198.484 506.638 198.395 508.058 198.218C509.034 198.1 509.922 198.218 510.04 199.401C510.159 200.524 509.271 200.79 508.413 200.879C504.064 201.323 499.685 201.737 495.336 202.18C486.726 203.038 478.087 203.895 469.477 204.723C461.015 205.551 452.524 206.379 444.062 207.207C441.251 207.502 438.441 207.798 435.482 208.094Z" fill="black"/>
<path d="M511.016 246.828C511.253 246.798 511.519 246.769 511.756 246.769C512.614 246.71 513.235 247.005 513.324 247.922C513.413 248.868 512.792 249.282 511.993 249.4C510.839 249.578 509.655 249.666 508.472 249.785C494.596 251.145 480.72 252.534 466.844 253.895C457.731 254.782 448.589 255.698 439.476 256.585C438.5 256.674 437.435 256.704 437.316 255.432C437.198 254.161 438.204 254.013 439.21 253.924C452.198 252.653 465.187 251.381 478.205 250.08C489.152 248.986 500.069 247.892 511.016 246.798V246.828Z" fill="black"/>
<path d="M506.786 182.103C507.526 182.074 508.295 181.896 508.769 182.665C509.331 183.611 508.68 184.587 507.289 184.735C503.265 185.149 499.242 185.533 495.218 185.918C486.549 186.775 477.851 187.633 469.182 188.49C460.69 189.318 452.229 190.146 443.737 190.974C440.808 191.27 437.849 191.565 434.92 191.861C433.974 191.95 432.997 191.861 432.908 190.708C432.82 189.584 433.707 189.288 434.684 189.2C450.365 187.662 466.075 186.095 481.756 184.528C490.129 183.7 498.443 182.902 506.786 182.103Z" fill="black"/>
<path d="M438.322 240.382C437.316 240.5 436.28 240.471 436.221 239.17C436.162 237.928 437.198 237.78 438.174 237.691C449.89 236.538 461.606 235.385 473.323 234.202C485.424 233.02 497.554 231.807 509.655 230.625C509.951 230.595 510.247 230.595 510.543 230.565C511.46 230.477 512.14 230.772 512.2 231.778C512.259 232.783 511.549 233.138 510.691 233.227C509.063 233.404 507.466 233.552 505.838 233.729C497.347 234.557 488.885 235.385 480.394 236.213C470.897 237.159 461.37 238.105 451.872 239.051C447.346 239.495 442.849 239.939 438.322 240.382Z" fill="black"/>
<path d="M471.371 151.915C470.453 151.974 469.625 151.855 469.507 150.761C469.388 149.667 470.128 149.342 471.075 149.253C480.394 148.485 489.744 147.716 499.064 146.918C501.076 146.74 503.087 146.563 505.099 146.385C506.046 146.297 506.993 146.356 507.111 147.568C507.23 148.78 506.371 148.987 505.395 149.076C496.075 149.845 486.726 150.614 477.406 151.412C475.394 151.53 473.382 151.737 471.371 151.915Z" fill="#010000"/>
<path d="M472.051 164.954C471.844 164.954 471.666 164.984 471.459 164.984C470.512 165.072 469.595 164.984 469.536 163.742C469.477 162.618 470.335 162.382 471.223 162.322C479.773 161.613 488.294 160.903 496.844 160.223C499.655 159.987 502.436 159.78 505.247 159.543C506.135 159.484 507.022 159.484 507.17 160.637C507.318 161.849 506.43 162.145 505.484 162.204C498.028 162.825 490.572 163.446 483.116 164.037C479.418 164.363 475.749 164.688 472.051 164.954C472.051 164.984 472.051 164.984 472.051 164.954Z" fill="#010000"/>
<path d="M346.189 136.539C351.633 140.353 355.775 145.35 359.178 151.027C362.906 157.237 364.415 164.096 365.125 171.193C365.539 175.214 366.042 179.206 366.545 183.197C366.634 184.025 366.545 184.676 365.983 185.356C363.912 187.81 362.344 190.56 361.131 193.694C360.716 192.304 360.095 191.506 358.645 192.216C358.379 189.17 357.491 186.273 356.84 183.316C353.704 169.3 350.539 155.285 347.106 141.329C346.692 139.732 345.864 138.254 346.189 136.539Z" fill="#FEFEFE"/>
<path d="M340.894 91.9799C341.368 95.5872 341.9 99.1649 342.314 102.772C342.61 105.256 342.758 107.769 342.906 110.253C343.35 116.699 343.202 123.115 342.019 129.472C340.628 129.65 339.592 128.733 338.409 128.349C337.906 128.171 337.433 127.964 336.93 127.757C336.308 127.787 335.776 127.432 335.214 127.314C333.646 126.545 332.048 125.835 330.539 124.978C329.178 121.607 327.965 118.207 327.107 114.659C326.87 113.683 326.989 113.21 327.935 112.707C332.61 110.312 334.977 106.232 336.072 101.294C336.663 98.6327 337.107 95.942 337.61 93.2513C337.758 92.3642 337.995 91.6842 339.149 91.9207C339.681 92.0094 340.303 91.9503 340.894 91.9799Z" fill="#FEBD00"/>
<path d="M335.272 126.989C335.982 126.929 336.485 127.225 336.929 127.757C336.692 130.211 335.065 131.926 333.556 133.641C329.147 138.638 323.319 140.826 316.899 141.566C306.662 142.778 296.809 140.797 287.105 137.751C276.039 134.292 265.536 129.591 255.95 122.967C254.944 122.287 253.85 121.666 253.258 120.513C253.909 118.591 254.5 118.532 256.66 120.158C257.489 120.247 258.11 120.72 258.761 121.164C271.927 129.768 286.306 135.386 301.809 138.077C308.999 139.318 316.218 139.496 323.26 136.953C327.638 135.356 331.011 132.547 333.437 128.585C333.911 127.846 334.266 127.048 335.272 126.989Z" fill="black"/>
<path d="M357.67 196.533C358.646 195.734 359.593 194.936 360.569 194.138C358.558 199.992 357.788 206.231 354.12 211.376C353.765 209.72 354.593 208.271 354.978 206.763C355.836 203.333 356.782 199.933 357.67 196.533Z" fill="#FDFDFD"/>
<path d="M387.965 200.909C388.232 202.417 388.498 203.659 388.616 204.93C388.705 205.728 388.025 206.231 387.462 206.704C387.048 207.029 386.545 207.296 386.101 207.591C385.451 208.064 385.273 208.715 385.687 209.395C386.101 210.134 386.812 210.134 387.492 209.838C387.877 209.661 388.261 209.395 388.705 209.129C388.853 210.518 388.498 211.76 388.113 212.943C387.877 213.682 387.255 214.244 386.368 214.303C385.539 214.362 384.888 214.658 384.829 215.575C384.77 216.58 385.421 216.964 386.427 217.053C385.332 219.064 383.853 220.66 382.226 222.139C379.03 225.066 375.48 227.55 371.9 230.004C361.16 237.396 351.84 246.385 342.491 255.373C331.307 266.136 320.301 277.017 308.318 286.834C298.673 294.758 288.584 302.002 277.045 306.999C268.347 310.784 259.352 312.942 249.766 312.203C238.997 311.405 230.151 306.792 223.168 298.631C216.215 290.5 212.221 280.861 209.499 270.66C205.12 254.338 203.966 237.692 204.588 220.867C204.884 212.293 205.387 203.747 206.245 195.202C207.872 179.147 210.594 163.328 216.6 148.278C218.464 143.576 220.446 138.905 223.464 134.765C227.991 128.497 234.233 127.166 240.92 131.069C245.831 133.908 249.352 138.136 252.163 142.955C256.571 150.466 258.997 158.538 258.524 167.29C258.199 173.144 257.222 178.94 256.364 184.735C254.175 199.844 251.719 214.924 252.074 230.27C252.222 237.041 252.991 243.723 255.654 250.051C257.193 253.688 259.441 256.792 262.696 259.158C264.56 260.518 266.453 260.873 268.643 260.341C275.122 258.714 281.217 256.112 287.253 253.363C307.845 243.96 327.757 233.345 346.87 221.163C354.325 216.403 359.237 210.164 361.308 201.559C362.255 197.656 363.557 193.812 365.657 190.323C367.018 188.076 368.527 185.977 370.628 184.351C373.586 182.074 376.545 182.074 379.356 184.499C383.084 187.721 385.066 192.068 386.604 196.621C386.93 197.568 386.545 198.455 385.776 199.135C385.125 199.726 384.445 200.288 383.764 200.879C383.113 201.471 382.758 202.18 383.439 202.919C384.09 203.659 384.829 203.481 385.51 202.89C386.279 202.299 386.989 201.707 387.965 200.909Z" fill="#FEFEFE"/>
<path d="M383.735 46.5634C394.001 40.6498 406.487 41.6846 415.481 51.2943C421.044 57.267 424.269 64.4816 425.659 72.3763C428.943 90.945 425.038 108.006 414.061 123.381C411.28 127.284 407.878 130.655 403.913 133.405C395.244 139.437 386.072 141.388 376.102 136.805C375.569 136.332 375.776 135.711 375.806 135.149C376.22 130.744 376.634 126.338 376.457 121.903C376.102 113.801 375.421 105.729 374.297 97.6866C374.06 96.0603 373.468 94.4341 374.001 92.7487C379.652 91.8912 383.409 88.757 384.889 83.1982C386.546 76.9889 383.676 70.5726 377.758 67.8524C377.877 67.3793 378.291 67.3202 378.676 67.2019C378.942 67.1132 379.238 66.9949 379.534 66.9358C385.717 65.3391 387.197 61.6135 386.753 54.9311C386.575 52.4179 385.658 50.0524 384.208 47.9235C383.912 47.5096 383.676 47.0956 383.735 46.5634Z" fill="#90DFFC"/>
<path d="M271.603 122.139C276.632 121.518 281.662 120.927 286.544 119.419C287.875 119.005 289.147 118.532 290.39 117.911C291.958 117.113 293.171 115.989 294.029 114.392C296.988 108.834 300.006 103.275 302.55 97.45C302.728 99.431 302.639 101.412 303.231 103.334C305.183 109.602 309.621 112.973 315.775 114.363C318.29 114.925 320.864 114.836 323.379 114.333C324.03 114.215 324.326 114.185 324.474 114.925C325.302 119.153 326.959 123.085 328.438 127.077C328.793 128.408 327.758 129.029 326.989 129.738C324.444 132.045 321.338 133.109 318.054 133.671C314.474 134.262 310.864 134.262 307.314 133.7C299.799 132.547 292.372 130.98 285.212 128.437C280.982 126.929 276.928 124.978 272.786 123.292C272.194 123.085 271.573 122.908 271.603 122.139Z" fill="#FEFEFE"/>
<path d="M328.675 83.4052C329.089 85.2384 329.473 86.8647 329.858 88.4614C330.006 89.0823 329.888 89.4371 329.118 89.1414C328.438 88.8753 327.728 88.6388 327.047 88.4614C326.248 88.2544 325.509 88.4614 325.242 89.2893C324.976 90.0876 325.272 90.7381 326.101 91.0634C327.106 91.4477 328.112 91.8617 329.177 91.9504C331.781 92.2165 332.669 91.4182 332.698 88.6388C333.468 89.2597 334.148 89.8806 334.888 90.3833C335.361 90.679 335.243 91.0634 335.184 91.4182C334.503 95.2029 333.971 98.9876 332.817 102.654C330.686 109.514 324.059 113.121 316.367 111.702C309.532 110.46 305.094 104.901 305.419 97.9231C305.538 95.4099 305.863 92.9261 306.041 90.4129C306.1 89.6441 306.307 89.171 307.224 89.1119C307.786 89.0823 308.408 88.8753 308.733 88.3135C309.029 87.8109 309.029 87.2786 308.644 86.8056C308.171 86.2142 307.55 86.1846 306.899 86.4507C305.982 86.8056 305.242 86.569 304.68 85.8298C304.059 85.0315 303.911 84.0853 304.295 83.1982C304.709 82.2521 305.508 81.779 306.573 82.1634C307.431 82.459 308.26 82.6069 308.704 81.6016C309.118 80.685 308.496 80.271 307.816 79.7388C306.78 78.9404 307.579 77.8169 307.727 76.9002C307.846 76.2793 308.644 76.6933 309.118 76.6933C309.976 76.6933 309.798 77.3142 309.739 77.8464C309.562 79.8866 309.769 81.8973 310.715 83.7305C312.461 87.1899 315.242 89.3188 319.177 89.4962C323.053 89.6737 325.953 87.8404 327.994 84.5879C328.201 84.2627 328.349 83.967 328.675 83.4052Z" fill="#FEFEFE"/>
<path d="M271.603 122.139C273.26 123.44 275.301 123.884 277.165 124.712C282.077 126.841 286.958 128.999 292.195 130.182C297.669 131.453 303.113 133.05 308.705 133.523C314.356 133.996 320.036 133.937 325.096 130.684C326.486 129.797 327.906 128.851 328.439 127.107C329.415 126.663 329.711 125.54 330.54 124.978C332.344 125.155 333.705 126.338 335.303 126.988C334.741 127.195 334.475 127.639 334.208 128.142C330.806 134.41 325.244 137.456 318.468 138.638C310.598 140.028 302.847 139.023 295.184 137.13C281.899 133.878 269.414 128.703 257.993 121.104C257.549 120.809 257.135 120.454 256.691 120.129C258.822 119.419 260.952 119.981 263.082 120.099C265.301 120.454 267.491 120.957 269.621 121.725C270.242 121.991 270.923 122.11 271.603 122.139Z" fill="#FED1E0"/>
<path d="M374.002 92.7487C374.86 97.8344 375.452 102.979 375.955 108.095C376.576 114.215 376.961 120.365 376.813 126.515C376.754 129.945 376.458 133.405 376.073 136.805C375.984 137.81 375.57 137.87 374.742 137.367C369.742 134.321 366.073 130.034 363.262 124.948C362.079 122.79 361.102 120.543 360.274 118.236C360.096 117.734 359.978 117.379 360.481 116.965C365.126 113.328 366.872 108.183 367.966 102.684C368.588 99.5198 369.179 96.3264 369.742 93.1331C369.86 92.4826 369.919 92.1869 370.718 92.3939C371.842 92.66 372.937 92.6304 374.002 92.7487Z" fill="#FEBD00"/>
<path d="M383.736 46.5635C387.138 51.1761 388.174 56.2027 386.458 61.7615C385.836 63.8016 384.653 65.1913 382.789 66.108C381.191 66.9063 379.505 67.3794 377.789 67.8525C374.564 66.6402 371.368 66.6402 368.203 68.089C367.019 68.0003 365.747 68.1777 364.859 67.0837C369.061 58.7751 374.771 51.8562 382.818 46.9774C383.085 46.8296 383.41 46.7113 383.736 46.5635Z" fill="#FEBD00"/>
<path d="M312.402 79.0589C312.402 74.8011 315.686 71.2529 319.621 71.2529C323.557 71.2825 326.87 74.8898 326.841 79.0885C326.811 83.2576 323.527 86.7762 319.651 86.8057C315.716 86.8649 312.402 83.3463 312.402 79.0589Z" fill="#FEFEFE"/>
<path d="M362.994 86.8647C364.296 88.6684 365.479 89.9398 367.018 90.8564C367.343 91.0634 367.432 91.3295 367.343 91.7435C366.367 97.1544 365.627 102.595 363.852 107.828C362.905 110.608 361.278 112.825 359.325 114.393C357.609 110.992 356.603 98.8398 357.521 92.3053C362.817 93.281 363.941 92.2757 362.994 86.8647Z" fill="#FEFEFE"/>
<path d="M309.797 62.6189C312.934 59.9874 316.987 60.2535 320.419 63.3877C324.147 66.788 328.082 69.8335 332.993 71.3711C333.822 71.6372 334.68 71.9033 335.508 72.1398C334.206 73.1156 332.934 74.0618 332.017 75.4514C331.78 75.8063 331.662 76.5455 330.981 76.1906C330.242 75.8063 329.177 76.3976 328.703 75.0966C327.431 71.7554 325.005 69.5674 321.455 68.8578C317.549 68.0594 313.792 69.7152 311.513 73.1156C310.922 74.0026 309.294 74.387 308.377 73.8843C307.904 73.6182 308.2 73.2634 308.259 72.9973C308.732 69.5083 309.265 66.0488 309.797 62.6189Z" fill="#FEFEFE"/>
<path d="M373.202 89.7327C373.439 89.1414 373.587 88.6683 373.764 88.2248C374.622 85.8889 374.267 83.76 372.492 81.9859C371.871 81.365 371.663 80.7736 371.782 79.9161C372.137 76.8411 372.462 73.766 372.729 70.6613C372.788 69.7743 373.143 69.656 373.912 69.6856C377.817 69.863 381.309 72.9972 382.403 77.3437C383.735 82.6955 380.628 88.2839 375.51 89.6736C374.74 89.8806 374.03 90.058 373.202 89.7327Z" fill="#FEFEFE"/>
<path d="M340.511 89.1413C341.546 86.7463 341.576 84.6765 339.682 82.9024C339.298 82.5476 339.298 82.1336 339.357 81.6901C339.593 79.4134 339.86 77.1071 340.037 74.8303C340.126 73.8842 340.659 73.7068 341.398 73.8842C343.469 74.4164 345.126 75.54 346.221 77.4323C346.517 77.9646 346.458 78.4376 346.339 78.9994C345.895 81.1579 345.274 83.3164 345.156 85.5044C345.037 87.6629 343.676 88.3134 342.079 88.9047C341.665 89.0821 341.162 89.0821 340.511 89.1413Z" fill="#FEFEFE"/>
<path d="M370.038 70.3657C369.475 76.3385 368.765 82.1338 367.907 87.9292C365.57 86.983 363.617 83.08 363.736 79.591C363.884 75.3332 366.369 71.6076 370.038 70.3657Z" fill="#FDFDFD"/>
<path d="M335.804 87.4856C334.147 85.948 333.585 84.8836 333.141 82.5181C333.91 83.1686 334.591 83.2278 335.123 82.4886C335.508 81.9563 335.508 81.365 335.094 80.8623C334.473 80.1231 333.822 80.4188 333.082 81.1284C333.378 78.0238 334.68 75.954 337.402 74.446C336.839 78.8813 336.336 83.0799 335.804 87.4856Z" fill="#FCFCFC"/>
<path d="M364.83 67.1133C365.895 67.6159 367.138 67.4977 368.173 68.1186C364.209 70.2179 361.901 73.4704 361.221 77.8761C361.161 78.2013 361.339 78.7631 360.658 78.6448C359.83 78.497 360.333 77.9352 360.422 77.6395C361.605 74.0026 362.966 70.4545 364.83 67.1133Z" fill="#F9F8F8"/>
<path d="M359.296 82.814C359.77 84.9724 360.214 87.1605 360.687 89.3189C360.835 90.0286 360.48 90.1173 359.858 90.0286C357.965 89.7329 357.728 89.4668 358.054 87.6336C358.35 86.0073 358.675 84.4106 359.001 82.814C359.089 82.8435 359.208 82.814 359.296 82.814Z" fill="#F7F7F7"/>
<path d="M344.385 71.8737C345.982 71.578 347.432 70.898 348.823 70.0701C348.408 71.4302 348.024 72.8199 347.58 74.3279C346.515 73.3521 345.479 72.5833 344.385 71.8737Z" fill="#F9F9F8"/>
<path d="M371.131 84.7949C371.9 85.9481 371.545 87.0125 370.805 88.284C370.48 86.9238 371.012 85.8889 371.131 84.7949Z" fill="#CCCCCC"/>
<path d="M304.651 78.6153C304.029 77.9648 304.059 77.2847 303.852 76.7229C303.704 76.3385 303.822 76.0429 304.355 76.1316C304.68 76.1907 305.065 76.1611 304.917 76.7229C304.769 77.2847 304.739 77.8761 304.651 78.6153Z" fill="#DDA500"/>
<path d="M330.449 79.2656C330.301 79.5613 330.39 80.0639 329.858 80.1231C329.443 80.1526 329.443 79.7683 329.503 79.5022C329.562 79.1769 329.236 78.6151 329.946 78.6742C330.272 78.6742 330.509 78.8812 330.449 79.2656Z" fill="#F6F6F6"/>
<path d="M474.3 350.907C474.3 355.431 470.454 359.157 465.839 359.127C461.223 359.098 457.377 355.313 457.406 350.819C457.436 346.384 461.282 342.688 465.839 342.658C470.484 342.658 474.3 346.383 474.3 350.907Z" fill="black"/>
<path d="M459.686 401.794C458.975 401.853 458.65 401.883 458.295 401.883C457.555 401.853 457.082 401.469 456.993 400.73C456.934 399.99 457.259 399.458 457.999 399.34C459.271 399.133 460.544 399.015 461.816 398.897C472.792 397.802 483.769 396.738 494.775 395.674C495.278 395.614 495.752 395.614 496.255 395.585C497.142 395.526 497.882 395.792 497.911 396.797C497.971 397.803 497.261 398.157 496.373 398.246C494.272 398.453 492.142 398.66 490.041 398.867C481.402 399.724 472.792 400.552 464.153 401.41C462.555 401.528 460.958 401.676 459.686 401.794Z" fill="black"/>
<path d="M458.708 393.752C457.762 393.84 456.963 393.545 456.874 392.51C456.785 391.445 457.584 391.15 458.531 391.061C465.188 390.41 471.874 389.73 478.531 389.08C484.123 388.518 489.715 387.986 495.307 387.424C495.958 387.365 496.579 387.217 497.141 387.661C497.585 387.986 497.733 388.459 497.615 388.962C497.437 389.701 496.904 389.967 496.194 390.026C492.614 390.381 489.035 390.765 485.455 391.12C476.667 391.978 467.91 392.865 459.123 393.722C459.004 393.722 458.856 393.752 458.708 393.752Z" fill="#010101"/>
<path d="M458.974 385.266C457.998 385.384 457.081 385.295 457.021 384.083C456.933 382.9 457.879 382.693 458.826 382.605C470.631 381.392 482.436 380.209 494.241 378.997C494.774 378.938 495.306 378.849 495.839 378.79C496.756 378.672 497.466 379.027 497.585 379.943C497.703 380.89 497.082 381.333 496.164 381.451C492.999 381.806 489.803 382.191 486.638 382.516C477.821 383.432 469.004 384.319 460.187 385.206C459.743 385.236 459.359 385.236 458.974 385.266Z" fill="#010000"/>
<path d="M459.565 368.974C458.736 369.062 457.938 368.796 457.849 367.761C457.76 366.726 458.529 366.401 459.476 366.283C469.476 365.307 479.447 364.331 489.447 363.326C491.607 363.119 493.767 362.912 495.897 362.676C496.844 362.587 497.672 362.735 497.791 363.77C497.939 364.923 497.051 365.248 496.075 365.337C492.021 365.751 487.938 366.135 483.885 366.549C476.015 367.318 468.115 368.116 460.245 368.885C460.068 368.914 459.89 368.944 459.565 368.974Z" fill="#010000"/>
<path d="M458.825 377.075C457.908 377.105 457.168 376.898 457.079 375.863C457.02 374.739 457.848 374.473 458.706 374.385C462.286 374.059 465.866 373.734 469.446 373.409C477.79 372.64 486.104 371.901 494.447 371.132C494.743 371.103 495.039 371.073 495.335 371.043C496.281 370.925 497.08 371.221 497.169 372.256C497.258 373.32 496.489 373.616 495.542 373.705C485.837 374.562 476.133 375.449 466.429 376.336C463.854 376.602 461.31 376.839 458.825 377.075Z" fill="black"/>
<path d="M478.057 355.284C477.229 355.313 476.548 354.988 476.489 354.101C476.4 353.155 476.992 352.682 477.909 352.622C483.708 352.149 489.478 351.676 495.247 351.174C496.164 351.085 496.845 351.44 496.934 352.386C496.993 353.273 496.371 353.746 495.543 353.805C489.714 354.337 483.886 354.811 478.057 355.284Z" fill="#010101"/>
<path d="M478.531 348.572C478.472 348.572 478.324 348.572 478.176 348.572C477.2 348.66 476.431 348.335 476.431 347.271C476.401 346.324 477.111 345.97 478.028 345.881C481.46 345.615 484.892 345.319 488.324 345.023C490.543 344.846 492.733 344.669 494.952 344.462C495.928 344.373 496.816 344.55 496.904 345.704C496.993 346.768 496.224 347.064 495.248 347.152C489.715 347.625 484.182 348.099 478.531 348.572Z" fill="#010101"/>
<path d="M284.088 564.359C283.407 574.413 283.23 584.495 283.023 594.608C282.667 611.994 282.756 629.409 283.318 646.795C283.437 650.787 283.585 654.779 283.733 658.77C283.762 659.362 283.881 659.983 282.875 659.657C276.188 657.558 271.07 653.744 269.354 646.588C268.377 642.478 268.762 638.25 269.117 634.081C270.596 616.34 275.123 599.22 279.443 582.041C280.951 576.127 282.52 570.243 284.088 564.359Z" fill="#90DFFC"/>
<path d="M307.847 672.933C303.853 672.401 299.533 672.283 295.184 672.194C294.355 672.164 294.296 671.958 294.622 671.248C295.332 669.681 295.982 668.114 296.633 666.517C296.84 665.955 297.077 665.719 297.699 665.926C301.219 667.168 304.74 668.38 307.906 670.42C308.291 670.657 308.646 670.923 308.941 671.248C309.296 671.573 309.681 671.928 309.533 672.49C309.474 672.874 309.06 672.992 307.847 672.933Z" fill="#FDFDFD"/>
<path d="M357.965 672.667C353.646 672.135 349.326 671.987 344.977 671.928C344.119 671.898 344.119 671.632 344.385 670.982C345.095 669.415 345.746 667.818 346.397 666.251C346.604 665.719 346.811 665.423 347.462 665.66C350.953 666.872 354.415 668.084 357.551 670.065C357.965 670.331 358.35 670.627 358.705 670.952C359.06 671.278 359.533 671.662 359.326 672.194C359.119 672.786 358.527 672.756 357.965 672.667Z" fill="#FDFDFD"/>
<path d="M540.249 158.39C540.219 159.572 539.657 160.46 538.651 161.051C533.326 164.215 528.03 167.408 522.704 170.513C521.047 171.488 519.213 171.045 518.325 169.537C517.438 168.029 517.881 166.225 519.538 165.25C524.805 162.086 530.071 158.922 535.367 155.847C537.734 154.487 540.279 155.876 540.249 158.39Z" fill="#FEFEFE"/>
<path d="M536.431 139.348C536.431 140.945 535.81 141.802 534.834 142.393C529.508 145.557 524.212 148.751 518.887 151.885C517.23 152.861 515.395 152.387 514.508 150.88C513.62 149.372 514.094 147.597 515.78 146.592C521.046 143.428 526.313 140.294 531.609 137.189C533.946 135.8 536.491 137.219 536.431 139.348Z" fill="#FEFEFE"/>
<path d="M516.549 158.508C516.549 157.325 517.081 156.438 518.087 155.847C523.442 152.654 528.798 149.46 534.182 146.296C535.839 145.321 537.644 145.853 538.502 147.42C539.33 148.898 538.857 150.643 537.23 151.589C531.845 154.812 526.431 158.005 521.016 161.14C518.945 162.322 516.549 160.844 516.549 158.508Z" fill="#FEFEFE"/>
<path d="M460.069 157.739C460.069 164.451 454.389 169.921 447.436 169.921C440.483 169.921 434.832 164.451 434.832 157.71C434.832 150.968 440.483 145.528 447.436 145.528C454.418 145.528 460.069 150.998 460.069 157.739Z" fill="#FEBD00"/>
<path d="M378.055 199.578C374.801 199.578 372.523 197.863 371.783 195.291C371.546 194.492 371.753 193.931 372.464 193.576C373.233 193.162 373.884 193.517 374.18 194.197C374.801 195.557 375.511 196.769 377.168 196.887C379.121 197.006 380.689 196.119 382.05 194.847C382.375 194.552 382.612 194.167 382.908 193.842C383.499 193.221 384.18 193.044 384.86 193.635C385.541 194.226 385.393 194.966 384.89 195.616C383.056 198.041 380.6 199.401 378.055 199.578Z" fill="#010101"/>
<path d="M322.994 79.384C323.704 79.5023 324.029 79.9163 324 80.6259C323.97 81.3651 323.585 81.8677 322.816 81.8382C322.106 81.8086 321.81 81.2764 321.84 80.6259C321.869 79.8571 322.225 79.4136 322.994 79.384Z" fill="#050505"/>
<path d="M365.598 81.6903C364.652 81.572 364.237 80.9215 364.297 80.064C364.356 79.2361 364.8 78.5561 365.776 78.5856C366.752 78.6152 367.137 79.3249 367.078 80.1823C367.048 81.0398 366.575 81.6312 365.598 81.6903Z" fill="#070707"/>
<path d="M471.607 350.878C471.607 353.894 469.092 356.407 465.926 356.437C462.761 356.496 460.068 353.894 460.098 350.848C460.127 347.862 462.79 345.349 465.897 345.349C469.003 345.378 471.607 347.862 471.607 350.878Z" fill="#FED1E0"/>
<path d="M352 309.085C352.556 308.741 353.112 308.53 353.801 308.477C361.744 307.815 369.714 307.127 377.658 306.439C386.502 305.672 395.319 304.931 404.163 304.163C408.638 303.767 413.139 303.396 417.614 303.026C419.203 302.893 419.52 303.237 419.547 304.904C419.759 335.389 419.971 365.846 420.156 396.331C420.156 398.051 419.944 398.342 418.249 398.474C407.843 399.4 397.437 400.3 387.005 401.2C376.546 402.126 366.087 403.078 355.654 403.978C354.436 404.084 353.112 404.613 352.026 403.555C352 372.065 352 340.575 352 309.085Z" fill="black"/>
<path d="M354.382 356.241C354.382 341.554 354.408 326.868 354.355 312.208C354.355 311.07 354.647 310.752 355.785 310.673C364.788 309.959 373.791 309.165 382.793 308.397C391.584 307.656 400.375 306.915 409.166 306.175C411.443 305.989 413.747 305.857 416.024 305.566C417.004 305.434 417.163 305.672 417.163 306.598C417.216 320.358 417.322 334.118 417.427 347.852C417.533 363.465 417.613 379.077 417.745 394.663C417.745 395.748 417.56 396.092 416.368 396.198C400.958 397.521 385.547 398.924 370.137 400.3C365.212 400.75 360.287 401.147 355.388 401.623C354.303 401.729 354.408 401.2 354.408 400.512C354.382 385.772 354.382 371.006 354.382 356.241Z" fill="#FEFEFE"/>
<path d="M370.35 336.685C365.001 336.685 360.738 332.504 360.738 327.318C360.738 322.131 365.028 318.003 370.403 318.003C375.725 318.003 380.068 322.211 380.041 327.344C380.015 332.531 375.672 336.712 370.35 336.685Z" fill="black"/>
<path d="M363.73 348.249C363.333 348.302 362.936 348.408 362.539 348.382C361.877 348.355 361.32 348.117 361.241 347.35C361.162 346.609 361.532 346.159 362.247 346.053C363.386 345.894 364.524 345.762 365.663 345.656C376.837 344.571 388.037 343.486 399.211 342.375C401.489 342.163 403.766 341.898 406.043 341.66C406.784 341.581 407.499 341.607 407.843 342.401C408.188 343.195 407.605 343.91 406.493 344.015C402.23 344.465 397.993 344.889 393.73 345.312C385.125 346.159 376.546 347.006 367.94 347.852C366.537 348.011 365.133 348.143 363.73 348.249C363.73 348.276 363.73 348.276 363.73 348.249Z" fill="black"/>
<path d="M364.287 358.04C364.155 358.04 364.022 358.04 363.89 358.067C362.963 358.199 361.957 358.225 361.878 357.008C361.798 355.897 362.778 355.764 363.625 355.685C376.573 354.415 389.495 353.171 402.443 351.901C403.899 351.769 405.329 351.61 406.785 351.425C407.686 351.319 408.48 351.53 408.533 352.536C408.586 353.542 407.791 353.753 406.918 353.833C400.219 354.494 393.493 355.182 386.794 355.844C379.274 356.611 371.781 357.326 364.287 358.04Z" fill="black"/>
<path d="M364.604 367.857C364.392 367.884 364.154 367.91 363.942 367.91C363.201 367.937 362.618 367.699 362.539 366.852C362.459 366.005 363.015 365.635 363.73 365.555C364.869 365.396 366.008 365.317 367.146 365.211C376.705 364.259 386.264 363.332 395.822 362.38C399.635 362.009 403.448 361.612 407.261 361.242C408.108 361.163 409.062 361.083 409.168 362.274C409.247 363.438 408.373 363.544 407.473 363.624C393.519 365 379.591 366.402 365.637 367.778C365.319 367.831 364.948 367.831 364.604 367.857Z" fill="black"/>
<path d="M365.187 377.622C365.002 377.648 364.843 377.648 364.658 377.675C363.89 377.754 363.307 377.49 363.175 376.696C363.043 375.823 363.625 375.399 364.42 375.293C366.379 375.082 368.365 374.896 370.351 374.711C378.983 373.864 387.641 373.018 396.273 372.144C400.139 371.774 404.005 371.377 407.844 371.007C408.03 370.98 408.189 371.007 408.374 370.98C409.221 370.901 409.804 371.245 409.857 372.092C409.883 372.938 409.274 373.282 408.48 373.362C405.885 373.626 403.317 373.891 400.722 374.129C391.11 375.082 381.498 376.034 371.913 376.96C369.689 377.225 367.438 377.437 365.187 377.622C365.187 377.648 365.187 377.648 365.187 377.622Z" fill="black"/>
<path d="M365.796 387.413C365.664 387.413 365.531 387.439 365.399 387.439C364.604 387.492 363.969 387.307 363.89 386.381C363.81 385.481 364.446 385.137 365.213 385.058C368.894 384.687 372.575 384.343 376.255 383.973C384.861 383.126 393.44 382.279 402.045 381.432C404.322 381.221 406.599 380.983 408.877 380.771C409.697 380.692 410.439 380.824 410.518 381.829C410.598 382.808 409.883 383.073 409.062 383.152C399.9 384.052 390.739 384.925 381.577 385.852C376.308 386.381 371.039 386.91 365.796 387.413C365.796 387.439 365.796 387.413 365.796 387.413Z" fill="black"/>
<path d="M404.508 320.199C405.355 320.226 406.652 319.776 406.758 321.178C406.864 322.634 405.567 322.502 404.561 322.581C398.682 323.084 392.804 323.56 386.926 324.063C386.184 324.116 385.443 324.169 384.675 324.222C383.907 324.274 383.325 323.983 383.245 323.19C383.166 322.316 383.775 321.919 384.543 321.84C385.364 321.734 386.211 321.708 387.032 321.628C392.857 321.152 398.656 320.676 404.508 320.199Z" fill="#010101"/>
<path d="M385.284 332.107C385.099 332.107 384.94 332.134 384.754 332.134C383.986 332.187 383.404 331.896 383.325 331.128C383.219 330.281 383.828 329.832 384.595 329.752C386.475 329.567 388.355 329.435 390.262 329.276C395.134 328.879 400.006 328.482 404.878 328.085C405.063 328.059 405.222 328.059 405.408 328.059C406.149 328.032 406.758 328.244 406.838 329.064C406.943 329.964 406.334 330.334 405.567 330.414C403.74 330.599 401.886 330.705 400.032 330.864C395.107 331.313 390.182 331.737 385.284 332.107C385.284 332.134 385.284 332.134 385.284 332.107Z" fill="#010101"/>
<path d="M370.376 334.304C366.405 334.304 363.148 331.234 363.121 327.45C363.095 323.587 366.325 320.438 370.35 320.438C374.348 320.438 377.658 323.613 377.632 327.424C377.579 331.181 374.322 334.277 370.376 334.304Z" fill="#FEFEFE"/>
<g clip-path="url(#clip1)">
<path d="M115.828 105.439C121.026 104.185 126.224 102.932 131.417 101.717C136.498 100.446 141.557 99.1914 146.639 97.9204C148.394 97.4859 150.127 97.0681 152.11 96.5683C149.296 94.261 146.697 92.1051 144.059 89.9434C142.162 88.4088 140.221 86.9073 138.352 85.3173C137.611 84.6902 137.211 84.7101 136.55 85.4067C134.998 87.0043 133.33 88.4456 131.745 89.9986C130.535 91.1701 129.537 90.0078 128.454 89.8068C126.905 89.3974 125.334 89.0045 123.774 88.5338C123.091 88.3129 122.707 88.3551 122.357 89.0981C120.045 94.2996 117.734 99.5011 115.405 104.68C115.202 105.107 114.887 105.617 115.828 105.439Z" fill="#020A13"/>
<path d="M141.208 76.2216C140.317 76.4665 139.425 76.7114 138.556 76.9398C138.063 76.6478 137.577 76.834 137.082 76.9589C133.004 77.9023 128.969 78.9515 124.93 79.9006C124.457 80.009 124.066 80.2291 123.708 80.4939C119.557 81.5258 115.4 82.5965 111.227 83.645C110.959 83.7045 110.709 83.7865 110.045 83.966C116.423 85.8495 122.439 87.6197 128.456 89.3899C130.456 90.5026 131.716 89.2591 133.037 88.0048C137.456 83.7331 141.924 79.5284 146.494 75.1797C144.613 75.2576 142.961 76.0651 141.208 76.2216Z" fill="#020A13"/>
<path d="M111.484 92.9258C111.933 94.7021 112.382 96.4783 112.831 98.2546C113.366 100.382 113.902 102.509 114.454 104.658C114.548 104.692 114.648 104.687 114.742 104.721C115.189 103.734 115.629 102.786 116.076 101.799C117.98 97.59 119.846 93.3755 121.789 89.1726C122.179 88.2964 122.042 88.0176 121.126 87.762C117.612 86.8016 114.104 85.8024 110.624 84.7477C109.692 84.4698 109.595 84.7139 109.79 85.5379C110.356 87.9876 110.901 90.4538 111.484 92.9258Z" fill="#020A13"/>
<path d="M147.357 75.1289C144.3 78.0131 141.399 80.7815 138.499 83.5499C138.107 83.9089 137.788 84.1795 138.446 84.6949C142.953 88.3076 147.416 91.9534 151.878 95.5993C151.934 95.6274 152.056 95.6059 152.334 95.6075C150.669 88.8202 149.038 82.0776 147.357 75.1289Z" fill="#020A13"/>
</g>
<path d="M470.067 449.067C475.602 443.532 478.797 436.081 478.991 428.256C479.185 420.431 476.363 412.831 471.109 407.029C465.856 401.227 458.573 397.666 450.767 397.084C442.961 396.503 435.231 398.944 429.175 403.904C423.119 408.863 419.202 415.961 418.234 423.728C417.266 431.495 419.321 439.337 423.975 445.632C428.628 451.926 435.523 456.19 443.232 457.542C450.942 458.894 458.876 457.23 465.393 452.894L458.047 441.852C454.364 444.302 449.88 445.242 445.523 444.478C441.166 443.714 437.269 441.304 434.639 437.747C432.009 434.19 430.848 429.758 431.395 425.368C431.942 420.979 434.156 416.967 437.578 414.164C441.001 411.361 445.37 409.982 449.781 410.31C454.193 410.639 458.309 412.651 461.278 415.931C464.247 419.21 465.842 423.505 465.732 427.927C465.622 432.35 463.817 436.561 460.689 439.689L470.067 449.067Z" fill="#FDFFB6"/>
<path d="M478.213 434.385C476.668 441.052 472.925 447.007 467.587 451.29C462.248 455.573 455.624 457.936 448.78 457.999C441.936 458.062 435.27 455.821 429.854 451.636C424.437 447.452 420.586 441.567 418.919 434.929C417.251 428.291 417.866 421.285 420.662 415.038C423.459 408.791 428.275 403.666 434.336 400.488C440.398 397.31 447.353 396.263 454.081 397.515C460.81 398.767 466.922 402.247 471.434 407.393L461.848 415.797C459.222 412.802 455.665 410.777 451.748 410.048C447.832 409.319 443.784 409.929 440.256 411.778C436.728 413.628 433.925 416.611 432.298 420.247C430.67 423.883 430.313 427.96 431.283 431.824C432.253 435.688 434.495 439.113 437.647 441.548C440.8 443.983 444.68 445.288 448.663 445.251C452.646 445.214 456.502 443.839 459.609 441.346C462.716 438.853 464.894 435.388 465.794 431.507L478.213 434.385Z" fill="#16DB93"/>
</g>
<path d="M0 139C17.752 143.613 35.2968 148.166 52.8417 152.72C52.8417 152.838 52.9008 152.956 52.8713 153.015C47.6048 160.052 41.4804 166.114 33.4033 169.81C21.8349 175.103 10.9175 171.229 5.0593 159.845C1.71602 153.37 0.414213 146.422 0 139Z" fill="#FE0E11"/>
<path d="M112.709 141.719C112.817 143.088 112.806 144.466 112.443 145.808C112.648 146.696 112.599 147.648 113.017 148.492C113.165 148.79 113.069 149.072 112.959 149.349C112.366 150.904 112.518 152.437 113.008 154C113.247 154.759 113.035 155.631 113.349 156.39C113.914 157.73 114.181 159.094 114.155 160.542C114.143 160.968 114.27 161.449 114.477 161.817C115.108 162.914 115.291 164.06 115.241 165.309C115.208 166.117 115.621 166.877 115.851 167.641C116.067 168.325 116.173 169.015 116.031 169.703C115.64 171.616 116.467 173.135 117.752 174.353C118.365 174.94 118.636 175.486 118.583 176.23C118.519 177.3 118.822 178.263 119.359 179.172C120.376 179.274 120.921 178.472 121.628 177.973C121.444 176.853 120.952 175.884 120.266 175C119.916 174.543 119.798 174.156 120.089 173.517C120.625 172.324 120.358 171.059 119.882 169.873C119.734 169.501 119.572 169.099 119.306 168.81C118.565 167.99 118.395 166.998 118.246 165.972C118.145 165.243 117.954 164.533 117.625 163.868C117.29 163.193 117.174 162.484 117.232 161.725C117.307 160.575 117.168 159.445 116.691 158.382C116.46 157.866 116.358 157.335 116.514 156.776C116.565 156.602 116.571 156.414 116.566 156.231C116.524 154.619 116.357 153.008 116.389 151.396C116.407 150.658 116.073 149.958 115.798 149.278C115.552 148.682 115.431 148.112 115.518 147.463C115.641 146.586 115.501 145.703 115.401 144.825C115.501 143.477 115.179 142.128 115.314 140.775C115.37 139.461 115.251 138.147 115.595 136.839C115.827 135.982 115.9 135.105 115.73 134.212C115.41 132.466 115.453 130.701 115.644 128.937C115.686 128.57 115.757 128.213 115.867 127.862C116.114 127.084 116.257 126.296 116.285 125.478C116.319 124.447 116.507 123.427 117.018 122.506C117.388 121.828 117.163 120.999 117.538 120.381C117.893 119.797 118.471 119.362 118.796 118.718C119.337 117.659 119.506 116.524 119.437 115.384C119.395 114.724 119.546 114.254 119.94 113.774C120.299 113.349 120.525 112.829 120.592 112.264C120.731 111.119 121.321 110.209 121.99 109.308C122.903 108.101 123.55 106.755 123.691 105.089C122.86 105.464 122.302 105.963 121.749 106.571C120.886 107.53 120.424 108.674 119.893 109.803C119.597 110.432 119.267 111.065 118.709 111.515C118.321 111.831 118.115 112.292 118.038 112.762C117.88 113.843 117.32 114.689 116.563 115.411C115.516 116.399 115.173 117.633 115.241 119.021C115.278 119.745 115.28 120.449 114.949 121.157C114.643 121.815 114.833 122.599 114.612 123.327C113.947 125.437 113.437 127.582 113.392 129.818C113.386 130.155 113.31 130.477 113.179 130.789C112.938 131.378 112.822 131.993 112.824 132.622C112.827 132.955 112.781 133.287 112.626 133.598C111.975 134.861 112.034 136.155 112.336 137.489C112.37 137.633 112.419 137.782 112.403 137.926C112.249 139.189 112.452 140.449 112.709 141.719Z" fill="#020A13"/>
<path d="M181.35 198.462C181.371 199.205 181.602 199.87 182.026 200.526C182.489 201.236 182.733 202.129 182.516 202.966C182.233 204.046 182.199 205.152 181.981 206.237C181.798 207.119 181.819 207.986 181.85 208.874C181.917 210.609 182.023 212.349 180.969 213.898C180.844 214.071 180.789 214.309 180.758 214.522C180.635 215.399 180.279 216.132 179.646 216.755C179.437 216.958 179.257 217.22 179.156 217.492C178.749 218.696 177.713 219.555 177.325 220.774C177.235 221.041 177.02 221.284 176.811 221.486C175.291 222.87 174.058 224.557 172.315 225.717C171.106 226.527 169.709 226.959 168.362 227.392C167.423 227.697 166.321 227.55 165.279 227.522C163.79 227.493 162.286 227.509 160.83 227.995C159.935 228.29 159.002 228.357 158.11 228.057C157.44 227.832 156.761 227.686 156.072 227.521C155.288 227.34 154.61 227.021 154.072 226.41C153.247 225.471 152.217 224.917 151.052 224.468C149.828 223.998 148.62 223.385 147.551 222.629C146.354 221.788 145.216 220.842 144.014 219.991C143.687 219.757 143.391 219.459 143.234 219.067C143.033 218.561 142.657 218.228 142.231 217.919C140.965 217.013 140.012 215.791 138.975 214.648C138.175 213.758 137.489 212.775 136.355 212.162C135.419 211.649 134.708 210.814 134.53 209.653C134.448 209.113 134.197 208.631 133.916 208.139C133.197 206.863 132.135 205.77 131.704 204.326C131.66 204.187 131.586 204.038 131.478 203.944C130.419 203.058 130.018 201.649 128.965 200.749C128.55 200.386 128.235 199.849 128.113 199.229C127.987 198.6 127.607 198.058 127.107 197.675C126.489 197.202 126.08 196.601 125.785 195.931C125.338 194.928 125.064 193.852 124.393 192.948C124.186 192.68 124.203 192.313 124.189 191.985C124.171 191.698 124.212 191.406 123.994 191.167C123.567 191.255 123.377 191.597 123.128 191.844C122.549 192.427 121.917 192.951 121.102 193.132C120.272 193.308 119.61 193.772 118.948 194.236C117.693 195.13 116.591 196.233 115.144 196.838C114.766 197.001 114.442 197.347 114.207 197.748C113.857 198.342 113.497 198.965 112.899 199.385C111.934 200.062 111.002 200.783 110.002 201.414C109.519 201.716 109.101 202.047 108.83 202.551C108.43 203.319 107.896 203.967 107.105 204.371C106.856 204.494 106.697 204.672 106.606 204.94C106.144 206.282 105.052 207.255 104.496 208.558C104.27 209.078 103.801 209.532 103.264 209.799C102.797 210.03 102.527 210.386 102.351 210.857C102.08 211.61 101.586 212.213 100.914 212.633C100.571 212.84 100.351 213.097 100.235 213.464C100.029 214.147 99.5994 214.706 99.2394 215.305C98.6344 216.31 98.1779 217.414 97.3452 218.284C97.2704 218.358 97.2599 218.487 97.2247 218.591C96.7151 220.464 95.6211 222.057 94.7154 223.73C93.9446 225.175 93.3524 226.656 92.8245 228.191C92.5078 229.103 92.6669 230.149 92.162 230.98C91.567 231.955 91.2744 233.04 90.848 234.055C90.2662 235.432 89.5804 236.749 89.3206 238.25C89.2443 238.671 89.1283 239.087 89.0718 239.524C88.9174 240.787 89.011 242.076 88.4893 243.324C88.1282 244.171 87.8559 245.122 88.1791 246.124C88.3749 246.745 88.1835 247.384 87.8931 247.948C87.2875 249.101 87.2178 250.261 87.6244 251.482C87.8008 252.013 87.8727 252.583 87.7066 253.123C87.364 254.257 87.4336 255.373 87.6519 256.514C87.7781 257.169 87.6511 257.837 87.5539 258.492C87.5131 258.734 87.4274 259.037 87.1097 259.046C86.782 259.059 86.7289 258.727 86.6455 258.509C86.41 257.884 86.3137 257.214 86.3315 256.55C86.3554 255.623 86.27 254.725 85.9414 253.837C85.6765 253.127 85.6151 252.403 85.8566 251.665C86.2941 250.373 86.3297 249.069 86.0327 247.744C85.872 247.045 85.88 246.361 86.3047 245.718C86.5945 245.277 86.6413 244.796 86.6735 244.261C86.7223 243.309 86.6125 242.337 86.8945 241.406C87.3125 240.049 88.1418 238.822 88.1483 237.335C88.1539 237.196 88.2241 237.037 88.304 236.924C88.7736 236.246 88.8315 235.487 88.7754 234.699C88.7142 233.95 88.8515 233.202 89.3207 232.599C89.6203 232.203 89.6865 231.811 89.6339 231.355C89.5626 230.636 89.6948 229.928 90.1143 229.349C90.7584 228.473 91.1351 227.483 91.5315 226.507C92.585 223.957 93.6039 221.387 94.8804 218.936C95.0106 218.674 95.1904 218.412 95.4096 218.229C95.8081 217.908 95.9935 217.507 96.1594 217.041C96.7021 215.536 97.6161 214.23 98.5598 212.958C98.9043 212.503 99.2386 212.102 99.3354 211.547C99.4678 210.789 99.8131 210.136 100.391 209.652C100.785 209.321 101 208.93 101.106 208.444C101.304 207.542 101.769 206.805 102.496 206.247C102.79 206.015 103.064 205.768 103.259 205.461C103.628 204.882 104.102 204.437 104.728 204.151C105.186 203.949 105.495 203.623 105.676 203.137C105.952 202.395 106.441 201.781 107.192 201.446C107.615 201.249 107.989 200.953 108.154 200.562C108.651 199.413 109.721 198.722 110.351 197.668C110.721 197.039 111.284 196.525 112.025 196.269C113.044 195.925 114.009 195.472 114.668 194.552C114.793 194.378 115.002 194.25 115.186 194.146C116.29 193.55 117.222 192.68 118.356 192.143C118.849 191.911 119.258 191.535 119.642 191.11C120.22 190.477 120.922 189.993 121.855 190.001C122.138 189.997 122.431 189.888 122.7 189.78C123.481 189.455 123.476 189.445 123.192 188.572C123.665 188.078 124.266 188.089 124.881 188.155C125.781 187.722 126.755 187.486 127.68 187.127C128.545 186.797 129.351 186.324 130.246 186.103C130.857 185.961 131.34 185.685 131.778 185.27C132.655 184.439 133.685 184.04 134.9 184.118C135.565 184.16 136.191 184.122 136.832 183.816C137.384 183.555 138.006 183.408 138.641 183.316C139.982 183.121 141.358 182.996 142.64 182.608C143.987 182.2 145.412 182.175 146.719 181.638C147.162 181.456 147.668 181.452 148.149 181.573C148.868 181.748 149.539 181.576 150.21 181.33C151.393 180.893 152.57 180.792 153.754 181.355C154.388 181.659 155.042 181.904 155.751 181.985C157.622 182.184 159.467 182.308 161.364 182.135C163.206 181.977 165.051 182.497 166.7 183.275C167.765 183.774 168.785 184.332 169.915 184.663C170.931 184.963 171.773 185.486 172.399 186.4C173.218 187.602 174.241 188.591 175.518 189.319C176.345 189.787 176.888 190.507 177.376 191.317C178.031 192.389 178.692 193.447 179.218 194.584C179.409 194.996 179.751 195.284 180.047 195.607C180.763 196.427 181.315 197.316 181.35 198.462ZM175.756 192.824C175.237 192.327 174.822 191.79 174.468 191.175C173.744 189.889 172.705 189.043 171.197 188.801C170.121 188.629 169.155 188.18 168.339 187.434C167.687 186.843 166.929 186.513 166.046 186.481C166.006 186.476 165.966 186.471 165.941 186.471C165.187 186.399 161.212 185.055 160.514 184.721C158.577 183.788 156.55 183.297 154.427 183.99C152.966 184.466 151.56 184.606 150.099 184.057C149.568 183.862 149.002 183.895 148.466 184.062C147.705 184.303 146.941 184.236 146.167 184.274C144.528 184.344 142.871 184.25 141.241 184.761C139.879 185.188 138.571 185.849 137.096 185.899C136.754 185.908 136.5 186.145 136.235 186.363C135.09 187.252 133.812 187.774 132.324 187.621C131.828 187.57 131.41 187.703 130.972 187.969C130.285 188.384 129.48 188.585 128.754 188.944C128.117 189.26 127.545 189.655 126.958 190.02C126.485 190.316 126.598 190.52 126.83 190.887C127.673 192.213 128.605 193.52 129.115 194.999C129.595 196.418 130.165 197.768 130.824 199.123C131.429 200.369 132.188 201.551 132.693 202.846C132.782 203.075 132.955 203.298 133.132 203.482C133.75 204.128 134.278 204.819 134.686 205.618C135.036 206.323 135.584 206.88 136.243 207.308C137.594 208.184 138.542 209.298 138.937 210.92C139.141 211.758 139.963 212.316 140.546 212.967C141.524 214.065 142.556 215.099 143.564 216.158C143.767 216.367 143.924 216.684 144.172 216.784C145.639 217.368 146.561 218.605 147.704 219.585C148.262 220.063 149.026 220.253 149.515 220.84C150.483 221.993 151.74 222.755 153.012 223.497C153.27 223.641 153.488 223.781 153.83 223.722C155.032 223.522 156.178 223.734 157.263 224.272C157.461 224.372 157.668 224.516 157.872 224.527C159.172 224.575 160.222 225.143 161.331 225.806C162.073 226.254 163.195 226.316 164.124 226.066C165.118 225.796 166.097 225.472 167.022 225.063C168.992 224.087 170.991 223.146 172.932 222.11C173.598 221.755 174.172 221.186 174.587 220.523C174.852 220.108 175.176 219.762 175.544 219.455C176.466 218.689 177.16 217.764 177.656 216.665C177.827 216.284 177.933 215.897 177.959 215.501C177.986 215.055 178.112 214.634 178.292 214.223C178.398 213.985 178.553 213.748 178.568 213.505C178.675 211.745 179.452 210.161 179.901 208.492C180.269 207.134 180.126 205.746 179.611 204.48C179.036 203.095 178.719 201.756 179.277 200.305C179.458 199.844 179.251 199.502 178.989 199.199C178.312 198.408 178.034 197.471 177.929 196.459C177.896 196.117 177.827 195.804 177.67 195.512C177.128 194.543 176.557 193.59 175.756 192.824Z" fill="#020A13"/>
<rect x="33.1855" y="294.589" width="173" height="181" rx="20" transform="rotate(-7.54918 33.1855 294.589)" fill="#020A13"/>
<rect x="39.0723" y="285.738" width="173" height="181" rx="20" transform="rotate(-7.54918 39.0723 285.738)" fill="#FFFAE2"/>
<path d="M152.579 270.696C136.426 273.643 83.6378 279.496 59.2626 282.054C55.2823 282.474 54.3051 282.711 46.3027 290.833C38.3004 298.954 41.8237 314.123 45.5748 334.809C49.3259 355.496 58.8917 416.266 59.3037 438.404C59.7157 460.541 75.2425 463.527 81.6862 462.673L126.792 456.696C150.088 453.608 194.268 448.258 211.551 445.463C228.833 442.668 232.279 430.611 231.557 425.159C230.834 419.706 222.002 349.256 217.302 317.599C212.602 285.942 212.047 277.946 205.412 269.746C198.778 261.547 172.77 267.011 152.579 270.696Z" stroke="black" stroke-width="3"/>
<rect x="73.793" y="334.6" width="8" height="104" rx="4" transform="rotate(-7.54918 73.793 334.6)" fill="#020A13"/>
<rect x="70.9023" y="312.791" width="8" height="104" rx="4" transform="rotate(-7.54918 70.9023 312.791)" fill="#020A13" fill-opacity="0.5"/>
<rect x="94.8984" y="387.284" width="8" height="49" rx="4" transform="rotate(-7.54918 94.8984 387.284)" fill="#020A13"/>
<rect x="92.2695" y="367.458" width="8" height="49" rx="4" transform="rotate(-7.54918 92.2695 367.458)" fill="#020A13" fill-opacity="0.5"/>
<rect x="104.703" y="354.714" width="8" height="80" rx="4" transform="rotate(-7.54918 104.703 354.714)" fill="#020A13"/>
<rect x="103.391" y="344.8" width="8" height="80" rx="4" transform="rotate(-7.54918 103.391 344.8)" fill="#020A13" fill-opacity="0.5"/>
<rect x="122.654" y="383.606" width="8" height="49" rx="4" transform="rotate(-7.54918 122.654 383.606)" fill="#020A13"/>
<rect x="121.342" y="373.693" width="8" height="49" rx="4" transform="rotate(-7.54918 121.342 373.693)" fill="#020A13" fill-opacity="0.5"/>
<rect x="139.424" y="403.576" width="8" height="27" rx="4" transform="rotate(-7.54918 139.424 403.576)" fill="#020A13"/>
<rect x="138.111" y="393.662" width="8" height="27" rx="4" transform="rotate(-7.54918 138.111 393.662)" fill="#020A13" fill-opacity="0.5"/>
<path d="M61.0312 303.003C66.5272 344.474 77.8607 429.993 79.227 440.303" stroke="#020A13" stroke-width="0.5" stroke-dasharray="2 2"/>
<path d="M73.25 437.06L209.063 419.061" stroke="#020A13" stroke-width="0.5" stroke-dasharray="2 2"/>
<path d="M126.883 294.052C127.008 294.998 126.798 295.831 126.252 296.551C125.7 297.277 124.964 297.702 124.042 297.824C123.114 297.947 122.292 297.729 121.577 297.17C120.862 296.617 120.442 295.868 120.316 294.922C120.191 293.977 120.401 293.144 120.948 292.424C121.493 291.698 122.23 291.273 123.157 291.15C124.085 291.027 124.908 291.248 125.624 291.813C126.339 292.366 126.758 293.112 126.883 294.052ZM121.155 294.811C121.253 295.549 121.566 296.128 122.093 296.548C122.627 296.967 123.242 297.131 123.938 297.039C124.634 296.947 125.182 296.629 125.582 296.086C125.989 295.548 126.143 294.907 126.044 294.163C125.946 293.42 125.63 292.841 125.097 292.428C124.569 292.007 123.957 291.843 123.262 291.936C122.566 292.028 122.015 292.346 121.609 292.89C121.209 293.433 121.057 294.074 121.155 294.811ZM130.193 296.246C130.586 296.194 130.896 296.002 131.124 295.669C131.353 295.342 131.437 294.947 131.376 294.483C131.315 294.025 131.131 293.665 130.824 293.403C130.517 293.141 130.167 293.036 129.775 293.088C129.376 293.141 129.063 293.334 128.834 293.666C128.612 293.998 128.531 294.393 128.592 294.851C128.653 295.315 128.835 295.679 129.136 295.941C129.442 296.197 129.795 296.299 130.193 296.246ZM130.426 296.978C130.105 297.021 129.802 296.991 129.516 296.89C129.236 296.788 129.01 296.633 128.837 296.426L128.801 296.431L128.917 297.033L129.173 298.96L128.352 299.069L127.517 292.77L128.302 292.666L128.383 293.272L128.418 293.268C128.531 293.023 128.709 292.814 128.953 292.643C129.202 292.471 129.488 292.363 129.809 292.321C130.386 292.244 130.904 292.406 131.362 292.805C131.833 293.208 132.111 293.731 132.196 294.374C132.282 295.022 132.15 295.6 131.8 296.106C131.461 296.611 131.003 296.901 130.426 296.978ZM135.22 296.343C134.577 296.428 134.019 296.278 133.544 295.893C133.069 295.508 132.788 294.979 132.698 294.307C132.61 293.641 132.739 293.061 133.085 292.567C133.431 292.068 133.918 291.776 134.549 291.692C135.197 291.607 135.74 291.75 136.176 292.121C136.618 292.487 136.889 293.047 136.989 293.802L136.992 293.893L133.557 294.348C133.626 294.774 133.814 295.101 134.123 295.326C134.431 295.551 134.775 295.639 135.156 295.589C135.68 295.519 136.055 295.203 136.283 294.64L137.062 294.9C136.915 295.295 136.679 295.62 136.356 295.874C136.039 296.128 135.66 296.284 135.22 296.343ZM133.53 293.661L136.037 293.329C135.973 293.029 135.815 292.796 135.563 292.629C135.316 292.456 135.005 292.395 134.63 292.444C134.321 292.485 134.066 292.616 133.865 292.836C133.67 293.056 133.559 293.331 133.53 293.661ZM137.442 291.454L138.227 291.35L138.307 291.957L138.343 291.952C138.44 291.722 138.606 291.518 138.843 291.341C139.086 291.164 139.347 291.057 139.627 291.02C140.162 290.949 140.593 291.049 140.919 291.32C141.251 291.585 141.454 292 141.529 292.565L141.893 295.313L141.073 295.422L140.716 292.727C140.603 292.016 140.196 291.707 139.494 291.8C139.167 291.843 138.911 292.013 138.727 292.31C138.541 292.601 138.473 292.931 138.522 293.299L138.842 295.717L138.021 295.826L137.442 291.454ZM145.998 293.534C146.049 293.915 145.925 294.258 145.626 294.564C145.328 294.87 144.926 295.056 144.42 295.123C143.98 295.182 143.579 295.12 143.216 294.938C142.852 294.75 142.574 294.478 142.381 294.123L143.072 293.713C143.213 293.961 143.395 294.146 143.617 294.267C143.844 294.383 144.08 294.424 144.323 294.392C144.585 294.357 144.795 294.272 144.952 294.136C145.116 293.999 145.187 293.854 145.167 293.699C145.13 293.419 144.888 293.243 144.443 293.168L143.669 293.08C142.79 292.979 142.31 292.625 142.23 292.018C142.177 291.62 142.295 291.28 142.585 291C142.88 290.713 143.28 290.535 143.785 290.468C144.172 290.417 144.532 290.463 144.866 290.607C145.206 290.749 145.458 290.967 145.624 291.26L144.933 291.66C144.825 291.487 144.669 291.362 144.466 291.286C144.267 291.204 144.052 291.178 143.82 291.208C143.606 291.237 143.42 291.316 143.261 291.446C143.109 291.575 143.043 291.717 143.063 291.871C143.097 292.121 143.355 292.269 143.839 292.313L144.522 292.395C145.419 292.494 145.911 292.874 145.998 293.534Z" fill="black"/>
<path d="M163.732 292.564C162.786 292.69 161.953 292.476 161.232 291.924C160.517 291.371 160.097 290.619 159.971 289.667C159.845 288.716 160.055 287.883 160.602 287.169C161.147 286.443 161.896 286.017 162.847 285.891C163.811 285.763 164.639 286.007 165.332 286.623L164.819 287.272C164.288 286.78 163.665 286.581 162.952 286.676C162.244 286.769 161.683 287.086 161.271 287.625C160.863 288.157 160.709 288.801 160.809 289.556C160.909 290.311 161.226 290.893 161.758 291.301C162.297 291.713 162.92 291.873 163.628 291.779C164.371 291.681 164.975 291.283 165.44 290.586L166.114 291.086C165.859 291.489 165.525 291.821 165.111 292.082C164.697 292.336 164.237 292.497 163.732 292.564ZM166.95 285.492L167.797 291.88L166.976 291.989L166.13 285.601L166.95 285.492ZM169.08 285.727C169.101 285.888 169.063 286.032 168.965 286.16C168.867 286.288 168.737 286.363 168.577 286.384C168.416 286.405 168.272 286.367 168.144 286.269C168.016 286.171 167.941 286.042 167.92 285.881C167.899 285.72 167.937 285.576 168.035 285.448C168.133 285.32 168.262 285.246 168.423 285.224C168.584 285.203 168.728 285.241 168.856 285.339C168.984 285.437 169.058 285.567 169.08 285.727ZM169.11 287.258L169.689 291.629L168.869 291.738L168.289 287.366L169.11 287.258ZM172.731 291.371C172.083 291.457 171.516 291.309 171.029 290.925C170.547 290.529 170.262 290.001 170.175 289.341C170.085 288.669 170.223 288.085 170.587 287.588C170.957 287.092 171.466 286.8 172.114 286.714C172.56 286.655 172.965 286.716 173.328 286.898C173.69 287.074 173.981 287.348 174.199 287.718L173.491 288.13C173.187 287.613 172.743 287.394 172.16 287.471C171.785 287.52 171.481 287.715 171.248 288.055C171.02 288.393 170.936 288.786 170.995 289.232C171.054 289.678 171.238 290.035 171.546 290.303C171.86 290.57 172.204 290.679 172.579 290.629C173.179 290.55 173.565 290.22 173.737 289.64L174.51 289.856C174.401 290.27 174.189 290.612 173.874 290.884C173.564 291.149 173.184 291.312 172.731 291.371ZM179.221 290.366L178.23 290.497L176.592 288.617L176.011 289.366L176.196 290.767L175.375 290.876L174.529 284.488L175.35 284.379L175.871 288.314L177.508 286.145L178.561 286.005L178.566 286.041L177.086 287.962L179.216 290.331L179.221 290.366ZM182.786 288.659C182.837 289.04 182.713 289.383 182.414 289.689C182.116 289.995 181.714 290.181 181.208 290.248C180.768 290.306 180.366 290.245 180.003 290.063C179.64 289.875 179.361 289.603 179.169 289.247L179.859 288.838C180.001 289.086 180.183 289.27 180.405 289.392C180.632 289.507 180.867 289.549 181.111 289.517C181.373 289.482 181.583 289.397 181.74 289.261C181.904 289.124 181.975 288.978 181.955 288.824C181.917 288.544 181.676 288.367 181.231 288.293L180.456 288.205C179.577 288.104 179.098 287.75 179.017 287.143C178.964 286.745 179.083 286.405 179.373 286.125C179.667 285.837 180.068 285.66 180.573 285.593C180.96 285.542 181.32 285.588 181.654 285.731C181.993 285.874 182.246 286.092 182.412 286.384L181.721 286.785C181.613 286.611 181.457 286.487 181.253 286.411C181.055 286.328 180.84 286.302 180.608 286.333C180.394 286.361 180.207 286.441 180.049 286.571C179.897 286.7 179.831 286.842 179.851 286.996C179.884 287.246 180.143 287.393 180.627 287.438L181.31 287.52C182.206 287.619 182.699 287.999 182.786 288.659Z" fill="black"/>
<circle cx="115.06" cy="295.843" r="2" transform="rotate(-7.54918 115.06 295.843)" fill="#020A13"/>
<circle cx="154.712" cy="290.588" r="2" transform="rotate(-7.54918 154.712 290.588)" fill="#020A13" fill-opacity="0.5"/>
<path d="M558 255.5C558 261.142 556.129 266.624 552.68 271.089C549.232 275.553 544.4 278.748 538.941 280.173C533.482 281.598 527.705 281.173 522.514 278.964C517.323 276.754 513.011 272.886 510.254 267.964C507.496 263.043 506.449 257.345 507.275 251.765C508.101 246.184 510.755 241.035 514.821 237.124C518.886 233.212 524.134 230.76 529.743 230.15C535.351 229.539 541.004 230.807 545.815 233.752L532.5 255.5H558Z" fill="#020A13"/>
<path fill-rule="evenodd" clip-rule="evenodd" d="M551.468 231.655L538.263 252.994L564.473 253.794C564.45 244.55 559.379 236.1 551.468 231.655Z" fill="#020A13" fill-opacity="0.5"/>
<g clip-path="url(#clip2)">
<path d="M182.585 75.7876C173.302 73.5489 164.019 71.3101 154.746 69.1408C145.672 66.871 136.637 64.6307 127.562 62.3609C124.428 61.5851 121.334 60.8389 117.792 59.9463C122.818 55.826 127.459 51.9759 132.169 48.1156C135.556 45.3751 139.024 42.6937 142.361 39.8542C143.684 38.7344 144.399 38.7699 145.58 40.0139C148.351 42.867 151.33 45.4409 154.16 48.2142C156.321 50.3063 158.104 48.2306 160.038 47.8717C162.804 47.1405 165.61 46.4388 168.395 45.5983C169.614 45.2039 170.299 45.2792 170.925 46.606C175.053 55.8949 179.182 65.1838 183.34 74.4329C183.703 75.1952 184.265 76.1054 182.585 75.7876Z" fill="#020A13"/>
<path d="M137.259 23.6108C138.851 24.0482 140.443 24.4856 141.996 24.8935C142.876 24.372 143.743 24.7044 144.628 24.9276C151.911 26.6122 159.115 28.486 166.328 30.1809C167.174 30.3745 167.872 30.7676 168.511 31.2404C175.924 33.0831 183.347 34.9953 190.8 36.8676C191.277 36.974 191.725 37.1202 192.909 37.4409C181.521 40.8045 170.777 43.9657 160.032 47.127C156.461 49.114 154.21 46.8932 151.85 44.6533C143.959 37.0249 135.98 29.5161 127.82 21.7503C131.178 21.8893 134.128 23.3314 137.259 23.6108Z" fill="#020A13"/>
<path d="M190.341 53.4415C189.539 56.6136 188.737 59.7856 187.935 62.9576C186.979 66.7561 186.023 70.5546 185.037 74.3929C184.868 74.4535 184.69 74.4446 184.521 74.5052C183.724 72.7426 182.937 71.0494 182.14 69.2867C178.739 61.7708 175.408 54.2445 171.938 46.7389C171.241 45.1743 171.486 44.6764 173.122 44.2199C179.397 42.5049 185.661 40.7205 191.876 38.837C193.541 38.3407 193.713 38.7765 193.366 40.2481C192.354 44.6227 191.382 49.027 190.341 53.4415Z" fill="#020A13"/>
<path d="M126.279 21.6602C131.739 26.8108 136.919 31.7546 142.099 36.6984C142.799 37.3396 143.369 37.8228 142.193 38.7432C134.144 45.1948 126.175 51.7055 118.206 58.2162C118.107 58.2665 117.888 58.228 117.392 58.231C120.365 46.1101 123.279 34.0691 126.279 21.6602Z" fill="#020A13"/>
</g>
<defs>
<clipPath id="clip0">
<rect width="443" height="651" fill="white" transform="translate(100 29)"/>
</clipPath>
<clipPath id="clip1">
<rect width="44.0135" height="35.1218" fill="white" transform="matrix(-0.803888 0.59478 0.59478 0.803888 138.383 63)"/>
</clipPath>
<clipPath id="clip2">
<rect width="78.5995" height="62.7208" fill="white" transform="translate(142.305) rotate(36.497)"/>
</clipPath>
</defs>
</svg>
