<svg width="486" height="406" viewBox="0 0 486 406" fill="none" xmlns="http://www.w3.org/2000/svg">
<path fill-rule="evenodd" clip-rule="evenodd" d="M422.416 224.864C435.844 270.227 430.157 326.546 397.904 361.134C366.071 395.273 311.407 386.764 265.229 393.435C227.893 398.829 191.745 404.187 154.865 396.248C114.23 387.499 71.9119 376.789 44.1402 345.837C14.8465 313.19 -2.52586 268.595 1.08779 224.864C4.57351 182.682 37.8706 151.648 63 117.605C87.8882 83.8883 108.412 45.1838 146.536 27.8221C187.168 9.31767 238.493 -2.50801 276.958 20.1668C314.86 42.5099 306.024 100.99 331.518 136.867C356.562 172.111 410.142 183.397 422.416 224.864Z" fill="#F5F6B5"/>
<path fill-rule="evenodd" clip-rule="evenodd" d="M340.02 174.273C357.708 198.885 366.142 234.155 353.923 261.881C341.863 289.245 306.999 295.623 280.47 309.396C259.02 320.531 238.281 331.395 214.296 334.367C187.868 337.643 160.009 340.086 136.682 327.217C112.077 313.643 92.1642 290.327 85.1299 263.109C78.3446 236.856 91.9449 211.061 99.9694 185.167C107.917 159.522 112.173 131.78 131.575 113.238C152.255 93.4763 180.811 75.5006 208.862 81.1078C236.503 86.6331 243.488 123.875 266.475 140.204C289.058 156.245 323.851 151.776 340.02 174.273Z" fill="#F5F6B5"/>
<g clip-path="url(#clip0)">
<path d="M24.5544 94.1345C23.6245 94.7908 24.2051 96.029 24.016 97.152C23.9181 97.6234 23.8202 98.0949 23.7223 98.5663C23.5443 98.574 23.4086 98.5906 23.2307 98.5983C23.0261 97.8853 22.7703 97.2063 22.6924 96.5196C22.3945 93.2836 22.2745 90.04 21.9253 86.8381C21.7786 85.4218 21.3693 83.9957 20.9512 82.6124C20.2951 80.4645 18.0573 79.7763 16.3134 79.6824C16.0086 79.6638 15.6838 79.954 15.2923 80.1409C14.7919 79.3664 14.0289 79.4315 13.1969 79.6164C12.5518 79.7507 11.9067 79.885 11.2639 79.7962C10.9169 79.7688 10.6589 79.3129 10.3563 79.0713C10.6211 78.858 10.8279 78.4986 11.1082 78.4227C12.4585 78.0772 13.8332 77.8262 15.2168 77.5324C19.9793 76.4649 22.6065 72.0929 22.6779 67.5031C22.7113 65.0066 22.6603 62.4925 22.7449 59.9619C22.7493 59.5158 23.1765 59.1575 23.4345 58.764C23.6169 59.1595 23.9016 59.4869 23.9483 59.8989C24.2975 62.2513 24.4086 64.6885 24.9958 66.9562C25.9655 70.7787 29.3131 73.9773 33.6352 74.6065C33.8888 74.6592 34.1691 74.5833 34.3626 74.7129C34.7919 74.9808 35.1611 75.3257 35.5393 75.6278C35.1967 76.0037 34.9208 76.4829 34.5204 76.7127C32.9611 77.6406 31.2438 78.2675 29.8268 79.3591C26.2164 82.0964 24.5346 85.9494 24.2275 90.4008C24.2052 90.9327 24.1318 91.4986 24.1518 92.0392C24.2386 92.6831 24.4187 93.3016 24.5544 94.1345ZM17.6503 78.1271C19.3964 78.8473 21.2538 79.4565 21.9967 81.399C22.6062 83.1349 23.071 84.9302 23.5292 86.5453C24.0676 84.3772 24.953 82.2364 26.588 80.5195C28.2141 78.8454 30.0159 77.3867 31.5375 76.0038C30.2496 75.2 28.648 74.4203 27.4313 73.2736C26.1723 72.1181 25.2559 70.5866 24.1593 69.286C22.602 74.2378 22.3618 74.5456 17.6503 78.1271Z" fill="black"/>
</g>
<path d="M180.518 349.639C181.218 349.147 181.961 348.717 182.796 348.486C183.208 348.095 183.733 347.82 184.054 347.329C184.166 347.155 184.348 347.117 184.532 347.088C185.554 346.913 186.328 346.346 187.011 345.589C187.342 345.22 187.877 345.057 188.184 344.648C188.724 343.921 189.371 343.346 190.156 342.902C190.388 342.773 190.606 342.553 190.738 342.325C191.126 341.64 191.682 341.179 192.368 340.81C192.812 340.572 193.089 340.11 193.426 339.744C193.725 339.412 194.061 339.137 194.475 338.995C195.625 338.598 196.177 337.674 196.423 336.6C196.544 336.085 196.751 335.767 197.166 335.56C197.761 335.256 198.181 334.788 198.498 334.213C198.23 333.635 197.628 333.598 197.136 333.377C196.593 333.83 196.23 334.401 195.973 335.048C195.839 335.381 195.669 335.566 195.234 335.613C194.424 335.704 193.83 336.247 193.345 336.878C193.192 337.075 193.028 337.289 192.958 337.523C192.753 338.18 192.274 338.585 191.771 338.99C191.412 339.275 191.092 339.602 190.84 339.989C190.584 340.382 190.24 340.669 189.815 340.878C189.175 341.203 188.612 341.635 188.194 342.227C187.99 342.515 187.738 342.737 187.388 342.831C187.279 342.859 187.176 342.915 187.079 342.976C186.228 343.509 185.417 344.109 184.542 344.602C184.14 344.826 183.871 345.227 183.593 345.59C183.352 345.91 183.084 346.156 182.709 346.315C182.199 346.527 181.77 346.881 181.331 347.213C180.576 347.587 179.954 348.186 179.186 348.543C178.464 348.929 177.796 349.409 176.986 349.639C176.453 349.786 175.959 350.025 175.534 350.399C174.699 351.123 173.739 351.659 172.732 352.116C172.522 352.21 172.308 352.285 172.085 352.337C171.589 352.451 171.122 352.624 170.674 352.868C170.11 353.176 169.503 353.399 168.847 353.417C168.366 353.434 167.993 353.816 167.542 353.812C167.117 353.806 166.7 353.635 166.252 353.664C165.512 353.71 164.85 353.979 164.26 354.378C163.92 354.609 163.62 354.677 163.237 354.618C162.895 354.56 162.545 354.604 162.221 354.747C161.563 355.035 160.887 355.008 160.192 354.935C159.255 354.828 158.328 354.908 157.39 355.36C157.854 355.686 158.299 355.827 158.8 355.931C159.589 356.089 160.348 355.974 161.122 355.901C161.553 355.86 161.998 355.836 162.416 355.993C162.709 356.101 163.021 356.065 163.298 355.957C163.927 355.7 164.559 355.731 165.186 355.909C166.048 356.156 166.818 355.949 167.541 355.473C167.918 355.224 168.295 355 168.779 354.953C169.23 354.908 169.59 354.558 170.051 354.446C171.393 354.133 172.705 353.727 173.919 353.043C174.102 352.94 174.298 352.878 174.507 352.849C174.899 352.792 175.266 352.66 175.603 352.459C175.78 352.352 175.973 352.272 176.189 352.256C177.073 352.205 177.748 351.763 178.368 351.179C178.435 351.115 178.499 351.042 178.581 351.004C179.308 350.687 179.919 350.179 180.518 349.639Z" fill="#020A13"/>
<path d="M189.177 294.901C189.569 294.654 189.852 294.32 190.07 293.885C190.304 293.412 190.705 292.998 191.223 292.849C191.892 292.658 192.496 292.326 193.148 292.099C193.679 291.918 194.138 291.632 194.604 291.334C195.514 290.748 196.414 290.14 197.579 290.214C197.711 290.226 197.857 290.18 197.981 290.129C198.49 289.917 198.996 289.876 199.531 290.018C199.706 290.066 199.904 290.079 200.082 290.046C200.857 289.883 201.646 290.166 202.423 289.988C202.595 289.951 202.793 289.989 202.968 290.037C204.193 290.413 205.489 290.54 206.664 291.106C207.482 291.497 208.157 292.109 208.816 292.693C209.277 293.1 209.548 293.737 209.864 294.304C210.32 295.111 210.806 295.912 211.529 296.538C211.971 296.924 212.302 297.403 212.424 297.976C212.516 298.406 212.653 298.816 212.783 299.238C212.934 299.715 212.978 300.179 212.821 300.661C212.579 301.401 212.609 302.128 212.737 302.894C212.873 303.699 212.927 304.541 212.86 305.353C212.789 306.261 212.643 307.17 212.567 308.084C212.545 308.333 212.479 308.587 212.319 308.795C212.111 309.063 212.052 309.37 212.021 309.696C211.937 310.662 211.583 311.559 211.299 312.477C211.075 313.188 210.765 313.867 210.796 314.669C210.817 315.333 210.595 315.978 210.029 316.442C209.765 316.657 209.586 316.944 209.411 317.25C208.955 318.04 208.705 318.955 208.067 319.644C208.006 319.711 207.95 319.798 207.934 319.886C207.794 320.734 207.165 321.395 207.016 322.245C206.953 322.582 206.766 322.921 206.471 323.182C206.174 323.45 206.004 323.825 205.956 324.214C205.899 324.695 205.706 325.105 205.44 325.475C205.044 326.032 204.553 326.52 204.281 327.166C204.203 327.362 204.001 327.469 203.83 327.58C203.681 327.681 203.511 327.752 203.452 327.944C203.635 328.145 203.878 328.139 204.09 328.194C204.587 328.319 205.068 328.492 205.424 328.871C205.781 329.26 206.24 329.468 206.699 329.675C207.577 330.065 208.518 330.306 209.301 330.889C209.509 331.04 209.797 331.104 210.087 331.103C210.516 331.102 210.965 331.098 211.38 331.285C212.049 331.588 212.731 331.858 213.387 332.194C213.702 332.358 214.012 332.477 214.369 332.462C214.907 332.433 215.424 332.514 215.892 332.81C216.037 332.904 216.183 332.933 216.355 332.897C217.222 332.719 218.091 332.996 218.966 332.881C219.316 332.837 219.709 332.944 220.022 333.148C220.295 333.325 220.571 333.357 220.879 333.302C221.369 333.209 221.85 333.282 222.288 333.509C222.508 333.628 222.715 333.664 222.949 333.61C223.381 333.504 223.817 333.557 224.253 333.56C224.983 333.565 225.721 333.46 226.452 333.631C226.515 333.647 226.587 333.612 226.654 333.598C227.821 333.278 229.022 333.359 230.207 333.314C231.227 333.269 232.209 333.117 233.2 332.914C233.79 332.795 234.301 332.378 234.907 332.385C235.619 332.395 236.293 332.208 236.973 332.115C237.896 331.99 238.82 331.94 239.708 331.604C239.958 331.511 240.218 331.442 240.47 331.334C241.197 331.016 241.859 330.557 242.694 330.442C243.263 330.367 243.859 330.211 244.294 329.72C244.565 329.419 244.969 329.319 245.363 329.296C246.174 329.255 246.819 328.925 247.345 328.32C247.573 328.057 247.857 327.838 248.199 327.756C248.916 327.58 249.493 327.189 250.035 326.711C250.347 326.436 250.746 326.292 251.128 326.137C251.271 326.082 251.46 326.032 251.566 326.199C251.677 326.37 251.516 326.504 251.425 326.618C251.164 326.942 250.835 327.206 250.473 327.407C249.969 327.688 249.514 328.018 249.142 328.476C248.845 328.843 248.476 329.105 248.004 329.209C247.171 329.384 246.461 329.778 245.844 330.357C245.52 330.665 245.15 330.877 244.671 330.854C244.342 330.838 244.07 330.965 243.772 331.118C243.246 331.393 242.76 331.76 242.171 331.904C241.31 332.11 240.389 332.054 239.589 332.522C239.512 332.563 239.405 332.576 239.319 332.569C238.806 332.532 238.381 332.741 237.976 333.021C237.593 333.291 237.148 333.455 236.676 333.395C236.369 333.359 236.138 333.448 235.909 333.621C235.546 333.887 235.124 334.04 234.681 333.999C234.007 333.931 233.356 334.043 232.707 334.14C231.005 334.384 229.303 334.652 227.583 334.745C227.401 334.758 227.203 334.745 227.036 334.685C226.737 334.573 226.463 334.601 226.161 334.66C225.181 334.846 224.19 334.77 223.209 334.667C222.856 334.627 222.535 334.575 222.206 334.699C221.758 334.868 221.297 334.89 220.854 334.734C220.552 334.628 220.274 334.637 219.98 334.733C219.433 334.913 218.89 334.898 218.36 334.685C218.143 334.601 217.923 334.533 217.697 334.525C217.269 334.511 216.88 334.398 216.528 334.153C216.274 333.972 216.001 333.909 215.684 333.966C215.197 334.054 214.713 333.986 214.295 333.69C214.056 333.526 213.778 333.419 213.516 333.455C212.742 333.553 212.032 333.198 211.267 333.195C210.812 333.195 210.358 333.057 209.986 332.741C209.478 332.304 208.928 331.93 208.226 331.869C208.093 331.857 207.958 331.785 207.844 331.72C207.174 331.317 206.411 331.093 205.764 330.656C205.483 330.465 205.152 330.365 204.802 330.294C204.279 330.185 203.797 329.962 203.505 329.46C203.413 329.309 203.262 329.187 203.119 329.077C202.697 328.762 202.693 328.767 202.315 329.196C201.899 329.099 201.715 328.774 201.555 328.423C201.037 328.078 200.602 327.631 200.116 327.249C199.665 326.89 199.155 326.608 198.753 326.199C198.483 325.917 198.182 325.746 197.82 325.642C197.096 325.435 196.556 325.01 196.212 324.334C196.023 323.965 195.805 323.641 195.437 323.394C195.122 323.181 194.846 322.895 194.595 322.584C194.065 321.927 193.562 321.23 192.947 320.665C192.302 320.073 191.836 319.318 191.133 318.787C190.895 318.608 190.733 318.338 190.645 318.042C190.511 317.601 190.206 317.296 189.861 317.014C189.251 316.519 188.824 315.92 188.751 315.108C188.713 314.672 188.637 314.243 188.455 313.838C187.969 312.773 187.45 311.744 186.756 310.783C186.086 309.846 185.781 308.693 185.675 307.562C185.605 306.834 185.581 306.11 185.4 305.4C185.239 304.761 185.252 304.144 185.544 303.519C185.929 302.699 186.136 301.838 186.121 300.923C186.11 300.331 186.324 299.812 186.604 299.294C186.971 298.603 187.329 297.914 187.772 297.272C187.933 297.039 187.979 296.765 188.058 296.504C188.271 295.86 188.573 295.283 189.177 294.901ZM187.926 299.685C187.824 300.12 187.668 300.512 187.45 300.897C186.989 301.693 186.865 302.517 187.213 303.402C187.463 304.033 187.528 304.693 187.387 305.366C187.276 305.903 187.34 306.414 187.603 306.897C187.612 306.92 187.622 306.943 187.63 306.956C187.831 307.383 188.37 309.939 188.412 310.419C188.526 311.752 188.906 312.994 189.95 313.912C190.67 314.544 191.19 315.253 191.359 316.21C191.423 316.556 191.62 316.849 191.88 317.083C192.25 317.414 192.457 317.845 192.723 318.248C193.28 319.104 193.755 320.022 194.546 320.733C195.207 321.327 195.977 321.819 196.471 322.593C196.585 322.774 196.792 322.835 196.993 322.907C197.833 323.239 198.518 323.759 198.908 324.605C199.038 324.887 199.242 325.068 199.524 325.219C199.964 325.455 200.327 325.823 200.75 326.098C201.122 326.339 201.515 326.521 201.897 326.72C202.206 326.879 202.279 326.754 202.403 326.513C202.847 325.642 203.252 324.728 203.884 323.986C204.493 323.28 205.037 322.546 205.555 321.764C206.031 321.045 206.425 320.264 206.959 319.582C207.054 319.463 207.119 319.299 207.161 319.146C207.312 318.61 207.515 318.108 207.814 317.636C208.082 317.226 208.207 316.755 208.228 316.267C208.269 315.265 208.566 314.405 209.311 313.679C209.696 313.304 209.734 312.687 209.899 312.168C210.178 311.296 210.405 310.415 210.653 309.54C210.701 309.365 210.822 309.18 210.797 309.016C210.645 308.045 211.016 307.158 211.179 306.236C211.258 305.785 211.118 305.316 211.278 304.868C211.59 303.984 211.6 303.069 211.594 302.152C211.59 301.968 211.596 301.807 211.456 301.642C210.967 301.062 210.718 300.381 210.662 299.629C210.653 299.491 210.665 299.334 210.606 299.222C210.219 298.51 210.191 297.767 210.195 296.963C210.2 296.423 209.878 295.803 209.449 295.384C208.989 294.937 208.504 294.515 207.992 294.149C206.843 293.403 205.704 292.63 204.533 291.918C204.131 291.674 203.645 291.547 203.157 291.534C202.85 291.524 202.562 291.46 202.28 291.36C201.577 291.109 200.861 291.03 200.114 291.112C199.855 291.142 199.614 291.207 199.393 291.319C199.145 291.446 198.88 291.512 198.602 291.545C198.441 291.564 198.264 291.556 198.129 291.625C197.151 292.125 196.055 292.211 195.017 292.499C194.172 292.732 193.472 293.249 192.957 293.926C192.396 294.672 191.778 295.267 190.823 295.428C190.518 295.477 190.4 295.696 190.321 295.933C190.111 296.545 189.697 296.992 189.187 297.369C189.014 297.495 188.868 297.63 188.761 297.808C188.413 298.405 188.083 299.013 187.926 299.685Z" fill="#020A13"/>
<rect x="44.0098" y="84" width="396" height="230" rx="20" fill="#020A13"/>
<rect x="53.5098" y="73.5" width="393" height="227" rx="18.5" fill="white" stroke="#020A13" stroke-width="3"/>
<line x1="90.5098" y1="100" x2="90.5098" y2="268" stroke="#020A13" stroke-dasharray="2 2"/>
<line x1="135.51" y1="100" x2="135.51" y2="268" stroke="#020A13" stroke-opacity="0.5" stroke-dasharray="2 2"/>
<line x1="180.51" y1="100" x2="180.51" y2="268" stroke="#020A13" stroke-opacity="0.5" stroke-dasharray="2 2"/>
<line x1="225.51" y1="100" x2="225.51" y2="268" stroke="#020A13" stroke-opacity="0.5" stroke-dasharray="2 2"/>
<line x1="270.51" y1="100" x2="270.51" y2="268" stroke="#020A13" stroke-opacity="0.5" stroke-dasharray="2 2"/>
<line x1="315.51" y1="100" x2="315.51" y2="268" stroke="#020A13" stroke-opacity="0.5" stroke-dasharray="2 2"/>
<line x1="360.51" y1="100" x2="360.51" y2="268" stroke="#020A13" stroke-opacity="0.5" stroke-dasharray="2 2"/>
<line x1="405.51" y1="100" x2="405.51" y2="268" stroke="#020A13" stroke-opacity="0.5" stroke-dasharray="2 2"/>
<line x1="90.0098" y1="267.5" x2="415.01" y2="267.5" stroke="#020A13" stroke-dasharray="2 2"/>
<path d="M67.4098 102.528V108H66.6738V103.44L65.6098 103.904L65.3298 103.28L66.9378 102.528H67.4098ZM68.4321 105.264C68.4321 104.432 68.6374 103.747 69.0481 103.208C69.4587 102.669 69.9867 102.4 70.6321 102.4C71.2774 102.4 71.8054 102.672 72.2161 103.216C72.6267 103.755 72.8321 104.437 72.8321 105.264C72.8321 106.085 72.6267 106.771 72.2161 107.32C71.8054 107.859 71.2774 108.128 70.6321 108.128C69.9867 108.128 69.4587 107.859 69.0481 107.32C68.6374 106.771 68.4321 106.085 68.4321 105.264ZM72.0801 105.264C72.0801 104.635 71.9467 104.117 71.6801 103.712C71.4187 103.307 71.0694 103.104 70.6321 103.104C70.1947 103.104 69.8454 103.307 69.5841 103.712C69.3174 104.117 69.1841 104.635 69.1841 105.264C69.1841 105.893 69.3174 106.413 69.5841 106.824C69.8454 107.224 70.1947 107.424 70.6321 107.424C71.0694 107.424 71.4187 107.221 71.6801 106.816C71.9467 106.405 72.0801 105.888 72.0801 105.264ZM73.5336 105.264C73.5336 104.432 73.739 103.747 74.1496 103.208C74.5603 102.669 75.0883 102.4 75.7336 102.4C76.379 102.4 76.907 102.672 77.3176 103.216C77.7283 103.755 77.9336 104.437 77.9336 105.264C77.9336 106.085 77.7283 106.771 77.3176 107.32C76.907 107.859 76.379 108.128 75.7336 108.128C75.0883 108.128 74.5603 107.859 74.1496 107.32C73.739 106.771 73.5336 106.085 73.5336 105.264ZM77.1816 105.264C77.1816 104.635 77.0483 104.117 76.7816 103.712C76.5203 103.307 76.171 103.104 75.7336 103.104C75.2963 103.104 74.947 103.307 74.6856 103.712C74.419 104.117 74.2856 104.635 74.2856 105.264C74.2856 105.893 74.419 106.413 74.6856 106.824C74.947 107.224 75.2963 107.424 75.7336 107.424C76.171 107.424 76.5203 107.221 76.7816 106.816C77.0483 106.405 77.1816 105.888 77.1816 105.264ZM82.1472 102.272H83.0992V102.304L80.9712 104.76L83.2432 107.968V108H82.3392L80.4752 105.328L79.5952 106.344V108H78.8592V102.272H79.5952V105.224H79.6272L82.1472 102.272Z" fill="black"/>
<path d="M73.0418 138.488C73.0418 138.957 72.8631 139.347 72.5058 139.656C72.1431 139.971 71.7031 140.128 71.1858 140.128C70.6684 140.128 70.2284 139.971 69.8658 139.656C69.5084 139.347 69.3298 138.957 69.3298 138.488C69.3298 138.2 69.4071 137.939 69.5618 137.704C69.7164 137.464 69.9378 137.275 70.2258 137.136V137.104C70.0124 136.965 69.8391 136.795 69.7058 136.592C69.5778 136.389 69.5138 136.176 69.5138 135.952C69.5138 135.509 69.6711 135.139 69.9858 134.84C70.2951 134.547 70.6951 134.4 71.1858 134.4C71.6764 134.4 72.0764 134.547 72.3858 134.84C72.7004 135.139 72.8578 135.509 72.8578 135.952C72.8578 136.176 72.7911 136.389 72.6578 136.592C72.5298 136.795 72.3591 136.965 72.1458 137.104V137.136C72.4338 137.275 72.6551 137.464 72.8098 137.704C72.9644 137.939 73.0418 138.2 73.0418 138.488ZM70.2658 135.936C70.2658 136.192 70.3511 136.4 70.5218 136.56C70.6924 136.715 70.9138 136.792 71.1858 136.792C71.4578 136.792 71.6791 136.715 71.8498 136.56C72.0204 136.4 72.1058 136.192 72.1058 135.936C72.1058 135.68 72.0204 135.477 71.8498 135.328C71.6791 135.179 71.4578 135.104 71.1858 135.104C70.9138 135.104 70.6924 135.179 70.5218 135.328C70.3511 135.477 70.2658 135.68 70.2658 135.936ZM70.0818 138.448C70.0818 138.592 70.1084 138.723 70.1618 138.84C70.2204 138.957 70.2978 139.061 70.3938 139.152C70.4951 139.237 70.6124 139.304 70.7458 139.352C70.8791 139.4 71.0258 139.424 71.1858 139.424C71.3458 139.424 71.4924 139.4 71.6258 139.352C71.7591 139.304 71.8738 139.237 71.9698 139.152C72.0711 139.061 72.1484 138.957 72.2018 138.84C72.2604 138.723 72.2898 138.592 72.2898 138.448C72.2898 138.171 72.1831 137.941 71.9698 137.76C71.7564 137.573 71.4951 137.48 71.1858 137.48C70.8764 137.48 70.6124 137.573 70.3938 137.76C70.1858 137.947 70.0818 138.176 70.0818 138.448ZM73.7133 137.264C73.7133 136.432 73.9187 135.747 74.3293 135.208C74.74 134.669 75.268 134.4 75.9133 134.4C76.5587 134.4 77.0867 134.672 77.4973 135.216C77.908 135.755 78.1133 136.437 78.1133 137.264C78.1133 138.085 77.908 138.771 77.4973 139.32C77.0867 139.859 76.5587 140.128 75.9133 140.128C75.268 140.128 74.74 139.859 74.3293 139.32C73.9187 138.771 73.7133 138.085 73.7133 137.264ZM77.3613 137.264C77.3613 136.635 77.228 136.117 76.9613 135.712C76.7 135.307 76.3507 135.104 75.9133 135.104C75.476 135.104 75.1267 135.307 74.8653 135.712C74.5987 136.117 74.4653 136.635 74.4653 137.264C74.4653 137.893 74.5987 138.413 74.8653 138.824C75.1267 139.224 75.476 139.424 75.9133 139.424C76.3507 139.424 76.7 139.221 76.9613 138.816C77.228 138.405 77.3613 137.888 77.3613 137.264ZM82.3269 134.272H83.2789V134.304L81.1509 136.76L83.4229 139.968V140H82.5189L80.6549 137.328L79.7749 138.344V140H79.0389V134.272H79.7749V137.224H79.8069L82.3269 134.272Z" fill="black"/>
<path d="M71.3698 168.528C71.8124 168.528 72.2071 168.704 72.5538 169.056C72.9058 169.403 73.0818 169.816 73.0818 170.296C73.0818 170.787 72.8951 171.216 72.5218 171.584C72.1431 171.947 71.7058 172.128 71.2098 172.128C70.6818 172.128 70.2364 171.947 69.8738 171.584C69.5111 171.221 69.3298 170.792 69.3298 170.296C69.3298 169.853 69.5084 169.349 69.8658 168.784L71.4578 166.4L72.0498 166.808L70.6978 168.68L70.7138 168.696C70.8791 168.584 71.0978 168.528 71.3698 168.528ZM70.0738 170.304C70.0738 170.619 70.1831 170.885 70.4018 171.104C70.6204 171.317 70.8898 171.424 71.2098 171.424C71.5298 171.424 71.7964 171.317 72.0098 171.104C72.2284 170.885 72.3378 170.619 72.3378 170.304C72.3378 169.995 72.2258 169.731 72.0018 169.512C71.7831 169.293 71.5191 169.184 71.2098 169.184C70.9058 169.184 70.6391 169.293 70.4098 169.512C70.1858 169.731 70.0738 169.995 70.0738 170.304ZM73.7524 169.264C73.7524 168.432 73.9577 167.747 74.3684 167.208C74.7791 166.669 75.3071 166.4 75.9524 166.4C76.5977 166.4 77.1257 166.672 77.5364 167.216C77.9471 167.755 78.1524 168.437 78.1524 169.264C78.1524 170.085 77.9471 170.771 77.5364 171.32C77.1257 171.859 76.5977 172.128 75.9524 172.128C75.3071 172.128 74.7791 171.859 74.3684 171.32C73.9577 170.771 73.7524 170.085 73.7524 169.264ZM77.4004 169.264C77.4004 168.635 77.2671 168.117 77.0004 167.712C76.7391 167.307 76.3897 167.104 75.9524 167.104C75.5151 167.104 75.1657 167.307 74.9044 167.712C74.6377 168.117 74.5044 168.635 74.5044 169.264C74.5044 169.893 74.6377 170.413 74.9044 170.824C75.1657 171.224 75.5151 171.424 75.9524 171.424C76.3897 171.424 76.7391 171.221 77.0004 170.816C77.2671 170.405 77.4004 169.888 77.4004 169.264ZM82.366 166.272H83.318V166.304L81.19 168.76L83.462 171.968V172H82.558L80.694 169.328L79.814 170.344V172H79.078V166.272H79.814V169.224H79.846L82.366 166.272Z" fill="black"/>
<path d="M72.6658 202.848V204H71.9298V202.848H69.3298V202.288L71.8658 198.528H72.6658V202.16H73.3698V202.848H72.6658ZM70.1618 202.16H71.9298V199.608H71.8978L70.1618 202.16ZM74.0727 201.264C74.0727 200.432 74.278 199.747 74.6887 199.208C75.0994 198.669 75.6274 198.4 76.2727 198.4C76.918 198.4 77.446 198.672 77.8567 199.216C78.2674 199.755 78.4727 200.437 78.4727 201.264C78.4727 202.085 78.2674 202.771 77.8567 203.32C77.446 203.859 76.918 204.128 76.2727 204.128C75.6274 204.128 75.0994 203.859 74.6887 203.32C74.278 202.771 74.0727 202.085 74.0727 201.264ZM77.7207 201.264C77.7207 200.635 77.5874 200.117 77.3207 199.712C77.0594 199.307 76.71 199.104 76.2727 199.104C75.8354 199.104 75.486 199.307 75.2247 199.712C74.958 200.117 74.8247 200.635 74.8247 201.264C74.8247 201.893 74.958 202.413 75.2247 202.824C75.486 203.224 75.8354 203.424 76.2727 203.424C76.71 203.424 77.0594 203.221 77.3207 202.816C77.5874 202.405 77.7207 201.888 77.7207 201.264ZM82.6863 198.272H83.6383V198.304L81.5103 200.76L83.7823 203.968V204H82.8783L81.0143 201.328L80.1343 202.344V204H79.3983V198.272H80.1343V201.224H80.1663L82.6863 198.272Z" fill="black"/>
<path d="M72.8178 235.296V236H69.3298V235.264L70.7458 233.832C71.2204 233.347 71.5484 232.984 71.7298 232.744C71.9111 232.499 72.0018 232.243 72.0018 231.976C72.0018 231.736 71.9084 231.531 71.7218 231.36C71.5351 231.189 71.2951 231.104 71.0018 231.104C70.7511 231.104 70.5351 231.179 70.3538 231.328C70.1724 231.477 70.0551 231.659 70.0018 231.872L69.3298 231.6C69.4364 231.264 69.6418 230.981 69.9458 230.752C70.2498 230.517 70.6071 230.4 71.0178 230.4C71.5138 230.4 71.9271 230.552 72.2578 230.856C72.5884 231.16 72.7538 231.533 72.7538 231.976C72.7538 232.504 72.4631 233.075 71.8818 233.688L70.2818 235.296H72.8178ZM73.518 233.264C73.518 232.432 73.7233 231.747 74.134 231.208C74.5447 230.669 75.0727 230.4 75.718 230.4C76.3633 230.4 76.8913 230.672 77.302 231.216C77.7127 231.755 77.918 232.437 77.918 233.264C77.918 234.085 77.7127 234.771 77.302 235.32C76.8913 235.859 76.3633 236.128 75.718 236.128C75.0727 236.128 74.5447 235.859 74.134 235.32C73.7233 234.771 73.518 234.085 73.518 233.264ZM77.166 233.264C77.166 232.635 77.0327 232.117 76.766 231.712C76.5047 231.307 76.1553 231.104 75.718 231.104C75.2807 231.104 74.9313 231.307 74.67 231.712C74.4033 232.117 74.27 232.635 74.27 233.264C74.27 233.893 74.4033 234.413 74.67 234.824C74.9313 235.224 75.2807 235.424 75.718 235.424C76.1553 235.424 76.5047 235.221 76.766 234.816C77.0327 234.405 77.166 233.888 77.166 233.264ZM82.1316 230.272H83.0836V230.304L80.9556 232.76L83.2276 235.968V236H82.3236L80.4596 233.328L79.5796 234.344V236H78.8436V230.272H79.5796V233.224H79.6116L82.1316 230.272Z" fill="black"/>
<path d="M78.3618 265.264C78.3618 264.432 78.5671 263.747 78.9778 263.208C79.3884 262.669 79.9164 262.4 80.5618 262.4C81.2071 262.4 81.7351 262.672 82.1458 263.216C82.5564 263.755 82.7618 264.437 82.7618 265.264C82.7618 266.085 82.5564 266.771 82.1458 267.32C81.7351 267.859 81.2071 268.128 80.5618 268.128C79.9164 268.128 79.3884 267.859 78.9778 267.32C78.5671 266.771 78.3618 266.085 78.3618 265.264ZM82.0098 265.264C82.0098 264.635 81.8764 264.117 81.6098 263.712C81.3484 263.307 80.9991 263.104 80.5618 263.104C80.1244 263.104 79.7751 263.307 79.5138 263.712C79.2471 264.117 79.1138 264.635 79.1138 265.264C79.1138 265.893 79.2471 266.413 79.5138 266.824C79.7751 267.224 80.1244 267.424 80.5618 267.424C80.9991 267.424 81.3484 267.221 81.6098 266.816C81.8764 266.405 82.0098 265.888 82.0098 265.264Z" fill="black"/>
<path d="M92.4098 275.528V281H91.6738V276.44L90.6098 276.904L90.3298 276.28L91.9378 275.528H92.4098ZM96.9662 280.296V281H93.4782V280.264L94.8942 278.832C95.3689 278.347 95.6969 277.984 95.8782 277.744C96.0595 277.499 96.1502 277.243 96.1502 276.976C96.1502 276.736 96.0569 276.531 95.8702 276.36C95.6835 276.189 95.4435 276.104 95.1502 276.104C94.8995 276.104 94.6835 276.179 94.5022 276.328C94.3209 276.477 94.2035 276.659 94.1502 276.872L93.4782 276.6C93.5849 276.264 93.7902 275.981 94.0942 275.752C94.3982 275.517 94.7555 275.4 95.1662 275.4C95.6622 275.4 96.0755 275.552 96.4062 275.856C96.7369 276.16 96.9022 276.533 96.9022 276.976C96.9022 277.504 96.6115 278.075 96.0302 278.688L94.4302 280.296H96.9662ZM101.486 276.176L100.55 278.76H102.454L101.518 276.176H101.486ZM99.7421 281H98.9261L101.086 275.272H101.918L104.078 281H103.262L102.71 279.448H100.302L99.7421 281ZM105.486 281H104.75V275.272H105.486L107.478 278.76H107.51L109.502 275.272H110.238V281H109.502V277.6L109.534 276.64H109.502L107.71 279.784H107.278L105.486 276.64H105.454L105.486 277.6V281Z" fill="black"/>
<path d="M131.042 279.488C131.042 279.957 130.863 280.347 130.506 280.656C130.143 280.971 129.703 281.128 129.186 281.128C128.668 281.128 128.228 280.971 127.866 280.656C127.508 280.347 127.33 279.957 127.33 279.488C127.33 279.2 127.407 278.939 127.562 278.704C127.716 278.464 127.938 278.275 128.226 278.136V278.104C128.012 277.965 127.839 277.795 127.706 277.592C127.578 277.389 127.514 277.176 127.514 276.952C127.514 276.509 127.671 276.139 127.986 275.84C128.295 275.547 128.695 275.4 129.186 275.4C129.676 275.4 130.076 275.547 130.386 275.84C130.7 276.139 130.858 276.509 130.858 276.952C130.858 277.176 130.791 277.389 130.658 277.592C130.53 277.795 130.359 277.965 130.146 278.104V278.136C130.434 278.275 130.655 278.464 130.81 278.704C130.964 278.939 131.042 279.2 131.042 279.488ZM128.266 276.936C128.266 277.192 128.351 277.4 128.522 277.56C128.692 277.715 128.914 277.792 129.186 277.792C129.458 277.792 129.679 277.715 129.85 277.56C130.02 277.4 130.106 277.192 130.106 276.936C130.106 276.68 130.02 276.477 129.85 276.328C129.679 276.179 129.458 276.104 129.186 276.104C128.914 276.104 128.692 276.179 128.522 276.328C128.351 276.477 128.266 276.68 128.266 276.936ZM128.082 279.448C128.082 279.592 128.108 279.723 128.162 279.84C128.22 279.957 128.298 280.061 128.394 280.152C128.495 280.237 128.612 280.304 128.746 280.352C128.879 280.4 129.026 280.424 129.186 280.424C129.346 280.424 129.492 280.4 129.626 280.352C129.759 280.304 129.874 280.237 129.97 280.152C130.071 280.061 130.148 279.957 130.202 279.84C130.26 279.723 130.29 279.592 130.29 279.448C130.29 279.171 130.183 278.941 129.97 278.76C129.756 278.573 129.495 278.48 129.186 278.48C128.876 278.48 128.612 278.573 128.394 278.76C128.186 278.947 128.082 279.176 128.082 279.448ZM135.533 276.176L134.597 278.76H136.501L135.565 276.176H135.533ZM133.789 281H132.973L135.133 275.272H135.965L138.125 281H137.309L136.757 279.448H134.349L133.789 281ZM139.533 281H138.797V275.272H139.533L141.525 278.76H141.557L143.549 275.272H144.285V281H143.549V277.6L143.581 276.64H143.549L141.757 279.784H141.325L139.533 276.64H139.501L139.533 277.6V281Z" fill="black"/>
<path d="M171.41 275.528V281H170.674V276.44L169.61 276.904L169.33 276.28L170.938 275.528H171.41ZM172.432 278.264C172.432 277.432 172.637 276.747 173.048 276.208C173.459 275.669 173.987 275.4 174.632 275.4C175.277 275.4 175.805 275.672 176.216 276.216C176.627 276.755 176.832 277.437 176.832 278.264C176.832 279.085 176.627 279.771 176.216 280.32C175.805 280.859 175.277 281.128 174.632 281.128C173.987 281.128 173.459 280.859 173.048 280.32C172.637 279.771 172.432 279.085 172.432 278.264ZM176.08 278.264C176.08 277.635 175.947 277.117 175.68 276.712C175.419 276.307 175.069 276.104 174.632 276.104C174.195 276.104 173.845 276.307 173.584 276.712C173.317 277.117 173.184 277.635 173.184 278.264C173.184 278.893 173.317 279.413 173.584 279.824C173.845 280.224 174.195 280.424 174.632 280.424C175.069 280.424 175.419 280.221 175.68 279.816C175.947 279.405 176.08 278.888 176.08 278.264ZM181.353 276.176L180.417 278.76H182.321L181.385 276.176H181.353ZM179.609 281H178.793L180.953 275.272H181.785L183.945 281H183.129L182.577 279.448H180.169L179.609 281ZM185.353 281H184.617V275.272H185.353L187.345 278.76H187.377L189.369 275.272H190.105V281H189.369V277.6L189.401 276.64H189.369L187.577 279.784H187.145L185.353 276.64H185.321L185.353 277.6V281Z" fill="black"/>
<path d="M214.362 278.264C214.362 277.432 214.567 276.747 214.978 276.208C215.388 275.669 215.916 275.4 216.562 275.4C217.207 275.4 217.735 275.672 218.146 276.216C218.556 276.755 218.762 277.437 218.762 278.264C218.762 279.085 218.556 279.771 218.146 280.32C217.735 280.859 217.207 281.128 216.562 281.128C215.916 281.128 215.388 280.859 214.978 280.32C214.567 279.771 214.362 279.085 214.362 278.264ZM218.01 278.264C218.01 277.635 217.876 277.117 217.61 276.712C217.348 276.307 216.999 276.104 216.562 276.104C216.124 276.104 215.775 276.307 215.514 276.712C215.247 277.117 215.114 277.635 215.114 278.264C215.114 278.893 215.247 279.413 215.514 279.824C215.775 280.224 216.124 280.424 216.562 280.424C216.999 280.424 217.348 280.221 217.61 279.816C217.876 279.405 218.01 278.888 218.01 278.264ZM221.433 275.528V281H220.697V276.44L219.633 276.904L219.353 276.28L220.961 275.528H221.433ZM225.173 278.68V281H224.437V275.272H226.389C226.885 275.272 227.307 275.437 227.653 275.768C228.005 276.099 228.181 276.501 228.181 276.976C228.181 277.461 228.005 277.867 227.653 278.192C227.312 278.517 226.891 278.68 226.389 278.68H225.173ZM225.173 275.976V277.976H226.405C226.699 277.976 226.941 277.877 227.133 277.68C227.331 277.483 227.429 277.248 227.429 276.976C227.429 276.709 227.331 276.477 227.133 276.28C226.941 276.077 226.699 275.976 226.405 275.976H225.173ZM229.689 281H228.953V275.272H229.689L231.681 278.76H231.713L233.705 275.272H234.441V281H233.705V277.6L233.737 276.64H233.705L231.913 279.784H231.481L229.689 276.64H229.657L229.689 277.6V281Z" fill="black"/>
<path d="M259.362 278.264C259.362 277.432 259.567 276.747 259.978 276.208C260.388 275.669 260.916 275.4 261.562 275.4C262.207 275.4 262.735 275.672 263.146 276.216C263.556 276.755 263.762 277.437 263.762 278.264C263.762 279.085 263.556 279.771 263.146 280.32C262.735 280.859 262.207 281.128 261.562 281.128C260.916 281.128 260.388 280.859 259.978 280.32C259.567 279.771 259.362 279.085 259.362 278.264ZM263.01 278.264C263.01 277.635 262.876 277.117 262.61 276.712C262.348 276.307 261.999 276.104 261.562 276.104C261.124 276.104 260.775 276.307 260.514 276.712C260.247 277.117 260.114 277.635 260.114 278.264C260.114 278.893 260.247 279.413 260.514 279.824C260.775 280.224 261.124 280.424 261.562 280.424C261.999 280.424 262.348 280.221 262.61 279.816C262.876 279.405 263.01 278.888 263.01 278.264ZM267.767 279.848V281H267.031V279.848H264.431V279.288L266.967 275.528H267.767V279.16H268.471V279.848H267.767ZM265.263 279.16H267.031V276.608H266.999L265.263 279.16ZM271.892 278.68V281H271.156V275.272H273.108C273.604 275.272 274.025 275.437 274.372 275.768C274.724 276.099 274.9 276.501 274.9 276.976C274.9 277.461 274.724 277.867 274.372 278.192C274.031 278.517 273.609 278.68 273.108 278.68H271.892ZM271.892 275.976V277.976H273.124C273.417 277.976 273.66 277.877 273.852 277.68C274.049 277.483 274.148 277.248 274.148 276.976C274.148 276.709 274.049 276.477 273.852 276.28C273.66 276.077 273.417 275.976 273.124 275.976H271.892ZM276.408 281H275.672V275.272H276.408L278.4 278.76H278.432L280.424 275.272H281.16V281H280.424V277.6L280.456 276.64H280.424L278.632 279.784H278.2L276.408 276.64H276.376L276.408 277.6V281Z" fill="black"/>
<path d="M304.362 278.264C304.362 277.432 304.567 276.747 304.978 276.208C305.388 275.669 305.916 275.4 306.562 275.4C307.207 275.4 307.735 275.672 308.146 276.216C308.556 276.755 308.762 277.437 308.762 278.264C308.762 279.085 308.556 279.771 308.146 280.32C307.735 280.859 307.207 281.128 306.562 281.128C305.916 281.128 305.388 280.859 304.978 280.32C304.567 279.771 304.362 279.085 304.362 278.264ZM308.01 278.264C308.01 277.635 307.876 277.117 307.61 276.712C307.348 276.307 306.999 276.104 306.562 276.104C306.124 276.104 305.775 276.307 305.514 276.712C305.247 277.117 305.114 277.635 305.114 278.264C305.114 278.893 305.247 279.413 305.514 279.824C305.775 280.224 306.124 280.424 306.562 280.424C306.999 280.424 307.348 280.221 307.61 279.816C307.876 279.405 308.01 278.888 308.01 278.264ZM313.143 279.488C313.143 279.957 312.965 280.347 312.607 280.656C312.245 280.971 311.805 281.128 311.287 281.128C310.77 281.128 310.33 280.971 309.967 280.656C309.61 280.347 309.431 279.957 309.431 279.488C309.431 279.2 309.509 278.939 309.663 278.704C309.818 278.464 310.039 278.275 310.327 278.136V278.104C310.114 277.965 309.941 277.795 309.807 277.592C309.679 277.389 309.615 277.176 309.615 276.952C309.615 276.509 309.773 276.139 310.087 275.84C310.397 275.547 310.797 275.4 311.287 275.4C311.778 275.4 312.178 275.547 312.487 275.84C312.802 276.139 312.959 276.509 312.959 276.952C312.959 277.176 312.893 277.389 312.759 277.592C312.631 277.795 312.461 277.965 312.247 278.104V278.136C312.535 278.275 312.757 278.464 312.911 278.704C313.066 278.939 313.143 279.2 313.143 279.488ZM310.367 276.936C310.367 277.192 310.453 277.4 310.623 277.56C310.794 277.715 311.015 277.792 311.287 277.792C311.559 277.792 311.781 277.715 311.951 277.56C312.122 277.4 312.207 277.192 312.207 276.936C312.207 276.68 312.122 276.477 311.951 276.328C311.781 276.179 311.559 276.104 311.287 276.104C311.015 276.104 310.794 276.179 310.623 276.328C310.453 276.477 310.367 276.68 310.367 276.936ZM310.183 279.448C310.183 279.592 310.21 279.723 310.263 279.84C310.322 279.957 310.399 280.061 310.495 280.152C310.597 280.237 310.714 280.304 310.847 280.352C310.981 280.4 311.127 280.424 311.287 280.424C311.447 280.424 311.594 280.4 311.727 280.352C311.861 280.304 311.975 280.237 312.071 280.152C312.173 280.061 312.25 279.957 312.303 279.84C312.362 279.723 312.391 279.592 312.391 279.448C312.391 279.171 312.285 278.941 312.071 278.76C311.858 278.573 311.597 278.48 311.287 278.48C310.978 278.48 310.714 278.573 310.495 278.76C310.287 278.947 310.183 279.176 310.183 279.448ZM316.533 278.68V281H315.797V275.272H317.749C318.245 275.272 318.666 275.437 319.013 275.768C319.365 276.099 319.541 276.501 319.541 276.976C319.541 277.461 319.365 277.867 319.013 278.192C318.671 278.517 318.25 278.68 317.749 278.68H316.533ZM316.533 275.976V277.976H317.765C318.058 277.976 318.301 277.877 318.493 277.68C318.69 277.483 318.789 277.248 318.789 276.976C318.789 276.709 318.69 276.477 318.493 276.28C318.301 276.077 318.058 275.976 317.765 275.976H316.533ZM321.048 281H320.312V275.272H321.048L323.04 278.76H323.072L325.064 275.272H325.8V281H325.064V277.6L325.096 276.64H325.064L323.272 279.784H322.84L321.048 276.64H321.016L321.048 277.6V281Z" fill="black"/>
<path d="M352.41 275.528V281H351.674V276.44L350.61 276.904L350.33 276.28L351.938 275.528H352.41ZM353.432 278.264C353.432 277.432 353.637 276.747 354.048 276.208C354.459 275.669 354.987 275.4 355.632 275.4C356.277 275.4 356.805 275.672 357.216 276.216C357.627 276.755 357.832 277.437 357.832 278.264C357.832 279.085 357.627 279.771 357.216 280.32C356.805 280.859 356.277 281.128 355.632 281.128C354.987 281.128 354.459 280.859 354.048 280.32C353.637 279.771 353.432 279.085 353.432 278.264ZM357.08 278.264C357.08 277.635 356.947 277.117 356.68 276.712C356.419 276.307 356.069 276.104 355.632 276.104C355.195 276.104 354.845 276.307 354.584 276.712C354.317 277.117 354.184 277.635 354.184 278.264C354.184 278.893 354.317 279.413 354.584 279.824C354.845 280.224 355.195 280.424 355.632 280.424C356.069 280.424 356.419 280.221 356.68 279.816C356.947 279.405 357.08 278.888 357.08 278.264ZM361.251 278.68V281H360.515V275.272H362.467C362.963 275.272 363.385 275.437 363.731 275.768C364.083 276.099 364.259 276.501 364.259 276.976C364.259 277.461 364.083 277.867 363.731 278.192C363.39 278.517 362.969 278.68 362.467 278.68H361.251ZM361.251 275.976V277.976H362.483C362.777 277.976 363.019 277.877 363.211 277.68C363.409 277.483 363.507 277.248 363.507 276.976C363.507 276.709 363.409 276.477 363.211 276.28C363.019 276.077 362.777 275.976 362.483 275.976H361.251ZM365.767 281H365.031V275.272H365.767L367.759 278.76H367.791L369.783 275.272H370.519V281H369.783V277.6L369.815 276.64H369.783L367.991 279.784H367.559L365.767 276.64H365.735L365.767 277.6V281Z" fill="black"/>
<path d="M398.41 275.528V281H397.674V276.44L396.61 276.904L396.33 276.28L397.938 275.528H398.41ZM401.48 275.528V281H400.744V276.44L399.68 276.904L399.4 276.28L401.008 275.528H401.48ZM405.22 278.68V281H404.484V275.272H406.436C406.932 275.272 407.354 275.437 407.7 275.768C408.052 276.099 408.228 276.501 408.228 276.976C408.228 277.461 408.052 277.867 407.7 278.192C407.359 278.517 406.938 278.68 406.436 278.68H405.22ZM405.22 275.976V277.976H406.452C406.746 277.976 406.988 277.877 407.18 277.68C407.378 277.483 407.476 277.248 407.476 276.976C407.476 276.709 407.378 276.477 407.18 276.28C406.988 276.077 406.746 275.976 406.452 275.976H405.22ZM409.736 281H409V275.272H409.736L411.728 278.76H411.76L413.752 275.272H414.488V281H413.752V277.6L413.784 276.64H413.752L411.96 279.784H411.528L409.736 276.64H409.704L409.736 277.6V281Z" fill="black"/>
<path d="M92.5098 266C117.51 197 140.853 264.592 161.51 230.5C174.418 209.195 176.331 143.953 207.01 139.5C238.01 135 280.052 229.654 314.51 227.5C386.51 223 447.01 132 484.01 35.5" stroke="black" stroke-width="3" stroke-linecap="round"/>
<circle cx="136.01" cy="221" r="9" fill="#020A13" fill-opacity="0.5"/>
<circle cx="205.01" cy="141" r="9" fill="#020A13" fill-opacity="0.5"/>
<circle cx="359.01" cy="213" r="9" fill="#020A13" fill-opacity="0.5"/>
<circle cx="136.01" cy="221" r="4" fill="#020A13"/>
<circle cx="205.01" cy="141" r="4" fill="#020A13"/>
<circle cx="359.01" cy="213" r="4" fill="#020A13"/>
<path fill-rule="evenodd" clip-rule="evenodd" d="M150.01 73C144.487 73 140.01 77.4772 140.01 83V114C140.01 119.523 144.487 124 150.01 124H194.614C196.507 124 198.35 124.603 199.876 125.721L201.698 127.055C204.366 129.009 208.082 128.616 210.282 126.148C211.5 124.781 213.244 124 215.074 124H221.01C226.533 124 231.01 119.523 231.01 114V83C231.01 77.4772 226.533 73 221.01 73H150.01Z" fill="#020A13" fill-opacity="0.5"/>
<path fill-rule="evenodd" clip-rule="evenodd" d="M155.01 70C149.487 70 145.01 74.4772 145.01 80V111C145.01 116.523 149.487 121 155.01 121H194.873C196.879 121 198.838 121.603 200.496 122.731L202.557 124.132C205.417 126.077 209.262 125.674 211.657 123.18C212.994 121.787 214.841 121 216.771 121H224.01C229.533 121 234.01 116.523 234.01 111V80C234.01 74.4772 229.533 70 224.01 70H155.01Z" fill="#020A13"/>
<path d="M156.274 106.948C156.274 106.324 156.428 105.81 156.736 105.406C157.044 105.002 157.44 104.8 157.924 104.8C158.408 104.8 158.804 105.004 159.112 105.412C159.42 105.816 159.574 106.328 159.574 106.948C159.574 107.564 159.42 108.078 159.112 108.49C158.804 108.894 158.408 109.096 157.924 109.096C157.44 109.096 157.044 108.894 156.736 108.49C156.428 108.078 156.274 107.564 156.274 106.948ZM159.01 106.948C159.01 106.476 158.91 106.088 158.71 105.784C158.514 105.48 158.252 105.328 157.924 105.328C157.596 105.328 157.334 105.48 157.138 105.784C156.938 106.088 156.838 106.476 156.838 106.948C156.838 107.42 156.938 107.81 157.138 108.118C157.334 108.418 157.596 108.568 157.924 108.568C158.252 108.568 158.514 108.416 158.71 108.112C158.91 107.804 159.01 107.416 159.01 106.948ZM162.633 108.472V109H160.017V108.448L161.079 107.374C161.435 107.01 161.681 106.738 161.817 106.558C161.953 106.374 162.021 106.182 162.021 105.982C162.021 105.802 161.951 105.648 161.811 105.52C161.671 105.392 161.491 105.328 161.271 105.328C161.083 105.328 160.921 105.384 160.785 105.496C160.649 105.608 160.561 105.744 160.521 105.904L160.017 105.7C160.097 105.448 160.251 105.236 160.479 105.064C160.707 104.888 160.975 104.8 161.283 104.8C161.655 104.8 161.965 104.914 162.213 105.142C162.461 105.37 162.585 105.65 162.585 105.982C162.585 106.378 162.367 106.806 161.931 107.266L160.731 108.472H162.633ZM164.645 109V104.704H165.959C166.615 104.704 167.141 104.902 167.537 105.298C167.937 105.694 168.137 106.212 168.137 106.852C168.137 107.496 167.937 108.016 167.537 108.412C167.141 108.804 166.615 109 165.959 109H164.645ZM165.197 105.232V108.472H165.959C166.459 108.472 166.853 108.33 167.141 108.046C167.429 107.758 167.573 107.36 167.573 106.852C167.573 106.348 167.429 105.952 167.141 105.664C166.853 105.376 166.459 105.232 165.959 105.232H165.197ZM169.929 109.096C169.497 109.096 169.141 108.948 168.861 108.652C168.581 108.356 168.441 107.982 168.441 107.53C168.441 107.082 168.577 106.71 168.849 106.414C169.121 106.114 169.469 105.964 169.893 105.964C170.329 105.964 170.675 106.106 170.931 106.39C171.191 106.67 171.321 107.064 171.321 107.572L171.315 107.632H169.005C169.013 107.92 169.109 108.152 169.293 108.328C169.477 108.504 169.697 108.592 169.953 108.592C170.305 108.592 170.581 108.416 170.781 108.064L171.273 108.304C171.141 108.552 170.957 108.746 170.721 108.886C170.489 109.026 170.225 109.096 169.929 109.096ZM169.047 107.176H170.733C170.717 106.972 170.633 106.804 170.481 106.672C170.333 106.536 170.133 106.468 169.881 106.468C169.673 106.468 169.493 106.532 169.341 106.66C169.193 106.788 169.095 106.96 169.047 107.176ZM173.2 109.096C172.764 109.096 172.402 108.948 172.114 108.652C171.83 108.348 171.688 107.974 171.688 107.53C171.688 107.078 171.83 106.704 172.114 106.408C172.402 106.112 172.764 105.964 173.2 105.964C173.5 105.964 173.762 106.04 173.986 106.192C174.21 106.34 174.378 106.546 174.49 106.81L173.986 107.02C173.83 106.652 173.556 106.468 173.164 106.468C172.912 106.468 172.694 106.57 172.51 106.774C172.33 106.978 172.24 107.23 172.24 107.53C172.24 107.83 172.33 108.082 172.51 108.286C172.694 108.49 172.912 108.592 173.164 108.592C173.568 108.592 173.852 108.408 174.016 108.04L174.508 108.25C174.4 108.514 174.23 108.722 173.998 108.874C173.77 109.022 173.504 109.096 173.2 109.096ZM178.829 108.472V109H176.213V108.448L177.275 107.374C177.631 107.01 177.877 106.738 178.013 106.558C178.149 106.374 178.217 106.182 178.217 105.982C178.217 105.802 178.147 105.648 178.007 105.52C177.867 105.392 177.687 105.328 177.467 105.328C177.279 105.328 177.117 105.384 176.981 105.496C176.845 105.608 176.757 105.744 176.717 105.904L176.213 105.7C176.293 105.448 176.447 105.236 176.675 105.064C176.903 104.888 177.171 104.8 177.479 104.8C177.851 104.8 178.161 104.914 178.409 105.142C178.657 105.37 178.781 105.65 178.781 105.982C178.781 106.378 178.563 106.806 178.127 107.266L176.927 108.472H178.829ZM179.354 106.948C179.354 106.324 179.508 105.81 179.816 105.406C180.124 105.002 180.52 104.8 181.004 104.8C181.488 104.8 181.884 105.004 182.192 105.412C182.5 105.816 182.654 106.328 182.654 106.948C182.654 107.564 182.5 108.078 182.192 108.49C181.884 108.894 181.488 109.096 181.004 109.096C180.52 109.096 180.124 108.894 179.816 108.49C179.508 108.078 179.354 107.564 179.354 106.948ZM182.09 106.948C182.09 106.476 181.99 106.088 181.79 105.784C181.594 105.48 181.332 105.328 181.004 105.328C180.676 105.328 180.414 105.48 180.218 105.784C180.018 106.088 179.918 106.476 179.918 106.948C179.918 107.42 180.018 107.81 180.218 108.118C180.414 108.418 180.676 108.568 181.004 108.568C181.332 108.568 181.594 108.416 181.79 108.112C181.99 107.804 182.09 107.416 182.09 106.948ZM185.713 108.472V109H183.097V108.448L184.159 107.374C184.515 107.01 184.761 106.738 184.897 106.558C185.033 106.374 185.101 106.182 185.101 105.982C185.101 105.802 185.031 105.648 184.891 105.52C184.751 105.392 184.571 105.328 184.351 105.328C184.163 105.328 184.001 105.384 183.865 105.496C183.729 105.608 183.641 105.744 183.601 105.904L183.097 105.7C183.177 105.448 183.331 105.236 183.559 105.064C183.787 104.888 184.055 104.8 184.363 104.8C184.735 104.8 185.045 104.914 185.293 105.142C185.541 105.37 185.665 105.65 185.665 105.982C185.665 106.378 185.447 106.806 185.011 107.266L183.811 108.472H185.713ZM187.716 104.896V109H187.164V105.58L186.366 105.928L186.156 105.46L187.362 104.896H187.716ZM192.655 104.896V109H192.103V105.58L191.305 105.928L191.095 105.46L192.301 104.896H192.655ZM194.958 104.896V109H194.406V105.58L193.608 105.928L193.398 105.46L194.604 104.896H194.958ZM196.565 106.432C196.565 106.544 196.525 106.64 196.445 106.72C196.369 106.8 196.273 106.84 196.157 106.84C196.045 106.84 195.949 106.8 195.869 106.72C195.789 106.64 195.749 106.544 195.749 106.432C195.749 106.316 195.789 106.22 195.869 106.144C195.949 106.064 196.045 106.024 196.157 106.024C196.273 106.024 196.369 106.064 196.445 106.144C196.525 106.22 196.565 106.316 196.565 106.432ZM196.565 108.628C196.565 108.74 196.525 108.836 196.445 108.916C196.369 108.996 196.273 109.036 196.157 109.036C196.045 109.036 195.949 108.996 195.869 108.916C195.789 108.836 195.749 108.74 195.749 108.628C195.749 108.512 195.789 108.416 195.869 108.34C195.949 108.26 196.045 108.22 196.157 108.22C196.273 108.22 196.369 108.26 196.445 108.34C196.525 108.416 196.565 108.512 196.565 108.628ZM197.119 106.948C197.119 106.324 197.273 105.81 197.581 105.406C197.889 105.002 198.285 104.8 198.769 104.8C199.253 104.8 199.649 105.004 199.957 105.412C200.265 105.816 200.419 106.328 200.419 106.948C200.419 107.564 200.265 108.078 199.957 108.49C199.649 108.894 199.253 109.096 198.769 109.096C198.285 109.096 197.889 108.894 197.581 108.49C197.273 108.078 197.119 107.564 197.119 106.948ZM199.855 106.948C199.855 106.476 199.755 106.088 199.555 105.784C199.359 105.48 199.097 105.328 198.769 105.328C198.441 105.328 198.179 105.48 197.983 105.784C197.783 106.088 197.683 106.476 197.683 106.948C197.683 107.42 197.783 107.81 197.983 108.118C198.179 108.418 198.441 108.568 198.769 108.568C199.097 108.568 199.359 108.416 199.555 108.112C199.755 107.804 199.855 107.416 199.855 106.948ZM200.946 106.948C200.946 106.324 201.1 105.81 201.408 105.406C201.716 105.002 202.112 104.8 202.596 104.8C203.08 104.8 203.476 105.004 203.784 105.412C204.092 105.816 204.246 106.328 204.246 106.948C204.246 107.564 204.092 108.078 203.784 108.49C203.476 108.894 203.08 109.096 202.596 109.096C202.112 109.096 201.716 108.894 201.408 108.49C201.1 108.078 200.946 107.564 200.946 106.948ZM203.682 106.948C203.682 106.476 203.582 106.088 203.382 105.784C203.186 105.48 202.924 105.328 202.596 105.328C202.268 105.328 202.006 105.48 201.81 105.784C201.61 106.088 201.51 106.476 201.51 106.948C201.51 107.42 201.61 107.81 201.81 108.118C202.006 108.418 202.268 108.568 202.596 108.568C202.924 108.568 203.186 108.416 203.382 108.112C203.582 107.804 203.682 107.416 203.682 106.948ZM207.637 105.382L206.935 107.32H208.363L207.661 105.382H207.637ZM206.329 109H205.717L207.337 104.704H207.961L209.581 109H208.969L208.555 107.836H206.749L206.329 109ZM210.636 109H210.084V104.704H210.636L212.13 107.32H212.154L213.648 104.704H214.2V109H213.648V106.45L213.672 105.73H213.648L212.304 108.088H211.98L210.636 105.73H210.612L210.636 106.45V109Z" fill="white"/>
<path d="M160.648 82.852C160.648 83.488 160.436 84.02 160.012 84.448C159.584 84.88 159.06 85.096 158.44 85.096C157.816 85.096 157.292 84.88 156.868 84.448C156.444 84.02 156.232 83.488 156.232 82.852C156.232 82.216 156.444 81.684 156.868 81.256C157.292 80.824 157.816 80.608 158.44 80.608C159.064 80.608 159.588 80.826 160.012 81.262C160.436 81.69 160.648 82.22 160.648 82.852ZM156.796 82.852C156.796 83.348 156.952 83.758 157.264 84.082C157.58 84.406 157.972 84.568 158.44 84.568C158.908 84.568 159.298 84.406 159.61 84.082C159.926 83.762 160.084 83.352 160.084 82.852C160.084 82.352 159.926 81.942 159.61 81.622C159.298 81.298 158.908 81.136 158.44 81.136C157.972 81.136 157.58 81.298 157.264 81.622C156.952 81.946 156.796 82.356 156.796 82.852ZM162.643 84.592C162.907 84.592 163.129 84.492 163.309 84.292C163.489 84.096 163.579 83.842 163.579 83.53C163.579 83.222 163.489 82.968 163.309 82.768C163.129 82.568 162.907 82.468 162.643 82.468C162.375 82.468 162.151 82.568 161.971 82.768C161.795 82.968 161.707 83.222 161.707 83.53C161.707 83.842 161.795 84.098 161.971 84.298C162.151 84.494 162.375 84.592 162.643 84.592ZM162.733 85.096C162.517 85.096 162.319 85.05 162.139 84.958C161.963 84.866 161.827 84.744 161.731 84.592H161.707L161.731 85V86.296H161.179V82.06H161.707V82.468H161.731C161.827 82.316 161.963 82.194 162.139 82.102C162.319 82.01 162.517 81.964 162.733 81.964C163.121 81.964 163.449 82.116 163.717 82.42C163.993 82.728 164.131 83.098 164.131 83.53C164.131 83.966 163.993 84.336 163.717 84.64C163.449 84.944 163.121 85.096 162.733 85.096ZM165.957 85.096C165.525 85.096 165.169 84.948 164.889 84.652C164.609 84.356 164.469 83.982 164.469 83.53C164.469 83.082 164.605 82.71 164.877 82.414C165.149 82.114 165.497 81.964 165.921 81.964C166.357 81.964 166.703 82.106 166.959 82.39C167.219 82.67 167.349 83.064 167.349 83.572L167.343 83.632H165.033C165.041 83.92 165.137 84.152 165.321 84.328C165.505 84.504 165.725 84.592 165.981 84.592C166.333 84.592 166.609 84.416 166.809 84.064L167.301 84.304C167.169 84.552 166.985 84.746 166.749 84.886C166.517 85.026 166.253 85.096 165.957 85.096ZM165.075 83.176H166.761C166.745 82.972 166.661 82.804 166.509 82.672C166.361 82.536 166.161 82.468 165.909 82.468C165.701 82.468 165.521 82.532 165.369 82.66C165.221 82.788 165.123 82.96 165.075 83.176ZM167.854 82.06H168.382V82.468H168.406C168.49 82.324 168.618 82.204 168.79 82.108C168.966 82.012 169.148 81.964 169.336 81.964C169.696 81.964 169.972 82.068 170.164 82.276C170.36 82.48 170.458 82.772 170.458 83.152V85H169.906V83.188C169.894 82.708 169.652 82.468 169.18 82.468C168.96 82.468 168.776 82.558 168.628 82.738C168.48 82.914 168.406 83.126 168.406 83.374V85H167.854V82.06ZM173.326 84.184C173.326 84.44 173.214 84.656 172.99 84.832C172.766 85.008 172.484 85.096 172.144 85.096C171.848 85.096 171.588 85.02 171.364 84.868C171.14 84.712 170.98 84.508 170.884 84.256L171.376 84.046C171.448 84.222 171.552 84.36 171.688 84.46C171.828 84.556 171.98 84.604 172.144 84.604C172.32 84.604 172.466 84.566 172.582 84.49C172.702 84.414 172.762 84.324 172.762 84.22C172.762 84.032 172.618 83.894 172.33 83.806L171.826 83.68C171.254 83.536 170.968 83.26 170.968 82.852C170.968 82.584 171.076 82.37 171.292 82.21C171.512 82.046 171.792 81.964 172.132 81.964C172.392 81.964 172.626 82.026 172.834 82.15C173.046 82.274 173.194 82.44 173.278 82.648L172.786 82.852C172.73 82.728 172.638 82.632 172.51 82.564C172.386 82.492 172.246 82.456 172.09 82.456C171.946 82.456 171.816 82.492 171.7 82.564C171.588 82.636 171.532 82.724 171.532 82.828C171.532 82.996 171.69 83.116 172.006 83.188L172.45 83.302C173.034 83.446 173.326 83.74 173.326 84.184Z" fill="white"/>
<path d="M159.739 93.016H156.45L156.472 91.476H161.697V93.082L158.199 99.176L156.835 98.406L159.794 93.126L159.739 93.016ZM165.174 99.176C164.749 99.176 164.36 99.1173 164.008 99C163.663 98.8827 163.366 98.7213 163.117 98.516C162.875 98.3107 162.688 98.0723 162.556 97.801C162.424 97.5223 162.358 97.2217 162.358 96.899C162.358 96.679 162.387 96.4773 162.446 96.294C162.512 96.1033 162.596 95.931 162.699 95.777C162.809 95.623 162.93 95.491 163.062 95.381C163.194 95.2637 163.33 95.1647 163.469 95.084V94.974C163.242 94.8127 163.04 94.6037 162.864 94.347C162.695 94.0903 162.611 93.7787 162.611 93.412C162.611 93.1113 162.673 92.8327 162.798 92.576C162.93 92.312 163.11 92.0883 163.337 91.905C163.572 91.7143 163.843 91.5677 164.151 91.465C164.466 91.355 164.807 91.3 165.174 91.3C165.541 91.3 165.878 91.355 166.186 91.465C166.501 91.5677 166.773 91.7143 167 91.905C167.235 92.0883 167.414 92.312 167.539 92.576C167.671 92.8327 167.737 93.1113 167.737 93.412C167.737 93.7787 167.649 94.0903 167.473 94.347C167.304 94.6037 167.106 94.8127 166.879 94.974V95.084C167.018 95.1647 167.154 95.2637 167.286 95.381C167.418 95.491 167.535 95.623 167.638 95.777C167.748 95.931 167.832 96.1033 167.891 96.294C167.957 96.4773 167.99 96.679 167.99 96.899C167.99 97.2217 167.924 97.5223 167.792 97.801C167.66 98.0723 167.469 98.3107 167.22 98.516C166.978 98.7213 166.681 98.8827 166.329 99C165.984 99.1173 165.599 99.176 165.174 99.176ZM165.174 94.369C165.453 94.369 165.687 94.2957 165.878 94.149C166.069 93.995 166.164 93.797 166.164 93.555C166.164 93.3057 166.069 93.1113 165.878 92.972C165.687 92.8253 165.453 92.752 165.174 92.752C164.895 92.752 164.661 92.8253 164.47 92.972C164.279 93.1113 164.184 93.3057 164.184 93.555C164.184 93.797 164.279 93.995 164.47 94.149C164.661 94.2957 164.895 94.369 165.174 94.369ZM165.174 97.658C165.526 97.658 165.808 97.5737 166.021 97.405C166.234 97.229 166.34 97.0017 166.34 96.723C166.34 96.4517 166.23 96.2317 166.01 96.063C165.797 95.887 165.519 95.799 165.174 95.799C164.829 95.799 164.547 95.887 164.327 96.063C164.114 96.2317 164.008 96.4517 164.008 96.723C164.008 97.0017 164.114 97.229 164.327 97.405C164.54 97.5737 164.822 97.658 165.174 97.658ZM171.637 91.124H173.353V94.16H173.463L176.059 91.124H178.094V91.234L175.289 94.435L178.435 98.89V99H176.345L174.101 95.799L173.353 96.668V99H171.637V91.124Z" fill="white"/>
<path d="M152.978 347.847C150.423 354.778 146.127 360.827 140.558 365.332C134.989 369.837 128.363 372.624 121.406 373.387C114.448 374.15 107.428 372.861 101.113 369.66C94.7983 366.459 89.4326 361.47 85.6039 355.239C81.7751 349.008 79.6308 341.776 79.4059 334.334C79.181 326.893 80.8841 319.529 84.3288 313.049C87.7734 306.569 92.8266 301.223 98.9352 297.597C105.044 293.97 111.972 292.203 118.961 292.489L117.86 323.001C116.131 322.931 114.417 323.368 112.906 324.265C111.395 325.162 110.145 326.484 109.293 328.087C108.441 329.69 108.02 331.512 108.075 333.353C108.131 335.193 108.661 336.982 109.609 338.524C110.556 340.065 111.883 341.299 113.445 342.091C115.007 342.883 116.744 343.202 118.465 343.013C120.186 342.824 121.825 342.135 123.203 341.02C124.58 339.906 125.643 338.41 126.275 336.695L152.978 347.847Z" fill="#020A13"/>
<path d="M145.526 348.508C144.524 347.84 144.285 348.746 143.904 349.271C139.181 356.184 133.217 361.619 125.346 364.718C121.482 366.243 117.522 367.53 113.228 367.244C112.083 367.149 111.654 366.863 111.654 365.623C111.654 361.952 111.988 358.281 112.227 354.61C112.656 347.984 113.085 341.404 113.896 334.825C114.135 333.013 114.755 331.106 113.896 329.247L113.085 328.675C112.656 328.627 112.274 328.58 111.893 328.77C111.606 328.913 111.32 329.104 110.986 329.199C109.937 329.533 108.935 329.915 107.933 330.296C107.647 330.344 107.408 330.391 107.122 330.487C103.544 332.108 99.8228 333.204 96.1971 334.682C92.953 335.969 89.6613 337.352 86.3218 338.353C86.0355 338.448 85.797 338.544 85.5108 338.639C82.0759 340.117 78.641 341.595 75.1584 342.882C74.2043 343.407 74.5382 344.122 74.9199 344.789C76.3511 347.221 77.7346 349.652 79.4997 351.941C83.1254 356.708 86.9897 360.999 92.6191 363.526C97.1989 365.576 101.636 367.864 106.645 368.484C106.74 368.484 106.788 368.484 106.836 368.532H106.883C107.026 368.532 107.17 368.532 107.36 368.579C108.362 368.484 109.412 368.579 110.414 368.77C111.559 369.008 112.799 369.008 113.992 369.056C114.803 368.961 115.566 368.913 116.377 368.865C116.616 368.818 116.854 368.77 117.14 368.77C118.953 368.198 120.814 367.721 122.674 367.34C124.63 366.911 126.491 366.529 128.256 365.48C129.115 364.956 129.926 364.432 130.832 364.05C131.309 363.859 132.168 363.621 132.597 363.24C132.931 362.954 133.265 362.763 133.647 362.572C135.317 361.237 136.939 359.902 138.513 358.472C141.184 356.041 143.713 353.514 145.43 350.272C145.669 349.748 146.194 349.175 145.526 348.508Z" fill="#161121"/>
<path d="M145.525 348.508C144.81 348.174 144.619 348.746 144.38 349.175C142.52 352.56 139.896 355.183 137.034 357.757C134.744 359.807 132.406 361.857 129.639 363.192C127.492 364.241 125.298 365.194 123.008 365.957C120.623 366.768 118.285 367.387 115.804 367.626C115.47 367.673 115.184 367.673 114.802 367.626C113.562 367.483 111.892 368.15 111.272 367.244C110.7 366.434 111.177 364.861 111.224 363.621C111.844 354.181 112.178 344.694 113.467 335.302C113.753 333.299 113.753 331.297 113.896 329.247C115.279 330.487 116.901 331.345 118.476 332.203C122.96 334.682 127.54 336.97 132.024 339.45C136.366 341.881 140.564 344.503 144.905 346.982C145.621 347.459 145.287 348.031 145.525 348.508Z" fill="#D6FDFB"/>
<path d="M99.2979 291.25C103.114 290.487 106.979 289.915 110.938 290.01C113.181 290.058 115.47 289.82 117.713 290.392C119.048 291.822 119.144 293.395 118.19 295.064C117.57 295.731 116.997 296.447 116.759 297.4C115.327 299.021 114.946 301.166 113.992 303.073C113.419 304.218 112.894 305.41 112.703 306.697C112.465 308.175 111.225 308.938 109.984 309.51C108.267 310.272 106.645 311.417 104.736 311.798C106.645 311.417 108.219 310.225 109.984 309.557C110.509 309.367 110.938 308.651 111.511 309.224C112.083 309.748 111.415 310.272 111.177 310.749C109.125 312.609 107.169 314.516 105.214 316.47C104.736 316.947 104.164 317.185 103.544 316.661C102.828 315.994 102.256 315.231 101.779 314.373C101.302 313.562 101.492 313.085 102.399 312.799C101.54 313.085 100.729 312.99 100.061 312.323C97.2942 309.653 94.0024 307.889 90.3767 306.744C88.8978 306.268 88.8978 305.982 89.5657 304.551C91.474 300.594 93.8593 296.971 96.674 293.634C96.7694 293.538 96.8171 293.443 96.9125 293.348C97.7236 292.68 98.4392 291.917 99.2979 291.25Z" fill="#8CFEE0"/>
<path d="M164.465 324.957C164.275 328.532 162.939 331.774 161.794 335.112C161.698 335.398 161.46 335.445 161.221 335.398C160.935 334.873 160.41 334.587 159.885 334.349C151.489 329.772 142.807 325.767 134.315 321.381C132.168 320.284 129.973 319.236 127.731 318.425C127.206 318.234 126.729 318.044 126.3 317.758C125.68 317.329 125.537 316.852 126.205 316.375C128.876 314.563 131.357 312.466 134.172 310.892C135.078 310.749 135.46 311.369 135.889 311.941C136.986 313.467 138.036 315.04 139.276 316.47C140.946 318.377 142.95 319.712 145.383 320.38C147.911 321.047 150.774 319.903 151.489 317.376C152.634 314.993 152.729 314.993 154.638 316.852C157.166 319.283 159.886 321.429 162.7 323.479C163.273 323.908 163.941 324.289 164.418 324.814C164.418 324.814 164.465 324.909 164.465 324.957Z" fill="#9B57FE"/>
<path d="M85.7016 338.925C82.6961 340.499 79.452 341.452 76.3988 342.883C75.9694 343.073 75.5878 343.121 75.1584 342.93C73.5364 340.022 72.6777 336.923 72.3437 333.633C72.1052 331.345 72.0098 329.104 72.0098 326.816C72.0098 324.766 72.0575 322.668 72.9162 320.761C73.8226 318.663 73.8226 316.375 74.4905 314.23C74.5859 313.944 74.5382 313.514 74.9199 313.324C77.0667 316.184 79.8337 318.425 82.8392 320.237C84.3181 321.143 85.0337 322.144 84.652 323.717C84.2704 325.433 84.5089 327.15 84.5089 328.866C84.5566 331.297 84.5566 333.776 85.3199 336.113C85.4631 336.589 85.7493 337.209 85.1768 337.591C84.5566 338.067 84.1273 337.448 83.6979 337.114C83.0777 336.637 82.4098 336.256 81.885 335.731C80.2153 334.73 78.9272 333.252 77.83 332.442C78.8318 333.3 80.1199 334.73 81.8373 335.636C82.6961 336.446 83.6979 337.114 84.652 337.781C85.1291 338.067 85.6062 338.306 85.7016 338.925Z" fill="#8CFEE0"/>
<path d="M154.782 293.586C156.165 293.967 156.929 295.064 157.644 296.113C160.268 299.879 162.797 303.693 163.942 308.222C165.087 312.656 165.134 317.185 164.896 321.714C164.848 322.811 164.991 323.908 164.514 325.004L164.419 324.909C162.844 322.954 160.65 321.762 158.837 320.093C157.119 318.568 155.307 317.042 153.685 315.421C153.017 314.754 152.826 313.991 152.969 313.038C153.923 307.889 153.923 302.692 153.685 297.448C153.685 297.162 153.732 296.828 153.589 296.589C152.921 295.159 153.685 294.301 154.782 293.586Z" fill="#9B57FE"/>
<path d="M154.782 293.586C154.782 293.729 154.829 293.968 154.734 294.015C153.351 294.731 153.828 295.875 153.923 296.971C154.352 301.214 154.162 305.458 153.78 309.701C153.685 310.797 153.685 311.894 153.351 312.99C153.017 313.991 153.351 314.659 154.162 315.422C157.31 318.33 160.554 321.143 164.085 323.622C164.657 324.003 164.514 324.385 164.419 324.861C163.274 324.623 162.558 323.765 161.699 323.097C158.98 321 156.213 318.902 153.828 316.423C153.541 316.137 153.16 315.898 152.73 315.565C152.349 316.232 152.062 316.804 151.729 317.376C151.585 317.424 151.49 317.424 151.347 317.329C151.156 317.138 151.061 316.9 151.156 316.661C151.919 315.136 151.156 314.134 150.107 313.133C147.387 310.463 145.813 307.078 144.477 303.503C141.376 305.553 138.752 308.08 135.842 310.225C135.413 310.749 134.697 310.654 134.22 310.988C131.453 312.943 128.686 314.897 125.824 316.9C127.494 318.187 129.497 318.616 131.262 319.426C136.653 321.906 141.758 324.957 147.149 327.341C151.824 329.438 156.118 332.156 160.745 334.301C161.27 334.54 161.604 334.778 161.174 335.35C159.934 336.351 158.885 335.207 157.74 335.064C156.499 334.826 155.45 334.063 154.4 333.443C152.969 332.633 151.49 331.87 149.773 332.06C149.534 332.108 149.296 332.013 149.057 331.965C148.628 331.87 147.864 332.013 147.96 331.393C148.007 330.821 148.723 331.012 149.2 331.012C149.391 331.059 149.248 330.821 149.248 331.012C149.248 331.059 149.2 331.012 149.105 331.012C148.866 330.964 148.675 330.821 148.484 330.678C147.96 330.058 147.34 329.581 146.576 329.391C144.573 328.962 142.951 327.627 141.185 326.768C140.708 326.435 140.136 326.196 139.659 325.863C139.229 325.624 138.8 325.529 138.418 325.195C137.894 324.671 137.273 324.432 136.51 324.671C136.081 324.814 135.556 324.766 135.127 324.623C135.031 324.575 134.936 324.48 134.84 324.385C134.697 324.051 135.317 324.051 135.174 323.67C132.789 322.239 130.308 321.095 127.637 320.285C126.969 319.999 126.539 319.331 125.776 319.283C122.866 318.902 119.956 318.95 117.093 318.378C116.378 318.235 115.519 318.235 115.138 317.424C115.09 317.281 115.138 317.138 115.281 317.043C116.33 316.614 117.38 317.043 118.382 317.186C119.908 317.424 121.435 317.519 122.961 317.71C123.868 317.805 124.345 317.567 124.679 316.757C124.87 316.28 125.251 315.898 125.585 315.374C123.295 315.374 121.101 315.708 118.954 315.946C118.429 315.994 117.905 316.184 117.475 315.66C117.427 315.422 117.523 315.231 117.666 315.088C117.761 314.993 117.905 314.897 118.048 314.85C118.382 314.707 118.763 314.611 119.097 314.516C121.626 314.42 124.154 313.753 126.73 313.896C127.255 313.944 127.637 313.61 128.018 313.324C129.259 312.227 130.69 311.417 131.93 310.368C132.312 310.034 132.884 309.891 132.741 309.176C134.459 308.89 135.413 307.46 137.035 306.411C134.65 306.506 132.646 306.077 130.594 306.077C129.831 306.077 129.211 305.934 130.07 305.028C132.264 304.599 134.506 304.838 136.701 304.885C138.371 304.933 139.706 304.456 140.804 303.074C140.279 302.597 139.611 302.597 138.991 302.502C137.941 302.359 136.939 301.977 135.938 301.643C135.508 301.5 134.936 301.31 135.174 300.642C135.365 300.07 135.89 300.07 136.415 300.166C137.56 300.499 138.705 300.881 139.85 301.214C141.662 301.787 143.284 301.739 144.525 299.736C142.378 299.784 140.327 299.498 138.275 299.45C137.75 299.45 137.083 299.689 136.939 298.831C137.13 298.64 137.321 298.449 137.56 298.259C138.562 297.686 139.611 297.829 140.661 297.972C141.853 298.163 143.094 298.068 144.286 298.211C146.242 298.449 147.721 297.639 149.057 296.304C149.963 295.35 150.965 294.492 152.158 293.968C152.874 293.443 153.78 293.157 154.782 293.586Z" fill="#181225"/>
<path d="M117.617 314.945C117.521 315.088 117.426 315.183 117.33 315.326C117.092 315.851 116.853 316.47 116.09 316.137C115.756 315.469 116.185 314.945 116.472 314.373C117.903 311.512 118.762 308.461 119.191 304.885C117.283 306.363 115.136 306.888 113.466 308.318C113.037 308.652 112.703 309.033 112.607 309.605C111.94 313.181 111.415 316.756 111.367 320.38C111.367 320.666 111.415 320.952 111.558 321.333C112.655 320.284 113.323 318.997 114.468 318.091C114.993 317.948 115.327 318.187 115.518 318.663C115.231 320.523 113.514 321.333 112.607 322.716C112.273 323.193 111.653 323.526 111.701 324.242C111.606 325.767 112.273 327.15 112.083 328.628C111.987 328.771 111.94 328.914 111.844 329.057C111.749 329.295 111.558 329.486 111.272 329.486C110.365 328.675 110.604 327.531 110.318 326.53C110.174 325.958 110.127 325.386 109.984 324.814C109.554 324.909 109.316 325.338 108.934 325.481C107.98 325.862 107.884 326.53 108.075 327.483C108.266 328.532 108.791 329.629 108.075 330.678C107.789 330.725 107.503 330.773 107.264 330.821C106.978 330.01 106.835 329.152 106.787 328.294C106.74 327.388 106.406 326.959 105.404 327.293C102.255 328.389 99.1064 327.96 95.9578 327.293C92.666 326.625 89.5651 325.433 86.7027 323.669C85.4623 322.907 85.2715 323.05 85.2238 324.528C85.0807 329.057 85.3192 333.538 86.4642 337.924C86.5119 338.163 86.5119 338.401 86.4165 338.64C86.2733 338.973 86.0348 338.973 85.7486 338.973C84.5559 337.829 82.8862 337.209 81.8843 335.731L81.932 335.684C82.743 336.256 83.6018 336.828 84.4128 337.352C84.6036 337.495 84.8898 337.734 85.1761 337.448C85.3669 337.257 85.2715 337.019 85.1761 336.78C84.2697 334.253 84.3174 331.584 84.1265 328.961C83.9357 326.959 84.0788 324.909 84.3651 322.907C84.5082 321.858 84.0311 321.381 83.4109 321.047C81.5981 320.046 80.0238 318.854 78.5449 317.376C77.9724 316.804 77.2091 316.28 76.5412 315.755C75.7302 315.183 74.9191 314.516 74.9669 313.324L75.0146 313.276C75.7779 312.895 76.1118 313.515 76.4458 313.896C78.4017 316.232 80.9302 317.853 83.2678 319.712C84.0311 320.284 84.2697 320.046 84.5082 319.236C85.033 317.281 84.8898 315.183 85.7486 313.276C85.9394 312.847 85.6531 312.513 85.2715 312.323C82.4568 310.892 80.8348 308.509 79.6421 305.743C79.6421 305.124 80.2146 304.838 80.4531 304.361C82.5999 304.361 84.7467 304.742 86.8458 305.124C88.0385 305.314 88.611 305.124 89.088 304.075C90.3284 301.31 92.0936 298.831 93.6679 296.256C94.1926 295.446 94.8128 294.73 95.4807 294.015C95.8624 293.586 96.2917 293.109 96.9596 293.539C97.0073 293.872 96.8165 294.063 96.6257 294.301C93.7156 297.543 91.6642 301.357 89.5174 305.171C89.0403 305.982 89.6605 306.268 90.1376 306.411C92.2367 306.935 94.1449 307.841 96.0055 308.89C97.4844 309.748 98.8679 310.702 100.013 311.941C100.728 312.704 101.349 312.847 102.303 312.513C102.589 312.418 103.162 311.846 103.352 312.513C103.495 313.085 102.828 313.085 102.446 313.228C102.255 313.324 101.969 313.324 101.683 313.419C102.017 314.659 103.066 315.469 103.639 316.518C105.07 317.615 105.499 319.331 106.167 320.857C106.167 322.191 107.121 323.145 107.264 324.528C108.266 324.051 109.411 323.955 109.602 322.621C109.65 320.571 109.602 318.473 109.697 316.423C109.793 314.468 109.984 312.513 110.842 310.702C110.842 310.225 111.462 309.939 111.224 309.224C109.65 309.987 108.075 310.797 106.549 311.56C105.833 311.894 105.07 312.18 104.354 312.513C104.116 312.609 103.782 312.847 103.639 312.466C103.495 312.132 103.782 312.037 104.068 311.894C105.595 311.226 107.169 310.511 108.695 309.844C109.029 309.701 109.411 309.557 109.745 309.367C111.272 308.556 112.035 307.364 112.56 305.648C113.418 302.883 114.754 300.308 115.947 297.686C116.09 297.353 116.376 297.353 116.662 297.353C116.71 297.4 116.758 297.448 116.806 297.496C117.14 298.211 116.71 298.831 116.376 299.403C115.088 301.691 114.325 304.17 113.228 306.888C115.327 305.6 117.092 304.456 118.857 303.217C119.239 302.978 119.477 302.549 119.477 302.12C119.62 299.975 119.334 297.877 118.809 295.827C118.666 295.35 118.38 295.398 117.998 295.446C117.951 295.398 117.903 295.398 117.807 295.35C117.807 295.255 117.76 295.112 117.807 295.064C118.857 293.491 117.998 292.013 117.569 290.487C117.855 290.583 118.094 290.678 118.38 290.773C118.905 291.012 118.905 291.584 119.096 291.918C119.382 291.107 119.954 290.964 120.718 291.345C120.813 291.536 120.813 291.775 120.67 291.87C119.716 292.871 119.811 294.063 120.24 295.255C120.956 297.162 120.718 299.26 121.052 301.214C121.433 301.262 121.672 300.881 121.958 300.833C123.675 299.927 125.154 298.64 126.776 297.496C127.54 296.971 127.778 296.113 128.017 295.303C128.208 294.969 128.398 294.683 128.828 294.778C129.4 295.112 130.02 295.446 130.593 295.779C130.927 296.78 130.02 297.019 129.496 297.353C128.828 297.782 128.541 298.306 128.255 299.021C126.824 302.835 125.488 306.745 123.58 310.368C123.246 310.845 122.912 311.369 122.149 311.131C121.672 310.32 122.244 309.605 122.53 308.985C123.819 306.316 125.107 303.598 125.918 300.738C126.061 300.261 126.252 299.832 126.729 299.45C125.25 300.738 123.675 301.691 122.244 302.74C121.338 303.407 120.861 304.17 120.765 305.219C120.479 307.841 119.859 310.416 118.905 312.895C118.762 313.658 118.428 314.468 117.617 314.945Z" fill="#03A3C3"/>
<path d="M79.6429 305.743C80.3585 305.886 80.5016 306.506 80.7401 307.078C81.742 309.414 83.364 311.083 85.6062 312.179C86.0833 312.418 86.2741 312.704 86.131 313.038C84.986 315.517 85.3677 318.329 84.2704 320.904C81.3603 318.806 78.3548 316.899 76.0172 314.134C75.7309 313.8 75.5401 313.276 74.9199 313.324C75.5401 312.084 76.0172 310.654 76.7805 309.653C77.7823 308.365 78.4025 306.792 79.6429 305.743Z" fill="#8CFEE0"/>
<path d="M97.0083 293.539C95.5771 293.777 95.1001 295.017 94.3845 295.97C92.5716 298.497 90.8065 301.119 89.5184 303.98C88.8505 305.41 88.1349 305.744 86.5606 305.314C84.8908 304.885 83.1257 304.79 81.3605 304.742C80.8835 304.742 80.6926 304.504 80.4541 304.313C82.1238 301.643 84.3183 299.498 86.8945 297.591C89.8523 295.446 92.9533 293.586 96.3404 292.108C96.9606 291.822 97.4854 291.393 98.2487 291.536C98.1056 292.394 97.3423 292.823 97.0083 293.539Z" fill="#8EFEE1"/>
<path d="M148.435 330.439C149.055 330.821 149.866 330.487 150.773 331.202C149.723 331.25 148.912 331.297 148.149 331.345C152.013 330.964 154.828 333.157 157.785 335.064C156.02 335.159 154.303 334.968 152.585 334.73C148.912 334.206 145.143 334.635 141.517 333.633C140.373 333.347 139.323 333.014 138.273 332.442C135.506 330.868 132.692 329.39 130.068 327.579C130.64 327.054 131.308 327.34 131.881 327.483C136.317 328.723 140.85 329.343 145.382 329.962C146.431 330.105 147.529 329.676 148.435 330.439Z" fill="#675974"/>
<path d="M123.438 310.177C125.25 306.172 126.968 302.167 128.304 297.972C128.494 297.4 129.067 297.448 129.353 297.114C129.735 296.589 130.594 296.494 130.737 295.684C132.549 296.828 134.362 298.02 136.127 299.164C135.889 300.308 134.792 300.69 134.124 301.5C132.883 303.026 131.261 304.17 129.639 305.219C128.971 306.268 128.017 306.983 127.063 307.698C126.252 308.175 125.68 308.89 124.964 309.462C124.535 309.796 124.105 310.272 123.438 310.177Z" fill="#35D8CE"/>
<path d="M129.495 305.124C131.689 303.121 133.884 301.119 136.078 299.117C136.317 298.974 136.508 298.831 136.746 298.688C137.7 299.498 138.75 298.783 139.799 298.926C141.612 299.26 143.473 299.212 145.381 299.307C143.043 302.168 141.517 302.502 137.796 300.976C137.223 300.738 136.603 300.547 136.03 300.356C135.649 300.213 135.315 300.213 135.219 300.642C135.124 301.024 135.553 301.024 135.792 301.119C137.652 301.786 139.608 302.072 141.803 302.645C140.276 303.789 139.322 305.362 137.128 305.171C134.742 304.981 132.309 305.124 129.876 305.124C129.733 305.267 129.638 305.267 129.495 305.124Z" fill="#675A75"/>
<path d="M122.246 301.071C122.055 301.166 121.817 301.262 121.626 301.405C121.387 301.548 121.244 301.929 120.958 301.834C120.576 301.691 120.767 301.262 120.767 300.976C120.576 299.069 120.767 297.066 120.004 295.207C119.336 293.634 119.67 292.394 120.815 291.25C123.677 292.108 126.397 293.205 128.973 294.683C128.782 294.873 128.591 295.112 128.4 295.302C127.255 297.4 125.204 298.592 123.439 300.022C123.057 300.356 122.58 300.642 122.246 301.071Z" fill="#8CFEE0"/>
<path d="M151.966 293.872C150.296 295.35 148.674 296.828 146.957 298.306C146.623 298.592 146.146 298.497 145.716 298.497C142.949 298.64 140.182 298.163 137.368 298.163C138.99 296.447 141.041 295.255 142.759 293.681C142.854 293.586 143.045 293.538 143.14 293.586C146.098 294.158 149.056 293.681 151.966 293.872Z" fill="#6A5C77"/>
<path d="M111.273 324.098C111.13 323.526 111.511 323.288 111.893 322.906C113.134 321.619 114.326 320.332 115.328 318.854C116.33 318.473 116.759 319.426 117.523 319.712C118.286 320.189 119.097 320.523 119.908 320.999C120.29 321.19 120.862 321.238 120.767 321.905C118.858 323.383 116.95 324.909 115.089 326.387C114.278 327.006 113.563 327.722 113.134 328.675C112.847 329.152 112.322 328.913 111.941 329.056C111.941 328.913 111.941 328.77 111.941 328.627C111.989 328.58 112.084 328.484 112.132 328.389C113.754 326.291 113.754 326.291 111.798 324.623C111.559 324.48 111.416 324.289 111.273 324.098Z" fill="#30CFCB"/>
<path d="M138.561 324.909C138.942 325.1 139.324 325.338 139.706 325.529C139.658 326.149 139.181 326.149 138.751 326.196C135.317 326.578 131.834 326.911 128.351 326.721C125.918 325.147 123.485 323.622 121.052 322.049C121.482 321.572 122.006 321.619 122.531 321.762C126.348 322.668 130.164 323.574 134.124 324.003C134.362 324.051 134.553 324.194 134.744 324.337C136.032 324.718 137.368 324.146 138.561 324.909Z" fill="#685A75"/>
<path d="M128.4 326.673C129.306 326.149 130.308 326.292 131.262 326.292C134.077 326.244 136.939 326.149 139.706 325.529C140.183 325.815 140.661 326.101 141.138 326.387C139.42 327.15 137.56 326.911 135.794 327.245C135.079 327.388 134.268 327.34 133.552 327.388C137.369 328.246 141.233 328.771 145.145 329.2C145.622 329.247 146.194 329.534 146.624 329.057C147.339 329.391 148.246 329.486 148.437 330.439C144.716 330.392 140.994 329.867 137.369 329.104C134.936 328.628 132.503 328.056 130.07 327.531C129.497 327.293 128.972 326.959 128.4 326.673Z" fill="#342B43"/>
<path d="M134.793 324.337C130.642 324.194 126.683 323.097 122.675 322.191C122.15 322.096 121.673 321.953 121.101 322.048C120.958 322.001 120.862 322.001 120.719 321.953C119.574 321.286 118.477 320.618 117.332 319.998C117.475 319.236 118.095 319.379 118.572 319.379C120.671 319.331 122.771 318.902 124.917 319.188C125.299 319.236 125.681 319.236 126.015 318.902C126.683 319.045 127.016 319.617 127.494 320.046C126.158 320.857 124.583 320.523 123.152 320.714C122.58 320.809 122.007 320.761 121.435 320.666C126.062 322.096 130.833 322.811 135.604 323.574C135.747 323.622 135.985 323.669 136.033 323.765C136.128 323.955 135.938 324.051 135.747 324.098C135.413 324.098 135.031 323.955 134.793 324.337Z" fill="#312840"/>
<path d="M97.0089 293.538C96.8657 292.537 97.6767 292.156 98.2015 291.536C98.5832 291.441 98.9171 291.345 99.2988 291.25C98.774 292.251 98.0107 293.062 97.0089 293.538Z" fill="#03A3C3"/>
<path d="M120.812 291.25C119.858 290.868 119.62 291.822 118.999 292.251C118.809 291.727 118.665 291.202 118.475 290.678C119.286 290.773 120.097 290.725 120.812 291.25Z" fill="#7FEDDF"/>
<path d="M109.697 359.521C109.554 361.809 109.315 364.098 109.315 366.386C109.315 367.34 108.838 367.34 108.313 367.292C105.212 367.006 102.159 366.339 99.3444 365.004C98.2472 364.003 97.9609 362.572 97.4362 361.285C96.4343 358.949 95.8618 356.613 96.2912 353.991C97.0068 349.891 96.5774 345.695 96.6252 341.547C96.6252 340.355 96.7206 339.116 96.6252 337.924C96.5774 337.543 96.6252 337.161 97.0068 336.875C99.4398 335.636 102.016 334.777 104.592 334.015C105.022 334.396 105.022 334.968 105.117 335.493C106.023 340.546 106.834 345.647 108.027 350.701C108.647 353.562 109.22 356.517 109.697 359.521Z" fill="#008BC1"/>
<path d="M81.0266 342.882C84.5092 341.452 87.9441 339.974 91.5221 338.925C92.5239 340.546 92.2854 342.501 92.6194 344.265C93.2395 347.65 94.0028 350.987 95.0047 354.277C95.768 356.756 95.8157 359.187 95.0524 361.619C94.9093 362.048 94.8139 362.477 94.3845 362.715C89.8047 360.951 85.9404 358.234 83.1257 354.134C82.2193 351.13 81.5037 348.079 81.0266 345.028C80.8835 344.265 80.4541 343.55 81.0266 342.882Z" fill="#008AC0"/>
<path d="M86.3688 338.592C85.033 334.444 84.6036 330.201 84.7945 325.862C84.7945 325.719 84.7945 325.576 84.7945 325.433C84.9376 324.48 84.3174 323.145 85.1761 322.716C85.9871 322.334 86.9413 323.335 87.8 323.812C92.2844 326.387 97.1028 327.674 102.303 327.531C103.448 327.483 104.64 327.245 105.642 326.72C106.501 326.244 106.835 326.53 106.978 327.245C107.217 328.437 107.455 329.581 107.217 330.773C104.354 332.251 101.253 333.109 98.2955 334.253C94.622 335.683 90.9486 337.066 87.3229 338.449C87.0367 338.592 86.7027 338.782 86.3688 338.592Z" fill="#8CFEE0"/>
<path d="M94.3844 362.62C95.1477 359.807 95.5293 357.09 94.5752 354.086C92.9532 349.176 92.0467 344.027 91.522 338.878C91.7605 338.735 91.999 338.544 92.2376 338.401C93.144 338.639 93.0486 339.45 93.144 340.07C93.7642 344.265 94.3844 348.46 95.5293 352.322C95.8156 347.984 95.6247 343.407 95.6725 338.782C95.6725 338.21 95.6725 337.59 96.0064 337.114C96.2926 337.018 96.5789 336.923 96.9128 336.828C96.9128 341.357 96.9605 345.886 96.9605 350.367C96.9605 351.798 96.9128 353.276 96.6266 354.658C96.0541 357.328 97.2945 359.521 98.1055 361.857C98.4394 362.906 98.9165 363.907 99.3459 364.908C98.7734 365.052 98.3917 364.622 97.9624 364.336C97.0082 363.288 96.9128 361.857 96.2449 360.665C95.7679 361.428 96.2926 362.62 95.1 362.954C94.8614 362.906 94.6229 362.763 94.3844 362.62Z" fill="#C2F0F5"/>
<path d="M96.053 337.114C96.1961 342.787 96.2438 348.413 95.7191 354.086C94.908 352.275 94.6218 350.272 94.1447 348.365C93.4291 345.266 92.9998 342.12 92.6181 338.973C92.5704 338.782 92.3796 338.592 92.2842 338.353C93.5246 337.972 94.8126 337.543 96.053 337.114Z" fill="#018BC0"/>
<path d="M109.697 359.521C108.79 357.519 108.695 355.326 108.17 353.228C106.739 347.459 105.737 341.643 104.735 335.779C104.64 335.159 104.592 334.539 104.544 333.919C105.117 333.681 105.642 333.443 106.214 333.252C106.739 333.395 106.93 333.872 107.121 334.301C108.218 336.685 109.22 339.068 110.365 341.452C110.651 342.072 110.746 342.739 110.842 343.407C110.746 344.027 110.699 344.646 110.603 345.266C110.031 345.171 109.792 344.742 109.601 344.313C108.6 342.072 107.359 339.927 106.5 337.638C106.357 337.304 106.214 336.923 106.357 336.78C106.357 338.496 107.025 340.26 107.311 342.072C107.884 346.124 109.029 350.081 109.697 354.134C109.792 354.706 109.792 355.278 109.888 355.85C109.744 357.042 109.744 358.282 109.697 359.521Z" fill="#C2F0F5"/>
<path d="M110.796 343.407C109.269 340.022 107.742 336.637 106.216 333.252C108.267 332.394 110.319 331.584 112.561 330.678C111.607 335.016 111.416 339.212 110.796 343.407Z" fill="#0089C0"/>
<path d="M109.792 355.802C108.838 354.038 108.886 351.988 108.456 350.081C107.502 345.886 106.834 341.595 106.023 337.352C105.928 336.828 105.928 336.494 106.214 336.017C107.598 339.164 108.981 342.263 110.603 345.218C110.508 348.794 110.174 352.274 109.792 355.802Z" fill="#018CC0"/>
<path d="M82.1717 352.894C79.9772 350.701 78.4029 348.079 76.924 345.361C76.6855 344.932 76.4946 344.599 77.1625 344.36C78.3552 343.931 79.5002 343.454 80.6451 343.025C81.313 345.743 81.5993 348.556 82.3626 351.321C82.458 351.702 83.0782 352.465 82.1717 352.894Z" fill="#0189BF"/>
<path d="M108.075 330.63C108.075 329.343 107.932 328.055 107.598 326.816C107.407 326.148 107.645 325.672 108.122 325.481C108.981 325.195 109.506 324.527 110.221 323.86C110.603 325.815 110.937 327.626 111.271 329.486C110.221 329.867 109.124 330.248 108.075 330.63Z" fill="#8AFDE0"/>
<path d="M82.1717 352.894C81.647 350.081 81.1699 347.221 80.5974 344.408C80.502 343.931 80.5497 343.454 80.6451 343.025C80.7882 342.978 80.9314 342.93 81.0745 342.882C81.647 346.315 82.3149 349.748 83.2213 353.133C83.3167 353.466 83.4121 353.752 83.1736 354.086C82.8396 353.609 82.2194 353.466 82.1717 352.894Z" fill="#ABE4EE"/>
<path d="M110.938 310.654C110.127 314.706 110.032 318.806 110.079 322.906C108.219 323.192 107.074 322.096 106.024 320.856C105.261 319.426 104.498 317.948 103.687 316.518C104.354 316.995 104.736 316.47 105.118 316.089C107.026 314.229 108.839 312.275 110.938 310.654Z" fill="#38D9CF"/>
<path d="M116.713 297.305C116.379 296.208 116.999 295.636 117.905 295.255L117.953 295.303C118.192 296.304 117.905 297.067 116.808 297.353L116.713 297.305Z" fill="#03A3C3"/>
<path d="M151.299 317.328C151.442 317.376 151.585 317.376 151.729 317.424C151.49 319.14 149.439 320.809 147.435 320.904C144.191 321.047 141.758 319.378 139.563 317.281C138.037 315.803 136.94 314.039 135.747 312.322C135.365 311.798 135.222 310.892 134.22 311.083C134.459 310.463 135.174 310.511 135.556 310.129C136.462 310.892 136.844 312.036 137.512 312.942C139.134 315.278 141.09 317.233 143.475 318.711C145.574 319.998 147.721 320.094 149.868 318.759C150.488 318.663 150.774 318.187 151.013 317.662C151.108 317.519 151.204 317.424 151.299 317.328Z" fill="#341F5F"/>
<path d="M81.8365 335.684C79.4512 335.016 78.2585 332.966 76.7319 331.297C78.4017 332.823 80.2622 334.063 81.8843 335.636L81.8365 335.684Z" fill="#2FC8D1"/>
<path d="M150.154 318.759C148.007 320.713 145.192 320.141 142.998 318.806C139.849 316.899 137.75 314.086 135.89 311.035C135.699 310.749 135.699 310.415 135.556 310.082C137.989 308.079 140.422 306.077 142.95 304.17C143.475 303.741 143.857 302.787 144.572 302.978C145.192 303.169 145.002 304.17 145.24 304.742C146.624 308.079 148.341 311.226 151.06 313.705C151.871 314.42 151.919 315.183 151.633 316.089C151.49 316.47 151.156 316.852 151.203 317.328H151.251C151.06 317.9 150.726 318.425 150.154 318.759Z" fill="#9B57FE"/>
<path d="M152.061 313.371C149.198 310.32 146.765 306.983 145.763 302.787C145.525 301.691 146.336 301.167 146.956 300.642C148.53 299.212 150.2 297.972 151.774 296.542C152.633 295.779 152.729 296.161 152.919 297.019C153.349 299.021 153.206 301.071 153.206 303.074C153.206 306.22 153.11 309.414 152.538 312.513C152.442 312.799 152.49 313.085 152.061 313.371Z" fill="#9A56FE"/>
<path d="M114.517 318.234C113.658 319.426 112.799 320.618 111.893 321.762C111.75 321.953 111.607 322.191 111.32 322.048C111.082 321.905 111.13 321.667 111.082 321.428C110.843 318.616 111.225 315.85 111.702 313.133C111.845 312.322 111.893 311.512 111.988 310.701C112.131 308.89 113.086 307.698 114.612 307.078C116.33 306.363 117.856 305.314 119.717 304.17C119.431 306.363 119.049 308.222 118.572 310.129C118.047 312.227 116.854 314.086 116.186 316.136C116.186 316.756 115.709 316.852 115.28 317.042C115.185 317.09 115.137 317.09 115.089 317.138C114.898 317.519 114.851 317.948 114.517 318.234Z" fill="#38D8CF"/>
<path d="M117.617 314.945C119.382 311.798 120.193 308.413 120.575 304.885C120.67 303.836 121.099 303.074 122.053 302.454C123.771 301.357 125.393 300.118 127.158 298.831C125.965 302.883 124.248 306.554 122.578 310.225C122.483 310.463 122.435 310.749 122.387 311.035C122.435 311.56 122.006 311.846 121.719 312.227C121.576 312.37 121.433 312.513 121.29 312.609C120.956 312.895 120.575 313.086 120.241 313.419C120.097 313.562 119.954 313.658 119.811 313.801C119.286 314.325 118.571 314.611 117.903 314.993H117.76L117.617 314.945Z" fill="#39D8CF"/>
<path d="M121.1 312.322C121.196 312.227 121.291 312.179 121.387 312.084C122.436 312.179 122.484 312.227 122.77 313.753C123.677 313.276 124.583 312.942 125.633 313.371C125.966 313.514 126.634 313.276 126.444 312.894C125.633 311.273 127.35 310.797 127.875 310.701C129.401 310.368 129.354 309.51 129.163 308.413C129.211 308.222 129.545 308.175 129.449 308.032C129.258 307.793 129.067 308.127 128.877 308.175C128.209 308.032 127.207 308.651 126.968 307.364C127.827 306.601 128.686 305.838 129.544 305.076C129.64 305.076 129.783 305.076 129.878 305.123C129.64 305.6 129.783 305.695 130.26 305.695C132.645 305.695 135.078 305.695 137.512 305.982C135.746 307.03 134.983 309.51 132.455 309.176C132.407 309.176 132.359 309.176 132.264 309.128C132.073 309.176 131.739 308.508 131.691 309.271C131.548 309.748 131.978 309.986 132.168 310.32C130.88 311.703 129.115 312.465 127.779 313.753C127.541 313.991 127.159 314.229 126.873 314.182C124.154 313.896 121.53 314.754 118.81 314.706C118.763 314.468 118.858 314.229 119.049 314.277C119.955 314.515 119.431 313.705 119.669 313.467C119.765 313.371 119.86 313.324 119.955 313.228C120.433 313.085 121.005 313.037 121.1 312.322Z" fill="#675974"/>
<path d="M135.651 323.479C134.172 323.955 132.741 323.431 131.357 323.193C127.779 322.621 124.296 321.715 120.766 320.904C120.528 320.857 120.337 320.713 120.146 320.38C122.627 320.237 125.107 320.094 127.588 319.951C130.308 320.475 132.693 321.81 135.03 323.24C135.174 323.336 135.412 323.383 135.651 323.479Z" fill="#685975"/>
<path d="M146.671 329.057C146.48 329.581 146.289 329.772 145.096 329.629C141.089 329.057 136.986 328.723 133.074 327.579C132.931 327.531 132.74 327.436 132.597 327.15C135.46 326.911 138.322 326.673 141.184 326.435C143.045 327.197 144.667 328.532 146.671 329.057Z" fill="#675974"/>
<path d="M115.28 316.995C115.566 316.709 115.852 316.375 116.186 316.089C116.568 315.851 116.95 315.565 117.379 315.326C118.667 315.66 119.907 315.231 121.148 315.135C122.817 315.04 124.439 314.849 126.252 314.659C125.823 315.946 124.201 316.566 124.678 318.139C121.529 317.948 118.381 317.567 115.28 316.995Z" fill="#675974"/>
<path d="M114.516 318.234C114.421 317.71 114.611 317.376 115.089 317.138C116.138 318.139 117.522 317.948 118.762 318.139C121.195 318.52 123.628 318.616 126.109 318.854C125.918 319.76 125.202 319.378 124.678 319.378C122.245 319.474 119.811 319.474 117.378 319.951C116.711 319.569 115.995 319.235 115.327 318.854C115.184 318.52 114.898 318.282 114.516 318.234Z" fill="#665873"/>
<path d="M132.168 310.368C131.691 310.129 130.451 310.225 131.596 309.223C131.882 308.985 132.168 309.033 132.455 309.223C133.266 309.843 132.598 310.082 132.168 310.368Z" fill="#695B76"/>
<path d="M138.559 324.909C137.271 324.814 135.983 324.766 134.79 324.337C136.03 324.575 137.462 323.526 138.559 324.909Z" fill="#312840"/>
<path d="M119.67 313.514C120.147 314.468 119.193 314.42 118.811 314.754C118.525 314.897 118.239 315.135 117.857 314.992C118.477 314.515 119.05 313.991 119.67 313.514Z" fill="#695B76"/>
<path d="M101.255 326.721C97.0088 326.816 93.1445 325.576 89.3757 323.765C88.183 323.193 87.1335 322.478 85.9885 321.858C85.2729 321.476 85.0344 321 85.2252 320.237C85.7023 318.044 86.227 315.803 86.6087 313.61C86.7041 312.99 86.8472 312.942 87.4197 313.133C91.4271 314.516 95.4821 314.802 99.6326 313.896C100.253 313.753 100.778 313.944 101.302 314.611C103.592 317.662 105.262 320.952 106.407 324.575C106.646 325.386 106.455 325.672 105.739 325.958C104.212 326.435 102.781 326.721 101.255 326.721Z" fill="#8CFEE0"/>
<path d="M99.9179 313.037C95.8151 313.896 91.8555 313.8 87.9912 312.561C87.2756 312.322 86.9417 311.893 87.2756 311.13C87.7527 309.939 88.182 308.699 88.6591 307.507C88.8499 307.03 89.0885 306.935 89.6609 307.078C93.5252 308.175 96.9601 310.082 99.9179 313.037Z" fill="#8CFEE0"/>
<path d="M116.807 297.352C117.475 296.828 117.713 296.065 117.952 295.302C118.238 295.016 118.572 294.73 118.953 294.349C119.764 297.066 120.051 299.736 119.908 302.453C119.908 302.644 119.717 302.93 119.574 303.073C117.379 304.551 115.232 305.981 112.942 307.364C113.753 304.551 114.755 301.881 116.043 299.307C116.33 298.687 116.807 298.115 116.807 297.352Z" fill="#8CFEE0"/>
<path d="M129.305 308.318C129.305 308.985 130.163 309.557 129.591 310.32C129.4 310.558 129.209 310.987 129.018 310.892C127.969 310.272 127.73 311.798 126.872 311.655C126.633 311.607 126.347 311.989 126.633 312.322C126.967 312.656 127.396 312.894 126.824 313.467C126.299 313.991 125.631 314.086 125.106 313.753C124.438 313.324 124.009 313.467 123.484 313.943C123.055 314.325 122.387 314.372 122.005 314.039C121.481 313.657 122.339 313.467 122.339 313.181C122.292 312.656 122.005 312.179 121.385 312.132C121.719 311.798 122.005 311.417 122.339 311.083C122.816 310.94 123.198 310.606 123.437 310.177C124.582 309.271 125.774 308.365 126.919 307.459C127.396 308.365 128.398 307.603 128.971 308.079C129.257 307.984 129.305 308.079 129.305 308.318Z" fill="#695B76"/>
<path d="M83.2218 305.791C84.1282 305.934 85.7503 306.125 87.3246 306.411C87.9448 306.506 88.231 306.697 87.8971 307.46C87.3723 308.652 86.7044 309.891 86.7521 311.226C86.7521 311.989 86.4659 311.798 86.0842 311.607C83.6989 310.463 82.1246 308.604 81.1227 306.22C80.8842 305.648 80.9319 305.6 83.2218 305.791Z" fill="#8BFDE0"/>
<path d="M106.023 320.856C107.311 321.619 108.504 322.668 110.078 322.906C109.601 324.337 108.17 324.337 107.025 325.29C107.025 323.574 105.88 322.382 106.023 320.856Z" fill="#8CFEE0"/>
<path d="M111.272 324.098C111.653 324.337 112.035 324.527 112.369 324.766C114.23 326.101 114.039 327.578 111.844 328.675C111.701 327.149 111.129 325.671 111.272 324.098Z" fill="#8AFCE0"/>
<path d="M122.246 301.071C123.2 299.402 124.918 298.64 126.253 297.4C126.969 296.733 127.494 295.779 128.4 295.302C128.305 296.399 127.78 297.257 126.826 297.877C125.299 298.926 123.916 300.165 122.246 301.071Z" fill="#3BD9CF"/>
<path d="M150.155 318.759C150.346 318.091 150.775 317.662 151.347 317.329C151.3 318.091 151.204 318.807 150.155 318.759Z" fill="#181225"/>
<path d="M121.099 312.322C121.29 313.323 120.908 313.705 119.954 313.276C120.336 312.99 120.717 312.656 121.099 312.322Z" fill="#695B76"/>
<path d="M129.306 308.318C129.211 308.222 129.115 308.127 129.02 308.079C129.02 307.889 128.686 307.507 129.115 307.602C129.592 307.698 130.117 307.889 130.451 308.365C129.974 308.747 129.64 308.222 129.306 308.318Z" fill="#181225"/>
<path d="M132.501 309.224C132.215 309.224 131.928 309.224 131.642 309.224C131.547 308.985 131.022 308.938 131.165 308.652C131.356 308.223 131.738 308.413 131.976 308.652C132.167 308.795 132.31 309.033 132.501 309.224Z" fill="#181225"/>
<g clip-path="url(#clip1)">
<path d="M372.23 42.3136C372.983 42.3479 373.222 42.9652 373.564 43.4796C380.818 54.3172 377.876 69.819 367.132 77.6042C358.03 84.1547 346.123 84.1547 337.056 77.5356C329.152 71.7739 325.217 61.0735 327.475 51.5735C330.041 40.7702 338.322 33.2251 349.305 31.7847C351.05 31.5446 352.829 31.7504 354.609 31.7161C355.293 31.7161 355.669 32.059 355.738 32.7107C356.217 33.2594 356.046 33.8767 355.943 34.4941C354.54 41.7648 353.172 49.0356 351.769 56.3063C351.803 57.3009 352.316 57.1637 352.829 56.7179C355.772 54.1114 359.057 51.9508 362.136 49.5157C365.079 47.1836 368.021 44.8858 371.032 42.6565C371.409 42.4507 371.717 42.0049 372.23 42.3136Z" fill="#020A13"/>
<path d="M373.241 39.6803C373.994 39.7146 374.233 40.3319 374.575 40.8463C381.829 51.6839 378.886 67.1857 368.143 74.9709C359.041 81.5214 347.134 81.5214 338.066 74.9023C330.162 69.1406 326.228 58.4402 328.486 48.9402C331.052 38.1369 339.332 30.5918 350.316 29.1514C352.061 28.9113 353.84 29.1171 355.619 29.0828C356.304 29.0828 356.68 29.4257 356.748 30.0774C357.228 30.6261 357.056 31.2434 356.954 31.8608C355.551 39.1315 354.182 46.4023 352.779 53.673C352.814 54.6676 353.327 54.5304 353.84 54.0846C356.783 51.4781 360.067 49.3174 363.147 46.8824C366.09 44.5503 369.032 42.2525 372.043 40.0232C372.42 39.8174 372.728 39.3716 373.241 39.6803Z" fill="#00C6FC"/>
<path d="M358.117 30.7977C358.425 29.9403 358.835 29.7002 359.862 29.9746C364.72 31.3121 368.758 33.9186 372.145 37.5883C372.316 37.7941 372.385 38.1027 372.522 38.3428C372.624 39.063 372.043 39.3374 371.598 39.646C366.329 43.7959 360.922 47.7742 355.653 51.9583C355.14 52.3699 354.592 53.3302 353.703 52.4042C353.6 50.3807 354.25 48.4601 354.592 46.5053C355.414 41.9782 356.235 37.4168 357.193 32.924C357.364 32.1695 357.398 31.3464 358.117 30.7977Z" fill="#007BFF"/>
<path d="M353.806 94.9657C343.062 95.0343 334.61 92.1192 327.185 86.2545C326.775 85.9459 326.022 85.6372 326.569 84.9513C327.048 84.334 327.562 84.7798 328.041 85.1571C334.029 89.8899 340.872 92.6336 348.365 93.4567C356.372 94.3141 364.036 92.908 371.222 88.9639C375.807 86.4603 379.913 83.408 383.197 79.2924C383.574 78.8123 384.053 78.1607 384.737 78.6751C385.558 79.3267 384.669 79.7383 384.327 80.1841C380.905 84.574 376.628 87.9351 371.701 90.4044C365.268 93.5939 360.033 95.1715 353.806 94.9657Z" fill="#020A13"/>
<path d="M352.78 13.6498C341.386 13.7184 331.668 17.8682 323.696 26.0307C322.772 26.9566 321.985 28.0198 321.095 28.9801C320.822 29.2888 320.548 29.8718 320 29.3917C319.556 29.0144 319.795 28.5 320.069 28.157C321.232 26.7509 322.361 25.3104 323.661 24.0415C330.197 17.7653 337.861 13.8556 346.894 12.5523C349.837 12.1408 352.814 12.3122 355.756 12.2437C356.338 12.2437 357.057 12.2437 357.022 13.0325C356.988 13.9242 356.201 13.6155 355.688 13.6155C354.696 13.6841 353.738 13.6498 352.78 13.6498Z" fill="#020A13"/>
<path d="M354.114 52.5418C360.238 47.8089 366.397 43.0761 372.522 38.3432C373.206 37.8631 373.925 37.3829 374.609 36.8685C374.952 36.5941 375.499 36.3883 375.396 35.8739C375.294 35.3594 374.712 35.3937 374.301 35.2566C373.822 35.1194 373.309 35.0508 372.83 34.8793C372.488 34.7764 372.214 34.5021 372.317 34.0905C372.385 33.7132 372.727 33.5075 373.104 33.5761C374.712 33.919 376.32 34.262 377.894 34.6392C378.27 34.7421 378.647 35.0508 378.51 35.5309C378.168 36.7999 378.305 38.1374 378.202 39.4407C378.168 39.9208 378.031 40.401 377.449 40.3667C376.765 40.2981 376.662 39.8179 376.799 39.2349C376.936 38.549 377.004 37.8974 376.833 37.1085C375.431 37.7259 374.404 38.7548 373.275 39.6465C366.842 44.6194 360.41 49.5923 353.977 54.5309C353.19 55.1483 352.369 55.7656 352.3 54.0165C352.814 53.4678 353.019 52.4732 354.114 52.5418Z" fill="#007BFF"/>
<path d="M354.113 52.5417C353.497 53.0562 352.882 53.5363 352.231 54.0508C353.737 46.0598 355.242 38.1031 356.748 30.1121C357.056 28.7403 357.364 27.3684 357.638 25.9966C357.74 25.4479 357.501 25.2421 356.953 25.4822C356.303 25.7908 355.653 26.1338 354.969 26.4767C354.558 26.6825 354.182 26.6825 353.874 26.3396C353.497 25.8937 353.805 25.5508 354.148 25.345C355.516 24.5219 356.885 23.7331 358.288 23.0128C358.767 22.7728 359.177 23.1157 359.451 23.4587C360.272 24.4876 361.059 25.5165 361.846 26.5453C362.12 26.8883 362.291 27.2998 361.846 27.5742C361.47 27.8143 361.128 27.6428 360.786 27.3341C359.109 25.8937 359.109 25.8937 358.596 28.123C358.39 29.0147 357.843 29.8035 358.048 30.7637C356.714 37.623 355.414 44.4822 354.113 51.3071C354.113 51.7529 354.148 52.1645 354.113 52.5417Z" fill="#020A13"/>
<path d="M394.01 53.742C393.873 58.8864 392.984 63.9279 391.136 68.7294C390.965 69.2095 390.828 70.0326 390.041 69.6897C389.357 69.4153 389.562 68.7294 389.802 68.2149C392.128 62.4532 392.744 56.4171 392.368 50.2781C392.265 48.7348 391.991 47.2258 391.786 45.7167C391.718 45.2709 391.581 44.7565 392.162 44.585C392.881 44.3792 393.052 44.9622 393.155 45.4424C393.6 48.1518 394.079 50.9297 394.01 53.742Z" fill="#020A13"/>
<path d="M319.35 15.399C319.247 15.5019 319.144 15.7419 318.973 15.8448C318.494 16.1192 318.22 15.7419 317.981 15.4333C316.715 14.0614 315.449 12.6896 314.217 11.2492C311.582 8.2311 308.982 5.14446 306.382 2.05782C306.245 1.88634 306.039 1.74915 305.937 1.54338C305.731 1.13182 305.184 0.685975 305.731 0.205831C306.313 -0.30861 306.69 0.274423 306.997 0.617383C308.948 2.77803 310.864 4.93868 312.746 7.13363C314.662 9.36287 316.578 11.6264 318.494 13.8557C318.836 14.3015 319.213 14.7131 319.35 15.399Z" fill="#020A13"/>
<path d="M313.909 23.0812C313.567 23.9043 312.848 23.6299 312.267 23.3898C310.453 22.6353 308.64 21.8122 306.826 21.0234C305.115 20.2689 303.405 19.5487 301.728 18.7942C301.317 18.6227 300.838 18.314 301.044 17.7996C301.317 17.1137 301.899 17.388 302.344 17.5938C305.937 19.1028 309.495 20.6119 313.088 22.1209C313.464 22.2924 313.806 22.4981 313.909 23.0812Z" fill="#020A13"/>
</g>
<defs>
<clipPath id="clip0">
<rect width="24" height="39" fill="white" transform="translate(14.9395 57) rotate(11.7308)"/>
</clipPath>
<clipPath id="clip1">
<rect width="93" height="95" fill="white" transform="translate(301.01)"/>
</clipPath>
</defs>
</svg>
