<svg width="575" height="455" viewBox="0 0 575 455" fill="none" xmlns="http://www.w3.org/2000/svg">
<path fill-rule="evenodd" clip-rule="evenodd" d="M554.581 236.324C559.821 266.176 552.096 301.609 529.047 321.273C506.297 340.682 472.124 331.282 442.245 332.163C418.088 332.875 394.689 333.651 371.794 325.909C346.567 317.379 320.412 307.477 304.992 285.753C288.726 262.838 280.919 233.187 286.406 205.616C291.699 179.021 315.154 161.695 333.631 141.858C351.929 122.211 367.814 99.0719 393.345 90.7999C420.556 81.9833 454.086 78.1971 476.916 95.4331C499.412 112.417 489.525 148.996 503.138 173.689C516.51 197.948 549.79 209.036 554.581 236.324Z" fill="#8CF5CC"/>
<g clip-path="url(#clip0)">
<path d="M48.5446 60.1792C47.6148 60.8355 48.1953 62.0736 48.0062 63.1967C47.9083 63.6681 47.8104 64.1395 47.7125 64.611C47.5346 64.6187 47.3989 64.6352 47.2209 64.643C47.0163 63.9299 46.7605 63.251 46.6827 62.5642C46.3847 59.3283 46.2647 56.0847 45.9156 52.8828C45.7688 51.4665 45.3596 50.0404 44.9414 48.6571C44.2853 46.5092 42.0475 45.821 40.3036 45.7271C39.9988 45.7085 39.6741 45.9987 39.2826 46.1856C38.7821 45.4111 38.0191 45.4762 37.1872 45.6611C36.5421 45.7954 35.897 45.9296 35.2541 45.8409C34.9071 45.8135 34.6491 45.3576 34.3466 45.1159C34.6113 44.9027 34.8182 44.5433 35.0985 44.4674C36.4487 44.1219 37.8234 43.8709 39.207 43.577C43.9696 42.5096 46.5968 38.1376 46.6681 33.5478C46.7016 31.0513 46.6505 28.5372 46.7351 26.0066C46.7396 25.5605 47.1667 25.2021 47.4247 24.8087C47.6071 25.2042 47.8918 25.5315 47.9385 25.9436C48.2877 28.296 48.3988 30.7332 48.986 33.0009C49.9557 36.8234 53.3034 40.022 57.6254 40.6512C57.879 40.7039 58.1593 40.628 58.3528 40.7576C58.7821 41.0255 59.1514 41.3704 59.5295 41.6725C59.1869 42.0484 58.9111 42.5276 58.5107 42.7573C56.9513 43.6853 55.234 44.3122 53.817 45.4038C50.2067 48.1411 48.5249 51.9941 48.2177 56.4455C48.1955 56.9773 48.1221 57.5432 48.1421 58.0839C48.2288 58.7277 48.4089 59.3463 48.5446 60.1792ZM41.6405 44.1718C43.3867 44.892 45.2441 45.5012 45.987 47.4437C46.5964 49.1796 47.0612 50.9749 47.5194 52.59C48.0578 50.4218 48.9432 48.2811 50.5782 46.5641C52.2043 44.8901 54.0062 43.4314 55.5277 42.0485C54.2398 41.2446 52.6383 40.465 51.4215 39.3183C50.1625 38.1627 49.2461 36.6313 48.1495 35.3307C46.5923 40.2825 46.352 40.5902 41.6405 44.1718Z" fill="black"/>
</g>
<rect x="79.9453" y="16.0447" width="396" height="363" rx="20" fill="#020A13"/>
<rect x="89.4453" y="1.54468" width="393" height="369" rx="18.5" fill="white" stroke="#020A13" stroke-width="3"/>
<path d="M46.9672 398.594C47.6669 398.102 48.4096 397.672 49.2448 397.441C49.6562 397.05 50.1822 396.775 50.5023 396.284C50.6152 396.11 50.7969 396.072 50.9807 396.043C52.0026 395.868 52.7762 395.301 53.4594 394.544C53.7905 394.175 54.3255 394.012 54.6331 393.604C55.1728 392.876 55.8198 392.301 56.6045 391.857C56.8369 391.728 57.0547 391.508 57.1862 391.28C57.5749 390.595 58.1312 390.134 58.8171 389.765C59.2611 389.527 59.5374 389.065 59.8743 388.699C60.1733 388.367 60.5094 388.092 60.9238 387.95C62.0734 387.553 62.6261 386.629 62.872 385.555C62.9924 385.04 63.1995 384.722 63.615 384.515C64.2096 384.211 64.6297 383.743 64.9469 383.168C64.6791 382.59 64.0765 382.553 63.5849 382.332C63.0419 382.785 62.6787 383.356 62.4218 384.003C62.2878 384.336 62.1174 384.521 61.6827 384.568C60.8726 384.659 60.279 385.203 59.7937 385.833C59.6408 386.03 59.4765 386.244 59.4065 386.479C59.2015 387.135 58.7232 387.54 58.2199 387.945C57.8609 388.23 57.5408 388.557 57.2885 388.944C57.0324 389.338 56.6888 389.624 56.2637 389.834C55.6233 390.158 55.0609 390.59 54.6423 391.182C54.4386 391.47 54.1863 391.692 53.8365 391.786C53.7275 391.814 53.6246 391.87 53.5276 391.931C52.6768 392.464 51.8652 393.064 50.991 393.557C50.5891 393.781 50.3197 394.182 50.0422 394.545C49.8006 394.865 49.5331 395.111 49.1573 395.27C48.6478 395.482 48.2187 395.836 47.7798 396.168C47.0249 396.542 46.4031 397.141 45.6346 397.498C44.9125 397.884 44.2452 398.364 43.4349 398.594C42.9017 398.741 42.4079 398.98 41.9828 399.354C41.1478 400.078 40.1878 400.614 39.1808 401.071C38.971 401.165 38.7571 401.24 38.5334 401.292C38.0381 401.406 37.5703 401.579 37.1226 401.823C36.5587 402.131 35.9516 402.354 35.296 402.372C34.8149 402.389 34.4417 402.771 33.991 402.767C33.5652 402.761 33.149 402.59 32.7006 402.619C31.9609 402.665 31.2988 402.934 30.7091 403.333C30.3686 403.564 30.0684 403.632 29.6861 403.573C29.344 403.515 28.9936 403.559 28.6694 403.702C28.0113 403.99 27.3359 403.963 26.6409 403.89C25.7038 403.783 24.7766 403.863 23.8386 404.315C24.3027 404.641 24.7474 404.782 25.2492 404.886C26.0373 405.044 26.7972 404.929 27.5711 404.856C28.002 404.815 28.4466 404.791 28.8646 404.948C29.1574 405.056 29.4696 405.02 29.7463 404.912C30.376 404.655 31.0073 404.686 31.6346 404.864C32.4967 405.111 33.267 404.904 33.9899 404.428C34.3666 404.179 34.7436 403.955 35.2282 403.908C35.6783 403.863 36.0385 403.513 36.4993 403.401C37.8417 403.088 39.1542 402.682 40.3675 401.998C40.5503 401.895 40.7471 401.833 40.9558 401.804C41.3482 401.747 41.7148 401.615 42.0518 401.414C42.2288 401.307 42.4215 401.227 42.638 401.211C43.5214 401.16 44.1969 400.718 44.8169 400.134C44.8832 400.07 44.9475 399.997 45.0296 399.959C45.7563 399.642 46.3677 399.134 46.9672 398.594Z" fill="#020A13"/>
<path d="M55.6243 343.856C56.0164 343.609 56.3001 343.275 56.5174 342.84C56.7514 342.367 57.1531 341.953 57.6711 341.804C58.3401 341.613 58.9442 341.281 59.5955 341.054C60.1265 340.873 60.5853 340.587 61.0517 340.289C61.9615 339.703 62.8614 339.095 64.0266 339.169C64.159 339.181 64.3043 339.135 64.4283 339.084C64.9379 338.872 65.4438 338.831 65.9787 338.972C66.1538 339.02 66.3516 339.034 66.5296 339.001C67.3044 338.838 68.0942 339.121 68.8708 338.943C69.043 338.906 69.241 338.944 69.4162 338.992C70.6406 339.368 71.9368 339.495 73.1118 340.061C73.9298 340.452 74.6046 341.064 75.2638 341.648C75.7252 342.055 75.9957 342.692 76.3113 343.259C76.768 344.066 77.2533 344.867 77.9763 345.493C78.4183 345.879 78.7501 346.358 78.8721 346.931C78.9636 347.361 79.1009 347.771 79.2307 348.192C79.3822 348.67 79.4262 349.134 79.269 349.616C79.0266 350.356 79.0565 351.083 79.1846 351.849C79.3209 352.654 79.3752 353.496 79.3082 354.308C79.2367 355.216 79.0904 356.125 79.0151 357.039C78.9932 357.288 78.9272 357.541 78.7666 357.75C78.5589 358.018 78.4993 358.325 78.4687 358.651C78.3844 359.616 78.0308 360.514 77.7465 361.432C77.523 362.143 77.2128 362.822 77.2435 363.624C77.265 364.288 77.0426 364.933 76.4766 365.397C76.2125 365.612 76.0338 365.899 75.8591 366.205C75.4025 366.995 75.1527 367.91 74.5146 368.598C74.454 368.666 74.3975 368.753 74.3813 368.841C74.2419 369.689 73.6131 370.35 73.4642 371.199C73.4011 371.537 73.2134 371.876 72.9192 372.137C72.6213 372.405 72.4513 372.78 72.4042 373.169C72.3467 373.65 72.1541 374.06 71.8881 374.43C71.492 374.987 71.0011 375.475 70.7288 376.121C70.6506 376.317 70.4486 376.424 70.2773 376.535C70.1289 376.636 69.9591 376.707 69.9 376.899C70.0827 377.1 70.3263 377.094 70.5379 377.149C71.0343 377.274 71.5159 377.447 71.8715 377.826C72.2291 378.215 72.6881 378.423 73.1471 378.63C74.0245 379.019 74.9654 379.261 75.7492 379.844C75.9563 379.995 76.2448 380.059 76.5344 380.058C76.964 380.057 77.4128 380.053 77.8275 380.24C78.4967 380.543 79.1789 380.813 79.8351 381.149C80.1498 381.313 80.46 381.432 80.8166 381.417C81.3552 381.388 81.8722 381.469 82.3399 381.765C82.4849 381.859 82.631 381.888 82.8032 381.852C83.67 381.674 84.5384 381.951 85.4135 381.836C85.764 381.792 86.1566 381.899 86.4698 382.103C86.7424 382.28 87.019 382.312 87.3271 382.257C87.817 382.164 88.2974 382.237 88.7356 382.464C88.9557 382.582 89.1633 382.619 89.3966 382.564C89.8288 382.459 90.2649 382.511 90.7003 382.515C91.4312 382.52 92.1684 382.415 92.8993 382.586C92.9628 382.602 93.0352 382.567 93.1022 382.553C94.2684 382.233 95.4701 382.314 96.6549 382.269C97.6748 382.224 98.6569 382.072 99.6481 381.869C100.237 381.75 100.748 381.333 101.355 381.34C102.066 381.35 102.741 381.163 103.421 381.07C104.344 380.945 105.268 380.895 106.156 380.559C106.406 380.466 106.666 380.397 106.918 380.289C107.645 379.971 108.307 379.512 109.142 379.397C109.71 379.322 110.307 379.166 110.742 378.675C111.013 378.374 111.416 378.274 111.811 378.251C112.622 378.21 113.266 377.88 113.792 377.275C114.021 377.012 114.304 376.793 114.647 376.711C115.364 376.535 115.94 376.144 116.483 375.666C116.794 375.391 117.194 375.247 117.575 375.092C117.718 375.037 117.908 374.987 118.013 375.154C118.125 375.325 117.963 375.459 117.873 375.573C117.612 375.897 117.283 376.161 116.921 376.362C116.416 376.643 115.962 376.973 115.589 377.431C115.293 377.797 114.924 378.06 114.451 378.164C113.619 378.339 112.908 378.733 112.292 379.312C111.968 379.62 111.598 379.832 111.118 379.809C110.79 379.793 110.517 379.92 110.22 380.073C109.694 380.348 109.207 380.715 108.618 380.859C107.758 381.065 106.836 381.009 106.036 381.477C105.96 381.518 105.853 381.531 105.766 381.524C105.254 381.487 104.829 381.696 104.423 381.976C104.041 382.246 103.596 382.41 103.124 382.35C102.816 382.314 102.585 382.403 102.357 382.576C101.994 382.842 101.572 382.995 101.128 382.954C100.454 382.886 99.8036 382.998 99.1546 383.095C97.4523 383.339 95.7504 383.607 94.031 383.7C93.8489 383.713 93.6512 383.7 93.4836 383.64C93.1849 383.528 92.911 383.556 92.6086 383.615C91.6288 383.801 90.6382 383.725 89.6568 383.622C89.3034 383.582 88.9824 383.53 88.654 383.654C88.2053 383.823 87.7452 383.845 87.3022 383.689C86.9998 383.583 86.7217 383.591 86.4275 383.688C85.8811 383.868 85.3381 383.853 84.8081 383.64C84.5903 383.556 84.3708 383.488 84.1444 383.48C83.7165 383.466 83.3277 383.353 82.9756 383.108C82.7222 382.927 82.4491 382.864 82.1314 382.921C81.6452 383.009 81.161 382.941 80.7432 382.645C80.5033 382.481 80.2259 382.374 79.9635 382.41C79.1898 382.508 78.4796 382.153 77.7143 382.15C77.2597 382.15 76.8054 382.012 76.4333 381.696C75.9255 381.259 75.3762 380.885 74.6735 380.824C74.541 380.812 74.4059 380.74 74.2919 380.675C73.6215 380.272 72.8592 380.048 72.2114 379.611C71.931 379.42 71.5998 379.32 71.2499 379.249C70.7269 379.14 70.2447 378.917 69.9528 378.415C69.8608 378.264 69.7097 378.141 69.5665 378.032C69.1445 377.717 69.1408 377.722 68.7623 378.151C68.3469 378.054 68.1626 377.729 68.003 377.378C67.4848 377.033 67.0498 376.586 66.5637 376.204C66.1125 375.845 65.6027 375.563 65.2007 375.154C64.9307 374.872 64.6295 374.7 64.2676 374.597C63.5439 374.39 63.0036 373.965 62.6598 373.289C62.4712 372.919 62.2525 372.596 61.8851 372.349C61.5699 372.136 61.2941 371.85 61.0429 371.539C60.5132 370.882 60.01 370.185 59.3951 369.62C58.7493 369.028 58.2836 368.273 57.581 367.742C57.3429 367.563 57.1805 367.293 57.0925 366.997C56.9587 366.556 56.6538 366.251 56.309 365.969C55.6989 365.474 55.2716 364.875 55.1985 364.063C55.1606 363.626 55.0845 363.198 54.9031 362.793C54.4165 361.727 53.8978 360.699 53.2033 359.738C52.5341 358.801 52.2287 357.648 52.123 356.517C52.0528 355.789 52.0288 355.065 51.8476 354.355C51.6864 353.716 51.7001 353.099 51.9918 352.474C52.377 351.654 52.5834 350.793 52.5685 349.878C52.5575 349.286 52.7718 348.767 53.0514 348.249C53.419 347.558 53.7771 346.869 54.2201 346.227C54.3803 345.994 54.4269 345.72 54.5062 345.458C54.719 344.815 55.0209 344.238 55.6243 343.856ZM54.3738 348.64C54.2717 349.075 54.1153 349.467 53.8974 349.852C53.4371 350.648 53.3128 351.472 53.661 352.357C53.9103 352.988 53.9758 353.648 53.8343 354.321C53.7238 354.858 53.7875 355.369 54.0503 355.852C54.0602 355.875 54.07 355.898 54.0779 355.911C54.2787 356.338 54.8178 358.894 54.86 359.374C54.9739 360.707 55.3533 361.949 56.3982 362.867C57.1175 363.499 57.6381 364.208 57.8069 365.165C57.8706 365.511 58.0678 365.804 58.3277 366.038C58.698 366.369 58.9046 366.8 59.1703 367.203C59.7273 368.059 60.2026 368.976 60.9937 369.688C61.6549 370.282 62.4243 370.774 62.9189 371.548C63.0323 371.729 63.2402 371.79 63.4405 371.862C64.2808 372.194 64.9661 372.714 65.3561 373.56C65.4861 373.842 65.6897 374.023 65.9715 374.174C66.4117 374.41 66.7748 374.778 67.1982 375.053C67.5694 375.294 67.9628 375.476 68.345 375.675C68.6538 375.834 68.7271 375.709 68.8508 375.468C69.2949 374.597 69.7001 373.683 70.3318 372.941C70.9409 372.234 71.4845 371.501 72.0025 370.719C72.4791 370 72.8725 369.219 73.4071 368.537C73.5016 368.418 73.5667 368.254 73.609 368.101C73.7598 367.565 73.9629 367.063 74.2621 366.591C74.5296 366.181 74.6543 365.71 74.6753 365.222C74.7169 364.22 75.0134 363.359 75.7585 362.634C76.1433 362.259 76.1819 361.642 76.3464 361.123C76.6255 360.251 76.8527 359.37 77.1011 358.495C77.1489 358.32 77.2694 358.135 77.2444 357.97C77.0927 357 77.4637 356.113 77.6271 355.191C77.7061 354.74 77.5662 354.271 77.7257 353.823C78.0373 352.939 78.0474 352.024 78.0421 351.107C78.0379 350.923 78.0437 350.762 77.9036 350.597C77.4151 350.017 77.1653 349.336 77.1102 348.584C77.1008 348.446 77.1124 348.289 77.0535 348.177C76.667 347.465 76.6389 346.722 76.6426 345.918C76.6476 345.378 76.3256 344.758 75.8966 344.339C75.4367 343.892 74.952 343.47 74.4393 343.104C73.291 342.358 72.1519 341.585 70.981 340.873C70.5791 340.629 70.0923 340.502 69.6049 340.489C69.2979 340.479 69.0094 340.415 68.7282 340.315C68.025 340.064 67.3086 339.985 66.5616 340.067C66.303 340.097 66.0621 340.162 65.841 340.274C65.5931 340.401 65.3273 340.467 65.0496 340.5C64.8887 340.519 64.7122 340.511 64.5768 340.58C63.5988 341.08 62.5027 341.166 61.4647 341.454C60.6197 341.687 59.9201 342.204 59.4046 342.881C58.8439 343.627 58.2258 344.222 57.2706 344.383C56.9662 344.432 56.848 344.651 56.7684 344.888C56.559 345.5 56.1444 345.947 55.6349 346.324C55.4618 346.45 55.3158 346.585 55.2086 346.763C54.8609 347.36 54.5307 347.968 54.3738 348.64Z" fill="#020A13"/>
<path d="M110.984 105.045H110.432V100.749H111.104L113.192 104.091H113.216L113.192 103.263V100.749H113.744V105.045H113.168L110.984 101.541H110.96L110.984 102.369V105.045ZM116.17 101.427L115.468 103.365H116.896L116.194 101.427H116.17ZM114.862 105.045H114.25L115.87 100.749H116.494L118.114 105.045H117.502L117.088 103.881H115.282L114.862 105.045ZM119.17 105.045H118.618V100.749H119.17L120.664 103.365H120.688L122.182 100.749H122.734V105.045H122.182V102.495L122.206 101.775H122.182L120.838 104.133H120.514L119.17 101.775H119.146L119.17 102.495V105.045ZM126.106 100.749V101.277H124.15V102.639H125.914V103.155H124.15V104.517H126.106V105.045H123.598V100.749H126.106Z" fill="black"/>
<path d="M212.789 105.045H210.377V100.749H210.929V104.517H212.789V105.045ZM214.926 101.427L214.224 103.365H215.652L214.95 101.427H214.926ZM213.618 105.045H213.006L214.626 100.749H215.25L216.87 105.045H216.258L215.844 103.881H214.038L213.618 105.045ZM220.025 103.899C220.025 104.275 219.887 104.577 219.611 104.805C219.331 105.029 218.991 105.141 218.591 105.141C218.235 105.141 217.921 105.037 217.649 104.829C217.377 104.621 217.189 104.337 217.085 103.977L217.613 103.761C217.649 103.889 217.699 104.005 217.763 104.109C217.827 104.213 217.901 104.303 217.985 104.379C218.073 104.451 218.169 104.509 218.273 104.553C218.377 104.593 218.487 104.613 218.603 104.613C218.855 104.613 219.061 104.549 219.221 104.421C219.381 104.289 219.461 104.115 219.461 103.899C219.461 103.719 219.395 103.565 219.263 103.437C219.139 103.313 218.907 103.193 218.567 103.077C218.223 102.953 218.009 102.869 217.925 102.825C217.469 102.593 217.241 102.251 217.241 101.799C217.241 101.483 217.367 101.213 217.619 100.989C217.875 100.765 218.189 100.653 218.561 100.653C218.889 100.653 219.173 100.737 219.413 100.905C219.653 101.069 219.813 101.275 219.893 101.523L219.377 101.739C219.329 101.579 219.233 101.447 219.089 101.343C218.949 101.235 218.777 101.181 218.573 101.181C218.357 101.181 218.175 101.241 218.027 101.361C217.879 101.473 217.805 101.619 217.805 101.799C217.805 101.947 217.863 102.075 217.979 102.183C218.107 102.291 218.385 102.419 218.813 102.567C219.249 102.715 219.559 102.897 219.743 103.113C219.931 103.325 220.025 103.587 220.025 103.899ZM222.095 101.277V105.045H221.543V101.277H220.343V100.749H223.295V101.277H222.095ZM226.567 105.141C226.091 105.141 225.707 104.985 225.415 104.673C225.123 104.365 224.977 103.957 224.977 103.449V100.749H225.529V103.473C225.529 103.825 225.621 104.103 225.805 104.307C225.989 104.511 226.243 104.613 226.567 104.613C226.891 104.613 227.145 104.511 227.329 104.307C227.513 104.103 227.605 103.825 227.605 103.473V100.749H228.157V103.449C228.157 103.969 228.013 104.381 227.725 104.685C227.437 104.989 227.051 105.141 226.567 105.141ZM229.474 103.305V105.045H228.922V100.749H230.386C230.758 100.749 231.074 100.873 231.334 101.121C231.598 101.369 231.73 101.671 231.73 102.027C231.73 102.391 231.598 102.695 231.334 102.939C231.078 103.183 230.762 103.305 230.386 103.305H229.474ZM229.474 101.277V102.777H230.398C230.618 102.777 230.8 102.703 230.944 102.555C231.092 102.407 231.166 102.231 231.166 102.027C231.166 101.827 231.092 101.653 230.944 101.505C230.8 101.353 230.618 101.277 230.398 101.277H229.474ZM232.309 105.045V100.749H233.623C234.279 100.749 234.805 100.947 235.201 101.343C235.601 101.739 235.801 102.257 235.801 102.897C235.801 103.541 235.601 104.061 235.201 104.457C234.805 104.849 234.279 105.045 233.623 105.045H232.309ZM232.861 101.277V104.517H233.623C234.123 104.517 234.517 104.375 234.805 104.091C235.093 103.803 235.237 103.405 235.237 102.897C235.237 102.393 235.093 101.997 234.805 101.709C234.517 101.421 234.123 101.277 233.623 101.277H232.861ZM237.836 101.427L237.134 103.365H238.562L237.86 101.427H237.836ZM236.528 105.045H235.916L237.536 100.749H238.16L239.78 105.045H239.168L238.754 103.881H236.948L236.528 105.045ZM241.355 101.277V105.045H240.803V101.277H239.603V100.749H242.555V101.277H241.355ZM245.639 100.749V101.277H243.683V102.639H245.447V103.155H243.683V104.517H245.639V105.045H243.131V100.749H245.639Z" fill="black"/>
<path d="M321.454 105.141C320.818 105.141 320.286 104.927 319.858 104.499C319.434 104.071 319.222 103.537 319.222 102.897C319.222 102.257 319.434 101.725 319.858 101.301C320.282 100.869 320.814 100.653 321.454 100.653C322.102 100.653 322.628 100.887 323.032 101.355L322.636 101.739C322.328 101.367 321.934 101.181 321.454 101.181C320.978 101.181 320.58 101.341 320.26 101.661C319.944 101.977 319.786 102.389 319.786 102.897C319.786 103.405 319.944 103.817 320.26 104.133C320.58 104.453 320.978 104.613 321.454 104.613C321.954 104.613 322.388 104.403 322.756 103.983L323.158 104.373C322.954 104.617 322.704 104.807 322.408 104.943C322.112 105.075 321.794 105.141 321.454 105.141ZM327.951 102.897C327.951 103.533 327.739 104.065 327.315 104.493C326.887 104.925 326.363 105.141 325.743 105.141C325.119 105.141 324.595 104.925 324.171 104.493C323.747 104.065 323.535 103.533 323.535 102.897C323.535 102.261 323.747 101.729 324.171 101.301C324.595 100.869 325.119 100.653 325.743 100.653C326.367 100.653 326.891 100.871 327.315 101.307C327.739 101.735 327.951 102.265 327.951 102.897ZM324.099 102.897C324.099 103.393 324.255 103.803 324.567 104.127C324.883 104.451 325.275 104.613 325.743 104.613C326.211 104.613 326.601 104.451 326.913 104.127C327.229 103.807 327.387 103.397 327.387 102.897C327.387 102.397 327.229 101.987 326.913 101.667C326.601 101.343 326.211 101.181 325.743 101.181C325.275 101.181 324.883 101.343 324.567 101.667C324.255 101.991 324.099 102.401 324.099 102.897ZM329.154 105.045H328.602V100.749H329.274L331.362 104.091H331.386L331.362 103.263V100.749H331.914V105.045H331.338L329.154 101.541H329.13L329.154 102.369V105.045ZM334.244 101.277V105.045H333.692V101.277H332.492V100.749H335.444V101.277H334.244ZM337.187 101.427L336.485 103.365H337.913L337.211 101.427H337.187ZM335.879 105.045H335.267L336.887 100.749H337.511L339.131 105.045H338.519L338.105 103.881H336.299L335.879 105.045ZM341.54 105.141C340.904 105.141 340.372 104.927 339.944 104.499C339.52 104.071 339.308 103.537 339.308 102.897C339.308 102.257 339.52 101.725 339.944 101.301C340.368 100.869 340.9 100.653 341.54 100.653C342.188 100.653 342.714 100.887 343.118 101.355L342.722 101.739C342.414 101.367 342.02 101.181 341.54 101.181C341.064 101.181 340.666 101.341 340.346 101.661C340.03 101.977 339.872 102.389 339.872 102.897C339.872 103.405 340.03 103.817 340.346 104.133C340.666 104.453 341.064 104.613 341.54 104.613C342.04 104.613 342.474 104.403 342.842 103.983L343.244 104.373C343.04 104.617 342.79 104.807 342.494 104.943C342.198 105.075 341.88 105.141 341.54 105.141ZM345.353 101.277V105.045H344.801V101.277H343.601V100.749H346.553V101.277H345.353ZM349.723 103.899C349.723 104.275 349.585 104.577 349.309 104.805C349.029 105.029 348.689 105.141 348.289 105.141C347.933 105.141 347.619 105.037 347.347 104.829C347.075 104.621 346.887 104.337 346.783 103.977L347.311 103.761C347.347 103.889 347.397 104.005 347.461 104.109C347.525 104.213 347.599 104.303 347.683 104.379C347.771 104.451 347.867 104.509 347.971 104.553C348.075 104.593 348.185 104.613 348.301 104.613C348.553 104.613 348.759 104.549 348.919 104.421C349.079 104.289 349.159 104.115 349.159 103.899C349.159 103.719 349.093 103.565 348.961 103.437C348.837 103.313 348.605 103.193 348.265 103.077C347.921 102.953 347.707 102.869 347.623 102.825C347.167 102.593 346.939 102.251 346.939 101.799C346.939 101.483 347.065 101.213 347.317 100.989C347.573 100.765 347.887 100.653 348.259 100.653C348.587 100.653 348.871 100.737 349.111 100.905C349.351 101.069 349.511 101.275 349.591 101.523L349.075 101.739C349.027 101.579 348.931 101.447 348.787 101.343C348.647 101.235 348.475 101.181 348.271 101.181C348.055 101.181 347.873 101.241 347.725 101.361C347.577 101.473 347.503 101.619 347.503 101.799C347.503 101.947 347.561 102.075 347.677 102.183C347.805 102.291 348.083 102.419 348.511 102.567C348.947 102.715 349.257 102.897 349.441 103.113C349.629 103.325 349.723 103.587 349.723 103.899Z" fill="black"/>
<path d="M423.638 102.897C423.638 103.533 423.426 104.065 423.002 104.493C422.574 104.925 422.05 105.141 421.43 105.141C420.806 105.141 420.282 104.925 419.858 104.493C419.434 104.065 419.222 103.533 419.222 102.897C419.222 102.261 419.434 101.729 419.858 101.301C420.282 100.869 420.806 100.653 421.43 100.653C422.054 100.653 422.578 100.871 423.002 101.307C423.426 101.735 423.638 102.265 423.638 102.897ZM419.786 102.897C419.786 103.393 419.942 103.803 420.254 104.127C420.57 104.451 420.962 104.613 421.43 104.613C421.898 104.613 422.288 104.451 422.6 104.127C422.916 103.807 423.074 103.397 423.074 102.897C423.074 102.397 422.916 101.987 422.6 101.667C422.288 101.343 421.898 101.181 421.43 101.181C420.962 101.181 420.57 101.343 420.254 101.667C419.942 101.991 419.786 102.401 419.786 102.897ZM424.841 103.305V105.045H424.289V100.749H425.753C426.125 100.749 426.441 100.873 426.701 101.121C426.965 101.369 427.097 101.671 427.097 102.027C427.097 102.391 426.965 102.695 426.701 102.939C426.445 103.183 426.129 103.305 425.753 103.305H424.841ZM424.841 101.277V102.777H425.765C425.985 102.777 426.167 102.703 426.311 102.555C426.459 102.407 426.533 102.231 426.533 102.027C426.533 101.827 426.459 101.653 426.311 101.505C426.167 101.353 425.985 101.277 425.765 101.277H424.841ZM430.184 100.749V101.277H428.228V102.639H429.992V103.155H428.228V104.517H430.184V105.045H427.676V100.749H430.184ZM431.48 105.045H430.928V100.749H431.6L433.688 104.091H433.712L433.688 103.263V100.749H434.24V105.045H433.664L431.48 101.541H431.456L431.48 102.369V105.045ZM436.976 101.277V102.789H437.864C438.088 102.789 438.278 102.717 438.434 102.573C438.59 102.425 438.668 102.243 438.668 102.027C438.668 101.827 438.594 101.653 438.446 101.505C438.302 101.353 438.12 101.277 437.9 101.277H436.976ZM436.976 105.045H436.424V100.749H437.888C438.26 100.749 438.576 100.873 438.836 101.121C439.1 101.365 439.232 101.667 439.232 102.027C439.232 102.323 439.134 102.587 438.938 102.819C438.746 103.047 438.502 103.193 438.206 103.257L438.194 103.275L439.4 105.021V105.045H438.746L437.588 103.305H436.976V105.045ZM441.453 101.427L440.751 103.365H442.179L441.477 101.427H441.453ZM440.145 105.045H439.533L441.153 100.749H441.777L443.397 105.045H442.785L442.371 103.881H440.565L440.145 105.045ZM444.972 101.277V105.045H444.42V101.277H443.22V100.749H446.172V101.277H444.972ZM449.256 100.749V101.277H447.3V102.639H449.064V103.155H447.3V104.517H449.256V105.045H446.748V100.749H449.256Z" fill="black"/>
<path d="M108.945 115.545C136.305 115.289 163.625 114.545 191.001 114.545C211.214 114.545 231.427 114.545 251.64 114.545C294.945 114.545 338.251 114.545 381.556 114.545C411.186 114.545 440.816 114.545 470.445 114.545" stroke="#020A13" stroke-linecap="round" stroke-linejoin="round"/>
<line x1="110" y1="132.545" x2="159.982" y2="132.545" stroke="#020A13" stroke-width="5"/>
<line x1="209.945" y1="133.545" x2="262.945" y2="133.545" stroke="#020A13" stroke-width="5"/>
<path d="M108.945 152.545C136.305 152.289 163.625 151.545 191.001 151.545C211.214 151.545 231.427 151.545 251.64 151.545C294.945 151.545 338.251 151.545 381.556 151.545C411.186 151.545 440.816 151.545 470.445 151.545" stroke="#020A13" stroke-linecap="round" stroke-linejoin="round"/>
<line x1="110" y1="169.545" x2="186" y2="169.545" stroke="#020A13" stroke-width="5"/>
<line x1="209.945" y1="170.545" x2="246.945" y2="170.545" stroke="#020A13" stroke-width="5"/>
<path d="M108.945 189.545C136.305 189.289 163.625 188.545 191.001 188.545C211.214 188.545 231.427 188.545 251.64 188.545C294.945 188.545 338.251 188.545 381.556 188.545C411.186 188.545 440.816 188.545 470.445 188.545" stroke="#020A13" stroke-linecap="round" stroke-linejoin="round"/>
<line x1="110" y1="206.545" x2="177.784" y2="206.545" stroke="#020A13" stroke-width="5"/>
<line x1="209.945" y1="207.545" x2="262.945" y2="207.545" stroke="#020A13" stroke-width="5"/>
<path d="M108.945 229.545C136.305 229.289 163.625 228.545 191.001 228.545C211.214 228.545 231.427 228.545 251.64 228.545C294.945 228.545 338.251 228.545 381.556 228.545C411.186 228.545 440.816 228.545 470.445 228.545" stroke="#020A13" stroke-linecap="round" stroke-linejoin="round"/>
<line x1="110" y1="246.545" x2="181.207" y2="246.545" stroke="#020A13" stroke-width="5"/>
<line x1="209.945" y1="247.545" x2="274.945" y2="247.545" stroke="#020A13" stroke-width="5"/>
<path d="M108.945 269.545C136.305 269.289 163.625 268.545 191.001 268.545C211.214 268.545 231.427 268.545 251.64 268.545C294.945 268.545 338.251 268.545 381.556 268.545C411.186 268.545 440.816 268.545 470.445 268.545" stroke="#020A13" stroke-linecap="round" stroke-linejoin="round"/>
<line x1="110" y1="286.545" x2="166.829" y2="286.545" stroke="#020A13" stroke-width="5"/>
<line x1="209.945" y1="287.545" x2="252.945" y2="287.545" stroke="#020A13" stroke-width="5"/>
<line x1="316.945" y1="133.545" x2="327.182" y2="133.545" stroke="#020A13" stroke-width="5"/>
<line x1="316.945" y1="170.545" x2="324.092" y2="170.545" stroke="#020A13" stroke-width="5"/>
<line x1="316.945" y1="207.545" x2="327.182" y2="207.545" stroke="#020A13" stroke-width="5"/>
<line x1="316.945" y1="247.545" x2="329.5" y2="247.545" stroke="#020A13" stroke-width="5"/>
<line x1="316.945" y1="287.545" x2="325.251" y2="287.545" stroke="#020A13" stroke-width="5"/>
<line x1="416.945" y1="133.545" x2="427.182" y2="133.545" stroke="#020A13" stroke-width="5"/>
<line x1="416.945" y1="170.545" x2="424.092" y2="170.545" stroke="#020A13" stroke-width="5"/>
<line x1="416.945" y1="207.545" x2="427.182" y2="207.545" stroke="#020A13" stroke-width="5"/>
<line x1="416.945" y1="247.545" x2="429.5" y2="247.545" stroke="#020A13" stroke-width="5"/>
<line x1="416.945" y1="287.545" x2="425.251" y2="287.545" stroke="#020A13" stroke-width="5"/>
<rect x="108" y="28" width="404" height="53.5" rx="9" fill="#020A13" stroke="#020A13" stroke-width="2"/>
<rect x="112" y="24" width="404" height="53.5" rx="9" fill="white" stroke="#020A13" stroke-width="2"/>
<path d="M134.344 44.5286H131.932V40.2326H132.484V44.0006H134.344V44.5286ZM135.472 44.5286H134.92V40.2326H135.472V44.5286ZM138.99 43.3826C138.99 43.7586 138.852 44.0606 138.576 44.2886C138.296 44.5126 137.956 44.6246 137.556 44.6246C137.2 44.6246 136.886 44.5206 136.614 44.3126C136.342 44.1046 136.154 43.8206 136.05 43.4606L136.578 43.2446C136.614 43.3726 136.664 43.4886 136.728 43.5926C136.792 43.6966 136.866 43.7866 136.95 43.8626C137.038 43.9346 137.134 43.9926 137.238 44.0366C137.342 44.0766 137.452 44.0966 137.568 44.0966C137.82 44.0966 138.026 44.0326 138.186 43.9046C138.346 43.7726 138.426 43.5986 138.426 43.3826C138.426 43.2026 138.36 43.0486 138.228 42.9206C138.104 42.7966 137.872 42.6766 137.532 42.5606C137.188 42.4366 136.974 42.3526 136.89 42.3086C136.434 42.0766 136.206 41.7346 136.206 41.2826C136.206 40.9666 136.332 40.6966 136.584 40.4726C136.84 40.2486 137.154 40.1366 137.526 40.1366C137.854 40.1366 138.138 40.2206 138.378 40.3886C138.618 40.5526 138.778 40.7586 138.858 41.0066L138.342 41.2226C138.294 41.0626 138.198 40.9306 138.054 40.8266C137.914 40.7186 137.742 40.6646 137.538 40.6646C137.322 40.6646 137.14 40.7246 136.992 40.8446C136.844 40.9566 136.77 41.1026 136.77 41.2826C136.77 41.4306 136.828 41.5586 136.944 41.6666C137.072 41.7746 137.35 41.9026 137.778 42.0506C138.214 42.1986 138.524 42.3806 138.708 42.5966C138.896 42.8086 138.99 43.0706 138.99 43.3826ZM141.06 40.7606V44.5286H140.508V40.7606H139.308V40.2326H142.26V40.7606H141.06ZM144.707 44.5286H144.155V40.2326H144.827L146.915 43.5746H146.939L146.915 42.7466V40.2326H147.467V44.5286H146.891L144.707 41.0246H144.683L144.707 41.8526V44.5286ZM149.892 40.9106L149.19 42.8486H150.618L149.916 40.9106H149.892ZM148.584 44.5286H147.972L149.592 40.2326H150.216L151.836 44.5286H151.224L150.81 43.3646H149.004L148.584 44.5286ZM152.892 44.5286H152.34V40.2326H152.892L154.386 42.8486H154.41L155.904 40.2326H156.456V44.5286H155.904V41.9786L155.928 41.2586H155.904L154.56 43.6166H154.236L152.892 41.2586H152.868L152.892 41.9786V44.5286ZM159.829 40.2326V40.7606H157.873V42.1226H159.637V42.6386H157.873V44.0006H159.829V44.5286H157.321V40.2326H159.829Z" fill="black"/>
<line x1="131.5" y1="61" x2="242.445" y2="61" stroke="black"/>
<path d="M253.954 44.6246C253.318 44.6246 252.786 44.4106 252.358 43.9826C251.934 43.5546 251.722 43.0206 251.722 42.3806C251.722 41.7406 251.934 41.2086 252.358 40.7846C252.782 40.3526 253.314 40.1366 253.954 40.1366C254.602 40.1366 255.128 40.3706 255.532 40.8386L255.136 41.2226C254.828 40.8506 254.434 40.6646 253.954 40.6646C253.478 40.6646 253.08 40.8246 252.76 41.1446C252.444 41.4606 252.286 41.8726 252.286 42.3806C252.286 42.8886 252.444 43.3006 252.76 43.6166C253.08 43.9366 253.478 44.0966 253.954 44.0966C254.454 44.0966 254.888 43.8866 255.256 43.4666L255.658 43.8566C255.454 44.1006 255.204 44.2906 254.908 44.4266C254.612 44.5586 254.294 44.6246 253.954 44.6246ZM256.855 40.7606V42.2726H257.743C257.967 42.2726 258.157 42.2006 258.313 42.0566C258.469 41.9086 258.547 41.7266 258.547 41.5106C258.547 41.3106 258.473 41.1366 258.325 40.9886C258.181 40.8366 257.999 40.7606 257.779 40.7606H256.855ZM256.855 44.5286H256.303V40.2326H257.767C258.139 40.2326 258.455 40.3566 258.715 40.6046C258.979 40.8486 259.111 41.1506 259.111 41.5106C259.111 41.8066 259.013 42.0706 258.817 42.3026C258.625 42.5306 258.381 42.6766 258.085 42.7406L258.073 42.7586L259.279 44.5046V44.5286H258.625L257.467 42.7886H256.855V44.5286ZM260.324 44.5286H259.772V40.2326H260.324V44.5286ZM262.654 40.7606V44.5286H262.102V40.7606H260.902V40.2326H263.854V40.7606H262.654ZM266.938 40.2326V40.7606H264.982V42.1226H266.746V42.6386H264.982V44.0006H266.938V44.5286H264.43V40.2326H266.938ZM268.234 40.7606V42.2726H269.122C269.346 42.2726 269.536 42.2006 269.692 42.0566C269.848 41.9086 269.926 41.7266 269.926 41.5106C269.926 41.3106 269.852 41.1366 269.704 40.9886C269.56 40.8366 269.378 40.7606 269.158 40.7606H268.234ZM268.234 44.5286H267.682V40.2326H269.146C269.518 40.2326 269.834 40.3566 270.094 40.6046C270.358 40.8486 270.49 41.1506 270.49 41.5106C270.49 41.8066 270.392 42.0706 270.196 42.3026C270.004 42.5306 269.76 42.6766 269.464 42.7406L269.452 42.7586L270.658 44.5046V44.5286H270.004L268.846 42.7886H268.234V44.5286ZM271.703 44.5286H271.151V40.2326H271.703V44.5286ZM274.129 40.9106L273.427 42.8486H274.855L274.153 40.9106H274.129ZM272.821 44.5286H272.209L273.829 40.2326H274.453L276.073 44.5286H275.461L275.047 43.3646H273.241L272.821 44.5286Z" fill="black"/>
<line x1="251.5" y1="61" x2="329.5" y2="61" stroke="black"/>
<path d="M344.344 44.5286H341.932V40.2326H342.484V44.0006H344.344V44.5286ZM345.472 44.5286H344.92V40.2326H345.472V44.5286ZM348.99 43.3826C348.99 43.7586 348.852 44.0606 348.576 44.2886C348.296 44.5126 347.956 44.6246 347.556 44.6246C347.2 44.6246 346.886 44.5206 346.614 44.3126C346.342 44.1046 346.154 43.8206 346.05 43.4606L346.578 43.2446C346.614 43.3726 346.664 43.4886 346.728 43.5926C346.792 43.6966 346.866 43.7866 346.95 43.8626C347.038 43.9346 347.134 43.9926 347.238 44.0366C347.342 44.0766 347.452 44.0966 347.568 44.0966C347.82 44.0966 348.026 44.0326 348.186 43.9046C348.346 43.7726 348.426 43.5986 348.426 43.3826C348.426 43.2026 348.36 43.0486 348.228 42.9206C348.104 42.7966 347.872 42.6766 347.532 42.5606C347.188 42.4366 346.974 42.3526 346.89 42.3086C346.434 42.0766 346.206 41.7346 346.206 41.2826C346.206 40.9666 346.332 40.6966 346.584 40.4726C346.84 40.2486 347.154 40.1366 347.526 40.1366C347.854 40.1366 348.138 40.2206 348.378 40.3886C348.618 40.5526 348.778 40.7586 348.858 41.0066L348.342 41.2226C348.294 41.0626 348.198 40.9306 348.054 40.8266C347.914 40.7186 347.742 40.6646 347.538 40.6646C347.322 40.6646 347.14 40.7246 346.992 40.8446C346.844 40.9566 346.77 41.1026 346.77 41.2826C346.77 41.4306 346.828 41.5586 346.944 41.6666C347.072 41.7746 347.35 41.9026 347.778 42.0506C348.214 42.1986 348.524 42.3806 348.708 42.5966C348.896 42.8086 348.99 43.0706 348.99 43.3826ZM351.06 40.7606V44.5286H350.508V40.7606H349.308V40.2326H352.26V40.7606H351.06ZM355.378 40.7606V44.5286H354.826V40.7606H353.626V40.2326H356.578V40.7606H355.378ZM358.793 42.5306V44.5286H358.241V42.5306L356.795 40.2326H357.443L358.505 41.9786H358.529L359.567 40.2326H360.215L358.793 42.5306ZM361.269 42.7886V44.5286H360.717V40.2326H362.181C362.553 40.2326 362.869 40.3566 363.129 40.6046C363.393 40.8526 363.525 41.1546 363.525 41.5106C363.525 41.8746 363.393 42.1786 363.129 42.4226C362.873 42.6666 362.557 42.7886 362.181 42.7886H361.269ZM361.269 40.7606V42.2606H362.193C362.413 42.2606 362.595 42.1866 362.739 42.0386C362.887 41.8906 362.961 41.7146 362.961 41.5106C362.961 41.3106 362.887 41.1366 362.739 40.9886C362.595 40.8366 362.413 40.7606 362.193 40.7606H361.269ZM366.612 40.2326V40.7606H364.656V42.1226H366.42V42.6386H364.656V44.0006H366.612V44.5286H364.104V40.2326H366.612Z" fill="black"/>
<path d="M468.954 55.6246C468.318 55.6246 467.786 55.4106 467.358 54.9826C466.934 54.5546 466.722 54.0206 466.722 53.3806C466.722 52.7406 466.934 52.2086 467.358 51.7846C467.782 51.3526 468.314 51.1366 468.954 51.1366C469.602 51.1366 470.128 51.3706 470.532 51.8386L470.136 52.2226C469.828 51.8506 469.434 51.6646 468.954 51.6646C468.478 51.6646 468.08 51.8246 467.76 52.1446C467.444 52.4606 467.286 52.8726 467.286 53.3806C467.286 53.8886 467.444 54.3006 467.76 54.6166C468.08 54.9366 468.478 55.0966 468.954 55.0966C469.454 55.0966 469.888 54.8866 470.256 54.4666L470.658 54.8566C470.454 55.1006 470.204 55.2906 469.908 55.4266C469.612 55.5586 469.294 55.6246 468.954 55.6246ZM473.715 55.5286H471.303V51.2326H471.855V55.0006H473.715V55.5286ZM476.799 51.2326V51.7606H474.843V53.1226H476.607V53.6386H474.843V55.0006H476.799V55.5286H474.291V51.2326H476.799ZM479.103 51.9106L478.401 53.8486H479.829L479.127 51.9106H479.103ZM477.795 55.5286H477.183L478.803 51.2326H479.427L481.047 55.5286H480.435L480.021 54.3646H478.215L477.795 55.5286ZM482.103 51.7606V53.2726H482.991C483.215 53.2726 483.405 53.2006 483.561 53.0566C483.717 52.9086 483.795 52.7266 483.795 52.5106C483.795 52.3106 483.721 52.1366 483.573 51.9886C483.429 51.8366 483.247 51.7606 483.027 51.7606H482.103ZM482.103 55.5286H481.551V51.2326H483.015C483.387 51.2326 483.703 51.3566 483.963 51.6046C484.227 51.8486 484.359 52.1506 484.359 52.5106C484.359 52.8066 484.261 53.0706 484.065 53.3026C483.873 53.5306 483.629 53.6766 483.333 53.7406L483.321 53.7586L484.527 55.5046V55.5286H483.873L482.715 53.7886H482.103V55.5286Z" fill="black"/>
<path opacity="0.5" d="M134.344 56.5286H131.932V52.2326H132.484V56.0006H134.344V56.5286ZM135.538 52.5746C135.538 52.6826 135.5 52.7746 135.424 52.8506C135.348 52.9266 135.256 52.9646 135.148 52.9646C135.04 52.9646 134.948 52.9266 134.872 52.8506C134.796 52.7746 134.758 52.6826 134.758 52.5746C134.758 52.4666 134.796 52.3746 134.872 52.2986C134.948 52.2226 135.04 52.1846 135.148 52.1846C135.256 52.1846 135.348 52.2226 135.424 52.2986C135.5 52.3746 135.538 52.4666 135.538 52.5746ZM135.424 53.5886V56.5286H134.872V53.5886H135.424ZM138.393 55.7126C138.393 55.9686 138.281 56.1846 138.057 56.3606C137.833 56.5366 137.551 56.6246 137.211 56.6246C136.915 56.6246 136.655 56.5486 136.431 56.3966C136.207 56.2406 136.047 56.0366 135.951 55.7846L136.443 55.5746C136.515 55.7506 136.619 55.8886 136.755 55.9886C136.895 56.0846 137.047 56.1326 137.211 56.1326C137.387 56.1326 137.533 56.0946 137.649 56.0186C137.769 55.9426 137.829 55.8526 137.829 55.7486C137.829 55.5606 137.685 55.4226 137.397 55.3346L136.893 55.2086C136.321 55.0646 136.035 54.7886 136.035 54.3806C136.035 54.1126 136.143 53.8986 136.359 53.7386C136.579 53.5746 136.859 53.4926 137.199 53.4926C137.459 53.4926 137.693 53.5546 137.901 53.6786C138.113 53.8026 138.261 53.9686 138.345 54.1766L137.853 54.3806C137.797 54.2566 137.705 54.1606 137.577 54.0926C137.453 54.0206 137.313 53.9846 137.157 53.9846C137.013 53.9846 136.883 54.0206 136.767 54.0926C136.655 54.1646 136.599 54.2526 136.599 54.3566C136.599 54.5246 136.757 54.6446 137.073 54.7166L137.517 54.8306C138.101 54.9746 138.393 55.2686 138.393 55.7126ZM140.008 56.5766C139.768 56.5766 139.568 56.5026 139.408 56.3546C139.252 56.2066 139.172 56.0006 139.168 55.7366V54.0926H138.652V53.5886H139.168V52.6886H139.72V53.5886H140.44V54.0926H139.72V55.5566C139.72 55.7526 139.758 55.8866 139.834 55.9586C139.91 56.0266 139.996 56.0606 140.092 56.0606C140.136 56.0606 140.178 56.0566 140.218 56.0486C140.262 56.0366 140.302 56.0226 140.338 56.0066L140.512 56.4986C140.368 56.5506 140.2 56.5766 140.008 56.5766ZM142.283 53.5886H142.811V53.9966H142.835C142.919 53.8526 143.047 53.7326 143.219 53.6366C143.395 53.5406 143.577 53.4926 143.765 53.4926C144.125 53.4926 144.401 53.5966 144.593 53.8046C144.789 54.0086 144.887 54.3006 144.887 54.6806V56.5286H144.335V54.7166C144.323 54.2366 144.081 53.9966 143.609 53.9966C143.389 53.9966 143.205 54.0866 143.057 54.2666C142.909 54.4426 142.835 54.6546 142.835 54.9026V56.5286H142.283V53.5886ZM145.908 55.6286C145.908 55.7726 145.968 55.8926 146.088 55.9886C146.212 56.0846 146.356 56.1326 146.52 56.1326C146.752 56.1326 146.958 56.0466 147.138 55.8746C147.322 55.7026 147.414 55.5006 147.414 55.2686C147.242 55.1326 147.002 55.0646 146.694 55.0646C146.47 55.0646 146.282 55.1186 146.13 55.2266C145.982 55.3346 145.908 55.4686 145.908 55.6286ZM146.622 53.4926C147.03 53.4926 147.352 53.6026 147.588 53.8226C147.824 54.0386 147.942 54.3366 147.942 54.7166V56.5286H147.414V56.1206H147.39C147.162 56.4566 146.858 56.6246 146.478 56.6246C146.154 56.6246 145.882 56.5286 145.662 56.3366C145.446 56.1446 145.338 55.9046 145.338 55.6166C145.338 55.3126 145.452 55.0706 145.68 54.8906C145.912 54.7106 146.22 54.6206 146.604 54.6206C146.932 54.6206 147.202 54.6806 147.414 54.8006V54.6746C147.414 54.4826 147.338 54.3206 147.186 54.1886C147.034 54.0526 146.856 53.9846 146.652 53.9846C146.344 53.9846 146.1 54.1146 145.92 54.3746L145.434 54.0686C145.702 53.6846 146.098 53.4926 146.622 53.4926ZM149.117 56.5286H148.565V53.5886H149.093V53.9966H149.117C149.201 53.8526 149.329 53.7326 149.501 53.6366C149.677 53.5406 149.851 53.4926 150.023 53.4926C150.239 53.4926 150.429 53.5426 150.593 53.6426C150.757 53.7426 150.877 53.8806 150.953 54.0566C151.197 53.6806 151.535 53.4926 151.967 53.4926C152.307 53.4926 152.569 53.5966 152.753 53.8046C152.937 54.0126 153.029 54.3086 153.029 54.6926V56.5286H152.477V54.7766C152.477 54.5006 152.427 54.3026 152.327 54.1826C152.227 54.0586 152.059 53.9966 151.823 53.9966C151.611 53.9966 151.433 54.0866 151.289 54.2666C151.145 54.4466 151.073 54.6586 151.073 54.9026V56.5286H150.521V54.7766C150.521 54.5006 150.471 54.3026 150.371 54.1826C150.271 54.0586 150.103 53.9966 149.867 53.9966C149.655 53.9966 149.477 54.0866 149.333 54.2666C149.189 54.4466 149.117 54.6586 149.117 54.9026V56.5286ZM154.994 56.6246C154.562 56.6246 154.206 56.4766 153.926 56.1806C153.646 55.8846 153.506 55.5106 153.506 55.0586C153.506 54.6106 153.642 54.2386 153.914 53.9426C154.186 53.6426 154.534 53.4926 154.958 53.4926C155.394 53.4926 155.74 53.6346 155.996 53.9186C156.256 54.1986 156.386 54.5926 156.386 55.1006L156.38 55.1606H154.07C154.078 55.4486 154.174 55.6806 154.358 55.8566C154.542 56.0326 154.762 56.1206 155.018 56.1206C155.37 56.1206 155.646 55.9446 155.846 55.5926L156.338 55.8326C156.206 56.0806 156.022 56.2746 155.786 56.4146C155.554 56.5546 155.29 56.6246 154.994 56.6246ZM154.112 54.7046H155.798C155.782 54.5006 155.698 54.3326 155.546 54.2006C155.398 54.0646 155.198 53.9966 154.946 53.9966C154.738 53.9966 154.558 54.0606 154.406 54.1886C154.258 54.3166 154.16 54.4886 154.112 54.7046Z" fill="black"/>
<path opacity="0.5" d="M254.344 56.5286H251.932V52.2326H252.484V56.0006H254.344V56.5286ZM255.538 52.5746C255.538 52.6826 255.5 52.7746 255.424 52.8506C255.348 52.9266 255.256 52.9646 255.148 52.9646C255.04 52.9646 254.948 52.9266 254.872 52.8506C254.796 52.7746 254.758 52.6826 254.758 52.5746C254.758 52.4666 254.796 52.3746 254.872 52.2986C254.948 52.2226 255.04 52.1846 255.148 52.1846C255.256 52.1846 255.348 52.2226 255.424 52.2986C255.5 52.3746 255.538 52.4666 255.538 52.5746ZM255.424 53.5886V56.5286H254.872V53.5886H255.424ZM258.393 55.7126C258.393 55.9686 258.281 56.1846 258.057 56.3606C257.833 56.5366 257.551 56.6246 257.211 56.6246C256.915 56.6246 256.655 56.5486 256.431 56.3966C256.207 56.2406 256.047 56.0366 255.951 55.7846L256.443 55.5746C256.515 55.7506 256.619 55.8886 256.755 55.9886C256.895 56.0846 257.047 56.1326 257.211 56.1326C257.387 56.1326 257.533 56.0946 257.649 56.0186C257.769 55.9426 257.829 55.8526 257.829 55.7486C257.829 55.5606 257.685 55.4226 257.397 55.3346L256.893 55.2086C256.321 55.0646 256.035 54.7886 256.035 54.3806C256.035 54.1126 256.143 53.8986 256.359 53.7386C256.579 53.5746 256.859 53.4926 257.199 53.4926C257.459 53.4926 257.693 53.5546 257.901 53.6786C258.113 53.8026 258.261 53.9686 258.345 54.1766L257.853 54.3806C257.797 54.2566 257.705 54.1606 257.577 54.0926C257.453 54.0206 257.313 53.9846 257.157 53.9846C257.013 53.9846 256.883 54.0206 256.767 54.0926C256.655 54.1646 256.599 54.2526 256.599 54.3566C256.599 54.5246 256.757 54.6446 257.073 54.7166L257.517 54.8306C258.101 54.9746 258.393 55.2686 258.393 55.7126ZM260.008 56.5766C259.768 56.5766 259.568 56.5026 259.408 56.3546C259.252 56.2066 259.172 56.0006 259.168 55.7366V54.0926H258.652V53.5886H259.168V52.6886H259.72V53.5886H260.44V54.0926H259.72V55.5566C259.72 55.7526 259.758 55.8866 259.834 55.9586C259.91 56.0266 259.996 56.0606 260.092 56.0606C260.136 56.0606 260.178 56.0566 260.218 56.0486C260.262 56.0366 260.302 56.0226 260.338 56.0066L260.512 56.4986C260.368 56.5506 260.2 56.5766 260.008 56.5766ZM262.283 53.5886H262.811V53.9966H262.835C262.919 53.8526 263.047 53.7326 263.219 53.6366C263.395 53.5406 263.577 53.4926 263.765 53.4926C264.125 53.4926 264.401 53.5966 264.593 53.8046C264.789 54.0086 264.887 54.3006 264.887 54.6806V56.5286H264.335V54.7166C264.323 54.2366 264.081 53.9966 263.609 53.9966C263.389 53.9966 263.205 54.0866 263.057 54.2666C262.909 54.4426 262.835 54.6546 262.835 54.9026V56.5286H262.283V53.5886ZM265.908 55.6286C265.908 55.7726 265.968 55.8926 266.088 55.9886C266.212 56.0846 266.356 56.1326 266.52 56.1326C266.752 56.1326 266.958 56.0466 267.138 55.8746C267.322 55.7026 267.414 55.5006 267.414 55.2686C267.242 55.1326 267.002 55.0646 266.694 55.0646C266.47 55.0646 266.282 55.1186 266.13 55.2266C265.982 55.3346 265.908 55.4686 265.908 55.6286ZM266.622 53.4926C267.03 53.4926 267.352 53.6026 267.588 53.8226C267.824 54.0386 267.942 54.3366 267.942 54.7166V56.5286H267.414V56.1206H267.39C267.162 56.4566 266.858 56.6246 266.478 56.6246C266.154 56.6246 265.882 56.5286 265.662 56.3366C265.446 56.1446 265.338 55.9046 265.338 55.6166C265.338 55.3126 265.452 55.0706 265.68 54.8906C265.912 54.7106 266.22 54.6206 266.604 54.6206C266.932 54.6206 267.202 54.6806 267.414 54.8006V54.6746C267.414 54.4826 267.338 54.3206 267.186 54.1886C267.034 54.0526 266.856 53.9846 266.652 53.9846C266.344 53.9846 266.1 54.1146 265.92 54.3746L265.434 54.0686C265.702 53.6846 266.098 53.4926 266.622 53.4926ZM269.117 56.5286H268.565V53.5886H269.093V53.9966H269.117C269.201 53.8526 269.329 53.7326 269.501 53.6366C269.677 53.5406 269.851 53.4926 270.023 53.4926C270.239 53.4926 270.429 53.5426 270.593 53.6426C270.757 53.7426 270.877 53.8806 270.953 54.0566C271.197 53.6806 271.535 53.4926 271.967 53.4926C272.307 53.4926 272.569 53.5966 272.753 53.8046C272.937 54.0126 273.029 54.3086 273.029 54.6926V56.5286H272.477V54.7766C272.477 54.5006 272.427 54.3026 272.327 54.1826C272.227 54.0586 272.059 53.9966 271.823 53.9966C271.611 53.9966 271.433 54.0866 271.289 54.2666C271.145 54.4466 271.073 54.6586 271.073 54.9026V56.5286H270.521V54.7766C270.521 54.5006 270.471 54.3026 270.371 54.1826C270.271 54.0586 270.103 53.9966 269.867 53.9966C269.655 53.9966 269.477 54.0866 269.333 54.2666C269.189 54.4466 269.117 54.6586 269.117 54.9026V56.5286ZM274.994 56.6246C274.562 56.6246 274.206 56.4766 273.926 56.1806C273.646 55.8846 273.506 55.5106 273.506 55.0586C273.506 54.6106 273.642 54.2386 273.914 53.9426C274.186 53.6426 274.534 53.4926 274.958 53.4926C275.394 53.4926 275.74 53.6346 275.996 53.9186C276.256 54.1986 276.386 54.5926 276.386 55.1006L276.38 55.1606H274.07C274.078 55.4486 274.174 55.6806 274.358 55.8566C274.542 56.0326 274.762 56.1206 275.018 56.1206C275.37 56.1206 275.646 55.9446 275.846 55.5926L276.338 55.8326C276.206 56.0806 276.022 56.2746 275.786 56.4146C275.554 56.5546 275.29 56.6246 274.994 56.6246ZM274.112 54.7046H275.798C275.782 54.5006 275.698 54.3326 275.546 54.2006C275.398 54.0646 275.198 53.9966 274.946 53.9966C274.738 53.9966 274.558 54.0606 274.406 54.1886C274.258 54.3166 274.16 54.4886 274.112 54.7046Z" fill="black"/>
<path opacity="0.5" d="M343.492 52.9106L342.79 54.8486H344.218L343.516 52.9106H343.492ZM342.184 56.5286H341.572L343.192 52.2326H343.816L345.436 56.5286H344.824L344.41 55.3646H342.604L342.184 56.5286ZM346.396 52.2326V56.5286H345.844V52.2326H346.396ZM347.62 52.2326V56.5286H347.068V52.2326H347.62ZM350.775 56.5766C350.535 56.5766 350.335 56.5026 350.175 56.3546C350.019 56.2066 349.939 56.0006 349.935 55.7366V54.0926H349.419V53.5886H349.935V52.6886H350.487V53.5886H351.207V54.0926H350.487V55.5566C350.487 55.7526 350.525 55.8866 350.601 55.9586C350.677 56.0266 350.763 56.0606 350.859 56.0606C350.903 56.0606 350.945 56.0566 350.985 56.0486C351.029 56.0366 351.069 56.0226 351.105 56.0066L351.279 56.4986C351.135 56.5506 350.967 56.5766 350.775 56.5766ZM354.39 53.5886L352.548 57.8246H351.978L352.662 56.3426L351.45 53.5886H352.05L352.926 55.7006H352.938L353.79 53.5886H354.39ZM356.19 56.1206C356.454 56.1206 356.676 56.0206 356.856 55.8206C357.036 55.6246 357.126 55.3706 357.126 55.0586C357.126 54.7506 357.036 54.4966 356.856 54.2966C356.676 54.0966 356.454 53.9966 356.19 53.9966C355.922 53.9966 355.698 54.0966 355.518 54.2966C355.342 54.4966 355.254 54.7506 355.254 55.0586C355.254 55.3706 355.342 55.6266 355.518 55.8266C355.698 56.0226 355.922 56.1206 356.19 56.1206ZM356.28 56.6246C356.064 56.6246 355.866 56.5786 355.686 56.4866C355.51 56.3946 355.374 56.2726 355.278 56.1206H355.254L355.278 56.5286V57.8246H354.726V53.5886H355.254V53.9966H355.278C355.374 53.8446 355.51 53.7226 355.686 53.6306C355.866 53.5386 356.064 53.4926 356.28 53.4926C356.668 53.4926 356.996 53.6446 357.264 53.9486C357.54 54.2566 357.678 54.6266 357.678 55.0586C357.678 55.4946 357.54 55.8646 357.264 56.1686C356.996 56.4726 356.668 56.6246 356.28 56.6246ZM359.504 56.6246C359.072 56.6246 358.716 56.4766 358.436 56.1806C358.156 55.8846 358.016 55.5106 358.016 55.0586C358.016 54.6106 358.152 54.2386 358.424 53.9426C358.696 53.6426 359.044 53.4926 359.468 53.4926C359.904 53.4926 360.25 53.6346 360.506 53.9186C360.766 54.1986 360.896 54.5926 360.896 55.1006L360.89 55.1606H358.58C358.588 55.4486 358.684 55.6806 358.868 55.8566C359.052 56.0326 359.272 56.1206 359.528 56.1206C359.88 56.1206 360.156 55.9446 360.356 55.5926L360.848 55.8326C360.716 56.0806 360.532 56.2746 360.296 56.4146C360.064 56.5546 359.8 56.6246 359.504 56.6246ZM358.622 54.7046H360.308C360.292 54.5006 360.208 54.3326 360.056 54.2006C359.908 54.0646 359.708 53.9966 359.456 53.9966C359.248 53.9966 359.068 54.0606 358.916 54.1886C358.768 54.3166 358.67 54.4886 358.622 54.7046Z" fill="black"/>
<line x1="341.5" y1="61" x2="419.5" y2="61" stroke="black"/>
<path d="M322.5 56.5286L324.232 53.7408H320.768L322.5 56.5286Z" fill="#020A13"/>
<path d="M412.5 56.5286L414.232 53.7408H410.768L412.5 56.5286Z" fill="#020A13"/>
<rect x="451.5" y="44.5" width="47.5" height="16.5" rx="2.5" stroke="#020A13"/>
<path d="M499.309 306.365C498.634 307.817 497.577 308.886 496.123 309.559C495.568 309.81 495.251 310.285 494.881 310.72C494.498 311.169 494.115 311.644 493.559 311.776C492.013 312.145 490.652 313.016 489.092 313.307C488.96 313.333 488.841 313.373 488.709 313.425C486.37 314.376 483.885 314.389 481.44 314.389C479.524 314.389 477.581 314.402 475.651 314.046C474.66 313.861 473.748 313.465 473.048 312.845C471.938 311.868 470.629 311.235 469.4 310.509C467.88 309.612 467.114 308.107 465.99 306.907C464.907 305.745 464.167 304.346 463.36 303C463.109 302.591 462.898 302.156 462.752 301.694C462.026 299.345 461.629 296.93 461.497 294.476C461.457 293.776 461.338 293.064 461.18 292.404C460.863 291.15 461.193 289.962 461.219 288.748C461.219 288.537 461.233 288.287 461.325 288.102C462.039 286.703 462.263 285.067 463.374 283.866C463.625 283.602 463.744 283.272 463.783 282.916C463.915 281.702 464.656 280.778 465.488 280.026C466.136 279.445 466.625 278.798 466.929 278.033C467.418 276.819 468.316 275.988 469.374 275.354C470.55 274.655 471.647 273.876 472.651 272.952C472.81 272.807 472.995 272.636 473.193 272.583C475.546 271.857 477.449 270.142 479.867 269.574C480.383 269.455 480.898 269.376 481.427 269.363C483.621 269.284 485.828 269.297 487.982 269.719C490.229 270.155 492.383 270.894 494.207 272.359C494.313 273.005 493.863 273.401 493.546 273.85C492.568 275.262 492 276.74 492.396 278.508C492.634 279.59 492.251 280.672 492.251 281.754C491.934 282.52 491.696 283.325 491.405 284.103C491.035 285.146 490.929 286.017 491.656 287.046C492.185 287.811 492.092 288.894 492.198 289.857C492.648 294.027 494.379 297.326 498.529 298.936C498.859 299.068 499.242 299.358 499.52 299.16C500.947 298.184 501.687 299.503 502.665 300.031C502.546 301.364 502.018 302.512 501.027 303.423C500.723 303.7 500.551 304.017 500.538 304.426C500.405 304.663 500.154 304.703 499.969 304.597C498.489 303.673 496.678 303.687 495.185 302.776C494.656 302.446 494.141 302.143 493.771 301.628C493.189 300.849 492.529 300.137 491.788 299.517C490.639 298.58 489.647 297.564 489.317 296.059C489.277 295.888 489.357 296.086 489.264 295.94C489.026 295.531 488.749 294.858 488.26 295.096C487.731 295.36 488.114 296.02 488.352 296.376C490.084 298.976 491.339 301.918 494.498 303.383C496.203 304.148 497.656 305.442 499.309 306.365Z" fill="#FFD046"/>
<path d="M492.094 281.754C492.147 279.907 491.804 278.059 492.094 276.212C492.332 274.668 493.403 273.572 494.249 272.358C494.883 271.619 495.213 270.696 495.676 269.864C496.152 269.02 496.733 268.373 497.592 267.964C498.028 267.753 498.465 267.542 498.451 266.935C498.438 266.499 498.795 266.38 499.152 266.275C501.306 265.628 503.434 265.404 505.601 266.262C506.5 266.618 507.438 266.842 508.363 267.133C508.535 267.185 508.707 267.238 508.852 267.317C510.994 268.571 513.267 269.64 514.641 271.897C515.117 272.675 515.725 273.375 516.214 274.166C516.862 275.222 517.139 276.37 517.192 277.545C517.284 279.511 517.232 281.49 517.245 283.47C517.245 283.826 517.152 284.169 517.02 284.486C516.373 286.069 515.804 287.666 514.773 289.065C514.43 289.54 513.994 289.883 513.478 290.16C512.434 290.714 511.364 291.255 510.372 291.889C509.394 292.509 508.363 292.733 507.24 292.681C506.976 292.667 506.711 292.641 506.447 292.641C504.637 292.588 504.557 292.641 504.108 294.238C503.381 292.879 502.006 292.628 500.711 292.338C499.02 291.955 497.592 291.15 496.469 289.883C495.332 288.616 493.667 287.904 492.874 286.294C492.147 284.842 491.658 283.39 492.094 281.754Z" fill="#FD8B98"/>
<path d="M492.096 281.754C492.268 283.721 492.545 285.66 493.92 287.244C494.065 287.402 494.145 287.693 494.316 287.745C495.598 288.234 496.325 289.382 497.33 290.213C498.268 291.005 499.259 291.665 500.528 291.902C501.546 292.087 502.524 292.549 503.528 292.813C504.4 293.05 503.898 293.763 504.11 294.225C503.806 296.204 503.277 298.118 502.709 300.031C501.942 299.767 501.096 299.688 500.435 298.989C500.132 299.081 500.198 299.649 499.788 299.728C499.352 299.807 499.048 299.543 498.691 299.358C498.096 299.068 497.488 298.817 496.907 298.527C495.109 297.629 493.946 296.151 493.114 294.357C492.704 293.473 492.506 292.536 492.083 291.665C491.858 291.203 491.845 290.728 491.885 290.253C491.964 289.316 491.647 288.432 491.62 287.508C491.607 287.059 491.277 286.809 490.986 286.558C490.655 286.267 490.51 285.924 490.642 285.502C490.999 284.38 491.382 283.259 491.766 282.15C491.805 281.992 491.977 281.886 492.096 281.754Z" fill="#FE581D"/>
<path d="M499.317 306.365C498.312 306.299 497.493 305.851 496.7 305.244C495.696 304.478 494.665 303.739 493.541 303.145C491.955 302.314 490.753 301.1 489.973 299.424C489.59 298.606 488.968 297.893 488.413 297.154C487.951 296.534 487.686 295.848 487.7 295.082C487.713 294.436 488.096 294.212 488.638 294.541C489.101 294.819 489.51 295.254 489.603 295.755C489.973 297.695 491.466 298.764 492.775 299.978C493.224 300.401 493.673 300.81 494.004 301.351C494.757 302.591 496.105 302.895 497.334 303.251C498.312 303.528 499.29 303.713 500.083 304.386C500.229 304.518 500.414 304.478 500.586 304.425C501.867 304.333 503.097 304.782 504.365 304.716C505.713 304.65 506.916 304.293 507.934 303.37C508.224 303.106 508.568 302.842 508.925 302.736C510.141 302.406 511.383 302.142 512.612 301.879C512.837 301.826 513.154 301.773 513.286 302.103C513.392 302.393 513.247 302.604 513.035 302.789C512.335 303.449 511.634 304.122 510.921 304.769C510.551 305.098 510.101 305.27 509.599 305.31C507.339 305.494 505.172 306.246 502.925 306.524C502.264 306.603 501.616 306.682 500.982 306.444C500.453 306.26 499.885 306.273 499.317 306.365Z" fill="#242733"/>
<defs>
<clipPath id="clip0">
<rect width="24" height="39" fill="white" transform="translate(38.9297 23.0447) rotate(11.7308)"/>
</clipPath>
</defs>
</svg>
