<svg width="430" height="493" viewBox="0 0 430 493" fill="none" xmlns="http://www.w3.org/2000/svg">
<path d="M39 472.26C39 478.064 43.9675 482.645 49.7563 482.234C190.425 472.249 256.971 469.039 391.977 481.927C397.863 482.489 403 477.872 403 471.96V28C403 22.4771 398.523 18 393 18H49C43.4772 18 39 22.4771 39 28V472.26Z" fill="#091929" fill-opacity="0.15"/>
<rect x="24" width="364" height="463" rx="10" fill="white"/>
<path d="M126.682 136.517C126.682 137.332 126.383 137.986 125.785 138.48C125.178 138.965 124.442 139.208 123.575 139.208C122.804 139.208 122.123 138.983 121.534 138.532C120.945 138.081 120.537 137.466 120.312 136.686L121.456 136.218C121.534 136.495 121.642 136.747 121.781 136.972C121.92 137.197 122.08 137.392 122.262 137.557C122.453 137.713 122.661 137.839 122.886 137.934C123.111 138.021 123.35 138.064 123.601 138.064C124.147 138.064 124.593 137.925 124.94 137.648C125.287 137.362 125.46 136.985 125.46 136.517C125.46 136.127 125.317 135.793 125.031 135.516C124.762 135.247 124.26 134.987 123.523 134.736C122.778 134.467 122.314 134.285 122.132 134.19C121.144 133.687 120.65 132.946 120.65 131.967C120.65 131.282 120.923 130.697 121.469 130.212C122.024 129.727 122.704 129.484 123.51 129.484C124.221 129.484 124.836 129.666 125.356 130.03C125.876 130.385 126.223 130.832 126.396 131.369L125.278 131.837C125.174 131.49 124.966 131.204 124.654 130.979C124.351 130.745 123.978 130.628 123.536 130.628C123.068 130.628 122.674 130.758 122.353 131.018C122.032 131.261 121.872 131.577 121.872 131.967C121.872 132.288 121.998 132.565 122.249 132.799C122.526 133.033 123.129 133.31 124.056 133.631C125.001 133.952 125.672 134.346 126.071 134.814C126.478 135.273 126.682 135.841 126.682 136.517ZM130.826 139.208C129.881 139.208 129.097 138.887 128.473 138.246C127.857 137.587 127.55 136.777 127.55 135.815C127.55 134.836 127.857 134.025 128.473 133.384C129.097 132.743 129.881 132.422 130.826 132.422C131.476 132.422 132.043 132.587 132.529 132.916C133.014 133.237 133.378 133.683 133.621 134.255L132.529 134.71C132.191 133.913 131.597 133.514 130.748 133.514C130.202 133.514 129.729 133.735 129.331 134.177C128.941 134.619 128.746 135.165 128.746 135.815C128.746 136.465 128.941 137.011 129.331 137.453C129.729 137.895 130.202 138.116 130.748 138.116C131.623 138.116 132.238 137.717 132.594 136.92L133.66 137.375C133.426 137.947 133.057 138.398 132.555 138.727C132.061 139.048 131.484 139.208 130.826 139.208ZM134.706 129.692H135.902V132.63L135.85 133.514H135.902C136.084 133.202 136.361 132.942 136.734 132.734C137.115 132.526 137.509 132.422 137.917 132.422C138.697 132.422 139.295 132.647 139.711 133.098C140.135 133.54 140.348 134.173 140.348 134.996V139H139.152V135.23C139.152 134.086 138.645 133.514 137.631 133.514C137.145 133.514 136.734 133.718 136.396 134.125C136.066 134.524 135.902 134.992 135.902 135.529V139H134.706V129.692ZM144.611 139.208C143.675 139.208 142.904 138.887 142.297 138.246C141.691 137.605 141.387 136.794 141.387 135.815C141.387 134.844 141.682 134.038 142.271 133.397C142.861 132.747 143.615 132.422 144.533 132.422C145.478 132.422 146.228 132.73 146.782 133.345C147.346 133.952 147.627 134.805 147.627 135.906L147.614 136.036H142.609C142.627 136.66 142.835 137.163 143.233 137.544C143.632 137.925 144.109 138.116 144.663 138.116C145.426 138.116 146.024 137.735 146.457 136.972L147.523 137.492C147.237 138.029 146.839 138.45 146.327 138.753C145.825 139.056 145.253 139.208 144.611 139.208ZM142.7 135.048H146.353C146.319 134.606 146.137 134.242 145.807 133.956C145.487 133.661 145.053 133.514 144.507 133.514C144.057 133.514 143.667 133.653 143.337 133.93C143.017 134.207 142.804 134.58 142.7 135.048ZM151.645 138.116C152.234 138.116 152.715 137.904 153.088 137.479C153.478 137.054 153.673 136.5 153.673 135.815C153.673 135.148 153.478 134.597 153.088 134.164C152.706 133.731 152.225 133.514 151.645 133.514C151.073 133.514 150.592 133.731 150.202 134.164C149.812 134.597 149.617 135.148 149.617 135.815C149.617 136.491 149.812 137.041 150.202 137.466C150.592 137.899 151.073 138.116 151.645 138.116ZM151.45 139.208C150.618 139.208 149.903 138.879 149.305 138.22C148.715 137.553 148.421 136.751 148.421 135.815C148.421 134.879 148.715 134.077 149.305 133.41C149.903 132.751 150.618 132.422 151.45 132.422C151.918 132.422 152.342 132.522 152.724 132.721C153.114 132.92 153.413 133.185 153.621 133.514H153.673L153.621 132.63V129.692H154.817V139H153.673V138.116H153.621C153.413 138.445 153.114 138.71 152.724 138.909C152.342 139.108 151.918 139.208 151.45 139.208ZM161.865 139H160.721V138.116H160.669C160.487 138.428 160.205 138.688 159.824 138.896C159.451 139.104 159.061 139.208 158.654 139.208C157.874 139.208 157.272 138.987 156.847 138.545C156.431 138.094 156.223 137.457 156.223 136.634V132.63H157.419V136.556C157.445 137.596 157.969 138.116 158.992 138.116C159.469 138.116 159.867 137.925 160.188 137.544C160.509 137.154 160.669 136.69 160.669 136.153V132.63H161.865V139ZM164.517 129.692V139H163.321V129.692H164.517ZM168.771 139.208C167.835 139.208 167.063 138.887 166.457 138.246C165.85 137.605 165.547 136.794 165.547 135.815C165.547 134.844 165.841 134.038 166.431 133.397C167.02 132.747 167.774 132.422 168.693 132.422C169.637 132.422 170.387 132.73 170.942 133.345C171.505 133.952 171.787 134.805 171.787 135.906L171.774 136.036H166.769C166.786 136.66 166.994 137.163 167.393 137.544C167.791 137.925 168.268 138.116 168.823 138.116C169.585 138.116 170.183 137.735 170.617 136.972L171.683 137.492C171.397 138.029 170.998 138.45 170.487 138.753C169.984 139.056 169.412 139.208 168.771 139.208ZM166.86 135.048H170.513C170.478 134.606 170.296 134.242 169.967 133.956C169.646 133.661 169.213 133.514 168.667 133.514C168.216 133.514 167.826 133.653 167.497 133.93C167.176 134.207 166.964 134.58 166.86 135.048ZM175.804 138.116C176.393 138.116 176.874 137.904 177.247 137.479C177.637 137.054 177.832 136.5 177.832 135.815C177.832 135.148 177.637 134.597 177.247 134.164C176.865 133.731 176.384 133.514 175.804 133.514C175.232 133.514 174.751 133.731 174.361 134.164C173.971 134.597 173.776 135.148 173.776 135.815C173.776 136.491 173.971 137.041 174.361 137.466C174.751 137.899 175.232 138.116 175.804 138.116ZM175.609 139.208C174.777 139.208 174.062 138.879 173.464 138.22C172.874 137.553 172.58 136.751 172.58 135.815C172.58 134.879 172.874 134.077 173.464 133.41C174.062 132.751 174.777 132.422 175.609 132.422C176.077 132.422 176.501 132.522 176.883 132.721C177.273 132.92 177.572 133.185 177.78 133.514H177.832L177.78 132.63V129.692H178.976V139H177.832V138.116H177.78C177.572 138.445 177.273 138.71 176.883 138.909C176.501 139.108 176.077 139.208 175.609 139.208ZM184.162 137.05C184.162 137.362 184.292 137.622 184.552 137.83C184.82 138.038 185.132 138.142 185.488 138.142C185.99 138.142 186.437 137.956 186.827 137.583C187.225 137.21 187.425 136.773 187.425 136.27C187.052 135.975 186.532 135.828 185.865 135.828C185.379 135.828 184.972 135.945 184.643 136.179C184.322 136.413 184.162 136.703 184.162 137.05ZM185.709 132.422C186.593 132.422 187.29 132.66 187.802 133.137C188.313 133.605 188.569 134.251 188.569 135.074V139H187.425V138.116H187.373C186.879 138.844 186.22 139.208 185.397 139.208C184.695 139.208 184.105 139 183.629 138.584C183.161 138.168 182.927 137.648 182.927 137.024C182.927 136.365 183.174 135.841 183.668 135.451C184.17 135.061 184.838 134.866 185.67 134.866C186.38 134.866 186.965 134.996 187.425 135.256V134.983C187.425 134.567 187.26 134.216 186.931 133.93C186.601 133.635 186.216 133.488 185.774 133.488C185.106 133.488 184.578 133.77 184.188 134.333L183.135 133.67C183.715 132.838 184.573 132.422 185.709 132.422ZM192.312 139.104C191.793 139.104 191.359 138.944 191.013 138.623C190.675 138.302 190.501 137.856 190.493 137.284V133.722H189.375V132.63H190.493V130.68H191.689V132.63H193.249V133.722H191.689V136.894C191.689 137.319 191.771 137.609 191.936 137.765C192.1 137.912 192.287 137.986 192.494 137.986C192.59 137.986 192.681 137.977 192.768 137.96C192.863 137.934 192.95 137.904 193.028 137.869L193.405 138.935C193.093 139.048 192.729 139.104 192.312 139.104ZM201.182 133.631L200.376 134.216L199.388 132.864H199.31L198.322 134.216L197.516 133.631L198.517 132.279L198.491 132.188L197.035 131.694L197.347 130.745L198.79 131.265L198.855 131.226V129.692H199.843V131.226L199.908 131.265L201.351 130.745L201.663 131.694L200.207 132.188L200.181 132.279L201.182 133.631Z" fill="#576E87"/>
<path d="M124.303 161.208C123.731 161.208 123.215 161.091 122.756 160.857C122.297 160.614 121.902 160.285 121.573 159.869C121.252 159.453 121.005 158.963 120.832 158.4C120.659 157.828 120.572 157.213 120.572 156.554C120.572 155.895 120.659 155.284 120.832 154.721C121.005 154.149 121.252 153.655 121.573 153.239C121.902 152.823 122.297 152.498 122.756 152.264C123.215 152.021 123.731 151.9 124.303 151.9C124.875 151.9 125.391 152.021 125.85 152.264C126.309 152.498 126.699 152.823 127.02 153.239C127.349 153.655 127.601 154.149 127.774 154.721C127.947 155.284 128.034 155.895 128.034 156.554C128.034 157.213 127.947 157.828 127.774 158.4C127.601 158.963 127.349 159.453 127.02 159.869C126.699 160.285 126.309 160.614 125.85 160.857C125.391 161.091 124.875 161.208 124.303 161.208ZM124.303 159.596C124.615 159.596 124.897 159.522 125.148 159.375C125.399 159.219 125.612 159.007 125.785 158.738C125.967 158.461 126.101 158.136 126.188 157.763C126.283 157.39 126.331 156.987 126.331 156.554C126.331 156.112 126.283 155.709 126.188 155.345C126.101 154.972 125.967 154.652 125.785 154.383C125.612 154.106 125.399 153.893 125.148 153.746C124.897 153.59 124.615 153.512 124.303 153.512C123.982 153.512 123.696 153.59 123.445 153.746C123.194 153.893 122.981 154.106 122.808 154.383C122.635 154.652 122.5 154.972 122.405 155.345C122.318 155.709 122.275 156.112 122.275 156.554C122.275 156.987 122.318 157.39 122.405 157.763C122.5 158.136 122.635 158.461 122.808 158.738C122.981 159.007 123.194 159.219 123.445 159.375C123.696 159.522 123.982 159.596 124.303 159.596ZM132.26 161.208C131.896 161.208 131.545 161.16 131.207 161.065C130.878 160.97 130.575 160.827 130.297 160.636C130.02 160.437 129.773 160.19 129.556 159.895C129.348 159.6 129.188 159.258 129.075 158.868L130.674 158.231C130.787 158.664 130.978 158.994 131.246 159.219C131.515 159.436 131.853 159.544 132.26 159.544C132.442 159.544 132.616 159.518 132.78 159.466C132.945 159.405 133.088 159.323 133.209 159.219C133.331 159.115 133.426 158.994 133.495 158.855C133.573 158.708 133.612 158.543 133.612 158.361C133.612 157.98 133.469 157.681 133.183 157.464C132.906 157.247 132.52 157.139 132.026 157.139H131.259V155.592H131.961C132.135 155.592 132.304 155.57 132.468 155.527C132.633 155.484 132.776 155.419 132.897 155.332C133.027 155.237 133.127 155.12 133.196 154.981C133.274 154.834 133.313 154.665 133.313 154.474C133.313 154.179 133.209 153.941 133.001 153.759C132.793 153.568 132.512 153.473 132.156 153.473C131.775 153.473 131.48 153.577 131.272 153.785C131.073 153.984 130.934 154.21 130.856 154.461L129.296 153.824C129.374 153.607 129.491 153.386 129.647 153.161C129.803 152.927 129.998 152.719 130.232 152.537C130.475 152.346 130.757 152.195 131.077 152.082C131.398 151.961 131.766 151.9 132.182 151.9C132.607 151.9 132.993 151.961 133.339 152.082C133.695 152.203 133.998 152.372 134.249 152.589C134.501 152.797 134.696 153.048 134.834 153.343C134.973 153.629 135.042 153.941 135.042 154.279C135.042 154.539 135.008 154.773 134.938 154.981C134.878 155.189 134.795 155.375 134.691 155.54C134.587 155.705 134.466 155.848 134.327 155.969C134.197 156.082 134.063 156.173 133.924 156.242V156.346C134.34 156.511 134.683 156.775 134.951 157.139C135.229 157.503 135.367 157.962 135.367 158.517C135.367 158.907 135.294 159.267 135.146 159.596C134.999 159.917 134.787 160.198 134.509 160.441C134.241 160.684 133.916 160.87 133.534 161C133.153 161.139 132.728 161.208 132.26 161.208ZM139.674 151.692H141.715L145.459 157.932H145.563L145.459 156.138V151.692H147.201V161H145.355L141.403 154.409H141.299L141.403 156.203V161H139.674V151.692ZM151.877 154.422C152.371 154.422 152.821 154.509 153.229 154.682C153.645 154.847 154 155.081 154.295 155.384C154.598 155.679 154.832 156.034 154.997 156.45C155.17 156.866 155.257 157.321 155.257 157.815C155.257 158.309 155.17 158.764 154.997 159.18C154.832 159.596 154.598 159.956 154.295 160.259C154 160.554 153.645 160.788 153.229 160.961C152.821 161.126 152.371 161.208 151.877 161.208C151.383 161.208 150.928 161.126 150.512 160.961C150.104 160.788 149.749 160.554 149.446 160.259C149.151 159.956 148.917 159.596 148.744 159.18C148.579 158.764 148.497 158.309 148.497 157.815C148.497 157.321 148.579 156.866 148.744 156.45C148.917 156.034 149.151 155.679 149.446 155.384C149.749 155.081 150.104 154.847 150.512 154.682C150.928 154.509 151.383 154.422 151.877 154.422ZM151.877 159.635C152.093 159.635 152.301 159.596 152.501 159.518C152.709 159.431 152.891 159.31 153.047 159.154C153.203 158.998 153.324 158.807 153.411 158.582C153.506 158.357 153.554 158.101 153.554 157.815C153.554 157.529 153.506 157.273 153.411 157.048C153.324 156.823 153.203 156.632 153.047 156.476C152.891 156.32 152.709 156.203 152.501 156.125C152.301 156.038 152.093 155.995 151.877 155.995C151.651 155.995 151.439 156.038 151.24 156.125C151.04 156.203 150.863 156.32 150.707 156.476C150.551 156.632 150.425 156.823 150.33 157.048C150.243 157.273 150.2 157.529 150.2 157.815C150.2 158.101 150.243 158.357 150.33 158.582C150.425 158.807 150.551 158.998 150.707 159.154C150.863 159.31 151.04 159.431 151.24 159.518C151.439 159.596 151.651 159.635 151.877 159.635ZM155.548 154.63H157.485L159.071 158.686H159.162L160.761 154.63H162.685L159.942 161H158.265L155.548 154.63ZM166.187 161V159.453C166.698 158.95 167.171 158.482 167.604 158.049C167.786 157.867 167.972 157.681 168.163 157.49C168.354 157.299 168.531 157.122 168.696 156.957C168.861 156.792 169.008 156.645 169.138 156.515C169.268 156.376 169.368 156.268 169.437 156.19C169.576 156.025 169.697 155.878 169.801 155.748C169.914 155.618 170 155.492 170.061 155.371C170.13 155.241 170.182 155.115 170.217 154.994C170.252 154.864 170.269 154.725 170.269 154.578C170.269 154.292 170.156 154.045 169.931 153.837C169.706 153.62 169.398 153.512 169.008 153.512C168.618 153.512 168.315 153.625 168.098 153.85C167.881 154.067 167.734 154.314 167.656 154.591L166.109 153.954C166.178 153.72 166.291 153.482 166.447 153.239C166.603 152.988 166.802 152.767 167.045 152.576C167.288 152.377 167.574 152.216 167.903 152.095C168.241 151.965 168.618 151.9 169.034 151.9C169.485 151.9 169.892 151.969 170.256 152.108C170.62 152.238 170.928 152.42 171.179 152.654C171.43 152.888 171.625 153.165 171.764 153.486C171.903 153.798 171.972 154.136 171.972 154.5C171.972 155.055 171.833 155.566 171.556 156.034C171.287 156.493 170.958 156.922 170.568 157.321L169.45 158.439C169.155 158.734 168.822 159.063 168.449 159.427L168.501 159.505H172.102V161H166.187ZM176.976 161.208C176.404 161.208 175.888 161.091 175.429 160.857C174.97 160.614 174.575 160.285 174.246 159.869C173.925 159.453 173.678 158.963 173.505 158.4C173.332 157.828 173.245 157.213 173.245 156.554C173.245 155.895 173.332 155.284 173.505 154.721C173.678 154.149 173.925 153.655 174.246 153.239C174.575 152.823 174.97 152.498 175.429 152.264C175.888 152.021 176.404 151.9 176.976 151.9C177.548 151.9 178.064 152.021 178.523 152.264C178.982 152.498 179.372 152.823 179.693 153.239C180.022 153.655 180.274 154.149 180.447 154.721C180.62 155.284 180.707 155.895 180.707 156.554C180.707 157.213 180.62 157.828 180.447 158.4C180.274 158.963 180.022 159.453 179.693 159.869C179.372 160.285 178.982 160.614 178.523 160.857C178.064 161.091 177.548 161.208 176.976 161.208ZM176.976 159.596C177.288 159.596 177.57 159.522 177.821 159.375C178.072 159.219 178.285 159.007 178.458 158.738C178.64 158.461 178.774 158.136 178.861 157.763C178.956 157.39 179.004 156.987 179.004 156.554C179.004 156.112 178.956 155.709 178.861 155.345C178.774 154.972 178.64 154.652 178.458 154.383C178.285 154.106 178.072 153.893 177.821 153.746C177.57 153.59 177.288 153.512 176.976 153.512C176.655 153.512 176.369 153.59 176.118 153.746C175.867 153.893 175.654 154.106 175.481 154.383C175.308 154.652 175.173 154.972 175.078 155.345C174.991 155.709 174.948 156.112 174.948 156.554C174.948 156.987 174.991 157.39 175.078 157.763C175.173 158.136 175.308 158.461 175.481 158.738C175.654 159.007 175.867 159.219 176.118 159.375C176.369 159.522 176.655 159.596 176.976 159.596ZM181.751 161V159.453C182.263 158.95 182.735 158.482 183.168 158.049C183.35 157.867 183.537 157.681 183.727 157.49C183.918 157.299 184.096 157.122 184.26 156.957C184.425 156.792 184.572 156.645 184.702 156.515C184.832 156.376 184.932 156.268 185.001 156.19C185.14 156.025 185.261 155.878 185.365 155.748C185.478 155.618 185.565 155.492 185.625 155.371C185.695 155.241 185.747 155.115 185.781 154.994C185.816 154.864 185.833 154.725 185.833 154.578C185.833 154.292 185.721 154.045 185.495 153.837C185.27 153.62 184.962 153.512 184.572 153.512C184.182 153.512 183.879 153.625 183.662 153.85C183.446 154.067 183.298 154.314 183.22 154.591L181.673 153.954C181.743 153.72 181.855 153.482 182.011 153.239C182.167 152.988 182.367 152.767 182.609 152.576C182.852 152.377 183.138 152.216 183.467 152.095C183.805 151.965 184.182 151.9 184.598 151.9C185.049 151.9 185.456 151.969 185.82 152.108C186.184 152.238 186.492 152.42 186.743 152.654C186.995 152.888 187.19 153.165 187.328 153.486C187.467 153.798 187.536 154.136 187.536 154.5C187.536 155.055 187.398 155.566 187.12 156.034C186.852 156.493 186.522 156.922 186.132 157.321L185.014 158.439C184.72 158.734 184.386 159.063 184.013 159.427L184.065 159.505H187.666V161H181.751ZM192.54 161.208C191.968 161.208 191.453 161.091 190.993 160.857C190.534 160.614 190.14 160.285 189.81 159.869C189.49 159.453 189.243 158.963 189.069 158.4C188.896 157.828 188.809 157.213 188.809 156.554C188.809 155.895 188.896 155.284 189.069 154.721C189.243 154.149 189.49 153.655 189.81 153.239C190.14 152.823 190.534 152.498 190.993 152.264C191.453 152.021 191.968 151.9 192.54 151.9C193.112 151.9 193.628 152.021 194.087 152.264C194.547 152.498 194.937 152.823 195.257 153.239C195.587 153.655 195.838 154.149 196.011 154.721C196.185 155.284 196.271 155.895 196.271 156.554C196.271 157.213 196.185 157.828 196.011 158.4C195.838 158.963 195.587 159.453 195.257 159.869C194.937 160.285 194.547 160.614 194.087 160.857C193.628 161.091 193.112 161.208 192.54 161.208ZM192.54 159.596C192.852 159.596 193.134 159.522 193.385 159.375C193.637 159.219 193.849 159.007 194.022 158.738C194.204 158.461 194.339 158.136 194.425 157.763C194.521 157.39 194.568 156.987 194.568 156.554C194.568 156.112 194.521 155.709 194.425 155.345C194.339 154.972 194.204 154.652 194.022 154.383C193.849 154.106 193.637 153.893 193.385 153.746C193.134 153.59 192.852 153.512 192.54 153.512C192.22 153.512 191.934 153.59 191.682 153.746C191.431 153.893 191.219 154.106 191.045 154.383C190.872 154.652 190.738 154.972 190.642 155.345C190.556 155.709 190.512 156.112 190.512 156.554C190.512 156.987 190.556 157.39 190.642 157.763C190.738 158.136 190.872 158.461 191.045 158.738C191.219 159.007 191.431 159.219 191.682 159.375C191.934 159.522 192.22 159.596 192.54 159.596Z" fill="#020A13"/>
<path d="M326.37 129.692V130.836H322.132V133.787H325.954V134.905H322.132V137.856H326.37V139H320.936V129.692H326.37ZM327.647 132.63H328.791V133.514H328.843C329.025 133.202 329.302 132.942 329.675 132.734C330.056 132.526 330.451 132.422 330.858 132.422C331.638 132.422 332.236 132.647 332.652 133.098C333.077 133.54 333.289 134.173 333.289 134.996V139H332.093V135.074C332.067 134.034 331.543 133.514 330.52 133.514C330.043 133.514 329.645 133.709 329.324 134.099C329.003 134.48 328.843 134.94 328.843 135.477V139H327.647V132.63ZM337.553 138.116C338.142 138.116 338.623 137.904 338.996 137.479C339.386 137.054 339.581 136.5 339.581 135.815C339.581 135.148 339.386 134.597 338.996 134.164C338.615 133.731 338.134 133.514 337.553 133.514C336.981 133.514 336.5 133.731 336.11 134.164C335.72 134.597 335.525 135.148 335.525 135.815C335.525 136.491 335.72 137.041 336.11 137.466C336.5 137.899 336.981 138.116 337.553 138.116ZM337.358 139.208C336.526 139.208 335.811 138.879 335.213 138.22C334.624 137.553 334.329 136.751 334.329 135.815C334.329 134.879 334.624 134.077 335.213 133.41C335.811 132.751 336.526 132.422 337.358 132.422C337.826 132.422 338.251 132.522 338.632 132.721C339.022 132.92 339.321 133.185 339.529 133.514H339.581L339.529 132.63V129.692H340.725V139H339.581V138.116H339.529C339.321 138.445 339.022 138.71 338.632 138.909C338.251 139.108 337.826 139.208 337.358 139.208ZM345.911 137.05C345.911 137.362 346.041 137.622 346.301 137.83C346.569 138.038 346.881 138.142 347.237 138.142C347.739 138.142 348.186 137.956 348.576 137.583C348.974 137.21 349.174 136.773 349.174 136.27C348.801 135.975 348.281 135.828 347.614 135.828C347.128 135.828 346.721 135.945 346.392 136.179C346.071 136.413 345.911 136.703 345.911 137.05ZM347.458 132.422C348.342 132.422 349.039 132.66 349.551 133.137C350.062 133.605 350.318 134.251 350.318 135.074V139H349.174V138.116H349.122C348.628 138.844 347.969 139.208 347.146 139.208C346.444 139.208 345.854 139 345.378 138.584C344.91 138.168 344.676 137.648 344.676 137.024C344.676 136.365 344.923 135.841 345.417 135.451C345.919 135.061 346.587 134.866 347.419 134.866C348.129 134.866 348.714 134.996 349.174 135.256V134.983C349.174 134.567 349.009 134.216 348.68 133.93C348.35 133.635 347.965 133.488 347.523 133.488C346.855 133.488 346.327 133.77 345.937 134.333L344.884 133.67C345.464 132.838 346.322 132.422 347.458 132.422ZM354.062 139.104C353.542 139.104 353.108 138.944 352.762 138.623C352.424 138.302 352.25 137.856 352.242 137.284V133.722H351.124V132.63H352.242V130.68H353.438V132.63H354.998V133.722H353.438V136.894C353.438 137.319 353.52 137.609 353.685 137.765C353.849 137.912 354.036 137.986 354.244 137.986C354.339 137.986 354.43 137.977 354.517 137.96C354.612 137.934 354.699 137.904 354.777 137.869L355.154 138.935C354.842 139.048 354.478 139.104 354.062 139.104Z" fill="#576E87"/>
<path d="M281.598 162V160.453C282.109 159.95 282.582 159.482 283.015 159.049C283.197 158.867 283.383 158.681 283.574 158.49C283.765 158.299 283.942 158.122 284.107 157.957C284.272 157.792 284.419 157.645 284.549 157.515C284.679 157.376 284.779 157.268 284.848 157.19C284.987 157.025 285.108 156.878 285.212 156.748C285.325 156.618 285.411 156.492 285.472 156.371C285.541 156.241 285.593 156.115 285.628 155.994C285.663 155.864 285.68 155.725 285.68 155.578C285.68 155.292 285.567 155.045 285.342 154.837C285.117 154.62 284.809 154.512 284.419 154.512C284.029 154.512 283.726 154.625 283.509 154.85C283.292 155.067 283.145 155.314 283.067 155.591L281.52 154.954C281.589 154.72 281.702 154.482 281.858 154.239C282.014 153.988 282.213 153.767 282.456 153.576C282.699 153.377 282.985 153.216 283.314 153.095C283.652 152.965 284.029 152.9 284.445 152.9C284.896 152.9 285.303 152.969 285.667 153.108C286.031 153.238 286.339 153.42 286.59 153.654C286.841 153.888 287.036 154.165 287.175 154.486C287.314 154.798 287.383 155.136 287.383 155.5C287.383 156.055 287.244 156.566 286.967 157.034C286.698 157.493 286.369 157.922 285.979 158.321L284.861 159.439C284.566 159.734 284.233 160.063 283.86 160.427L283.912 160.505H287.513V162H281.598ZM292.712 162V160.362H288.604V158.984L292.556 153.108H294.402V158.776H295.52V160.362H294.402V162H292.712ZM292.712 155.643H292.608L290.489 158.776H292.712V155.643ZM299.887 152.692H301.928L305.672 158.932H305.776L305.672 157.138V152.692H307.414V162H305.568L301.616 155.409H301.512L301.616 157.203V162H299.887V152.692ZM312.09 155.422C312.584 155.422 313.034 155.509 313.442 155.682C313.858 155.847 314.213 156.081 314.508 156.384C314.811 156.679 315.045 157.034 315.21 157.45C315.383 157.866 315.47 158.321 315.47 158.815C315.47 159.309 315.383 159.764 315.21 160.18C315.045 160.596 314.811 160.956 314.508 161.259C314.213 161.554 313.858 161.788 313.442 161.961C313.034 162.126 312.584 162.208 312.09 162.208C311.596 162.208 311.141 162.126 310.725 161.961C310.317 161.788 309.962 161.554 309.659 161.259C309.364 160.956 309.13 160.596 308.957 160.18C308.792 159.764 308.71 159.309 308.71 158.815C308.71 158.321 308.792 157.866 308.957 157.45C309.13 157.034 309.364 156.679 309.659 156.384C309.962 156.081 310.317 155.847 310.725 155.682C311.141 155.509 311.596 155.422 312.09 155.422ZM312.09 160.635C312.306 160.635 312.514 160.596 312.714 160.518C312.922 160.431 313.104 160.31 313.26 160.154C313.416 159.998 313.537 159.807 313.624 159.582C313.719 159.357 313.767 159.101 313.767 158.815C313.767 158.529 313.719 158.273 313.624 158.048C313.537 157.823 313.416 157.632 313.26 157.476C313.104 157.32 312.922 157.203 312.714 157.125C312.514 157.038 312.306 156.995 312.09 156.995C311.864 156.995 311.652 157.038 311.453 157.125C311.253 157.203 311.076 157.32 310.92 157.476C310.764 157.632 310.638 157.823 310.543 158.048C310.456 158.273 310.413 158.529 310.413 158.815C310.413 159.101 310.456 159.357 310.543 159.582C310.638 159.807 310.764 159.998 310.92 160.154C311.076 160.31 311.253 160.431 311.453 160.518C311.652 160.596 311.864 160.635 312.09 160.635ZM315.761 155.63H317.698L319.284 159.686H319.375L320.974 155.63H322.898L320.155 162H318.478L315.761 155.63ZM326.4 162V160.453C326.911 159.95 327.383 159.482 327.817 159.049C327.999 158.867 328.185 158.681 328.376 158.49C328.566 158.299 328.744 158.122 328.909 157.957C329.073 157.792 329.221 157.645 329.351 157.515C329.481 157.376 329.58 157.268 329.65 157.19C329.788 157.025 329.91 156.878 330.014 156.748C330.126 156.618 330.213 156.492 330.274 156.371C330.343 156.241 330.395 156.115 330.43 155.994C330.464 155.864 330.482 155.725 330.482 155.578C330.482 155.292 330.369 155.045 330.144 154.837C329.918 154.62 329.611 154.512 329.221 154.512C328.831 154.512 328.527 154.625 328.311 154.85C328.094 155.067 327.947 155.314 327.869 155.591L326.322 154.954C326.391 154.72 326.504 154.482 326.66 154.239C326.816 153.988 327.015 153.767 327.258 153.576C327.5 153.377 327.786 153.216 328.116 153.095C328.454 152.965 328.831 152.9 329.247 152.9C329.697 152.9 330.105 152.969 330.469 153.108C330.833 153.238 331.14 153.42 331.392 153.654C331.643 153.888 331.838 154.165 331.977 154.486C332.115 154.798 332.185 155.136 332.185 155.5C332.185 156.055 332.046 156.566 331.769 157.034C331.5 157.493 331.171 157.922 330.781 158.321L329.663 159.439C329.368 159.734 329.034 160.063 328.662 160.427L328.714 160.505H332.315V162H326.4ZM337.189 162.208C336.617 162.208 336.101 162.091 335.642 161.857C335.182 161.614 334.788 161.285 334.459 160.869C334.138 160.453 333.891 159.963 333.718 159.4C333.544 158.828 333.458 158.213 333.458 157.554C333.458 156.895 333.544 156.284 333.718 155.721C333.891 155.149 334.138 154.655 334.459 154.239C334.788 153.823 335.182 153.498 335.642 153.264C336.101 153.021 336.617 152.9 337.189 152.9C337.761 152.9 338.276 153.021 338.736 153.264C339.195 153.498 339.585 153.823 339.906 154.239C340.235 154.655 340.486 155.149 340.66 155.721C340.833 156.284 340.92 156.895 340.92 157.554C340.92 158.213 340.833 158.828 340.66 159.4C340.486 159.963 340.235 160.453 339.906 160.869C339.585 161.285 339.195 161.614 338.736 161.857C338.276 162.091 337.761 162.208 337.189 162.208ZM337.189 160.596C337.501 160.596 337.782 160.522 338.034 160.375C338.285 160.219 338.497 160.007 338.671 159.738C338.853 159.461 338.987 159.136 339.074 158.763C339.169 158.39 339.217 157.987 339.217 157.554C339.217 157.112 339.169 156.709 339.074 156.345C338.987 155.972 338.853 155.652 338.671 155.383C338.497 155.106 338.285 154.893 338.034 154.746C337.782 154.59 337.501 154.512 337.189 154.512C336.868 154.512 336.582 154.59 336.331 154.746C336.079 154.893 335.867 155.106 335.694 155.383C335.52 155.652 335.386 155.972 335.291 156.345C335.204 156.709 335.161 157.112 335.161 157.554C335.161 157.987 335.204 158.39 335.291 158.763C335.386 159.136 335.52 159.461 335.694 159.738C335.867 160.007 336.079 160.219 336.331 160.375C336.582 160.522 336.868 160.596 337.189 160.596ZM341.964 162V160.453C342.476 159.95 342.948 159.482 343.381 159.049C343.563 158.867 343.75 158.681 343.94 158.49C344.131 158.299 344.309 158.122 344.473 157.957C344.638 157.792 344.785 157.645 344.915 157.515C345.045 157.376 345.145 157.268 345.214 157.19C345.353 157.025 345.474 156.878 345.578 156.748C345.691 156.618 345.778 156.492 345.838 156.371C345.908 156.241 345.96 156.115 345.994 155.994C346.029 155.864 346.046 155.725 346.046 155.578C346.046 155.292 345.934 155.045 345.708 154.837C345.483 154.62 345.175 154.512 344.785 154.512C344.395 154.512 344.092 154.625 343.875 154.85C343.659 155.067 343.511 155.314 343.433 155.591L341.886 154.954C341.956 154.72 342.068 154.482 342.224 154.239C342.38 153.988 342.58 153.767 342.822 153.576C343.065 153.377 343.351 153.216 343.68 153.095C344.018 152.965 344.395 152.9 344.811 152.9C345.262 152.9 345.669 152.969 346.033 153.108C346.397 153.238 346.705 153.42 346.956 153.654C347.208 153.888 347.403 154.165 347.541 154.486C347.68 154.798 347.749 155.136 347.749 155.5C347.749 156.055 347.611 156.566 347.333 157.034C347.065 157.493 346.735 157.922 346.345 158.321L345.227 159.439C344.933 159.734 344.599 160.063 344.226 160.427L344.278 160.505H347.879V162H341.964ZM352.753 162.208C352.181 162.208 351.666 162.091 351.206 161.857C350.747 161.614 350.353 161.285 350.023 160.869C349.703 160.453 349.456 159.963 349.282 159.4C349.109 158.828 349.022 158.213 349.022 157.554C349.022 156.895 349.109 156.284 349.282 155.721C349.456 155.149 349.703 154.655 350.023 154.239C350.353 153.823 350.747 153.498 351.206 153.264C351.666 153.021 352.181 152.9 352.753 152.9C353.325 152.9 353.841 153.021 354.3 153.264C354.76 153.498 355.15 153.823 355.47 154.239C355.8 154.655 356.051 155.149 356.224 155.721C356.398 156.284 356.484 156.895 356.484 157.554C356.484 158.213 356.398 158.828 356.224 159.4C356.051 159.963 355.8 160.453 355.47 160.869C355.15 161.285 354.76 161.614 354.3 161.857C353.841 162.091 353.325 162.208 352.753 162.208ZM352.753 160.596C353.065 160.596 353.347 160.522 353.598 160.375C353.85 160.219 354.062 160.007 354.235 159.738C354.417 159.461 354.552 159.136 354.638 158.763C354.734 158.39 354.781 157.987 354.781 157.554C354.781 157.112 354.734 156.709 354.638 156.345C354.552 155.972 354.417 155.652 354.235 155.383C354.062 155.106 353.85 154.893 353.598 154.746C353.347 154.59 353.065 154.512 352.753 154.512C352.433 154.512 352.147 154.59 351.895 154.746C351.644 154.893 351.432 155.106 351.258 155.383C351.085 155.652 350.951 155.972 350.855 156.345C350.769 156.709 350.725 157.112 350.725 157.554C350.725 157.987 350.769 158.39 350.855 158.763C350.951 159.136 351.085 159.461 351.258 159.738C351.432 160.007 351.644 160.219 351.895 160.375C352.147 160.522 352.433 160.596 352.753 160.596Z" fill="#020A13"/>
<circle cx="81" cy="145" r="21" fill="#020A13" fill-opacity="0.05"/>
<path d="M87.9999 142.61V151H73.9999V140H75.4999V139H73.8749C73.758 139.002 73.6427 139.027 73.5354 139.073C73.4282 139.12 73.3312 139.187 73.2499 139.271C73.1687 139.355 73.1048 139.455 73.0619 139.563C73.019 139.672 72.9979 139.788 72.9999 139.905V151.095C72.9979 151.212 73.019 151.328 73.0619 151.437C73.1048 151.545 73.1687 151.645 73.2499 151.729C73.3312 151.813 73.4282 151.88 73.5354 151.927C73.6427 151.973 73.758 151.998 73.8749 152H88.1249C88.2418 151.998 88.3571 151.973 88.4644 151.927C88.5716 151.88 88.6686 151.813 88.7499 151.729C88.8311 151.645 88.895 151.545 88.9379 151.437C88.9808 151.328 89.0019 151.212 88.9999 151.095V142.17C88.69 142.365 88.353 142.513 87.9999 142.61Z" fill="#020A13"/>
<path d="M76 143H77V144H76V143Z" fill="#020A13"/>
<path d="M79 143H80V144H79V143Z" fill="#020A13"/>
<path d="M82 143H83V144H82V143Z" fill="#020A13"/>
<path d="M85 143H86V144H85V143Z" fill="#020A13"/>
<path d="M76 145.5H77V146.5H76V145.5Z" fill="#020A13"/>
<path d="M79 145.5H80V146.5H79V145.5Z" fill="#020A13"/>
<path d="M82 145.5H83V146.5H82V145.5Z" fill="#020A13"/>
<path d="M85 145.5H86V146.5H85V145.5Z" fill="#020A13"/>
<path d="M76 148H77V149H76V148Z" fill="#020A13"/>
<path d="M79 148H80V149H79V148Z" fill="#020A13"/>
<path d="M82 148H83V149H82V148Z" fill="#020A13"/>
<path d="M85 148H86V149H85V148Z" fill="#020A13"/>
<path d="M77 141C77.1326 141 77.2598 140.947 77.3536 140.854C77.4473 140.76 77.5 140.633 77.5 140.5V137.5C77.5 137.367 77.4473 137.24 77.3536 137.146C77.2598 137.053 77.1326 137 77 137C76.8674 137 76.7402 137.053 76.6464 137.146C76.5527 137.24 76.5 137.367 76.5 137.5V140.5C76.5 140.633 76.5527 140.76 76.6464 140.854C76.7402 140.947 76.8674 141 77 141Z" fill="#020A13"/>
<path d="M83.25 139H78.5V140H83.39C83.2984 139.675 83.2513 139.338 83.25 139Z" fill="#020A13"/>
<path d="M87 141.5C88.3807 141.5 89.5 140.381 89.5 139C89.5 137.619 88.3807 136.5 87 136.5C85.6193 136.5 84.5 137.619 84.5 139C84.5 140.381 85.6193 141.5 87 141.5Z" fill="#020A13"/>
<path d="M63.238 95.288C62.686 95.288 62.158 95.21 61.654 95.054C61.15 94.898 60.688 94.664 60.268 94.352C59.848 94.04 59.482 93.662 59.17 93.218C58.858 92.762 58.612 92.234 58.432 91.634L60.718 90.734C60.886 91.382 61.18 91.922 61.6 92.354C62.02 92.774 62.572 92.984 63.256 92.984C63.508 92.984 63.748 92.954 63.976 92.894C64.216 92.822 64.426 92.726 64.606 92.606C64.798 92.474 64.948 92.312 65.056 92.12C65.164 91.928 65.218 91.706 65.218 91.454C65.218 91.214 65.176 90.998 65.092 90.806C65.008 90.614 64.864 90.434 64.66 90.266C64.468 90.098 64.21 89.936 63.886 89.78C63.574 89.624 63.184 89.462 62.716 89.294L61.924 89.006C61.576 88.886 61.222 88.724 60.862 88.52C60.514 88.316 60.196 88.07 59.908 87.782C59.62 87.494 59.38 87.158 59.188 86.774C59.008 86.378 58.918 85.934 58.918 85.442C58.918 84.938 59.014 84.47 59.206 84.038C59.41 83.594 59.692 83.21 60.052 82.886C60.424 82.55 60.862 82.292 61.366 82.112C61.882 81.92 62.452 81.824 63.076 81.824C63.724 81.824 64.282 81.914 64.75 82.094C65.23 82.262 65.632 82.484 65.956 82.76C66.292 83.024 66.562 83.318 66.766 83.642C66.97 83.966 67.12 84.272 67.216 84.56L65.074 85.46C64.954 85.1 64.732 84.776 64.408 84.488C64.096 84.2 63.664 84.056 63.112 84.056C62.584 84.056 62.146 84.182 61.798 84.434C61.45 84.674 61.276 84.992 61.276 85.388C61.276 85.772 61.444 86.102 61.78 86.378C62.116 86.642 62.65 86.9 63.382 87.152L64.192 87.422C64.708 87.602 65.176 87.812 65.596 88.052C66.028 88.28 66.394 88.556 66.694 88.88C67.006 89.204 67.24 89.576 67.396 89.996C67.564 90.404 67.648 90.878 67.648 91.418C67.648 92.09 67.51 92.672 67.234 93.164C66.97 93.644 66.628 94.04 66.208 94.352C65.788 94.664 65.314 94.898 64.786 95.054C64.258 95.21 63.742 95.288 63.238 95.288ZM77.7315 92.75C77.3475 93.494 76.8075 94.106 76.1115 94.586C75.4275 95.054 74.5695 95.288 73.5375 95.288C72.8535 95.288 72.2235 95.174 71.6475 94.946C71.0835 94.706 70.5915 94.376 70.1715 93.956C69.7635 93.536 69.4395 93.044 69.1995 92.48C68.9715 91.904 68.8575 91.274 68.8575 90.59C68.8575 89.906 68.9715 89.276 69.1995 88.7C69.4395 88.124 69.7635 87.632 70.1715 87.224C70.5915 86.804 71.0835 86.48 71.6475 86.252C72.2235 86.012 72.8535 85.892 73.5375 85.892C74.5575 85.892 75.4155 86.126 76.1115 86.594C76.8075 87.062 77.3175 87.668 77.6415 88.412L75.4815 89.312C75.2775 88.904 75.0135 88.598 74.6895 88.394C74.3775 88.178 73.9815 88.07 73.5015 88.07C73.1895 88.07 72.8955 88.13 72.6195 88.25C72.3435 88.37 72.0975 88.538 71.8815 88.754C71.6775 88.97 71.5155 89.234 71.3955 89.546C71.2755 89.858 71.2155 90.206 71.2155 90.59C71.2155 90.974 71.2755 91.322 71.3955 91.634C71.5155 91.946 71.6775 92.21 71.8815 92.426C72.0975 92.642 72.3435 92.81 72.6195 92.93C72.8955 93.05 73.1895 93.11 73.5015 93.11C73.9935 93.11 74.4075 93.002 74.7435 92.786C75.0915 92.558 75.3675 92.234 75.5715 91.814L77.7315 92.75ZM79.1701 82.112H81.5281V85.73L81.3841 87.332H81.5281C81.7801 86.912 82.1401 86.57 82.6081 86.306C83.0881 86.03 83.6221 85.892 84.2101 85.892C85.3501 85.892 86.1901 86.228 86.7301 86.9C87.2821 87.572 87.5581 88.49 87.5581 89.654V95H85.2001V89.942C85.2001 89.33 85.0561 88.868 84.7681 88.556C84.4801 88.232 84.0781 88.07 83.5621 88.07C83.2381 88.07 82.9501 88.142 82.6981 88.286C82.4461 88.418 82.2301 88.604 82.0501 88.844C81.8821 89.084 81.7501 89.366 81.6541 89.69C81.5701 90.002 81.5281 90.338 81.5281 90.698V95H79.1701V82.112ZM97.858 92.876C97.45 93.596 96.898 94.178 96.202 94.622C95.518 95.066 94.678 95.288 93.682 95.288C93.01 95.288 92.386 95.174 91.81 94.946C91.246 94.706 90.754 94.376 90.334 93.956C89.914 93.536 89.584 93.044 89.344 92.48C89.116 91.904 89.002 91.274 89.002 90.59C89.002 89.954 89.116 89.354 89.344 88.79C89.572 88.214 89.89 87.716 90.298 87.296C90.706 86.864 91.186 86.522 91.738 86.27C92.302 86.018 92.92 85.892 93.592 85.892C94.3 85.892 94.93 86.012 95.482 86.252C96.034 86.48 96.496 86.804 96.868 87.224C97.24 87.632 97.522 88.118 97.714 88.682C97.906 89.246 98.002 89.858 98.002 90.518C98.002 90.602 98.002 90.674 98.002 90.734C97.99 90.806 97.984 90.872 97.984 90.932C97.972 90.992 97.966 91.058 97.966 91.13H91.324C91.372 91.49 91.468 91.802 91.612 92.066C91.768 92.318 91.954 92.534 92.17 92.714C92.398 92.882 92.644 93.008 92.908 93.092C93.172 93.164 93.442 93.2 93.718 93.2C94.258 93.2 94.702 93.08 95.05 92.84C95.41 92.588 95.692 92.276 95.896 91.904L97.858 92.876ZM95.716 89.456C95.704 89.3 95.65 89.126 95.554 88.934C95.47 88.742 95.338 88.562 95.158 88.394C94.99 88.226 94.774 88.088 94.51 87.98C94.258 87.872 93.952 87.818 93.592 87.818C93.088 87.818 92.644 87.962 92.26 88.25C91.876 88.538 91.606 88.94 91.45 89.456H95.716ZM106.166 93.938H106.022C105.806 94.31 105.47 94.628 105.014 94.892C104.558 95.156 103.994 95.288 103.322 95.288C102.758 95.288 102.218 95.174 101.702 94.946C101.198 94.706 100.748 94.382 100.352 93.974C99.9679 93.554 99.6619 93.056 99.4339 92.48C99.2059 91.904 99.0919 91.274 99.0919 90.59C99.0919 89.906 99.2059 89.276 99.4339 88.7C99.6619 88.124 99.9679 87.632 100.352 87.224C100.748 86.804 101.198 86.48 101.702 86.252C102.218 86.012 102.758 85.892 103.322 85.892C103.994 85.892 104.558 86.024 105.014 86.288C105.47 86.552 105.806 86.87 106.022 87.242H106.166L106.022 85.982V82.112H108.38V95H106.166V93.938ZM103.808 93.11C104.12 93.11 104.414 93.056 104.69 92.948C104.978 92.828 105.23 92.66 105.446 92.444C105.662 92.228 105.836 91.964 105.968 91.652C106.1 91.34 106.166 90.986 106.166 90.59C106.166 90.194 106.1 89.84 105.968 89.528C105.836 89.216 105.662 88.952 105.446 88.736C105.23 88.52 104.978 88.358 104.69 88.25C104.414 88.13 104.12 88.07 103.808 88.07C103.496 88.07 103.196 88.13 102.908 88.25C102.632 88.37 102.386 88.538 102.17 88.754C101.954 88.97 101.78 89.234 101.648 89.546C101.516 89.858 101.45 90.206 101.45 90.59C101.45 90.974 101.516 91.322 101.648 91.634C101.78 91.946 101.954 92.21 102.17 92.426C102.386 92.642 102.632 92.81 102.908 92.93C103.196 93.05 103.496 93.11 103.808 93.11ZM116.491 93.848H116.347C116.071 94.292 115.699 94.646 115.231 94.91C114.763 95.162 114.229 95.288 113.629 95.288C112.513 95.288 111.679 94.946 111.127 94.262C110.587 93.578 110.317 92.666 110.317 91.526V86.18H112.675V91.238C112.675 91.874 112.813 92.348 113.089 92.66C113.377 92.96 113.791 93.11 114.331 93.11C114.655 93.11 114.937 93.044 115.177 92.912C115.429 92.768 115.639 92.582 115.807 92.354C115.987 92.114 116.119 91.838 116.203 91.526C116.299 91.202 116.347 90.86 116.347 90.5V86.18H118.705V95H116.491V93.848ZM120.725 95V82.112H123.083V95H120.725ZM133.366 92.876C132.958 93.596 132.406 94.178 131.71 94.622C131.026 95.066 130.186 95.288 129.19 95.288C128.518 95.288 127.894 95.174 127.318 94.946C126.754 94.706 126.262 94.376 125.842 93.956C125.422 93.536 125.092 93.044 124.852 92.48C124.624 91.904 124.51 91.274 124.51 90.59C124.51 89.954 124.624 89.354 124.852 88.79C125.08 88.214 125.398 87.716 125.806 87.296C126.214 86.864 126.694 86.522 127.246 86.27C127.81 86.018 128.428 85.892 129.1 85.892C129.808 85.892 130.438 86.012 130.99 86.252C131.542 86.48 132.004 86.804 132.376 87.224C132.748 87.632 133.03 88.118 133.222 88.682C133.414 89.246 133.51 89.858 133.51 90.518C133.51 90.602 133.51 90.674 133.51 90.734C133.498 90.806 133.492 90.872 133.492 90.932C133.48 90.992 133.474 91.058 133.474 91.13H126.832C126.88 91.49 126.976 91.802 127.12 92.066C127.276 92.318 127.462 92.534 127.678 92.714C127.906 92.882 128.152 93.008 128.416 93.092C128.68 93.164 128.95 93.2 129.226 93.2C129.766 93.2 130.21 93.08 130.558 92.84C130.918 92.588 131.2 92.276 131.404 91.904L133.366 92.876ZM131.224 89.456C131.212 89.3 131.158 89.126 131.062 88.934C130.978 88.742 130.846 88.562 130.666 88.394C130.498 88.226 130.282 88.088 130.018 87.98C129.766 87.872 129.46 87.818 129.1 87.818C128.596 87.818 128.152 87.962 127.768 88.25C127.384 88.538 127.114 88.94 126.958 89.456H131.224ZM150.175 92.93C149.539 93.698 148.789 94.286 147.925 94.694C147.061 95.09 146.095 95.288 145.027 95.288C144.067 95.288 143.173 95.114 142.345 94.766C141.529 94.418 140.821 93.944 140.221 93.344C139.621 92.744 139.147 92.036 138.799 91.22C138.451 90.392 138.277 89.504 138.277 88.556C138.277 87.608 138.451 86.726 138.799 85.91C139.147 85.082 139.621 84.368 140.221 83.768C140.821 83.168 141.529 82.694 142.345 82.346C143.173 81.998 144.067 81.824 145.027 81.824C146.059 81.824 146.965 82.004 147.745 82.364C148.537 82.724 149.239 83.246 149.851 83.93L148.141 85.586C147.757 85.142 147.313 84.788 146.809 84.524C146.317 84.26 145.729 84.128 145.045 84.128C144.445 84.128 143.881 84.236 143.353 84.452C142.825 84.656 142.363 84.95 141.967 85.334C141.583 85.718 141.277 86.186 141.049 86.738C140.821 87.278 140.707 87.884 140.707 88.556C140.707 89.228 140.821 89.84 141.049 90.392C141.277 90.932 141.583 91.394 141.967 91.778C142.363 92.162 142.825 92.462 143.353 92.678C143.881 92.882 144.445 92.984 145.045 92.984C145.765 92.984 146.401 92.84 146.953 92.552C147.517 92.252 148.015 91.832 148.447 91.292L150.175 92.93ZM156.923 94.064H156.779C156.503 94.4 156.167 94.688 155.771 94.928C155.387 95.168 154.889 95.288 154.277 95.288C153.821 95.288 153.389 95.21 152.981 95.054C152.585 94.91 152.237 94.706 151.937 94.442C151.637 94.178 151.403 93.86 151.235 93.488C151.067 93.116 150.983 92.708 150.983 92.264C150.983 91.808 151.073 91.4 151.253 91.04C151.433 90.668 151.685 90.35 152.009 90.086C152.333 89.822 152.711 89.624 153.143 89.492C153.587 89.348 154.067 89.276 154.583 89.276C155.159 89.276 155.633 89.324 156.005 89.42C156.377 89.504 156.683 89.594 156.923 89.69V89.42C156.923 88.952 156.737 88.568 156.365 88.268C155.993 87.956 155.531 87.8 154.979 87.8C154.163 87.8 153.473 88.142 152.909 88.826L151.199 87.656C152.135 86.48 153.413 85.892 155.033 85.892C156.401 85.892 157.445 86.216 158.165 86.864C158.885 87.5 159.245 88.448 159.245 89.708V95H156.923V94.064ZM156.923 91.418C156.647 91.286 156.359 91.184 156.059 91.112C155.771 91.028 155.453 90.986 155.105 90.986C154.541 90.986 154.103 91.112 153.791 91.364C153.491 91.604 153.341 91.904 153.341 92.264C153.341 92.624 153.485 92.912 153.773 93.128C154.073 93.344 154.415 93.452 154.799 93.452C155.111 93.452 155.399 93.398 155.663 93.29C155.927 93.17 156.149 93.02 156.329 92.84C156.521 92.648 156.665 92.432 156.761 92.192C156.869 91.94 156.923 91.682 156.923 91.418ZM161.119 86.18H163.333V87.332H163.477C163.753 86.9 164.125 86.552 164.593 86.288C165.073 86.024 165.601 85.892 166.177 85.892C166.849 85.892 167.413 86.048 167.869 86.36C168.325 86.672 168.649 87.056 168.841 87.512C169.117 87.068 169.507 86.69 170.011 86.378C170.515 86.054 171.127 85.892 171.847 85.892C172.387 85.892 172.855 85.982 173.251 86.162C173.647 86.33 173.971 86.57 174.223 86.882C174.487 87.194 174.685 87.572 174.817 88.016C174.949 88.448 175.015 88.922 175.015 89.438V95H172.657V89.87C172.657 88.67 172.165 88.07 171.181 88.07C170.869 88.07 170.593 88.142 170.353 88.286C170.113 88.418 169.909 88.604 169.741 88.844C169.585 89.072 169.459 89.348 169.363 89.672C169.279 89.996 169.237 90.344 169.237 90.716V95H166.879V89.87C166.879 88.67 166.363 88.07 165.331 88.07C165.031 88.07 164.767 88.142 164.539 88.286C164.311 88.418 164.119 88.604 163.963 88.844C163.807 89.072 163.687 89.348 163.603 89.672C163.519 89.996 163.477 90.344 163.477 90.716V95H161.119V86.18ZM176.885 86.18H179.099V87.242H179.243C179.459 86.87 179.795 86.552 180.251 86.288C180.707 86.024 181.271 85.892 181.943 85.892C182.507 85.892 183.041 86.012 183.545 86.252C184.061 86.48 184.511 86.804 184.895 87.224C185.291 87.632 185.603 88.124 185.831 88.7C186.059 89.276 186.173 89.906 186.173 90.59C186.173 91.274 186.059 91.904 185.831 92.48C185.603 93.056 185.291 93.554 184.895 93.974C184.511 94.382 184.061 94.706 183.545 94.946C183.041 95.174 182.507 95.288 181.943 95.288C181.271 95.288 180.707 95.156 180.251 94.892C179.795 94.628 179.459 94.31 179.243 93.938H179.099L179.243 95.198V98.888H176.885V86.18ZM181.457 93.11C181.769 93.11 182.063 93.05 182.339 92.93C182.627 92.81 182.879 92.642 183.095 92.426C183.311 92.21 183.485 91.946 183.617 91.634C183.749 91.322 183.815 90.974 183.815 90.59C183.815 90.206 183.749 89.858 183.617 89.546C183.485 89.234 183.311 88.97 183.095 88.754C182.879 88.538 182.627 88.37 182.339 88.25C182.063 88.13 181.769 88.07 181.457 88.07C181.145 88.07 180.845 88.13 180.557 88.25C180.281 88.358 180.035 88.52 179.819 88.736C179.603 88.952 179.429 89.216 179.297 89.528C179.165 89.84 179.099 90.194 179.099 90.59C179.099 90.986 179.165 91.34 179.297 91.652C179.429 91.964 179.603 92.228 179.819 92.444C180.035 92.66 180.281 92.828 180.557 92.948C180.845 93.056 181.145 93.11 181.457 93.11ZM193.116 94.064H192.972C192.696 94.4 192.36 94.688 191.964 94.928C191.58 95.168 191.082 95.288 190.47 95.288C190.014 95.288 189.582 95.21 189.174 95.054C188.778 94.91 188.43 94.706 188.13 94.442C187.83 94.178 187.596 93.86 187.428 93.488C187.26 93.116 187.176 92.708 187.176 92.264C187.176 91.808 187.266 91.4 187.446 91.04C187.626 90.668 187.878 90.35 188.202 90.086C188.526 89.822 188.904 89.624 189.336 89.492C189.78 89.348 190.26 89.276 190.776 89.276C191.352 89.276 191.826 89.324 192.198 89.42C192.57 89.504 192.876 89.594 193.116 89.69V89.42C193.116 88.952 192.93 88.568 192.558 88.268C192.186 87.956 191.724 87.8 191.172 87.8C190.356 87.8 189.666 88.142 189.102 88.826L187.392 87.656C188.328 86.48 189.606 85.892 191.226 85.892C192.594 85.892 193.638 86.216 194.358 86.864C195.078 87.5 195.438 88.448 195.438 89.708V95H193.116V94.064ZM193.116 91.418C192.84 91.286 192.552 91.184 192.252 91.112C191.964 91.028 191.646 90.986 191.298 90.986C190.734 90.986 190.296 91.112 189.984 91.364C189.684 91.604 189.534 91.904 189.534 92.264C189.534 92.624 189.678 92.912 189.966 93.128C190.266 93.344 190.608 93.452 190.992 93.452C191.304 93.452 191.592 93.398 191.856 93.29C192.12 93.17 192.342 93.02 192.522 92.84C192.714 92.648 192.858 92.432 192.954 92.192C193.062 91.94 193.116 91.682 193.116 91.418ZM198.627 84.902C198.423 84.902 198.225 84.866 198.033 84.794C197.853 84.71 197.691 84.602 197.547 84.47C197.415 84.326 197.307 84.164 197.223 83.984C197.151 83.804 197.115 83.606 197.115 83.39C197.115 83.174 197.151 82.976 197.223 82.796C197.307 82.616 197.415 82.46 197.547 82.328C197.691 82.184 197.853 82.076 198.033 82.004C198.225 81.92 198.423 81.878 198.627 81.878C199.047 81.878 199.407 82.028 199.707 82.328C200.007 82.616 200.157 82.97 200.157 83.39C200.157 83.81 200.007 84.17 199.707 84.47C199.407 84.758 199.047 84.902 198.627 84.902ZM197.457 95V86.18H199.815V95H197.457ZM205.951 99.176C205.327 99.176 204.769 99.092 204.277 98.924C203.797 98.768 203.377 98.558 203.017 98.294C202.657 98.042 202.357 97.76 202.117 97.448C201.877 97.136 201.703 96.824 201.595 96.512L203.845 95.612C204.013 96.08 204.289 96.44 204.673 96.692C205.057 96.956 205.483 97.088 205.951 97.088C206.695 97.088 207.283 96.854 207.715 96.386C208.147 95.93 208.363 95.288 208.363 94.46V93.848H208.219C207.943 94.232 207.577 94.538 207.121 94.766C206.677 94.982 206.149 95.09 205.537 95.09C205.009 95.09 204.493 94.982 203.989 94.766C203.497 94.55 203.059 94.244 202.675 93.848C202.291 93.44 201.979 92.954 201.739 92.39C201.499 91.826 201.379 91.196 201.379 90.5C201.379 89.804 201.499 89.174 201.739 88.61C201.979 88.034 202.291 87.548 202.675 87.152C203.059 86.744 203.497 86.432 203.989 86.216C204.493 86 205.009 85.892 205.537 85.892C206.149 85.892 206.677 86.006 207.121 86.234C207.577 86.45 207.943 86.75 208.219 87.134H208.363V86.18H210.613V94.37C210.613 95.114 210.499 95.78 210.271 96.368C210.043 96.968 209.725 97.472 209.317 97.88C208.909 98.3 208.417 98.618 207.841 98.834C207.277 99.062 206.647 99.176 205.951 99.176ZM206.041 92.966C206.329 92.966 206.611 92.912 206.887 92.804C207.175 92.696 207.427 92.54 207.643 92.336C207.859 92.12 208.033 91.862 208.165 91.562C208.297 91.25 208.363 90.896 208.363 90.5C208.363 90.104 208.297 89.75 208.165 89.438C208.033 89.126 207.859 88.868 207.643 88.664C207.427 88.448 207.175 88.286 206.887 88.178C206.611 88.07 206.329 88.016 206.041 88.016C205.753 88.016 205.471 88.07 205.195 88.178C204.919 88.286 204.673 88.448 204.457 88.664C204.241 88.88 204.067 89.144 203.935 89.456C203.803 89.756 203.737 90.104 203.737 90.5C203.737 90.896 203.803 91.25 203.935 91.562C204.067 91.862 204.241 92.12 204.457 92.336C204.673 92.54 204.919 92.696 205.195 92.804C205.471 92.912 205.753 92.966 206.041 92.966ZM214.837 87.332H214.981C215.257 86.888 215.629 86.54 216.097 86.288C216.565 86.024 217.099 85.892 217.699 85.892C218.251 85.892 218.737 85.982 219.157 86.162C219.577 86.342 219.919 86.6 220.183 86.936C220.459 87.26 220.663 87.656 220.795 88.124C220.939 88.58 221.011 89.09 221.011 89.654V95H218.653V89.942C218.653 89.306 218.509 88.838 218.221 88.538C217.945 88.226 217.537 88.07 216.997 88.07C216.673 88.07 216.385 88.142 216.133 88.286C215.893 88.418 215.683 88.604 215.503 88.844C215.335 89.072 215.203 89.348 215.107 89.672C215.023 89.984 214.981 90.32 214.981 90.68V95H212.623V86.18H214.837V87.332Z" fill="#020A13"/>
<path d="M386.5 42.5C362 43.3333 309.2 45 294 45C275 45 43 41.5 26 45" stroke="#020A13" stroke-width="2"/>
<path d="M386.5 202.5C362 203.333 309.2 205 294 205C275 205 43 201.5 26 205" stroke="#020A13"/>
<circle cx="47" cy="24" r="2.5" stroke="black"/>
<circle cx="57" cy="24" r="2.5" stroke="black"/>
<circle cx="67" cy="24" r="2.5" stroke="black"/>
<g filter="url(#filter0_d)">
<rect x="53" y="237" width="42" height="42" rx="10" fill="#020A13"/>
</g>
<rect x="106.5" y="237.5" width="41" height="41" rx="9.5" fill="white" stroke="#020A13"/>
<rect x="159.5" y="237.5" width="41" height="41" rx="9.5" fill="white" stroke="#020A13"/>
<rect x="212.5" y="237.5" width="41" height="41" rx="9.5" fill="white" stroke="#020A13"/>
<rect x="265.5" y="237.5" width="41" height="41" rx="9.5" fill="white" stroke="#020A13"/>
<rect x="318.5" y="237.5" width="41" height="41" rx="9.5" fill="white" stroke="#020A13"/>
<path d="M78.407 251.93L74.395 261.586L70.383 251.93H68.394V264H70.383V257.013L73.409 264H75.398L78.407 257.013V264H80.413V251.93H78.407Z" fill="white"/>
<path d="M131.707 251.93H122.272V253.936H125.978V264H128.001V253.936H131.707V251.93Z" fill="#020A13"/>
<path d="M186.099 251.93L183.379 260.787L180.54 251.93H178.16L175.321 260.804L172.618 251.93H170.238L174.301 264H176.307L179.35 255.33L182.41 264H184.416L188.479 251.93H186.099Z" fill="#020A13"/>
<path d="M237.707 251.93H228.272V253.936H231.978V264H234.001V253.936H237.707V251.93Z" fill="#020A13"/>
<path d="M289.925 253.936L289.942 251.947L284.4 251.93H282.394V264H284.4V259.07L289.058 259.087L289.075 257.149H284.4V253.919L289.925 253.936Z" fill="#020A13"/>
<path d="M342.435 254.667C342.078 253.052 340.327 251.692 338.015 251.692C335.839 251.692 333.969 253.273 333.969 255.347C333.969 257.2 335.006 258.339 336.723 258.713C337.505 258.866 338.491 259.036 339.069 259.223C339.834 259.461 340.242 260.073 340.225 260.634C340.225 261.569 339.307 262.198 338.066 262.198C336.944 262.198 335.703 261.637 335.533 260.6L333.527 260.906C333.68 263.065 335.839 264.187 337.981 264.187C340.208 264.187 342.316 262.946 342.316 260.583C342.316 258.696 341.126 257.387 339.069 257.03C338.508 256.928 337.947 256.843 337.301 256.69C336.247 256.486 335.89 255.738 336.06 255.024C336.281 254.191 337.097 253.681 338.066 253.681C339.103 253.681 340.174 254.225 340.429 255.194L342.435 254.667Z" fill="#020A13"/>
<rect x="25" y="2" width="362" height="460" rx="9" stroke="#020A13" stroke-width="2"/>
<path d="M63 331C63 328.791 64.7909 327 67 327H426C428.209 327 430 328.791 430 331V387.884C430 390.138 428.102 391.946 425.849 391.882C289.096 388.02 209.039 388.059 67.1486 391.887C64.8976 391.948 63 390.141 63 387.889V331Z" fill="#091929" fill-opacity="0.15"/>
<rect x="0.5" y="237.5" width="41" height="41" rx="9.5" fill="white" stroke="#020A13"/>
<path d="M24.435 254.667C24.078 253.052 22.327 251.692 20.015 251.692C17.839 251.692 15.969 253.273 15.969 255.347C15.969 257.2 17.006 258.339 18.723 258.713C19.505 258.866 20.491 259.036 21.069 259.223C21.834 259.461 22.242 260.073 22.225 260.634C22.225 261.569 21.307 262.198 20.066 262.198C18.944 262.198 17.703 261.637 17.533 260.6L15.527 260.906C15.68 263.065 17.839 264.187 19.981 264.187C22.208 264.187 24.316 262.946 24.316 260.583C24.316 258.696 23.126 257.387 21.069 257.03C20.508 256.928 19.947 256.843 19.301 256.69C18.247 256.486 17.89 255.738 18.06 255.024C18.281 254.191 19.097 253.681 20.066 253.681C21.103 253.681 22.174 254.225 22.429 255.194L24.435 254.667Z" fill="#020A13"/>
<rect x="54" y="318" width="365" height="63" rx="3" fill="white" stroke="#020A13" stroke-width="2"/>
<path d="M146.985 356.24C146.325 356.24 145.73 356.105 145.2 355.835C144.67 355.555 144.215 355.175 143.835 354.695C143.465 354.215 143.18 353.65 142.98 353C142.78 352.34 142.68 351.63 142.68 350.87C142.68 350.11 142.78 349.405 142.98 348.755C143.18 348.095 143.465 347.525 143.835 347.045C144.215 346.565 144.67 346.19 145.2 345.92C145.73 345.64 146.325 345.5 146.985 345.5C147.645 345.5 148.24 345.64 148.77 345.92C149.3 346.19 149.75 346.565 150.12 347.045C150.5 347.525 150.79 348.095 150.99 348.755C151.19 349.405 151.29 350.11 151.29 350.87C151.29 351.63 151.19 352.34 150.99 353C150.79 353.65 150.5 354.215 150.12 354.695C149.75 355.175 149.3 355.555 148.77 355.835C148.24 356.105 147.645 356.24 146.985 356.24ZM146.985 354.38C147.345 354.38 147.67 354.295 147.96 354.125C148.25 353.945 148.495 353.7 148.695 353.39C148.905 353.07 149.06 352.695 149.16 352.265C149.27 351.835 149.325 351.37 149.325 350.87C149.325 350.36 149.27 349.895 149.16 349.475C149.06 349.045 148.905 348.675 148.695 348.365C148.495 348.045 148.25 347.8 147.96 347.63C147.67 347.45 147.345 347.36 146.985 347.36C146.615 347.36 146.285 347.45 145.995 347.63C145.705 347.8 145.46 348.045 145.26 348.365C145.06 348.675 144.905 349.045 144.795 349.475C144.695 349.895 144.645 350.36 144.645 350.87C144.645 351.37 144.695 351.835 144.795 352.265C144.905 352.695 145.06 353.07 145.26 353.39C145.46 353.7 145.705 353.945 145.995 354.125C146.285 354.295 146.615 354.38 146.985 354.38ZM155.641 352.325C155.251 352.325 154.871 352.245 154.501 352.085C154.131 351.925 153.801 351.7 153.511 351.41C153.221 351.11 152.986 350.76 152.806 350.36C152.636 349.95 152.551 349.5 152.551 349.01C152.551 348.5 152.651 348.03 152.851 347.6C153.051 347.16 153.316 346.785 153.646 346.475C153.986 346.165 154.371 345.925 154.801 345.755C155.241 345.575 155.701 345.485 156.181 345.485C156.731 345.485 157.231 345.585 157.681 345.785C158.141 345.975 158.531 346.235 158.851 346.565C159.181 346.885 159.431 347.265 159.601 347.705C159.781 348.135 159.871 348.59 159.871 349.07C159.871 349.76 159.731 350.395 159.451 350.975C159.181 351.545 158.836 352.13 158.416 352.73L155.926 356.285L154.411 355.25L156.511 352.265L156.436 352.175C156.206 352.275 155.941 352.325 155.641 352.325ZM156.211 347.3C155.981 347.3 155.761 347.34 155.551 347.42C155.351 347.5 155.171 347.615 155.011 347.765C154.851 347.915 154.721 348.095 154.621 348.305C154.531 348.505 154.486 348.73 154.486 348.98C154.486 349.24 154.531 349.475 154.621 349.685C154.721 349.885 154.851 350.06 155.011 350.21C155.171 350.36 155.351 350.475 155.551 350.555C155.761 350.635 155.981 350.675 156.211 350.675C156.431 350.675 156.646 350.635 156.856 350.555C157.066 350.475 157.251 350.36 157.411 350.21C157.581 350.06 157.711 349.885 157.801 349.685C157.901 349.475 157.951 349.24 157.951 348.98C157.951 348.73 157.901 348.505 157.801 348.305C157.711 348.095 157.581 347.915 157.411 347.765C157.251 347.615 157.066 347.5 156.856 347.42C156.646 347.34 156.431 347.3 156.211 347.3ZM162.502 356.09C162.142 356.09 161.832 355.965 161.572 355.715C161.322 355.455 161.197 355.145 161.197 354.785C161.197 354.425 161.322 354.12 161.572 353.87C161.832 353.62 162.142 353.495 162.502 353.495C162.862 353.495 163.167 353.62 163.417 353.87C163.667 354.12 163.792 354.425 163.792 354.785C163.792 355.145 163.667 355.455 163.417 355.715C163.167 355.965 162.862 356.09 162.502 356.09ZM162.502 351.065C162.142 351.065 161.832 350.94 161.572 350.69C161.322 350.43 161.197 350.12 161.197 349.76C161.197 349.4 161.322 349.095 161.572 348.845C161.832 348.585 162.142 348.455 162.502 348.455C162.862 348.455 163.167 348.585 163.417 348.845C163.667 349.095 163.792 349.4 163.792 349.76C163.792 350.12 163.667 350.43 163.417 350.69C163.167 350.94 162.862 351.065 162.502 351.065ZM169.47 356.24C168.81 356.24 168.215 356.105 167.685 355.835C167.155 355.555 166.7 355.175 166.32 354.695C165.95 354.215 165.665 353.65 165.465 353C165.265 352.34 165.165 351.63 165.165 350.87C165.165 350.11 165.265 349.405 165.465 348.755C165.665 348.095 165.95 347.525 166.32 347.045C166.7 346.565 167.155 346.19 167.685 345.92C168.215 345.64 168.81 345.5 169.47 345.5C170.13 345.5 170.725 345.64 171.255 345.92C171.785 346.19 172.235 346.565 172.605 347.045C172.985 347.525 173.275 348.095 173.475 348.755C173.675 349.405 173.775 350.11 173.775 350.87C173.775 351.63 173.675 352.34 173.475 353C173.275 353.65 172.985 354.215 172.605 354.695C172.235 355.175 171.785 355.555 171.255 355.835C170.725 356.105 170.13 356.24 169.47 356.24ZM169.47 354.38C169.83 354.38 170.155 354.295 170.445 354.125C170.735 353.945 170.98 353.7 171.18 353.39C171.39 353.07 171.545 352.695 171.645 352.265C171.755 351.835 171.81 351.37 171.81 350.87C171.81 350.36 171.755 349.895 171.645 349.475C171.545 349.045 171.39 348.675 171.18 348.365C170.98 348.045 170.735 347.8 170.445 347.63C170.155 347.45 169.83 347.36 169.47 347.36C169.1 347.36 168.77 347.45 168.48 347.63C168.19 347.8 167.945 348.045 167.745 348.365C167.545 348.675 167.39 349.045 167.28 349.475C167.18 349.895 167.13 350.36 167.13 350.87C167.13 351.37 167.18 351.835 167.28 352.265C167.39 352.695 167.545 353.07 167.745 353.39C167.945 353.7 168.19 353.945 168.48 354.125C168.77 354.295 169.1 354.38 169.47 354.38ZM179.402 356.24C178.742 356.24 178.147 356.105 177.617 355.835C177.087 355.555 176.632 355.175 176.252 354.695C175.882 354.215 175.597 353.65 175.397 353C175.197 352.34 175.097 351.63 175.097 350.87C175.097 350.11 175.197 349.405 175.397 348.755C175.597 348.095 175.882 347.525 176.252 347.045C176.632 346.565 177.087 346.19 177.617 345.92C178.147 345.64 178.742 345.5 179.402 345.5C180.062 345.5 180.657 345.64 181.187 345.92C181.717 346.19 182.167 346.565 182.537 347.045C182.917 347.525 183.207 348.095 183.407 348.755C183.607 349.405 183.707 350.11 183.707 350.87C183.707 351.63 183.607 352.34 183.407 353C183.207 353.65 182.917 354.215 182.537 354.695C182.167 355.175 181.717 355.555 181.187 355.835C180.657 356.105 180.062 356.24 179.402 356.24ZM179.402 354.38C179.762 354.38 180.087 354.295 180.377 354.125C180.667 353.945 180.912 353.7 181.112 353.39C181.322 353.07 181.477 352.695 181.577 352.265C181.687 351.835 181.742 351.37 181.742 350.87C181.742 350.36 181.687 349.895 181.577 349.475C181.477 349.045 181.322 348.675 181.112 348.365C180.912 348.045 180.667 347.8 180.377 347.63C180.087 347.45 179.762 347.36 179.402 347.36C179.032 347.36 178.702 347.45 178.412 347.63C178.122 347.8 177.877 348.045 177.677 348.365C177.477 348.675 177.322 349.045 177.212 349.475C177.112 349.895 177.062 350.36 177.062 350.87C177.062 351.37 177.112 351.835 177.212 352.265C177.322 352.695 177.477 353.07 177.677 353.39C177.877 353.7 178.122 353.945 178.412 354.125C178.702 354.295 179.032 354.38 179.402 354.38ZM203.983 356V348.05L202.168 348.815L201.448 347.15L204.463 345.74H205.948V356H203.983ZM208.3 355.325L212.575 347.69L212.53 347.6H207.805L207.835 345.74H214.795V347.69L209.95 356.24L208.3 355.325ZM217.419 356.09C217.059 356.09 216.749 355.965 216.489 355.715C216.239 355.455 216.114 355.145 216.114 354.785C216.114 354.425 216.239 354.12 216.489 353.87C216.749 353.62 217.059 353.495 217.419 353.495C217.779 353.495 218.084 353.62 218.334 353.87C218.584 354.12 218.709 354.425 218.709 354.785C218.709 355.145 218.584 355.455 218.334 355.715C218.084 355.965 217.779 356.09 217.419 356.09ZM217.419 351.065C217.059 351.065 216.749 350.94 216.489 350.69C216.239 350.43 216.114 350.12 216.114 349.76C216.114 349.4 216.239 349.095 216.489 348.845C216.749 348.585 217.059 348.455 217.419 348.455C217.779 348.455 218.084 348.585 218.334 348.845C218.584 349.095 218.709 349.4 218.709 349.76C218.709 350.12 218.584 350.43 218.334 350.69C218.084 350.94 217.779 351.065 217.419 351.065ZM224.387 356.24C223.727 356.24 223.132 356.105 222.602 355.835C222.072 355.555 221.617 355.175 221.237 354.695C220.867 354.215 220.582 353.65 220.382 353C220.182 352.34 220.082 351.63 220.082 350.87C220.082 350.11 220.182 349.405 220.382 348.755C220.582 348.095 220.867 347.525 221.237 347.045C221.617 346.565 222.072 346.19 222.602 345.92C223.132 345.64 223.727 345.5 224.387 345.5C225.047 345.5 225.642 345.64 226.172 345.92C226.702 346.19 227.152 346.565 227.522 347.045C227.902 347.525 228.192 348.095 228.392 348.755C228.592 349.405 228.692 350.11 228.692 350.87C228.692 351.63 228.592 352.34 228.392 353C228.192 353.65 227.902 354.215 227.522 354.695C227.152 355.175 226.702 355.555 226.172 355.835C225.642 356.105 225.047 356.24 224.387 356.24ZM224.387 354.38C224.747 354.38 225.072 354.295 225.362 354.125C225.652 353.945 225.897 353.7 226.097 353.39C226.307 353.07 226.462 352.695 226.562 352.265C226.672 351.835 226.727 351.37 226.727 350.87C226.727 350.36 226.672 349.895 226.562 349.475C226.462 349.045 226.307 348.675 226.097 348.365C225.897 348.045 225.652 347.8 225.362 347.63C225.072 347.45 224.747 347.36 224.387 347.36C224.017 347.36 223.687 347.45 223.397 347.63C223.107 347.8 222.862 348.045 222.662 348.365C222.462 348.675 222.307 349.045 222.197 349.475C222.097 349.895 222.047 350.36 222.047 350.87C222.047 351.37 222.097 351.835 222.197 352.265C222.307 352.695 222.462 353.07 222.662 353.39C222.862 353.7 223.107 353.945 223.397 354.125C223.687 354.295 224.017 354.38 224.387 354.38ZM234.319 356.24C233.659 356.24 233.064 356.105 232.534 355.835C232.004 355.555 231.549 355.175 231.169 354.695C230.799 354.215 230.514 353.65 230.314 353C230.114 352.34 230.014 351.63 230.014 350.87C230.014 350.11 230.114 349.405 230.314 348.755C230.514 348.095 230.799 347.525 231.169 347.045C231.549 346.565 232.004 346.19 232.534 345.92C233.064 345.64 233.659 345.5 234.319 345.5C234.979 345.5 235.574 345.64 236.104 345.92C236.634 346.19 237.084 346.565 237.454 347.045C237.834 347.525 238.124 348.095 238.324 348.755C238.524 349.405 238.624 350.11 238.624 350.87C238.624 351.63 238.524 352.34 238.324 353C238.124 353.65 237.834 354.215 237.454 354.695C237.084 355.175 236.634 355.555 236.104 355.835C235.574 356.105 234.979 356.24 234.319 356.24ZM234.319 354.38C234.679 354.38 235.004 354.295 235.294 354.125C235.584 353.945 235.829 353.7 236.029 353.39C236.239 353.07 236.394 352.695 236.494 352.265C236.604 351.835 236.659 351.37 236.659 350.87C236.659 350.36 236.604 349.895 236.494 349.475C236.394 349.045 236.239 348.675 236.029 348.365C235.829 348.045 235.584 347.8 235.294 347.63C235.004 347.45 234.679 347.36 234.319 347.36C233.949 347.36 233.619 347.45 233.329 347.63C233.039 347.8 232.794 348.045 232.594 348.365C232.394 348.675 232.239 349.045 232.129 349.475C232.029 349.895 231.979 350.36 231.979 350.87C231.979 351.37 232.029 351.835 232.129 352.265C232.239 352.695 232.394 353.07 232.594 353.39C232.794 353.7 233.039 353.945 233.329 354.125C233.619 354.295 233.949 354.38 234.319 354.38Z" fill="#22364C"/>
<path d="M273.557 354.824H272.177V344.084H273.557L277.292 350.624H277.352L281.087 344.084H282.467V354.824H281.087V348.449L281.147 346.649H281.087L277.727 352.544H276.917L273.557 346.649H273.497L273.557 348.449V354.824ZM285.173 352.574C285.173 352.934 285.323 353.234 285.623 353.474C285.933 353.714 286.293 353.834 286.703 353.834C287.283 353.834 287.798 353.619 288.248 353.189C288.708 352.759 288.938 352.254 288.938 351.674C288.508 351.334 287.908 351.164 287.138 351.164C286.578 351.164 286.108 351.299 285.728 351.569C285.358 351.839 285.173 352.174 285.173 352.574ZM286.958 347.234C287.978 347.234 288.783 347.509 289.373 348.059C289.963 348.599 290.258 349.344 290.258 350.294V354.824H288.938V353.804H288.878C288.308 354.644 287.548 355.064 286.598 355.064C285.788 355.064 285.108 354.824 284.558 354.344C284.018 353.864 283.748 353.264 283.748 352.544C283.748 351.784 284.033 351.179 284.603 350.729C285.183 350.279 285.953 350.054 286.913 350.054C287.733 350.054 288.408 350.204 288.938 350.504V350.189C288.938 349.709 288.748 349.304 288.368 348.974C287.988 348.634 287.543 348.464 287.033 348.464C286.263 348.464 285.653 348.789 285.203 349.439L283.988 348.674C284.658 347.714 285.648 347.234 286.958 347.234ZM293.6 344.939C293.6 345.209 293.505 345.439 293.315 345.629C293.125 345.819 292.895 345.914 292.625 345.914C292.355 345.914 292.125 345.819 291.935 345.629C291.745 345.439 291.65 345.209 291.65 344.939C291.65 344.669 291.745 344.439 291.935 344.249C292.125 344.059 292.355 343.964 292.625 343.964C292.895 343.964 293.125 344.059 293.315 344.249C293.505 344.439 293.6 344.669 293.6 344.939ZM293.315 347.474V354.824H291.935V347.474H293.315ZM296.491 344.084V354.824H295.111V344.084H296.491ZM303.724 352.784C303.724 353.424 303.444 353.964 302.884 354.404C302.324 354.844 301.619 355.064 300.769 355.064C300.029 355.064 299.379 354.874 298.819 354.494C298.259 354.104 297.859 353.594 297.619 352.964L298.849 352.439C299.029 352.879 299.289 353.224 299.629 353.474C299.979 353.714 300.359 353.834 300.769 353.834C301.209 353.834 301.574 353.739 301.864 353.549C302.164 353.359 302.314 353.134 302.314 352.874C302.314 352.404 301.954 352.059 301.234 351.839L299.974 351.524C298.544 351.164 297.829 350.474 297.829 349.454C297.829 348.784 298.099 348.249 298.639 347.849C299.189 347.439 299.889 347.234 300.739 347.234C301.389 347.234 301.974 347.389 302.494 347.699C303.024 348.009 303.394 348.424 303.604 348.944L302.374 349.454C302.234 349.144 302.004 348.904 301.684 348.734C301.374 348.554 301.024 348.464 300.634 348.464C300.274 348.464 299.949 348.554 299.659 348.734C299.379 348.914 299.239 349.134 299.239 349.394C299.239 349.814 299.634 350.114 300.424 350.294L301.534 350.579C302.994 350.939 303.724 351.674 303.724 352.784ZM310.235 344.084L305.78 354.824H304.49L308.945 344.084H310.235ZM313.572 353.804C314.252 353.804 314.807 353.559 315.237 353.069C315.687 352.579 315.912 351.939 315.912 351.149C315.912 350.379 315.687 349.744 315.237 349.244C314.797 348.744 314.242 348.494 313.572 348.494C312.912 348.494 312.357 348.744 311.907 349.244C311.457 349.744 311.232 350.379 311.232 351.149C311.232 351.929 311.457 352.564 311.907 353.054C312.357 353.554 312.912 353.804 313.572 353.804ZM313.347 355.064C312.387 355.064 311.562 354.684 310.872 353.924C310.192 353.154 309.852 352.229 309.852 351.149C309.852 350.069 310.192 349.144 310.872 348.374C311.562 347.614 312.387 347.234 313.347 347.234C313.887 347.234 314.377 347.349 314.817 347.579C315.267 347.809 315.612 348.114 315.852 348.494H315.912L315.852 347.474V344.084H317.232V354.824H315.912V353.804H315.852C315.612 354.184 315.267 354.489 314.817 354.719C314.377 354.949 313.887 355.064 313.347 355.064ZM319.846 352.574C319.846 352.934 319.996 353.234 320.296 353.474C320.606 353.714 320.966 353.834 321.376 353.834C321.956 353.834 322.471 353.619 322.921 353.189C323.381 352.759 323.611 352.254 323.611 351.674C323.181 351.334 322.581 351.164 321.811 351.164C321.251 351.164 320.781 351.299 320.401 351.569C320.031 351.839 319.846 352.174 319.846 352.574ZM321.631 347.234C322.651 347.234 323.456 347.509 324.046 348.059C324.636 348.599 324.931 349.344 324.931 350.294V354.824H323.611V353.804H323.551C322.981 354.644 322.221 355.064 321.271 355.064C320.461 355.064 319.781 354.824 319.231 354.344C318.691 353.864 318.421 353.264 318.421 352.544C318.421 351.784 318.706 351.179 319.276 350.729C319.856 350.279 320.626 350.054 321.586 350.054C322.406 350.054 323.081 350.204 323.611 350.504V350.189C323.611 349.709 323.421 349.304 323.041 348.974C322.661 348.634 322.216 348.464 321.706 348.464C320.936 348.464 320.326 348.789 319.876 349.439L318.661 348.674C319.331 347.714 320.321 347.234 321.631 347.234ZM332.911 347.474L328.306 358.064H326.881L328.591 354.359L325.561 347.474H327.061L329.251 352.754H329.281L331.411 347.474H332.911Z" fill="#22364C"/>
<g filter="url(#filter1_d)">
<rect x="74" y="328" width="42" height="42" rx="10" fill="white"/>
<rect x="74.5" y="328.5" width="41" height="41" rx="9.5" stroke="#020A13"/>
</g>
<path d="M349.313 340.186C349.313 340.186 349.316 340.184 349.323 340.18C349.317 340.184 349.314 340.186 349.313 340.186ZM349.651 340.072C349.78 340.04 349.943 340.007 350.146 339.973C350.989 339.832 352.317 339.715 354.024 339.619C357.431 339.427 362.276 339.325 367.613 339.28C378.284 339.189 390.888 339.325 397.803 339.42C400.35 339.455 402.364 341.608 402.309 344.176C402.25 346.963 402.252 350.301 402.503 352.555C402.709 354.413 402.743 356.543 402.712 358.398C402.672 360.706 400.746 362.5 398.399 362.5H354.498C351.846 362.5 349.754 360.218 349.94 357.559C350.163 354.371 350.387 350.31 350.388 346.875C350.389 345.159 350.334 343.585 350.192 342.349C350.121 341.732 350.027 341.185 349.902 340.74C349.836 340.504 349.755 340.274 349.651 340.072Z" fill="white" stroke="#020A13"/>
<path d="M99.407 342.93L95.395 352.586L91.383 342.93H89.394V355H91.383V348.013L94.409 355H96.398L99.407 348.013V355H101.413V342.93H99.407Z" fill="#020A13"/>
<g filter="url(#filter2_d)">
<circle cx="119" cy="457" r="32" fill="white"/>
<circle cx="119" cy="457" r="31" stroke="#020A13" stroke-width="2"/>
</g>
<path d="M128.923 452.938C128.524 453.12 128.102 453.248 127.669 453.318C128.362 455.29 128.364 457.438 127.675 459.412C126.987 461.385 125.649 463.065 123.88 464.178C122.111 465.291 120.017 465.77 117.94 465.537C115.863 465.303 113.928 464.371 112.45 462.894C110.972 461.416 110.04 459.48 109.807 457.404C109.574 455.327 110.053 453.233 111.166 451.464C112.278 449.695 113.959 448.357 115.932 447.668C117.905 446.98 120.054 446.982 122.025 447.675C122.095 447.242 122.223 446.82 122.406 446.421C120.153 445.642 117.702 445.65 115.453 446.444C113.205 447.237 111.292 448.77 110.027 450.791C108.763 452.812 108.221 455.203 108.49 457.572C108.759 459.941 109.823 462.148 111.509 463.834C113.195 465.52 115.403 466.585 117.772 466.854C120.141 467.123 122.531 466.581 124.553 465.316C126.574 464.051 128.106 462.139 128.9 459.89C129.694 457.642 129.702 455.191 128.923 452.938Z" fill="#020A13"/>
<path d="M120.476 448.318C121.63 449.557 122.501 451.033 123.029 452.642H119.492V448.206H118.508V452.649H114.97C115.499 451.037 116.373 449.559 117.53 448.318C116.958 448.421 116.399 448.586 115.863 448.81C115.017 449.974 114.372 451.272 113.953 452.649H111.742C111.567 452.994 111.418 453.352 111.295 453.719H113.678C113.493 454.581 113.398 455.461 113.395 456.344C113.397 457.309 113.507 458.271 113.724 459.211H111.4C111.536 459.579 111.698 459.937 111.886 460.281H114.006C114.407 461.538 115.003 462.725 115.771 463.799C116.321 464.034 116.895 464.208 117.484 464.317C116.413 463.149 115.589 461.776 115.062 460.281H118.514V464.442H119.499V460.281H122.937C122.409 461.777 121.583 463.149 120.509 464.317C121.1 464.205 121.677 464.026 122.229 463.785C122.995 462.716 123.591 461.534 123.994 460.281H126.094C126.28 459.943 126.443 459.592 126.579 459.231H124.25C124.466 458.29 124.576 457.328 124.578 456.363C124.575 455.481 124.481 454.601 124.296 453.738H126.658C126.619 453.627 126.579 453.522 126.534 453.417C125.726 453.366 124.943 453.116 124.256 452.688H124.02C124.02 452.616 123.968 452.55 123.948 452.478C123.361 452.05 122.877 451.498 122.529 450.86C122.182 450.222 121.981 449.515 121.94 448.79C121.468 448.587 120.978 448.429 120.476 448.318ZM118.508 459.205H114.741C114.279 457.399 114.258 455.508 114.682 453.692H118.508V459.205ZM123.594 456.344C123.59 457.311 123.469 458.274 123.233 459.211H119.492V453.719H123.318C123.506 454.581 123.599 455.461 123.594 456.344Z" fill="#020A13"/>
<path fill-rule="evenodd" clip-rule="evenodd" d="M125.562 455.031C126.955 455.031 128.29 454.478 129.275 453.494C130.259 452.509 130.812 451.174 130.812 449.781C130.812 448.389 130.259 447.054 129.275 446.069C128.29 445.084 126.955 444.531 125.562 444.531C124.17 444.531 122.835 445.084 121.85 446.069C120.866 447.054 120.312 448.389 120.312 449.781C120.312 451.174 120.866 452.509 121.85 453.494C122.835 454.478 124.17 455.031 125.562 455.031ZM126.219 447.156C126.219 446.982 126.15 446.815 126.027 446.692C125.903 446.569 125.737 446.5 125.562 446.5C125.388 446.5 125.222 446.569 125.098 446.692C124.975 446.815 124.906 446.982 124.906 447.156V449.781C124.906 449.955 124.975 450.122 125.099 450.245L126.954 452.102C127.015 452.163 127.088 452.211 127.167 452.244C127.247 452.277 127.333 452.294 127.419 452.294C127.505 452.294 127.59 452.277 127.67 452.244C127.75 452.211 127.822 452.163 127.883 452.102C127.944 452.041 127.992 451.968 128.025 451.889C128.058 451.809 128.075 451.724 128.075 451.637C128.075 451.551 128.058 451.466 128.025 451.386C127.992 451.307 127.944 451.234 127.883 451.173L126.219 449.51V447.156Z" fill="#020A13"/>
<g filter="url(#filter3_d)">
<circle cx="203" cy="459" r="21" fill="#020A13"/>
</g>
<path d="M210.5 465.005C210.499 465.202 210.42 465.391 210.281 465.53C210.141 465.669 209.953 465.748 209.756 465.75H196.244C196.047 465.75 195.857 465.671 195.718 465.532C195.578 465.392 195.5 465.203 195.5 465.005V464.25H209V455.475L203 460.875L195.5 454.125V453C195.5 452.801 195.579 452.61 195.72 452.47C195.86 452.329 196.051 452.25 196.25 452.25H209.75C209.949 452.25 210.14 452.329 210.28 452.47C210.421 452.61 210.5 452.801 210.5 453V465.005ZM197.326 453.75L203 458.858L208.674 453.75H197.326ZM194 461.25H200V462.75H194V461.25ZM194 457.5H197.75V459H194V457.5Z" fill="white"/>
<path d="M358.787 356V354.215C359.377 353.635 359.922 353.095 360.422 352.595C360.632 352.385 360.847 352.17 361.067 351.95C361.287 351.73 361.492 351.525 361.682 351.335C361.872 351.145 362.042 350.975 362.192 350.825C362.342 350.665 362.457 350.54 362.537 350.45C362.697 350.26 362.837 350.09 362.957 349.94C363.087 349.79 363.187 349.645 363.257 349.505C363.337 349.355 363.397 349.21 363.437 349.07C363.477 348.92 363.497 348.76 363.497 348.59C363.497 348.26 363.367 347.975 363.107 347.735C362.847 347.485 362.492 347.36 362.042 347.36C361.592 347.36 361.242 347.49 360.992 347.75C360.742 348 360.572 348.285 360.482 348.605L358.697 347.87C358.777 347.6 358.907 347.325 359.087 347.045C359.267 346.755 359.497 346.5 359.777 346.28C360.057 346.05 360.387 345.865 360.767 345.725C361.157 345.575 361.592 345.5 362.072 345.5C362.592 345.5 363.062 345.58 363.482 345.74C363.902 345.89 364.257 346.1 364.547 346.37C364.837 346.64 365.062 346.96 365.222 347.33C365.382 347.69 365.462 348.08 365.462 348.5C365.462 349.14 365.302 349.73 364.982 350.27C364.672 350.8 364.292 351.295 363.842 351.755L362.552 353.045C362.212 353.385 361.827 353.765 361.397 354.185L361.457 354.275H365.612V356H358.787ZM371.236 356.24C370.576 356.24 369.981 356.105 369.451 355.835C368.921 355.555 368.466 355.175 368.086 354.695C367.716 354.215 367.431 353.65 367.231 353C367.031 352.34 366.931 351.63 366.931 350.87C366.931 350.11 367.031 349.405 367.231 348.755C367.431 348.095 367.716 347.525 368.086 347.045C368.466 346.565 368.921 346.19 369.451 345.92C369.981 345.64 370.576 345.5 371.236 345.5C371.896 345.5 372.491 345.64 373.021 345.92C373.551 346.19 374.001 346.565 374.371 347.045C374.751 347.525 375.041 348.095 375.241 348.755C375.441 349.405 375.541 350.11 375.541 350.87C375.541 351.63 375.441 352.34 375.241 353C375.041 353.65 374.751 354.215 374.371 354.695C374.001 355.175 373.551 355.555 373.021 355.835C372.491 356.105 371.896 356.24 371.236 356.24ZM371.236 354.38C371.596 354.38 371.921 354.295 372.211 354.125C372.501 353.945 372.746 353.7 372.946 353.39C373.156 353.07 373.311 352.695 373.411 352.265C373.521 351.835 373.576 351.37 373.576 350.87C373.576 350.36 373.521 349.895 373.411 349.475C373.311 349.045 373.156 348.675 372.946 348.365C372.746 348.045 372.501 347.8 372.211 347.63C371.921 347.45 371.596 347.36 371.236 347.36C370.866 347.36 370.536 347.45 370.246 347.63C369.956 347.8 369.711 348.045 369.511 348.365C369.311 348.675 369.156 349.045 369.046 349.475C368.946 349.895 368.896 350.36 368.896 350.87C368.896 351.37 368.946 351.835 369.046 352.265C369.156 352.695 369.311 353.07 369.511 353.39C369.711 353.7 369.956 353.945 370.246 354.125C370.536 354.295 370.866 354.38 371.236 354.38ZM381.167 356.24C380.507 356.24 379.912 356.105 379.382 355.835C378.852 355.555 378.397 355.175 378.017 354.695C377.647 354.215 377.362 353.65 377.162 353C376.962 352.34 376.862 351.63 376.862 350.87C376.862 350.11 376.962 349.405 377.162 348.755C377.362 348.095 377.647 347.525 378.017 347.045C378.397 346.565 378.852 346.19 379.382 345.92C379.912 345.64 380.507 345.5 381.167 345.5C381.827 345.5 382.422 345.64 382.952 345.92C383.482 346.19 383.932 346.565 384.302 347.045C384.682 347.525 384.972 348.095 385.172 348.755C385.372 349.405 385.472 350.11 385.472 350.87C385.472 351.63 385.372 352.34 385.172 353C384.972 353.65 384.682 354.215 384.302 354.695C383.932 355.175 383.482 355.555 382.952 355.835C382.422 356.105 381.827 356.24 381.167 356.24ZM381.167 354.38C381.527 354.38 381.852 354.295 382.142 354.125C382.432 353.945 382.677 353.7 382.877 353.39C383.087 353.07 383.242 352.695 383.342 352.265C383.452 351.835 383.507 351.37 383.507 350.87C383.507 350.36 383.452 349.895 383.342 349.475C383.242 349.045 383.087 348.675 382.877 348.365C382.677 348.045 382.432 347.8 382.142 347.63C381.852 347.45 381.527 347.36 381.167 347.36C380.797 347.36 380.467 347.45 380.177 347.63C379.887 347.8 379.642 348.045 379.442 348.365C379.242 348.675 379.087 349.045 378.977 349.475C378.877 349.895 378.827 350.36 378.827 350.87C378.827 351.37 378.877 351.835 378.977 352.265C379.087 352.695 379.242 353.07 379.442 353.39C379.642 353.7 379.887 353.945 380.177 354.125C380.467 354.295 380.797 354.38 381.167 354.38Z" fill="#22364C"/>
<defs>
<filter id="filter0_d" x="45.5" y="233.25" width="57" height="57" filterUnits="userSpaceOnUse" color-interpolation-filters="sRGB">
<feFlood flood-opacity="0" result="BackgroundImageFix"/>
<feColorMatrix in="SourceAlpha" type="matrix" values="0 0 0 0 0 0 0 0 0 0 0 0 0 0 0 0 0 0 127 0"/>
<feOffset dy="3.75"/>
<feGaussianBlur stdDeviation="3.75"/>
<feColorMatrix type="matrix" values="0 0 0 0 0.00784314 0 0 0 0 0.0392157 0 0 0 0 0.0745098 0 0 0 0.25 0"/>
<feBlend mode="normal" in2="BackgroundImageFix" result="effect1_dropShadow"/>
<feBlend mode="normal" in="SourceGraphic" in2="effect1_dropShadow" result="shape"/>
</filter>
<filter id="filter1_d" x="66.5" y="324.25" width="57" height="57" filterUnits="userSpaceOnUse" color-interpolation-filters="sRGB">
<feFlood flood-opacity="0" result="BackgroundImageFix"/>
<feColorMatrix in="SourceAlpha" type="matrix" values="0 0 0 0 0 0 0 0 0 0 0 0 0 0 0 0 0 0 127 0"/>
<feOffset dy="3.75"/>
<feGaussianBlur stdDeviation="3.75"/>
<feColorMatrix type="matrix" values="0 0 0 0 0.00784314 0 0 0 0 0.0392157 0 0 0 0 0.0745098 0 0 0 0.25 0"/>
<feBlend mode="normal" in2="BackgroundImageFix" result="effect1_dropShadow"/>
<feBlend mode="normal" in="SourceGraphic" in2="effect1_dropShadow" result="shape"/>
</filter>
<filter id="filter2_d" x="87" y="425" width="64" height="68" filterUnits="userSpaceOnUse" color-interpolation-filters="sRGB">
<feFlood flood-opacity="0" result="BackgroundImageFix"/>
<feColorMatrix in="SourceAlpha" type="matrix" values="0 0 0 0 0 0 0 0 0 0 0 0 0 0 0 0 0 0 127 0"/>
<feOffset dy="4"/>
<feColorMatrix type="matrix" values="0 0 0 0 0.00784314 0 0 0 0 0.0392157 0 0 0 0 0.0745098 0 0 0 0.25 0"/>
<feBlend mode="normal" in2="BackgroundImageFix" result="effect1_dropShadow"/>
<feBlend mode="normal" in="SourceGraphic" in2="effect1_dropShadow" result="shape"/>
</filter>
<filter id="filter3_d" x="174.5" y="434.25" width="57" height="57" filterUnits="userSpaceOnUse" color-interpolation-filters="sRGB">
<feFlood flood-opacity="0" result="BackgroundImageFix"/>
<feColorMatrix in="SourceAlpha" type="matrix" values="0 0 0 0 0 0 0 0 0 0 0 0 0 0 0 0 0 0 127 0"/>
<feOffset dy="3.75"/>
<feGaussianBlur stdDeviation="3.75"/>
<feColorMatrix type="matrix" values="0 0 0 0 0.00784314 0 0 0 0 0.0392157 0 0 0 0 0.0745098 0 0 0 0.25 0"/>
<feBlend mode="normal" in2="BackgroundImageFix" result="effect1_dropShadow"/>
<feBlend mode="normal" in="SourceGraphic" in2="effect1_dropShadow" result="shape"/>
</filter>
</defs>
</svg>
