<svg width="456" height="384" viewBox="0 0 456 384" fill="none" xmlns="http://www.w3.org/2000/svg">
<path fill-rule="evenodd" clip-rule="evenodd" d="M7.41558 190.926C17.6857 154.972 59.3242 140.22 80.1249 109.148C102.318 75.9962 95.477 20.3403 132.139 4.61648C168.295 -10.8899 208.567 18.702 241.754 39.8285C268.715 56.9914 277.471 90.6011 301.07 112.155C334.415 142.61 393.645 147.843 407.191 190.926C420.745 234.033 394.987 282.309 365.275 316.351C336.876 348.89 292.554 358.801 250.858 370.047C211.337 380.705 171.258 388.867 131.431 379.417C89.0677 369.364 45.1033 351.92 21.1699 315.543C-2.37562 279.757 -4.3505 232.118 7.41558 190.926Z" fill="#86F2C8"/>
<g clip-path="url(#clip0)">
<path d="M250.983 35.0593C243.832 38.0855 236.682 41.1116 229.571 44.178C222.542 47.0831 215.553 49.9881 208.523 52.8932C206.099 53.9019 203.716 54.9106 200.969 56.0404C202.262 50.9161 203.433 46.1551 204.645 41.3536C205.534 37.9241 206.503 34.4945 207.311 31.0245C207.635 29.6527 208.119 29.3299 209.493 29.572C212.684 30.0965 215.876 30.3386 219.068 30.7824C221.492 31.1052 221.653 28.8861 222.744 27.716C224.198 25.9003 225.693 24.0847 227.107 22.1883C227.713 21.341 228.198 21.0586 229.248 21.6234C236.439 25.6986 243.63 29.7737 250.821 33.8086C251.427 34.1313 252.235 34.4541 250.983 35.0593Z" fill="#020A13"/>
<path d="M196.121 22.8742C197.373 22.3901 198.625 21.9059 199.837 21.4217C200.161 20.6551 200.888 20.4534 201.575 20.1709C207.15 17.75 212.765 15.4905 218.3 13.11C218.946 12.8276 219.593 12.7469 220.239 12.7469C225.976 10.3663 231.753 8.02614 237.53 5.6456C237.893 5.48421 238.257 5.36316 239.186 5.00003C233.369 12.7065 227.874 19.9692 222.38 27.2318C221.006 30.2579 218.461 29.8948 215.835 29.572C206.988 28.4019 198.141 27.3529 189.051 26.2231C191.313 24.6899 193.939 24.2057 196.121 22.8742Z" fill="#020A13"/>
<path d="M245.245 16.701C246.255 19.1622 247.265 21.6234 248.275 24.0847C249.487 27.0301 250.699 29.9755 251.911 32.9613C251.83 33.0823 251.709 33.163 251.628 33.284C250.255 32.5174 248.921 31.7912 247.548 31.0246C241.69 27.7564 235.872 24.4478 229.974 21.22C228.762 20.5341 228.681 20.0902 229.53 19.0008C232.802 14.845 236.034 10.6488 239.185 6.41222C240.034 5.28247 240.357 5.48421 240.842 6.61396C242.296 9.96285 243.791 13.3117 245.245 16.701Z" fill="#020A13"/>
<path d="M188 26.909C194.06 27.6353 199.837 28.3616 205.614 29.0878C206.382 29.1685 206.988 29.2089 206.664 30.379C204.523 38.4889 202.463 46.5989 200.403 54.7089C200.362 54.7896 200.201 54.8703 199.877 55.1123C195.959 45.7516 192.04 36.4715 188 26.909Z" fill="#020A13"/>
</g>
<g clip-path="url(#clip1)">
<path d="M237.222 118.479C233.031 117.76 228.84 117.04 224.656 116.351C220.557 115.611 216.477 114.884 212.377 114.144C210.962 113.893 209.565 113.653 207.965 113.361C210.076 111.381 212.024 109.533 214.002 107.678C215.426 106.36 216.887 105.066 218.285 103.706C218.84 103.169 219.159 103.164 219.72 103.681C221.036 104.867 222.436 105.922 223.776 107.07C224.798 107.936 225.528 106.961 226.377 106.744C227.584 106.337 228.81 105.942 230.023 105.486C230.553 105.275 230.86 105.288 231.177 105.859C233.286 109.864 235.396 113.869 237.518 117.855C237.701 118.183 237.978 118.57 237.222 118.479Z" fill="#020A13"/>
<path d="M215.538 96.6401C216.258 96.7872 216.979 96.9344 217.681 97.0696C218.056 96.8118 218.451 96.9338 218.851 97.0067C222.137 97.5393 225.393 98.1583 228.648 98.6976C229.03 98.7586 229.352 98.9125 229.65 99.1037C232.998 99.7027 236.353 100.332 239.719 100.943C239.935 100.976 240.138 101.028 240.674 101.135C235.714 102.967 231.033 104.69 226.353 106.413C224.825 107.402 223.76 106.482 222.645 105.557C218.913 102.401 215.145 99.3017 211.289 96.0932C212.785 96.0554 214.139 96.6087 215.538 96.6401Z" fill="#020A13"/>
<path d="M240.008 108.321C239.746 109.754 239.483 111.187 239.221 112.62C238.909 114.336 238.596 116.052 238.272 117.787C238.199 117.819 238.119 117.82 238.046 117.852C237.64 117.093 237.24 116.364 236.834 115.604C235.1 112.366 233.397 109.12 231.633 105.888C231.277 105.214 231.371 104.985 232.084 104.734C234.821 103.786 237.552 102.808 240.257 101.787C240.982 101.517 241.071 101.705 240.961 102.369C240.641 104.343 240.34 106.329 240.008 108.321Z" fill="#020A13"/>
<path d="M210.602 96.0987C213.18 98.2254 215.628 100.268 218.076 102.311C218.406 102.576 218.674 102.773 218.179 103.217C214.794 106.322 211.446 109.451 208.098 112.58C208.056 112.605 207.957 112.595 207.737 112.611C208.698 107.137 209.636 101.701 210.602 96.0987Z" fill="#020A13"/>
</g>
<g clip-path="url(#clip2)">
<path d="M192.211 71.1852C185.256 75.9641 181.388 83.2294 177.331 90.9854C175.249 87.9583 173.259 85.4647 169.8 85.0577C165.866 84.5502 165.002 88.5464 162.447 90.1806C161.199 87.7413 160.234 85.3446 158.944 83.1874C156.139 78.6373 152.993 78.4507 149.787 82.6704C147.92 85.101 146.647 87.7946 145.583 90.6351C139.638 106.504 136.455 122.991 135.545 139.909C135.553 141.006 134.543 143.105 136.561 143.121C138.296 143.094 137.57 141.022 137.621 139.731C138.646 124.534 141.38 109.681 146.193 95.2001C147.516 91.2155 149.121 87.2736 151.65 83.904C152.62 82.6366 154.136 80.8166 155.662 82.7496C158.714 86.6157 162.053 91.0733 160.826 96.1401C158.182 106.765 157.008 117.409 156.962 128.223C156.909 135.834 156.516 143.595 159.428 150.874C160.108 152.679 161.024 154.26 163.057 154.365C165.194 154.544 166.281 152.89 167.101 151.282C168.829 148.051 169.399 144.473 169.686 140.851C170.831 125.816 167.84 111.224 164.509 96.7829C163.745 93.4354 165.594 88.2606 168.334 87.6933C172.231 86.9254 173.88 89.5697 175.251 92.7202C176.02 94.51 176.194 96.0368 175.791 97.9383C174.339 104.876 174.283 111.937 174.953 118.964C175.034 119.958 175.088 121.322 176.452 121.268C177.446 121.188 177.496 119.897 177.624 119.05C178.789 113.628 179.908 107.939 179.056 102.5C177.459 92.2455 182.319 84.8994 188.309 77.7238C189.898 75.7994 191.711 74.1109 193.316 72.2755C193.061 71.8619 192.644 71.568 192.211 71.1852ZM166.824 145.469C166.766 145.662 166.781 145.751 166.723 145.944C165.892 148.012 166.138 151.541 163.201 151.501C160.441 151.431 160.774 148.076 160.419 146.031C157.75 130.651 159.115 115.303 162.618 100.133C166.501 115.12 169.183 130.04 166.824 145.469Z" fill="#020A13"/>
</g>
<g clip-path="url(#clip3)">
<path d="M290.083 345.336C290.267 343.784 290.114 342.216 290.481 340.664C290.741 339.63 290.909 338.595 291.521 337.697C291.689 337.438 291.887 337.18 291.949 336.906C292.514 334.593 293.936 332.736 295.206 330.789C295.848 329.8 296.582 328.917 297.576 328.247C298.294 327.761 298.952 327.213 299.395 326.437C299.762 325.813 300.313 325.311 300.939 324.991C302.377 324.261 303.707 323.332 305.297 322.861C307.82 322.115 310.297 321.217 312.82 320.441C314.303 319.985 315.832 319.878 317.331 320.213C318.279 320.411 319.196 320.67 320.175 320.639C320.894 320.624 321.597 320.791 322.254 321.035C323.401 321.461 324.548 321.856 325.771 321.963C326.123 321.993 326.475 322.115 326.796 322.252C328.004 322.785 329.181 323.348 330.389 323.88C331.352 324.306 331.887 325.235 332.667 325.874C332.881 326.482 332.453 326.878 332.086 327.152C329.303 329.176 328.569 332.082 328.417 335.262C328.019 337.697 328.218 340.162 328.906 342.43C329.41 344.103 330.832 345.473 331.933 346.918C334.349 350.068 337.713 351.544 341.505 352.275C341.811 352.336 342.117 352.381 342.254 352.701C341.031 354.603 340.313 356.749 339.349 358.788C338.661 360.264 337.698 361.42 336.521 362.485C336.001 362.957 335.756 363.718 335.221 364.144C333.738 365.346 332.392 366.715 330.924 367.918C330.588 368.207 330.144 368.389 329.716 368.541C328.936 368.815 328.294 369.211 327.759 369.881C326.995 370.809 325.863 371.25 324.67 371.387C322.3 371.676 319.961 372.117 317.667 372.802C317.01 373 316.322 373.061 315.71 372.893C314.242 372.483 312.698 372.391 311.276 371.798C310.389 371.433 309.487 371.128 308.493 371.083C307.897 371.052 307.3 370.824 306.75 370.581C304.9 369.759 303.065 368.907 301.23 368.039C299.426 367.187 298.279 365.452 297.117 363.855C296.857 363.49 296.704 363.079 296.245 362.835C294.288 361.816 293.585 359.838 292.713 358.042C291.719 356.003 291.459 353.675 290.282 351.697C289.976 351.179 289.884 350.555 289.869 349.931C290.557 349.201 291.398 349.505 292.147 349.703C293.554 350.068 294.946 350.16 296.352 349.734C297.163 349.49 297.958 349.581 298.738 349.886C300.527 350.555 302.3 350.601 304.074 349.825C304.747 349.536 305.435 349.444 306.154 349.551C308.111 349.81 309.747 349.231 311.123 347.801C312.102 346.782 313.08 345.792 314.043 344.423C311.245 345.792 308.187 345.245 305.649 346.736C304.976 347.132 304.135 346.812 303.417 346.614C301.918 346.219 300.481 346.355 299.105 347.01C298.172 347.451 297.254 347.481 296.306 347.116C295.343 346.736 294.334 346.69 293.325 346.614C292.132 346.538 290.878 346.462 290.083 345.336Z" fill="#238969"/>
<path d="M328.109 335.293C328.232 334.106 328.308 332.904 328.476 331.717C328.706 330.089 329.638 328.856 330.846 327.821C331.534 327.228 332.131 326.558 332.681 325.858C333.767 325.204 334.883 324.595 336.137 324.322C336.382 324.276 336.626 324.169 336.825 324.032C338.828 322.587 340.801 322.906 342.758 324.124C342.987 324.261 343.201 324.352 343.446 324.367C344.898 324.459 346.015 325.219 347.024 326.178C347.788 326.908 348.599 327.608 349.302 328.415C350.785 330.119 351.244 332.128 350.846 334.334C350.77 334.775 350.571 335.232 350.617 335.673C350.755 336.906 350.372 337.956 349.73 338.96C349.47 339.341 349.256 339.736 349.256 340.223C349.271 341.836 348.247 342.886 347.024 343.616C345.632 344.438 344.164 345.169 342.513 345.382C342.437 345.442 342.36 345.519 342.268 345.549C339.852 346.705 334.99 346.021 333.048 344.24C330.434 341.806 328.446 339.006 328.109 335.293Z" fill="#4848FF"/>
<path d="M290.082 345.336C291.397 345.899 292.728 346.34 294.196 346.188C295.128 346.097 295.985 346.523 296.841 346.858C297.453 347.101 298.018 347.116 298.599 346.782C300.404 345.762 302.3 345.792 304.211 346.401C304.853 346.599 305.358 346.614 305.923 346.234C307.284 345.321 308.829 345.032 310.434 345.047C311.214 345.047 311.933 344.91 312.605 344.484C313.156 344.134 313.752 343.799 314.517 344.256C314.196 345.26 313.446 345.99 312.804 346.721C311.474 348.242 310.082 349.871 307.835 349.947C305.908 350.023 304.058 350.205 302.208 350.799C301.199 351.118 299.991 350.966 298.951 350.388C298.003 349.871 296.994 349.84 296 350.236C294.899 350.662 293.798 350.616 292.712 350.281C291.78 350.007 290.832 349.855 289.853 349.931C287.957 349.429 286.382 348.41 284.792 347.253C283.186 346.097 281.856 344.621 280.205 343.54C279.15 342.856 278.431 341.806 278.034 340.664C277.208 338.199 276.459 335.689 276.046 333.086C275.893 332.097 276.122 331.184 276.183 330.226C276.199 329.845 276.138 329.358 276.688 329.237C277.269 329.115 277.712 329.404 277.927 329.906C278.278 330.697 278.584 331.504 278.63 332.371C278.645 332.828 278.737 333.284 278.737 333.726C278.752 335.125 279.501 336.191 280.144 337.317C280.312 337.606 280.526 337.773 280.786 337.925C282.131 338.701 283.049 339.873 283.997 341.09C285.174 342.612 286.336 344.271 288.293 345.001C288.905 345.229 289.471 345.366 290.082 345.336Z" fill="#FED046"/>
<path d="M328.11 335.293C328.736 336.784 329.134 338.351 329.944 339.782C330.954 341.577 332.284 343.099 333.859 344.393C334.837 345.199 336.03 345.701 337.391 345.534C337.59 345.503 337.804 345.458 337.987 345.503C339.516 345.777 341.015 345.686 342.528 345.366C342.513 345.869 342.544 346.371 342.483 346.873C342.391 347.71 342.345 348.486 342.651 349.353C343.033 350.449 342.88 351.636 342.253 352.686C340.235 352.823 338.492 351.97 336.779 351.118C335.74 350.601 334.501 350.327 333.721 349.475C332.437 348.075 330.969 346.782 330.128 345.016C329.914 344.545 329.669 344.103 329.21 343.845C328.385 343.373 328.217 342.49 328.262 341.745C328.308 340.999 328.186 340.36 327.957 339.706C327.895 339.523 327.85 339.31 327.85 339.112C327.926 338.017 327.941 336.921 327.865 335.81C327.85 335.658 328.018 335.475 328.11 335.293Z" fill="#222532"/>
</g>
<g clip-path="url(#clip4)">
<path d="M102.405 256.75C102.258 256.806 102.111 256.862 102.02 257.064C101.873 257.12 101.928 257.266 101.837 257.469C101.746 257.671 101.801 257.817 101.857 257.963C101.913 258.109 101.969 258.255 102.171 258.345C102.227 258.491 102.374 258.435 102.577 258.525C102.779 258.615 103.073 258.503 103.22 258.447C103.367 258.391 103.514 258.335 103.459 258.189C103.55 257.987 103.641 257.785 103.585 257.639C103.53 257.493 103.621 257.29 103.418 257.2C103.363 257.054 103.307 256.908 103.16 256.964C102.957 256.874 102.754 256.784 102.608 256.84C102.699 256.638 102.552 256.694 102.405 256.75Z" fill="black"/>
<path d="M116.9 255.909C116.992 255.706 116.992 255.706 117.083 255.504C117.174 255.302 117.063 255.01 116.951 254.718C116.546 254.538 116.196 254.504 115.791 254.323C115.644 254.379 115.497 254.436 115.406 254.638L115.314 254.84C115.132 255.244 115.299 255.682 115.557 255.919C115.927 256.447 116.571 256.369 116.9 255.909Z" fill="black"/>
<path d="M116.332 261.481C116.002 261.941 116.078 262.581 116.484 262.762C116.945 263.088 117.588 263.01 117.771 262.605C118.1 262.145 118.025 261.505 117.619 261.324C117.305 260.942 116.661 261.02 116.332 261.481Z" fill="black"/>
<path d="M108.64 255.88C108.311 256.34 108.387 256.98 108.792 257.161C109.253 257.487 109.897 257.409 110.079 257.004C110.409 256.544 110.333 255.904 109.928 255.723C109.467 255.397 108.97 255.419 108.64 255.88Z" fill="black"/>
<path d="M117.881 267.751C117.734 267.807 117.587 267.863 117.495 268.065C117.348 268.121 117.404 268.267 117.313 268.469C117.277 268.818 117.444 269.256 117.703 269.492C117.961 269.728 118.458 269.706 118.752 269.594C118.899 269.538 119.046 269.482 118.99 269.336C119.081 269.134 119.173 268.932 119.117 268.786C119.153 268.437 119.041 268.145 118.636 267.965C118.524 267.673 118.175 267.639 117.881 267.751Z" fill="black"/>
<path d="M110.189 262.15C110.042 262.206 109.895 262.262 109.804 262.464C109.657 262.52 109.713 262.666 109.621 262.868C109.586 263.217 109.753 263.655 110.011 263.891C110.27 264.127 110.767 264.105 111.061 263.993C111.208 263.937 111.355 263.881 111.299 263.735C111.39 263.533 111.481 263.331 111.426 263.184C111.461 262.836 111.35 262.544 110.944 262.364C110.539 262.184 110.483 262.038 110.189 262.15Z" fill="black"/>
<path d="M130.791 265.841C130.461 266.302 130.537 266.942 130.943 267.122C131.404 267.448 132.047 267.37 132.23 266.966L132.321 266.764C132.504 266.36 132.337 265.921 132.022 265.539C131.82 265.449 131.617 265.359 131.323 265.471C131.12 265.381 130.882 265.639 130.791 265.841Z" fill="black"/>
<path d="M131.808 272.483C131.479 272.944 131.555 273.584 131.96 273.764C132.421 274.091 133.065 274.013 133.247 273.608C133.577 273.148 133.501 272.507 133.096 272.327C132.782 271.945 132.138 272.023 131.808 272.483Z" fill="black"/>
<path d="M124.115 266.881C123.785 267.341 123.861 267.981 124.267 268.162C124.728 268.488 125.372 268.41 125.554 268.005C125.884 267.545 125.808 266.905 125.402 266.724C124.941 266.398 124.445 266.42 124.115 266.881Z" fill="black"/>
<path d="M133.356 278.753C133.209 278.809 133.062 278.865 132.971 279.067C132.824 279.123 132.879 279.269 132.788 279.472C132.697 279.674 132.753 279.82 132.808 279.966C132.864 280.112 132.92 280.258 133.122 280.348C133.178 280.494 133.325 280.438 133.528 280.528C133.731 280.618 134.025 280.506 134.172 280.45C134.318 280.394 134.465 280.338 134.41 280.192C134.501 279.99 134.592 279.788 134.537 279.642C134.481 279.496 134.572 279.293 134.369 279.203C134.314 279.057 134.258 278.911 134.111 278.967C133.908 278.877 133.706 278.787 133.559 278.843C133.65 278.641 133.503 278.697 133.356 278.753Z" fill="black"/>
<path d="M125.664 273.151C125.517 273.207 125.37 273.263 125.279 273.465C125.132 273.521 125.187 273.667 125.096 273.87C125.061 274.218 125.228 274.656 125.486 274.892C125.744 275.129 126.241 275.106 126.535 274.994C126.682 274.938 126.829 274.882 126.773 274.736C126.865 274.534 126.956 274.332 126.9 274.186C126.936 273.837 126.824 273.545 126.419 273.365C126.308 273.073 125.958 273.039 125.664 273.151Z" fill="black"/>
<path d="M124.538 261.366C124.868 260.905 124.792 260.265 124.387 260.085C123.926 259.758 123.282 259.837 123.099 260.241C122.77 260.701 122.846 261.342 123.251 261.522C123.712 261.848 124.209 261.826 124.538 261.366Z" fill="black"/>
<path d="M96.3616 264.745C96.1233 265.003 96.0878 265.351 96.1992 265.644C96.2549 265.79 96.3106 265.936 96.5133 266.026C96.569 266.172 96.716 266.116 96.9187 266.206C97.2684 266.24 97.7094 266.072 97.9476 265.814C98.1859 265.555 98.1658 265.061 98.0543 264.769C97.9986 264.623 97.9429 264.477 97.7959 264.533C97.5932 264.443 97.3905 264.353 97.2435 264.409C96.8938 264.375 96.5999 264.487 96.3616 264.745Z" fill="black"/>
<path d="M90.3115 260.358C90.4028 260.156 90.4941 259.954 90.4383 259.807C90.5296 259.605 90.4182 259.313 90.2155 259.223C89.6832 259.593 89.0953 259.817 88.563 260.188L88.6188 260.334C88.6745 260.48 88.6745 260.48 88.8772 260.57C88.8772 260.57 88.9329 260.716 89.0799 260.66C89.4853 260.84 89.982 260.818 90.3115 260.358Z" fill="black"/>
<path d="M89.742 265.931C89.4124 266.391 89.4883 267.031 89.8937 267.211C90.3548 267.538 90.9985 267.46 91.1811 267.055C91.5106 266.595 91.4347 265.954 91.0293 265.774C90.7152 265.392 90.0715 265.47 89.742 265.931Z" fill="black"/>
<path d="M95.3455 258.103C95.016 258.564 95.0918 259.204 95.4972 259.384C95.9583 259.711 96.602 259.633 96.7846 259.228C97.1141 258.768 97.0382 258.127 96.6328 257.947C96.1717 257.621 95.675 257.643 95.3455 258.103Z" fill="black"/>
<path d="M91.2918 272.2C91.1448 272.256 90.9978 272.312 90.9065 272.514C90.6682 272.772 90.6327 273.121 90.7441 273.413C90.7998 273.559 90.8555 273.705 91.0582 273.795C91.1139 273.941 91.2609 273.885 91.4636 273.975C91.8133 274.009 92.2543 273.841 92.4926 273.583C92.5838 273.381 92.6751 273.179 92.6194 273.033C92.5637 272.886 92.655 272.684 92.4523 272.594C92.3966 272.448 92.3408 272.302 92.1939 272.358C91.9912 272.268 91.7885 272.178 91.6415 272.234C91.5857 272.088 91.4388 272.144 91.2918 272.2Z" fill="black"/>
<path d="M83.5999 266.598C83.4529 266.654 83.3059 266.71 83.2146 266.913C82.8851 267.373 82.961 268.013 83.3664 268.194C83.8275 268.52 84.4712 268.442 84.6537 268.037C84.745 267.835 84.8363 267.633 84.7806 267.487C84.8161 267.139 84.7047 266.846 84.2993 266.666C84.2436 266.52 83.8939 266.486 83.5999 266.598Z" fill="black"/>
<path d="M111.838 275.746C111.508 276.206 111.584 276.847 111.989 277.027C112.451 277.353 113.094 277.275 113.277 276.871C113.606 276.41 113.53 275.77 113.125 275.59C112.811 275.207 112.167 275.285 111.838 275.746Z" fill="black"/>
<path d="M104.201 270.29C103.871 270.751 103.947 271.391 104.353 271.571C104.814 271.898 105.457 271.819 105.64 271.415C105.97 270.955 105.894 270.314 105.488 270.134C105.027 269.808 104.531 269.83 104.201 270.29Z" fill="black"/>
<path d="M105.219 276.931C104.889 277.391 104.965 278.031 105.37 278.212C105.831 278.538 106.475 278.46 106.658 278.055C106.987 277.595 106.911 276.955 106.506 276.774C106.192 276.392 105.548 276.47 105.219 276.931Z" fill="black"/>
<path d="M110.82 269.106C110.491 269.566 110.566 270.207 110.972 270.387C111.433 270.713 112.077 270.635 112.259 270.231C112.589 269.77 112.513 269.13 112.107 268.95C111.646 268.624 111.15 268.646 110.82 269.106Z" fill="black"/>
<path d="M97.5271 271.33C97.1976 271.791 97.2735 272.431 97.6789 272.611C98.14 272.938 98.7836 272.859 98.9662 272.455C99.2957 271.995 99.2199 271.354 98.8145 271.174C98.3534 270.848 97.8567 270.87 97.5271 271.33Z" fill="black"/>
<path d="M103.037 263.706C102.707 264.166 102.783 264.807 103.189 264.987C103.65 265.313 104.293 265.235 104.476 264.831C104.805 264.37 104.73 263.73 104.324 263.55C104.01 263.168 103.366 263.246 103.037 263.706Z" fill="black"/>
<path d="M106.768 283.202C106.621 283.258 106.474 283.314 106.383 283.517C106.053 283.977 106.129 284.617 106.534 284.798C106.995 285.124 107.639 285.046 107.822 284.641C107.913 284.439 108.004 284.237 107.949 284.091C107.984 283.743 107.873 283.45 107.467 283.27C107.412 283.124 107.062 283.09 106.768 283.202Z" fill="black"/>
<path d="M99.0765 277.601C98.9295 277.657 98.7825 277.713 98.6912 277.915C98.3617 278.375 98.4375 279.016 98.8429 279.196C99.304 279.522 99.9477 279.444 100.13 279.04C100.222 278.838 100.313 278.635 100.257 278.489C100.293 278.141 100.181 277.849 99.7758 277.669C99.7201 277.523 99.3704 277.489 99.0765 277.601Z" fill="black"/>
<path d="M127.459 286.692C127.221 286.95 127.185 287.298 127.297 287.59C127.353 287.736 127.408 287.883 127.611 287.973C127.667 288.119 127.814 288.063 128.016 288.153C128.366 288.187 128.807 288.019 129.045 287.76C129.284 287.502 129.263 287.008 129.152 286.716C129.096 286.569 129.041 286.423 128.894 286.479C128.691 286.389 128.488 286.299 128.341 286.355C127.845 286.377 127.551 286.489 127.459 286.692Z" fill="black"/>
<path d="M119.678 281.292C119.348 281.752 119.424 282.393 119.829 282.573C120.235 282.753 120.934 282.821 121.117 282.417C121.446 281.956 121.37 281.316 120.965 281.136C120.651 280.753 120.007 280.832 119.678 281.292Z" fill="black"/>
<path d="M120.842 287.877C120.512 288.337 120.588 288.978 120.993 289.158C121.454 289.484 122.098 289.406 122.281 289.001C122.61 288.541 122.534 287.901 122.129 287.72C121.668 287.394 121.024 287.472 120.842 287.877Z" fill="black"/>
<path d="M126.297 280.106C125.967 280.566 126.043 281.207 126.448 281.387C126.91 281.713 127.553 281.635 127.736 281.231C128.065 280.77 127.989 280.13 127.584 279.95C127.27 279.568 126.626 279.646 126.297 280.106Z" fill="black"/>
<path d="M113.002 282.331C112.672 282.791 112.748 283.431 113.153 283.611C113.615 283.938 114.258 283.86 114.441 283.455C114.77 282.995 114.694 282.354 114.289 282.174C113.975 281.792 113.331 281.87 113.002 282.331Z" fill="black"/>
<path d="M118.512 274.707C118.182 275.167 118.258 275.808 118.663 275.988C119.124 276.314 119.768 276.236 119.951 275.831C120.28 275.371 120.204 274.731 119.799 274.551C119.485 274.168 118.841 274.246 118.512 274.707Z" fill="black"/>
<path d="M122.389 294.148C122.242 294.204 122.095 294.26 122.004 294.462C121.766 294.72 121.73 295.069 121.842 295.361C121.897 295.507 121.953 295.653 122.156 295.743C122.212 295.889 122.359 295.833 122.561 295.923C122.911 295.957 123.352 295.789 123.59 295.531C123.682 295.329 123.773 295.127 123.717 294.98C123.661 294.834 123.753 294.632 123.55 294.542C123.494 294.396 123.439 294.25 123.292 294.306C123.089 294.216 122.886 294.126 122.739 294.182C122.536 294.092 122.389 294.148 122.389 294.148Z" fill="black"/>
<path d="M114.551 288.602C114.404 288.658 114.257 288.714 114.166 288.916C113.836 289.377 113.912 290.017 114.318 290.197C114.779 290.523 115.422 290.445 115.605 290.041C115.696 289.839 115.787 289.637 115.732 289.491C115.767 289.142 115.656 288.85 115.25 288.67C115.195 288.524 114.845 288.49 114.551 288.602Z" fill="black"/>
<path d="M135.152 292.293C134.766 292.607 134.989 293.191 135.303 293.574C135.764 293.9 136.408 293.822 136.591 293.417C136.92 292.957 136.844 292.317 136.439 292.137C136.125 291.754 135.481 291.832 135.152 292.293Z" fill="black"/>
<path d="M136.316 298.879C136.225 299.081 136.078 299.137 136.133 299.283C136.098 299.631 136.209 299.923 136.468 300.16C136.742 299.553 136.868 299.003 137.142 298.396C136.792 298.362 136.352 298.53 136.316 298.879Z" fill="black"/>
<path d="M128.476 293.333C128.147 293.793 128.223 294.433 128.628 294.613C129.089 294.94 129.733 294.862 129.915 294.457C130.245 293.997 130.169 293.356 129.764 293.176C129.45 292.794 128.806 292.872 128.476 293.333Z" fill="black"/>
<path d="M134.135 285.652C133.805 286.112 133.881 286.753 134.286 286.933C134.747 287.259 135.391 287.181 135.574 286.777C135.903 286.316 135.827 285.676 135.422 285.496C134.961 285.169 134.317 285.247 134.135 285.652Z" fill="black"/>
<path d="M130.027 299.603C129.88 299.659 129.733 299.715 129.641 299.918C129.312 300.378 129.388 301.018 129.849 301.345C130.31 301.671 130.954 301.593 131.136 301.188C131.227 300.986 131.319 300.784 131.263 300.638C131.299 300.29 131.187 299.998 130.782 299.817C130.67 299.525 130.321 299.491 130.027 299.603Z" fill="black"/>
<path d="M49.5782 265.682C49.3755 265.592 49.0815 265.704 48.8432 265.962C48.8432 265.962 48.6962 266.019 48.752 266.165L48.6607 266.367C48.6607 266.367 48.7164 266.513 48.5694 266.569C48.4781 266.771 48.5338 266.917 48.5896 267.063C48.6453 267.209 48.701 267.356 48.9037 267.446C48.9594 267.592 49.1064 267.536 49.3091 267.626C49.5118 267.716 49.8058 267.604 49.9528 267.548C50.0997 267.492 50.2467 267.436 50.191 267.289C50.191 267.289 50.338 267.233 50.2823 267.087C50.3736 266.885 50.4091 266.537 50.2977 266.245C50.242 266.098 50.1863 265.952 50.0393 266.008C50.0393 266.008 50.0393 266.008 49.9836 265.862C49.9279 265.716 49.7252 265.626 49.5782 265.682Z" fill="black"/>
<path d="M69.8299 269.34C69.5003 269.8 69.5762 270.441 69.9816 270.621C70.4427 270.947 71.0864 270.869 71.2689 270.464C71.5985 270.004 71.5226 269.364 71.1172 269.184C70.7474 268.655 70.1594 268.879 69.8299 269.34Z" fill="black"/>
<path d="M63.1541 270.378C62.8246 270.839 62.9004 271.479 63.3058 271.659C63.7669 271.985 64.4106 271.907 64.5932 271.503C64.9227 271.043 64.8469 270.402 64.4414 270.222C64.1273 269.84 63.4836 269.918 63.1541 270.378Z" fill="black"/>
<path d="M55.5193 264.922C55.1898 265.383 55.2656 266.023 55.6711 266.203C56.1322 266.529 56.7758 266.451 56.9584 266.047C57.1967 265.789 57.1765 265.295 57.0651 265.002C57.0094 264.856 56.9537 264.71 56.8067 264.766C56.3456 264.44 55.8489 264.462 55.5193 264.922Z" fill="black"/>
<path d="M64.4656 276.907C64.4656 276.907 64.3186 276.963 64.3743 277.109C64.2274 277.165 64.2831 277.311 64.1918 277.513C64.1562 277.862 64.3234 278.3 64.5818 278.536C64.8402 278.772 65.3369 278.75 65.6308 278.638C65.7778 278.582 65.9248 278.526 65.8691 278.38C65.8691 278.38 66.0161 278.324 65.9604 278.178C66.1429 277.773 65.9758 277.335 65.6617 276.953C65.2918 276.425 64.7952 276.447 64.4656 276.907Z" fill="black"/>
<path d="M56.6258 271.361C56.6258 271.361 56.4788 271.417 56.5345 271.563C56.3875 271.619 56.4432 271.765 56.3519 271.967C56.3164 272.315 56.4835 272.754 56.7419 272.99C57.0003 273.226 57.497 273.204 57.791 273.092C57.938 273.036 58.085 272.98 58.0293 272.834C58.0293 272.834 58.1763 272.778 58.1206 272.632C58.3031 272.227 58.136 271.789 57.8218 271.407C57.5077 271.024 57.011 271.046 56.6258 271.361Z" fill="black"/>
<path d="M85.2483 280.195C85.01 280.453 84.9745 280.801 85.0859 281.093C85.1416 281.239 85.1973 281.385 85.4 281.475C85.4557 281.622 85.6027 281.566 85.8054 281.656C86.1551 281.69 86.5961 281.521 86.8344 281.263C87.0726 281.005 87.0525 280.511 86.9411 280.218C86.8854 280.072 86.8296 279.926 86.6827 279.982C86.48 279.892 86.2773 279.802 86.1303 279.858C85.7806 279.824 85.4866 279.936 85.2483 280.195Z" fill="black"/>
<path d="M77.6131 274.739C77.2835 275.2 77.3594 275.84 77.7648 276.02C78.2259 276.347 78.8696 276.269 79.0521 275.864C79.3817 275.404 79.3058 274.763 78.9004 274.583C78.4393 274.257 77.9426 274.279 77.6131 274.739Z" fill="black"/>
<path d="M78.6307 281.38C78.3011 281.84 78.377 282.481 78.7824 282.661C79.2435 282.987 79.8872 282.909 80.0697 282.505C80.3993 282.044 80.3234 281.404 79.918 281.224C79.6039 280.841 78.9602 280.919 78.6307 281.38Z" fill="black"/>
<path d="M84.2322 273.553C83.9027 274.013 83.9785 274.654 84.3839 274.834C84.8451 275.16 85.4887 275.082 85.6713 274.678C86.0008 274.217 85.925 273.577 85.5196 273.397C85.0584 273.071 84.6175 273.239 84.2322 273.553Z" fill="black"/>
<path d="M70.9939 275.924C70.6644 276.385 70.7403 277.025 71.1457 277.205C71.6068 277.532 72.2504 277.454 72.433 277.049C72.7625 276.589 72.6867 275.948 72.2813 275.768C71.7645 275.296 71.3235 275.464 70.9939 275.924Z" fill="black"/>
<path d="M76.449 268.154C76.1195 268.614 76.1953 269.255 76.6007 269.435C77.0619 269.761 77.7055 269.683 77.8881 269.279C78.2176 268.818 78.1418 268.178 77.7364 267.998C77.4222 267.615 76.7786 267.693 76.449 268.154Z" fill="black"/>
<path d="M79.8843 287.762C79.8843 287.762 79.7373 287.818 79.793 287.964C79.646 288.02 79.7017 288.166 79.6104 288.369C79.5191 288.571 79.5749 288.717 79.6306 288.863C79.6863 289.009 79.742 289.155 79.9447 289.245C80.0004 289.391 80.1474 289.335 80.3501 289.425C80.5528 289.515 80.8468 289.403 80.9938 289.347C81.1408 289.291 81.2878 289.235 81.232 289.089C81.232 289.089 81.379 289.033 81.3233 288.887C81.4146 288.685 81.4502 288.337 81.3387 288.044C81.283 287.898 81.2273 287.752 81.0803 287.808C80.8776 287.718 80.6749 287.628 80.5279 287.684C80.3252 287.594 80.1782 287.65 79.8843 287.762Z" fill="black"/>
<path d="M72.1023 282.364C72.1023 282.364 71.9553 282.421 72.0111 282.567C71.8641 282.623 71.9198 282.769 71.8285 282.971C71.7929 283.319 71.9601 283.758 72.2185 283.994C72.4769 284.23 72.9736 284.208 73.2676 284.096C73.4146 284.04 73.5616 283.984 73.5058 283.838C73.5058 283.838 73.6528 283.781 73.5971 283.635C73.7797 283.231 73.6125 282.793 73.2984 282.41C72.9843 282.028 72.4876 282.05 72.1023 282.364Z" fill="black"/>
<path d="M100.871 291.14C100.541 291.6 100.617 292.24 101.023 292.42C101.484 292.747 102.127 292.669 102.31 292.264C102.639 291.804 102.564 291.163 102.158 290.983C101.697 290.657 101.109 290.881 100.871 291.14Z" fill="black"/>
<path d="M93.0877 285.74C92.7581 286.2 92.834 286.841 93.2394 287.021C93.7005 287.347 94.3442 287.269 94.5268 286.865C94.8563 286.404 94.7805 285.764 94.375 285.584C94.0609 285.201 93.4172 285.279 93.0877 285.74Z" fill="black"/>
<path d="M94.2518 292.326C93.9222 292.786 93.9981 293.427 94.4035 293.607C94.8646 293.933 95.5083 293.855 95.6908 293.451C96.0204 292.99 95.9445 292.35 95.5391 292.17C95.078 291.843 94.4343 291.921 94.2518 292.326Z" fill="black"/>
<path d="M99.7072 284.555C99.3777 285.016 99.4535 285.656 99.859 285.836C100.376 286.309 100.964 286.084 101.293 285.624C101.623 285.164 101.547 284.523 101.142 284.343C100.68 284.017 100.092 284.241 99.7072 284.555Z" fill="black"/>
<path d="M86.4139 286.78C86.0843 287.24 86.1602 287.88 86.5656 288.06C87.0267 288.387 87.6704 288.309 87.8529 287.904C88.1825 287.444 88.1066 286.803 87.7012 286.623C87.3871 286.241 86.7991 286.465 86.4139 286.78Z" fill="black"/>
<path d="M91.9236 279.155C91.5941 279.615 91.6699 280.256 92.0753 280.436C92.5365 280.762 93.1801 280.684 93.3627 280.28C93.6922 279.819 93.6164 279.179 93.211 278.999C92.8968 278.617 92.2532 278.695 91.9236 279.155Z" fill="black"/>
<path d="M95.3602 298.764C95.3602 298.764 95.2132 298.82 95.2689 298.967C95.1219 299.023 95.1776 299.169 95.0863 299.371C95.0508 299.719 95.2179 300.157 95.4763 300.394C95.7347 300.63 96.2314 300.608 96.5254 300.496C96.6724 300.44 96.8194 300.383 96.7637 300.237C96.7637 300.237 96.9107 300.181 96.8549 300.035C97.0375 299.631 96.8704 299.193 96.5562 298.81C96.2421 298.428 95.7454 298.45 95.3602 298.764Z" fill="black"/>
<path d="M87.7254 293.309C87.7254 293.309 87.5784 293.365 87.6341 293.511C87.4871 293.567 87.5428 293.713 87.4516 293.915C87.416 294.263 87.5831 294.702 87.8415 294.938C88.1 295.174 88.5966 295.152 88.8906 295.04C89.0376 294.984 89.1846 294.928 89.1289 294.782C89.1289 294.782 89.2759 294.726 89.2202 294.58C89.4027 294.175 89.2356 293.737 88.9215 293.355C88.4603 293.028 87.9637 293.05 87.7254 293.309Z" fill="black"/>
<path d="M116.346 302.142C116.108 302.4 116.072 302.748 116.184 303.04C116.239 303.186 116.295 303.332 116.498 303.423C116.553 303.569 116.7 303.513 116.903 303.603C117.253 303.637 117.694 303.468 117.932 303.21C118.17 302.952 118.15 302.458 118.039 302.166C117.983 302.019 117.927 301.873 117.78 301.929C117.578 301.839 117.375 301.749 117.228 301.805C116.878 301.771 116.437 301.939 116.346 302.142Z" fill="black"/>
<path d="M108.564 296.743C108.235 297.204 108.311 297.844 108.716 298.024C109.177 298.35 109.821 298.272 110.003 297.868C110.333 297.408 110.257 296.767 109.852 296.587C109.537 296.205 108.894 296.283 108.564 296.743Z" fill="black"/>
<path d="M109.726 303.326C109.397 303.786 109.473 304.426 109.878 304.606C110.339 304.933 110.983 304.855 111.165 304.45C111.495 303.99 111.419 303.349 111.014 303.169C110.553 302.843 109.909 302.921 109.726 303.326Z" fill="black"/>
<path d="M115.183 295.556C114.854 296.017 114.93 296.657 115.335 296.837C115.796 297.164 116.44 297.085 116.622 296.681C116.952 296.221 116.876 295.58 116.471 295.4C116.157 295.018 115.513 295.096 115.183 295.556Z" fill="black"/>
<path d="M101.888 297.781C101.559 298.241 101.635 298.882 102.04 299.062C102.501 299.388 103.145 299.31 103.328 298.906C103.657 298.445 103.581 297.805 103.176 297.625C102.862 297.243 102.274 297.467 101.888 297.781Z" fill="black"/>
<path d="M107.547 290.101C107.217 290.562 107.293 291.202 107.698 291.382C108.16 291.708 108.803 291.63 108.986 291.226C109.315 290.766 109.239 290.125 108.834 289.945C108.373 289.619 107.729 289.697 107.547 290.101Z" fill="black"/>
<path d="M110.835 309.766C110.835 309.766 110.688 309.822 110.744 309.968C110.597 310.024 110.653 310.17 110.562 310.372C110.47 310.574 110.526 310.721 110.582 310.867C110.637 311.013 110.693 311.159 110.896 311.249C110.952 311.395 111.099 311.339 111.301 311.429C111.504 311.519 111.798 311.407 111.945 311.351C112.092 311.295 112.239 311.239 112.183 311.093C112.183 311.093 112.33 311.037 112.274 310.891C112.366 310.688 112.401 310.34 112.29 310.048C112.234 309.902 112.178 309.756 112.031 309.812C111.829 309.722 111.626 309.632 111.479 309.688C111.276 309.598 111.129 309.654 110.835 309.766Z" fill="black"/>
<path d="M103.2 304.31C103.2 304.31 103.053 304.366 103.109 304.512C102.962 304.568 103.017 304.714 102.926 304.916C102.891 305.265 103.058 305.703 103.316 305.939C103.575 306.175 104.071 306.153 104.365 306.041C104.512 305.985 104.659 305.929 104.604 305.783C104.604 305.783 104.75 305.727 104.695 305.581C104.877 305.176 104.71 304.738 104.396 304.356C103.935 304.03 103.438 304.052 103.2 304.31Z" fill="black"/>
<path d="M124.039 307.743C123.709 308.204 123.785 308.844 124.191 309.024C124.652 309.35 125.295 309.272 125.478 308.868C125.807 308.408 125.732 307.767 125.326 307.587C125.012 307.205 124.368 307.283 124.039 307.743Z" fill="black"/>
<path d="M125.203 314.328C125.056 314.384 125.112 314.53 125.021 314.732C124.929 314.935 125.041 315.227 125.152 315.519C125.685 315.149 126.217 314.778 126.749 314.408C126.749 314.408 126.693 314.262 126.546 314.318C126.344 314.228 126.141 314.138 125.994 314.194C125.68 313.812 125.442 314.07 125.203 314.328Z" fill="black"/>
<path d="M130.659 306.558C130.329 307.019 130.405 307.659 130.811 307.839C131.069 308.075 131.216 308.019 131.419 308.109C131.768 308.143 132.062 308.031 132.245 307.627C132.483 307.369 132.519 307.021 132.352 306.582C132.296 306.436 132.24 306.29 132.037 306.2C131.632 306.02 130.988 306.098 130.659 306.558Z" fill="black"/>
<path d="M117.363 308.782C117.034 309.242 117.109 309.883 117.515 310.063C117.976 310.389 118.62 310.311 118.802 309.907C119.334 309.536 119.112 308.952 118.797 308.57C118.336 308.244 117.693 308.322 117.363 308.782Z" fill="black"/>
<path d="M123.021 301.103C122.692 301.563 122.768 302.203 123.173 302.384C123.634 302.71 124.278 302.632 124.46 302.227C124.79 301.767 124.714 301.127 124.309 300.946C123.848 300.62 123.204 300.698 123.021 301.103Z" fill="black"/>
<path d="M118.675 315.312C118.675 315.312 118.528 315.368 118.583 315.514C118.436 315.57 118.492 315.716 118.401 315.918C118.365 316.267 118.532 316.705 118.791 316.941C119.049 317.177 119.546 317.155 119.84 317.043C119.987 316.987 120.134 316.931 120.078 316.785C120.078 316.785 120.225 316.729 120.169 316.583C120.352 316.178 120.185 315.74 119.871 315.358C119.557 314.976 118.913 315.054 118.675 315.312Z" fill="black"/>
<path d="M43.2405 273.788C43.0022 274.046 42.9667 274.394 43.0781 274.687C43.1338 274.833 43.1895 274.979 43.3922 275.069C43.4479 275.215 43.5949 275.159 43.7976 275.249C44.1473 275.283 44.5883 275.115 44.8266 274.857C45.0648 274.598 45.0447 274.104 44.9332 273.812C44.8775 273.666 44.8218 273.52 44.6748 273.576C44.4721 273.486 44.2694 273.396 44.1224 273.452C43.717 273.271 43.4788 273.53 43.2405 273.788Z" fill="black"/>
<path d="M58.9544 284.53C58.8075 284.586 58.8075 284.586 58.8632 284.733C58.7719 284.935 58.6249 284.991 58.6806 285.137L58.7363 285.283C59.1773 285.115 59.4713 285.003 59.9122 284.835C60.0592 284.779 60.3532 284.666 60.5002 284.61C60.4445 284.464 60.4445 284.464 60.2418 284.374C60.0391 284.284 59.8364 284.194 59.6894 284.25C59.3954 284.362 59.0457 284.328 58.9544 284.53Z" fill="black"/>
<path d="M51.0252 279.187C50.6956 279.647 50.7715 280.288 51.1769 280.468C51.638 280.794 52.2817 280.716 52.4643 280.312C52.7938 279.851 52.7179 279.211 52.3125 279.031C51.8514 278.704 51.3547 278.726 51.0252 279.187Z" fill="black"/>
<path d="M52.0407 285.829C51.8025 286.087 51.8226 286.582 51.934 286.874L51.9897 287.02C51.9897 287.02 52.0454 287.166 52.1924 287.11C52.6536 287.436 53.2972 287.358 53.4798 286.954C53.6268 286.898 53.5711 286.752 53.6623 286.549L53.6066 286.403C53.6422 286.055 53.5308 285.763 53.1254 285.583C53.0139 285.291 52.3703 285.369 52.0407 285.829Z" fill="black"/>
<path d="M57.699 278.149C57.3695 278.609 57.4453 279.25 57.8507 279.43C58.3119 279.756 58.9555 279.678 59.1381 279.274C59.4676 278.813 59.3918 278.173 58.9864 277.993C58.5252 277.666 58.0286 277.689 57.699 278.149Z" fill="black"/>
<path d="M44.4041 280.373C44.0745 280.834 44.1504 281.474 44.5558 281.654C45.0169 281.98 45.6606 281.902 45.8432 281.498C46.1727 281.038 46.0968 280.397 45.6914 280.217C45.2303 279.891 44.7336 279.913 44.4041 280.373Z" fill="black"/>
<path d="M49.8592 272.603C49.5296 273.063 49.6055 273.704 50.0109 273.884C50.472 274.21 51.1157 274.132 51.2982 273.728C51.6278 273.267 51.5519 272.627 51.1465 272.447C50.8324 272.064 50.1887 272.142 49.8592 272.603Z" fill="black"/>
<path d="M45.9537 286.644C45.8067 286.7 45.6597 286.756 45.5685 286.958C45.4215 287.014 45.3302 287.216 45.2389 287.419L45.2946 287.565C45.7 287.745 46.2524 287.869 46.7491 287.847C46.8961 287.791 46.9518 287.937 47.0988 287.881C47.0988 287.881 47.1901 287.679 47.1344 287.533C47.0787 287.386 47.0787 287.386 47.0229 287.24C46.9672 287.094 46.8558 286.802 46.6531 286.712C46.5974 286.566 46.2477 286.532 45.9537 286.644Z" fill="black"/>
<path d="M65.7194 283.289C65.5724 283.345 65.5724 283.345 65.4811 283.547C65.3898 283.749 65.3898 283.749 65.2985 283.951C65.7952 283.929 66.3476 284.053 67.047 284.121C67.047 284.121 67.194 284.065 67.2497 284.211C67.2853 283.863 67.2296 283.717 66.9711 283.481C66.9711 283.481 66.9711 283.481 66.9154 283.335C66.363 283.211 66.0133 283.177 65.7194 283.289Z" fill="black"/>
<path d="M89.7576 306.59C89.4281 307.051 89.5039 307.691 89.9093 307.871C90.3704 308.198 91.0141 308.119 91.1967 307.715C91.5262 307.255 91.4504 306.614 91.045 306.434C90.5838 306.108 89.9959 306.332 89.7576 306.59Z" fill="black"/>
<path d="M88.5935 300.004C88.264 300.465 88.3399 301.105 88.7453 301.285C89.2064 301.611 89.8501 301.533 90.0326 301.129C90.3622 300.669 90.2863 300.028 89.8809 299.848C89.5668 299.466 88.9788 299.69 88.5935 300.004Z" fill="black"/>
<path d="M80.9575 294.549C80.8106 294.605 80.8663 294.751 80.8663 294.751C80.6837 295.155 80.7039 295.65 81.165 295.976C81.3677 296.066 81.3677 296.066 81.5704 296.156C81.7174 296.1 81.7731 296.246 81.9201 296.19C82.2141 296.078 82.361 296.022 82.5993 295.764C82.9289 295.303 82.853 294.663 82.4476 294.483C81.7838 294.066 81.2871 294.088 80.9575 294.549Z" fill="black"/>
<path d="M105.234 317.591C104.996 317.849 104.96 318.197 105.071 318.489C105.127 318.636 105.183 318.782 105.386 318.872C105.441 319.018 105.588 318.962 105.791 319.052C106.196 319.232 106.49 319.12 106.673 318.716C106.911 318.457 106.891 317.963 106.78 317.671C106.724 317.525 106.668 317.379 106.521 317.435C106.319 317.345 106.116 317.254 105.969 317.31C105.766 317.22 105.325 317.389 105.234 317.591Z" fill="black"/>
<path d="M97.449 312.192C97.1195 312.652 97.1953 313.293 97.6007 313.473C98.0619 313.799 98.7055 313.721 98.8881 313.317C99.2176 312.856 99.1418 312.216 98.7364 312.036C98.4222 311.653 97.7786 311.731 97.449 312.192Z" fill="black"/>
<path d="M99.9 318.62C99.6415 318.383 99.4946 318.439 99.2918 318.349C99.4946 318.439 99.6973 318.53 99.9 318.62Z" fill="black"/>
<path d="M104.07 311.008C103.741 311.468 103.816 312.109 104.222 312.289C104.683 312.615 105.327 312.537 105.509 312.133C105.839 311.672 105.763 311.032 105.357 310.852C105.043 310.469 104.455 310.694 104.07 311.008Z" fill="black"/>
<path d="M90.9223 313.176C91.3834 313.502 91.6976 313.885 92.2144 314.357C92.2144 314.357 92.2701 314.503 92.4171 314.447C92.5084 314.245 92.5996 314.043 92.6352 313.694C92.5238 313.402 92.4681 313.256 92.2654 313.166C92.007 312.93 91.8043 312.84 91.6573 312.896C91.4546 312.806 91.1606 312.918 90.9223 313.176Z" fill="black"/>
<path d="M96.4334 305.552C96.1038 306.012 96.1797 306.653 96.5851 306.833C97.0462 307.159 97.6899 307.081 97.8725 306.677C98.202 306.216 98.1262 305.576 97.7207 305.396C97.2596 305.069 96.616 305.148 96.4334 305.552Z" fill="black"/>
<path d="M111.908 316.553C111.578 317.013 111.654 317.654 112.06 317.834C112.521 318.16 113.165 318.082 113.347 317.677C113.677 317.217 113.601 316.577 113.195 316.397C112.734 316.07 112.238 316.092 111.908 316.553Z" fill="black"/>
</g>
<g clip-path="url(#clip5)">
<path d="M139.498 270.969C137.122 272.329 135.959 274.847 133.937 276.559C129.843 279.934 125.596 283.056 121.249 286.129C116.093 289.755 109.976 290.863 104.415 293.28C102.545 294.086 100.068 294.489 97.7931 294.439C95.5183 294.388 93.2941 295.194 91.0698 295.547C89.4522 295.799 87.5312 296.05 86.1158 295.95C79.2408 295.547 72.3659 294.892 65.6426 293.029C62.7612 292.223 59.9808 291.165 57.0994 290.309C55.1785 289.755 53.1564 288.848 51.3366 287.791C50.9322 287.539 49.5168 287.237 50.275 286.028C50.4267 285.826 50.3761 285.373 50.1739 285.524C47.798 287.035 46.8375 284.265 45.0683 283.912C42.9451 283.459 41.6308 281.696 39.9626 280.488C34.6547 276.811 30.9645 271.523 26.5665 266.94C25.2522 265.58 25.1005 263.666 25.1005 261.853C23.9884 261.903 24.9489 262.86 23.9379 262.961C22.5224 260.644 20.9048 258.126 19.3377 255.557C19.9949 254.449 21.107 254.449 22.2191 254.298C23.7357 254.147 25.2016 253.794 26.516 253.039C28.0831 252.132 28.1842 251.075 26.9709 249.765C26.061 248.758 24.7467 248.254 23.584 247.65C22.9774 247.348 22.2191 247.046 22.2697 246.29C22.3708 245.434 23.1796 245.132 23.9379 244.981C25.3533 244.628 26.8193 244.93 28.1842 244.477C29.8018 243.923 32.0766 243.772 32.1777 241.656C32.2788 239.289 30.004 239.038 28.2347 238.534C26.6676 238.081 25.05 238.081 23.4829 237.829C21.9664 237.577 19.3883 238.181 19.3883 236.116C19.4388 234.303 21.9158 234.757 23.4324 234.656C25.7072 234.505 27.9314 234.051 30.1051 233.447C31.4194 233.094 32.5821 232.44 33.5931 231.533C35.4635 229.821 35.0591 228.058 32.6327 227.202C31.7227 226.9 30.8128 226.849 29.9029 226.849C27.4764 226.849 25.05 226.849 22.573 226.849C21.6631 226.849 20.5004 227.051 20.1971 225.892C19.8938 224.633 21.0564 224.18 21.9664 223.777C23.4829 223.072 25.05 222.417 26.5665 221.712C27.1226 221.46 27.6281 221.259 28.1842 220.957C29.1446 220.403 30.2062 219.697 30.2062 218.589C30.2062 217.23 28.7908 217.129 27.7798 216.776C24.8983 215.87 21.9664 216.373 19.0344 216.575C14.2826 216.927 12.5639 217.834 14.4848 211.488C15.1925 209.071 15.0914 206.502 14.8892 203.984C14.7881 202.926 14.3331 201.818 15.2431 200.861C16.2541 198.192 17.3662 195.573 18.7311 193.055C22.0675 186.86 25.1511 180.564 30.1557 175.326C35.6657 169.534 41.6813 164.699 48.6574 160.72C53.9147 157.749 59.2226 155.482 65.036 153.921C67.9174 153.115 70.7988 151.907 73.8319 151.604C78.5837 151.151 83.4366 150.647 88.1884 151.101C90.7665 151.353 93.749 150.396 96.0238 152.461C102.444 152.108 107.903 155.533 113.919 156.943C117.003 157.699 119.682 159.763 122.513 161.375C127.467 164.246 131.511 168.174 135.858 171.801C138.082 173.664 139.801 176.132 141.57 178.449C144.755 182.629 147.94 186.809 149.962 191.695C152.843 198.695 155.826 205.696 156.736 213.352C158.101 214.46 158.303 216.222 157.949 217.431C156.938 220.705 157.342 224.029 157.039 227.353C156.534 232.389 157.342 237.527 155.775 242.462C154.815 245.585 153.197 248.456 152.489 251.679C149.355 257.773 146.626 264.17 141.722 269.206C141.014 269.961 140.408 270.667 139.498 270.969Z" fill="#617DEB"/>
<path d="M300.758 217.028C301.314 214.409 301.567 211.79 301.769 209.121C302.022 205.696 303.387 202.221 304.853 198.998C306.622 195.069 308.038 190.99 310.211 187.212C312.941 182.528 316.581 178.55 319.867 174.369C322.748 170.743 326.489 167.671 330.482 165.203C331.948 164.296 332.909 162.886 334.476 162.08C337.307 160.62 339.885 158.907 343.07 158.001C344.94 157.497 346.81 156.238 348.782 155.432C352.219 154.022 355.91 153.669 359.398 152.712C365.565 151.05 371.783 151.755 377.95 151.101C381.084 150.748 384.42 151.504 387.555 152.309C390.689 153.115 394.076 153.468 396.957 154.777C400.445 156.389 404.338 157.245 407.573 159.512C410.555 161.627 413.942 163.239 416.824 165.455C419.958 167.822 422.991 170.34 425.468 173.463C427.591 176.182 430.321 178.449 432.292 181.32C434.567 184.593 437.145 187.666 438.359 191.594C438.662 192.551 440.381 193.457 440.128 194.515C439.42 197.738 441.897 199.955 442.302 202.775C443.11 203.379 443.161 204.236 443.009 205.041C442.605 207.61 443.11 210.027 443.869 212.445C444.981 215.971 443.97 216.978 440.178 216.575C436.893 216.222 433.657 215.769 430.371 216.424C429.108 216.676 427.743 216.877 427.49 218.438C427.288 219.899 428.653 220.403 429.613 220.906C431.939 222.065 434.163 223.475 436.69 224.13C437.348 224.281 437.954 224.583 438.51 224.986C438.915 225.288 439.37 225.641 439.167 226.195C439.016 226.648 438.561 226.749 438.156 226.799C436.994 227 435.78 227 434.618 226.749C432.04 226.245 429.411 226.446 426.833 226.597C425.165 226.698 423.496 226.95 422.991 228.814C422.536 230.627 424.154 231.231 425.316 231.986C427.642 233.497 430.321 233.9 432.95 234.555C433.506 234.706 434.112 234.807 434.668 235.008C435.275 235.21 436.185 235.361 436.185 236.116C436.185 236.973 435.325 237.325 434.618 237.476C432.798 237.879 430.928 237.98 429.158 238.433C427.541 238.886 425.519 239.39 425.519 241.354C425.519 243.319 427.49 243.822 429.209 244.175C430.624 244.477 431.989 244.729 433.455 244.829C434.264 244.88 435.275 244.829 435.427 245.938C435.578 246.894 434.769 247.398 434.011 247.801C433.303 248.204 432.444 248.456 431.736 248.909C429.815 250.118 429.765 251.528 431.635 252.787C432.848 253.593 434.213 253.996 435.629 254.147C436.64 254.248 437.701 254.248 438.156 255.406C437.095 258.428 434.972 260.745 433.506 263.515C431.989 266.335 429.815 268.702 427.996 271.271C425.974 274.142 423.092 276.207 420.312 278.372C417.582 280.488 415.156 283.056 411.87 284.467C408.281 286.028 405.146 288.345 401.507 289.906C397.159 291.769 392.711 292.978 388.161 293.834C382.904 294.842 377.596 295.396 372.137 295.446C369.862 295.446 367.536 294.539 365.211 295.295C364.301 295.597 362.785 295.295 362.582 293.834C362.481 293.28 362.178 293.28 362.026 293.431C359.549 295.496 356.82 293.834 354.595 293.331C349.692 292.172 344.94 290.208 340.491 287.74C338.166 286.431 335.79 285.121 333.465 283.862C332.049 283.056 330.786 281.848 330.583 279.732C330.331 281.092 329.926 281.898 328.814 280.689C326.236 278.02 323.203 275.854 320.372 273.487C319.462 272.681 319.766 271.019 318.3 270.566C315.317 269.105 313.598 266.386 311.981 263.767C309.706 260.09 307.886 256.111 306.117 252.183C303.134 245.837 301.112 239.189 300.607 232.188C300.657 228.914 301.011 225.691 300.202 222.468C299.848 220.806 299.545 218.741 300.758 217.028Z" fill="#34327A"/>
<path d="M306.622 251.981C308.847 255.708 310.616 259.637 312.436 263.565C312.992 264.724 313.851 265.58 314.812 266.234C316.48 267.393 316.783 269.508 318.3 270.717C315.974 271.573 313.649 270.918 311.324 270.767C304.752 270.364 298.079 270.969 291.659 269.206C291.103 268.853 289.789 268.753 290.497 267.846C291.811 266.033 290.699 264.22 291.053 262.054C290.294 263.213 289.486 263.716 288.727 264.321C286.705 267.896 283.672 270.616 281.145 273.739C279.072 276.257 276.544 278.322 274.219 280.488C271.843 282.704 268.76 284.265 265.828 285.826C262.643 287.589 259.61 289.755 256.021 290.611C252.381 291.467 249.045 293.18 245.304 294.036C240.653 295.043 235.952 295.597 231.251 295.597C226.044 295.547 220.787 295.345 215.58 294.388C213.305 293.985 211.182 292.676 208.654 293.129C207.694 293.28 206.076 292.676 206.228 290.964C206.278 290.309 205.823 290.51 205.672 290.611C202.79 292.122 200.465 290.007 198.241 289.1C193.742 287.287 189.596 284.618 185.805 281.495C183.682 279.783 181.609 277.969 179.385 276.358C177.919 275.3 177.313 273.588 177.11 271.069C176.453 272.983 175.796 273.487 175.038 272.026C173.521 269.156 170.589 267.342 169.073 264.421C168.87 264.069 168.062 263.364 167.404 263.666C166.697 263.968 167.202 264.673 167.202 265.177C167.253 266.436 165.888 267.745 167.657 268.853C158.255 271.472 148.852 270.616 139.551 270.918C141.674 268.199 144.201 265.731 145.769 262.709C147.285 259.737 149.459 257.068 150.369 253.794C150.571 253.14 151.279 252.636 151.734 252.032C154.666 251.075 157.699 250.823 160.984 250.873C158.507 243.218 155.98 235.361 156.435 226.95C156.435 224.079 155.98 221.108 156.637 218.438C157.092 216.575 156.536 215.064 156.688 213.402C157.193 210.279 158.002 207.207 158.962 204.236C161.288 197.184 163.714 190.385 168.062 184.09C172.156 178.147 176.807 173.009 182.216 168.325C186.968 164.196 192.073 161.073 197.735 158.353C201.981 156.288 206.026 154.374 210.777 153.669C212.597 153.418 214.468 152.612 216.389 152.209C220.18 151.453 224.072 151.604 227.864 151.302C234.233 150.799 240.198 152.561 246.365 152.914C249.398 153.115 252.381 154.576 255.313 155.684C258.447 156.842 261.531 158.253 264.362 159.915C269.316 162.836 274.118 166.059 278.162 170.239C281.448 173.563 284.986 176.686 287.413 180.715C290.547 185.852 294.086 190.788 296.361 196.479C297.473 199.199 298.029 202.12 299.343 204.739C299.747 205.545 300.708 206.955 298.989 207.711C298.736 207.811 298.484 208.013 298.686 208.265C300.86 210.833 299.545 214.208 300.708 216.978C300.506 222.065 302.427 227.101 301.264 232.188C301.011 237.98 299.849 243.57 297.523 248.909C297.068 250.017 297.523 250.319 298.585 250.521C300.506 250.873 302.376 251.125 304.297 251.175C305.207 251.327 306.117 251.024 306.622 251.981Z" fill="#FDFFB6"/>
<path d="M438.207 255.608C435.932 254.902 433.354 255.456 431.231 253.845C430.27 253.14 429.158 252.636 429.158 251.276C429.209 249.664 430.321 248.708 431.635 248.053C432.798 247.448 434.213 247.297 435.629 246.189C433.152 245.736 430.978 245.383 428.754 244.981C428.248 244.88 427.743 244.93 427.288 244.779C425.771 244.225 424.154 243.218 424.305 241.606C424.406 239.944 425.771 238.735 427.591 238.232C429.512 237.678 431.534 237.375 433.505 237.224C434.365 237.124 435.174 237.073 436.033 236.419C432.899 235.613 430.017 234.706 427.035 234.102C425.518 233.8 424.406 232.792 423.244 232.087C422.384 231.533 421.323 230.173 422.03 228.612C422.738 227 424.002 226.396 425.721 226.144C430.068 225.489 434.365 226.446 439.47 226.446C435.679 224.583 432.141 223.676 429.158 221.712C427.894 220.906 426.125 220.554 426.479 218.489C426.833 216.424 428.349 216.071 430.169 215.819C434.112 215.265 437.954 215.517 441.796 216.273C443.464 216.625 444.071 216.222 443.464 214.51C442.099 210.783 441.998 206.905 442.352 203.027C443.161 200.106 444.677 197.789 448.014 196.832C450.743 206.401 455.9 215.416 455.546 225.892C454.686 227.101 453.423 226.497 452.361 226.497C451.35 226.497 450.39 226.195 449.075 226.497C451.148 227.907 453.827 226.799 455.445 228.612C455.293 230.274 455.192 231.936 455.04 233.598C454.08 234.908 452.664 234.555 451.35 234.656C450.339 234.706 449.378 234.656 448.317 234.908C450.44 235.663 452.917 234.958 454.838 236.419C454.889 238.131 454.686 239.793 454.181 241.455C453.473 243.067 451.502 242.059 450.541 243.117C451.047 243.923 452.462 243.167 452.715 244.376C453.423 245.635 452.462 246.592 452.108 247.65C450.288 253.14 445.992 254.953 440.684 255.406C439.824 255.356 439.016 255.507 438.207 255.608Z" fill="#FDFFB6"/>
<path d="M15.2442 200.911C16.4069 205.293 16.1036 209.625 14.7387 213.906C14.2837 215.316 13.8288 216.222 16.2552 216.021C20.1476 215.668 24.0401 214.762 27.9831 215.87C29.5502 216.323 31.4711 216.474 31.5722 218.438C31.6733 220.151 30.0557 221.208 28.6402 221.813C26.3149 222.77 24.1917 224.13 21.7147 224.684C21.1587 224.784 20.6026 225.087 20.4004 225.943C23.5851 225.943 26.6687 225.993 29.8029 225.892C31.2689 225.842 32.6843 226.043 33.9987 226.597C36.324 227.554 36.6779 229.871 34.858 231.634C31.9261 234.454 28.0842 235.109 24.2423 235.462C22.7258 235.613 21.2092 235.713 19.2883 236.016C21.0576 236.973 22.5236 236.922 23.9895 237.023C26.3654 237.174 28.6402 237.577 30.8645 238.332C32.1788 238.786 33.2404 239.592 33.4426 241.102C33.5943 242.714 32.6338 243.52 31.37 244.225C29.7018 245.081 27.9325 245.434 26.0621 245.585C24.95 245.686 23.6357 245.283 22.6247 246.34C24.3434 247.297 26.3149 247.801 27.7809 249.211C29.4996 250.873 29.348 252.435 27.3259 253.744C24.8995 255.356 22.018 255.054 19.3894 255.608C16.8618 254.902 14.1321 255.104 11.6045 253.996C8.26813 252.485 6.19553 250.067 5.03285 246.743C4.72954 245.938 4.47679 245.182 4.17348 244.376C4.8812 242.513 6.80214 244.124 7.86372 243.067C6.75159 241.707 4.62844 243.319 3.66797 241.657C3.56687 239.944 3.61742 238.232 3.11191 236.62C4.12293 235.311 5.58891 235.462 6.9538 235.311C7.81317 235.21 8.77364 235.562 9.63301 234.706C8.31868 234.152 7.10545 234.555 5.89222 234.656C4.7801 234.757 3.56687 235.109 2.65695 234.001C3.26356 232.238 2.30309 230.425 2.65695 228.662C3.31411 227.403 4.62844 227.605 5.74057 227.303C6.70104 227.051 7.71206 227.101 8.92529 226.245C7.30765 225.943 6.19553 226.497 4.9823 226.648C4.17348 226.749 3.21301 227.454 2.55584 226.295C2.45474 222.316 2.85915 218.438 4.12293 214.611C5.79112 209.625 7.2571 204.538 8.97584 199.552C10.0374 196.479 11.4528 196.328 13.7782 198.746C14.3848 199.3 14.7387 200.156 15.2442 200.911Z" fill="#FDFFB6"/>
<path d="M2.60622 233.951C4.57771 233.8 6.54921 233.648 8.57126 233.548C9.53173 233.497 10.8461 232.692 11.0988 234.505C11.3516 236.519 9.68338 236.116 8.72291 236.116C6.80196 236.116 4.93157 236.318 3.06118 236.57C1.84795 235.865 1.64575 235.008 2.60622 233.951Z" fill="#3A377C"/>
<path d="M454.837 236.318C452.865 236.267 450.894 236.267 448.922 236.167C448.114 236.116 447.001 236.519 446.85 235.059C446.648 233.397 447.911 233.951 448.619 233.9C450.742 233.699 452.865 233.649 454.989 233.497C456.353 234.505 456.455 235.462 454.837 236.318Z" fill="#3A367B"/>
<path d="M455.393 228.511C453.32 228.259 451.298 228.008 449.226 227.756C448.366 227.655 447.659 227.504 447.76 226.295C447.861 225.036 448.67 225.389 449.327 225.439C451.399 225.54 453.421 225.691 455.443 225.792C456.404 226.698 455.949 227.605 455.393 228.511Z" fill="#3C387D"/>
<path d="M2.50602 226.245C4.37642 225.842 6.19626 225.439 8.06665 225.087C8.82492 224.935 9.78539 224.482 10.0381 225.792C10.2909 226.9 9.93704 227.504 8.72382 227.655C6.65122 227.957 4.62917 228.31 2.55657 228.662C2.05106 227.857 1.64665 227.051 2.50602 226.245Z" fill="#39377C"/>
<path d="M288.727 264.27C289.535 262.759 290.243 261.248 292.063 260.191C291.911 262.105 291.305 263.867 292.215 265.529C292.72 266.486 291.709 266.889 291.305 267.292C290.294 268.299 291.254 268.652 291.709 269.256C290.294 269.357 288.878 269.458 290.041 267.292C290.799 265.832 290.243 264.774 288.727 264.27Z" fill="#F5AC90"/>
<path d="M3.61807 241.606C5.08405 241.606 6.55004 241.656 8.01602 241.606C9.02704 241.556 9.3809 241.959 9.33035 242.916C9.2798 243.721 9.12815 244.376 8.06657 244.376C6.75224 244.376 5.43791 244.376 4.12358 244.326C2.60705 243.671 2.9609 242.664 3.61807 241.606Z" fill="#474281"/>
<path d="M452.663 244.275C451.753 243.923 450.894 244.376 449.984 244.477C449.327 244.527 448.821 244.326 448.771 243.621C448.72 242.966 448.568 242.412 449.529 242.11C451.045 241.606 452.663 241.757 454.179 241.405C455.898 243.47 454.483 243.973 452.663 244.275Z" fill="#413C7D"/>
<path d="M147.083 234.505C145.263 232.037 147.083 229.569 147.235 227.151C147.791 217.633 146.224 208.668 142.736 199.753C139.349 191.09 134.193 183.838 127.57 177.593C118.067 168.678 106.592 163.843 93.701 161.677C84.7029 160.166 76.0587 161.224 67.465 163.289C62.1571 164.548 57.1526 167.066 52.4007 170.038C44.4137 175.074 37.3871 180.917 32.5341 189.076C28.6923 195.422 25.0526 201.868 23.6877 209.272C23.5866 209.826 24.0921 210.884 23.0811 210.833C22.2217 210.833 21.7162 209.927 21.514 209.171C21.3623 208.668 21.6656 208.013 21.8173 207.459C23.9404 199.149 27.6307 191.493 32.8374 184.694C37.286 178.852 42.1389 173.412 48.9127 169.887C52.6535 167.973 56.0404 165.404 59.9834 163.793C65.4935 161.476 71.1047 159.713 77.0192 159.209C82.5798 158.706 88.2415 158.555 93.8021 159.26C98.8067 159.915 103.559 161.577 108.361 163.138C115.084 165.354 120.847 169.182 126.205 173.614C132.373 178.751 137.428 184.795 141.421 191.846C145.87 199.703 148.498 208.013 149.51 216.927C149.914 220.705 149.914 224.482 149.156 228.209C148.852 229.72 149.408 231.181 148.802 232.641C148.347 233.447 148.448 234.555 147.083 234.505Z" fill="#FAF3E8"/>
<path d="M147.082 234.454C147.79 240.347 145.818 245.484 142.735 250.42C141.875 251.78 141.724 253.643 140.814 255.205C137.932 260.392 134.545 265.177 130.198 269.206C122.211 276.61 113.314 282.603 102.698 285.575C98.6036 286.733 94.3067 287.992 90.111 287.388C87.2801 286.985 84.9547 288.596 82.225 287.942C79.4952 287.287 76.6138 287.337 73.9346 286.632C69.4861 285.423 64.4815 286.078 60.6902 282.804C51.5404 280.79 44.8677 274.796 38.3466 268.702C35.263 265.832 32.5837 262.407 30.41 258.73C30.1067 258.176 28.9946 257.672 30.2584 256.867C31.32 256.162 31.7749 256.867 32.2804 257.471C34.1508 259.889 35.8696 262.457 37.8916 264.824C44.0083 271.875 51.4899 277.164 60.033 280.941C65.0376 283.157 70.396 283.963 75.7544 284.869C80.1524 285.575 84.4998 285.524 88.8977 285.272C91.2231 285.121 93.5484 284.92 95.8232 284.668C104.013 283.711 111.292 280.236 118.066 275.904C121.756 273.537 125.092 270.667 128.429 267.745C132.726 263.968 135.708 259.335 138.893 254.751C140.713 252.082 141.572 248.808 142.937 245.837C144.403 242.563 145.01 239.038 146.273 235.663C146.374 235.26 146.779 234.908 147.082 234.454C147.082 234.505 147.082 234.454 147.082 234.454Z" fill="#F9F2E8"/>
<path d="M93.498 174.671C90.8188 190.184 88.2407 205.293 85.6121 220.403C83.3878 213.704 85.9659 207.509 86.6231 201.113C87.1286 196.076 88.7968 191.191 89.1001 186.054C89.3023 182.428 90.3639 178.902 91.2232 174.571C89.8584 176.333 89.0495 177.492 88.1396 178.65C87.6846 179.204 87.3308 180.01 86.3703 179.255C85.4604 178.55 85.6626 177.945 86.2692 177.139C88.2913 174.47 90.2122 171.75 92.2343 169.081C93.0431 167.973 93.7002 167.52 94.3574 169.333C95.4695 172.556 96.7839 175.729 97.9971 178.952C98.3509 179.809 98.4015 180.614 97.3399 181.017C96.1267 181.471 96.2278 180.413 95.975 179.758C95.1157 178.197 94.3574 176.585 93.498 174.671Z" fill="#F9F1E8"/>
<path d="M111.544 199.652C104.771 207.61 98.6539 215.316 91.4757 222.316C90.1614 220.251 91.7284 218.942 92.8911 217.683C98.6539 211.74 103.659 205.142 109.219 199.048C109.421 198.796 109.624 198.544 110.281 197.688C108.056 198.645 106.388 199.35 104.72 200.055C104.012 200.357 103.355 200.66 102.9 199.552C102.496 198.595 102.9 198.141 103.709 197.789C106.793 196.53 109.876 195.17 112.96 193.961C114.931 193.206 115.791 193.86 114.982 195.825C113.819 198.746 113.819 201.868 113.01 204.84C112.859 205.444 112.909 206.3 112.151 206.552C111.747 206.703 111.14 206.653 110.685 206.502C110.129 206.3 110.533 205.847 110.584 205.444C110.938 203.782 111.191 202.019 111.544 199.652Z" fill="#F9F1E8"/>
<path d="M83.1853 234.001C79.7983 233.951 77.5741 231.634 77.6752 228.259C77.7763 225.238 80.1522 223.072 83.2358 223.072C86.5722 223.022 88.5943 225.489 88.6954 229.116C88.7965 231.835 86.1172 234.102 83.1853 234.001Z" fill="#FAF2E8"/>
<path d="M60.689 208.919C64.2276 209.272 66.553 212.193 68.2717 215.668C69.0805 217.33 69.6872 219.093 69.7883 220.957C69.8388 221.762 69.586 222.468 68.575 222.518C67.5134 222.568 67.4123 221.964 67.2607 221.108C66.6035 217.431 65.2386 214.057 61.7506 212.143C59.5769 210.934 56.1394 211.589 54.724 213.553C53.4602 215.316 51.7415 216.726 50.781 218.741C50.4271 219.496 49.77 219.597 49.1128 219.143C48.5568 218.791 48.1523 218.438 48.4051 217.532C49.77 213.049 55.4317 208.718 60.689 208.919Z" fill="#34337B"/>
<path d="M111.242 217.935C114.376 217.683 116.246 219.899 118.016 222.115C119.734 224.281 120.29 226.95 120.948 229.519C121.2 230.476 120.948 231.382 119.684 231.483C118.319 231.634 118.622 230.727 118.471 229.871C117.763 226.245 116.398 222.971 112.961 221.108C110.585 219.798 107.198 220.604 105.58 222.82C104.417 224.432 102.8 225.741 101.94 227.605C101.587 228.36 100.98 228.511 100.272 228.058C99.7162 227.705 99.2106 227.454 99.4634 226.497C100.727 222.266 106.541 217.834 111.242 217.935Z" fill="#34337B"/>
<path d="M81.2141 254.147C76.6139 254.55 72.9237 250.974 71.205 247.6C70.75 246.693 71.205 246.139 71.9632 245.786C72.7215 245.383 73.1765 245.686 73.5303 246.441C73.8842 247.197 74.3897 247.902 74.9457 248.456C78.8887 252.485 81.8207 252.636 86.3198 249.06C87.1286 248.456 87.7352 247.297 88.9484 248.708C90.1616 250.168 88.7968 250.672 88.089 251.276C85.9659 252.938 83.9438 254.55 81.2141 254.147Z" fill="#34337B"/>
<path d="M429.005 255.96C426.933 259.687 424.607 263.112 421.878 266.184C416.266 272.53 409.846 277.818 402.011 281.243C400.949 281.696 399.938 282.905 398.574 281.747C398.422 281.646 397.815 281.848 397.714 282.049C396.046 285.474 392.406 284.718 389.626 285.726C385.734 287.136 381.386 286.531 377.443 287.992C376.23 288.445 374.612 287.841 373.197 287.891C361.621 287.992 350.853 285.222 340.844 279.229C335.89 276.257 331.593 272.732 327.499 268.702C319.158 260.443 313.546 250.773 310.665 239.44C309.25 233.9 308.138 228.259 308.441 222.568C308.845 214.157 310.463 205.998 313.597 198.041C316.832 189.882 322.292 183.385 328.004 177.24C334.829 169.887 343.624 165.253 353.128 161.879C361.924 158.756 370.922 158.454 379.971 158.958C386.694 159.31 393.114 161.426 399.281 164.145C404.488 166.412 409.391 169.182 413.789 172.758C424.961 181.823 432.999 192.954 435.729 207.358C435.931 208.365 436.032 209.423 436.083 210.43C436.133 210.833 436.942 211.186 436.184 211.589C435.678 211.841 435.173 211.689 434.869 211.186C434.566 210.682 433.959 210.078 434.06 209.675C434.414 207.963 433.605 206.603 433.201 205.092C430.674 196.177 426.124 188.471 419.957 181.521C413.84 174.571 406.51 169.383 398.119 165.757C386.087 160.62 373.652 159.612 360.761 162.231C356.111 163.188 351.763 164.598 347.517 166.462C339.985 169.836 333.009 174.319 327.65 180.514C322.949 185.903 318.5 191.644 315.72 198.343C313.445 203.833 312.434 209.675 311.423 215.568C309.755 225.54 311.373 235.008 314.406 244.326C315.922 249.01 318.399 253.442 321.129 257.622C324.162 262.256 328.105 266.033 331.947 269.911C337.407 275.451 344.079 279.279 351.055 281.898C359.245 284.97 367.94 286.783 376.938 285.625C384.015 284.718 390.89 283.258 397.512 280.488C400.646 279.178 403.881 277.869 406.813 276.358C409.846 274.796 412.677 272.127 415.306 269.609C418.794 266.234 422.08 262.759 424.658 258.579C425.467 257.219 426.427 255.356 429.005 255.96Z" fill="#617CEB"/>
<path d="M366.928 175.729C368.698 189.932 372.034 203.732 373.753 217.884C371.832 217.683 371.731 217.683 371.478 216.273C370.669 211.841 370.315 207.308 369.153 202.976C367.434 196.63 366.878 190.083 365.513 183.687C365.008 181.32 364.654 178.902 363.946 176.485C363.542 177.945 363.137 179.456 362.733 180.917C362.48 181.722 362.076 182.276 361.065 181.974C360.205 181.722 360.205 181.068 360.407 180.363C361.418 176.938 362.429 173.463 363.44 170.038C363.744 169.081 364.148 168.678 364.957 169.635C367.333 172.405 369.759 175.175 372.186 177.995C372.742 178.65 372.843 179.355 372.135 179.96C371.074 180.866 370.871 179.658 370.467 179.204C369.203 178.147 368.091 176.938 366.928 175.729Z" fill="#607BE9"/>
<path d="M347.213 257.169C348.73 256.867 350.246 256.564 351.813 256.262C352.471 256.162 353.229 256.01 353.33 257.018C353.431 257.773 353.128 258.378 352.369 258.579C348.78 259.435 345.242 260.342 341.653 260.997C340.642 261.198 339.883 260.342 340.591 259.183C342.36 256.111 343.371 252.737 344.736 249.513C345.09 248.657 345.444 247.952 346.556 248.456C347.719 248.959 346.96 249.664 346.758 250.319C346.253 251.78 345.798 253.291 345.141 255.255C349.134 252.384 352.167 249.161 355.251 246.089C358.587 242.765 362.025 239.642 365.563 236.57C366.17 236.016 366.928 235.159 367.686 235.915C368.546 236.771 367.484 237.426 366.928 237.98C360.963 243.621 354.998 249.262 349.033 254.852C348.325 255.507 347.517 256.061 346.758 256.665C346.91 256.816 347.062 256.967 347.213 257.169Z" fill="#607CEA"/>
<path d="M374.664 234.001C371.378 233.9 369.052 231.483 369.154 228.159C369.204 225.641 371.984 222.921 374.36 222.971C377.848 223.072 380.174 224.935 380.174 229.418C380.174 232.087 377.697 234.102 374.664 234.001Z" fill="#617CEB"/>
<path d="M347.67 217.784C351.562 217.985 357.578 222.619 358.69 226.245C358.942 227.151 358.74 227.806 357.729 228.259C356.516 228.763 356.668 227.806 356.314 227.202C354.191 223.827 351.714 220.906 347.417 220.503C345.091 220.302 342.261 222.518 341.705 224.835C341.199 226.849 339.986 228.612 339.885 230.727C339.885 231.483 339.177 231.584 338.57 231.483C338.014 231.382 337.458 231.332 337.256 230.576C335.942 225.59 342.513 217.532 347.67 217.784Z" fill="#F8F1E7"/>
<path d="M398.523 208.718C402.163 208.668 408.583 213.553 409.796 217.23C410.099 218.136 409.948 218.841 408.937 219.244C407.825 219.748 407.825 218.892 407.42 218.237C405.398 214.963 403.022 211.992 398.826 211.589C396.097 211.337 393.519 213.402 392.76 216.071C392.255 217.985 391.143 219.697 390.991 221.712C390.94 222.468 390.334 222.568 389.677 222.518C389.121 222.417 388.565 222.367 388.362 221.611C387.25 216.877 393.62 208.768 398.523 208.718Z" fill="#F8F0E7"/>
<path d="M376.433 254.197C374.006 254.097 371.479 252.938 369.305 250.974C368.496 250.269 368.092 249.614 369.002 248.657C369.912 247.7 370.265 248.355 370.923 249.01C372.894 250.873 377.09 252.686 380.628 250.571C382.297 249.614 383.004 247.851 384.015 246.391C384.622 245.484 385.077 245.333 385.987 245.736C386.947 246.189 386.846 246.794 386.543 247.6C385.128 251.427 380.881 254.348 376.433 254.197Z" fill="#F8F0E7"/>
<path d="M164.32 223.676C164.017 219.597 164.37 215.416 165.23 211.337C166.999 203.43 169.779 195.976 174.076 188.975C178.474 181.773 184.641 176.535 191.112 171.398C200.969 163.49 212.445 160.066 224.779 158.958C233.929 158.101 242.876 159.612 251.47 162.634C256.323 164.347 260.974 166.764 265.22 169.786C269.618 172.909 273.864 176.233 277.403 180.262C286.805 190.99 292.821 203.127 293.377 217.683C293.478 220.1 292.821 222.468 293.023 224.583C293.276 227.202 293.124 229.619 292.871 232.188C292.568 234.857 291.911 237.325 291.052 239.894C290.445 241.707 290.445 243.923 289.636 245.837C287.008 252.082 284.632 258.478 279.374 263.263C277.959 264.522 277.15 266.386 275.836 267.846C271.539 272.58 266.585 276.408 261.125 279.631C256.576 282.351 251.672 284.265 246.516 285.423C245.657 285.625 244.646 286.431 243.786 285.222C243.584 284.92 243.079 285.021 242.876 285.323C240.45 288.445 236.861 287.035 233.828 287.539C229.935 288.244 225.942 286.884 221.999 287.69C220.583 287.992 219.269 287.035 217.854 286.834C212.546 285.977 207.288 284.819 202.435 282.452C197.178 279.883 192.072 277.113 187.624 273.134C184.439 270.264 181.305 267.443 178.676 264.018C169.577 252.183 164.168 238.937 164.32 223.676Z" fill="#F0683B"/>
<path d="M166.544 227.504C166.291 220.403 166.089 214.359 167.909 208.97C170.487 201.163 172.964 193.155 178.423 186.507C183.226 180.614 188.584 175.377 194.852 171.096C201.475 166.563 208.906 163.843 216.691 162.181C224.172 160.62 231.755 160.67 239.337 161.879C244.999 162.785 250.509 164.044 255.665 166.663C264.057 170.894 271.741 176.132 277.605 183.586C283.772 191.544 288.524 200.206 290.344 210.279C290.95 213.603 291.607 216.776 291.152 220.201C290.95 221.813 292.467 223.424 291.86 225.338C290.647 229.116 290.9 233.145 289.939 237.023C289.383 239.239 288.018 241.354 288.372 243.873C288.524 244.93 287.159 246.139 286.653 247.398C283.671 254.751 279.02 260.946 273.611 266.738C268.253 272.429 261.984 276.61 255.16 280.186C250.711 282.502 245.707 283.157 240.854 284.265C232.715 286.078 224.425 286.129 216.236 284.567C212.09 283.761 208.097 282.502 204.204 280.689C199.301 278.423 194.6 275.905 190.404 272.48C184.034 267.393 179.03 261.248 174.834 254.248C172.458 250.269 170.638 246.139 169.324 241.808C167.757 236.822 166.19 231.634 166.544 227.504Z" fill="#FDFFB6"/>
<path d="M227.054 177.139C226.245 178.701 225.538 179.909 224.931 181.168C224.577 181.874 224.274 182.327 223.415 181.773C222.808 181.37 222.302 181.017 222.757 180.161C224.476 176.837 225.74 173.261 227.813 170.088C228.369 169.232 228.722 169.333 229.228 170.189C231.098 173.362 232.969 176.535 234.839 179.658C235.345 180.514 235.294 181.219 234.334 181.722C233.019 182.377 233.272 181.118 232.918 180.614C231.958 179.255 231.048 177.844 229.936 176.182C229.683 176.938 229.279 177.492 229.329 178.046C229.683 183.737 229.784 189.378 229.531 195.069C229.329 200.206 230.087 205.344 229.936 210.531C229.885 212.697 229.733 214.862 229.481 217.028C229.43 217.381 229.885 218.489 228.52 218.287C227.509 218.136 227.813 217.683 227.711 217.028C227.105 213.956 227.56 210.884 227.661 207.811C227.813 203.48 226.953 199.149 227.256 194.817C227.61 189.831 227.004 184.845 227.509 179.859C227.56 179.053 227.358 178.298 227.054 177.139Z" fill="#F06A3D"/>
<path d="M234.131 237.174C237.72 237.527 239.641 240.196 241.714 242.513C245.909 247.247 250.004 252.082 254.149 256.917C254.351 257.169 254.452 257.521 254.604 257.824C254.806 257.672 255.008 257.572 255.211 257.421C254.705 255.859 254.25 254.298 253.795 252.737C253.543 251.931 253.189 251.125 254.452 250.773C255.463 250.521 255.817 251.075 256.07 251.83C257.081 255.255 258.446 258.579 259.103 262.105C259.356 263.313 259.154 263.616 257.89 263.213C254.452 262.105 251.015 261.097 247.577 260.09C246.668 259.838 246.01 259.385 246.364 258.327C246.819 256.816 247.628 257.924 248.285 258.075C249.701 258.378 251.167 258.68 253.239 259.133C246.516 251.478 240.349 244.326 234.131 237.174Z" fill="#F06A3D"/>
<path d="M228.873 234.001C225.537 233.9 223.262 231.483 223.413 228.108C223.515 225.59 226.093 222.82 228.367 222.921C232.108 223.122 234.332 224.633 234.484 229.116C234.585 231.886 231.906 234.102 228.873 234.001Z" fill="#F0693C"/>
<path d="M265.977 224.13C266.028 224.935 265.522 225.338 264.612 225.439C263.551 225.59 263.703 224.835 263.5 224.18C262.085 220.554 260.215 217.28 256.17 216.071C253.643 215.366 250.66 216.927 249.548 219.244C248.689 221.108 247.273 222.719 246.717 224.734C246.515 225.489 245.858 225.489 245.302 225.238C244.796 225.036 244.24 224.835 244.19 224.079C243.785 217.733 252.227 211.488 258.192 213.805C261.327 215.165 266.078 221.309 265.977 224.13Z" fill="#36347B"/>
<path d="M214.112 223.676C213.961 224.532 213.91 225.238 212.899 225.439C211.686 225.691 211.838 224.885 211.585 224.18C210.119 220.604 208.299 217.28 204.204 216.122C201.576 215.366 198.745 216.978 197.481 219.496C196.622 221.259 195.257 222.77 194.802 224.734C194.6 225.489 193.993 225.59 193.437 225.338C192.881 225.086 192.224 224.986 192.274 224.029C192.426 220.05 198.088 213.956 202.182 213.352C204.912 212.949 206.985 214.057 209.007 215.668C211.585 217.834 212.849 220.805 214.112 223.676Z" fill="#36347B"/>
<path d="M226.75 254.399C224.829 254.147 222.049 252.283 219.875 249.463C219.218 248.607 219.673 248.002 220.532 247.448C221.644 246.693 221.695 247.7 222.15 248.254C224.172 250.621 227.559 252.686 231.148 251.578C233.12 250.974 234.08 249.211 235.445 247.952C236.153 247.297 236.557 246.794 237.467 247.499C238.529 248.305 238.175 248.959 237.568 249.765C235.243 252.888 232.361 254.701 226.75 254.399Z" fill="#36347B"/>
</g>
<defs>
<clipPath id="clip0">
<rect width="63.9114" height="51" fill="white" transform="translate(188 5.00003)"/>
</clipPath>
<clipPath id="clip1">
<rect width="35" height="27.9293" fill="white" transform="translate(217.08 86) rotate(32.6805)"/>
</clipPath>
<clipPath id="clip2">
<rect width="69.2986" height="77.0586" fill="white" transform="translate(125 82.8518) rotate(-9.84753)"/>
</clipPath>
<clipPath id="clip3">
<rect width="75" height="53" fill="white" transform="translate(276 320)"/>
</clipPath>
<clipPath id="clip4">
<rect width="73.493" height="89.0396" fill="white" transform="translate(70.1855 342.394) rotate(-110.873)"/>
</clipPath>
<clipPath id="clip5">
<rect width="454" height="145" fill="white" transform="translate(2 151)"/>
</clipPath>
</defs>
</svg>
