<svg width="486" height="406" viewBox="0 0 486 406" fill="none" xmlns="http://www.w3.org/2000/svg">
<path fill-rule="evenodd" clip-rule="evenodd" d="M333.01 174.273C350.698 198.885 359.132 234.155 346.913 261.88C334.853 289.245 299.989 295.623 273.46 309.395C252.01 320.531 231.271 331.394 207.286 334.367C180.859 337.642 152.999 340.085 129.672 327.216C105.067 313.642 85.1544 290.326 78.1201 263.109C71.3348 236.855 84.9352 211.06 92.9597 185.167C100.907 159.522 105.163 131.779 124.565 113.238C145.245 93.4758 173.801 75.5001 201.852 81.1073C229.493 86.6326 236.478 123.874 259.466 140.204C282.048 156.244 316.841 151.775 333.01 174.273Z" fill="#F5F6B5"/>
<g clip-path="url(#clip0)">
<path d="M17.5446 94.1345C16.6148 94.7908 17.1953 96.029 17.0062 97.152C16.9083 97.6234 16.8104 98.0949 16.7125 98.5663C16.5346 98.574 16.3989 98.5906 16.2209 98.5983C16.0163 97.8853 15.7605 97.2063 15.6827 96.5196C15.3847 93.2836 15.2647 90.04 14.9156 86.8381C14.7688 85.4218 14.3596 83.9957 13.9414 82.6124C13.2853 80.4645 11.0475 79.7763 9.30359 79.6824C8.99884 79.6638 8.67407 79.954 8.28256 80.1409C7.78209 79.3664 7.01911 79.4315 6.18716 79.6164C5.54207 79.7507 4.89698 79.885 4.25413 79.7962C3.90711 79.7688 3.6491 79.3129 3.34658 79.0713C3.6113 78.858 3.81818 78.4986 4.09846 78.4227C5.44871 78.0772 6.82341 77.8262 8.20702 77.5324C12.9696 76.4649 15.5968 72.0929 15.6681 67.5031C15.7016 65.0066 15.6505 62.4925 15.7351 59.9619C15.7396 59.5158 16.1667 59.1575 16.4247 58.764C16.6071 59.1595 16.8918 59.4869 16.9385 59.8989C17.2877 62.2513 17.3988 64.6885 17.986 66.9562C18.9557 70.7787 22.3034 73.9773 26.6254 74.6065C26.879 74.6592 27.1593 74.5833 27.3528 74.7129C27.7821 74.9808 28.1514 75.3257 28.5295 75.6278C28.1869 76.0037 27.9111 76.4829 27.5107 76.7127C25.9513 77.6406 24.234 78.2675 22.817 79.3591C19.2067 82.0964 17.5249 85.9494 17.2177 90.4008C17.1955 90.9327 17.1221 91.4986 17.1421 92.0392C17.2288 92.6831 17.4089 93.3016 17.5446 94.1345ZM10.6405 78.1271C12.3867 78.8473 14.2441 79.4565 14.987 81.399C15.5964 83.1349 16.0612 84.9302 16.5194 86.5453C17.0578 84.3772 17.9432 82.2364 19.5782 80.5195C21.2043 78.8454 23.0062 77.3867 24.5277 76.0038C23.2398 75.2 21.6383 74.4203 20.4215 73.2736C19.1625 72.1181 18.2461 70.5866 17.1495 69.286C15.5923 74.2378 15.352 74.5456 10.6405 78.1271Z" fill="black"/>
</g>
<path d="M173.508 349.64C174.208 349.148 174.951 348.717 175.786 348.487C176.197 348.096 176.723 347.821 177.043 347.329C177.156 347.156 177.338 347.118 177.522 347.089C178.544 346.914 179.317 346.347 180 345.59C180.332 345.221 180.866 345.058 181.174 344.649C181.714 343.922 182.361 343.347 183.145 342.902C183.378 342.774 183.596 342.553 183.727 342.326C184.116 341.641 184.672 341.179 185.358 340.811C185.802 340.573 186.078 340.11 186.415 339.745C186.714 339.413 187.05 339.138 187.465 338.996C188.614 338.599 189.167 337.675 189.413 336.6C189.533 336.086 189.74 335.768 190.156 335.561C190.751 335.256 191.171 334.789 191.488 334.213C191.22 333.636 190.618 333.598 190.126 333.378C189.583 333.831 189.22 334.401 188.963 335.049C188.829 335.381 188.658 335.567 188.224 335.614C187.414 335.704 186.82 336.248 186.335 336.879C186.182 337.076 186.018 337.29 185.947 337.524C185.743 338.181 185.264 338.586 184.761 338.991C184.402 339.276 184.082 339.603 183.829 339.99C183.573 340.383 183.23 340.67 182.805 340.879C182.164 341.204 181.602 341.636 181.183 342.228C180.98 342.515 180.727 342.738 180.378 342.832C180.269 342.86 180.166 342.916 180.069 342.976C179.218 343.51 178.406 344.109 177.532 344.603C177.13 344.827 176.861 345.228 176.583 345.591C176.342 345.911 176.074 346.157 175.698 346.315C175.189 346.527 174.76 346.882 174.321 347.214C173.566 347.587 172.944 348.187 172.176 348.543C171.454 348.93 170.786 349.409 169.976 349.64C169.443 349.787 168.949 350.026 168.524 350.399C167.689 351.124 166.729 351.66 165.722 352.116C165.512 352.21 165.298 352.285 165.074 352.337C164.579 352.452 164.111 352.625 163.664 352.869C163.1 353.177 162.493 353.4 161.837 353.418C161.356 353.434 160.983 353.817 160.532 353.812C160.106 353.807 159.69 353.635 159.242 353.665C158.502 353.711 157.84 353.98 157.25 354.378C156.91 354.61 156.609 354.678 156.227 354.619C155.885 354.561 155.535 354.605 155.21 354.748C154.552 355.036 153.877 355.008 153.182 354.935C152.245 354.828 151.318 354.909 150.38 355.36C150.844 355.687 151.288 355.828 151.79 355.932C152.578 356.09 153.338 355.975 154.112 355.902C154.543 355.861 154.988 355.837 155.406 355.994C155.698 356.102 156.011 356.066 156.287 355.958C156.917 355.7 157.548 355.732 158.176 355.909C159.038 356.157 159.808 355.95 160.531 355.473C160.908 355.225 161.285 355.001 161.769 354.953C162.219 354.909 162.579 354.559 163.04 354.447C164.383 354.134 165.695 353.728 166.908 353.044C167.091 352.94 167.288 352.879 167.497 352.85C167.889 352.793 168.256 352.66 168.593 352.46C168.77 352.353 168.963 352.272 169.179 352.257C170.062 352.205 170.738 351.764 171.358 351.18C171.424 351.116 171.489 351.042 171.571 351.005C172.297 350.688 172.909 350.18 173.508 349.64Z" fill="#020A13"/>
<path d="M182.165 294.902C182.557 294.655 182.841 294.32 183.058 293.886C183.292 293.412 183.694 292.998 184.212 292.849C184.881 292.659 185.485 292.327 186.137 292.1C186.668 291.918 187.126 291.632 187.593 291.335C188.502 290.749 189.402 290.14 190.568 290.214C190.7 290.227 190.845 290.181 190.969 290.13C191.479 289.918 191.985 289.876 192.52 290.018C192.695 290.066 192.893 290.079 193.071 290.047C193.845 289.884 194.635 290.167 195.412 289.988C195.584 289.952 195.782 289.99 195.957 290.038C197.182 290.414 198.478 290.54 199.653 291.106C200.471 291.498 201.146 292.109 201.805 292.694C202.266 293.101 202.537 293.737 202.852 294.305C203.309 295.111 203.794 295.912 204.517 296.539C204.959 296.924 205.291 297.403 205.413 297.976C205.505 298.406 205.642 298.816 205.772 299.238C205.923 299.715 205.967 300.18 205.81 300.662C205.568 301.402 205.597 302.129 205.726 302.895C205.862 303.7 205.916 304.541 205.849 305.354C205.778 306.262 205.631 307.171 205.556 308.085C205.534 308.334 205.468 308.587 205.308 308.796C205.1 309.064 205.04 309.371 205.01 309.696C204.925 310.662 204.572 311.56 204.288 312.478C204.064 313.188 203.754 313.867 203.785 314.669C203.806 315.333 203.584 315.979 203.018 316.442C202.754 316.657 202.575 316.944 202.4 317.251C201.944 318.04 201.694 318.956 201.056 319.644C200.995 319.712 200.939 319.799 200.922 319.887C200.783 320.734 200.154 321.396 200.005 322.245C199.942 322.583 199.754 322.922 199.46 323.183C199.162 323.45 198.992 323.825 198.945 324.214C198.888 324.696 198.695 325.105 198.429 325.476C198.033 326.033 197.542 326.52 197.27 327.167C197.192 327.363 196.99 327.47 196.818 327.581C196.67 327.682 196.5 327.753 196.441 327.945C196.624 328.146 196.867 328.139 197.079 328.195C197.575 328.32 198.057 328.493 198.412 328.872C198.77 329.261 199.229 329.468 199.688 329.676C200.566 330.065 201.506 330.306 202.29 330.89C202.497 331.041 202.786 331.105 203.075 331.104C203.505 331.103 203.954 331.098 204.368 331.285C205.038 331.589 205.72 331.859 206.376 332.195C206.691 332.358 207.001 332.478 207.358 332.462C207.896 332.434 208.413 332.515 208.881 332.81C209.026 332.905 209.172 332.934 209.344 332.897C210.211 332.72 211.079 332.996 211.955 332.882C212.305 332.838 212.698 332.945 213.011 333.148C213.283 333.326 213.56 333.357 213.868 333.302C214.358 333.209 214.838 333.283 215.277 333.51C215.497 333.628 215.704 333.664 215.938 333.61C216.37 333.504 216.806 333.557 217.241 333.56C217.972 333.566 218.709 333.461 219.44 333.631C219.504 333.648 219.576 333.613 219.643 333.599C220.809 333.278 222.011 333.36 223.196 333.315C224.216 333.27 225.198 333.118 226.189 332.914C226.778 332.795 227.289 332.378 227.896 332.386C228.607 332.395 229.282 332.208 229.962 332.115C230.885 331.991 231.809 331.941 232.697 331.604C232.947 331.512 233.207 331.442 233.459 331.334C234.186 331.017 234.848 330.558 235.683 330.442C236.251 330.367 236.848 330.212 237.283 329.721C237.554 329.42 237.957 329.32 238.352 329.297C239.163 329.256 239.807 328.925 240.333 328.321C240.562 328.058 240.845 327.839 241.188 327.757C241.905 327.581 242.481 327.19 243.024 326.712C243.335 326.437 243.735 326.293 244.116 326.137C244.259 326.082 244.449 326.033 244.554 326.2C244.666 326.371 244.504 326.505 244.414 326.619C244.153 326.943 243.824 327.207 243.462 327.408C242.957 327.689 242.503 328.019 242.131 328.476C241.834 328.843 241.465 329.105 240.992 329.21C240.16 329.385 239.449 329.779 238.833 330.358C238.509 330.666 238.139 330.878 237.659 330.854C237.331 330.839 237.058 330.966 236.761 331.118C236.235 331.394 235.748 331.76 235.159 331.904C234.299 332.11 233.377 332.055 232.577 332.523C232.501 332.564 232.394 332.576 232.307 332.57C231.795 332.533 231.37 332.742 230.964 333.022C230.582 333.292 230.137 333.455 229.665 333.395C229.357 333.36 229.126 333.449 228.898 333.621C228.535 333.887 228.113 334.041 227.669 334C226.995 333.932 226.345 334.044 225.696 334.141C223.993 334.384 222.291 334.653 220.572 334.745C220.39 334.759 220.192 334.745 220.025 334.686C219.726 334.574 219.452 334.602 219.15 334.66C218.17 334.847 217.179 334.771 216.198 334.668C215.844 334.628 215.523 334.575 215.195 334.699C214.746 334.869 214.286 334.891 213.843 334.735C213.541 334.629 213.263 334.637 212.969 334.734C212.422 334.914 211.879 334.898 211.349 334.686C211.131 334.602 210.912 334.533 210.685 334.526C210.258 334.511 209.869 334.399 209.517 334.153C209.263 333.972 208.99 333.91 208.672 333.967C208.186 334.054 207.702 333.986 207.284 333.69C207.044 333.526 206.767 333.42 206.505 333.455C205.731 333.553 205.021 333.199 204.255 333.195C203.801 333.196 203.346 333.057 202.974 332.741C202.466 332.304 201.917 331.931 201.214 331.869C201.082 331.857 200.947 331.786 200.833 331.72C200.162 331.317 199.4 331.094 198.752 330.656C198.472 330.466 198.141 330.366 197.791 330.295C197.268 330.185 196.786 329.963 196.494 329.46C196.402 329.31 196.251 329.187 196.108 329.078C195.686 328.762 195.682 328.768 195.303 329.197C194.888 329.1 194.704 328.774 194.544 328.424C194.026 328.079 193.591 327.632 193.105 327.25C192.654 326.891 192.144 326.609 191.742 326.2C191.472 325.917 191.17 325.746 190.809 325.643C190.085 325.436 189.545 325.011 189.201 324.335C189.012 323.965 188.794 323.642 188.426 323.395C188.111 323.182 187.835 322.896 187.584 322.584C187.054 321.928 186.551 321.23 185.936 320.666C185.29 320.074 184.825 319.318 184.122 318.788C183.884 318.608 183.721 318.338 183.634 318.042C183.5 317.602 183.195 317.297 182.85 317.015C182.24 316.52 181.813 315.921 181.74 315.108C181.702 314.672 181.626 314.244 181.444 313.838C180.958 312.773 180.439 311.745 179.744 310.783C179.075 309.846 178.77 308.693 178.664 307.563C178.594 306.834 178.57 306.111 178.389 305.401C178.227 304.761 178.241 304.145 178.533 303.519C178.918 302.7 179.124 301.838 179.11 300.923C179.099 300.332 179.313 299.813 179.592 299.295C179.96 298.604 180.318 297.915 180.761 297.273C180.921 297.04 180.968 296.765 181.047 296.504C181.26 295.861 181.562 295.283 182.165 294.902ZM180.915 299.685C180.813 300.121 180.656 300.513 180.438 300.898C179.978 301.694 179.854 302.518 180.202 303.403C180.451 304.034 180.517 304.693 180.375 305.367C180.265 305.904 180.328 306.414 180.591 306.898C180.601 306.921 180.611 306.944 180.619 306.957C180.82 307.384 181.359 309.94 181.401 310.42C181.515 311.753 181.894 312.995 182.939 313.913C183.658 314.545 184.179 315.253 184.348 316.211C184.412 316.556 184.609 316.849 184.869 317.084C185.239 317.415 185.446 317.846 185.711 318.249C186.268 319.104 186.744 320.022 187.535 320.734C188.196 321.328 188.965 321.82 189.46 322.594C189.573 322.774 189.781 322.835 189.982 322.908C190.822 323.24 191.507 323.759 191.897 324.605C192.027 324.887 192.231 325.069 192.513 325.219C192.953 325.456 193.316 325.823 193.739 326.099C194.11 326.34 194.504 326.521 194.886 326.72C195.195 326.88 195.268 326.755 195.392 326.514C195.836 325.642 196.241 324.729 196.873 323.987C197.482 323.28 198.026 322.547 198.544 321.764C199.02 321.045 199.414 320.264 199.948 319.583C200.043 319.463 200.108 319.3 200.15 319.146C200.301 318.611 200.504 318.109 200.803 317.637C201.071 317.226 201.195 316.756 201.216 316.267C201.258 315.266 201.554 314.405 202.3 313.68C202.684 313.304 202.723 312.687 202.887 312.169C203.167 311.297 203.394 310.416 203.642 309.54C203.69 309.366 203.81 309.181 203.785 309.016C203.634 308.045 204.005 307.159 204.168 306.236C204.247 305.786 204.107 305.316 204.267 304.869C204.578 303.985 204.588 303.07 204.583 302.153C204.579 301.969 204.585 301.808 204.445 301.643C203.956 301.062 203.706 300.381 203.651 299.63C203.642 299.492 203.653 299.335 203.594 299.222C203.208 298.51 203.18 297.768 203.184 296.964C203.189 296.424 202.867 295.803 202.438 295.385C201.978 294.938 201.493 294.516 200.98 294.15C199.832 293.404 198.693 292.63 197.522 291.919C197.12 291.674 196.633 291.547 196.146 291.535C195.839 291.525 195.55 291.461 195.269 291.36C194.566 291.109 193.85 291.03 193.103 291.113C192.844 291.142 192.603 291.208 192.382 291.319C192.134 291.446 191.868 291.512 191.591 291.546C191.43 291.565 191.253 291.557 191.118 291.625C190.14 292.126 189.044 292.212 188.006 292.5C187.161 292.733 186.461 293.249 185.946 293.926C185.385 294.673 184.767 295.267 183.812 295.428C183.507 295.477 183.389 295.697 183.309 295.933C183.1 296.546 182.685 296.993 182.176 297.369C182.003 297.495 181.857 297.631 181.75 297.808C181.402 298.405 181.072 299.014 180.915 299.685Z" fill="#020A13"/>
<rect x="37" y="84" width="396" height="230" rx="20" fill="#020A13"/>
<rect x="46.5" y="73.5" width="393" height="227" rx="18.5" fill="white" stroke="#020A13" stroke-width="3"/>
<line x1="83.5" y1="100" x2="83.5" y2="268" stroke="#020A13" stroke-dasharray="2 2"/>
<line x1="128.5" y1="100" x2="128.5" y2="268" stroke="#020A13" stroke-opacity="0.5" stroke-dasharray="2 2"/>
<line x1="173.5" y1="100" x2="173.5" y2="268" stroke="#020A13" stroke-opacity="0.5" stroke-dasharray="2 2"/>
<line x1="218.5" y1="100" x2="218.5" y2="268" stroke="#020A13" stroke-opacity="0.5" stroke-dasharray="2 2"/>
<line x1="263.5" y1="100" x2="263.5" y2="268" stroke="#020A13" stroke-opacity="0.5" stroke-dasharray="2 2"/>
<line x1="308.5" y1="100" x2="308.5" y2="268" stroke="#020A13" stroke-opacity="0.5" stroke-dasharray="2 2"/>
<line x1="353.5" y1="100" x2="353.5" y2="268" stroke="#020A13" stroke-opacity="0.5" stroke-dasharray="2 2"/>
<line x1="398.5" y1="100" x2="398.5" y2="268" stroke="#020A13" stroke-opacity="0.5" stroke-dasharray="2 2"/>
<line x1="83" y1="267.5" x2="408" y2="267.5" stroke="#020A13" stroke-dasharray="2 2"/>
<path d="M60.4 102.528V108H59.664V103.44L58.6 103.904L58.32 103.28L59.928 102.528H60.4ZM61.4223 105.264C61.4223 104.432 61.6276 103.747 62.0383 103.208C62.449 102.669 62.977 102.4 63.6223 102.4C64.2676 102.4 64.7956 102.672 65.2063 103.216C65.617 103.755 65.8223 104.437 65.8223 105.264C65.8223 106.085 65.617 106.771 65.2063 107.32C64.7956 107.859 64.2676 108.128 63.6223 108.128C62.977 108.128 62.449 107.859 62.0383 107.32C61.6276 106.771 61.4223 106.085 61.4223 105.264ZM65.0703 105.264C65.0703 104.635 64.937 104.117 64.6703 103.712C64.409 103.307 64.0596 103.104 63.6223 103.104C63.185 103.104 62.8356 103.307 62.5743 103.712C62.3076 104.117 62.1743 104.635 62.1743 105.264C62.1743 105.893 62.3076 106.413 62.5743 106.824C62.8356 107.224 63.185 107.424 63.6223 107.424C64.0596 107.424 64.409 107.221 64.6703 106.816C64.937 106.405 65.0703 105.888 65.0703 105.264ZM66.5239 105.264C66.5239 104.432 66.7292 103.747 67.1399 103.208C67.5505 102.669 68.0785 102.4 68.7239 102.4C69.3692 102.4 69.8972 102.672 70.3079 103.216C70.7185 103.755 70.9239 104.437 70.9239 105.264C70.9239 106.085 70.7185 106.771 70.3079 107.32C69.8972 107.859 69.3692 108.128 68.7239 108.128C68.0785 108.128 67.5505 107.859 67.1399 107.32C66.7292 106.771 66.5239 106.085 66.5239 105.264ZM70.1719 105.264C70.1719 104.635 70.0385 104.117 69.7719 103.712C69.5105 103.307 69.1612 103.104 68.7239 103.104C68.2865 103.104 67.9372 103.307 67.6759 103.712C67.4092 104.117 67.2759 104.635 67.2759 105.264C67.2759 105.893 67.4092 106.413 67.6759 106.824C67.9372 107.224 68.2865 107.424 68.7239 107.424C69.1612 107.424 69.5105 107.221 69.7719 106.816C70.0385 106.405 70.1719 105.888 70.1719 105.264ZM75.1374 102.272H76.0894V102.304L73.9614 104.76L76.2334 107.968V108H75.3294L73.4654 105.328L72.5854 106.344V108H71.8494V102.272H72.5854V105.224H72.6174L75.1374 102.272Z" fill="black"/>
<path d="M66.032 138.488C66.032 138.957 65.8533 139.347 65.496 139.656C65.1333 139.971 64.6933 140.128 64.176 140.128C63.6587 140.128 63.2187 139.971 62.856 139.656C62.4987 139.347 62.32 138.957 62.32 138.488C62.32 138.2 62.3973 137.939 62.552 137.704C62.7067 137.464 62.928 137.275 63.216 137.136V137.104C63.0027 136.965 62.8293 136.795 62.696 136.592C62.568 136.389 62.504 136.176 62.504 135.952C62.504 135.509 62.6613 135.139 62.976 134.84C63.2853 134.547 63.6853 134.4 64.176 134.4C64.6667 134.4 65.0667 134.547 65.376 134.84C65.6907 135.139 65.848 135.509 65.848 135.952C65.848 136.176 65.7813 136.389 65.648 136.592C65.52 136.795 65.3493 136.965 65.136 137.104V137.136C65.424 137.275 65.6453 137.464 65.8 137.704C65.9547 137.939 66.032 138.2 66.032 138.488ZM63.256 135.936C63.256 136.192 63.3413 136.4 63.512 136.56C63.6827 136.715 63.904 136.792 64.176 136.792C64.448 136.792 64.6693 136.715 64.84 136.56C65.0107 136.4 65.096 136.192 65.096 135.936C65.096 135.68 65.0107 135.477 64.84 135.328C64.6693 135.179 64.448 135.104 64.176 135.104C63.904 135.104 63.6827 135.179 63.512 135.328C63.3413 135.477 63.256 135.68 63.256 135.936ZM63.072 138.448C63.072 138.592 63.0987 138.723 63.152 138.84C63.2107 138.957 63.288 139.061 63.384 139.152C63.4853 139.237 63.6027 139.304 63.736 139.352C63.8693 139.4 64.016 139.424 64.176 139.424C64.336 139.424 64.4827 139.4 64.616 139.352C64.7493 139.304 64.864 139.237 64.96 139.152C65.0613 139.061 65.1387 138.957 65.192 138.84C65.2507 138.723 65.28 138.592 65.28 138.448C65.28 138.171 65.1733 137.941 64.96 137.76C64.7467 137.573 64.4853 137.48 64.176 137.48C63.8667 137.48 63.6027 137.573 63.384 137.76C63.176 137.947 63.072 138.176 63.072 138.448ZM66.7036 137.264C66.7036 136.432 66.9089 135.747 67.3196 135.208C67.7302 134.669 68.2582 134.4 68.9036 134.4C69.5489 134.4 70.0769 134.672 70.4876 135.216C70.8982 135.755 71.1036 136.437 71.1036 137.264C71.1036 138.085 70.8982 138.771 70.4876 139.32C70.0769 139.859 69.5489 140.128 68.9036 140.128C68.2582 140.128 67.7302 139.859 67.3196 139.32C66.9089 138.771 66.7036 138.085 66.7036 137.264ZM70.3516 137.264C70.3516 136.635 70.2182 136.117 69.9516 135.712C69.6902 135.307 69.3409 135.104 68.9036 135.104C68.4662 135.104 68.1169 135.307 67.8556 135.712C67.5889 136.117 67.4556 136.635 67.4556 137.264C67.4556 137.893 67.5889 138.413 67.8556 138.824C68.1169 139.224 68.4662 139.424 68.9036 139.424C69.3409 139.424 69.6902 139.221 69.9516 138.816C70.2182 138.405 70.3516 137.888 70.3516 137.264ZM75.3171 134.272H76.2691V134.304L74.1411 136.76L76.4131 139.968V140H75.5091L73.6451 137.328L72.7651 138.344V140H72.0291V134.272H72.7651V137.224H72.7971L75.3171 134.272Z" fill="black"/>
<path d="M64.36 168.528C64.8027 168.528 65.1973 168.704 65.544 169.056C65.896 169.403 66.072 169.816 66.072 170.296C66.072 170.787 65.8853 171.216 65.512 171.584C65.1333 171.947 64.696 172.128 64.2 172.128C63.672 172.128 63.2267 171.947 62.864 171.584C62.5013 171.221 62.32 170.792 62.32 170.296C62.32 169.853 62.4987 169.349 62.856 168.784L64.448 166.4L65.04 166.808L63.688 168.68L63.704 168.696C63.8693 168.584 64.088 168.528 64.36 168.528ZM63.064 170.304C63.064 170.619 63.1733 170.885 63.392 171.104C63.6107 171.317 63.88 171.424 64.2 171.424C64.52 171.424 64.7867 171.317 65 171.104C65.2187 170.885 65.328 170.619 65.328 170.304C65.328 169.995 65.216 169.731 64.992 169.512C64.7733 169.293 64.5093 169.184 64.2 169.184C63.896 169.184 63.6293 169.293 63.4 169.512C63.176 169.731 63.064 169.995 63.064 170.304ZM66.7426 169.264C66.7426 168.432 66.948 167.747 67.3586 167.208C67.7693 166.669 68.2973 166.4 68.9426 166.4C69.588 166.4 70.116 166.672 70.5266 167.216C70.9373 167.755 71.1426 168.437 71.1426 169.264C71.1426 170.085 70.9373 170.771 70.5266 171.32C70.116 171.859 69.588 172.128 68.9426 172.128C68.2973 172.128 67.7693 171.859 67.3586 171.32C66.948 170.771 66.7426 170.085 66.7426 169.264ZM70.3906 169.264C70.3906 168.635 70.2573 168.117 69.9906 167.712C69.7293 167.307 69.38 167.104 68.9426 167.104C68.5053 167.104 68.156 167.307 67.8946 167.712C67.628 168.117 67.4946 168.635 67.4946 169.264C67.4946 169.893 67.628 170.413 67.8946 170.824C68.156 171.224 68.5053 171.424 68.9426 171.424C69.38 171.424 69.7293 171.221 69.9906 170.816C70.2573 170.405 70.3906 169.888 70.3906 169.264ZM75.3562 166.272H76.3082V166.304L74.1802 168.76L76.4522 171.968V172H75.5482L73.6842 169.328L72.8042 170.344V172H72.0682V166.272H72.8042V169.224H72.8362L75.3562 166.272Z" fill="black"/>
<path d="M65.656 202.848V204H64.92V202.848H62.32V202.288L64.856 198.528H65.656V202.16H66.36V202.848H65.656ZM63.152 202.16H64.92V199.608H64.888L63.152 202.16ZM67.0629 201.264C67.0629 200.432 67.2683 199.747 67.6789 199.208C68.0896 198.669 68.6176 198.4 69.2629 198.4C69.9083 198.4 70.4363 198.672 70.8469 199.216C71.2576 199.755 71.4629 200.437 71.4629 201.264C71.4629 202.085 71.2576 202.771 70.8469 203.32C70.4363 203.859 69.9083 204.128 69.2629 204.128C68.6176 204.128 68.0896 203.859 67.6789 203.32C67.2683 202.771 67.0629 202.085 67.0629 201.264ZM70.7109 201.264C70.7109 200.635 70.5776 200.117 70.3109 199.712C70.0496 199.307 69.7003 199.104 69.2629 199.104C68.8256 199.104 68.4763 199.307 68.2149 199.712C67.9483 200.117 67.8149 200.635 67.8149 201.264C67.8149 201.893 67.9483 202.413 68.2149 202.824C68.4763 203.224 68.8256 203.424 69.2629 203.424C69.7003 203.424 70.0496 203.221 70.3109 202.816C70.5776 202.405 70.7109 201.888 70.7109 201.264ZM75.6765 198.272H76.6285V198.304L74.5005 200.76L76.7725 203.968V204H75.8685L74.0045 201.328L73.1245 202.344V204H72.3885V198.272H73.1245V201.224H73.1565L75.6765 198.272Z" fill="black"/>
<path d="M65.808 235.296V236H62.32V235.264L63.736 233.832C64.2107 233.347 64.5387 232.984 64.72 232.744C64.9013 232.499 64.992 232.243 64.992 231.976C64.992 231.736 64.8987 231.531 64.712 231.36C64.5253 231.189 64.2853 231.104 63.992 231.104C63.7413 231.104 63.5253 231.179 63.344 231.328C63.1627 231.477 63.0453 231.659 62.992 231.872L62.32 231.6C62.4267 231.264 62.632 230.981 62.936 230.752C63.24 230.517 63.5973 230.4 64.008 230.4C64.504 230.4 64.9173 230.552 65.248 230.856C65.5787 231.16 65.744 231.533 65.744 231.976C65.744 232.504 65.4533 233.075 64.872 233.688L63.272 235.296H65.808ZM66.5083 233.264C66.5083 232.432 66.7136 231.747 67.1243 231.208C67.5349 230.669 68.0629 230.4 68.7083 230.4C69.3536 230.4 69.8816 230.672 70.2923 231.216C70.7029 231.755 70.9083 232.437 70.9083 233.264C70.9083 234.085 70.7029 234.771 70.2923 235.32C69.8816 235.859 69.3536 236.128 68.7083 236.128C68.0629 236.128 67.5349 235.859 67.1243 235.32C66.7136 234.771 66.5083 234.085 66.5083 233.264ZM70.1562 233.264C70.1562 232.635 70.0229 232.117 69.7563 231.712C69.4949 231.307 69.1456 231.104 68.7083 231.104C68.2709 231.104 67.9216 231.307 67.6603 231.712C67.3936 232.117 67.2603 232.635 67.2603 233.264C67.2603 233.893 67.3936 234.413 67.6603 234.824C67.9216 235.224 68.2709 235.424 68.7083 235.424C69.1456 235.424 69.4949 235.221 69.7563 234.816C70.0229 234.405 70.1562 233.888 70.1562 233.264ZM75.1218 230.272H76.0738V230.304L73.9458 232.76L76.2178 235.968V236H75.3138L73.4498 233.328L72.5698 234.344V236H71.8338V230.272H72.5698V233.224H72.6018L75.1218 230.272Z" fill="black"/>
<path d="M71.352 265.264C71.352 264.432 71.5573 263.747 71.968 263.208C72.3787 262.669 72.9067 262.4 73.552 262.4C74.1973 262.4 74.7253 262.672 75.136 263.216C75.5467 263.755 75.752 264.437 75.752 265.264C75.752 266.085 75.5467 266.771 75.136 267.32C74.7253 267.859 74.1973 268.128 73.552 268.128C72.9067 268.128 72.3787 267.859 71.968 267.32C71.5573 266.771 71.352 266.085 71.352 265.264ZM75 265.264C75 264.635 74.8667 264.117 74.6 263.712C74.3387 263.307 73.9893 263.104 73.552 263.104C73.1147 263.104 72.7653 263.307 72.504 263.712C72.2373 264.117 72.104 264.635 72.104 265.264C72.104 265.893 72.2373 266.413 72.504 266.824C72.7653 267.224 73.1147 267.424 73.552 267.424C73.9893 267.424 74.3387 267.221 74.6 266.816C74.8667 266.405 75 265.888 75 265.264Z" fill="black"/>
<path d="M85.4 275.528V281H84.664V276.44L83.6 276.904L83.32 276.28L84.928 275.528H85.4ZM89.9564 280.296V281H86.4684V280.264L87.8844 278.832C88.3591 278.347 88.6871 277.984 88.8684 277.744C89.0498 277.499 89.1404 277.243 89.1404 276.976C89.1404 276.736 89.0471 276.531 88.8604 276.36C88.6738 276.189 88.4338 276.104 88.1404 276.104C87.8898 276.104 87.6738 276.179 87.4924 276.328C87.3111 276.477 87.1938 276.659 87.1404 276.872L86.4684 276.6C86.5751 276.264 86.7804 275.981 87.0844 275.752C87.3884 275.517 87.7458 275.4 88.1564 275.4C88.6524 275.4 89.0658 275.552 89.3964 275.856C89.7271 276.16 89.8924 276.533 89.8924 276.976C89.8924 277.504 89.6018 278.075 89.0204 278.688L87.4204 280.296H89.9564ZM94.4763 276.176L93.5403 278.76H95.4443L94.5083 276.176H94.4763ZM92.7323 281H91.9163L94.0763 275.272H94.9083L97.0683 281H96.2523L95.7003 279.448H93.2923L92.7323 281ZM98.4761 281H97.7401V275.272H98.4761L100.468 278.76H100.5L102.492 275.272H103.228V281H102.492V277.6L102.524 276.64H102.492L100.7 279.784H100.268L98.4761 276.64H98.4441L98.4761 277.6V281Z" fill="black"/>
<path d="M124.032 279.488C124.032 279.957 123.853 280.347 123.496 280.656C123.133 280.971 122.693 281.128 122.176 281.128C121.659 281.128 121.219 280.971 120.856 280.656C120.499 280.347 120.32 279.957 120.32 279.488C120.32 279.2 120.397 278.939 120.552 278.704C120.707 278.464 120.928 278.275 121.216 278.136V278.104C121.003 277.965 120.829 277.795 120.696 277.592C120.568 277.389 120.504 277.176 120.504 276.952C120.504 276.509 120.661 276.139 120.976 275.84C121.285 275.547 121.685 275.4 122.176 275.4C122.667 275.4 123.067 275.547 123.376 275.84C123.691 276.139 123.848 276.509 123.848 276.952C123.848 277.176 123.781 277.389 123.648 277.592C123.52 277.795 123.349 277.965 123.136 278.104V278.136C123.424 278.275 123.645 278.464 123.8 278.704C123.955 278.939 124.032 279.2 124.032 279.488ZM121.256 276.936C121.256 277.192 121.341 277.4 121.512 277.56C121.683 277.715 121.904 277.792 122.176 277.792C122.448 277.792 122.669 277.715 122.84 277.56C123.011 277.4 123.096 277.192 123.096 276.936C123.096 276.68 123.011 276.477 122.84 276.328C122.669 276.179 122.448 276.104 122.176 276.104C121.904 276.104 121.683 276.179 121.512 276.328C121.341 276.477 121.256 276.68 121.256 276.936ZM121.072 279.448C121.072 279.592 121.099 279.723 121.152 279.84C121.211 279.957 121.288 280.061 121.384 280.152C121.485 280.237 121.603 280.304 121.736 280.352C121.869 280.4 122.016 280.424 122.176 280.424C122.336 280.424 122.483 280.4 122.616 280.352C122.749 280.304 122.864 280.237 122.96 280.152C123.061 280.061 123.139 279.957 123.192 279.84C123.251 279.723 123.28 279.592 123.28 279.448C123.28 279.171 123.173 278.941 122.96 278.76C122.747 278.573 122.485 278.48 122.176 278.48C121.867 278.48 121.603 278.573 121.384 278.76C121.176 278.947 121.072 279.176 121.072 279.448ZM128.523 276.176L127.587 278.76H129.491L128.555 276.176H128.523ZM126.779 281H125.963L128.123 275.272H128.955L131.115 281H130.299L129.747 279.448H127.339L126.779 281ZM132.523 281H131.787V275.272H132.523L134.515 278.76H134.547L136.539 275.272H137.275V281H136.539V277.6L136.571 276.64H136.539L134.747 279.784H134.315L132.523 276.64H132.491L132.523 277.6V281Z" fill="black"/>
<path d="M164.4 275.528V281H163.664V276.44L162.6 276.904L162.32 276.28L163.928 275.528H164.4ZM165.422 278.264C165.422 277.432 165.628 276.747 166.038 276.208C166.449 275.669 166.977 275.4 167.622 275.4C168.268 275.4 168.796 275.672 169.206 276.216C169.617 276.755 169.822 277.437 169.822 278.264C169.822 279.085 169.617 279.771 169.206 280.32C168.796 280.859 168.268 281.128 167.622 281.128C166.977 281.128 166.449 280.859 166.038 280.32C165.628 279.771 165.422 279.085 165.422 278.264ZM169.07 278.264C169.07 277.635 168.937 277.117 168.67 276.712C168.409 276.307 168.06 276.104 167.622 276.104C167.185 276.104 166.836 276.307 166.574 276.712C166.308 277.117 166.174 277.635 166.174 278.264C166.174 278.893 166.308 279.413 166.574 279.824C166.836 280.224 167.185 280.424 167.622 280.424C168.06 280.424 168.409 280.221 168.67 279.816C168.937 279.405 169.07 278.888 169.07 278.264ZM174.344 276.176L173.408 278.76H175.312L174.376 276.176H174.344ZM172.6 281H171.784L173.944 275.272H174.776L176.936 281H176.12L175.568 279.448H173.16L172.6 281ZM178.343 281H177.607V275.272H178.343L180.335 278.76H180.367L182.359 275.272H183.095V281H182.359V277.6L182.391 276.64H182.359L180.567 279.784H180.135L178.343 276.64H178.311L178.343 277.6V281Z" fill="black"/>
<path d="M207.352 278.264C207.352 277.432 207.557 276.747 207.968 276.208C208.379 275.669 208.907 275.4 209.552 275.4C210.197 275.4 210.725 275.672 211.136 276.216C211.547 276.755 211.752 277.437 211.752 278.264C211.752 279.085 211.547 279.771 211.136 280.32C210.725 280.859 210.197 281.128 209.552 281.128C208.907 281.128 208.379 280.859 207.968 280.32C207.557 279.771 207.352 279.085 207.352 278.264ZM211 278.264C211 277.635 210.867 277.117 210.6 276.712C210.339 276.307 209.989 276.104 209.552 276.104C209.115 276.104 208.765 276.307 208.504 276.712C208.237 277.117 208.104 277.635 208.104 278.264C208.104 278.893 208.237 279.413 208.504 279.824C208.765 280.224 209.115 280.424 209.552 280.424C209.989 280.424 210.339 280.221 210.6 279.816C210.867 279.405 211 278.888 211 278.264ZM214.423 275.528V281H213.687V276.44L212.623 276.904L212.343 276.28L213.951 275.528H214.423ZM218.164 278.68V281H217.428V275.272H219.38C219.876 275.272 220.297 275.437 220.644 275.768C220.996 276.099 221.172 276.501 221.172 276.976C221.172 277.461 220.996 277.867 220.644 278.192C220.302 278.517 219.881 278.68 219.38 278.68H218.164ZM218.164 275.976V277.976H219.396C219.689 277.976 219.932 277.877 220.124 277.68C220.321 277.483 220.42 277.248 220.42 276.976C220.42 276.709 220.321 276.477 220.124 276.28C219.932 276.077 219.689 275.976 219.396 275.976H218.164ZM222.679 281H221.943V275.272H222.679L224.671 278.76H224.703L226.695 275.272H227.431V281H226.695V277.6L226.727 276.64H226.695L224.903 279.784H224.471L222.679 276.64H222.647L222.679 277.6V281Z" fill="black"/>
<path d="M252.352 278.264C252.352 277.432 252.557 276.747 252.968 276.208C253.379 275.669 253.907 275.4 254.552 275.4C255.197 275.4 255.725 275.672 256.136 276.216C256.547 276.755 256.752 277.437 256.752 278.264C256.752 279.085 256.547 279.771 256.136 280.32C255.725 280.859 255.197 281.128 254.552 281.128C253.907 281.128 253.379 280.859 252.968 280.32C252.557 279.771 252.352 279.085 252.352 278.264ZM256 278.264C256 277.635 255.867 277.117 255.6 276.712C255.339 276.307 254.989 276.104 254.552 276.104C254.115 276.104 253.765 276.307 253.504 276.712C253.237 277.117 253.104 277.635 253.104 278.264C253.104 278.893 253.237 279.413 253.504 279.824C253.765 280.224 254.115 280.424 254.552 280.424C254.989 280.424 255.339 280.221 255.6 279.816C255.867 279.405 256 278.888 256 278.264ZM260.758 279.848V281H260.022V279.848H257.422V279.288L259.958 275.528H260.758V279.16H261.462V279.848H260.758ZM258.254 279.16H260.022V276.608H259.99L258.254 279.16ZM264.882 278.68V281H264.146V275.272H266.098C266.594 275.272 267.016 275.437 267.362 275.768C267.714 276.099 267.89 276.501 267.89 276.976C267.89 277.461 267.714 277.867 267.362 278.192C267.021 278.517 266.6 278.68 266.098 278.68H264.882ZM264.882 275.976V277.976H266.114C266.408 277.976 266.65 277.877 266.842 277.68C267.04 277.483 267.138 277.248 267.138 276.976C267.138 276.709 267.04 276.477 266.842 276.28C266.65 276.077 266.408 275.976 266.114 275.976H264.882ZM269.398 281H268.662V275.272H269.398L271.39 278.76H271.422L273.414 275.272H274.15V281H273.414V277.6L273.446 276.64H273.414L271.622 279.784H271.19L269.398 276.64H269.366L269.398 277.6V281Z" fill="black"/>
<path d="M297.352 278.264C297.352 277.432 297.557 276.747 297.968 276.208C298.379 275.669 298.907 275.4 299.552 275.4C300.197 275.4 300.725 275.672 301.136 276.216C301.547 276.755 301.752 277.437 301.752 278.264C301.752 279.085 301.547 279.771 301.136 280.32C300.725 280.859 300.197 281.128 299.552 281.128C298.907 281.128 298.379 280.859 297.968 280.32C297.557 279.771 297.352 279.085 297.352 278.264ZM301 278.264C301 277.635 300.867 277.117 300.6 276.712C300.339 276.307 299.989 276.104 299.552 276.104C299.115 276.104 298.765 276.307 298.504 276.712C298.237 277.117 298.104 277.635 298.104 278.264C298.104 278.893 298.237 279.413 298.504 279.824C298.765 280.224 299.115 280.424 299.552 280.424C299.989 280.424 300.339 280.221 300.6 279.816C300.867 279.405 301 278.888 301 278.264ZM306.134 279.488C306.134 279.957 305.955 280.347 305.598 280.656C305.235 280.971 304.795 281.128 304.278 281.128C303.76 281.128 303.32 280.971 302.958 280.656C302.6 280.347 302.422 279.957 302.422 279.488C302.422 279.2 302.499 278.939 302.654 278.704C302.808 278.464 303.03 278.275 303.318 278.136V278.104C303.104 277.965 302.931 277.795 302.798 277.592C302.67 277.389 302.606 277.176 302.606 276.952C302.606 276.509 302.763 276.139 303.078 275.84C303.387 275.547 303.787 275.4 304.278 275.4C304.768 275.4 305.168 275.547 305.478 275.84C305.792 276.139 305.95 276.509 305.95 276.952C305.95 277.176 305.883 277.389 305.75 277.592C305.622 277.795 305.451 277.965 305.238 278.104V278.136C305.526 278.275 305.747 278.464 305.902 278.704C306.056 278.939 306.134 279.2 306.134 279.488ZM303.358 276.936C303.358 277.192 303.443 277.4 303.614 277.56C303.784 277.715 304.006 277.792 304.278 277.792C304.55 277.792 304.771 277.715 304.942 277.56C305.112 277.4 305.198 277.192 305.198 276.936C305.198 276.68 305.112 276.477 304.942 276.328C304.771 276.179 304.55 276.104 304.278 276.104C304.006 276.104 303.784 276.179 303.614 276.328C303.443 276.477 303.358 276.68 303.358 276.936ZM303.174 279.448C303.174 279.592 303.2 279.723 303.254 279.84C303.312 279.957 303.39 280.061 303.486 280.152C303.587 280.237 303.704 280.304 303.838 280.352C303.971 280.4 304.118 280.424 304.278 280.424C304.438 280.424 304.584 280.4 304.718 280.352C304.851 280.304 304.966 280.237 305.062 280.152C305.163 280.061 305.24 279.957 305.294 279.84C305.352 279.723 305.382 279.592 305.382 279.448C305.382 279.171 305.275 278.941 305.062 278.76C304.848 278.573 304.587 278.48 304.278 278.48C303.968 278.48 303.704 278.573 303.486 278.76C303.278 278.947 303.174 279.176 303.174 279.448ZM309.523 278.68V281H308.787V275.272H310.739C311.235 275.272 311.656 275.437 312.003 275.768C312.355 276.099 312.531 276.501 312.531 276.976C312.531 277.461 312.355 277.867 312.003 278.192C311.662 278.517 311.24 278.68 310.739 278.68H309.523ZM309.523 275.976V277.976H310.755C311.048 277.976 311.291 277.877 311.483 277.68C311.68 277.483 311.779 277.248 311.779 276.976C311.779 276.709 311.68 276.477 311.483 276.28C311.291 276.077 311.048 275.976 310.755 275.976H309.523ZM314.039 281H313.303V275.272H314.039L316.031 278.76H316.063L318.055 275.272H318.791V281H318.055V277.6L318.087 276.64H318.055L316.263 279.784H315.831L314.039 276.64H314.007L314.039 277.6V281Z" fill="black"/>
<path d="M345.4 275.528V281H344.664V276.44L343.6 276.904L343.32 276.28L344.928 275.528H345.4ZM346.422 278.264C346.422 277.432 346.628 276.747 347.038 276.208C347.449 275.669 347.977 275.4 348.622 275.4C349.268 275.4 349.796 275.672 350.206 276.216C350.617 276.755 350.822 277.437 350.822 278.264C350.822 279.085 350.617 279.771 350.206 280.32C349.796 280.859 349.268 281.128 348.622 281.128C347.977 281.128 347.449 280.859 347.038 280.32C346.628 279.771 346.422 279.085 346.422 278.264ZM350.07 278.264C350.07 277.635 349.937 277.117 349.67 276.712C349.409 276.307 349.06 276.104 348.622 276.104C348.185 276.104 347.836 276.307 347.574 276.712C347.308 277.117 347.174 277.635 347.174 278.264C347.174 278.893 347.308 279.413 347.574 279.824C347.836 280.224 348.185 280.424 348.622 280.424C349.06 280.424 349.409 280.221 349.67 279.816C349.937 279.405 350.07 278.888 350.07 278.264ZM354.242 278.68V281H353.506V275.272H355.458C355.954 275.272 356.375 275.437 356.722 275.768C357.074 276.099 357.25 276.501 357.25 276.976C357.25 277.461 357.074 277.867 356.722 278.192C356.38 278.517 355.959 278.68 355.458 278.68H354.242ZM354.242 275.976V277.976H355.474C355.767 277.976 356.01 277.877 356.202 277.68C356.399 277.483 356.498 277.248 356.498 276.976C356.498 276.709 356.399 276.477 356.202 276.28C356.01 276.077 355.767 275.976 355.474 275.976H354.242ZM358.757 281H358.021V275.272H358.757L360.749 278.76H360.781L362.773 275.272H363.509V281H362.773V277.6L362.805 276.64H362.773L360.981 279.784H360.549L358.757 276.64H358.725L358.757 277.6V281Z" fill="black"/>
<path d="M391.4 275.528V281H390.664V276.44L389.6 276.904L389.32 276.28L390.928 275.528H391.4ZM394.47 275.528V281H393.734V276.44L392.67 276.904L392.39 276.28L393.998 275.528H394.47ZM398.21 278.68V281H397.474V275.272H399.426C399.922 275.272 400.344 275.437 400.69 275.768C401.042 276.099 401.218 276.501 401.218 276.976C401.218 277.461 401.042 277.867 400.69 278.192C400.349 278.517 399.928 278.68 399.426 278.68H398.21ZM398.21 275.976V277.976H399.442C399.736 277.976 399.978 277.877 400.17 277.68C400.368 277.483 400.466 277.248 400.466 276.976C400.466 276.709 400.368 276.477 400.17 276.28C399.978 276.077 399.736 275.976 399.442 275.976H398.21ZM402.726 281H401.99V275.272H402.726L404.718 278.76H404.75L406.742 275.272H407.478V281H406.742V277.6L406.774 276.64H406.742L404.95 279.784H404.518L402.726 276.64H402.694L402.726 277.6V281Z" fill="black"/>
<path d="M85.5 266C110.5 197 133.844 264.592 154.5 230.5C167.409 209.195 169.322 143.953 200 139.5C231 135 273.042 229.654 307.5 227.5C379.5 223 440 132 477 35.5" stroke="black" stroke-width="3" stroke-linecap="round"/>
<circle cx="129" cy="221" r="9" fill="#020A13" fill-opacity="0.5"/>
<circle cx="198" cy="141" r="9" fill="#020A13" fill-opacity="0.5"/>
<circle cx="352" cy="213" r="9" fill="#020A13" fill-opacity="0.5"/>
<circle cx="477" cy="35" r="9" fill="#020A13" fill-opacity="0.5"/>
<circle cx="129" cy="221" r="4" fill="#020A13"/>
<circle cx="198" cy="141" r="4" fill="#020A13"/>
<circle cx="352" cy="213" r="4" fill="#020A13"/>
<circle cx="477" cy="35" r="4" fill="#020A13"/>
<path fill-rule="evenodd" clip-rule="evenodd" d="M143 73C137.477 73 133 77.4772 133 83V114C133 119.523 137.477 124 143 124H187.605C189.497 124 191.34 124.603 192.866 125.721L194.689 127.055C197.357 129.009 201.072 128.616 203.273 126.148C204.491 124.781 206.234 124 208.064 124H214C219.523 124 224 119.523 224 114V83C224 77.4772 219.523 73 214 73H143Z" fill="#020A13" fill-opacity="0.5"/>
<path fill-rule="evenodd" clip-rule="evenodd" d="M148 70C142.477 70 138 74.4772 138 80V111C138 116.523 142.477 121 148 121H187.863C189.869 121 191.828 121.603 193.486 122.731L195.548 124.132C198.407 126.077 202.253 125.674 204.648 123.18C205.984 121.787 207.831 121 209.761 121H217C222.523 121 227 116.523 227 111V80C227 74.4772 222.523 70 217 70H148Z" fill="#020A13"/>
<path d="M149.264 106.948C149.264 106.324 149.418 105.81 149.726 105.406C150.034 105.002 150.43 104.8 150.914 104.8C151.398 104.8 151.794 105.004 152.102 105.412C152.41 105.816 152.564 106.328 152.564 106.948C152.564 107.564 152.41 108.078 152.102 108.49C151.794 108.894 151.398 109.096 150.914 109.096C150.43 109.096 150.034 108.894 149.726 108.49C149.418 108.078 149.264 107.564 149.264 106.948ZM152 106.948C152 106.476 151.9 106.088 151.7 105.784C151.504 105.48 151.242 105.328 150.914 105.328C150.586 105.328 150.324 105.48 150.128 105.784C149.928 106.088 149.828 106.476 149.828 106.948C149.828 107.42 149.928 107.81 150.128 108.118C150.324 108.418 150.586 108.568 150.914 108.568C151.242 108.568 151.504 108.416 151.7 108.112C151.9 107.804 152 107.416 152 106.948ZM155.624 108.472V109H153.008V108.448L154.07 107.374C154.426 107.01 154.672 106.738 154.808 106.558C154.944 106.374 155.012 106.182 155.012 105.982C155.012 105.802 154.942 105.648 154.802 105.52C154.662 105.392 154.482 105.328 154.262 105.328C154.074 105.328 153.912 105.384 153.776 105.496C153.64 105.608 153.552 105.744 153.512 105.904L153.008 105.7C153.088 105.448 153.242 105.236 153.47 105.064C153.698 104.888 153.966 104.8 154.274 104.8C154.646 104.8 154.956 104.914 155.204 105.142C155.452 105.37 155.576 105.65 155.576 105.982C155.576 106.378 155.358 106.806 154.922 107.266L153.722 108.472H155.624ZM157.635 109V104.704H158.949C159.605 104.704 160.131 104.902 160.527 105.298C160.927 105.694 161.127 106.212 161.127 106.852C161.127 107.496 160.927 108.016 160.527 108.412C160.131 108.804 159.605 109 158.949 109H157.635ZM158.187 105.232V108.472H158.949C159.449 108.472 159.843 108.33 160.131 108.046C160.419 107.758 160.563 107.36 160.563 106.852C160.563 106.348 160.419 105.952 160.131 105.664C159.843 105.376 159.449 105.232 158.949 105.232H158.187ZM162.92 109.096C162.488 109.096 162.132 108.948 161.852 108.652C161.572 108.356 161.432 107.982 161.432 107.53C161.432 107.082 161.568 106.71 161.84 106.414C162.112 106.114 162.46 105.964 162.884 105.964C163.32 105.964 163.666 106.106 163.922 106.39C164.182 106.67 164.312 107.064 164.312 107.572L164.306 107.632H161.996C162.004 107.92 162.1 108.152 162.284 108.328C162.468 108.504 162.688 108.592 162.944 108.592C163.296 108.592 163.572 108.416 163.772 108.064L164.264 108.304C164.132 108.552 163.948 108.746 163.712 108.886C163.48 109.026 163.216 109.096 162.92 109.096ZM162.038 107.176H163.724C163.708 106.972 163.624 106.804 163.472 106.672C163.324 106.536 163.124 106.468 162.872 106.468C162.664 106.468 162.484 106.532 162.332 106.66C162.184 106.788 162.086 106.96 162.038 107.176ZM166.19 109.096C165.754 109.096 165.392 108.948 165.104 108.652C164.82 108.348 164.678 107.974 164.678 107.53C164.678 107.078 164.82 106.704 165.104 106.408C165.392 106.112 165.754 105.964 166.19 105.964C166.49 105.964 166.752 106.04 166.976 106.192C167.2 106.34 167.368 106.546 167.48 106.81L166.976 107.02C166.82 106.652 166.546 106.468 166.154 106.468C165.902 106.468 165.684 106.57 165.5 106.774C165.32 106.978 165.23 107.23 165.23 107.53C165.23 107.83 165.32 108.082 165.5 108.286C165.684 108.49 165.902 108.592 166.154 108.592C166.558 108.592 166.842 108.408 167.006 108.04L167.498 108.25C167.39 108.514 167.22 108.722 166.988 108.874C166.76 109.022 166.494 109.096 166.19 109.096ZM171.819 108.472V109H169.203V108.448L170.265 107.374C170.621 107.01 170.867 106.738 171.003 106.558C171.139 106.374 171.207 106.182 171.207 105.982C171.207 105.802 171.137 105.648 170.997 105.52C170.857 105.392 170.677 105.328 170.457 105.328C170.269 105.328 170.107 105.384 169.971 105.496C169.835 105.608 169.747 105.744 169.707 105.904L169.203 105.7C169.283 105.448 169.437 105.236 169.665 105.064C169.893 104.888 170.161 104.8 170.469 104.8C170.841 104.8 171.151 104.914 171.399 105.142C171.647 105.37 171.771 105.65 171.771 105.982C171.771 106.378 171.553 106.806 171.117 107.266L169.917 108.472H171.819ZM172.344 106.948C172.344 106.324 172.498 105.81 172.806 105.406C173.114 105.002 173.51 104.8 173.994 104.8C174.478 104.8 174.874 105.004 175.182 105.412C175.49 105.816 175.644 106.328 175.644 106.948C175.644 107.564 175.49 108.078 175.182 108.49C174.874 108.894 174.478 109.096 173.994 109.096C173.51 109.096 173.114 108.894 172.806 108.49C172.498 108.078 172.344 107.564 172.344 106.948ZM175.08 106.948C175.08 106.476 174.98 106.088 174.78 105.784C174.584 105.48 174.322 105.328 173.994 105.328C173.666 105.328 173.404 105.48 173.208 105.784C173.008 106.088 172.908 106.476 172.908 106.948C172.908 107.42 173.008 107.81 173.208 108.118C173.404 108.418 173.666 108.568 173.994 108.568C174.322 108.568 174.584 108.416 174.78 108.112C174.98 107.804 175.08 107.416 175.08 106.948ZM178.704 108.472V109H176.088V108.448L177.15 107.374C177.506 107.01 177.752 106.738 177.888 106.558C178.024 106.374 178.092 106.182 178.092 105.982C178.092 105.802 178.022 105.648 177.882 105.52C177.742 105.392 177.562 105.328 177.342 105.328C177.154 105.328 176.992 105.384 176.856 105.496C176.72 105.608 176.632 105.744 176.592 105.904L176.088 105.7C176.168 105.448 176.322 105.236 176.55 105.064C176.778 104.888 177.046 104.8 177.354 104.8C177.726 104.8 178.036 104.914 178.284 105.142C178.532 105.37 178.656 105.65 178.656 105.982C178.656 106.378 178.438 106.806 178.002 107.266L176.802 108.472H178.704ZM180.706 104.896V109H180.154V105.58L179.356 105.928L179.146 105.46L180.352 104.896H180.706ZM185.646 104.896V109H185.094V105.58L184.296 105.928L184.086 105.46L185.292 104.896H185.646ZM187.948 104.896V109H187.396V105.58L186.598 105.928L186.388 105.46L187.594 104.896H187.948ZM189.555 106.432C189.555 106.544 189.515 106.64 189.435 106.72C189.359 106.8 189.263 106.84 189.147 106.84C189.035 106.84 188.939 106.8 188.859 106.72C188.779 106.64 188.739 106.544 188.739 106.432C188.739 106.316 188.779 106.22 188.859 106.144C188.939 106.064 189.035 106.024 189.147 106.024C189.263 106.024 189.359 106.064 189.435 106.144C189.515 106.22 189.555 106.316 189.555 106.432ZM189.555 108.628C189.555 108.74 189.515 108.836 189.435 108.916C189.359 108.996 189.263 109.036 189.147 109.036C189.035 109.036 188.939 108.996 188.859 108.916C188.779 108.836 188.739 108.74 188.739 108.628C188.739 108.512 188.779 108.416 188.859 108.34C188.939 108.26 189.035 108.22 189.147 108.22C189.263 108.22 189.359 108.26 189.435 108.34C189.515 108.416 189.555 108.512 189.555 108.628ZM190.11 106.948C190.11 106.324 190.264 105.81 190.572 105.406C190.88 105.002 191.276 104.8 191.76 104.8C192.244 104.8 192.64 105.004 192.948 105.412C193.256 105.816 193.41 106.328 193.41 106.948C193.41 107.564 193.256 108.078 192.948 108.49C192.64 108.894 192.244 109.096 191.76 109.096C191.276 109.096 190.88 108.894 190.572 108.49C190.264 108.078 190.11 107.564 190.11 106.948ZM192.846 106.948C192.846 106.476 192.746 106.088 192.546 105.784C192.35 105.48 192.088 105.328 191.76 105.328C191.432 105.328 191.17 105.48 190.974 105.784C190.774 106.088 190.674 106.476 190.674 106.948C190.674 107.42 190.774 107.81 190.974 108.118C191.17 108.418 191.432 108.568 191.76 108.568C192.088 108.568 192.35 108.416 192.546 108.112C192.746 107.804 192.846 107.416 192.846 106.948ZM193.936 106.948C193.936 106.324 194.09 105.81 194.398 105.406C194.706 105.002 195.102 104.8 195.586 104.8C196.07 104.8 196.466 105.004 196.774 105.412C197.082 105.816 197.236 106.328 197.236 106.948C197.236 107.564 197.082 108.078 196.774 108.49C196.466 108.894 196.07 109.096 195.586 109.096C195.102 109.096 194.706 108.894 194.398 108.49C194.09 108.078 193.936 107.564 193.936 106.948ZM196.672 106.948C196.672 106.476 196.572 106.088 196.372 105.784C196.176 105.48 195.914 105.328 195.586 105.328C195.258 105.328 194.996 105.48 194.8 105.784C194.6 106.088 194.5 106.476 194.5 106.948C194.5 107.42 194.6 107.81 194.8 108.118C194.996 108.418 195.258 108.568 195.586 108.568C195.914 108.568 196.176 108.416 196.372 108.112C196.572 107.804 196.672 107.416 196.672 106.948ZM200.627 105.382L199.925 107.32H201.353L200.651 105.382H200.627ZM199.319 109H198.707L200.327 104.704H200.951L202.571 109H201.959L201.545 107.836H199.739L199.319 109ZM203.627 109H203.075V104.704H203.627L205.121 107.32H205.145L206.639 104.704H207.191V109H206.639V106.45L206.663 105.73H206.639L205.295 108.088H204.971L203.627 105.73H203.603L203.627 106.45V109Z" fill="white"/>
<path d="M153.638 82.852C153.638 83.488 153.426 84.02 153.002 84.448C152.574 84.88 152.05 85.096 151.43 85.096C150.806 85.096 150.282 84.88 149.858 84.448C149.434 84.02 149.222 83.488 149.222 82.852C149.222 82.216 149.434 81.684 149.858 81.256C150.282 80.824 150.806 80.608 151.43 80.608C152.054 80.608 152.578 80.826 153.002 81.262C153.426 81.69 153.638 82.22 153.638 82.852ZM149.786 82.852C149.786 83.348 149.942 83.758 150.254 84.082C150.57 84.406 150.962 84.568 151.43 84.568C151.898 84.568 152.288 84.406 152.6 84.082C152.916 83.762 153.074 83.352 153.074 82.852C153.074 82.352 152.916 81.942 152.6 81.622C152.288 81.298 151.898 81.136 151.43 81.136C150.962 81.136 150.57 81.298 150.254 81.622C149.942 81.946 149.786 82.356 149.786 82.852ZM155.633 84.592C155.897 84.592 156.119 84.492 156.299 84.292C156.479 84.096 156.569 83.842 156.569 83.53C156.569 83.222 156.479 82.968 156.299 82.768C156.119 82.568 155.897 82.468 155.633 82.468C155.365 82.468 155.141 82.568 154.961 82.768C154.785 82.968 154.697 83.222 154.697 83.53C154.697 83.842 154.785 84.098 154.961 84.298C155.141 84.494 155.365 84.592 155.633 84.592ZM155.723 85.096C155.507 85.096 155.309 85.05 155.129 84.958C154.953 84.866 154.817 84.744 154.721 84.592H154.697L154.721 85V86.296H154.169V82.06H154.697V82.468H154.721C154.817 82.316 154.953 82.194 155.129 82.102C155.309 82.01 155.507 81.964 155.723 81.964C156.111 81.964 156.439 82.116 156.707 82.42C156.983 82.728 157.121 83.098 157.121 83.53C157.121 83.966 156.983 84.336 156.707 84.64C156.439 84.944 156.111 85.096 155.723 85.096ZM158.947 85.096C158.515 85.096 158.159 84.948 157.879 84.652C157.599 84.356 157.459 83.982 157.459 83.53C157.459 83.082 157.595 82.71 157.867 82.414C158.139 82.114 158.487 81.964 158.911 81.964C159.347 81.964 159.693 82.106 159.949 82.39C160.209 82.67 160.339 83.064 160.339 83.572L160.333 83.632H158.023C158.031 83.92 158.127 84.152 158.311 84.328C158.495 84.504 158.715 84.592 158.971 84.592C159.323 84.592 159.599 84.416 159.799 84.064L160.291 84.304C160.159 84.552 159.975 84.746 159.739 84.886C159.507 85.026 159.243 85.096 158.947 85.096ZM158.065 83.176H159.751C159.735 82.972 159.651 82.804 159.499 82.672C159.351 82.536 159.151 82.468 158.899 82.468C158.691 82.468 158.511 82.532 158.359 82.66C158.211 82.788 158.113 82.96 158.065 83.176ZM160.844 82.06H161.372V82.468H161.396C161.48 82.324 161.608 82.204 161.78 82.108C161.956 82.012 162.138 81.964 162.326 81.964C162.686 81.964 162.962 82.068 163.154 82.276C163.35 82.48 163.448 82.772 163.448 83.152V85H162.896V83.188C162.884 82.708 162.642 82.468 162.17 82.468C161.95 82.468 161.766 82.558 161.618 82.738C161.47 82.914 161.396 83.126 161.396 83.374V85H160.844V82.06ZM166.316 84.184C166.316 84.44 166.204 84.656 165.98 84.832C165.756 85.008 165.474 85.096 165.134 85.096C164.838 85.096 164.578 85.02 164.354 84.868C164.13 84.712 163.97 84.508 163.874 84.256L164.366 84.046C164.438 84.222 164.542 84.36 164.678 84.46C164.818 84.556 164.97 84.604 165.134 84.604C165.31 84.604 165.456 84.566 165.572 84.49C165.692 84.414 165.752 84.324 165.752 84.22C165.752 84.032 165.608 83.894 165.32 83.806L164.816 83.68C164.244 83.536 163.958 83.26 163.958 82.852C163.958 82.584 164.066 82.37 164.282 82.21C164.502 82.046 164.782 81.964 165.122 81.964C165.382 81.964 165.616 82.026 165.824 82.15C166.036 82.274 166.184 82.44 166.268 82.648L165.776 82.852C165.72 82.728 165.628 82.632 165.5 82.564C165.376 82.492 165.236 82.456 165.08 82.456C164.936 82.456 164.806 82.492 164.69 82.564C164.578 82.636 164.522 82.724 164.522 82.828C164.522 82.996 164.68 83.116 164.996 83.188L165.44 83.302C166.024 83.446 166.316 83.74 166.316 84.184Z" fill="white"/>
<path d="M152.729 93.016H149.44L149.462 91.476H154.687V93.082L151.189 99.176L149.825 98.406L152.784 93.126L152.729 93.016ZM158.164 99.176C157.739 99.176 157.35 99.1173 156.998 99C156.654 98.8827 156.357 98.7213 156.107 98.516C155.865 98.3107 155.678 98.0723 155.546 97.801C155.414 97.5223 155.348 97.2217 155.348 96.899C155.348 96.679 155.378 96.4773 155.436 96.294C155.502 96.1033 155.587 95.931 155.689 95.777C155.799 95.623 155.92 95.491 156.052 95.381C156.184 95.2637 156.32 95.1647 156.459 95.084V94.974C156.232 94.8127 156.03 94.6037 155.854 94.347C155.686 94.0903 155.601 93.7787 155.601 93.412C155.601 93.1113 155.664 92.8327 155.788 92.576C155.92 92.312 156.1 92.0883 156.327 91.905C156.562 91.7143 156.833 91.5677 157.141 91.465C157.457 91.355 157.798 91.3 158.164 91.3C158.531 91.3 158.868 91.355 159.176 91.465C159.492 91.5677 159.763 91.7143 159.99 91.905C160.225 92.0883 160.405 92.312 160.529 92.576C160.661 92.8327 160.727 93.1113 160.727 93.412C160.727 93.7787 160.639 94.0903 160.463 94.347C160.295 94.6037 160.097 94.8127 159.869 94.974V95.084C160.009 95.1647 160.144 95.2637 160.276 95.381C160.408 95.491 160.526 95.623 160.628 95.777C160.738 95.931 160.823 96.1033 160.881 96.294C160.947 96.4773 160.98 96.679 160.98 96.899C160.98 97.2217 160.914 97.5223 160.782 97.801C160.65 98.0723 160.46 98.3107 160.21 98.516C159.968 98.7213 159.671 98.8827 159.319 99C158.975 99.1173 158.59 99.176 158.164 99.176ZM158.164 94.369C158.443 94.369 158.678 94.2957 158.868 94.149C159.059 93.995 159.154 93.797 159.154 93.555C159.154 93.3057 159.059 93.1113 158.868 92.972C158.678 92.8253 158.443 92.752 158.164 92.752C157.886 92.752 157.651 92.8253 157.46 92.972C157.27 93.1113 157.174 93.3057 157.174 93.555C157.174 93.797 157.27 93.995 157.46 94.149C157.651 94.2957 157.886 94.369 158.164 94.369ZM158.164 97.658C158.516 97.658 158.799 97.5737 159.011 97.405C159.224 97.229 159.33 97.0017 159.33 96.723C159.33 96.4517 159.22 96.2317 159 96.063C158.788 95.887 158.509 95.799 158.164 95.799C157.82 95.799 157.537 95.887 157.317 96.063C157.105 96.2317 156.998 96.4517 156.998 96.723C156.998 97.0017 157.105 97.229 157.317 97.405C157.53 97.5737 157.812 97.658 158.164 97.658ZM164.627 91.124H166.343V94.16H166.453L169.049 91.124H171.084V91.234L168.279 94.435L171.425 98.89V99H169.335L167.091 95.799L166.343 96.668V99H164.627V91.124Z" fill="white"/>
<path d="M145.968 347.847C143.414 354.778 139.117 360.827 133.549 365.332C127.98 369.837 121.354 372.623 114.397 373.387C107.439 374.15 100.419 372.861 94.1038 369.66C87.789 366.459 82.4234 361.47 78.5946 355.239C74.7658 349.008 72.6216 341.776 72.3967 334.334C72.1718 326.893 73.8749 319.529 77.3195 313.049C80.7641 306.569 85.8174 301.223 91.9259 297.597C98.0344 293.97 104.963 292.203 111.952 292.489L110.851 323.001C109.122 322.93 107.408 323.368 105.897 324.265C104.386 325.162 103.136 326.484 102.284 328.087C101.432 329.69 101.01 331.512 101.066 333.352C101.122 335.193 101.652 336.982 102.599 338.524C103.546 340.065 104.874 341.299 106.436 342.091C107.998 342.883 109.735 343.202 111.456 343.013C113.177 342.824 114.816 342.135 116.193 341.02C117.571 339.906 118.634 338.41 119.266 336.695L145.968 347.847Z" fill="#020A13"/>
<path d="M138.516 348.508C137.514 347.841 137.275 348.747 136.894 349.271C132.171 356.184 126.207 361.619 118.336 364.718C114.471 366.243 110.512 367.531 106.218 367.245C105.073 367.149 104.644 366.863 104.644 365.624C104.644 361.953 104.978 358.282 105.216 354.611C105.646 347.984 106.075 341.405 106.886 334.825C107.125 333.014 107.745 331.107 106.886 329.247L106.075 328.675C105.646 328.628 105.264 328.58 104.882 328.771C104.596 328.914 104.31 329.104 103.976 329.2C102.926 329.533 101.924 329.915 100.923 330.296C100.636 330.344 100.398 330.392 100.112 330.487C96.5336 332.108 92.8125 333.204 89.1868 334.682C85.9428 335.97 82.651 337.352 79.3115 338.353C79.0253 338.449 78.7868 338.544 78.5005 338.639C75.0656 340.117 71.6308 341.595 68.1482 342.882C67.194 343.407 67.528 344.122 67.9096 344.79C69.3408 347.221 70.7243 349.652 72.4895 351.941C76.1152 356.708 79.9794 360.999 85.6088 363.526C90.1887 365.576 94.6254 367.864 99.6346 368.484C99.73 368.484 99.7777 368.484 99.8254 368.532H99.8731C100.016 368.532 100.159 368.532 100.35 368.58C101.352 368.484 102.402 368.58 103.403 368.77C104.548 369.009 105.789 369.009 106.981 369.056C107.792 368.961 108.556 368.913 109.367 368.866C109.605 368.818 109.844 368.77 110.13 368.77C111.943 368.198 113.803 367.721 115.664 367.34C117.62 366.911 119.481 366.53 121.246 365.481C122.104 364.956 122.915 364.432 123.822 364.05C124.299 363.86 125.158 363.621 125.587 363.24C125.921 362.954 126.255 362.763 126.637 362.572C128.306 361.238 129.928 359.903 131.503 358.472C134.174 356.041 136.703 353.514 138.42 350.272C138.659 349.748 139.183 349.176 138.516 348.508Z" fill="#161121"/>
<path d="M138.515 348.508C137.8 348.174 137.609 348.747 137.37 349.176C135.51 352.561 132.886 355.183 130.023 357.757C127.733 359.807 125.396 361.857 122.629 363.192C120.482 364.241 118.288 365.195 115.998 365.957C113.612 366.768 111.275 367.388 108.794 367.626C108.46 367.674 108.174 367.674 107.792 367.626C106.552 367.483 104.882 368.15 104.262 367.245C103.689 366.434 104.166 364.861 104.214 363.621C104.834 354.182 105.168 344.694 106.456 335.302C106.742 333.3 106.742 331.297 106.886 329.247C108.269 330.487 109.891 331.345 111.465 332.203C115.95 334.682 120.53 336.971 125.014 339.45C129.355 341.881 133.554 344.503 137.895 346.983C138.611 347.459 138.277 348.031 138.515 348.508Z" fill="#D6FDFB"/>
<path d="M92.2881 291.25C96.1046 290.487 99.9689 289.915 103.929 290.01C106.171 290.058 108.461 289.82 110.703 290.392C112.039 291.822 112.134 293.395 111.18 295.064C110.56 295.731 109.987 296.447 109.749 297.4C108.318 299.021 107.936 301.166 106.982 303.073C106.409 304.218 105.885 305.41 105.694 306.697C105.455 308.175 104.215 308.938 102.974 309.51C101.257 310.272 99.6349 311.417 97.7267 311.798C99.6349 311.417 101.209 310.225 102.974 309.557C103.499 309.367 103.929 308.651 104.501 309.224C105.074 309.748 104.406 310.272 104.167 310.749C102.116 312.609 100.16 314.516 98.2037 316.47C97.7267 316.947 97.1542 317.185 96.534 316.661C95.8184 315.994 95.2459 315.231 94.7689 314.373C94.2918 313.562 94.4826 313.085 95.389 312.799C94.5303 313.085 93.7193 312.99 93.0514 312.323C90.2844 309.653 86.9927 307.889 83.367 306.744C81.888 306.268 81.888 305.982 82.5559 304.551C84.4642 300.594 86.8495 296.971 89.6642 293.634C89.7597 293.538 89.8074 293.443 89.9028 293.348C90.7138 292.68 91.4294 291.917 92.2881 291.25Z" fill="#8CFEE0"/>
<path d="M157.456 324.956C157.265 328.532 155.929 331.774 154.784 335.111C154.689 335.397 154.451 335.445 154.212 335.397C153.926 334.873 153.401 334.587 152.876 334.349C144.48 329.772 135.797 325.767 127.305 321.381C125.159 320.284 122.964 319.235 120.722 318.425C120.197 318.234 119.72 318.044 119.291 317.757C118.671 317.328 118.527 316.852 119.195 316.375C121.867 314.563 124.348 312.466 127.162 310.892C128.069 310.749 128.45 311.369 128.88 311.941C129.977 313.467 131.027 315.04 132.267 316.47C133.937 318.377 135.94 319.712 138.373 320.38C140.902 321.047 143.764 319.903 144.48 317.376C145.625 314.992 145.72 314.992 147.628 316.852C150.157 319.283 152.876 321.429 155.691 323.479C156.263 323.908 156.931 324.289 157.408 324.813C157.408 324.813 157.456 324.909 157.456 324.956Z" fill="#9B57FE"/>
<path d="M78.6918 338.925C75.6863 340.499 72.4422 341.452 69.389 342.882C68.9597 343.073 68.578 343.121 68.1486 342.93C66.5266 340.022 65.6679 336.923 65.3339 333.633C65.0954 331.345 65 329.104 65 326.816C65 324.766 65.0477 322.668 65.9064 320.761C66.8129 318.663 66.8129 316.375 67.4807 314.23C67.5762 313.943 67.5285 313.514 67.9101 313.324C70.0569 316.184 72.8239 318.425 75.8294 320.237C77.3083 321.142 78.0239 322.144 77.6423 323.717C77.2606 325.433 77.4992 327.15 77.4992 328.866C77.5469 331.297 77.5469 333.776 78.3102 336.113C78.4533 336.589 78.7395 337.209 78.167 337.59C77.5469 338.067 77.1175 337.447 76.6881 337.114C76.068 336.637 75.4001 336.256 74.8753 335.731C73.2056 334.73 71.9175 333.252 70.8202 332.442C71.8221 333.3 73.1101 334.73 74.8276 335.636C75.6863 336.446 76.6881 337.114 77.6423 337.781C78.1193 338.067 78.5964 338.306 78.6918 338.925Z" fill="#8CFEE0"/>
<path d="M147.772 293.586C149.155 293.967 149.918 295.064 150.634 296.113C153.258 299.879 155.786 303.693 156.931 308.222C158.076 312.656 158.124 317.185 157.885 321.715C157.838 322.811 157.981 323.908 157.504 325.004L157.408 324.909C155.834 322.954 153.64 321.762 151.827 320.094C150.109 318.568 148.296 317.042 146.674 315.421C146.006 314.754 145.816 313.991 145.959 313.038C146.913 307.889 146.913 302.692 146.674 297.448C146.674 297.162 146.722 296.828 146.579 296.59C145.911 295.159 146.674 294.301 147.772 293.586Z" fill="#9B57FE"/>
<path d="M147.772 293.586C147.772 293.729 147.819 293.967 147.724 294.015C146.34 294.73 146.817 295.875 146.913 296.971C147.342 301.214 147.151 305.457 146.77 309.7C146.674 310.797 146.674 311.893 146.34 312.99C146.006 313.991 146.34 314.659 147.151 315.421C150.3 318.33 153.544 321.142 157.074 323.622C157.647 324.003 157.504 324.384 157.408 324.861C156.263 324.623 155.548 323.765 154.689 323.097C151.97 320.999 149.203 318.902 146.817 316.423C146.531 316.137 146.149 315.898 145.72 315.564C145.338 316.232 145.052 316.804 144.718 317.376C144.575 317.424 144.48 317.424 144.337 317.328C144.146 317.138 144.05 316.899 144.146 316.661C144.909 315.135 144.146 314.134 143.096 313.133C140.377 310.463 138.803 307.078 137.467 303.503C134.366 305.553 131.742 308.079 128.832 310.225C128.403 310.749 127.687 310.654 127.21 310.988C124.443 312.942 121.676 314.897 118.814 316.899C120.483 318.187 122.487 318.616 124.252 319.426C129.643 321.905 134.748 324.957 140.138 327.34C144.814 329.438 149.107 332.156 153.735 334.301C154.26 334.539 154.594 334.778 154.164 335.35C152.924 336.351 151.874 335.207 150.729 335.064C149.489 334.825 148.439 334.063 147.39 333.443C145.959 332.632 144.48 331.869 142.762 332.06C142.524 332.108 142.285 332.012 142.047 331.965C141.617 331.869 140.854 332.013 140.949 331.393C140.997 330.821 141.713 331.011 142.19 331.011C142.381 331.059 142.238 330.821 142.238 331.011C142.238 331.059 142.19 331.011 142.094 331.011C141.856 330.964 141.665 330.821 141.474 330.678C140.949 330.058 140.329 329.581 139.566 329.39C137.562 328.961 135.94 327.626 134.175 326.768C133.698 326.434 133.126 326.196 132.649 325.862C132.219 325.624 131.79 325.529 131.408 325.195C130.883 324.67 130.263 324.432 129.5 324.67C129.07 324.814 128.546 324.766 128.116 324.623C128.021 324.575 127.926 324.48 127.83 324.384C127.687 324.051 128.307 324.051 128.164 323.669C125.779 322.239 123.298 321.095 120.626 320.284C119.959 319.998 119.529 319.331 118.766 319.283C115.856 318.902 112.946 318.949 110.083 318.377C109.368 318.234 108.509 318.234 108.127 317.424C108.08 317.281 108.127 317.138 108.27 317.042C109.32 316.613 110.369 317.042 111.371 317.185C112.898 317.424 114.425 317.519 115.951 317.71C116.858 317.805 117.335 317.567 117.669 316.756C117.859 316.28 118.241 315.898 118.575 315.374C116.285 315.374 114.091 315.707 111.944 315.946C111.419 315.994 110.894 316.184 110.465 315.66C110.417 315.421 110.513 315.231 110.656 315.088C110.751 314.992 110.894 314.897 111.037 314.849C111.371 314.706 111.753 314.611 112.087 314.516C114.615 314.42 117.144 313.753 119.72 313.896C120.245 313.943 120.626 313.61 121.008 313.324C122.248 312.227 123.68 311.417 124.92 310.368C125.302 310.034 125.874 309.891 125.731 309.176C127.448 308.89 128.403 307.46 130.025 306.411C127.639 306.506 125.636 306.077 123.584 306.077C122.821 306.077 122.201 305.934 123.059 305.028C125.254 304.599 127.496 304.837 129.691 304.885C131.36 304.933 132.696 304.456 133.793 303.073C133.269 302.597 132.601 302.597 131.981 302.501C130.931 302.358 129.929 301.977 128.927 301.643C128.498 301.5 127.926 301.31 128.164 300.642C128.355 300.07 128.88 300.07 129.404 300.165C130.549 300.499 131.694 300.88 132.839 301.214C134.652 301.786 136.274 301.739 137.515 299.736C135.368 299.784 133.316 299.498 131.265 299.45C130.74 299.45 130.072 299.689 129.929 298.83C130.12 298.64 130.311 298.449 130.549 298.258C131.551 297.686 132.601 297.829 133.65 297.972C134.843 298.163 136.083 298.068 137.276 298.211C139.232 298.449 140.711 297.638 142.047 296.304C142.953 295.35 143.955 294.492 145.148 293.967C145.863 293.443 146.77 293.157 147.772 293.586Z" fill="#181225"/>
<path d="M110.607 314.945C110.511 315.088 110.416 315.183 110.321 315.326C110.082 315.851 109.844 316.47 109.08 316.137C108.746 315.469 109.176 314.945 109.462 314.373C110.893 311.512 111.752 308.461 112.181 304.885C110.273 306.363 108.126 306.888 106.456 308.318C106.027 308.652 105.693 309.033 105.598 309.605C104.93 313.181 104.405 316.756 104.357 320.38C104.357 320.666 104.405 320.952 104.548 321.333C105.645 320.284 106.313 318.997 107.458 318.091C107.983 317.948 108.317 318.187 108.508 318.663C108.222 320.523 106.504 321.333 105.598 322.716C105.264 323.193 104.644 323.526 104.691 324.241C104.596 325.767 105.264 327.15 105.073 328.628C104.977 328.771 104.93 328.914 104.834 329.057C104.739 329.295 104.548 329.486 104.262 329.486C103.355 328.675 103.594 327.531 103.308 326.53C103.165 325.958 103.117 325.386 102.974 324.814C102.544 324.909 102.306 325.338 101.924 325.481C100.97 325.862 100.875 326.53 101.066 327.483C101.256 328.532 101.781 329.629 101.066 330.678C100.779 330.725 100.493 330.773 100.255 330.821C99.9683 330.01 99.8252 329.152 99.7774 328.294C99.7297 327.388 99.3958 326.959 98.394 327.293C95.2453 328.389 92.0967 327.96 88.948 327.293C85.6563 326.625 82.5553 325.433 79.6929 323.669C78.4526 322.906 78.2617 323.05 78.214 324.527C78.0709 329.057 78.3094 333.538 79.4544 337.924C79.5021 338.163 79.5021 338.401 79.4067 338.639C79.2636 338.973 79.025 338.973 78.7388 338.973C77.5461 337.829 75.8764 337.209 74.8746 335.731L74.9223 335.684C75.7333 336.256 76.592 336.828 77.403 337.352C77.5938 337.495 77.8801 337.734 78.1663 337.447C78.3571 337.257 78.2617 337.018 78.1663 336.78C77.2599 334.253 77.3076 331.583 77.1168 328.961C76.9259 326.959 77.0691 324.909 77.3553 322.906C77.4984 321.858 77.0214 321.381 76.4012 321.047C74.5883 320.046 73.014 318.854 71.5351 317.376C70.9626 316.804 70.1993 316.28 69.5314 315.755C68.7204 315.183 67.9094 314.516 67.9571 313.324L68.0048 313.276C68.7681 312.895 69.102 313.514 69.436 313.896C71.392 316.232 73.9204 317.853 76.258 319.712C77.0214 320.284 77.2599 320.046 77.4984 319.235C78.0232 317.281 77.8801 315.183 78.7388 313.276C78.9296 312.847 78.6434 312.513 78.2617 312.323C75.447 310.892 73.825 308.509 72.6323 305.743C72.6323 305.124 73.2048 304.837 73.4434 304.361C75.5902 304.361 77.737 304.742 79.8361 305.124C81.0287 305.314 81.6012 305.124 82.0783 304.075C83.3186 301.31 85.0838 298.83 86.6581 296.256C87.1829 295.445 87.8031 294.73 88.471 294.015C88.8526 293.586 89.282 293.109 89.9499 293.538C89.9976 293.872 89.8067 294.063 89.6159 294.301C86.7058 297.543 84.6544 301.357 82.5076 305.171C82.0306 305.982 82.6507 306.268 83.1278 306.411C85.2269 306.935 87.1352 307.841 88.9957 308.89C90.4746 309.748 91.8581 310.702 93.0031 311.941C93.7187 312.704 94.3389 312.847 95.293 312.513C95.5793 312.418 96.1517 311.846 96.3426 312.513C96.4857 313.085 95.8178 313.085 95.4361 313.228C95.2453 313.324 94.9591 313.324 94.6728 313.419C95.0068 314.659 96.0563 315.469 96.6288 316.518C98.06 317.615 98.4894 319.331 99.1573 320.856C99.1573 322.191 100.111 323.145 100.255 324.527C101.256 324.051 102.401 323.955 102.592 322.62C102.64 320.57 102.592 318.473 102.688 316.423C102.783 314.468 102.974 312.513 103.833 310.702C103.833 310.225 104.453 309.939 104.214 309.224C102.64 309.986 101.066 310.797 99.5389 311.56C98.8233 311.893 98.06 312.18 97.3444 312.513C97.1059 312.609 96.7719 312.847 96.6288 312.466C96.4857 312.132 96.7719 312.036 97.0582 311.893C98.5848 311.226 100.159 310.511 101.686 309.843C102.02 309.7 102.401 309.557 102.735 309.367C104.262 308.556 105.025 307.364 105.55 305.648C106.409 302.883 107.744 300.308 108.937 297.686C109.08 297.352 109.366 297.352 109.653 297.352C109.7 297.4 109.748 297.448 109.796 297.495C110.13 298.211 109.7 298.83 109.366 299.402C108.078 301.691 107.315 304.17 106.218 306.888C108.317 305.6 110.082 304.456 111.847 303.217C112.229 302.978 112.467 302.549 112.467 302.12C112.611 299.975 112.324 297.877 111.8 295.827C111.656 295.35 111.37 295.398 110.989 295.445C110.941 295.398 110.893 295.398 110.798 295.35C110.798 295.255 110.75 295.112 110.798 295.064C111.847 293.491 110.989 292.013 110.559 290.487C110.845 290.583 111.084 290.678 111.37 290.773C111.895 291.012 111.895 291.584 112.086 291.917C112.372 291.107 112.944 290.964 113.708 291.345C113.803 291.536 113.803 291.774 113.66 291.87C112.706 292.871 112.801 294.063 113.231 295.255C113.946 297.162 113.708 299.259 114.042 301.214C114.423 301.262 114.662 300.88 114.948 300.833C116.666 299.927 118.145 298.64 119.767 297.495C120.53 296.971 120.768 296.113 121.007 295.302C121.198 294.969 121.389 294.683 121.818 294.778C122.39 295.112 123.011 295.445 123.583 295.779C123.917 296.78 123.011 297.019 122.486 297.352C121.818 297.782 121.532 298.306 121.245 299.021C119.814 302.835 118.478 306.745 116.57 310.368C116.236 310.845 115.902 311.369 115.139 311.131C114.662 310.32 115.234 309.605 115.521 308.985C116.809 306.315 118.097 303.598 118.908 300.737C119.051 300.261 119.242 299.832 119.719 299.45C118.24 300.737 116.666 301.691 115.234 302.74C114.328 303.407 113.851 304.17 113.756 305.219C113.469 307.841 112.849 310.416 111.895 312.895C111.752 313.657 111.418 314.468 110.607 314.945Z" fill="#03A3C3"/>
<path d="M72.6331 305.743C73.3487 305.886 73.4918 306.506 73.7304 307.078C74.7322 309.414 76.3542 311.083 78.5965 312.179C79.0735 312.418 79.2643 312.704 79.1212 313.038C77.9763 315.517 78.3579 318.33 77.2607 320.904C74.3506 318.806 71.345 316.899 69.0074 314.134C68.7212 313.8 68.5303 313.276 67.9102 313.324C68.5303 312.084 69.0074 310.654 69.7707 309.653C70.7726 308.365 71.3927 306.792 72.6331 305.743Z" fill="#8CFEE0"/>
<path d="M89.9976 293.538C88.5664 293.777 88.0893 295.016 87.3737 295.97C85.5609 298.497 83.7957 301.119 82.5076 303.979C81.8397 305.41 81.1241 305.743 79.5498 305.314C77.8801 304.885 76.1149 304.79 74.3498 304.742C73.8727 304.742 73.6819 304.504 73.4434 304.313C75.1131 301.643 77.3076 299.498 79.8838 297.591C82.8416 295.445 85.9425 293.586 89.3297 292.108C89.9499 291.822 90.4746 291.393 91.238 291.536C91.0948 292.394 90.3315 292.823 89.9976 293.538Z" fill="#8EFEE1"/>
<path d="M141.426 330.439C142.046 330.821 142.857 330.487 143.763 331.202C142.714 331.25 141.903 331.297 141.139 331.345C145.004 330.964 147.818 333.157 150.776 335.064C149.011 335.159 147.294 334.968 145.576 334.73C141.903 334.205 138.134 334.635 134.508 333.633C133.363 333.347 132.314 333.014 131.264 332.441C128.497 330.868 125.682 329.39 123.059 327.579C123.631 327.054 124.299 327.34 124.871 327.483C129.308 328.723 133.84 329.343 138.372 329.962C139.422 330.105 140.519 329.676 141.426 330.439Z" fill="#675974"/>
<path d="M116.428 310.177C118.241 306.172 119.958 302.168 121.294 297.972C121.485 297.4 122.057 297.448 122.343 297.114C122.725 296.59 123.584 296.494 123.727 295.684C125.54 296.828 127.353 298.02 129.118 299.164C128.879 300.308 127.782 300.69 127.114 301.5C125.874 303.026 124.252 304.17 122.63 305.219C121.962 306.268 121.008 306.983 120.053 307.698C119.242 308.175 118.67 308.89 117.954 309.462C117.525 309.796 117.096 310.272 116.428 310.177Z" fill="#35D8CE"/>
<path d="M122.484 305.124C124.679 303.121 126.873 301.119 129.068 299.116C129.306 298.973 129.497 298.83 129.736 298.687C130.69 299.498 131.739 298.783 132.789 298.926C134.602 299.259 136.462 299.212 138.371 299.307C136.033 302.168 134.506 302.501 130.785 300.976C130.213 300.737 129.593 300.547 129.02 300.356C128.639 300.213 128.305 300.213 128.209 300.642C128.114 301.023 128.543 301.023 128.782 301.119C130.642 301.786 132.598 302.072 134.793 302.644C133.266 303.789 132.312 305.362 130.117 305.171C127.732 304.98 125.299 305.124 122.866 305.124C122.723 305.267 122.627 305.267 122.484 305.124Z" fill="#675A75"/>
<path d="M115.236 301.071C115.045 301.167 114.807 301.262 114.616 301.405C114.377 301.548 114.234 301.929 113.948 301.834C113.566 301.691 113.757 301.262 113.757 300.976C113.566 299.069 113.757 297.066 112.994 295.207C112.326 293.634 112.66 292.394 113.805 291.25C116.667 292.108 119.386 293.205 121.963 294.683C121.772 294.873 121.581 295.112 121.39 295.302C120.245 297.4 118.194 298.592 116.429 300.022C116.047 300.356 115.57 300.642 115.236 301.071Z" fill="#8CFEE0"/>
<path d="M144.956 293.872C143.286 295.35 141.664 296.828 139.946 298.306C139.613 298.592 139.135 298.497 138.706 298.497C135.939 298.64 133.172 298.163 130.357 298.163C131.979 296.447 134.031 295.255 135.748 293.681C135.844 293.586 136.035 293.538 136.13 293.586C139.088 294.158 142.046 293.681 144.956 293.872Z" fill="#6A5C77"/>
<path d="M104.263 324.098C104.12 323.526 104.502 323.288 104.883 322.906C106.124 321.619 107.316 320.332 108.318 318.854C109.32 318.473 109.749 319.426 110.513 319.712C111.276 320.189 112.087 320.523 112.898 320.999C113.28 321.19 113.852 321.238 113.757 321.905C111.849 323.383 109.94 324.909 108.08 326.387C107.269 327.007 106.553 327.722 106.124 328.675C105.838 329.152 105.313 328.914 104.931 329.057C104.931 328.914 104.931 328.771 104.931 328.628C104.979 328.58 105.074 328.484 105.122 328.389C106.744 326.291 106.744 326.291 104.788 324.623C104.549 324.48 104.406 324.289 104.263 324.098Z" fill="#30CFCB"/>
<path d="M131.551 324.909C131.933 325.1 132.315 325.338 132.696 325.529C132.649 326.148 132.172 326.148 131.742 326.196C128.307 326.577 124.825 326.911 121.342 326.72C118.909 325.147 116.476 323.622 114.043 322.048C114.472 321.572 114.997 321.619 115.522 321.762C119.338 322.668 123.155 323.574 127.115 324.003C127.353 324.051 127.544 324.194 127.735 324.337C129.023 324.718 130.359 324.146 131.551 324.909Z" fill="#685A75"/>
<path d="M121.391 326.673C122.297 326.148 123.299 326.291 124.253 326.291C127.068 326.244 129.93 326.148 132.697 325.529C133.174 325.815 133.651 326.101 134.128 326.387C132.411 327.15 130.55 326.911 128.785 327.245C128.07 327.388 127.259 327.34 126.543 327.388C130.359 328.246 134.224 328.771 138.136 329.2C138.613 329.247 139.185 329.533 139.615 329.057C140.33 329.39 141.237 329.486 141.427 330.439C137.706 330.392 133.985 329.867 130.359 329.104C127.926 328.628 125.493 328.055 123.06 327.531C122.488 327.293 121.963 326.959 121.391 326.673Z" fill="#342B43"/>
<path d="M127.783 324.337C123.632 324.194 119.673 323.097 115.665 322.191C115.141 322.096 114.664 321.953 114.091 322.048C113.948 322.001 113.853 322.001 113.709 321.953C112.564 321.286 111.467 320.618 110.322 319.998C110.465 319.235 111.086 319.378 111.563 319.378C113.662 319.331 115.761 318.902 117.908 319.188C118.289 319.235 118.671 319.235 119.005 318.902C119.673 319.045 120.007 319.617 120.484 320.046C119.148 320.856 117.574 320.523 116.142 320.713C115.57 320.809 114.998 320.761 114.425 320.666C119.053 322.096 123.823 322.811 128.594 323.574C128.737 323.622 128.976 323.669 129.023 323.765C129.119 323.955 128.928 324.051 128.737 324.098C128.403 324.098 128.021 323.955 127.783 324.337Z" fill="#312840"/>
<path d="M89.9991 293.538C89.856 292.537 90.667 292.156 91.1918 291.536C91.5734 291.441 91.9074 291.345 92.289 291.25C91.7642 292.251 91.0009 293.062 89.9991 293.538Z" fill="#03A3C3"/>
<path d="M113.802 291.25C112.848 290.869 112.61 291.822 111.99 292.251C111.799 291.727 111.656 291.202 111.465 290.678C112.276 290.773 113.087 290.726 113.802 291.25Z" fill="#7FEDDF"/>
<path d="M102.687 359.521C102.543 361.81 102.305 364.098 102.305 366.387C102.305 367.34 101.828 367.34 101.303 367.292C98.2021 367.006 95.1489 366.339 92.3342 365.004C91.2369 364.003 90.9507 362.572 90.4259 361.285C89.4241 358.949 88.8516 356.613 89.281 353.991C89.9966 349.891 89.5672 345.695 89.6149 341.548C89.6149 340.356 89.7103 339.116 89.6149 337.924C89.5672 337.543 89.6149 337.161 89.9966 336.875C92.4296 335.636 95.0058 334.778 97.5819 334.015C98.0113 334.396 98.0113 334.968 98.1067 335.493C99.0131 340.546 99.8241 345.648 101.017 350.701C101.637 353.562 102.209 356.518 102.687 359.521Z" fill="#008BC1"/>
<path d="M74.0178 342.882C77.5004 341.452 80.9353 339.974 84.5133 338.925C85.5152 340.546 85.2766 342.501 85.6106 344.265C86.2307 347.65 86.9941 350.987 87.9959 354.277C88.7592 356.756 88.8069 359.187 88.0436 361.619C87.9005 362.048 87.8051 362.477 87.3757 362.715C82.7959 360.951 78.9316 358.234 76.1169 354.134C75.2105 351.13 74.4949 348.079 74.0178 345.028C73.8747 344.265 73.4454 343.55 74.0178 342.882Z" fill="#008AC0"/>
<path d="M79.3595 338.592C78.0237 334.444 77.5944 330.201 77.7852 325.862C77.7852 325.719 77.7852 325.576 77.7852 325.433C77.9283 324.48 77.3081 323.145 78.1668 322.716C78.9779 322.334 79.932 323.336 80.7907 323.812C85.2751 326.387 90.0935 327.674 95.2935 327.531C96.4385 327.483 97.6312 327.245 98.633 326.721C99.4917 326.244 99.8257 326.53 99.9688 327.245C100.207 328.437 100.446 329.581 100.207 330.773C97.3449 332.251 94.244 333.109 91.2862 334.253C87.6128 335.684 83.9394 337.066 80.3136 338.449C80.0274 338.592 79.6935 338.782 79.3595 338.592Z" fill="#8CFEE0"/>
<path d="M87.3741 362.62C88.1374 359.807 88.5191 357.09 87.5649 354.086C85.9429 349.176 85.0365 344.027 84.5117 338.878C84.7503 338.735 84.9888 338.544 85.2273 338.401C86.1337 338.639 86.0383 339.45 86.1337 340.07C86.7539 344.265 87.3741 348.461 88.5191 352.322C88.8053 347.984 88.6145 343.407 88.6622 338.782C88.6622 338.21 88.6622 337.591 88.9961 337.114C89.2824 337.018 89.5686 336.923 89.9026 336.828C89.9026 341.357 89.9503 345.886 89.9503 350.368C89.9503 351.798 89.9026 353.276 89.6163 354.658C89.0439 357.328 90.2842 359.521 91.0952 361.857C91.4292 362.906 91.9063 363.907 92.3356 364.909C91.7631 365.052 91.3815 364.622 90.9521 364.336C89.998 363.288 89.9026 361.857 89.2347 360.665C88.7576 361.428 89.2824 362.62 88.0897 362.954C87.8512 362.906 87.6127 362.763 87.3741 362.62Z" fill="#C2F0F5"/>
<path d="M89.0423 337.114C89.1854 342.787 89.2331 348.413 88.7083 354.086C87.8973 352.275 87.6111 350.272 87.134 348.365C86.4184 345.266 85.989 342.12 85.6074 338.973C85.5597 338.782 85.3689 338.592 85.2734 338.353C86.5138 337.972 87.8019 337.543 89.0423 337.114Z" fill="#018BC0"/>
<path d="M102.687 359.521C101.781 357.519 101.686 355.326 101.161 353.228C99.7297 347.459 98.7278 341.643 97.726 335.779C97.6306 335.159 97.5829 334.539 97.5352 333.92C98.1076 333.681 98.6324 333.443 99.2049 333.252C99.7297 333.395 99.9205 333.872 100.111 334.301C101.209 336.685 102.21 339.068 103.355 341.452C103.642 342.072 103.737 342.739 103.832 343.407C103.737 344.027 103.689 344.647 103.594 345.266C103.021 345.171 102.783 344.742 102.592 344.313C101.59 342.072 100.35 339.927 99.4911 337.638C99.348 337.304 99.2049 336.923 99.348 336.78C99.348 338.496 100.016 340.26 100.302 342.072C100.875 346.124 102.02 350.082 102.687 354.134C102.783 354.706 102.783 355.278 102.878 355.85C102.735 357.042 102.735 358.282 102.687 359.521Z" fill="#C2F0F5"/>
<path d="M103.787 343.407C102.26 340.022 100.734 336.637 99.207 333.252C101.258 332.394 103.31 331.583 105.552 330.678C104.598 335.016 104.407 339.212 103.787 343.407Z" fill="#0089C0"/>
<path d="M102.783 355.803C101.829 354.039 101.876 351.988 101.447 350.081C100.493 345.886 99.8251 341.595 99.0141 337.352C98.9187 336.828 98.9187 336.494 99.2049 336.017C100.588 339.164 101.972 342.263 103.594 345.219C103.499 348.794 103.165 352.275 102.783 355.803Z" fill="#018CC0"/>
<path d="M75.162 352.894C72.9675 350.701 71.3931 348.079 69.9142 345.362C69.6757 344.932 69.4849 344.599 70.1528 344.36C71.3454 343.931 72.4904 343.455 73.6354 343.025C74.3033 345.743 74.5895 348.556 75.3528 351.321C75.4482 351.702 76.0684 352.465 75.162 352.894Z" fill="#0189BF"/>
<path d="M101.064 330.63C101.064 329.343 100.921 328.055 100.587 326.816C100.397 326.148 100.635 325.672 101.112 325.481C101.971 325.195 102.496 324.527 103.211 323.86C103.593 325.815 103.927 327.626 104.261 329.486C103.211 329.867 102.114 330.248 101.064 330.63Z" fill="#8AFDE0"/>
<path d="M75.1615 352.894C74.6367 350.081 74.1596 347.221 73.5872 344.408C73.4918 343.931 73.5395 343.455 73.6349 343.025C73.778 342.978 73.9211 342.93 74.0642 342.882C74.6367 346.315 75.3046 349.748 76.211 353.133C76.3064 353.466 76.4019 353.752 76.1633 354.086C75.8294 353.609 75.2092 353.466 75.1615 352.894Z" fill="#ABE4EE"/>
<path d="M103.929 310.654C103.118 314.706 103.023 318.806 103.07 322.906C101.21 323.192 100.065 322.096 99.0154 320.856C98.2521 319.426 97.4887 317.948 96.6777 316.518C97.3456 316.995 97.7273 316.47 98.1089 316.089C100.017 314.229 101.83 312.275 103.929 310.654Z" fill="#38D9CF"/>
<path d="M109.703 297.305C109.369 296.208 109.989 295.636 110.896 295.255L110.943 295.302C111.182 296.304 110.896 297.066 109.798 297.352L109.703 297.305Z" fill="#03A3C3"/>
<path d="M144.29 317.328C144.433 317.376 144.576 317.376 144.719 317.424C144.481 319.14 142.429 320.809 140.426 320.904C137.182 321.047 134.749 319.378 132.554 317.281C131.027 315.803 129.93 314.039 128.738 312.323C128.356 311.798 128.213 310.892 127.211 311.083C127.449 310.463 128.165 310.511 128.547 310.129C129.453 310.892 129.835 312.036 130.503 312.942C132.125 315.278 134.081 317.233 136.466 318.711C138.565 319.998 140.712 320.094 142.859 318.759C143.479 318.663 143.765 318.187 144.004 317.662C144.099 317.519 144.195 317.424 144.29 317.328Z" fill="#341F5F"/>
<path d="M74.8273 335.684C72.4419 335.016 71.2493 332.966 69.7227 331.297C71.3924 332.823 73.253 334.063 74.875 335.636L74.8273 335.684Z" fill="#2FC8D1"/>
<path d="M143.143 318.759C140.996 320.713 138.182 320.141 135.987 318.806C132.839 316.899 130.739 314.086 128.879 311.035C128.688 310.749 128.688 310.415 128.545 310.082C130.978 308.079 133.411 306.077 135.939 304.17C136.464 303.741 136.846 302.787 137.561 302.978C138.182 303.169 137.991 304.17 138.229 304.742C139.613 308.079 141.33 311.226 144.05 313.705C144.861 314.42 144.908 315.183 144.622 316.089C144.479 316.47 144.145 316.852 144.193 317.328H144.24C144.05 317.9 143.716 318.425 143.143 318.759Z" fill="#9B57FE"/>
<path d="M145.051 313.371C142.189 310.32 139.755 306.983 138.754 302.787C138.515 301.691 139.326 301.167 139.946 300.642C141.521 299.212 143.19 297.972 144.765 296.542C145.623 295.779 145.719 296.161 145.91 297.019C146.339 299.021 146.196 301.071 146.196 303.074C146.196 306.22 146.1 309.414 145.528 312.513C145.433 312.799 145.48 313.085 145.051 313.371Z" fill="#9A56FE"/>
<path d="M107.506 318.234C106.647 319.426 105.789 320.618 104.882 321.762C104.739 321.953 104.596 322.191 104.31 322.048C104.071 321.905 104.119 321.667 104.071 321.428C103.833 318.616 104.214 315.85 104.691 313.133C104.834 312.322 104.882 311.512 104.978 310.702C105.121 308.89 106.075 307.698 107.601 307.078C109.319 306.363 110.845 305.314 112.706 304.17C112.42 306.363 112.038 308.222 111.561 310.129C111.036 312.227 109.844 314.086 109.176 316.137C109.176 316.756 108.699 316.852 108.269 317.042C108.174 317.09 108.126 317.09 108.078 317.138C107.888 317.519 107.84 317.948 107.506 318.234Z" fill="#38D8CF"/>
<path d="M110.607 314.945C112.373 311.798 113.184 308.413 113.565 304.885C113.661 303.836 114.09 303.073 115.044 302.454C116.762 301.357 118.384 300.118 120.149 298.83C118.956 302.883 117.239 306.554 115.569 310.225C115.474 310.463 115.426 310.749 115.378 311.035C115.426 311.56 114.996 311.846 114.71 312.227C114.567 312.37 114.424 312.513 114.281 312.609C113.947 312.895 113.565 313.085 113.231 313.419C113.088 313.562 112.945 313.657 112.802 313.8C112.277 314.325 111.562 314.611 110.894 314.992H110.751L110.607 314.945Z" fill="#39D8CF"/>
<path d="M114.091 312.322C114.187 312.227 114.282 312.179 114.377 312.084C115.427 312.179 115.475 312.227 115.761 313.753C116.667 313.276 117.574 312.942 118.623 313.371C118.957 313.514 119.625 313.276 119.434 312.895C118.623 311.274 120.341 310.797 120.865 310.701C122.392 310.368 122.344 309.51 122.154 308.413C122.201 308.222 122.535 308.175 122.44 308.032C122.249 307.793 122.058 308.127 121.867 308.175C121.199 308.032 120.198 308.651 119.959 307.364C120.818 306.601 121.677 305.839 122.535 305.076C122.631 305.076 122.774 305.076 122.869 305.123C122.631 305.6 122.774 305.696 123.251 305.696C125.636 305.696 128.069 305.696 130.502 305.982C128.737 307.03 127.974 309.51 125.445 309.176C125.398 309.176 125.35 309.176 125.255 309.128C125.064 309.176 124.73 308.508 124.682 309.271C124.539 309.748 124.968 309.986 125.159 310.32C123.871 311.703 122.106 312.465 120.77 313.753C120.532 313.991 120.15 314.229 119.864 314.182C117.144 313.896 114.52 314.754 111.801 314.706C111.754 314.468 111.849 314.229 112.04 314.277C112.946 314.515 112.421 313.705 112.66 313.467C112.755 313.371 112.851 313.324 112.946 313.228C113.423 313.085 113.996 313.038 114.091 312.322Z" fill="#675974"/>
<path d="M128.641 323.479C127.162 323.955 125.731 323.431 124.348 323.192C120.77 322.62 117.287 321.715 113.757 320.904C113.518 320.856 113.328 320.713 113.137 320.38C115.617 320.237 118.098 320.094 120.579 319.951C123.298 320.475 125.684 321.81 128.021 323.24C128.164 323.336 128.403 323.383 128.641 323.479Z" fill="#685975"/>
<path d="M139.661 329.057C139.471 329.581 139.28 329.772 138.087 329.629C134.08 329.057 129.977 328.723 126.065 327.579C125.922 327.531 125.731 327.436 125.588 327.15C128.45 326.911 131.313 326.673 134.175 326.434C136.036 327.197 137.658 328.532 139.661 329.057Z" fill="#675974"/>
<path d="M108.27 316.995C108.556 316.709 108.842 316.375 109.176 316.089C109.558 315.851 109.939 315.564 110.369 315.326C111.657 315.66 112.897 315.231 114.137 315.135C115.807 315.04 117.429 314.849 119.242 314.659C118.813 315.946 117.191 316.566 117.668 318.139C114.519 317.948 111.37 317.567 108.27 316.995Z" fill="#675974"/>
<path d="M107.506 318.234C107.411 317.71 107.602 317.376 108.079 317.138C109.128 318.139 110.512 317.948 111.752 318.139C114.185 318.52 116.618 318.616 119.099 318.854C118.908 319.76 118.193 319.379 117.668 319.379C115.235 319.474 112.802 319.474 110.369 319.951C109.701 319.569 108.985 319.235 108.317 318.854C108.174 318.52 107.888 318.282 107.506 318.234Z" fill="#665873"/>
<path d="M125.159 310.368C124.682 310.129 123.442 310.225 124.587 309.224C124.873 308.985 125.159 309.033 125.445 309.224C126.256 309.843 125.589 310.082 125.159 310.368Z" fill="#695B76"/>
<path d="M131.55 324.909C130.262 324.814 128.974 324.766 127.781 324.337C129.022 324.575 130.453 323.526 131.55 324.909Z" fill="#312840"/>
<path d="M112.661 313.514C113.138 314.468 112.183 314.42 111.802 314.754C111.516 314.897 111.229 315.135 110.848 314.992C111.468 314.516 112.04 313.991 112.661 313.514Z" fill="#695B76"/>
<path d="M94.2449 326.721C89.999 326.816 86.1347 325.576 82.3659 323.765C81.1733 323.193 80.1237 322.477 78.9787 321.858C78.2631 321.476 78.0246 320.999 78.2154 320.237C78.6925 318.044 79.2173 315.803 79.5989 313.61C79.6943 312.99 79.8375 312.942 80.4099 313.133C84.4173 314.516 88.4724 314.802 92.6229 313.896C93.243 313.753 93.7678 313.943 94.2926 314.611C96.5825 317.662 98.2522 320.952 99.3972 324.575C99.6357 325.386 99.4449 325.672 98.7293 325.958C97.2027 326.434 95.7715 326.721 94.2449 326.721Z" fill="#8CFEE0"/>
<path d="M92.9071 313.038C88.8044 313.896 84.8447 313.8 80.9805 312.561C80.2649 312.323 79.9309 311.893 80.2649 311.131C80.7419 309.939 81.1713 308.699 81.6484 307.507C81.8392 307.031 82.0777 306.935 82.6502 307.078C86.5144 308.175 89.9493 310.082 92.9071 313.038Z" fill="#8CFEE0"/>
<path d="M109.798 297.352C110.466 296.828 110.704 296.065 110.943 295.302C111.229 295.016 111.563 294.73 111.945 294.349C112.756 297.066 113.042 299.736 112.899 302.454C112.899 302.644 112.708 302.93 112.565 303.073C110.37 304.551 108.224 305.982 105.934 307.364C106.745 304.551 107.746 301.882 109.035 299.307C109.321 298.687 109.798 298.115 109.798 297.352Z" fill="#8CFEE0"/>
<path d="M122.294 308.318C122.294 308.985 123.153 309.557 122.581 310.32C122.39 310.558 122.199 310.988 122.008 310.892C120.959 310.272 120.72 311.798 119.861 311.655C119.623 311.607 119.336 311.989 119.623 312.322C119.957 312.656 120.386 312.895 119.814 313.467C119.289 313.991 118.621 314.086 118.096 313.753C117.428 313.324 116.999 313.467 116.474 313.943C116.045 314.325 115.377 314.373 114.995 314.039C114.47 313.657 115.329 313.467 115.329 313.181C115.281 312.656 114.995 312.179 114.375 312.132C114.709 311.798 114.995 311.417 115.329 311.083C115.806 310.94 116.188 310.606 116.426 310.177C117.571 309.271 118.764 308.365 119.909 307.46C120.386 308.365 121.388 307.603 121.96 308.079C122.247 307.984 122.294 308.079 122.294 308.318Z" fill="#695B76"/>
<path d="M76.212 305.791C77.1185 305.934 78.7405 306.125 80.3148 306.411C80.935 306.506 81.2213 306.697 80.8873 307.46C80.3625 308.652 79.6946 309.891 79.7423 311.226C79.7423 311.989 79.4561 311.798 79.0744 311.607C76.6891 310.463 75.1148 308.604 74.113 306.22C73.8744 305.648 73.9221 305.6 76.212 305.791Z" fill="#8BFDE0"/>
<path d="M99.0143 320.856C100.302 321.619 101.495 322.668 103.069 322.906C102.592 324.337 101.161 324.337 100.016 325.29C100.016 323.574 98.8712 322.382 99.0143 320.856Z" fill="#8CFEE0"/>
<path d="M104.261 324.098C104.643 324.337 105.024 324.527 105.358 324.766C107.219 326.101 107.028 327.579 104.834 328.675C104.69 327.15 104.118 325.672 104.261 324.098Z" fill="#8AFCE0"/>
<path d="M115.236 301.071C116.19 299.402 117.908 298.64 119.244 297.4C119.959 296.733 120.484 295.779 121.39 295.302C121.295 296.399 120.77 297.257 119.816 297.877C118.29 298.926 116.906 300.165 115.236 301.071Z" fill="#3BD9CF"/>
<path d="M143.145 318.759C143.335 318.091 143.765 317.662 144.337 317.328C144.289 318.091 144.194 318.806 143.145 318.759Z" fill="#181225"/>
<path d="M114.088 312.322C114.279 313.324 113.897 313.705 112.943 313.276C113.325 312.99 113.707 312.656 114.088 312.322Z" fill="#695B76"/>
<path d="M122.297 308.318C122.201 308.222 122.106 308.127 122.01 308.079C122.01 307.889 121.677 307.507 122.106 307.603C122.583 307.698 123.108 307.889 123.442 308.365C122.965 308.747 122.631 308.222 122.297 308.318Z" fill="#181225"/>
<path d="M125.491 309.224C125.205 309.224 124.919 309.224 124.632 309.224C124.537 308.985 124.012 308.938 124.155 308.652C124.346 308.222 124.728 308.413 124.966 308.652C125.157 308.795 125.3 309.033 125.491 309.224Z" fill="#181225"/>
<g clip-path="url(#clip1)">
<path d="M365.221 42.3137C365.973 42.348 366.213 42.9653 366.555 43.4798C373.809 54.3173 370.866 69.8191 360.122 77.6043C351.021 84.1549 339.114 84.1549 330.046 77.5357C322.142 71.774 318.207 61.0736 320.466 51.5736C323.032 40.7704 331.312 33.2252 342.296 31.7848C344.041 31.5447 345.82 31.7505 347.599 31.7162C348.284 31.7162 348.66 32.0592 348.728 32.7108C349.207 33.2595 349.036 33.8769 348.934 34.4942C347.531 41.765 346.162 49.0357 344.759 56.3065C344.794 57.3011 345.307 57.1639 345.82 56.718C348.763 54.1115 352.047 51.9509 355.127 49.5159C358.07 47.1837 361.012 44.8859 364.023 42.6566C364.4 42.4509 364.707 42.005 365.221 42.3137Z" fill="#020A13"/>
<path d="M366.23 39.6805C366.983 39.7148 367.223 40.3321 367.565 40.8466C374.819 51.6841 371.876 67.1859 361.132 74.9711C352.031 81.5217 340.123 81.5217 331.056 74.9025C323.152 69.1408 319.217 58.4404 321.476 48.9404C324.042 38.1372 332.322 30.5921 343.306 29.1516C345.051 28.9116 346.83 29.1173 348.609 29.083C349.293 29.083 349.67 29.426 349.738 30.0776C350.217 30.6264 350.046 31.2437 349.944 31.861C348.541 39.1318 347.172 46.4025 345.769 53.6733C345.803 54.6679 346.317 54.5307 346.83 54.0848C349.772 51.4783 353.057 49.3177 356.137 46.8827C359.079 44.5505 362.022 42.2527 365.033 40.0235C365.409 39.8177 365.717 39.3718 366.23 39.6805Z" fill="#00C6FC"/>
<path d="M351.106 30.7978C351.414 29.9404 351.825 29.7003 352.851 29.9747C357.71 31.3122 361.748 33.9187 365.135 37.5884C365.306 37.7942 365.375 38.1029 365.511 38.3429C365.614 39.0631 365.032 39.3375 364.588 39.6462C359.318 43.796 353.912 47.7743 348.643 51.9584C348.13 52.37 347.582 53.3303 346.693 52.4043C346.59 50.3808 347.24 48.4603 347.582 46.5054C348.403 41.9783 349.225 37.4169 350.183 32.9241C350.354 32.1696 350.388 31.3465 351.106 30.7978Z" fill="#007BFF"/>
<path d="M346.796 94.9657C336.052 95.0343 327.6 92.1192 320.176 86.2545C319.765 85.9459 319.012 85.6372 319.56 84.9513C320.039 84.334 320.552 84.7798 321.031 85.1571C327.019 89.8899 333.862 92.6336 341.355 93.4567C349.362 94.3141 357.027 92.908 364.212 88.9639C368.797 86.4603 372.903 83.408 376.188 79.2924C376.564 78.8123 377.043 78.1607 377.727 78.6751C378.549 79.3267 377.659 79.7383 377.317 80.1841C373.895 84.574 369.618 87.9351 364.691 90.4044C358.258 93.5939 353.023 95.1715 346.796 94.9657Z" fill="#020A13"/>
<path d="M345.77 13.6498C334.376 13.7184 324.659 17.8682 316.686 26.0307C315.763 26.9566 314.976 28.0198 314.086 28.9801C313.812 29.2888 313.539 29.8718 312.991 29.3917C312.546 29.0144 312.786 28.5 313.059 28.157C314.223 26.7509 315.352 25.3104 316.652 24.0415C323.188 17.7653 330.852 13.8556 339.885 12.5523C342.828 12.1408 345.805 12.3122 348.747 12.2437C349.329 12.2437 350.047 12.2437 350.013 13.0325C349.979 13.9242 349.192 13.6155 348.679 13.6155C347.686 13.6841 346.728 13.6498 345.77 13.6498Z" fill="#020A13"/>
<path d="M347.104 52.5415C353.229 47.8087 359.388 43.0758 365.513 38.343C366.197 37.8628 366.916 37.3827 367.6 36.8682C367.942 36.5939 368.49 36.3881 368.387 35.8736C368.284 35.3592 367.703 35.3935 367.292 35.2563C366.813 35.1191 366.3 35.0505 365.821 34.8791C365.479 34.7762 365.205 34.5018 365.308 34.0903C365.376 33.713 365.718 33.5072 366.095 33.5758C367.703 33.9188 369.311 34.2617 370.885 34.639C371.261 34.7419 371.638 35.0505 371.501 35.5307C371.159 36.7996 371.295 38.1372 371.193 39.4404C371.159 39.9206 371.022 40.4007 370.44 40.3664C369.756 40.2978 369.653 39.8177 369.79 39.2347C369.927 38.5487 369.995 37.8971 369.824 37.1083C368.421 37.7256 367.395 38.7545 366.266 39.6462C359.833 44.6191 353.4 49.5921 346.968 54.5307C346.181 55.148 345.359 55.7653 345.291 54.0162C345.804 53.4675 346.01 52.4729 347.104 52.5415Z" fill="#007BFF"/>
<path d="M347.105 52.5415C346.489 53.0559 345.873 53.5361 345.223 54.0505C346.728 46.0595 348.234 38.1029 349.739 30.1119C350.047 28.74 350.355 27.3682 350.629 25.9964C350.731 25.4476 350.492 25.2418 349.945 25.4819C349.294 25.7906 348.644 26.1335 347.96 26.4765C347.549 26.6823 347.173 26.6823 346.865 26.3393C346.489 25.8935 346.797 25.5505 347.139 25.3447C348.507 24.5216 349.876 23.7328 351.279 23.0126C351.758 22.7725 352.169 23.1155 352.442 23.4585C353.264 24.4873 354.05 25.5162 354.837 26.5451C355.111 26.8881 355.282 27.2996 354.837 27.574C354.461 27.814 354.119 27.6426 353.777 27.3339C352.1 25.8935 352.1 25.8935 351.587 28.1227C351.382 29.0144 350.834 29.8032 351.039 30.7635C349.705 37.6227 348.405 44.4819 347.105 51.3068C347.105 51.7527 347.139 52.1642 347.105 52.5415Z" fill="#020A13"/>
<path d="M387 53.7419C386.863 58.8863 385.973 63.9278 384.126 68.7293C383.955 69.2094 383.818 70.0325 383.031 69.6895C382.346 69.4152 382.552 68.7293 382.791 68.2148C385.118 62.4531 385.734 56.417 385.357 50.278C385.255 48.7347 384.981 47.2257 384.776 45.7166C384.707 45.2708 384.57 44.7563 385.152 44.5849C385.871 44.3791 386.042 44.9621 386.144 45.4423C386.589 48.1516 387.068 50.9296 387 53.7419Z" fill="#020A13"/>
<path d="M312.341 15.3988C312.238 15.5017 312.135 15.7418 311.964 15.8447C311.485 16.1191 311.212 15.7418 310.972 15.4331C309.706 14.0613 308.44 12.6895 307.208 11.249C304.574 8.23098 301.973 5.14434 299.373 2.05769C299.236 1.88621 299.031 1.74903 298.928 1.54325C298.723 1.1317 298.175 0.685853 298.723 0.205709C299.304 -0.308732 299.681 0.274301 299.989 0.617261C301.939 2.77791 303.855 4.93856 305.737 7.13351C307.653 9.36275 309.569 11.6263 311.485 13.8555C311.828 14.3014 312.204 14.7129 312.341 15.3988Z" fill="#020A13"/>
<path d="M306.899 23.0813C306.557 23.9044 305.838 23.63 305.256 23.39C303.443 22.6354 301.63 21.8123 299.816 21.0235C298.105 20.269 296.394 19.5488 294.718 18.7943C294.307 18.6228 293.828 18.3141 294.033 17.7997C294.307 17.1138 294.889 17.3881 295.334 17.5939C298.926 19.1029 302.485 20.612 306.078 22.121C306.454 22.2925 306.796 22.4983 306.899 23.0813Z" fill="#020A13"/>
</g>
<defs>
<clipPath id="clip0">
<rect width="24" height="39" fill="white" transform="translate(7.92969 57) rotate(11.7308)"/>
</clipPath>
<clipPath id="clip1">
<rect width="93" height="95" fill="white" transform="translate(294)"/>
</clipPath>
</defs>
</svg>
