<svg width="478" height="457" viewBox="0 0 478 457" fill="none" xmlns="http://www.w3.org/2000/svg">
<path fill-rule="evenodd" clip-rule="evenodd" d="M44.2802 266.13C47.3544 228.864 85.3244 206.289 99.6783 171.762C114.993 134.924 97.4479 81.6644 130.348 59.1042C162.793 36.8559 208.055 58.0416 244.72 72.3031C274.507 83.8891 289.638 115.151 316.982 131.699C355.617 155.079 414.733 148.682 436.407 188.303C458.093 227.947 442.226 280.313 419.71 319.489C398.189 356.934 356.645 375.284 317.935 394.431C281.245 412.58 243.523 428.388 202.617 426.872C159.108 425.258 112.588 416.706 82.0313 385.685C51.9695 355.167 40.7583 308.824 44.2802 266.13Z" fill="#83C0F8"/>
<circle cx="264" cy="79.9999" r="35" fill="#FDFDFD"/>
<circle cx="264" cy="75.9999" r="33.5" stroke="black" stroke-width="3"/>
<path d="M263 54.9999V77.9999H275" stroke="black" stroke-width="3"/>
<g clip-path="url(#clip0)">
<path d="M310.482 320.817C310.383 320.817 310.236 320.818 310.138 320.916C307.14 322.536 304.389 321.897 301.735 319.934C300.605 319.099 299.278 318.559 298.05 317.921C297.313 317.921 296.821 317.43 296.232 317.136C289.893 313.601 283.554 309.969 277.167 306.434C276.528 306.091 275.889 305.845 275.201 305.747C271.614 305.207 268.076 304.52 264.489 303.931C263.949 303.833 263.359 303.735 262.819 303.685C248.864 301.28 234.86 298.924 220.905 296.518C220.266 296.42 219.676 296.322 219.037 296.322C218.497 296.175 217.907 296.077 217.465 295.684C216.482 295.488 215.5 295.242 214.32 294.997C214.91 294.555 215.352 294.162 215.794 293.819C230.339 282.724 245.866 273.152 261.885 264.316C271.123 259.26 280.41 254.351 289.795 249.54C290.237 249.295 290.679 249.049 291.072 248.755C292.743 247.135 294.807 246.497 297.067 246.84C299.966 247.233 302.914 247.086 305.814 247.184C310.187 247.331 314.56 247.43 318.933 247.528C325.567 247.675 332.2 247.724 338.834 247.724C340.848 247.724 342.814 247.479 344.779 247.38C346.106 247.331 346.253 247.38 346.794 248.608C348.759 252.289 350.676 255.971 351.806 259.996C356.032 275.018 353.083 288.517 343.305 300.593C343.059 300.936 342.814 301.28 342.519 301.624C341.34 303.293 339.865 304.667 338.342 305.944C330.529 312.62 321.488 317.185 311.808 320.523C311.415 320.768 310.973 320.965 310.482 320.817Z" fill="#FE0E11"/>
<path d="M263.408 197.359C263.26 197.212 263.162 196.966 263.015 196.966C261.393 196.917 261.835 196.181 262.376 195.297C264.489 191.91 266.7 188.67 269.255 185.627C273.432 180.62 278.591 176.938 284.488 174.238C287.141 173.06 289.893 171.98 292.89 171.98C293.578 171.98 294.168 172.176 294.855 172.274C295.249 172.765 295.445 173.354 295.642 173.943C296.526 177.036 296.821 180.227 297.214 183.369C297.705 187.345 298 191.37 298.344 195.346C298.442 196.426 298.344 197.506 298.59 198.586C298.688 199.224 298.983 199.568 299.671 199.519C302.816 199.371 305.96 199.372 309.105 199.126C309.744 199.077 310.334 199.028 310.972 199.077C312.987 199.175 314.953 198.832 316.918 198.832C317.753 198.832 318.196 198.341 318.54 197.702C319.424 196.23 320.063 194.61 320.751 193.039C323.797 186.019 326.5 178.852 329.202 171.734C329.35 171.342 329.448 170.9 329.546 170.507C329.841 169.967 329.988 169.378 330.431 168.936C331.413 167.366 331.708 167.267 333.674 167.709C336.327 168.347 338.833 169.427 341.29 170.556C347.088 173.256 352.739 176.202 357.997 179.834C361.19 182.043 363.746 184.89 365.957 188.081C366.252 188.523 366.448 189.063 366.94 189.308C367.333 189.308 367.382 189.603 367.431 189.848C368.217 192.843 369.102 195.837 370.035 198.782C370.084 199.028 370.133 199.224 370.084 199.47C369.937 199.911 369.495 200.059 369.102 200.157C368.315 199.961 367.775 200.501 367.185 200.844C366.153 200.697 365.171 201.041 364.188 201.286C358.685 202.562 353.181 203.74 347.678 205.066C347.58 205.066 347.53 205.017 347.481 205.017C347.137 204.82 347.088 204.035 346.597 204.28C346.056 204.526 346.351 205.213 346.449 205.655C346.892 208.257 347.186 210.907 347.481 213.509C347.53 213.853 347.53 214.196 347.432 214.54C347.334 214.785 347.186 214.982 346.941 215.129C346.253 215.031 345.565 214.884 344.877 215.031C336.081 216.798 327.188 218.123 318.392 219.989C313.478 221.02 308.663 222.198 303.897 223.769C302.177 224.358 301.882 224.211 301.194 222.443C297.951 214.491 294.659 206.588 291.367 198.635C290.679 197.015 290.679 196.966 289.008 197.064C285.028 197.261 281.097 197.653 277.117 197.899C273.186 198.144 269.255 198.586 265.324 198.733C264.98 198.733 264.341 198.881 264.44 198.292C264.734 197.408 263.948 197.555 263.408 197.359Z" fill="#007BFF"/>
<path d="M367.432 200.844C367.677 199.862 368.267 199.715 369.102 200.157C369.545 200.304 369.594 200.697 369.741 201.09C371.952 207.864 373.82 214.785 374.95 221.854C375.048 222.64 375.048 223.425 375.097 224.211C375.097 224.8 375.343 225.143 375.932 224.996C377.603 224.652 379.274 224.75 380.944 224.554C381.878 224.456 382.075 224.014 381.927 223.18C381.288 219.891 380.6 216.602 379.814 213.362C379.126 210.417 378.242 207.569 377.456 204.673C377.21 203.839 376.817 203.397 375.883 203.25C373.967 202.906 372.444 201.826 371.019 200.55C370.773 200.353 370.577 200.059 370.478 199.813C370.233 199.273 370.134 198.733 370.724 198.341C371.264 197.948 371.756 198.193 372.198 198.635C372.788 199.322 373.476 199.911 373.967 200.157C372.591 199.175 371.215 197.653 369.79 196.23C369.348 195.788 369.25 195.248 369.741 194.757C370.233 194.266 370.773 194.414 371.215 194.806C372.64 196.181 374.213 197.408 375.588 198.832C373.918 193.53 371.952 188.327 369.889 183.172C369.692 182.73 369.545 182.289 369.397 181.847C369.201 181.16 369.152 180.423 369.987 180.178C370.724 179.932 371.117 180.57 371.363 181.11C371.952 182.387 372.444 183.712 372.935 185.038C375.638 192.008 378.045 199.028 380.158 206.195C380.6 207.815 381.239 209.386 381.19 211.104C382.124 215.031 383.057 218.958 383.893 222.885C384.335 217.289 384.974 211.693 386.104 206.244C385.907 205.606 386.055 204.968 386.202 204.28C387.381 199.372 388.855 194.561 390.87 189.946C391.116 189.406 391.116 188.817 391.116 188.228C391.018 184.498 390.968 180.718 391.853 177.085C391.951 176.594 392.049 176.103 392.295 175.662C392.541 175.269 392.885 174.974 393.376 175.072C393.917 175.171 394.162 175.563 394.211 176.054C394.261 176.545 394.113 176.987 394.015 177.429C393.474 179.932 393.18 182.485 393.081 185.332C394.998 181.749 397.012 178.558 399.322 175.563C400.501 174.042 401.779 172.667 403.056 171.194C403.4 170.802 403.744 170.458 404.186 170.164C404.628 169.869 405.12 169.722 405.562 170.164C406.004 170.605 405.955 171.096 405.66 171.538C405.464 171.931 405.169 172.225 404.874 172.52C399.96 177.478 396.324 183.319 393.425 189.652C391.165 194.659 389.494 199.813 388.266 205.164C388.168 205.508 388.168 205.851 387.824 206.097C386.841 209.729 386.448 213.411 386.006 217.142C385.809 218.86 385.711 220.578 385.563 222.394C386.251 221.511 386.497 220.48 386.89 219.547C387.922 216.7 389.74 214.344 391.656 212.086C395.538 207.422 400.108 203.446 404.825 199.666C407.872 197.212 410.869 194.757 413.866 192.205C413.965 192.106 414.014 192.057 414.112 191.959C414.603 191.566 415.144 191.272 415.684 191.812C416.274 192.401 415.93 192.941 415.488 193.481C415.144 193.874 414.751 194.266 414.308 194.61C410.034 198.242 405.611 201.679 401.336 205.36C396.03 209.926 391.312 214.933 388.168 221.314C388.02 221.609 387.824 221.952 387.578 222.149C387.283 222.885 386.939 223.621 386.546 224.554C387.234 224.505 387.676 224.505 388.168 224.456C390.33 224.211 392.148 224.849 393.278 226.763C394.408 228.678 394.162 230.543 392.885 232.31C392.836 232.408 392.786 232.507 392.688 232.703C397.061 232.359 401.336 232.065 405.66 231.721C412.294 231.23 418.977 230.69 425.61 230.199C426.298 230.15 426.986 230.101 427.723 230.003C428.263 229.954 428.902 229.905 429 230.641C429.099 231.377 428.509 231.525 427.919 231.574C425.807 231.721 423.694 231.917 421.63 232.065C414.947 232.556 408.215 233.096 401.533 233.586C394.998 234.077 388.462 234.568 381.927 235.108C375.294 235.599 368.611 236.139 361.978 236.63C357.26 236.974 352.543 237.366 347.826 237.759C347.286 238.152 346.696 238.25 346.057 238.299C340.013 238.692 334.019 239.232 327.975 239.674C322.373 240.066 316.771 240.508 311.17 240.95C304.585 241.441 298.001 241.883 291.466 242.472C290.532 242.57 289.648 242.03 288.714 242.373C283.751 242.717 278.739 243.061 273.777 243.453C267.143 243.944 260.46 244.484 253.827 244.975C246.161 245.564 238.496 246.153 230.831 246.742C224.345 247.233 217.809 247.724 211.323 248.264C211.176 248.264 211.028 248.264 210.832 248.264C210.291 248.313 209.751 248.264 209.751 247.577C209.702 246.841 210.291 246.791 210.783 246.742C211.864 246.644 212.945 246.546 214.075 246.497C221.642 245.908 229.258 245.368 236.825 244.779C237.71 244.73 238.594 244.632 239.626 244.533C238.644 241.932 237.661 239.428 236.678 236.925C232.354 225.83 228.03 214.785 223.706 203.691C223.116 202.219 223.313 201.875 224.885 201.777C234.811 201.041 244.737 200.304 254.662 199.568C256.922 199.421 259.183 199.175 261.443 199.077C262.573 199.028 263.31 198.684 263.507 197.506C264.097 196.966 264.637 197.457 265.276 197.506C265.079 197.899 264.932 198.242 264.686 198.782C266.504 198.635 268.224 198.537 269.944 198.39C276.528 197.899 283.113 197.457 289.648 196.868C290.729 196.77 291.171 197.064 291.564 197.997C295.004 206.391 298.443 214.736 301.883 223.131C302.129 223.72 302.227 224.211 303.16 223.867C311.219 221.167 319.474 219.498 327.778 217.976C333.625 216.896 339.424 215.816 345.271 214.736C345.91 214.638 346.696 214.295 347.089 215.178C347.433 215.865 346.892 216.062 346.45 216.307C345.91 216.602 345.32 216.651 344.78 216.749C336.918 218.271 329.007 219.547 321.145 221.118C315.74 222.198 310.384 223.474 305.126 225.143C303.406 225.683 303.357 225.781 304.045 227.401C304.979 229.61 305.912 231.868 306.797 234.126C307.141 234.961 307.583 235.256 308.467 235.108C312.595 234.47 316.771 234.225 320.948 233.979C325.223 233.734 329.498 233.685 333.822 233.488C342.519 233.096 351.217 233.488 359.914 233.292C363.648 233.194 367.383 233.047 371.117 232.703C372.001 232.605 372.345 232.359 372.051 231.377C371.658 230.052 371.805 228.727 372.444 227.499C373.033 226.469 373.033 225.438 372.935 224.358C372.395 216.602 369.79 209.337 367.727 201.973C367.579 201.63 367.383 201.286 367.432 200.844Z" fill="black"/>
<path d="M263.016 303.44C263.556 303.391 264.097 303.538 264.588 303.686C264.981 304.078 264.932 304.618 264.932 305.109C264.834 310.509 265.178 315.86 265.473 321.21C265.767 326.414 266.111 331.617 266.505 336.821C266.898 342.171 267.34 347.522 267.782 352.922C268.323 359.451 268.912 365.979 269.551 372.508C269.895 376.092 270.239 379.626 270.583 383.21C270.73 384.682 270.829 384.682 272.303 384.78C276.725 385.075 281.197 384.977 285.668 385.026C286.012 385.026 286.356 385.075 286.7 385.075C288.174 385.222 288.223 385.222 288.567 383.7C290.975 372.95 293.039 362.15 294.414 351.253C295.397 343.546 295.299 335.741 295.151 327.985C295.102 325.236 294.906 322.438 294.562 319.689C294.316 317.823 294.857 317.087 296.478 316.89C297.068 317.087 297.608 317.43 298.149 317.823C296.38 318.756 296.429 318.756 296.576 320.719C297.608 332.697 297.461 344.626 295.643 356.554C294.218 365.93 292.4 375.257 290.385 384.535C290.287 384.977 289.795 385.615 290.877 385.615C291.27 385.615 291.122 386.057 291.073 386.253C290.434 390.966 289.845 395.678 289.206 400.391C288.665 400.882 287.928 400.931 287.24 401.127C284.636 401.962 282.081 402.943 279.526 403.876C278.15 404.367 278.101 404.318 277.806 402.845C277.56 401.471 277.216 400.096 276.528 398.869C275.546 397.102 274.17 396.365 272.155 396.709C270.435 397.004 269.06 397.887 267.979 399.262C267.586 399.753 267.34 400.44 266.554 400.538C266.996 395.678 267.389 390.818 267.831 385.959C267.88 385.566 267.684 384.977 268.47 385.026C269.011 385.026 268.765 384.584 268.716 384.29C268.323 380.019 267.88 375.748 267.487 371.477C266.898 364.899 266.259 358.272 265.718 351.645C265.08 343.988 264.49 336.33 263.949 328.672C263.605 323.517 263.36 318.412 263.114 313.258C263.114 312.914 263.114 312.571 263.114 312.276C262.721 312.08 262.524 312.325 262.279 312.423C258.446 314.387 254.564 316.35 250.732 318.265C250.142 318.559 249.994 318.903 250.044 319.541C251.37 333.63 250.928 347.669 248.422 361.61C247.046 369.219 245.621 376.828 243.951 384.437C243.852 384.879 243.361 385.566 244.491 385.566C244.933 385.566 244.639 386.106 244.589 386.351C244.098 390.426 243.558 394.451 243.066 398.525C242.968 399.163 242.919 399.753 242.82 400.391C242.231 400.833 241.494 400.882 240.855 401.078C238.3 401.912 235.745 402.796 233.239 403.778C231.912 404.318 231.568 404.121 231.372 402.698C231.224 401.667 230.978 400.734 230.585 399.753C229.308 396.513 226.458 395.58 223.46 397.445C222.576 398.034 221.839 398.771 221.2 399.654C220.954 399.998 220.758 400.489 220.168 400.489C220.512 396.267 220.856 392.046 221.2 387.775C221.249 387.137 221.298 386.548 221.348 385.909C221.397 385.468 221.298 384.977 222.035 384.928C222.576 384.879 222.281 384.339 222.232 384.093C221.888 380.362 221.544 376.632 221.2 372.901C220.611 366.323 219.972 359.794 219.431 353.216C218.792 345.706 218.203 338.195 217.662 330.734C216.974 320.719 216.336 310.754 216.63 300.691C216.68 298.924 216.827 297.206 217.318 295.488C217.859 295.488 218.399 295.488 218.842 295.782C219.038 296.175 218.94 296.519 218.891 296.911C218.498 300.102 218.203 303.293 218.35 306.484C218.596 311.343 218.596 316.203 218.94 321.063C219.235 325.285 219.48 329.555 219.726 333.777C219.923 337.115 220.217 340.453 220.463 343.791C220.807 348.16 221.151 352.48 221.544 356.849C221.986 361.61 222.379 366.421 222.822 371.183C223.166 374.914 223.51 378.644 223.854 382.375C223.903 382.719 223.952 383.062 223.952 383.406C224.05 384.29 224.492 384.535 225.328 384.584C228.472 384.879 231.666 384.78 234.811 384.78C236.58 384.78 238.3 384.928 240.069 385.026C241.445 385.075 241.592 384.928 241.887 383.602C243.558 376.043 245.081 368.483 246.309 360.874C246.997 356.456 247.685 351.989 248.078 347.522C248.226 346.147 248.324 344.773 248.373 343.448C248.471 339.864 248.864 336.281 248.619 332.697C248.373 328.23 248.324 323.714 247.832 319.296C247.685 317.823 247.832 317.381 249.208 316.694C253.041 314.78 256.874 312.865 260.755 310.951C262.426 310.116 262.426 310.116 262.279 308.3C262.18 306.974 262.23 305.649 262.279 304.324C262.623 304.127 262.623 303.686 263.016 303.44Z" fill="black"/>
<path d="M266.554 400.636C266.947 400.145 267.389 399.605 267.782 399.114C269.06 397.593 270.583 396.562 272.647 396.415C274.367 396.267 275.644 397.004 276.578 398.427C277.512 399.9 277.954 401.569 278.15 403.287C278.249 404.171 278.543 404.072 279.133 403.827C281.885 402.747 284.636 401.667 287.486 400.833C288.027 400.685 288.617 400.587 289.206 400.489C289.599 406.281 289.304 412.123 289.206 417.915C289.206 418.357 289.108 418.603 288.617 418.701C288.223 418.75 287.83 419.094 287.486 419.29C277.708 425.23 267.881 431.071 257.513 435.882C257.071 436.078 256.579 436.275 256.137 436.52C255.596 436.766 255.252 437.109 255.547 437.698C255.793 438.238 256.284 438.189 256.776 437.944C258.446 437.158 260.117 436.422 261.739 435.587C270.78 431.071 279.477 425.966 288.125 420.714C288.371 420.566 288.567 420.468 289.01 420.174C289.01 422.333 288.96 424.297 288.273 426.211C288.076 426.85 287.437 427.095 286.798 427.291C285.57 427.635 284.292 427.979 283.064 428.175C281.492 428.47 280.361 429.255 279.772 430.679C278.937 432.838 277.462 433.624 275.202 433.378C273.04 433.133 271.566 434.115 270.681 436.078C269.699 438.287 267.684 438.975 265.571 438.926C263.016 438.827 261.149 439.662 259.282 441.331C256.235 444.031 250.634 443.147 248.275 439.858C247.096 438.189 246.997 436.373 247.587 434.507C248.226 432.446 249.307 430.629 250.83 429.157C256.579 423.463 260.117 416.492 263.016 409.129C264.097 406.281 265.326 403.483 266.554 400.636Z" fill="#020A13"/>
<path d="M220.265 400.685C220.953 399.9 221.444 398.967 222.23 398.28C223.213 397.396 224.294 396.807 225.621 396.513C227.537 396.12 229.06 396.758 230.141 398.378C231.075 399.802 231.566 401.421 231.714 403.09C231.812 404.072 232.107 404.121 232.942 403.778C235.694 402.698 238.446 401.618 241.296 400.783C241.787 400.636 242.327 400.391 242.868 400.538C243.064 406.33 243.064 412.172 242.77 417.964C242.77 418.21 242.819 418.455 242.475 418.652C238.102 420.91 233.974 423.659 229.699 426.113C223.262 429.746 216.776 433.378 209.995 436.422C209.455 436.667 208.767 436.913 209.16 437.649C209.504 438.434 210.143 438.042 210.683 437.845C219.773 433.722 228.372 428.764 236.922 423.659C238.839 422.53 240.706 421.401 242.77 420.124C242.573 422.186 242.573 424.002 242.131 425.819C241.934 426.702 241.246 427.095 240.509 427.291C239.33 427.635 238.102 427.929 236.873 428.175C235.252 428.469 234.023 429.255 233.434 430.826C232.647 432.887 231.222 433.624 229.06 433.427C226.898 433.182 225.326 434.066 224.392 436.127C223.41 438.287 221.395 439.024 219.282 438.974C216.825 438.925 214.909 439.662 213.042 441.331C209.995 444.031 204.59 443.343 202.084 440.104C200.757 438.434 200.708 436.52 201.249 434.556C201.838 432.495 202.969 430.678 204.443 429.206C210.093 423.561 213.68 416.688 216.53 409.374C217.71 406.429 218.84 403.483 220.265 400.685Z" fill="#020A13"/>
<path d="M310.48 320.818C315.836 318.952 321.045 316.841 326.008 314.141C331.904 310.902 337.309 307.122 341.977 302.213C342.174 302.016 342.37 301.869 342.616 301.673C348.807 302.507 354.753 304.029 360.207 307.171C362.124 308.3 363.892 309.625 365.268 311.442C367.873 314.829 367.676 318.51 364.63 321.554C361.829 324.352 358.291 325.776 354.606 326.855C347.088 329.015 339.373 329.212 331.659 328.377C325.91 327.739 320.406 326.414 315.198 323.861C313.527 322.977 311.856 322.094 310.48 320.818Z" fill="black"/>
<path d="M333.821 402.992C329.792 402.943 324.288 402.109 319.178 399.703C317.606 398.967 316.132 397.985 314.903 396.709C312.397 394.107 312.496 391.162 315.296 388.806C317.655 386.793 320.505 385.909 323.453 385.222C326.303 384.584 329.251 384.339 332.15 384.388C332.838 384.388 333.084 384.289 333.133 383.553C333.624 376.73 334.165 369.857 334.705 363.034C335.295 355.376 335.885 347.718 336.474 340.06C336.671 337.557 336.868 335.102 337.015 332.599C337.064 332.157 337.064 331.764 337.113 331.322C337.162 330.782 337.359 330.292 338.047 330.341C338.686 330.39 338.735 330.881 338.686 331.421C338.587 332.599 338.538 333.777 338.44 334.906C337.703 344.527 336.917 354.198 336.18 363.819C335.688 370.397 335.197 376.975 334.656 383.553C334.607 384.289 334.755 384.535 335.541 384.584C340.356 385.026 345.024 386.008 349.25 388.462C350.675 389.296 352.002 390.278 352.935 391.653C354.409 393.764 354.262 395.973 352.591 397.838C350.822 399.802 348.415 400.832 345.958 401.569C342.518 402.6 338.98 402.992 333.821 402.992Z" fill="black"/>
<path d="M387.824 206.048C388.512 201.875 389.789 197.85 391.263 193.923C394.408 185.627 398.781 178.116 405.071 171.734C405.169 171.636 405.218 171.587 405.316 171.489C405.66 171.096 405.906 170.605 405.415 170.164C404.923 169.771 404.53 170.065 404.186 170.409C402.614 171.98 401.14 173.649 399.764 175.416C397.16 178.705 394.998 182.239 392.934 186.167C392.639 184.154 392.934 182.387 393.13 180.669C393.278 179.294 393.622 177.92 393.917 176.545C394.015 175.956 394.113 175.367 393.425 175.22C392.688 175.072 392.541 175.662 392.393 176.202C391.411 180.276 391.067 184.35 391.558 188.523C391.656 189.161 391.362 189.652 391.165 190.192C389.052 195.052 387.529 200.157 386.35 205.311C386.3 205.606 386.251 205.9 386.202 206.195C384.679 204.28 383.352 202.317 382.763 199.911C381.632 195.346 382.369 190.928 383.844 186.559C384.138 185.676 384.581 184.841 384.826 183.958C385.416 181.699 387.037 180.62 389.2 180.325C390.133 180.178 390.281 179.834 390.084 179.049C389.298 176.251 390.084 173.943 392.049 171.931C392.885 171.047 393.671 170.114 394.359 169.133C395.98 166.924 398.192 166.187 400.796 166.286C401.582 166.335 401.975 166.089 402.27 165.353C402.663 164.42 403.253 163.586 403.695 162.653C405.218 159.659 408.068 159.315 410.672 159.609C412.884 159.855 414.751 162.064 415.34 164.715C415.832 167.022 415.242 169.133 414.309 171.194C412.589 174.876 409.886 177.871 407.036 180.767C404.334 183.516 401.533 186.216 398.781 188.916C396.963 190.732 395.538 192.794 394.457 195.101C393.278 197.752 392.148 200.451 390.624 202.955C389.887 204.231 389.249 205.459 387.824 206.048Z" fill="#00B1B1"/>
<path d="M387.577 222.1C389.444 217.534 392.441 213.705 395.832 210.171C400.451 205.36 405.758 201.335 410.868 197.113C412.391 195.837 413.914 194.561 415.438 193.235C415.831 192.892 416.027 192.45 415.683 192.008C415.29 191.517 414.848 191.714 414.455 192.057C408.067 197.702 401.089 202.611 395.095 208.698C391.901 211.938 389.198 215.571 386.938 219.498C386.643 216.749 387.773 214.393 388.953 212.036C392.097 205.851 396.421 200.55 401.237 195.592C405.463 191.272 410.032 187.247 415.438 184.399C416.912 183.614 418.484 182.976 420.155 182.73C420.695 182.632 421.236 182.583 421.776 182.632C425.019 182.73 426.592 184.89 425.707 188.032C424.823 191.075 422.955 193.628 421.039 196.083C415.192 203.446 408.264 209.778 400.991 215.718C397.945 218.222 394.849 220.627 391.36 222.591C389.297 223.621 389.297 223.621 387.577 222.1Z" fill="#00B1B1"/>
<path d="M288.664 242.275C291.17 242.079 293.627 241.833 296.133 241.637C304.978 240.95 313.871 240.263 322.716 239.575C330.283 238.986 337.899 238.446 345.467 237.857C346.253 237.808 347.039 237.759 347.776 237.71C347.481 240.901 347.186 244.141 346.842 247.331C346.793 247.773 346.793 248.264 346.793 248.706C346.351 247.822 345.712 247.724 344.729 247.822C341.88 248.117 339.03 248.166 336.18 248.166C323.158 248.166 310.088 247.822 297.067 247.282C295.298 247.184 293.676 247.38 292.153 248.362C291.809 248.608 291.465 248.853 290.974 248.853C290.531 247.282 290.482 245.662 290.335 244.042C290.335 242.717 289.942 242.128 288.664 242.275Z" fill="#007BFF"/>
<path d="M381.191 211.055C378.537 200.991 375.098 191.174 371.216 181.552C371.117 181.258 371.019 180.963 370.823 180.718C370.626 180.423 370.331 180.227 369.938 180.423C369.594 180.619 369.398 180.914 369.496 181.258C369.594 181.699 369.791 182.141 369.987 182.583C372.198 188.179 374.311 193.775 375.982 199.617C374.606 198.341 373.279 197.064 371.904 195.788C371.609 195.543 371.363 195.248 371.068 195.003C370.675 194.659 370.233 194.463 369.84 194.953C369.398 195.444 369.692 195.837 370.036 196.181C371.461 197.555 372.936 198.93 374.41 200.255C374.557 200.402 374.754 200.55 374.901 200.795C373.82 200.402 372.837 199.813 372.1 198.881C371.756 198.439 371.363 198.095 370.823 198.537C370.331 198.979 370.528 199.47 370.921 199.862C372.493 201.531 374.311 202.759 376.621 203.004C377.21 203.053 377.407 203.299 377.554 203.789C378.439 206.882 379.372 209.975 380.11 213.116C379.667 214 378.93 213.902 378.193 213.558C377.112 213.116 376.326 212.233 375.687 211.349C373.181 208.011 371.56 204.182 370.135 200.304C370.086 200.108 370.086 199.911 370.135 199.715C369.299 196.672 368.169 193.726 367.481 190.634C367.383 190.241 367.236 189.848 367.137 189.406C366.744 186.657 366.105 183.908 366.105 181.061C366.105 179.392 366.105 177.723 366.646 176.103C367.383 173.796 368.513 173.354 370.724 174.385C371.707 174.876 372.444 175.563 373.132 176.398C374.164 177.723 374.999 179.196 375.687 180.718C376.326 182.092 375.835 183.516 375.687 184.89C375.638 185.479 375.687 185.823 376.228 186.117C377.702 186.854 378.537 188.032 378.979 189.701C380.355 194.855 381.535 200.059 381.731 205.458C381.731 207.275 381.633 209.189 381.191 211.055Z" fill="#00B1B1"/>
<path d="M277.166 304.324C276.724 304.324 276.478 304.127 276.331 303.833C276.184 303.587 276.233 303.293 276.478 303.096C276.675 302.9 276.921 302.753 277.166 302.655C283.996 298.924 290.826 295.144 297.656 291.413C297.804 291.315 297.951 291.266 298.05 291.217C298.541 290.922 299.131 290.677 299.475 291.364C299.818 292.002 299.278 292.346 298.787 292.591C291.858 296.371 284.979 300.151 278.1 303.931C277.756 304.078 277.412 304.176 277.166 304.324Z" fill="#010000"/>
<path d="M334.901 271.876C334.705 273.692 334.115 275.754 333.525 277.718C333.034 279.337 332.444 280.957 331.904 282.577C331.707 283.166 331.462 283.755 330.725 283.461C330.037 283.215 330.282 282.626 330.43 282.086C331.462 279.092 332.494 276.147 333.132 273.054C333.231 272.514 333.28 271.974 333.329 271.434C333.378 270.894 333.476 270.354 334.164 270.403C334.901 270.452 334.901 271.041 334.901 271.876Z" fill="#020000"/>
<path d="M347.776 205.115C348.267 208.944 348.808 212.724 349.103 216.602C349.152 217.24 349.201 217.927 349.201 218.565C349.25 219.105 349.004 219.547 348.464 219.547C347.874 219.596 347.678 219.154 347.629 218.614C347.579 217.289 347.579 215.964 347.285 214.687C347.088 211.644 346.646 208.6 346.204 205.606C346.105 204.968 345.565 204.084 346.597 203.79C347.629 203.495 347.432 204.624 347.776 205.115Z" fill="#020202"/>
<path d="M225.131 203.151C228.079 202.906 230.88 202.71 233.681 202.513C242.771 201.826 251.911 201.139 261.001 200.451C268.814 199.862 276.676 199.322 284.488 198.733C286.012 198.635 287.535 198.537 289.058 198.341C289.697 198.292 290.041 198.341 290.287 199.028C295.593 212.036 300.949 224.996 306.305 238.004C306.649 238.79 306.502 238.986 305.666 239.035C295.102 239.723 284.538 240.459 273.973 241.195C263.359 241.932 252.795 242.717 242.181 243.453C241.592 243.502 240.953 243.797 240.56 242.864C235.499 229.659 230.339 216.504 225.131 203.151Z" fill="#FEFEFE"/>
<path d="M356.867 235.452C351.314 235.894 345.762 236.286 340.209 236.728C332.544 237.317 324.878 237.906 317.213 238.495C314.609 238.692 312.004 238.888 309.4 239.084C308.614 239.133 307.68 238.25 307.779 237.464C307.828 236.924 308.368 237.072 308.712 237.023C310.776 236.728 312.889 236.483 315.002 236.286C328.465 235.206 341.978 235.255 355.491 235.305C355.933 235.305 356.424 235.354 356.867 235.354C356.867 235.354 356.867 235.403 356.867 235.452Z" fill="#007BFF"/>
<path d="M308.81 196.377C308.761 197.064 308.711 197.752 308.662 198.488C308.613 199.028 308.417 199.224 307.827 199.224C307.237 199.224 307.09 198.881 307.09 198.39C307.09 197.702 307.188 197.015 307.237 196.279C307.237 195.69 307.336 195.101 308.023 195.101C308.81 195.101 308.859 195.788 308.81 196.377Z" fill="#060606"/>
<path d="M298.492 234.568C298.492 234.912 298.345 235.206 298.05 235.305C297.706 235.452 297.362 235.403 297.116 235.059C296.92 234.765 296.822 234.421 296.674 234.126C292.94 224.849 289.156 215.522 285.471 206.195C285.176 205.508 284.881 205.262 284.144 205.36C273.039 206.195 261.983 207.029 250.878 207.864C245.129 208.306 239.331 208.698 233.582 209.091C233.386 209.091 233.189 209.091 232.993 209.14C232.452 209.189 232.01 208.993 232.01 208.404C232.01 207.864 232.354 207.668 232.845 207.618C234.221 207.52 235.548 207.373 236.923 207.275C244.884 206.686 252.795 206.146 260.755 205.557C268.715 204.968 276.724 204.379 284.685 203.74C285.618 203.642 286.208 203.839 286.601 204.771C290.483 214.442 294.365 224.112 298.247 233.783C298.345 234.028 298.443 234.274 298.492 234.568Z" fill="black"/>
<path d="M336.917 151.461C337.752 145.865 336.917 140.71 333.183 136.194C331.021 133.592 329.645 130.451 328.072 127.358C329.792 127.063 331.168 126.327 332.2 125.002C333.821 122.94 334.559 120.584 334.362 118.031C334.215 115.577 333.281 113.466 330.922 112.288C326.647 110.128 320.8 112.337 319.031 116.755C318.786 117.344 318.589 117.54 317.95 117.491C316.378 117.344 314.805 117.687 313.38 118.375C312.398 118.817 311.415 118.915 310.334 118.866C306.501 118.718 302.914 119.651 299.72 121.811C295.74 124.462 295.347 128.045 298.541 131.58C298.885 131.972 298.983 132.316 298.983 132.807C298.885 135.752 298.787 138.648 298.688 141.594C298.688 142.085 298.59 142.428 298.148 142.772C296.969 143.754 296.625 144.932 297.165 146.306C297.411 146.945 297.46 147.484 297.313 148.074C296.379 152.393 296.477 156.762 297.313 161.082C297.46 161.769 297.657 162.113 298.443 162.015C299.524 161.868 300.605 161.818 301.735 161.769C302.57 161.72 304.044 162.8 303.799 163.291C303.013 165.304 302.472 167.464 300.654 168.936C298.885 170.36 296.92 171.44 294.807 172.323C294.659 172.913 295.2 173.305 295.249 173.845C295.495 174.042 295.789 173.943 296.035 173.845C299.868 172.078 303.504 170.065 304.929 165.647C305.519 163.88 305.371 164.077 307.091 164.518C307.484 164.617 307.926 164.715 308.368 164.764C312.398 165.353 317.999 163.635 320.014 158.333C320.456 157.155 320.849 155.879 320.456 154.651C320.505 154.701 320.505 154.75 320.554 154.799C321.39 159.069 323.011 163.095 324.682 167.071C325.566 169.182 327.483 170.164 329.743 170.507C330.48 170.262 330.382 169.624 330.48 169.035C329.94 168.789 329.399 168.593 328.859 168.347C327.925 167.905 326.844 167.513 326.402 166.482C325.665 164.666 324.977 162.8 324.24 160.788C328.416 160.591 332.446 160.542 336.573 160.788C336.082 159.708 336.033 158.677 336.082 157.597C336.18 155.535 336.622 153.473 336.917 151.461ZM320.456 147.288C320.063 147.779 319.572 148.024 318.933 147.73C318.392 147.484 317.852 147.288 317.557 148.024C317.311 148.712 317.852 149.006 318.392 149.203C318.835 149.35 319.129 149.448 319.129 150.037C318.982 151.804 319.031 153.621 318.835 155.388C318.343 159.364 315.936 161.917 311.955 162.8C307.042 163.88 302.079 160.935 301.047 156.37C300.801 155.29 300.703 154.21 300.605 153.13C300.113 146.552 300.212 139.974 300.556 133.249C304.044 135.556 307.681 136.93 311.464 138.059C314.118 138.845 316.427 140.317 318.835 141.545C319.424 141.839 319.424 142.968 318.835 143.312C318.392 143.557 317.95 143.754 318.196 144.343C318.392 144.883 318.835 144.932 319.375 144.785C319.965 144.637 320.456 144.883 320.751 145.374C321.046 146.11 320.898 146.748 320.456 147.288Z" fill="black"/>
<path d="M305.813 147.337C305.617 147.337 305.42 147.435 305.224 147.435C304.437 147.583 304.192 147.239 304.437 146.552C304.732 145.668 305.224 144.883 305.764 144.097C306.059 143.656 306.255 143.165 305.666 142.772C305.125 142.428 304.781 142.772 304.486 143.165C303.799 144.196 303.16 145.226 302.865 146.503C302.521 148.024 303.307 149.055 304.88 149.006C305.223 148.957 305.617 148.957 306.01 148.859C306.452 148.761 306.796 148.466 306.698 147.926C306.698 147.435 306.305 147.239 305.813 147.337Z" fill="#020202"/>
<path d="M301.785 141.545C301.293 141.594 301.097 141.888 301.146 142.33C301.146 142.821 301.392 143.165 301.932 143.116C302.374 143.067 302.522 142.723 302.571 142.232C302.424 141.888 302.276 141.545 301.785 141.545Z" fill="#0C0C0C"/>
<path d="M309.057 141.79C308.615 141.79 308.418 142.134 308.418 142.576C308.418 143.017 308.664 143.263 309.155 143.361C309.548 143.312 309.843 143.066 309.843 142.625C309.794 142.134 309.548 141.79 309.057 141.79Z" fill="#0A0A0A"/>
</g>
<g clip-path="url(#clip1)">
<path d="M69.6245 120.625C77.1727 118.805 84.7209 116.984 92.2606 115.22C99.6394 113.375 106.986 111.553 114.364 109.707C116.913 109.077 119.429 108.47 122.309 107.744C118.222 104.394 114.449 101.263 110.619 98.1242C107.864 95.8958 105.045 93.7155 102.332 91.4066C101.256 90.4961 100.674 90.5249 99.714 91.5365C97.4603 93.8564 95.0387 95.9493 92.737 98.2043C90.9804 99.9055 89.5306 98.2177 87.9578 97.9259C85.7088 97.3313 83.4272 96.7608 81.1626 96.0773C80.1715 95.7566 79.6138 95.8179 79.1054 96.8967C75.7484 104.45 72.3915 112.003 69.0105 119.523C68.7153 120.143 68.2578 120.883 69.6245 120.625Z" fill="#020A13"/>
<path d="M106.481 78.1989C105.186 78.5545 103.892 78.9102 102.629 79.2418C101.914 78.8178 101.209 79.0881 100.489 79.2696C94.5672 80.6394 88.7091 82.163 82.844 83.5412C82.1564 83.6986 81.5887 84.0182 81.0691 84.4027C75.0416 85.901 69.0056 87.4559 62.9455 88.9783C62.5573 89.0648 62.193 89.1837 61.23 89.4445C70.4903 92.1795 79.2268 94.75 87.9632 97.3205C90.8673 98.9362 92.6973 97.1304 94.6163 95.3091C101.033 89.1062 107.521 83.0006 114.156 76.686C111.426 76.7991 109.027 77.9717 106.481 78.1989Z" fill="#020A13"/>
<path d="M63.3175 102.455C63.9695 105.034 64.6215 107.613 65.2735 110.193C66.0511 113.281 66.8286 116.37 67.6302 119.491C67.7672 119.54 67.9126 119.533 68.0495 119.582C68.6978 118.149 69.3375 116.772 69.9858 115.339C72.751 109.228 75.4597 103.108 78.2814 97.0049C78.8477 95.7326 78.6487 95.3278 77.3187 94.9566C72.2163 93.5621 67.1224 92.1111 62.0694 90.5796C60.7155 90.176 60.5757 90.5304 60.8579 91.7269C61.6806 95.2841 62.4708 98.8653 63.3175 102.455Z" fill="#020A13"/>
<path d="M115.408 76.6125C110.969 80.8006 106.757 84.8205 102.544 88.8405C101.975 89.3619 101.512 89.7547 102.468 90.5031C109.013 95.7491 115.493 101.043 121.973 106.337C122.053 106.378 122.231 106.347 122.635 106.349C120.218 96.4934 117.848 86.7025 115.408 76.6125Z" fill="#020A13"/>
</g>
<path d="M126.716 145.923C127.988 146.44 129.214 147.069 130.251 147.996C131.136 148.211 131.965 148.682 132.907 148.687C133.239 148.689 133.449 148.901 133.647 149.124C134.771 150.351 136.208 150.903 137.825 151.167C138.611 151.294 139.295 151.875 140.114 151.934C141.565 152.031 142.904 152.405 144.186 153.078C144.562 153.279 145.049 153.382 145.47 153.362C146.733 153.291 147.84 153.641 148.933 154.247C149.641 154.639 150.505 154.61 151.291 154.748C152 154.863 152.663 155.077 153.215 155.513C154.749 156.72 156.478 156.663 158.143 156.061C158.942 155.777 159.552 155.78 160.193 156.161C161.121 156.699 162.117 156.86 163.17 156.788C163.718 155.924 163.246 155.078 163.117 154.222C162.033 153.884 160.947 153.889 159.849 154.105C159.283 154.213 158.885 154.144 158.444 153.598C157.619 152.583 156.368 152.254 155.095 152.148C154.696 152.112 154.264 152.077 153.887 152.186C152.821 152.48 151.859 152.186 150.874 151.859C150.177 151.622 149.458 151.474 148.716 151.47C147.962 151.466 147.276 151.251 146.625 150.859C145.63 150.276 144.558 149.893 143.394 149.842C142.829 149.817 142.309 149.67 141.879 149.279C141.747 149.156 141.581 149.067 141.415 148.988C139.956 148.303 138.441 147.729 137.016 146.977C136.364 146.629 135.588 146.614 134.857 146.555C134.215 146.507 133.651 146.359 133.11 145.99C132.381 145.487 131.529 145.216 130.7 144.911C129.54 144.217 128.19 143.899 127.041 143.171C125.892 142.532 124.665 142.048 123.65 141.154C122.988 140.562 122.237 140.103 121.363 139.854C119.659 139.356 118.101 138.526 116.611 137.564C116.302 137.362 116.015 137.138 115.75 136.882C115.166 136.312 114.526 135.831 113.807 135.439C112.901 134.946 112.074 134.319 111.48 133.45C111.04 132.815 110.199 132.644 109.814 132.031C109.452 131.452 109.323 130.741 108.894 130.161C108.19 129.202 107.251 128.542 106.201 128.092C105.593 127.834 105.24 127.488 104.988 126.92C104.769 126.408 104.406 125.973 103.931 125.66C102.971 125.022 102.421 124.086 101.917 123.084C101.248 121.726 100.335 120.544 98.9103 119.671C98.8721 120.581 99.0677 121.304 99.3628 122.071C99.8329 123.273 100.648 124.199 101.418 125.18C101.848 125.726 102.266 126.306 102.417 127.006C102.525 127.495 102.844 127.886 103.231 128.165C104.125 128.792 104.63 129.672 104.935 130.673C105.349 132.052 106.297 132.912 107.568 133.474C108.232 133.766 108.862 134.08 109.346 134.693C109.797 135.262 110.583 135.444 111.134 135.969C112.722 137.509 114.409 138.929 116.387 139.972C116.686 140.129 116.939 140.341 117.16 140.598C117.578 141.077 118.075 141.457 118.638 141.738C118.937 141.884 119.213 142.074 119.422 142.353C120.258 143.501 121.441 144.029 122.769 144.358C122.913 144.392 123.068 144.415 123.189 144.494C124.249 145.199 125.466 145.583 126.716 145.923Z" fill="#020A13"/>
<path d="M208.229 110.046C208.904 110.36 209.601 110.453 210.377 110.368C211.22 110.272 212.128 110.455 212.778 111.025C213.617 111.762 214.589 112.289 215.461 112.971C216.167 113.53 216.952 113.901 217.759 114.271C219.339 114.99 220.942 115.676 221.853 117.313C221.952 117.502 222.14 117.659 222.316 117.782C223.045 118.286 223.54 118.932 223.813 119.777C223.9 120.056 224.053 120.334 224.252 120.546C225.145 121.45 225.448 122.762 226.363 123.655C226.561 123.856 226.681 124.156 226.769 124.434C227.323 126.414 228.277 128.273 228.532 130.351C228.713 131.795 228.472 133.237 228.254 134.635C228.105 135.611 227.48 136.529 226.987 137.448C226.293 138.766 225.632 140.117 225.413 141.637C225.275 142.569 224.916 143.433 224.248 144.096C223.747 144.593 223.312 145.134 222.854 145.676C222.341 146.295 221.752 146.758 220.964 146.965C219.754 147.28 218.798 147.953 217.873 148.792C216.905 149.675 215.814 150.479 214.659 151.095C213.37 151.788 212.015 152.38 210.714 153.072C210.359 153.259 209.959 153.39 209.538 153.355C208.996 153.307 208.529 153.494 208.062 153.736C206.685 154.461 205.165 154.764 203.678 155.178C202.524 155.494 201.337 155.665 200.28 156.403C199.402 157.009 198.337 157.27 197.219 156.909C196.7 156.739 196.156 156.747 195.591 156.778C194.128 156.848 192.674 157.306 191.191 157.043C191.047 157.02 190.88 157.019 190.747 157.074C189.481 157.622 188.042 157.348 186.765 157.885C186.254 158.094 185.633 158.135 185.025 157.965C184.405 157.795 183.751 157.891 183.184 158.166C182.484 158.506 181.763 158.603 181.032 158.565C179.936 158.515 178.851 158.276 177.742 158.47C177.409 158.535 177.089 158.355 176.79 158.221C176.525 158.108 176.282 157.94 175.971 158.028C175.858 158.449 176.078 158.772 176.187 159.106C176.449 159.884 176.633 160.685 176.429 161.494C176.214 162.315 176.332 163.115 176.449 163.915C176.685 165.437 177.176 166.916 177.068 168.481C177.043 168.892 177.207 169.337 177.46 169.727C177.834 170.306 178.229 170.908 178.336 171.63C178.507 172.797 178.734 173.953 178.85 175.131C178.902 175.697 179.01 176.22 179.34 176.688C179.846 177.39 180.185 178.158 180.192 179.046C180.19 179.324 180.278 179.546 180.476 179.747C181.468 180.763 181.848 182.175 182.762 183.257C183.125 183.692 183.321 184.315 183.318 184.914C183.315 185.436 183.513 185.837 183.854 186.205C184.405 186.785 184.723 187.498 184.796 188.286C184.827 188.686 184.959 188.998 185.234 189.266C185.752 189.757 186.059 190.392 186.433 190.982C187.059 191.974 187.841 192.877 188.245 194.012C188.278 194.112 188.388 194.179 188.465 194.257C189.91 195.553 190.843 197.246 191.932 198.806C192.877 200.143 193.935 201.337 195.07 202.498C195.742 203.19 196.749 203.517 197.265 204.341C197.869 205.311 198.708 206.059 199.423 206.896C200.392 208.033 201.261 209.237 202.487 210.143C202.829 210.4 203.148 210.691 203.513 210.937C204.573 211.642 205.767 212.137 206.648 213.163C207.243 213.866 207.97 214.536 209.011 214.697C209.653 214.8 210.138 215.258 210.512 215.771C211.271 216.83 212.277 217.412 213.55 217.597C214.103 217.678 214.645 217.869 215.053 218.26C215.913 219.075 216.941 219.514 218.059 219.83C218.701 220.012 219.241 220.425 219.782 220.806C219.981 220.951 220.213 221.163 220.078 221.451C219.944 221.75 219.623 221.649 219.39 221.625C218.726 221.555 218.084 221.341 217.498 221.027C216.681 220.589 215.84 220.263 214.899 220.158C214.146 220.076 213.472 219.806 212.92 219.259C211.962 218.288 210.812 217.671 209.496 217.342C208.798 217.172 208.191 216.858 207.806 216.189C207.543 215.733 207.134 215.475 206.67 215.206C205.842 214.735 204.924 214.397 204.218 213.727C203.193 212.745 202.468 211.453 201.142 210.78C201.021 210.713 200.911 210.579 200.845 210.456C200.45 209.732 199.798 209.34 199.068 209.037C198.372 208.755 197.765 208.297 197.436 207.607C197.217 207.161 196.897 206.927 196.465 206.769C195.791 206.51 195.217 206.074 194.888 205.439C194.394 204.47 193.678 203.689 192.985 202.897C191.178 200.811 189.339 198.748 187.722 196.507C187.546 196.273 187.392 195.995 187.327 195.717C187.219 195.217 186.944 194.871 186.602 194.514C185.5 193.353 184.743 191.95 184.031 190.536C183.779 190.024 183.571 189.546 183.118 189.21C182.5 188.751 182.071 188.15 181.898 187.416C181.778 186.916 181.526 186.548 181.139 186.235C180.422 185.654 179.972 184.907 179.799 184.007C179.724 183.64 179.626 183.284 179.439 182.973C179.088 182.382 178.903 181.76 178.929 181.071C178.953 180.572 178.801 180.149 178.448 179.77C177.908 179.189 177.579 178.477 177.617 177.656C177.631 177.189 177.533 176.722 177.258 176.399C176.454 175.44 176.317 174.173 175.658 173.137C175.262 172.524 175.056 171.791 175.159 171.014C175.309 169.949 175.337 168.883 174.81 167.881C174.712 167.692 174.691 167.447 174.681 167.236C174.643 165.981 174.284 164.758 174.313 163.504C174.327 162.96 174.175 162.426 173.967 161.892C173.661 161.091 173.544 160.246 173.969 159.416C174.092 159.161 174.127 158.85 174.151 158.562C174.211 157.718 174.2 157.718 173.292 157.58C173.063 156.935 173.343 156.404 173.678 155.883C173.694 154.884 173.921 153.908 174.015 152.921C174.109 152 174.047 151.067 174.251 150.168C174.399 149.559 174.368 149.003 174.194 148.425C173.846 147.268 173.951 146.17 174.566 145.118C174.902 144.543 175.149 143.967 175.164 143.256C175.178 142.645 175.325 142.024 175.528 141.415C175.956 140.129 176.462 138.844 176.69 137.524C176.93 136.137 177.547 134.853 177.654 133.443C177.69 132.966 177.914 132.512 178.237 132.136C178.717 131.572 178.864 130.896 178.946 130.186C179.085 128.932 179.523 127.835 180.558 127.03C181.114 126.6 181.627 126.125 182.018 125.528C183.035 123.945 183.974 122.351 184.67 120.579C185.356 118.861 186.648 117.447 188.084 116.322C189.008 115.594 189.964 114.933 190.766 114.072C191.491 113.298 192.336 112.781 193.434 112.631C194.875 112.439 196.218 111.969 197.442 111.154C198.231 110.625 199.119 110.463 200.061 110.391C201.314 110.286 202.555 110.171 203.807 110.211C204.261 110.224 204.672 110.049 205.094 109.929C206.148 109.657 207.19 109.563 208.229 110.046ZM200.681 112.515C200.004 112.755 199.338 112.885 198.629 112.926C197.155 112.995 195.933 113.544 195.04 114.783C194.404 115.668 193.569 116.329 192.536 116.724C191.715 117.041 191.08 117.571 190.655 118.346C190.633 118.379 190.61 118.412 190.599 118.434C190.197 119.076 187.211 122.025 186.599 122.499C184.897 123.811 183.548 125.403 183.214 127.61C182.985 129.13 182.479 130.449 181.332 131.509C180.92 131.895 180.696 132.416 180.604 132.97C180.478 133.758 180.075 134.411 179.761 135.12C179.089 136.615 178.261 138.054 177.986 139.74C177.757 141.149 177.76 142.615 177.143 143.955C176.998 144.265 177.096 144.599 177.171 144.932C177.452 146.355 177.345 147.731 176.54 148.993C176.272 149.413 176.203 149.846 176.245 150.357C176.307 151.156 176.125 151.966 176.121 152.777C176.117 153.487 176.213 154.176 176.276 154.865C176.329 155.42 176.561 155.41 176.994 155.368C178.557 155.21 180.143 154.963 181.693 155.171C183.177 155.379 184.639 155.476 186.146 155.495C187.531 155.513 188.928 155.365 190.312 155.495C190.556 155.518 190.833 155.464 191.078 155.388C191.932 155.126 192.786 154.964 193.684 154.958C194.471 154.962 195.214 154.722 195.892 154.326C197.282 153.511 198.702 153.164 200.329 153.539C201.17 153.732 202.037 153.248 202.88 153.019C204.301 152.638 205.688 152.179 207.087 151.754C207.364 151.667 207.719 151.669 207.919 151.492C209.1 150.443 210.619 150.174 212.007 149.593C212.685 149.308 213.198 148.711 213.941 148.537C215.406 148.19 216.651 147.408 217.885 146.604C218.13 146.439 218.352 146.307 218.454 145.974C218.814 144.811 219.517 143.882 220.485 143.154C220.663 143.022 220.886 142.901 220.986 142.724C221.613 141.583 222.592 140.9 223.681 140.207C224.415 139.744 224.974 138.77 225.168 137.827C225.373 136.818 225.522 135.797 225.572 134.787C225.584 132.589 225.64 130.38 225.585 128.181C225.567 127.426 225.316 126.658 224.91 125.99C224.657 125.567 224.493 125.122 224.385 124.655C224.114 123.488 223.599 122.452 222.839 121.515C222.575 121.192 222.277 120.924 221.935 120.722C221.548 120.498 221.229 120.197 220.942 119.851C220.777 119.65 220.634 119.405 220.425 119.282C218.9 118.397 217.833 116.992 216.542 115.841C215.495 114.903 214.19 114.408 212.827 114.3C211.332 114.193 209.993 113.874 208.946 112.725C208.616 112.357 208.217 112.388 207.829 112.486C206.819 112.736 205.856 112.564 204.905 112.204C204.584 112.08 204.274 112.001 203.942 112.01C202.833 112.06 201.725 112.143 200.681 112.515Z" fill="#020A13"/>
<rect x="93.1523" y="219.073" width="79" height="73" rx="10" transform="rotate(-8.28572 93.1523 219.073)" fill="#020A13"/>
<rect x="98" y="212.385" width="79" height="73" rx="10" transform="rotate(-8.28572 98 212.385)" fill="white"/>
<rect x="110.537" y="231.592" width="9" height="8" rx="2" transform="rotate(-7.15554 110.537 231.592)" fill="#007BFF"/>
<rect x="112" y="242.592" width="9" height="8" rx="2" transform="rotate(-7.15554 112 242.592)" fill="#007BFF"/>
<rect x="123" y="229.121" width="9" height="8" rx="2" transform="rotate(-7.15554 123 229.121)" fill="#007BFF"/>
<rect x="124.463" y="240.121" width="9" height="8" rx="2" transform="rotate(-7.15554 124.463 240.121)" fill="#007BFF"/>
<rect x="136" y="227.121" width="9" height="8" rx="2" transform="rotate(-7.15554 136 227.121)" fill="#007BFF"/>
<rect x="137.463" y="238.121" width="9" height="8" rx="2" transform="rotate(-7.15554 137.463 238.121)" fill="#007BFF"/>
<rect x="139.463" y="249.121" width="9" height="8" rx="2" transform="rotate(-7.15554 139.463 249.121)" fill="#FE0E11"/>
<rect x="149" y="225.121" width="9" height="8" rx="2" transform="rotate(-7.15554 149 225.121)" fill="#007BFF"/>
<rect x="150.463" y="236.121" width="9" height="8" rx="2" transform="rotate(-7.15554 150.463 236.121)" fill="#007BFF"/>
<rect x="152.463" y="247.121" width="9" height="8" rx="2" transform="rotate(-7.15554 152.463 247.121)" fill="#007BFF"/>
<rect x="161" y="223.121" width="9" height="8" rx="2" transform="rotate(-7.15554 161 223.121)" fill="#007BFF"/>
<rect x="162.463" y="234.121" width="9" height="8" rx="2" transform="rotate(-7.15554 162.463 234.121)" fill="#007BFF"/>
<rect x="164.463" y="245.121" width="9" height="8" rx="2" transform="rotate(-7.15554 164.463 245.121)" fill="#007BFF"/>
<path d="M110.375 223.75C111.692 223.739 113.473 224.015 114.722 223.423C115.275 223.162 115.852 223.111 116.444 223C117.117 222.873 118.194 223.091 118.806 222.805C121.222 221.678 123.724 221.706 126.292 221.278C127.298 221.11 128.378 221.433 129.375 221.194C129.996 221.046 130.538 220.75 131.194 220.75C132.38 220.75 133.565 220.75 134.75 220.75" stroke="black" stroke-width="3" stroke-linecap="round" stroke-linejoin="round"/>
<circle cx="182" cy="276" r="18" fill="#020A13"/>
<circle cx="184" cy="274" r="18" fill="#FE581D"/>
<g clip-path="url(#clip2)">
<path d="M189.836 270.948H185.969V267.573H184.703C185.095 267.05 185.305 266.413 185.303 265.76C185.303 264.788 184.843 263.875 184.103 263.377L183.789 263.166L183.475 263.377C182.734 263.875 182.275 264.788 182.275 265.76C182.272 266.413 182.483 267.05 182.874 267.573H181.469V270.948H178.164C177.623 270.948 177.105 271.163 176.723 271.545C176.341 271.928 176.126 272.446 176.125 272.987V279.312C176.125 279.611 176.244 279.897 176.455 280.108C176.666 280.318 176.952 280.437 177.25 280.437H190.75C191.048 280.437 191.334 280.318 191.545 280.108C191.756 279.897 191.875 279.611 191.875 279.312V272.987C191.874 272.446 191.659 271.928 191.277 271.545C190.895 271.163 190.377 270.948 189.836 270.948ZM183.789 264.601C184.034 264.906 184.178 265.321 184.178 265.76C184.178 266.199 184.034 266.613 183.789 266.918C183.543 266.613 183.4 266.199 183.4 265.76C183.4 265.32 183.543 264.906 183.789 264.601ZM182.594 268.698H184.844V270.948H182.594V268.698ZM177.25 272.987C177.25 272.744 177.347 272.512 177.518 272.341C177.689 272.169 177.922 272.073 178.164 272.073H189.836C190.078 272.073 190.311 272.169 190.482 272.341C190.653 272.512 190.75 272.744 190.75 272.987V274.097L189.991 274.432C189.842 274.497 189.682 274.531 189.519 274.531C189.357 274.531 189.197 274.497 189.048 274.432L187.727 273.849L186.405 274.432C186.256 274.497 186.096 274.531 185.933 274.531C185.771 274.531 185.611 274.497 185.462 274.432L184.141 273.849L182.819 274.432C182.67 274.497 182.51 274.531 182.347 274.531C182.185 274.531 182.025 274.497 181.876 274.432L180.555 273.849L179.233 274.432C179.085 274.497 178.924 274.531 178.762 274.531C178.6 274.531 178.439 274.497 178.291 274.432L177.25 273.973V272.987ZM190.75 279.312H177.25V275.202L177.836 275.461C178.128 275.589 178.443 275.656 178.762 275.656C179.08 275.656 179.395 275.589 179.687 275.461L180.555 275.078L181.422 275.461C181.714 275.589 182.029 275.656 182.348 275.656C182.666 275.656 182.981 275.589 183.273 275.461L184.141 275.078L185.008 275.461C185.3 275.589 185.615 275.656 185.934 275.656C186.252 275.656 186.567 275.589 186.859 275.461L187.727 275.078L188.594 275.461C188.886 275.589 189.201 275.656 189.519 275.656C189.838 275.656 190.153 275.589 190.445 275.461L190.75 275.326L190.751 279.312H190.75Z" fill="#FEFDFA"/>
</g>
<defs>
<clipPath id="clip0">
<rect width="242" height="361" fill="white" transform="translate(187 81.9999)"/>
</clipPath>
<clipPath id="clip1">
<rect width="63.9114" height="51" fill="white" transform="matrix(-0.803888 0.59478 0.59478 0.803888 102.377 59.0001)"/>
</clipPath>
<clipPath id="clip2">
<rect width="18" height="18" fill="white" transform="translate(175 263)"/>
</clipPath>
</defs>
</svg>
