<svg width="647" height="520" viewBox="0 0 647 520" fill="none" xmlns="http://www.w3.org/2000/svg">
<g clip-path="url(#clip0)">
<path d="M595.7 366C597.5 378.4 599.2 390.9 601.1 403.3C601.3 404.3 602.3 405.2 603 406.1C606.2 427.6 610.8 449 610.3 471C610 483.4 606.4 487.7 594.2 489.6C587.6 490.7 580.9 490.4 574.3 490.3C570.1 490.3 567 491.8 564.6 495.2C562.5 498.2 560.6 501.3 558.6 504.4C557.7 505.8 557.2 508 554.8 507.7C553.3 506.2 551.2 506.6 549.6 506.9C540.5 508.6 531.3 507.2 522.2 507.9C514.1 508.6 505.9 509.3 497.8 508.7C475.4 507.1 452.9 508.8 430.5 507.6C417 506.9 403.6 507.5 390.1 506.8C366.9 505.6 343.6 505 320.4 504.8C305.6 504.7 298.7 495.6 296.8 481.7C295.3 470 296.7 458.9 304 449.2C311.5 439.2 321.3 431.9 331.2 424.6C344.1 415.2 358 407.4 371.8 399.4C373.9 398.2 375.4 396.9 374.4 394.3C366.9 374.4 360.7 354 348.9 336C348.5 335.4 348.2 334.9 347.8 334.4C344.2 330 343.1 329.8 339.2 334C329.6 344.4 321.4 355.9 313.2 367.3C294.1 393.8 275.5 420.7 257.2 447.8C256.2 449.3 255.1 450.8 254.8 452.7C249.8 452.2 247.1 447.8 243.2 445.6C234.3 438.6 225 432.1 215.9 425.4C213.4 423.5 210.4 422.2 208.9 419.2C201.5 413.6 194.2 407.9 186.7 402.4C184.4 400.7 183.8 399.7 185.6 397C207.6 365 229.4 332.9 251.8 301.2C264.7 282.9 277.5 264.5 291.2 246.8C298 238 307.5 234.6 317.8 232.9C321.5 232.3 325.4 232.1 329.2 231.7C331.4 230.8 332.6 232.5 333.8 233.7C338 237.7 342 241.8 346.1 245.9C348.4 248.2 349.4 250.8 348.7 254C347.7 258.8 349 263.1 351.6 267.1C360.3 278.2 371.6 287.2 379 299.4C385 309.2 392.4 317.6 400.5 325.5C404.6 329.5 409.3 332.7 414.3 335.2C420.5 338.3 426.2 336.4 431.5 332.5C435.4 329.7 435.6 329.9 436.9 334.5C438.5 345.8 437.4 356.9 432.8 368.7C448.2 363.7 462.1 359 476.8 357.4C492 355 506.9 356.7 521.8 360.2C531.7 362.5 541.4 365.4 550.9 368.9C560.8 372.5 571.3 373.2 581.9 372C586.1 371.5 590 370.2 593 367C593.8 366.3 594.6 365.7 595.7 366Z" fill="#007BFF"/>
<path d="M595.7 366C592.3 371.9 586.5 373.4 580.4 373.8C568.9 374.4 557.7 373.2 546.7 369.1C526.4 361.6 505.4 356.8 483.5 358C481.2 358.1 478.9 358.5 476.6 358.8C472.6 351.8 468.1 345.5 461.1 341.1C455.2 337.4 448.9 335.2 441.9 335.3C439.8 335.3 437.5 335.7 435.7 334.1C435.7 330.8 434.7 331.6 432.8 333.1C424 339.8 419.5 339.9 410.1 334.4C405.6 331.8 401.7 328.6 397.9 325C389.8 317.4 383.3 308.8 377.4 299.5C370 287.8 359 279.1 350.6 268.1C350.9 267.3 351.5 266.7 352.1 266.1C364.9 253.7 368.4 239.1 362.3 222.3C362.1 221.9 361.9 221.4 361.7 221C359 214.5 354.6 209.3 348.9 205.2C347.3 204.1 345.4 203.2 345.1 200.9C346.4 196.1 349.5 192.4 353 189.1C354.9 187 356.4 186.8 358.6 189.1C364.3 195.2 370.3 201 376 206.9C377.7 208.7 379.2 209.6 382 209C386.4 208 390.1 209.9 393.2 213C398.5 218.3 403.7 223.7 409.1 228.8C413.3 232.8 414.8 232.6 418.1 227.8C425.4 217.3 431.3 205.9 437.7 194.8C440.7 189.5 444 184.2 446.7 178.7C450.4 171.3 449 167 442.2 162.7C430 155.1 430 155.1 437.8 143.2C438.1 142.8 438.3 142.3 438.6 141.9C439.6 138.6 439.8 134.5 445 135.3C447.8 137.3 450.8 139.1 453.5 141.2C450.8 138.3 446.7 137.2 444.3 133.9C444.1 130.1 447.4 128.2 449.1 125.4C455.3 117.6 461.9 110.1 470.1 104.3C471.6 103.3 472.8 101.8 474.9 101.9C478.4 101.3 481 97.7001 485.1 98.7001C483.2 102.5 484.6 107.4 480.9 110.6C480.2 110.7 479.6 110.6 478.4 110.1C479.8 112.8 481.6 114.8 482.1 117.4C483.4 124.3 484.8 131.1 488.8 137.1C499.9 153.6 519.7 159.1 538 150.8C556.7 172.7 564.8 199.3 571.8 226.3C575 238.6 577.7 251.1 580.6 263.5C580.9 264.6 580.8 265.8 580.8 267C579.8 269 577.9 269 576.1 269.2C557 271.6 541 289.2 541.3 308.3C541.9 335.8 565.9 353.4 591 347.5C592 347.3 592.9 346.9 593.9 346.8C595 353.2 595.9 359.5 595.7 366Z" fill="#EF7BF1"/>
<path d="M244 445C247.6 447.6 251.2 450.2 254.9 452.8C265.2 467.9 265 484.5 261.4 501.3C257.5 519.8 257.2 519.7 238.4 519.7C187.3 519.7 136.1 519.6 84.9999 519.8C80.4999 519.8 79.3999 519.1 80.3999 514.4C83.4999 500 87.9999 486.1 92.9999 472.4C97.2999 460.4 106.1 455.4 117.8 454C134.7 452 151.5 449.6 167.6 443.8C173.4 441.7 179.1 439.5 184.2 435.5C181.9 434.3 179.8 433.2 177.8 432.1C177.4 430.7 178.4 430.5 179.3 430.1C179.3 429.3 182.5 431.2 180.5 429C177.8 425.8 175.1 422.7 173 419.1C172.3 417.9 172 415.9 170.2 416C168 416.2 168.2 418.3 167.9 419.9C167.8 420.4 167.8 420.9 167.7 421.4C167.3 422.3 167.1 423.3 165.7 423C162.9 417.2 164.3 413.1 170 411.4C171.5 411 172.1 410.3 172.8 409.1C176.3 403.4 180.9 403.1 185.1 408.3C189.1 413.3 191.1 419.4 193 425.4C193.6 427.2 193.8 429.6 196.8 428.5C207.8 426.5 215.5 431.8 221.7 440.1C223 441.9 224.4 442.9 226.7 442C233.1 439.4 238.7 441.3 244 445Z" fill="black"/>
<path d="M324.801 96C327.901 109.1 326.001 121.7 320.201 133.6C309.701 155.3 285.301 169.9 259.901 165.8C259.201 164.7 259.701 163.5 259.901 162.4C260.701 158.8 258.801 156.7 255.601 156.5C250.001 156.2 247.601 152.7 245.501 148.3C242.001 140.9 239.501 133.1 237.901 125.1C236.701 119.5 233.501 116 228.401 113.9C224.201 112.2 219.901 111 215.501 110.1C213.301 109.6 210.801 109.6 209.001 107.9C208.401 99.7 210.401 91.9 213.601 84.4C220.701 85.2 227.501 84.3 234.101 81.7C240.701 79.1 244.901 74.7 244.601 67.1C244.501 63.5 245.301 60.6 249.101 59.2C253.101 57.7 253.701 53.4 255.801 50.3C267.801 47.6 279.301 49 290.501 53.7C295.301 59.4 299.701 65.3 300.401 73.2C300.701 76.9 304.601 79 309.901 79.7C312.901 80.1 315.801 78.4 318.701 79.6C322.001 84.5 324.001 90 324.801 96C321.801 98.1 318.701 97 315.701 96.3C305.801 94.2 296.301 90.5 286.301 88.5C283.001 87.8 279.701 87.8 276.401 88C270.001 88.4 266.801 94.2 270.001 99.7C273.001 104.9 276.601 109.7 279.001 115.2C282.201 122.7 281.501 129.3 275.801 135.4C270.701 140.9 270.601 144.7 275.101 150.9C277.401 154 280.001 156.8 282.901 159.3C279.501 155.6 275.601 152.2 273.301 147.5C271.401 143.6 271.401 139.9 274.601 137C283.501 129 282.101 119.6 276.801 110.3C274.801 106.8 272.401 103.6 270.401 100.2C266.901 94.1 270.101 88.4 277.101 87.9C282.101 87.5 287.001 88.4 291.801 89.8C299.901 92.1 308.001 94.8 316.301 96.5C319.101 97.1 322.201 98.8 324.801 96Z" fill="#3D97E6"/>
<path d="M554.799 507.8C557.899 502.9 561.099 498.1 564.199 493.2C566.099 490.1 568.599 488.8 572.499 488.9C579.999 489.1 587.499 489 594.899 488C604.799 486.7 608.199 483.3 608.799 473.2C609.699 458.6 607.399 444.3 605.299 430C604.299 423.6 603.299 417.2 602.299 410.8C601.999 409.2 601.499 407.5 602.999 406.2C612.199 402.4 621.599 400 631.599 403C638.899 405.2 643.999 408.7 644.399 417.7C644.999 431.2 646.199 444.4 642.499 457.8C639.999 467 642.199 476.7 643.299 486.1C644.399 495.2 645.599 504.3 646.599 513.4C646.899 516.1 646.699 518.1 642.899 518.1C612.799 518 582.599 518 552.499 518C552.099 518 551.599 517.8 550.699 517.6C552.099 514.1 553.399 510.9 554.799 507.8Z" fill="black"/>
<path d="M353.099 189C351.599 193.6 347.599 196.7 345.699 201.1C345.199 205.3 341.799 207.9 339.699 211.2C336.899 215.7 333.799 220 330.699 224.2C329.699 225.6 328.999 227.5 326.599 227.2C318.499 226.5 310.799 227.6 303.199 230.6C291.299 235.3 278.599 236.2 265.999 236.6C258.099 236.9 249.999 237.6 242.099 236C235.799 234.7 234.399 232.6 235.999 226.5C236.699 223.8 234.799 224.4 233.599 223.9C229.699 221.9 225.999 219.8 226.699 214.4C235.099 206.7 244.899 206.6 255.199 209C256.499 209.3 257.799 209.9 258.899 208.7C266.699 216.5 276.299 215.3 285.899 214.3C289.699 213.9 293.399 213.1 297.199 212.5C289.699 213.7 282.099 215 274.499 215C271.799 215 269.199 214.6 266.699 213.7C261.399 211.8 259.999 208.9 261.499 203.3C260.099 205 260.599 207.5 258.799 209C252.799 209.5 247.099 207.1 241.099 207.5C238.999 207.6 238.999 205.6 239.899 204.1C241.499 201.5 244.099 200.4 246.999 200.1C249.399 199.8 251.899 200 253.999 200C251.899 199.4 248.999 201.1 246.799 198.7C248.299 194.3 251.799 193.7 255.599 194.4C258.899 195 261.999 196.1 265.299 196.7C274.599 198.5 283.499 197.6 291.799 192.6C304.699 184.8 318.999 182.1 333.699 181.3C341.299 180.7 347.699 183.9 353.099 189Z" fill="#EC4546"/>
<path d="M593.8 346.8C592.9 350.2 589.6 349.3 587.5 349.6C563.8 352.8 544.3 336.9 540.5 315.1C536.9 294.5 551.7 273.1 571.8 268.3C574.7 267.6 577.9 268.6 580.6 267C586.6 293.4 590.6 320 593.8 346.8Z" fill="#DB34DE"/>
<path d="M444.401 135.6C440.901 136.3 440.801 140 438.701 142C432.801 137.7 426.401 135.7 419.001 135.1C403.101 133.9 394.901 125.9 392.001 110.1C391.701 108.5 391.501 106.8 391.201 105.2C392.901 103.6 394.801 105 396.601 105C398.101 105 399.701 106.4 401.101 104.8C401.001 101.7 400.501 98.6 400.001 95.6C399.901 94.8 400.001 94 399.901 94.1C397.401 96.6 396.201 101.7 391.201 103.2C391.101 99.9 390.901 96.6 390.801 93.3C391.701 91.3 392.701 89.2 391.301 87C391.601 85.4 391.901 83.9 392.201 82.3C392.301 81.4 395.001 81.5 393.101 79.8C393.601 78.4 394.001 76.9 394.501 75.5C396.201 74.5 398.001 74.7999 399.801 75.1999C408.401 76.9999 417.001 79 425.701 80.3C431.401 81.2 433.801 84.1 434.401 89.4C434.601 91 435.101 92.6 435.001 94.3C434.901 95.7 434.201 96.8 433.501 97.9C428.401 106 429.701 109.4 438.801 111.5C443.001 116.1 446.901 120.8 450.001 126.2C448.701 129.3 445.301 131.2 444.801 134.8C445.101 135.1 445.001 135.4 444.401 135.6Z" fill="#EC4546"/>
<path d="M396 72.9C404.5 58.5 417.3 51.2 433.8 51.2C455 51.1 474.1 69 474.9 88.9C473.1 90.4 471.1 89.5 469.2 89.2C446.3 84.9 423.6 79.9 400.7 75.3C398.9 74.9 396.9 74.9 396 72.9Z" fill="#EF7CF1"/>
<path d="M537.899 150.8C535.599 155.6 530.699 155.2 526.799 155.7C502.799 158.8 482.499 141.5 480.899 117C483.099 116.7 483.399 118.8 484.399 119.7C483.399 116.3 479.299 114.3 479.899 110C482.199 109.5 481.599 107.6 481.799 106C482.199 103.3 482.099 100.3 484.899 98.6C499.399 106.6 510.7 118.3 521.5 130.6C527.3 137.2 532.399 144.1 537.899 150.8Z" fill="#DB34DE"/>
<path d="M146.8 108.8C143 105.3 140 102.8 137.3 99.9C135.3 97.8 133.9 97.6 131.7 99.8C127.5 104 123 107.9 117.5 112.9C119.3 106.4 120.4 101.2 122.2 96.1C123.5 92.4 122.1 91.5 118.9 91.1C115.3 90.7 111.8 90 106.9 89.3C110.9 86.5 113.9 84 117.3 82.1C120 80.5 120.5 78.9 119.1 76.1C117.6 73.3 116.6 70.3 115.3 67.2C117.7 66.2 119.6 67.7 121.5 68.2C128.4 69.9 128.4 70 131 63.2C132 60.6 133.1 58 134.3 55.1C136.7 58.7 137.8 62.5 139.1 66.3C140.2 69.7 141.6 70 144.7 68.3C149.8 65.5 155.1 63.2 161.2 61.3C157.8 66.2 154.6 71.2 151.1 75.9C148.9 78.8 148.6 80.4 152.4 82C156.7 83.8 160.7 86.4 166.1 89.3C159.6 90.2 154.5 91.1 149.5 91.4C146.3 91.6 145.7 93 146 95.8C146.3 99.7 146.4 103.5 146.8 108.8Z" fill="black"/>
<path d="M208.901 107.9C213.901 108.1 218.701 109.5 223.601 110.8C232.401 113.2 238.601 117.5 240.001 127.7C241.101 135.7 244.301 143.4 248.201 150.6C249.501 153 250.901 154.8 254.201 155C262.101 155.5 263.601 158.6 260.001 165.8C232.101 163.9 207.501 136 208.901 107.9Z" fill="black"/>
<path d="M326.599 227.3C333.699 219.1 338.799 209.5 345.699 201.1C350.599 205.1 355.999 208.5 359.499 214.1C360.899 216.3 362.499 218.4 362.699 221.1C360.299 221.4 359.199 219.4 357.799 218.1C355.099 215.5 352.399 212.7 349.699 210.9C352.599 213.5 355.599 216.8 358.799 219.9C359.799 220.9 360.799 222.4 362.599 221.1C368.499 231.6 367.699 242.3 363.299 252.8C360.699 259 357.499 265.1 350.699 268C347.299 263.9 346.399 259.1 347.499 254C348.299 250.7 347.399 248.4 344.899 246.2C339.499 241.6 334.899 236 329.199 231.8C328.399 230.3 326.299 229.5 326.599 227.3Z" fill="#DB34DE"/>
<path d="M395.999 72.9C418.699 77.5 441.399 82.2 464.099 86.8C467.699 87.5 471.199 88.1999 474.799 88.9C475.999 93.2999 474.599 97.6 474.799 102C465.199 108.7 457.399 117.3 449.799 126C445.499 121.9 441.399 117.5 438.799 112.1C439.099 110.5 440.599 109.8 441.599 108.8C444.299 106 445.999 102.9 444.499 98.9999C442.999 94.9999 439.599 95.0999 436.199 95.5999C435.399 95.6999 434.499 95.6999 433.899 94.9999C431.299 82.7999 431.299 82.7 419.299 80.4C410.999 78.7999 402.699 77.0999 394.399 75.4999C385.299 73.6999 376.199 71.8999 367.099 69.9999C365.899 69.7999 363.799 69.9 364.099 68.3C364.499 66 366.499 67.4999 367.699 67.6999C377.099 69.3999 386.499 71.0999 395.999 72.9Z" fill="black"/>
<path d="M291.9 53.9999C295.3 53.4999 298.7 52.2999 302.2 53.2999C303.7 53.6999 304.2 52.7999 304.9 51.7999C312.7 42.0999 312.7 42.1 322.2 49.2C325.7 41.6 328.7 39.6 335.6 39.9C340.4 40.2 346.2 44.7999 347.3 50.5999C348.2 55.5999 350.3 55.4 353.8 53.7C357.1 52.0999 359.9 53.2999 362.5 55.2999C363.8 56.2999 365.1 57.7 364.4 59.5C363.8 61.4 361.9 60.7999 360.5 60.7999C343.6 60.7999 326.6 60.8 309.7 60.9C308 60.9 306 60.2 304.5 61.9C299.7 60.5 295.1 58.4 291.9 53.9999Z" fill="#00C6FC"/>
<path d="M207 163C196.5 163 187.1 163 177.7 163C166.1 163 154.4 163 142.8 163C141.4 163 139.6 163.6 139 161.6C138.5 159.7 139.7 158.4 141.2 157.5C143.6 155.9 146.3 155.2 148.7 156.7C152.1 158.7 152.8 156.9 153.7 154.2C155.4 148.9 157.7 144.4 164.3 144.1C170.4 143.8 172.4 148.1 174.4 152.9C175.5 151.8 176.4 151.1 177.2 150.3C180.1 147.2 183.2 147.3 185.6 150.6C188.4 154.5 191.4 156.6 196.6 156.5C200.3 156.2 203.6 158.9 207 163Z" fill="#D0E9FE"/>
<path d="M623.122 130.362C622.822 134.862 622.422 139.262 620.322 143.362C618.122 147.562 615.322 148.462 611.322 145.862C605.722 142.162 601.922 136.862 600.322 130.362C599.222 125.962 601.022 122.162 604.522 119.462C608.322 116.562 612.522 116.262 616.722 118.362C621.722 120.762 623.422 125.062 623.122 130.362Z" fill="#010101"/>
<path d="M214.5 82.9001C222.3 65.9001 235.4 55.3 253.5 50.8C255.3 55.5 251.9 57.6 248.7 59.1C245.6 60.6 244.8 62.4 244.7 65.6C244.6 74.4 241.1 78.9001 232.9 81.9001C228.2 83.6001 223.5 85.0001 218.4 84.8001C216.8 84.9001 214.9 85.4001 214.5 82.9001Z" fill="#3D97E5"/>
<path d="M340.199 6.5C348.599 11.2 349.899 5.4 351.499 0C355.999 8.3 355.999 8.3 363.899 4.5C364.699 4.1 365.599 3.7 367.899 2.7C365.499 6.3 363.999 8.8 362.199 11C360.299 13.4 360.299 14.9 363.399 16.1C365.399 16.9 367.199 18.1 369.099 19.2C368.799 19.6 368.699 19.9 368.499 20C365.399 20.5 361.699 20.1 359.399 21.8C357.199 23.4 359.499 27.3 358.399 31.2C351.899 20.1 347.799 29.1 342.899 32.7C342.899 31.5 342.799 30.8 342.899 30.2C344.799 21.8 344.799 21.8 336.199 19.6C340.499 16.4 347.099 14 340.199 6.5Z" fill="#010101"/>
<path d="M244 445C237.7 442.8 231.5 440.3 225 444.1C223.1 445.2 222.8 443.4 222.1 442.4C216 433.5 208.1 428 197 428.4C204.2 429.4 206 423.4 209 419.1C221 427.2 232.6 435.9 244 445Z" fill="#EB4546"/>
<path d="M291.901 54C296.201 56.7 300.501 59.4 304.801 62C310.101 67.3 315.801 72.3999 318.701 79.5999C313.101 81.6999 307.601 81.4999 302.401 78.5999C300.701 77.5999 298.601 76.4999 298.901 74.1999C299.701 67.6999 295.701 63.2999 292.701 58.2999C291.801 56.8999 289.701 56 290.501 53.7C290.901 53.8 291.401 53.9 291.901 54Z" fill="#010102"/>
<path d="M622.813 53.7712C622.213 56.7712 623.313 62.3712 618.413 63.2712C613.613 64.2712 611.313 59.2712 609.213 55.4712C607.413 52.2712 607.513 49.0712 610.213 46.3712C612.513 43.9712 615.313 43.3712 618.413 44.6712C621.913 46.2712 623.113 49.1712 622.813 53.7712Z" fill="#020202"/>
<path d="M214.5 82.9C224 84.9 232.5 82.3 239.9 76.5C243.2 73.9 243.7 69.6 243.4 65.6C243.1 61.9 244.1 59.6 247.8 58.4C251.3 57.2 252.9 54.4 253.5 50.9C254.1 50.1 254.9 50.1 255.8 50.3C255.9 55.2 253.6 58.6 249.3 60.4C246.7 61.5 245.9 62.8 245.9 65.5C245.9 75.5 242.8 79.8 233.3 83.3C228.3 85.2 223.2 86.3 217.8 86.1C216.2 86 214.4 86.6 213.6 84.4C213.8 83.9 214.1 83.4 214.5 82.9Z" fill="#04090E"/>
<path d="M246.9 198.6C250.2 198.7 253.6 198.7 256.9 199C258.1 199.1 260.1 199 259.6 200.9C259.3 202.4 257.7 201.5 256.6 201.4C251.8 200.8 247 200.3 242.5 202.9C241.3 203.6 240.5 204.6 240 206.3C246.6 206.3 252.9 206.8 258.9 208.9L258.8 208.8C258.9 211.9 257 210.8 255.4 210.4C251.4 209.4 247.3 208.8 243.1 208.9C238.1 209 233.5 209.9 230.2 214C229.1 215.3 228.1 215.4 226.9 214.4C227.4 210.4 231.1 209.8 233.7 208.2C235.1 207.4 237 207.5 237.6 205.5C238.9 201 242.8 199.7 246.9 198.6Z" fill="#0D0505"/>
<path d="M146.941 409.469C146.695 407.827 147.003 405.578 145.033 405.092C142.939 404.545 141.893 406.551 140.908 408.071C139.922 409.59 139.492 411.231 140.908 412.751C141.954 413.906 143.309 414.331 144.786 413.724C146.695 412.933 147.188 411.353 146.941 409.469Z" fill="#040404"/>
<path d="M605.14 84.2268C606.884 86.5784 609.9 88.943 608.031 91.8937C606.234 94.7745 602.64 93.5354 599.748 92.8692C596.997 92.2045 594.818 90.8385 594.498 87.6531C594.241 85.1047 595.253 82.9937 597.597 81.9571C600.651 80.6449 603.115 81.731 605.14 84.2268Z" fill="#050505"/>
<path d="M566.414 147.113C565.514 149.613 566.914 154.013 562.114 154.513C559.414 154.813 554.714 148.513 555.014 145.313C555.314 141.913 557.414 139.813 560.914 140.013C565.214 140.213 566.514 143.013 566.414 147.113Z" fill="#040404"/>
<path d="M160.2 392.022C159.6 394.622 160.5 398.622 156.3 399.722C153.8 400.422 149 394.322 149 390.822C149 387.322 151 385.222 154.4 385.022C157.8 384.722 160.2 387.522 160.2 392.022Z" fill="#050505"/>
<path d="M135.3 404.923C135 407.823 135.4 411.723 132.1 412.623C128.5 413.623 126.8 410.023 125.2 407.323C123.7 404.923 123.4 402.323 125.5 400.023C127.2 398.123 129.4 397.423 131.8 398.523C134.5 399.723 135.6 401.923 135.3 404.923Z" fill="#050505"/>
<path d="M566.137 76.0527C568.636 76.3648 571.637 76.1792 573.424 78.8879C574.416 80.3927 573.41 81.7878 572.404 82.883C569.992 85.3714 567.28 87.9584 563.483 87.24C560.386 86.6251 558.597 84.3164 559.113 81.0189C559.632 77.2213 562.238 75.8339 566.137 76.0527Z" fill="#040404"/>
<path d="M575.182 109.995C574.882 112.695 575.082 115.795 572.282 117.495C570.582 118.495 569.082 117.095 567.982 115.995C565.482 113.495 563.182 110.695 564.282 106.895C565.082 104.095 567.482 102.595 570.482 103.095C574.282 103.695 575.382 106.495 575.182 109.995Z" fill="#050505"/>
<path d="M645.214 104.603C644.414 107.003 645.314 110.903 641.214 111.703C638.414 112.203 633.714 105.803 634.014 102.203C634.314 98.9025 636.214 97.1025 639.514 97.0025C643.314 96.9025 645.414 99.8025 645.214 104.603Z" fill="#030303"/>
<path d="M389 167.3C386.4 171.5 381.901 170.4 378.701 172.9C378.901 169.5 375.3 166.2 378.3 163.2C381.1 160.4 385.1 163.6 388.8 161.7C388.2 164.1 383.7 166.5 389 167.3Z" fill="#101010"/>
<path d="M402.8 105.7C401.8 108.5 399.9 106.7 398.4 106.5C396 106.2 393.6 105.6 391.2 105.1C391.2 104.4 391.1 103.7 391.1 103C393.7 99.9 396.3 96.7 398.9 93.6C399.3 93.1 399.8 92 400.7 92.9C401 93.2 400.7 94.1 400.7 94.7C400.4 95.3 400.7 94.5 400.5 95.2C399.8 97.9 396.5 99.4 396.6 101.9C396.9 104.9 401.6 102.9 402.8 105.7Z" fill="#290707"/>
<path d="M179.801 430.9C179.001 431.1 178.201 431.1 177.801 432C173.001 430.1 168.501 427.7 165.801 422.9C166.701 422.5 166.701 421.6 166.901 420.8C171.101 424.2 176.501 426.2 179.801 430.9Z" fill="#1E1E1E"/>
<path d="M391.101 86.8C394.901 89.6 394.901 90.2 390.601 93.1C388.001 90.8 387.401 88.6 391.101 86.8Z" fill="#130D0D"/>
<path d="M392.9 79.7C394.4 80 396.1 79.3 397.7 80.8C395.8 82.5 393.7 81.6 391.9 82.2C390.7 81.7 389.5 83.3 388 82C389.2 80 391.3 80.2 392.9 79.7Z" fill="#533232"/>
<path d="M435.9 334C452.2 332.4 464.9 338.7 474.1 352C475.5 354 477 356.1 476.7 358.8C461.4 361 446.6 365.1 431.4 371.4C432.8 365.8 433.7 360.9 435.3 356.3C437.8 348.8 435.2 341.4 435.9 334Z" fill="#DB34DE"/>
<path d="M560.499 490.1C552.399 488.8 545.599 487.7 538.699 486.6C504.699 481 470.499 476.7 435.999 475.3C410.099 474.2 384.999 479.1 360.199 485.9C359.199 486.2 357.899 487.7 357.299 486C356.599 484.3 358.499 483.9 359.699 483.5C366.899 481 374.499 479.8 381.999 478.1C412.499 470.8 443.099 472.5 473.899 475.6C501.099 478.3 528.099 482.1 554.899 487C556.699 487.1 558.599 486.9 560.499 490.1Z" fill="#070708"/>
<path d="M562.601 429.7C560.301 431.8 557.601 430.8 555.101 430.5C534.801 428.3 521.001 416.7 511.101 399.7C508.201 394.7 505.901 389.3 504.301 383.6C503.901 382.3 502.601 380.5 504.601 379.9C506.301 379.4 506.201 381.6 506.601 382.8C508.901 390.5 512.301 397.7 517.001 404.3C527.301 418.9 540.901 427.7 559.101 428.2C560.101 428.2 561.001 428.5 562.001 428.7C562.301 428.8 562.401 429.3 562.601 429.7Z" fill="#0C0D0F"/>
<path d="M379.6 396.4C379.3 394.3 381.1 394.1 382.3 393.6C397.1 386.7 411.9 379.9 426.7 373.2C427.7 372.7 429.2 371.2 430.1 373.1C430.8 374.5 429 374.8 428.1 375.3C412.7 382.4 397.3 389.5 381.9 396.6C381.2 396.8 380.4 397.1 379.6 396.4Z" fill="#0D0F10"/>
<path d="M345.101 320.4C344.101 323 346.301 327.3 343.601 327.4C341.201 327.5 342.801 323 342.401 320.6C341.401 314.6 342.201 308.2 338.301 302.9C337.901 302.4 337.601 301.7 338.201 301.1C339.001 300.4 339.701 300.8 340.301 301.4C342.201 303.4 343.001 306 343.501 308.6C344.301 312.7 344.601 316.6 345.101 320.4Z" fill="#171A1C"/>
<path d="M341.3 328.5C341.4 329.8 341.4 330.7 340.3 330.8C339.2 330.9 339 330 338.8 329.2C337.6 324.4 336.7 319.4 333.1 315.6C332.6 315.1 332.4 314.3 333.2 313.9C334.3 313.3 335.1 314 335.8 314.7C339.2 318.8 340.1 323.9 341.3 328.5Z" fill="#171A1C"/>
<path d="M466.899 299.7C466.399 297.3 464.099 297.6 462.499 297C446.899 291.3 435.899 275.7 435.799 259.1C435.699 241.6 447.399 225.9 464.299 220.6C481.199 215.3 499.599 221.6 509.499 236.1C510.399 237.5 511.499 238.7 512.599 240C513.399 241.7 512.199 242.9 511.399 244C499.099 262.5 486.399 280.7 470.999 296.8C469.899 298 469.199 300.2 466.899 299.7Z" fill="#DB34DE"/>
<path d="M516.8 262.9C513.9 281.3 503.8 293.5 485.7 298.3C481.2 299.5 476.3 300.8 471.6 298.8C471.6 294.4 475.2 292.1 477.6 289.5C489.7 276.8 499 262 509.2 247.8C510.4 246.2 511 243.7 513.8 243.8C516.2 247.2 515 251.8 517.7 255.1C519.4 257.9 516.1 260.2 516.8 262.9Z" fill="#DB34DE"/>
<path d="M513.699 243.8C508.899 250.5 503.899 257.1 499.399 264C491.199 276.5 480.699 287.1 471.599 298.8C462.699 308.2 454.199 318 443.399 325.4C441.999 326.3 439.999 328.9 438.999 327.3C437.599 325.2 440.799 324.4 442.199 323.4C451.399 316.5 459.799 308.7 466.999 299.7C484.399 281.4 499.199 261.2 512.799 240C518.499 232.2 524.099 224.5 529.899 216.8C530.599 215.8 531.399 213.5 533.099 215C534.499 216.2 532.499 217.3 531.799 218.2C525.299 226.5 519.099 234.9 513.699 243.8Z" fill="#0B040B"/>
<path d="M418.4 262.9C418.3 253.7 417.4 246.2 415.3 238.8C415 237.9 414.4 236.6 415.4 236.2C416.9 235.6 417.3 237.1 417.6 238.2C421 249.3 420.9 260.8 420.7 272.2C420.7 273 420.5 274 419.4 273.8C418.3 273.7 418.4 272.6 418.4 271.9C418.4 268.3 418.4 264.8 418.4 262.9Z" fill="#0B050B"/>
<path d="M516.801 262.9C514.001 260 517.801 257.7 517.601 255.1C519.801 249.4 521.901 243.6 524.101 237.9C524.401 237 524.801 235.8 526.101 236.1C527.101 236.4 527.101 237.4 526.701 238.2C523.001 246.3 521.501 255.2 516.801 262.9Z" fill="#180C18"/>
<path d="M352.5 197C355.2 195.1 356.1 196.7 357.2 197.6C361.6 201.1 366 204.6 370.3 208.1C371 208.7 372 209.4 371.1 210.5C370.6 211.1 369.9 211 369.4 210.5C363.8 206 358.3 201.6 352.5 197Z" fill="#190D19"/>
<path d="M462.299 114.3C463.299 114.7 463.799 114.7 464.199 115C468.999 118.2 473.899 121.5 477.699 125.9C478.299 126.6 479.199 127.5 478.199 128.5C477.399 129.3 476.699 128.6 476.099 128C472.299 123.7 467.599 120.6 462.999 117.3C462.299 116.8 461.499 116.4 461.699 115.4C461.899 114.9 462.199 114.5 462.299 114.3Z" fill="#1E0F1E"/>
<path d="M440.099 145.9C440.599 146.3 441.299 146.8 441.899 147.3C445.699 151.3 450.099 154.5 454.699 157.6C455.599 158.2 457.299 158.5 456.199 160.1C455.399 161.3 454.399 160.3 453.599 159.9C448.599 156.9 443.999 153.3 439.999 149.1C439.399 148.4 438.399 147.7 438.999 146.6C439.199 146.3 439.599 146.2 440.099 145.9Z" fill="#180C18"/>
<path d="M469.299 135.3C468.899 136.3 468.199 136.8 467.399 136.2C463.199 132.9 459.099 129.6 454.999 126.2C454.499 125.8 454.299 125.1 454.799 124.4C455.299 123.7 456.099 124 456.599 124.3C460.599 127.5 464.599 130.8 468.599 134.1C468.899 134.4 469.099 134.9 469.299 135.3Z" fill="#190D19"/>
<path d="M422.799 238.4C423.299 238.8 423.799 239.1 423.999 239.5C426.599 243.5 428.999 247.7 430.499 252.2C430.799 253 430.699 253.9 429.699 254.2C428.599 254.6 428.199 253.6 427.999 252.9C426.599 248.6 424.199 244.8 421.999 241C421.399 240 421.199 239 422.799 238.4Z" fill="#1F101F"/>
<path d="M479.899 110.1C481.899 113.3 483.999 116.4 485.999 119.6C486.499 120.4 487.399 121.4 486.399 122.2C484.999 123.3 484.499 121.8 483.799 120.9C482.799 119.6 481.899 118.3 480.899 117C479.799 115.2 478.699 113.4 477.599 111.5C476.999 110.5 475.899 109.3 477.199 108.5C478.399 107.8 478.999 109.5 479.899 110.1Z" fill="#1B0A1B"/>
<path d="M444.4 135.6C444.5 135.3 444.6 134.9 444.6 134.6C449.3 135.1 452 139 455.7 141.2C456.4 141.6 457 142.3 456.3 143.2C455.6 144 454.8 143.6 454.1 143.1C450.9 140.6 447.1 138.7 444.4 135.6Z" fill="#201121"/>
<path d="M192.101 430.6C186.401 423.6 182.101 417.2 175.601 412.9C173.901 411.8 174.701 410.2 175.701 409C177.001 407.3 178.801 406.2 180.901 407.5C182.101 408.3 183.301 409.4 184.101 410.6C187.901 416.3 190.001 422.7 192.101 430.6Z" fill="#F8F8F8"/>
<path d="M179.799 430.9C175.199 427.9 169.999 425.7 166.899 420.8C166.699 418.8 166.399 416.8 167.899 415.2C169.299 413.7 171.499 412.6 172.299 414.8C174.799 421.6 179.999 426.1 184.899 431.3C182.899 432.9 181.399 430.9 179.799 430.9Z" fill="#F9F9F9"/>
<path d="M176.4 416.9C180.8 420 184.1 423.9 186.7 428.5C182.1 425.6 178.5 421.9 176.4 416.9Z" fill="#CECECE"/>
<path d="M324.8 96C325.3 99.6 322.6 98.6 320.9 98.5C315.1 98 309.5 96.2 303.9 94.6C297.5 92.7 291.2 90.6 284.6 89.5C282 89.1 279.3 88.8 276.7 89.1C270.5 89.7 268.2 94.4 271.4 99.7C274.4 104.7 277.9 109.4 280.1 114.8C283.4 123.1 283 130.8 275.9 137.1C272.5 140.2 272.3 143.6 274.3 147.4C276.4 151.5 279.7 154.6 282.8 157.8C284.2 159.3 286.2 160.3 286.8 162.9C283.6 163.2 282.5 160.8 281 159.3C278.4 156.7 275.9 154 273.8 151.1C269.1 144.5 269.5 140.2 275.2 134.4C279.4 130.1 280.7 125.1 279.1 119.3C277.4 113.1 273.8 107.9 270.4 102.6C268.2 99.2 266.1 95.8 268.5 91.6C271 87.2 275.2 86.5 279.7 86.6C287.5 86.8 294.7 89.4 302 91.4C309.4 93.5 316.7 96.5 324.8 96Z" fill="#020609"/>
<path d="M238.801 223.1C256.601 227.5 274.201 233.6 293.101 230.9C285.201 236.7 246.901 231.2 238.801 223.1Z" fill="#130506"/>
<path d="M258.801 208.9C259.201 202.4 260.701 200.4 265.801 200.3C264.001 203 260.001 204.8 262.101 208.6C264.401 212.8 268.701 213.4 272.801 213.7C280.601 214.1 288.301 212.7 296.001 211.4C297.801 211.1 299.501 210.5 301.401 211.1C301.301 213.7 299.101 213.4 297.701 213.6C289.901 215 282.001 216.1 274.001 216.1C267.701 216.1 262.401 214.3 258.801 208.9C258.801 208.8 258.801 208.9 258.801 208.9Z" fill="#120505"/>
<path d="M433.899 94.9C440.699 92.9 443.999 93.8 445.799 98C447.899 103 445.199 108.4 438.799 112C434.899 112.3 431.599 111.7 429.699 107.7C427.799 103.5 429.799 100.4 432.099 97.2C432.599 96.4 433.199 95.7 433.899 94.9Z" fill="#D4090A"/>
<path d="M419.799 103.9C419.699 107.3 417.999 109.1 414.499 109C411.199 108.9 409.699 107.1 409.699 104C409.699 100.7 411.399 98.3 414.599 98.4C417.599 98.4 419.899 100.3 419.799 103.9Z" fill="#D70B0C"/>
<path d="M402.799 105.7C392.799 103.1 392.799 103.1 399.999 95.3C400.199 95.1 400.499 94.9 400.799 94.7C402.299 98.2 401.699 102.1 402.799 105.7Z" fill="#D0090A"/>
<path d="M407.7 94.9C406.3 94.8 405.2 94 405.1 92.5C405 90.7 406.1 89.7 407.8 89.7C409.4 89.7 410.3 90.7 410.3 92.3C410.2 93.8 409.3 94.7 407.7 94.9Z" fill="#180707"/>
<path d="M400.699 116.5C403.299 114 406.599 115.6 409.399 114.5C406.999 117.9 403.799 116.9 400.699 116.5Z" fill="#4C1616"/>
<path d="M403.699 82.7C408.299 81.3 410.999 82.6 413.499 84.7C410.499 85.1 407.699 84.1 403.699 82.7Z" fill="#3C1112"/>
<path d="M496.1 115.3C496 115.5 495.9 116.1 495.6 116.4C495 116.9 494.3 116.5 493.9 115.9C491.2 112.1 488.6 108.3 485.2 105C484.7 104.6 484.5 103.8 485.1 103.3C485.4 103.1 486 103.1 486.4 103.2C488.1 103.6 496 113.5 496.1 115.3Z" fill="#170518"/>
<path d="M362.599 221C362.699 221.8 363.399 222.6 362.699 223.3C361.899 224.2 361.199 223.5 360.599 222.9C356.199 218.6 351.799 214.4 347.399 210.1C346.799 209.5 346.199 208.7 346.799 208C347.699 206.9 348.599 207.8 349.299 208.5C353.799 212.7 358.199 216.9 362.599 221C362.699 221.1 362.599 221 362.599 221Z" fill="#180618"/>
<path d="M333.9 227.3C334.5 227.6 335 227.8 335.4 228C340.5 231.7 345.6 235.3 350.7 239C351.4 239.5 352.2 240.1 351.6 241C350.8 242.3 349.8 241.4 349.1 240.9C344 237.3 338.8 233.6 333.7 230C333 229.5 332.4 228.9 332.8 228C333 227.7 333.5 227.5 333.9 227.3Z" fill="#150516"/>
<path d="M355.4 232.3C355 233.5 354.2 233.9 353.2 233C348.6 229 344 224.9 339.4 220.8C338.9 220.3 338.6 219.7 339 219C339.5 218.3 340.3 218.4 340.7 218.8C345.5 222.9 350.2 227.1 354.9 231.3C355.2 231.6 355.3 232 355.4 232.3Z" fill="#130514"/>
<path d="M523.299 15.8999C520.299 15.9999 518.399 18.1999 516.399 19.9999C514.299 21.9999 512.399 24.1999 510.399 26.3999C506.999 22.1999 506.899 21.9999 502.099 23.4999C499.799 24.1999 500.099 22.5999 499.599 21.5999C497.099 15.7999 494.199 15.3999 490.499 20.4999C482.899 30.9999 478.699 42.9999 475.799 55.5999C475.599 56.4999 475.399 57.5999 476.299 58.5999C477.999 58.2999 477.799 57.0999 477.999 56.1999C479.899 48.3999 482.599 40.8999 485.799 33.5999C487.799 28.9999 489.899 24.4999 493.399 20.7999C494.499 19.6999 495.799 18.3999 496.699 20.7999C497.899 23.7999 499.299 26.8999 497.599 30.2999C494.099 37.4999 492.299 45.3999 491.099 53.2999C490.499 57.6999 489.199 62.0999 490.699 66.6999C491.799 70.2999 493.799 70.7999 496.399 67.9999C498.399 65.7999 499.199 63.0999 499.799 60.2999C502.099 50.4999 502.399 40.4999 501.399 30.4999C501.199 28.0999 502.099 26.6999 503.699 25.3999C504.599 24.6999 505.599 24.6999 506.399 25.3999C507.999 26.7999 508.799 28.4999 508.399 30.6999C508.199 31.4999 507.899 32.2999 507.699 33.0999C506.799 36.7999 505.799 40.4999 505.099 44.2999C504.799 45.5999 503.999 47.6999 506.099 48.0999C508.199 48.4999 507.699 45.9999 508.499 44.8999C508.599 44.7999 508.699 44.5999 508.699 44.3999C510.199 33.2999 513.599 23.1999 523.599 16.5999C523.499 16.6999 523.399 16.3999 523.299 15.8999ZM492.999 66.9999C491.899 55.5999 494.799 45.3999 498.299 34.7999C501.499 42.2999 498.299 62.3999 492.999 66.9999Z" fill="#FEDC53"/>
<path d="M439.999 105C439.799 96.1 435.199 101.8 432.199 101.9C434.399 98.6 438.399 97.1 441.199 98.2C441.899 98.5 441.899 98.7 439.999 105Z" fill="#290202"/>
<rect x="91" y="266" width="285" height="47" rx="20" fill="#020A13"/>
<rect x="83" y="258" width="285" height="47" rx="20" fill="white"/>
<path d="M125.75 277.67L123.064 286H121.466L119.392 279.608L117.335 286H115.754L113.068 277.67H114.7L116.553 283.96H116.57L118.627 277.67H120.242L122.299 283.96H122.316L124.152 277.67H125.75ZM138.566 277.67L135.88 286H134.282L132.208 279.608L130.151 286H128.57L125.884 277.67H127.516L129.369 283.96H129.386L131.443 277.67H133.058L135.115 283.96H135.132L136.968 277.67H138.566ZM151.383 277.67L148.697 286H147.099L145.025 279.608L142.968 286H141.387L138.701 277.67H140.333L142.186 283.96H142.203L144.26 277.67H145.875L147.932 283.96H147.949L149.785 277.67H151.383ZM154.063 284.946C154.063 285.263 153.949 285.535 153.723 285.762C153.507 285.989 153.235 286.102 152.907 286.102C152.589 286.102 152.317 285.989 152.091 285.762C151.864 285.535 151.751 285.263 151.751 284.946C151.751 284.617 151.864 284.345 152.091 284.13C152.317 283.903 152.589 283.79 152.907 283.79C153.235 283.79 153.507 283.903 153.723 284.13C153.949 284.345 154.063 284.617 154.063 284.946ZM157.402 286H155.838V277.67H157.334V278.826H157.402C157.64 278.418 158.002 278.078 158.49 277.806C158.988 277.534 159.481 277.398 159.969 277.398C160.581 277.398 161.119 277.54 161.584 277.823C162.048 278.106 162.388 278.497 162.604 278.996C163.295 277.931 164.253 277.398 165.477 277.398C166.44 277.398 167.182 277.693 167.704 278.282C168.225 278.871 168.486 279.71 168.486 280.798V286H166.922V281.036C166.922 280.254 166.78 279.693 166.497 279.353C166.213 279.002 165.737 278.826 165.069 278.826C164.468 278.826 163.964 279.081 163.556 279.591C163.148 280.101 162.944 280.702 162.944 281.393V286H161.38V281.036C161.38 280.254 161.238 279.693 160.955 279.353C160.671 279.002 160.195 278.826 159.527 278.826C158.926 278.826 158.422 279.081 158.014 279.591C157.606 280.101 157.402 280.702 157.402 281.393V286ZM177.594 277.67L172.375 289.672H170.76L172.698 285.473L169.264 277.67H170.964L173.446 283.654H173.48L175.894 277.67H177.594ZM182.023 284.844C182.794 284.844 183.423 284.566 183.91 284.011C184.42 283.456 184.675 282.73 184.675 281.835C184.675 280.962 184.42 280.243 183.91 279.676C183.411 279.109 182.782 278.826 182.023 278.826C181.275 278.826 180.646 279.109 180.136 279.676C179.626 280.243 179.371 280.962 179.371 281.835C179.371 282.719 179.626 283.439 180.136 283.994C180.646 284.561 181.275 284.844 182.023 284.844ZM181.768 286.272C180.68 286.272 179.745 285.841 178.963 284.98C178.192 284.107 177.807 283.059 177.807 281.835C177.807 280.611 178.192 279.563 178.963 278.69C179.745 277.829 180.68 277.398 181.768 277.398C182.38 277.398 182.935 277.528 183.434 277.789C183.944 278.05 184.335 278.395 184.607 278.826H184.675L184.607 277.67V273.828H186.171V286H184.675V284.844H184.607C184.335 285.275 183.944 285.62 183.434 285.881C182.935 286.142 182.38 286.272 181.768 286.272ZM187.519 281.835C187.519 280.554 187.921 279.495 188.726 278.656C189.542 277.817 190.568 277.398 191.803 277.398C193.038 277.398 194.058 277.817 194.863 278.656C195.679 279.495 196.087 280.554 196.087 281.835C196.087 283.127 195.679 284.187 194.863 285.014C194.058 285.853 193.038 286.272 191.803 286.272C190.568 286.272 189.542 285.853 188.726 285.014C187.921 284.175 187.519 283.116 187.519 281.835ZM189.083 281.835C189.083 282.73 189.344 283.456 189.865 284.011C190.386 284.566 191.032 284.844 191.803 284.844C192.574 284.844 193.22 284.566 193.741 284.011C194.262 283.456 194.523 282.73 194.523 281.835C194.523 280.951 194.262 280.231 193.741 279.676C193.208 279.109 192.562 278.826 191.803 278.826C191.044 278.826 190.398 279.109 189.865 279.676C189.344 280.231 189.083 280.951 189.083 281.835ZM198.906 286H197.342V277.67H198.838V278.826H198.906C199.144 278.418 199.506 278.078 199.994 277.806C200.492 277.534 200.985 277.398 201.473 277.398C202.085 277.398 202.623 277.54 203.088 277.823C203.552 278.106 203.892 278.497 204.108 278.996C204.799 277.931 205.757 277.398 206.981 277.398C207.944 277.398 208.686 277.693 209.208 278.282C209.729 278.871 209.99 279.71 209.99 280.798V286H208.426V281.036C208.426 280.254 208.284 279.693 208.001 279.353C207.717 279.002 207.241 278.826 206.573 278.826C205.972 278.826 205.468 279.081 205.06 279.591C204.652 280.101 204.448 280.702 204.448 281.393V286H202.884V281.036C202.884 280.254 202.742 279.693 202.459 279.353C202.175 279.002 201.699 278.826 201.031 278.826C200.43 278.826 199.926 279.081 199.518 279.591C199.11 280.101 198.906 280.702 198.906 281.393V286ZM212.874 283.45C212.874 283.858 213.044 284.198 213.384 284.47C213.736 284.742 214.144 284.878 214.608 284.878C215.266 284.878 215.849 284.634 216.359 284.147C216.881 283.66 217.141 283.087 217.141 282.43C216.654 282.045 215.974 281.852 215.101 281.852C214.467 281.852 213.934 282.005 213.503 282.311C213.084 282.617 212.874 282.997 212.874 283.45ZM214.897 277.398C216.053 277.398 216.966 277.71 217.634 278.333C218.303 278.945 218.637 279.789 218.637 280.866V286H217.141V284.844H217.073C216.427 285.796 215.566 286.272 214.489 286.272C213.571 286.272 212.801 286 212.177 285.456C211.565 284.912 211.259 284.232 211.259 283.416C211.259 282.555 211.582 281.869 212.228 281.359C212.886 280.849 213.758 280.594 214.846 280.594C215.776 280.594 216.541 280.764 217.141 281.104V280.747C217.141 280.203 216.926 279.744 216.495 279.37C216.065 278.985 215.56 278.792 214.982 278.792C214.11 278.792 213.418 279.16 212.908 279.897L211.531 279.03C212.291 277.942 213.413 277.398 214.897 277.398ZM222.424 274.797C222.424 275.103 222.317 275.364 222.101 275.579C221.886 275.794 221.625 275.902 221.319 275.902C221.013 275.902 220.753 275.794 220.537 275.579C220.322 275.364 220.214 275.103 220.214 274.797C220.214 274.491 220.322 274.23 220.537 274.015C220.753 273.8 221.013 273.692 221.319 273.692C221.625 273.692 221.886 273.8 222.101 274.015C222.317 274.23 222.424 274.491 222.424 274.797ZM222.101 277.67V286H220.537V277.67H222.101ZM224.137 277.67H225.633V278.826H225.701C225.939 278.418 226.301 278.078 226.789 277.806C227.287 277.534 227.803 277.398 228.336 277.398C229.356 277.398 230.138 277.693 230.682 278.282C231.237 278.86 231.515 279.687 231.515 280.764V286H229.951V280.866C229.917 279.506 229.231 278.826 227.894 278.826C227.27 278.826 226.749 279.081 226.33 279.591C225.91 280.09 225.701 280.69 225.701 281.393V286H224.137V277.67ZM235.526 284.946C235.526 285.263 235.413 285.535 235.186 285.762C234.971 285.989 234.699 286.102 234.37 286.102C234.053 286.102 233.781 285.989 233.554 285.762C233.328 285.535 233.214 285.263 233.214 284.946C233.214 284.617 233.328 284.345 233.554 284.13C233.781 283.903 234.053 283.79 234.37 283.79C234.699 283.79 234.971 283.903 235.186 284.13C235.413 284.345 235.526 284.617 235.526 284.946ZM241.11 286.272C239.874 286.272 238.849 285.853 238.033 285.014C237.228 284.153 236.826 283.093 236.826 281.835C236.826 280.554 237.228 279.495 238.033 278.656C238.849 277.817 239.874 277.398 241.11 277.398C241.96 277.398 242.702 277.613 243.337 278.044C243.971 278.463 244.447 279.047 244.765 279.795L243.337 280.39C242.895 279.347 242.118 278.826 241.008 278.826C240.294 278.826 239.676 279.115 239.155 279.693C238.645 280.271 238.39 280.985 238.39 281.835C238.39 282.685 238.645 283.399 239.155 283.977C239.676 284.555 240.294 284.844 241.008 284.844C242.152 284.844 242.957 284.323 243.422 283.28L244.816 283.875C244.51 284.623 244.028 285.212 243.371 285.643C242.725 286.062 241.971 286.272 241.11 286.272ZM245.624 281.835C245.624 280.554 246.027 279.495 246.831 278.656C247.647 277.817 248.673 277.398 249.908 277.398C251.144 277.398 252.164 277.817 252.968 278.656C253.784 279.495 254.192 280.554 254.192 281.835C254.192 283.127 253.784 284.187 252.968 285.014C252.164 285.853 251.144 286.272 249.908 286.272C248.673 286.272 247.647 285.853 246.831 285.014C246.027 284.175 245.624 283.116 245.624 281.835ZM247.188 281.835C247.188 282.73 247.449 283.456 247.97 284.011C248.492 284.566 249.138 284.844 249.908 284.844C250.679 284.844 251.325 284.566 251.846 284.011C252.368 283.456 252.628 282.73 252.628 281.835C252.628 280.951 252.368 280.231 251.846 279.676C251.314 279.109 250.668 278.826 249.908 278.826C249.149 278.826 248.503 279.109 247.97 279.676C247.449 280.231 247.188 280.951 247.188 281.835ZM257.011 286H255.447V277.67H256.943V278.826H257.011C257.249 278.418 257.612 278.078 258.099 277.806C258.598 277.534 259.091 277.398 259.578 277.398C260.19 277.398 260.728 277.54 261.193 277.823C261.658 278.106 261.998 278.497 262.213 278.996C262.904 277.931 263.862 277.398 265.086 277.398C266.049 277.398 266.792 277.693 267.313 278.282C267.834 278.871 268.095 279.71 268.095 280.798V286H266.531V281.036C266.531 280.254 266.389 279.693 266.106 279.353C265.823 279.002 265.347 278.826 264.678 278.826C264.077 278.826 263.573 279.081 263.165 279.591C262.757 280.101 262.553 280.702 262.553 281.393V286H260.989V281.036C260.989 280.254 260.847 279.693 260.564 279.353C260.281 279.002 259.805 278.826 259.136 278.826C258.535 278.826 258.031 279.081 257.623 279.591C257.215 280.101 257.011 280.702 257.011 281.393V286Z" fill="black"/>
<path d="M304.835 270.835C299.481 270.862 294.126 270.835 288.773 270.835C286.288 270.835 286.398 273.685 286.398 275.475C286.398 278.612 286.326 281.755 286.398 284.892C286.443 286.864 285.024 293.437 287.288 294.579C288.853 295.37 294.914 295.733 296.788 295.733C299.824 295.733 303.262 295.525 306.287 295.733C310.039 295.99 312.035 295.562 315.801 295.733C320.596 295.951 322.933 295.63 327.724 295.733C330.522 295.793 333.306 295.896 336.101 295.977C339.972 296.089 343.3 295.811 346.935 294.756C349.112 294.124 351.44 293.003 351.767 290.997C352.291 287.786 351.767 281.892 351.767 278.65C351.767 275.364 352.592 273.277 349.03 272.788C344.664 269.195 339.141 270.102 333.363 270.102H315.801C312.101 270.102 308.53 270.816 304.835 270.835Z" fill="#16DB93" stroke="black" stroke-width="2" stroke-linecap="round" stroke-linejoin="round"/>
<path d="M295.32 279.97L294.15 283.2H296.53L295.36 279.97H295.32ZM293.14 286H292.12L294.82 278.84H295.86L298.56 286H297.54L296.85 284.06H293.84L293.14 286ZM301.293 285.32C301.747 285.32 302.117 285.157 302.403 284.83C302.703 284.503 302.853 284.077 302.853 283.55C302.853 283.037 302.703 282.613 302.403 282.28C302.11 281.947 301.74 281.78 301.293 281.78C300.853 281.78 300.483 281.947 300.183 282.28C299.883 282.613 299.733 283.037 299.733 283.55C299.733 284.07 299.883 284.493 300.183 284.82C300.483 285.153 300.853 285.32 301.293 285.32ZM301.143 286.16C300.503 286.16 299.953 285.907 299.493 285.4C299.04 284.887 298.813 284.27 298.813 283.55C298.813 282.83 299.04 282.213 299.493 281.7C299.953 281.193 300.503 280.94 301.143 280.94C301.503 280.94 301.83 281.017 302.123 281.17C302.423 281.323 302.653 281.527 302.813 281.78H302.853L302.813 281.1V278.84H303.733V286H302.853V285.32H302.813C302.653 285.573 302.423 285.777 302.123 285.93C301.83 286.083 301.503 286.16 301.143 286.16ZM307.006 285.32C307.459 285.32 307.829 285.157 308.116 284.83C308.416 284.503 308.566 284.077 308.566 283.55C308.566 283.037 308.416 282.613 308.116 282.28C307.823 281.947 307.453 281.78 307.006 281.78C306.566 281.78 306.196 281.947 305.896 282.28C305.596 282.613 305.446 283.037 305.446 283.55C305.446 284.07 305.596 284.493 305.896 284.82C306.196 285.153 306.566 285.32 307.006 285.32ZM306.856 286.16C306.216 286.16 305.666 285.907 305.206 285.4C304.753 284.887 304.526 284.27 304.526 283.55C304.526 282.83 304.753 282.213 305.206 281.7C305.666 281.193 306.216 280.94 306.856 280.94C307.216 280.94 307.543 281.017 307.836 281.17C308.136 281.323 308.366 281.527 308.526 281.78H308.566L308.526 281.1V278.84H309.446V286H308.566V285.32H308.526C308.366 285.573 308.136 285.777 307.836 285.93C307.543 286.083 307.216 286.16 306.856 286.16ZM314.965 285.32C315.418 285.32 315.788 285.157 316.075 284.83C316.375 284.503 316.525 284.077 316.525 283.55C316.525 283.037 316.375 282.613 316.075 282.28C315.782 281.947 315.412 281.78 314.965 281.78C314.525 281.78 314.155 281.947 313.855 282.28C313.555 282.613 313.405 283.037 313.405 283.55C313.405 284.07 313.555 284.493 313.855 284.82C314.155 285.153 314.525 285.32 314.965 285.32ZM314.815 286.16C314.175 286.16 313.625 285.907 313.165 285.4C312.712 284.887 312.485 284.27 312.485 283.55C312.485 282.83 312.712 282.213 313.165 281.7C313.625 281.193 314.175 280.94 314.815 280.94C315.175 280.94 315.502 281.017 315.795 281.17C316.095 281.323 316.325 281.527 316.485 281.78H316.525L316.485 281.1V278.84H317.405V286H316.525V285.32H316.485C316.325 285.573 316.095 285.777 315.795 285.93C315.502 286.083 315.175 286.16 314.815 286.16ZM318.198 283.55C318.198 282.797 318.435 282.173 318.908 281.68C319.388 281.187 319.991 280.94 320.718 280.94C321.445 280.94 322.045 281.187 322.518 281.68C322.998 282.173 323.238 282.797 323.238 283.55C323.238 284.31 322.998 284.933 322.518 285.42C322.045 285.913 321.445 286.16 320.718 286.16C319.991 286.16 319.388 285.913 318.908 285.42C318.435 284.927 318.198 284.303 318.198 283.55ZM319.118 283.55C319.118 284.077 319.271 284.503 319.578 284.83C319.885 285.157 320.265 285.32 320.718 285.32C321.171 285.32 321.551 285.157 321.858 284.83C322.165 284.503 322.318 284.077 322.318 283.55C322.318 283.03 322.165 282.607 321.858 282.28C321.545 281.947 321.165 281.78 320.718 281.78C320.271 281.78 319.891 281.947 319.578 282.28C319.271 282.607 319.118 283.03 319.118 283.55ZM324.896 286H323.976V281.1H324.856V281.78H324.896C325.036 281.54 325.249 281.34 325.536 281.18C325.829 281.02 326.119 280.94 326.406 280.94C326.766 280.94 327.083 281.023 327.356 281.19C327.629 281.357 327.829 281.587 327.956 281.88C328.363 281.253 328.926 280.94 329.646 280.94C330.213 280.94 330.649 281.113 330.956 281.46C331.263 281.807 331.416 282.3 331.416 282.94V286H330.496V283.08C330.496 282.62 330.413 282.29 330.246 282.09C330.079 281.883 329.799 281.78 329.406 281.78C329.053 281.78 328.756 281.93 328.516 282.23C328.276 282.53 328.156 282.883 328.156 283.29V286H327.236V283.08C327.236 282.62 327.153 282.29 326.986 282.09C326.819 281.883 326.539 281.78 326.146 281.78C325.793 281.78 325.496 281.93 325.256 282.23C325.016 282.53 324.896 282.883 324.896 283.29V286ZM333.113 284.5C333.113 284.74 333.213 284.94 333.413 285.1C333.619 285.26 333.859 285.34 334.133 285.34C334.519 285.34 334.863 285.197 335.163 284.91C335.469 284.623 335.623 284.287 335.623 283.9C335.336 283.673 334.936 283.56 334.423 283.56C334.049 283.56 333.736 283.65 333.483 283.83C333.236 284.01 333.113 284.233 333.113 284.5ZM334.303 280.94C334.983 280.94 335.519 281.123 335.913 281.49C336.306 281.85 336.503 282.347 336.503 282.98V286H335.623V285.32H335.583C335.203 285.88 334.696 286.16 334.063 286.16C333.523 286.16 333.069 286 332.703 285.68C332.343 285.36 332.163 284.96 332.163 284.48C332.163 283.973 332.353 283.57 332.733 283.27C333.119 282.97 333.633 282.82 334.273 282.82C334.819 282.82 335.269 282.92 335.623 283.12V282.91C335.623 282.59 335.496 282.32 335.243 282.1C334.989 281.873 334.693 281.76 334.353 281.76C333.839 281.76 333.433 281.977 333.133 282.41L332.323 281.9C332.769 281.26 333.429 280.94 334.303 280.94ZM338.73 279.41C338.73 279.59 338.667 279.743 338.54 279.87C338.414 279.997 338.26 280.06 338.08 280.06C337.9 280.06 337.747 279.997 337.62 279.87C337.494 279.743 337.43 279.59 337.43 279.41C337.43 279.23 337.494 279.077 337.62 278.95C337.747 278.823 337.9 278.76 338.08 278.76C338.26 278.76 338.414 278.823 338.54 278.95C338.667 279.077 338.73 279.23 338.73 279.41ZM338.54 281.1V286H337.62V281.1H338.54ZM339.738 281.1H340.618V281.78H340.658C340.798 281.54 341.011 281.34 341.298 281.18C341.591 281.02 341.894 280.94 342.208 280.94C342.808 280.94 343.268 281.113 343.588 281.46C343.914 281.8 344.078 282.287 344.078 282.92V286H343.158V282.98C343.138 282.18 342.734 281.78 341.948 281.78C341.581 281.78 341.274 281.93 341.028 282.23C340.781 282.523 340.658 282.877 340.658 283.29V286H339.738V281.1Z" fill="#020A13"/>
</g>
<path d="M75.535 284C67.035 287.9 61.435 295.1 55.535 302.8C53.835 299.1 52.135 296 48.435 294.9C44.235 293.6 42.535 297.8 39.435 299.1C38.535 296.2 37.935 293.4 36.935 290.8C34.735 285.3 31.335 284.5 27.035 288.5C24.535 290.8 22.635 293.5 20.935 296.4C11.535 312.6 4.83499 330 0.734991 348.3C0.434991 349.6 -0.965008 351.6 1.13499 352C3.03499 352.3 2.63499 349.9 2.93499 348.5C6.93499 332.1 12.735 316.4 20.735 301.5C22.935 297.4 25.435 293.4 28.835 290.2C30.135 289 32.135 287.3 33.435 289.7C36.035 294.5 38.835 300 36.535 305.3C31.635 316.4 28.335 327.8 26.235 339.6C24.735 347.9 22.835 356.3 24.635 364.8C25.035 366.9 25.735 368.8 27.935 369.3C30.235 369.9 31.735 368.3 32.935 366.7C35.435 363.5 36.735 359.7 37.735 355.8C41.835 339.6 41.335 323.1 40.435 306.7C40.235 302.9 43.235 297.6 46.335 297.5C50.735 297.4 52.035 300.6 52.935 304.3C53.435 306.4 53.335 308.1 52.535 310.1C49.635 317.4 48.235 325.1 47.635 332.9C47.535 334 47.335 335.5 48.835 335.7C49.935 335.8 50.235 334.4 50.535 333.5C52.835 327.8 55.135 321.8 55.235 315.7C55.435 304.2 62.135 297.1 70.035 290.4C72.135 288.6 74.435 287.1 76.535 285.4C76.335 284.9 75.935 284.5 75.535 284ZM33.735 360.3C33.635 360.5 33.635 360.6 33.535 360.8C32.235 362.9 31.835 366.8 28.635 366.2C25.635 365.6 26.635 362 26.635 359.7C26.635 342.4 31.035 325.9 37.735 310C39.135 327.1 39.235 343.9 33.735 360.3Z" fill="#020A13"/>
<defs>
<clipPath id="clip0">
<rect width="566.7" height="519.8" fill="white" transform="translate(80)"/>
</clipPath>
</defs>
</svg>
