<svg width="535" height="491" viewBox="0 0 535 491" fill="none" xmlns="http://www.w3.org/2000/svg">
<path d="M499.268 330.089C499.069 330.152 498.869 330.215 498.606 330.076C498.406 330.139 498.342 329.938 498.079 329.799C497.816 329.66 497.753 329.459 497.689 329.257C497.626 329.055 497.562 328.854 497.699 328.589C497.635 328.388 497.835 328.325 497.971 328.06C498.108 327.796 498.507 327.67 498.707 327.607C498.907 327.545 499.107 327.482 499.17 327.683C499.433 327.822 499.696 327.961 499.76 328.162C499.823 328.364 500.087 328.503 499.95 328.767C500.014 328.969 500.077 329.17 499.877 329.233C499.741 329.498 499.605 329.762 499.405 329.825C499.668 329.964 499.468 330.027 499.268 330.089Z" fill="black"/>
<path d="M515.074 318.915C515.337 319.054 515.337 319.054 515.601 319.192C515.864 319.331 515.991 319.734 516.117 320.138C515.845 320.666 515.509 320.994 515.236 321.523C515.036 321.585 514.836 321.648 514.573 321.51L514.31 321.371C513.784 321.093 513.593 320.489 513.666 320.023C513.612 319.153 514.348 318.7 515.074 318.915Z" fill="black"/>
<path d="M509.851 313.47C509.124 313.255 508.671 312.512 508.944 311.983C509.153 311.252 509.889 310.799 510.415 311.077C511.141 311.291 511.595 312.035 511.322 312.564C511.313 313.231 510.577 313.684 509.851 313.47Z" fill="black"/>
<path d="M506.491 325.825C505.765 325.61 505.312 324.866 505.584 324.338C505.794 323.607 506.529 323.154 507.056 323.432C507.782 323.646 508.235 324.39 507.963 324.919C507.753 325.649 507.217 326.039 506.491 325.825Z" fill="black"/>
<path d="M506.249 305.519C506.049 305.582 505.849 305.645 505.586 305.506C505.386 305.569 505.323 305.367 505.059 305.229C504.733 304.888 504.543 304.283 504.616 303.817C504.688 303.351 505.224 302.961 505.624 302.835C505.824 302.773 506.023 302.71 506.087 302.911C506.35 303.05 506.613 303.189 506.677 303.39C507.003 303.731 507.13 304.134 506.858 304.663C506.984 305.066 506.648 305.393 506.249 305.519Z" fill="black"/>
<path d="M502.891 317.873C502.691 317.936 502.492 317.999 502.228 317.86C502.029 317.923 501.965 317.722 501.702 317.583C501.375 317.243 501.185 316.638 501.258 316.172C501.331 315.706 501.867 315.316 502.266 315.19C502.466 315.127 502.666 315.064 502.729 315.266C502.993 315.404 503.256 315.543 503.319 315.745C503.646 316.085 503.773 316.488 503.5 317.017C503.227 317.546 503.291 317.748 502.891 317.873Z" fill="black"/>
<path d="M521.29 296.797C520.564 296.583 520.11 295.839 520.383 295.31C520.592 294.58 521.328 294.127 521.855 294.404L522.118 294.543C522.644 294.821 522.834 295.425 522.825 296.093C522.689 296.358 522.552 296.622 522.153 296.748C522.016 297.012 521.553 296.936 521.29 296.797Z" fill="black"/>
<path d="M516.827 288.896C516.101 288.681 515.648 287.938 515.92 287.409C516.13 286.679 516.865 286.225 517.392 286.503C518.118 286.718 518.571 287.461 518.299 287.99C518.289 288.658 517.553 289.111 516.827 288.896Z" fill="black"/>
<path d="M513.468 301.253C512.742 301.038 512.288 300.295 512.561 299.766C512.77 299.035 513.506 298.582 514.032 298.86C514.758 299.075 515.212 299.818 514.939 300.347C514.73 301.077 514.194 301.468 513.468 301.253Z" fill="black"/>
<path d="M513.227 280.946C513.028 281.009 512.828 281.072 512.565 280.933C512.365 280.996 512.301 280.794 512.038 280.655C511.775 280.517 511.712 280.315 511.648 280.114C511.585 279.912 511.521 279.71 511.658 279.446C511.594 279.244 511.794 279.181 511.93 278.917C512.067 278.653 512.466 278.527 512.666 278.464C512.866 278.401 513.066 278.338 513.129 278.54C513.392 278.679 513.655 278.817 513.719 279.019C513.782 279.221 514.045 279.359 513.909 279.624C513.973 279.825 514.036 280.027 513.836 280.09C513.7 280.354 513.563 280.619 513.364 280.682C513.627 280.82 513.427 280.883 513.227 280.946Z" fill="black"/>
<path d="M509.872 293.302C509.672 293.364 509.472 293.427 509.209 293.289C509.009 293.351 508.946 293.15 508.683 293.011C508.356 292.671 508.166 292.066 508.239 291.6C508.311 291.134 508.847 290.744 509.247 290.618C509.447 290.555 509.646 290.492 509.71 290.694C509.973 290.833 510.236 290.971 510.3 291.173C510.626 291.513 510.753 291.916 510.481 292.445C510.607 292.849 510.271 293.176 509.872 293.302Z" fill="black"/>
<path d="M518.495 306.759C519.221 306.974 519.675 307.718 519.402 308.247C519.193 308.977 518.457 309.43 517.931 309.153C517.205 308.938 516.751 308.194 517.024 307.665C517.233 306.935 517.769 306.545 518.495 306.759Z" fill="black"/>
<path d="M486.326 326.63C485.863 326.554 485.536 326.214 485.41 325.811C485.346 325.609 485.283 325.407 485.419 325.143C485.356 324.941 485.555 324.878 485.692 324.614C486.028 324.287 486.627 324.098 487.09 324.174C487.553 324.25 487.943 324.792 488.07 325.195C488.134 325.397 488.197 325.598 487.997 325.661C487.861 325.926 487.725 326.19 487.525 326.253C487.189 326.58 486.789 326.706 486.326 326.63Z" fill="black"/>
<path d="M483.667 336.328C483.93 336.467 484.193 336.606 484.256 336.807C484.52 336.946 484.646 337.349 484.51 337.614C483.648 337.663 482.848 337.915 481.986 337.965L481.922 337.763C481.859 337.561 481.859 337.561 481.995 337.297C481.995 337.297 481.932 337.095 482.132 337.032C482.404 336.504 482.94 336.113 483.667 336.328Z" fill="black"/>
<path d="M478.444 330.882C477.718 330.668 477.265 329.924 477.537 329.395C477.747 328.665 478.482 328.212 479.009 328.489C479.735 328.704 480.188 329.448 479.916 329.976C479.906 330.644 479.171 331.097 478.444 330.882Z" fill="black"/>
<path d="M490.788 334.532C490.062 334.317 489.608 333.574 489.881 333.045C490.09 332.314 490.826 331.861 491.353 332.139C492.079 332.354 492.532 333.097 492.26 333.626C492.05 334.356 491.514 334.747 490.788 334.532Z" fill="black"/>
<path d="M474.844 322.932C474.645 322.995 474.445 323.057 474.182 322.919C473.719 322.843 473.392 322.502 473.265 322.099C473.202 321.898 473.138 321.696 473.275 321.432C473.211 321.23 473.411 321.167 473.547 320.903C473.883 320.575 474.483 320.387 474.946 320.463C475.209 320.601 475.472 320.74 475.536 320.942C475.599 321.143 475.862 321.282 475.726 321.547C475.789 321.748 475.853 321.95 475.653 322.013C475.517 322.277 475.38 322.542 475.18 322.604C475.244 322.806 475.044 322.869 474.844 322.932Z" fill="black"/>
<path d="M471.484 335.287C471.284 335.35 471.085 335.413 470.821 335.274C470.095 335.06 469.642 334.316 469.914 333.787C470.124 333.057 470.859 332.604 471.386 332.881C471.649 333.02 471.912 333.159 471.976 333.36C472.302 333.701 472.429 334.104 472.156 334.633C472.22 334.834 471.884 335.162 471.484 335.287Z" fill="black"/>
<path d="M493.304 302.058C492.578 301.843 492.124 301.1 492.397 300.571C492.606 299.84 493.342 299.387 493.868 299.665C494.594 299.879 495.048 300.623 494.775 301.152C494.766 301.82 494.03 302.273 493.304 302.058Z" fill="black"/>
<path d="M489.884 314.212C489.158 313.998 488.704 313.254 488.977 312.725C489.186 311.995 489.922 311.542 490.448 311.819C491.174 312.034 491.628 312.777 491.355 313.306C491.146 314.037 490.61 314.427 489.884 314.212Z" fill="black"/>
<path d="M485.421 306.311C484.695 306.096 484.241 305.352 484.514 304.824C484.723 304.093 485.459 303.64 485.985 303.918C486.712 304.132 487.165 304.876 486.892 305.405C486.883 306.072 486.147 306.525 485.421 306.311Z" fill="black"/>
<path d="M497.767 309.958C497.04 309.744 496.587 309 496.86 308.471C497.069 307.741 497.805 307.288 498.331 307.565C499.057 307.78 499.511 308.523 499.238 309.052C499.029 309.783 498.493 310.173 497.767 309.958Z" fill="black"/>
<path d="M482.064 318.666C481.337 318.451 480.884 317.707 481.157 317.179C481.366 316.448 482.102 315.995 482.628 316.273C483.354 316.487 483.808 317.231 483.535 317.76C483.326 318.49 482.79 318.88 482.064 318.666Z" fill="black"/>
<path d="M494.146 322.175C493.419 321.96 492.966 321.217 493.239 320.688C493.448 319.957 494.184 319.504 494.71 319.782C495.436 319.997 495.89 320.74 495.617 321.269C495.607 321.937 494.872 322.39 494.146 322.175Z" fill="black"/>
<path d="M481.822 298.359C481.622 298.422 481.422 298.484 481.159 298.346C480.433 298.131 479.98 297.387 480.252 296.859C480.462 296.128 481.197 295.675 481.724 295.953C481.987 296.091 482.25 296.23 482.313 296.432C482.64 296.772 482.767 297.175 482.494 297.704C482.558 297.906 482.222 298.233 481.822 298.359Z" fill="black"/>
<path d="M478.463 310.714C478.263 310.777 478.063 310.839 477.8 310.701C477.074 310.486 476.62 309.743 476.893 309.214C477.102 308.483 477.838 308.03 478.364 308.308C478.628 308.446 478.891 308.585 478.954 308.787C479.281 309.127 479.408 309.53 479.135 310.059C479.198 310.261 478.862 310.588 478.463 310.714Z" fill="black"/>
<path d="M500.484 277.422C500.021 277.346 499.695 277.006 499.568 276.603C499.504 276.401 499.441 276.199 499.577 275.935C499.514 275.733 499.714 275.671 499.85 275.406C500.186 275.079 500.785 274.89 501.248 274.966C501.711 275.042 502.102 275.584 502.228 275.987C502.292 276.189 502.355 276.39 502.155 276.453C502.019 276.718 501.883 276.982 501.683 277.045C501.147 277.435 500.747 277.561 500.484 277.422Z" fill="black"/>
<path d="M496.863 289.639C496.136 289.425 495.683 288.681 495.956 288.152C496.228 287.623 496.901 286.969 497.427 287.246C498.153 287.461 498.607 288.204 498.334 288.733C498.324 289.401 497.589 289.854 496.863 289.639Z" fill="black"/>
<path d="M492.599 281.674C491.873 281.46 491.419 280.716 491.692 280.187C491.901 279.457 492.637 279.004 493.163 279.281C493.889 279.496 494.343 280.239 494.07 280.768C493.861 281.499 493.125 281.952 492.599 281.674Z" fill="black"/>
<path d="M504.743 285.387C504.017 285.172 503.564 284.428 503.836 283.899C504.046 283.169 504.781 282.716 505.308 282.993C506.034 283.208 506.487 283.952 506.215 284.481C506.205 285.148 505.469 285.601 504.743 285.387Z" fill="black"/>
<path d="M489.044 294.094C488.318 293.879 487.864 293.136 488.137 292.607C488.346 291.876 489.082 291.423 489.608 291.701C490.335 291.915 490.788 292.659 490.515 293.188C490.506 293.856 489.77 294.309 489.044 294.094Z" fill="black"/>
<path d="M501.124 297.603C500.398 297.389 499.944 296.645 500.217 296.116C500.426 295.386 501.162 294.933 501.689 295.21C502.415 295.425 502.868 296.168 502.595 296.697C502.586 297.365 501.85 297.818 501.124 297.603Z" fill="black"/>
<path d="M489.003 273.723C488.803 273.786 488.603 273.849 488.34 273.71C487.877 273.634 487.55 273.294 487.423 272.891C487.36 272.689 487.296 272.488 487.433 272.223C487.369 272.022 487.569 271.959 487.705 271.694C488.042 271.367 488.641 271.178 489.104 271.254C489.367 271.393 489.63 271.532 489.694 271.733C489.757 271.935 490.02 272.074 489.884 272.338C489.947 272.54 490.011 272.741 489.811 272.804C489.675 273.069 489.538 273.333 489.339 273.396C489.202 273.66 489.003 273.723 489.003 273.723Z" fill="black"/>
<path d="M485.443 286.142C485.243 286.205 485.044 286.268 484.78 286.129C484.054 285.914 483.601 285.171 483.873 284.642C484.083 283.911 484.818 283.458 485.345 283.736C485.608 283.875 485.871 284.013 485.935 284.215C486.261 284.555 486.388 284.959 486.115 285.487C486.179 285.689 485.843 286.016 485.443 286.142Z" fill="black"/>
<path d="M503.84 265.067C503.178 265.054 502.924 264.247 502.933 263.58C503.143 262.849 503.878 262.396 504.405 262.674C505.131 262.888 505.584 263.632 505.312 264.161C505.302 264.828 504.567 265.281 503.84 265.067Z" fill="black"/>
<path d="M499.578 257.102C499.315 256.963 499.115 257.026 499.052 256.825C498.725 256.484 498.598 256.081 498.671 255.615C499.461 256.031 500.051 256.51 500.84 256.927C500.504 257.254 499.905 257.443 499.578 257.102Z" fill="black"/>
<path d="M496.023 269.52C495.296 269.306 494.843 268.562 495.116 268.033C495.325 267.303 496.061 266.85 496.587 267.127C497.313 267.342 497.767 268.085 497.494 268.614C497.484 269.282 496.749 269.735 496.023 269.52Z" fill="black"/>
<path d="M508.304 272.969C507.578 272.755 507.124 272.011 507.397 271.482C507.606 270.752 508.342 270.299 508.868 270.576C509.594 270.791 510.048 271.534 509.775 272.063C509.566 272.794 508.83 273.247 508.304 272.969Z" fill="black"/>
<path d="M492.421 261.569C492.221 261.632 492.021 261.695 491.758 261.556C491.032 261.341 490.578 260.598 490.787 259.867C490.997 259.137 491.732 258.684 492.259 258.961C492.522 259.1 492.785 259.239 492.849 259.44C493.175 259.781 493.302 260.184 493.029 260.713C493.156 261.116 492.82 261.443 492.421 261.569Z" fill="black"/>
<path d="M436.793 364.59C436.657 364.854 436.258 364.98 435.795 364.904C435.795 364.904 435.595 364.967 435.531 364.765L435.268 364.627C435.268 364.627 435.205 364.425 435.005 364.488C434.742 364.349 434.678 364.148 434.615 363.946C434.552 363.744 434.488 363.543 434.624 363.278C434.561 363.077 434.761 363.014 434.897 362.75C435.033 362.485 435.433 362.359 435.633 362.297C435.833 362.234 436.032 362.171 436.096 362.372C436.096 362.372 436.296 362.31 436.359 362.511C436.622 362.65 436.949 362.99 437.076 363.393C437.139 363.595 437.203 363.797 437.003 363.859C437.003 363.859 437.003 363.859 437.066 364.061C437.13 364.263 436.993 364.527 436.793 364.59Z" fill="black"/>
<path d="M454.855 343.842C454.128 343.627 453.675 342.883 453.948 342.355C454.157 341.624 454.893 341.171 455.419 341.448C456.145 341.663 456.599 342.407 456.326 342.936C456.38 343.805 455.581 344.056 454.855 343.842Z" fill="black"/>
<path d="M447.036 348.297C446.31 348.082 445.857 347.339 446.129 346.81C446.339 346.079 447.074 345.626 447.601 345.904C448.327 346.119 448.78 346.862 448.508 347.391C448.498 348.059 447.762 348.512 447.036 348.297Z" fill="black"/>
<path d="M443.612 360.451C442.886 360.236 442.433 359.493 442.705 358.964C442.915 358.233 443.65 357.78 444.177 358.058C444.64 358.134 445.03 358.676 445.157 359.079C445.22 359.281 445.284 359.482 445.084 359.545C444.874 360.275 444.339 360.666 443.612 360.451Z" fill="black"/>
<path d="M442.974 340.269C442.974 340.269 442.774 340.332 442.711 340.13C442.511 340.193 442.448 339.992 442.184 339.853C441.858 339.513 441.668 338.908 441.741 338.442C441.813 337.976 442.349 337.586 442.749 337.46C442.949 337.397 443.148 337.334 443.212 337.536C443.212 337.536 443.412 337.473 443.475 337.674C444.001 337.952 444.192 338.557 444.182 339.224C444.236 340.094 443.7 340.484 442.974 340.269Z" fill="black"/>
<path d="M439.416 352.688C439.416 352.688 439.216 352.751 439.152 352.549C438.953 352.612 438.889 352.411 438.626 352.272C438.299 351.932 438.109 351.327 438.182 350.861C438.255 350.395 438.791 350.005 439.19 349.879C439.39 349.816 439.59 349.753 439.653 349.955C439.653 349.955 439.853 349.892 439.916 350.093C440.443 350.371 440.633 350.976 440.624 351.643C440.614 352.311 440.078 352.701 439.416 352.688Z" fill="black"/>
<path d="M461.898 319.471C461.435 319.396 461.109 319.055 460.982 318.652C460.918 318.45 460.855 318.249 460.991 317.984C460.928 317.783 461.128 317.72 461.264 317.456C461.6 317.128 462.2 316.94 462.663 317.016C463.126 317.091 463.516 317.633 463.642 318.037C463.706 318.238 463.769 318.44 463.57 318.503C463.433 318.767 463.297 319.032 463.097 319.094C462.761 319.422 462.361 319.547 461.898 319.471Z" fill="black"/>
<path d="M458.478 331.625C457.751 331.41 457.298 330.667 457.571 330.138C457.78 329.407 458.516 328.954 459.042 329.232C459.768 329.446 460.222 330.19 459.949 330.719C459.74 331.449 459.204 331.84 458.478 331.625Z" fill="black"/>
<path d="M454.015 323.723C453.289 323.509 452.835 322.765 453.108 322.236C453.317 321.506 454.053 321.053 454.579 321.33C455.305 321.545 455.759 322.288 455.486 322.817C455.477 323.485 454.741 323.938 454.015 323.723Z" fill="black"/>
<path d="M466.358 327.372C465.632 327.158 465.179 326.414 465.452 325.885C465.661 325.155 466.396 324.702 466.923 324.979C467.649 325.194 468.103 325.938 467.83 326.466C467.621 327.197 467.021 327.385 466.358 327.372Z" fill="black"/>
<path d="M450.593 335.877C449.867 335.663 449.413 334.919 449.686 334.39C449.895 333.66 450.631 333.207 451.157 333.484C451.883 333.699 452.337 334.442 452.064 334.971C451.918 335.903 451.319 336.092 450.593 335.877Z" fill="black"/>
<path d="M462.739 339.59C462.013 339.375 461.56 338.632 461.832 338.103C462.042 337.372 462.777 336.919 463.304 337.197C464.03 337.411 464.483 338.155 464.211 338.684C464.201 339.351 463.466 339.804 462.739 339.59Z" fill="black"/>
<path d="M450.015 315.899C450.015 315.899 449.816 315.962 449.752 315.76C449.552 315.823 449.489 315.621 449.226 315.483C448.962 315.344 448.899 315.142 448.836 314.941C448.772 314.739 448.709 314.537 448.845 314.273C448.782 314.071 448.981 314.009 449.118 313.744C449.254 313.48 449.654 313.354 449.854 313.291C450.053 313.228 450.253 313.165 450.317 313.367C450.317 313.367 450.516 313.304 450.58 313.506C450.843 313.644 451.17 313.985 451.296 314.388C451.36 314.59 451.423 314.791 451.223 314.854C451.087 315.119 450.951 315.383 450.751 315.446C450.615 315.71 450.415 315.773 450.015 315.899Z" fill="black"/>
<path d="M446.394 328.114C446.394 328.114 446.194 328.177 446.131 327.976C445.931 328.038 445.868 327.837 445.604 327.698C445.278 327.358 445.087 326.753 445.16 326.287C445.233 325.821 445.769 325.431 446.169 325.305C446.369 325.242 446.568 325.179 446.632 325.381C446.632 325.381 446.832 325.318 446.895 325.52C447.421 325.797 447.612 326.402 447.602 327.07C447.593 327.737 447.057 328.127 446.394 328.114Z" fill="black"/>
<path d="M469.079 294.836C468.353 294.622 467.899 293.878 468.172 293.349C468.381 292.619 469.117 292.166 469.644 292.443C470.37 292.658 470.823 293.401 470.551 293.93C470.341 294.661 469.542 294.912 469.079 294.836Z" fill="black"/>
<path d="M465.456 307.053C464.73 306.838 464.276 306.095 464.549 305.566C464.758 304.835 465.494 304.382 466.021 304.66C466.747 304.874 467.2 305.618 466.928 306.147C466.918 306.815 466.182 307.268 465.456 307.053Z" fill="black"/>
<path d="M461.192 299.089C460.466 298.874 460.013 298.131 460.285 297.602C460.495 296.871 461.23 296.418 461.757 296.696C462.483 296.91 462.937 297.654 462.664 298.183C462.455 298.913 461.719 299.366 461.192 299.089Z" fill="black"/>
<path d="M473.339 302.801C472.612 302.586 472.159 301.843 472.432 301.314C472.578 300.382 473.377 300.13 474.103 300.345C474.829 300.559 475.283 301.303 475.01 301.832C474.801 302.562 474.001 302.814 473.339 302.801Z" fill="black"/>
<path d="M457.634 311.507C456.908 311.292 456.454 310.548 456.727 310.02C456.936 309.289 457.672 308.836 458.198 309.114C458.924 309.328 459.378 310.072 459.105 310.601C459.096 311.268 458.297 311.52 457.634 311.507Z" fill="black"/>
<path d="M469.72 315.018C468.994 314.803 468.54 314.06 468.813 313.531C469.022 312.8 469.758 312.347 470.284 312.625C471.01 312.84 471.464 313.583 471.191 314.112C471.182 314.78 470.446 315.233 469.72 315.018Z" fill="black"/>
<path d="M456.994 291.326C456.994 291.326 456.794 291.389 456.73 291.187C456.531 291.25 456.467 291.048 456.204 290.91C455.877 290.569 455.687 289.964 455.76 289.498C455.833 289.032 456.369 288.642 456.768 288.516C456.968 288.454 457.168 288.391 457.231 288.592C457.231 288.592 457.431 288.529 457.495 288.731C458.021 289.009 458.211 289.613 458.202 290.281C458.192 290.949 457.656 291.339 456.994 291.326Z" fill="black"/>
<path d="M453.574 303.48C453.574 303.48 453.374 303.543 453.31 303.341C453.111 303.404 453.047 303.203 452.784 303.064C452.457 302.723 452.267 302.119 452.34 301.653C452.413 301.187 452.949 300.796 453.349 300.671C453.548 300.608 453.748 300.545 453.811 300.747C453.811 300.747 454.011 300.684 454.075 300.885C454.601 301.163 454.791 301.768 454.782 302.435C454.573 303.166 454.037 303.556 453.574 303.48Z" fill="black"/>
<path d="M476.057 270.264C475.594 270.188 475.267 269.847 475.14 269.444C475.077 269.243 475.013 269.041 475.15 268.777C475.086 268.575 475.286 268.512 475.422 268.248C475.758 267.92 476.358 267.732 476.821 267.808C477.284 267.884 477.674 268.426 477.801 268.829C477.864 269.03 477.927 269.232 477.728 269.295C477.591 269.559 477.455 269.824 477.255 269.887C476.919 270.214 476.32 270.402 476.057 270.264Z" fill="black"/>
<path d="M472.433 282.479C471.706 282.265 471.253 281.521 471.526 280.992C471.735 280.262 472.471 279.809 472.997 280.086C473.723 280.301 474.177 281.045 473.904 281.573C473.895 282.241 473.159 282.694 472.433 282.479Z" fill="black"/>
<path d="M468.173 274.517C467.447 274.302 466.993 273.559 467.266 273.03C467.475 272.299 468.211 271.846 468.737 272.124C469.464 272.338 469.917 273.082 469.644 273.611C469.435 274.341 468.699 274.794 468.173 274.517Z" fill="black"/>
<path d="M480.319 278.228C479.593 278.013 479.14 277.27 479.412 276.741C479.622 276.01 480.357 275.557 480.884 275.835C481.61 276.049 482.063 276.793 481.791 277.322C481.781 277.989 481.046 278.442 480.319 278.228Z" fill="black"/>
<path d="M464.616 286.935C463.89 286.72 463.437 285.976 463.709 285.448C463.919 284.717 464.654 284.264 465.181 284.542C465.907 284.756 466.36 285.5 466.088 286.029C466.078 286.696 465.279 286.948 464.616 286.935Z" fill="black"/>
<path d="M476.896 290.382C476.169 290.167 475.716 289.424 475.989 288.895C476.198 288.164 476.934 287.711 477.46 287.989C478.186 288.203 478.64 288.947 478.367 289.476C478.158 290.206 477.422 290.659 476.896 290.382Z" fill="black"/>
<path d="M463.974 266.754C463.974 266.754 463.775 266.816 463.711 266.615C463.511 266.678 463.448 266.476 463.185 266.337C462.921 266.199 462.858 265.997 462.795 265.795C462.731 265.594 462.668 265.392 462.804 265.128C462.741 264.926 462.94 264.863 463.077 264.599C463.213 264.334 463.613 264.209 463.813 264.146C464.012 264.083 464.212 264.02 464.276 264.222C464.276 264.222 464.475 264.159 464.539 264.361C464.802 264.499 465.129 264.84 465.255 265.243C465.319 265.444 465.382 265.646 465.182 265.709C465.046 265.973 464.91 266.238 464.71 266.301C464.574 266.565 464.374 266.628 463.974 266.754Z" fill="black"/>
<path d="M460.552 278.908C460.552 278.908 460.352 278.971 460.289 278.769C460.089 278.832 460.026 278.63 459.763 278.492C459.436 278.151 459.246 277.547 459.319 277.08C459.392 276.614 459.927 276.224 460.327 276.099C460.527 276.036 460.727 275.973 460.79 276.174C460.79 276.174 460.99 276.112 461.053 276.313C461.58 276.591 461.77 277.195 461.76 277.863C461.551 278.594 461.015 278.984 460.552 278.908Z" fill="black"/>
<path d="M479.415 257.908C478.689 257.693 478.235 256.95 478.508 256.421C478.717 255.69 479.453 255.237 479.98 255.515C480.706 255.729 481.159 256.473 480.886 257.002C480.877 257.669 480.141 258.122 479.415 257.908Z" fill="black"/>
<path d="M475.151 249.944C474.951 250.007 474.888 249.805 474.624 249.666C474.361 249.528 474.234 249.124 474.107 248.721C474.97 248.671 475.833 248.621 476.695 248.572C476.695 248.572 476.758 248.773 476.559 248.836C476.422 249.101 476.286 249.365 476.086 249.428C476.077 250.096 475.614 250.02 475.151 249.944Z" fill="black"/>
<path d="M487.3 253.656C486.574 253.441 486.12 252.698 486.393 252.169C486.466 251.703 486.666 251.64 486.802 251.375C487.138 251.048 487.538 250.922 488.064 251.2C488.527 251.276 488.854 251.616 489.044 252.221C489.107 252.422 489.171 252.624 489.034 252.889C488.762 253.417 488.026 253.87 487.3 253.656Z" fill="black"/>
<path d="M471.595 262.363C470.869 262.148 470.415 261.405 470.688 260.876C470.897 260.145 471.633 259.692 472.159 259.97C473.022 259.92 473.275 260.726 473.266 261.394C473.057 262.125 472.321 262.578 471.595 262.363Z" fill="black"/>
<path d="M483.878 265.81C483.152 265.595 482.698 264.852 482.971 264.323C483.18 263.592 483.916 263.139 484.442 263.417C485.169 263.631 485.622 264.375 485.349 264.904C485.14 265.634 484.404 266.087 483.878 265.81Z" fill="black"/>
<path d="M467.533 254.335C467.533 254.335 467.333 254.398 467.269 254.196C467.07 254.259 467.006 254.057 466.743 253.919C466.416 253.578 466.226 252.974 466.299 252.507C466.372 252.041 466.908 251.651 467.307 251.526C467.507 251.463 467.707 251.4 467.77 251.601C467.77 251.601 467.97 251.539 468.034 251.74C468.56 252.018 468.75 252.622 468.741 253.29C468.731 253.958 467.996 254.411 467.533 254.335Z" fill="black"/>
<path d="M423.449 361.257C422.986 361.181 422.66 360.84 422.533 360.437C422.469 360.236 422.406 360.034 422.542 359.769C422.479 359.568 422.679 359.505 422.815 359.241C423.151 358.913 423.75 358.725 424.213 358.801C424.676 358.877 425.066 359.418 425.193 359.822C425.257 360.023 425.32 360.225 425.12 360.288C424.984 360.552 424.848 360.817 424.648 360.879C424.375 361.408 423.912 361.332 423.449 361.257Z" fill="black"/>
<path d="M430.892 336.76C430.692 336.823 430.692 336.823 430.629 336.621C430.366 336.482 430.166 336.545 430.102 336.344L430.039 336.142C430.638 335.954 431.038 335.828 431.637 335.639C431.837 335.576 432.237 335.451 432.436 335.388C432.5 335.589 432.5 335.589 432.363 335.854C432.227 336.118 432.091 336.383 431.891 336.446C431.491 336.571 431.155 336.899 430.892 336.76Z" fill="black"/>
<path d="M427.071 349.039C426.345 348.825 425.892 348.081 426.164 347.552C426.374 346.822 427.109 346.369 427.636 346.646C428.362 346.861 428.815 347.604 428.543 348.133C428.333 348.864 427.798 349.254 427.071 349.039Z" fill="black"/>
<path d="M422.608 341.137C422.145 341.061 421.755 340.519 421.628 340.116L421.565 339.915C421.565 339.915 421.501 339.713 421.701 339.65C421.911 338.92 422.646 338.467 423.173 338.744C423.372 338.681 423.436 338.883 423.699 339.022L423.762 339.223C424.089 339.564 424.216 339.967 423.943 340.496C424.07 340.899 423.334 341.352 422.608 341.137Z" fill="black"/>
<path d="M434.892 344.585C434.165 344.37 433.712 343.627 433.985 343.098C434.194 342.367 434.93 341.914 435.456 342.192C436.182 342.406 436.636 343.15 436.363 343.679C436.154 344.409 435.618 344.799 434.892 344.585Z" fill="black"/>
<path d="M419.187 353.292C418.46 353.077 418.007 352.333 418.28 351.805C418.489 351.074 419.225 350.621 419.751 350.899C420.477 351.113 420.931 351.857 420.658 352.386C420.449 353.116 419.913 353.506 419.187 353.292Z" fill="black"/>
<path d="M431.335 357.004C430.609 356.79 430.155 356.046 430.428 355.517C430.637 354.787 431.373 354.334 431.899 354.611C432.626 354.826 433.079 355.569 432.806 356.098C432.797 356.766 432.061 357.219 431.335 357.004Z" fill="black"/>
<path d="M415.589 345.34C415.389 345.403 415.189 345.466 414.926 345.327C414.726 345.39 414.463 345.251 414.2 345.113L414.136 344.911C414.409 344.382 414.882 343.79 415.418 343.4C415.617 343.337 415.554 343.136 415.754 343.073C415.754 343.073 416.017 343.212 416.08 343.413C416.144 343.615 416.144 343.615 416.207 343.816C416.271 344.018 416.397 344.421 416.261 344.686C416.324 344.887 415.988 345.215 415.589 345.34Z" fill="black"/>
<path d="M438.975 332.445C438.776 332.508 438.776 332.508 438.512 332.369C438.249 332.23 438.249 332.23 437.986 332.091C438.522 331.701 438.994 331.109 439.667 330.455C439.667 330.455 439.866 330.392 439.803 330.19C440.13 330.531 440.193 330.732 440.12 331.198C440.12 331.198 440.12 331.198 440.184 331.4C439.711 331.992 439.375 332.319 438.975 332.445Z" fill="black"/>
<path d="M444.649 287.677C443.923 287.463 443.47 286.719 443.743 286.19C443.952 285.46 444.687 285.007 445.214 285.284C445.94 285.499 446.394 286.242 446.121 286.771C445.912 287.502 445.112 287.753 444.649 287.677Z" fill="black"/>
<path d="M448.913 295.642C448.187 295.427 447.733 294.684 448.006 294.155C448.215 293.424 448.951 292.971 449.478 293.249C450.204 293.463 450.657 294.207 450.385 294.736C450.375 295.404 449.576 295.655 448.913 295.642Z" fill="black"/>
<path d="M445.492 307.796C445.292 307.859 445.229 307.658 445.229 307.658C444.702 307.38 444.312 306.838 444.521 306.108C444.658 305.843 444.658 305.843 444.794 305.579C444.994 305.516 444.93 305.314 445.13 305.252C445.53 305.126 445.73 305.063 446.193 305.139C446.919 305.353 447.372 306.097 447.099 306.626C446.754 307.621 446.218 308.011 445.492 307.796Z" fill="black"/>
<path d="M451.631 263.105C451.168 263.029 450.842 262.689 450.715 262.286C450.652 262.084 450.588 261.883 450.725 261.618C450.661 261.417 450.861 261.354 450.997 261.089C451.27 260.561 451.669 260.435 452.196 260.712C452.659 260.788 453.049 261.33 453.176 261.733C453.239 261.935 453.303 262.137 453.103 262.199C452.967 262.464 452.83 262.728 452.63 262.791C452.494 263.056 451.895 263.244 451.631 263.105Z" fill="black"/>
<path d="M448.009 275.322C447.283 275.108 446.829 274.364 447.102 273.835C447.311 273.105 448.047 272.652 448.573 272.929C449.299 273.144 449.753 273.887 449.48 274.416C449.471 275.084 448.735 275.537 448.009 275.322Z" fill="black"/>
<path d="M445.218 266.452C445.146 266.918 444.946 266.981 444.809 267.246C444.946 266.981 445.082 266.717 445.218 266.452Z" fill="black"/>
<path d="M455.892 271.068C455.165 270.854 454.712 270.11 454.985 269.581C455.194 268.851 455.93 268.398 456.456 268.675C457.182 268.89 457.636 269.633 457.363 270.162C457.354 270.83 456.554 271.081 455.892 271.068Z" fill="black"/>
<path d="M440.389 279.712C440.598 278.981 440.608 278.314 440.754 277.382C440.754 277.382 440.69 277.18 440.89 277.117C441.153 277.256 441.416 277.395 441.743 277.735C441.87 278.138 441.933 278.34 441.797 278.604C441.724 279.07 441.588 279.335 441.388 279.398C441.252 279.662 440.852 279.788 440.389 279.712Z" fill="black"/>
<path d="M452.47 283.222C451.744 283.008 451.29 282.264 451.563 281.735C451.772 281.005 452.508 280.552 453.034 280.829C453.76 281.044 454.214 281.787 453.941 282.316C453.732 283.047 452.996 283.5 452.47 283.222Z" fill="black"/>
<path d="M459.448 258.651C458.722 258.436 458.269 257.693 458.541 257.164C458.751 256.433 459.486 255.98 460.013 256.258C460.739 256.472 461.192 257.216 460.92 257.745C460.71 258.475 460.175 258.865 459.448 258.651Z" fill="black"/>
<path fill-rule="evenodd" clip-rule="evenodd" d="M463.874 211.61C488.632 251.923 497.78 307.785 475.627 349.568C453.762 390.808 398.765 396.8 355.909 415.246C321.259 430.16 287.745 444.73 250.07 446.65C208.557 448.765 164.91 449.422 130.047 426.754C93.2741 402.843 64.9069 364.297 57.029 321.13C49.4301 279.492 73.5159 240.87 88.9322 201.465C104.201 162.438 113.958 119.729 146.258 93.0539C180.684 64.6236 227.17 39.8632 270.207 51.7599C312.614 63.4827 319.283 122.25 353.227 150.267C386.572 177.789 441.243 174.76 463.874 211.61Z" fill="#86F2C8"/>
<g clip-path="url(#clip0)">
<path d="M409.97 426.441C385.555 449.406 355.217 456.195 323.217 457.928C311.443 458.578 300.247 455.4 290.423 448.756C283.055 443.773 274.459 441.535 266.874 437.202C254.956 430.341 244.337 422.036 236.536 410.554C235.597 409.182 234.514 408.532 232.924 408.82C222.884 410.698 216.6 405.643 211.688 397.627C209.81 394.594 207.498 391.777 204.103 390.116C203.236 389.683 202.514 388.672 201.936 387.805C198.469 382.534 195.796 376.973 194.207 370.834C196.013 370.185 197.169 371.484 198.469 372.207C206.992 377.406 216.022 381.739 225.268 386.289C224.618 377.767 225.051 369.535 226.568 361.446C227.796 354.514 229.963 347.87 233.358 341.731C234.586 339.565 234.369 337.976 232.563 336.387C223.606 328.588 215.588 319.705 206.704 311.761C205.764 310.967 204.825 310.173 204.753 308.873C208.582 301.868 215.227 301.218 219.995 305.478C220.356 305.767 220.717 306.128 221.15 306.345C222.162 306.995 223.245 307.067 224.04 306.056C224.762 305.045 224.04 304.251 223.462 303.529C219.706 298.762 210.965 298.04 205.764 301.94C204.32 303.023 203.309 304.612 201.575 305.334C198.613 304.756 197.096 302.59 195.868 300.134C196.663 295.729 199.263 292.263 201.864 288.796C212.482 274.642 223.678 260.921 233.936 246.55C238.775 239.761 244.482 234.128 251.633 229.94C253.8 228.64 255.895 227.196 257.917 225.679C259.579 224.74 258.712 222.574 259.795 221.346C261.746 222.502 263.624 223.513 265.574 221.346C275.109 216.146 284.716 211.308 295.335 208.853C297.646 208.347 299.452 207.047 301.041 205.314C305.014 201.125 309.492 197.515 314.188 194.193C315.343 193.47 316.499 192.748 317.583 191.954C319.533 190.871 321.194 189.354 323.072 188.199C325.673 187.188 328.346 186.899 331.09 187.043C331.524 187.26 331.957 187.693 331.813 188.199C330.874 191.015 332.174 192.748 334.558 194.048C335.063 194.337 335.424 194.915 335.063 195.565C334.124 196.215 333.257 196.07 332.318 195.565C337.086 198.02 342.431 198.526 347.343 200.259C347.488 200.548 347.488 200.909 347.415 201.198C347.199 201.559 346.332 201.92 346.548 202.064C348.788 203.436 357.311 202.064 359.551 200.042C359.695 199.537 359.84 199.103 360.128 198.67C362.223 197.081 364.751 196.215 366.846 194.698C368.219 193.687 369.374 192.532 369.736 190.798C370.747 188.921 371.903 187.188 373.203 185.527C377.32 184.01 381.293 181.916 385.844 182.638C387.722 185.021 390.611 185.743 393.067 187.188C412.426 198.598 427.812 213.619 436.552 234.634C440.236 243.444 440.38 252.905 441.175 262.221C442.259 275.725 442.764 289.302 445.437 302.662C446.52 308.078 448.109 313.35 450.854 318.261C453.888 323.821 455.116 329.96 455.477 336.243C456.85 358.774 451.721 379.645 438.358 398.132C434.818 402.032 430.051 403.549 425.284 404.993C423.767 405.426 423.044 403.91 422.539 402.682C421.383 399.938 420.155 397.194 419.216 394.305C416.977 388.6 411.992 385.206 406.142 385.567C400.291 385.928 395.306 390.044 394.006 395.677C393.717 396.905 393.067 398.493 394.729 399.143C396.534 399.793 397.185 398.349 397.618 396.832C398.629 392.861 401.013 390.261 405.202 389.611C409.609 388.889 412.932 390.694 415.243 394.377C416.038 395.605 416.904 396.688 418.132 397.482C418.782 404.271 416.327 405.932 407.947 404.054C407.514 405.354 408.381 406.293 408.742 407.304C410.765 412.142 410.62 412.431 406.286 415.464C405.202 416.187 403.975 416.692 403.252 418.064C404.625 419.003 406.214 418.859 407.658 419.147C409.32 419.436 411.342 419.509 411.848 421.314C412.354 423.119 412.065 425.214 409.97 426.441Z" fill="#3D97E6"/>
<path d="M317.438 192.604C316.499 193.254 315.56 193.904 314.62 194.554C308.697 196.359 302.485 196.142 296.49 196.287C285.438 196.504 274.458 197.948 263.407 197.876C260.806 197.876 260.156 199.32 260.228 201.559C260.301 206.253 261.384 210.875 260.878 215.569C260.589 217.591 261.384 219.757 260.012 221.635C259.289 223.079 260.951 225.318 258.495 226.185C256.761 224.235 257.122 221.996 257.628 219.757C258.061 217.952 258.134 216.291 257.772 214.485C257.628 208.853 257.628 203.22 257.411 197.515C257.339 195.637 257.845 195.059 259.795 195.059C263.262 195.059 267.091 195.565 270.124 194.265C273.014 193.037 272.653 188.415 275.397 185.743C270.052 185.743 264.779 185.671 259.434 185.815C257.194 185.888 256.328 185.454 256.255 182.927C255.605 159.384 254.883 135.769 253.944 112.227C253.799 109.121 254.739 108.833 257.483 108.977C273.664 109.916 289.916 110.638 306.169 111.432C307.614 111.505 308.914 111.721 310.142 110.349C314.982 105.149 321.338 103.488 328.056 102.983C330.151 102.839 332.029 102.333 333.907 101.466C341.853 98.0722 350.015 96.7723 358.539 99.0833C366.051 101.105 371.107 105.727 373.997 112.949C377.103 120.965 377.97 121.254 386.638 120.459C393.283 119.809 399.206 121.904 404.335 126.237C406.863 128.403 408.163 131.147 408.163 134.469C408.163 136.491 408.091 138.586 408.019 140.608C407.802 147.107 409.464 149.346 415.893 150.429C424.705 151.874 432.651 155.34 439.874 160.612C440.813 161.334 441.752 162.128 443.125 163.212C435.396 166.534 428.028 169.639 420.66 172.816C419.432 173.322 418.854 172.528 418.276 171.805C416.832 170.072 415.387 168.339 413.581 166.245C412.859 167.617 412.497 168.05 412.497 168.483C412.209 174.622 408.669 177.149 402.818 178.088C397.184 178.955 391.622 180.905 386.06 182.421C381.87 183.577 377.753 184.732 373.563 185.815C368.796 188.921 366.846 188.56 363.74 184.01C358.394 176.283 355.649 167.978 358.25 158.518C358.683 156.857 358.755 155.196 358.683 153.535C358.539 146.024 354.783 141.474 347.342 141.474C338.819 141.474 332.029 138.297 325.889 132.736C323.722 130.786 321.772 131.22 320.399 133.747C319.966 134.469 319.677 135.264 319.605 136.13C319.388 140.175 319.46 144.219 318.521 148.263C320.471 148.768 323 147.107 323.577 149.346C324.155 151.513 321.483 151.513 320.11 152.235C315.415 154.979 314.187 159.168 316.643 164.078C319.894 170.433 324.155 175.705 330.584 179.244C334.268 181.194 334.413 184.082 331.379 187.332C328.634 187.838 325.817 188.271 323.072 188.776C317.293 191.521 311.009 191.376 304.869 192.243C302.774 192.532 300.679 192.82 298.946 192.748C298.079 192.893 298.585 193.615 298.512 193.182C298.512 193.109 298.512 193.037 298.585 193.037C303.93 192.026 309.42 192.171 314.837 191.448C315.704 191.304 316.788 191.448 317.438 192.604Z" fill="black"/>
<path d="M257.772 214.558C258.711 218.385 258.061 222.357 258.494 226.185C244.914 233.117 235.741 244.528 227.145 256.66C219.416 267.637 210.892 278.036 202.73 288.724C200.129 292.191 198.035 295.946 196.084 299.846C194.351 300.134 193.556 298.69 192.545 297.751C185.466 291.757 179.109 285.041 172.536 278.469C170.947 276.881 169.213 275.725 166.902 275.581C163.29 275.364 161.412 277.386 161.99 280.853C162.279 282.514 163.001 284.03 163.724 285.547C167.696 294.14 173.186 301.723 179.398 308.8C181.854 311.617 181.854 312.195 178.459 313.494C175.859 314.505 174.125 316.022 174.053 318.983C173.981 321.077 172.753 322.088 170.875 322.81C165.529 324.905 164.807 326.205 165.385 332.054C165.602 333.932 164.59 334.943 163.29 335.882C162.207 336.676 160.979 337.47 159.967 335.809C158.884 334.076 157.078 334.221 155.417 334.148C149.421 333.86 148.988 333.498 148.916 327.36C148.916 314.144 148.916 300.857 148.916 287.641C148.916 286.558 148.916 285.474 148.916 284.391C148.843 282.658 148.193 281.791 146.243 281.864C135.408 282.514 124.645 282.73 113.81 283.38C107.092 283.813 100.374 283.741 93.6566 284.247C90.9117 284.463 89.6115 285.258 89.8282 288.074C90.406 296.812 90.406 305.623 90.9839 314.361C91.0561 315.95 91.3451 317.466 91.2728 319.055C90.8394 328.949 92.2841 338.77 92.0674 348.592C91.9952 352.275 92.573 352.78 96.257 352.78C116.482 352.853 136.708 352.78 156.934 352.853C159.967 352.853 161.195 351.841 160.617 348.808C160.473 347.87 160.617 346.859 160.979 345.992C163.001 344.403 163.579 345.559 163.796 347.436C163.724 356.102 163.724 356.102 155.2 356.102C134.613 356.102 114.099 356.03 93.5121 356.174C90.1171 356.174 89.3948 355.163 89.3225 351.914C89.0336 336.243 88.3835 320.499 87.7334 304.828C87.4444 297.823 88.0945 290.674 86.7943 283.669C86.5054 282.152 87.1555 281.719 88.4557 281.647C92.1396 281.43 95.8236 281.069 99.5797 280.925C112.871 280.564 126.162 279.48 139.453 279.336C142.126 279.336 144.87 278.542 147.688 278.758C149.638 278.903 150.216 277.964 150.144 276.158C150.071 272.909 150.144 269.659 150.144 266.409C152.527 264.604 155.272 265.47 157.8 265.398C162.784 265.254 163.001 265.326 162.784 260.199C162.279 248.211 162.279 236.223 161.556 224.235C161.34 220.552 160.329 216.58 162.496 213.041C162.712 213.33 162.929 213.619 163.001 213.98C163.435 215.424 162.351 217.519 163.796 218.385C165.674 219.468 167.985 218.746 170.152 218.746C171.958 218.746 171.814 217.302 171.741 216.146C171.453 209.791 172.392 203.436 171.091 197.081C170.875 195.926 171.091 194.698 171.019 193.47C170.947 191.954 171.597 191.376 173.186 191.521C181.638 192.315 190.161 192.532 198.613 192.893C213.565 193.615 228.517 194.77 243.47 194.987C245.781 195.059 246.937 196.07 246.865 198.526C246.793 199.97 246.215 201.703 247.659 202.931C247.082 204.447 246.287 205.169 244.842 203.797C244.553 203.22 244.337 202.642 244.409 202.064C244.481 199.103 242.82 198.381 240.147 197.948C234.441 197.081 228.662 197.298 222.883 197.009C211.037 196.431 199.19 195.492 187.272 195.348C184.166 195.348 181.06 194.77 177.954 194.626C175.425 194.481 174.197 195.492 174.197 198.164C174.27 203.436 174.197 208.708 174.775 213.98C175.064 216.724 176.22 217.663 178.893 217.663C186.333 217.591 193.773 217.663 201.213 217.663C202.874 217.663 204.608 217.519 206.197 218.024C208.364 219.107 207.208 220.624 206.63 221.996C203.813 228.495 201.068 234.995 199.263 242.722C201.357 234.489 204.175 227.412 207.497 220.479C208.075 219.18 208.581 217.735 210.387 217.663C213.998 218.096 217.682 217.085 221.222 218.457C222.377 219.757 221.438 220.985 221.005 222.14C218.26 229.723 216.454 237.523 215.443 245.539C215.154 247.705 215.01 249.872 215.66 251.966C215.949 252.905 215.732 254.277 217.249 254.493C218.694 254.71 219.488 253.844 220.21 252.832C222.522 249.438 223.461 245.611 223.967 241.639C224.833 235.5 225.556 229.29 224.833 223.079C224.689 221.563 224.545 219.902 225.628 218.602C228.084 217.374 230.757 217.807 233.357 217.88C234.874 219.107 233.935 220.552 233.574 221.779C232.562 225.173 231.84 228.64 231.696 232.179C233.213 228.423 234.657 224.668 234.946 220.624C235.018 219.324 234.657 217.591 236.68 217.23C244.409 219.107 245.131 218.53 244.914 210.658C244.914 209.575 244.842 208.491 244.77 207.48C245.059 206.108 245.709 205.242 247.298 205.747C247.37 209.214 247.515 212.68 248.021 216.074C248.382 218.241 249.249 218.963 251.271 218.891C251.777 218.891 252.21 218.818 252.716 218.891C256.472 219.685 258.206 218.313 257.772 214.558Z" fill="#020A13"/>
<path d="M163.795 347.581C163.073 346.859 162.351 346.136 161.628 345.414C157.872 342.959 157.655 340.287 160.978 336.893C163.579 335.159 165.384 333.499 164.012 329.743C163.001 327.071 165.962 323.749 169.791 322.449C172.102 321.655 173.186 320.788 173.33 318.044C173.475 313.856 177.231 313.061 181.059 311.978C177.086 307.934 173.98 303.673 170.802 299.412C167.335 294.718 164.59 289.735 162.206 284.463C160.256 280.058 160.545 277.17 162.856 275.581C165.457 273.775 169.718 274.642 172.68 277.531C180.409 285.113 187.994 292.768 196.156 299.918C197.673 301.868 199.407 303.601 201.429 304.973C203.163 305.623 204.391 306.851 205.113 308.584C214.576 317.755 224.038 327.071 233.646 336.098C235.668 338.048 235.813 339.348 234.512 341.803C227.072 355.597 225.05 370.401 226.567 385.783C226.639 386.217 226.567 386.722 226.567 387.661C215.154 382.822 204.752 376.756 194.35 370.762C183.515 363.757 173.33 356.175 163.795 347.581Z" fill="#EF7CF1"/>
<path d="M170.225 174.983C168.78 171.733 170.152 168.195 169.141 164.295C165.529 168.917 161.701 172.816 157.584 176.355C149.494 183.36 140.464 188.415 129.412 189.498C115.832 190.871 103.336 187.188 91.0562 182.277C85.2775 179.966 79.7155 177.077 74.2257 174.044C71.9865 172.816 71.842 171.589 72.9255 169.422C81.4491 153.101 93.2233 139.813 109.62 131.003C118 126.526 127.245 124.503 136.636 124.72C146.387 124.937 155.85 127.32 164.663 131.653C165.602 132.086 166.685 132.375 168.202 132.881C168.202 129.342 168.202 126.092 168.202 122.915C170.08 123.565 169.791 125.153 169.791 126.526C169.502 137.214 170.73 147.829 170.658 158.518C170.586 162.562 171.742 166.606 171.453 170.65C171.308 172.166 171.525 173.827 170.225 174.983Z" fill="#D0E9FE"/>
<path d="M170.225 174.983C169.864 157.579 169.214 140.247 168.275 122.915C168.203 119.521 168.275 116.199 168.131 112.804C168.058 110.927 168.347 110.06 170.587 110.06C193.846 110.132 217.033 110.132 240.292 110.06C242.821 110.06 242.821 111.216 242.893 113.093C243.615 136.203 244.338 159.24 245.204 182.349C245.277 184.299 244.626 184.516 243.037 184.516C219.706 184.516 196.374 184.443 172.97 184.516C171.165 184.516 170.731 183.866 170.659 182.205C170.514 179.821 170.37 177.438 170.225 174.983Z" fill="#010101"/>
<path d="M409.968 426.441C410.041 426.225 410.185 426.008 410.257 425.791C412.063 420.52 412.063 420.52 406.501 419.797C404.623 419.581 402.745 419.147 400.506 418.786C402.528 416.331 405.057 415.031 407.368 413.515C409.246 412.287 409.752 411.131 408.668 409.109C407.585 407.087 406.862 404.993 405.851 402.682C408.235 402.321 410.257 403.332 412.136 403.982C414.591 404.849 415.964 404.487 416.542 401.815C416.903 400.299 417.481 398.855 417.986 397.41C417.986 395.894 417.698 394.16 420.009 394.016C421.165 396.905 422.393 399.793 423.476 402.682C424.054 404.343 424.776 404.632 426.366 403.838C430.338 401.815 434.311 399.866 438.356 397.916C439.584 399.143 438.14 399.866 437.634 400.588C435.612 403.693 433.445 406.798 431.278 409.759C430.266 411.131 430.338 411.998 432 412.792C435.395 414.526 438.645 416.403 442.69 418.57C437.995 419.22 434.095 419.87 430.266 420.303C428.533 420.52 428.171 421.242 428.099 422.83C428.027 425.791 429.255 428.68 428.316 432.291C426.582 430.63 425.138 429.258 423.693 427.886C419.07 423.769 420.587 423.842 416.181 427.741C413.797 429.908 411.341 432.074 408.957 434.241C408.813 434.385 408.524 434.385 407.874 434.674C408.668 431.858 409.318 429.186 409.968 426.441Z" fill="#FEDB4D"/>
<path d="M162.423 213.33C162.857 226.762 163.218 240.195 163.651 253.627C163.724 257.021 163.724 260.343 163.94 263.665C164.085 265.831 163.507 266.626 161.195 266.554C157.511 266.409 153.755 266.626 150.071 266.698C132.157 266.626 114.243 266.554 96.3292 266.481C89.5392 266.481 89.5392 266.481 89.2503 259.549C88.4557 238.028 87.6611 216.58 86.7221 195.059C86.6499 192.604 87.3 192.026 89.6115 192.098C112.726 192.171 135.769 192.171 158.884 192.098C161.195 192.098 161.629 192.82 161.701 194.915C161.845 201.125 162.207 207.192 162.423 213.33Z" fill="#070708"/>
<path d="M209.954 218.313C204.97 226.834 202.081 236.15 198.83 245.394C199.48 236.006 203.67 227.629 207.137 219.107C208.726 213.113 212.121 208.275 216.889 204.447C219.85 202.136 222.523 203.003 223.895 206.686C224.834 209.214 225.773 210.514 228.735 209.141C230.685 208.203 232.78 209.069 234.225 210.802C235.597 212.463 236.536 212.102 237.909 210.658C240.076 208.347 241.882 205.458 245.349 204.808C246.216 204.52 247.01 204.158 247.588 203.364C248.455 203.508 249.322 201.92 250.044 203.22C250.622 204.231 249.322 204.447 248.744 204.953C248.31 205.314 247.877 205.675 247.371 206.036C246.505 206.325 245.71 206.758 245.204 207.625C242.098 210.802 239.642 214.558 236.536 217.735C235.597 222.718 235.092 227.846 232.997 232.54C232.563 233.551 232.636 235.428 231.046 235.067C229.313 234.706 230.396 233.117 230.469 232.034C230.83 227.34 232.274 222.935 233.719 218.53C233.502 217.591 233.43 216.652 233.069 215.713C232.563 214.197 231.913 212.536 230.035 212.608C228.013 212.68 226.929 214.269 226.423 216.074C226.135 217.085 226.568 218.241 225.773 219.18C226.135 227.701 226.135 236.223 224.329 244.672C223.751 247.272 223.101 249.799 221.873 252.183C220.789 254.205 219.561 256.588 216.816 256.01C214.144 255.432 214.288 252.688 214.216 250.666C213.999 244.816 215.227 239.184 216.527 233.551C217.611 228.64 219.345 223.874 221.15 219.18C221.873 216.002 222.812 212.824 221.223 209.575C219.85 206.758 219.056 206.469 216.961 208.78C215.083 210.802 213.566 213.113 212.193 215.424C211.688 216.363 211.182 217.663 209.954 218.313Z" fill="#060607"/>
<path d="M455.694 192.748C455.983 189.354 455.838 186.177 456.705 183.143C457.066 181.988 457.427 180.76 458.8 180.471C460.172 180.183 461.039 181.266 461.761 182.132C463.639 184.371 463.928 187.188 463.928 189.932C463.928 196.504 462.339 202.714 460.317 208.925C459.883 210.297 459.305 210.658 458.077 209.719C453.382 206.108 448.904 202.353 445.942 197.081C445.436 196.142 445.075 195.059 444.859 194.048C443.992 190.076 445.798 188.415 449.554 189.787C451.649 190.582 453.527 191.665 455.694 192.748Z" fill="#FDFFB6"/>
<path d="M85.784 145.013C85.6395 145.302 85.495 145.663 85.2783 145.807C84.6282 146.096 84.1948 145.663 83.6892 145.23C80.7998 142.847 77.9827 140.536 75.0933 138.152C73.143 136.564 71.1927 134.975 69.3146 133.314C68.8812 132.953 68.3756 132.447 68.8812 131.87C69.2424 131.436 69.748 131.436 70.1814 131.797C75.31 135.986 80.3664 140.175 85.4228 144.363C85.5673 144.435 85.6395 144.724 85.784 145.013Z" fill="#191919"/>
<path d="M55.0839 152.885C55.5173 153.101 55.9507 153.246 56.3841 153.462C61.4405 156.279 66.4246 159.023 71.481 161.84C72.2756 162.273 73.648 162.634 72.9257 163.789C72.3478 164.728 71.4088 163.862 70.7587 163.5C65.6301 160.684 60.5015 157.868 55.3728 154.979C54.795 154.618 53.9282 154.473 54.0726 153.535C54.0726 152.957 54.506 152.812 55.0839 152.885Z" fill="#191919"/>
<path d="M131.434 117.932C130.928 119.16 132.951 121.398 130.712 121.687C129.267 121.832 129.845 119.304 129.628 118.004C128.978 112.877 128.473 107.821 127.967 102.694C127.895 101.9 127.389 100.744 128.545 100.528C129.989 100.239 129.7 101.683 129.773 102.477C130.351 107.605 130.928 112.66 131.434 117.932Z" fill="#131313"/>
<path d="M94.0173 112.082C95.0286 112.082 95.3176 112.804 95.6787 113.382C99.0737 118.148 102.469 122.915 105.864 127.753C106.297 128.331 107.381 129.125 106.225 129.848C105.286 130.425 104.78 129.342 104.347 128.692C100.952 123.926 97.5568 119.16 94.1618 114.321C93.7284 113.599 92.7171 112.804 94.0173 112.082Z" fill="#161616"/>
<path d="M161.123 125.731C160.04 125.587 159.967 124.865 160.184 124.142C161.99 118.076 163.868 112.01 165.746 105.944C165.963 105.366 166.252 104.788 166.974 104.933C167.552 105.077 167.624 105.655 167.48 106.088C165.602 112.371 163.724 118.654 161.773 124.937C161.701 125.298 161.34 125.515 161.123 125.731Z" fill="#1A1A1A"/>
<path d="M331.233 187.404C333.328 181.988 333.328 181.916 328.416 179.244C320.904 175.127 317.003 168.122 313.825 160.612C312.741 157.94 316.859 152.451 320.398 151.079C321.409 150.718 322.926 151.151 323.432 149.418C321.265 148.335 319.531 149.852 317.148 150.285C318.159 145.591 317.87 140.969 318.303 136.419C318.52 134.614 319.17 132.881 320.543 131.653C322.349 130.064 324.082 129.414 326.105 131.581C331.956 137.864 339.179 140.897 347.992 140.752C356.226 140.608 361.933 148.985 359.26 157.795C356.371 167.472 359.043 175.705 364.244 183.649C366.05 186.465 367.928 187.982 371.251 186.321C371.901 186.032 372.623 186.032 373.346 185.888C372.985 188.054 371.106 189.21 370.095 190.943C367.784 194.843 363.883 196.576 359.91 197.876C351.964 200.475 344.019 199.537 336.29 196.865C335.64 196.648 334.989 196.287 334.773 195.42C334.484 195.059 334.267 194.481 333.906 194.409C330.511 193.182 329.427 190.871 331.233 187.404Z" fill="#EF7BF1"/>
<path d="M311.875 244.672C321.988 246.261 331.739 247.85 341.563 249.438C343.008 249.655 343.514 250.233 343.225 251.894C342.213 257.599 340.985 263.159 338.529 268.431C334.845 276.231 327.766 278.686 320.11 280.636C315.703 281.791 313.32 280.275 311.658 276.52C311.586 276.447 311.514 276.303 311.442 276.231C307.035 270.67 304.941 264.676 307.469 257.527C308.624 254.132 308.986 250.522 309.78 247.055C309.997 245.755 310.214 244.311 311.875 244.672Z" fill="#0E76CF"/>
<path d="M259.94 215.496C259.723 210.08 259.506 204.736 259.217 199.32C259.145 197.948 259.001 196.792 261.095 196.72C278.937 196.07 296.779 195.276 314.693 194.554C309.492 198.887 304.002 203.003 299.307 207.986C298.657 208.708 297.79 209.141 296.851 209.358C285.655 211.669 275.687 216.796 265.718 222.068C263.046 220.479 259.506 219.685 259.94 215.496Z" fill="#FDFDFD"/>
<path d="M350.809 279.769C351.675 284.824 352.542 289.952 353.337 295.007C353.915 298.834 353.843 302.662 352.903 306.489C352.326 308.873 351.459 311.256 349.292 312.556C345.102 315.228 342.718 319.127 340.624 323.388C337.951 328.66 335.278 333.86 331.883 338.698C330.872 340.07 330.005 341.587 328.416 342.309C318.231 346.931 308.118 351.986 296.922 353.43C281.753 355.38 267.306 351.48 253.076 346.642C249.537 345.414 246.142 343.97 242.674 342.453C241.519 341.948 240.074 341.803 239.568 340.07C241.158 339.059 242.313 340.431 243.397 340.937C256.399 346.497 269.762 350.686 283.992 351.842C293.383 352.636 302.484 351.625 311.152 347.581C313.319 346.57 315.559 345.559 317.87 345.053C326.61 343.031 331.811 337.109 335.567 329.454C337.445 325.699 339.396 322.016 341.491 318.333C342.863 315.878 344.597 313.711 346.98 312.195C350.159 310.173 351.314 307.212 351.603 303.673C352.181 296.524 351.17 289.519 349.292 282.658C347.269 280.636 347.341 277.964 347.341 275.364C344.308 257.671 350.159 241.928 358.393 226.834C362.655 219.035 368.217 212.319 375.44 207.047C379.991 203.725 384.975 201.486 390.537 200.475C392.127 200.187 393.788 199.753 395.305 200.475C395.305 201.703 394.51 201.703 393.86 201.775C383.964 202.714 376.018 207.408 369.59 214.558C356.154 229.579 349.003 247.272 348.208 267.492C348.136 269.876 348.281 272.259 349.436 274.497C350.809 276.086 351.17 277.819 350.809 279.769Z" fill="#020508"/>
<path d="M258.35 261.643C261.095 253.049 264.129 244.6 269.185 237.017C274.458 229.145 280.526 222.068 288.327 216.652C289.049 216.146 290.061 214.63 290.927 216.074C291.578 217.157 289.988 217.519 289.338 218.024C279.153 225.462 271.352 234.851 266.151 246.405C263.768 253.121 262.467 260.199 259.145 266.626C255.027 278.903 249.754 290.746 243.831 302.301C242.82 304.251 242.458 306.345 242.458 308.584C242.531 315.805 242.531 323.027 242.531 330.177C242.531 331.404 242.964 332.704 242.025 333.787C240.942 333.571 240.942 332.921 240.942 332.343C240.58 324.038 240.364 315.805 240.797 307.501C240.942 304.179 242.314 301.218 243.759 298.329C248.671 288.58 253.438 278.758 256.4 268.215C256.255 265.831 256.761 263.593 258.35 261.643Z" fill="#03070B"/>
<path d="M418.71 223.224C418.71 223.079 418.493 222.285 418.493 221.418C418.349 219.18 420.443 218.746 421.744 218.169C423.405 217.374 423.405 219.324 423.766 220.263C425.933 226.257 423.333 233.767 418.06 237.017C412.281 240.628 405.13 239.761 400.29 234.923C399.496 234.128 397.545 233.19 399.279 231.817C400.579 230.806 402.096 228.64 404.191 230.879C405.563 232.323 407.008 233.334 409.103 233.478C415.387 233.912 418.926 230.445 418.71 223.224Z" fill="#0F76D0"/>
<path d="M433.229 330.104C433.302 335.954 430.123 340.287 424.633 342.742C419.216 345.198 414.087 343.825 409.537 340.215C408.381 339.276 406.431 338.048 408.236 336.171C409.681 334.726 411.198 334.148 413.221 335.954C416.616 338.843 420.877 339.059 423.839 336.965C427.017 334.798 428.534 331.043 427.162 326.855C426.15 323.677 428.968 323.821 430.195 322.955C431.857 321.799 431.857 323.966 432.435 324.832C433.518 326.277 433.085 328.082 433.229 330.104Z" fill="#0F76D0"/>
<path d="M291.723 336.748C285.583 336.965 281.104 334.148 278.504 328.66C276.048 323.46 277.276 317.033 281.104 312.989C283.488 310.534 284.788 310.606 286.233 313.278C286.811 314.361 286.883 315.155 285.944 316.094C282.838 319.2 281.538 322.955 283.849 326.855C285.944 330.465 289.339 332.415 293.89 331.188C296.201 330.61 297.212 332.415 297.718 334.148C298.224 336.171 296.201 336.315 294.973 336.676C293.962 336.965 292.806 336.748 291.723 336.748Z" fill="#0F76D0"/>
<path d="M308.985 429.908C308.696 426.008 310.43 422.758 312.958 419.87C313.825 418.859 315.125 417.125 316.426 418.497C317.654 419.725 319.243 421.386 317.076 423.769C312.886 428.319 313.536 433.519 318.087 437.202C320.398 439.007 323.143 438.935 325.671 438.357C328.778 437.635 328.778 440.451 329.355 441.679C330.15 443.34 327.983 443.268 326.827 443.629C317.509 446.734 308.119 438.285 308.985 429.908Z" fill="#0F76D0"/>
<path d="M420.154 394.088C419.504 395.244 418.782 396.327 418.131 397.482C416.687 397.482 415.675 397.41 414.953 395.533C413.581 391.561 409.463 389.683 404.985 390.333C401.807 390.766 398.989 393.727 398.556 397.555C398.267 400.082 396.678 400.299 394.8 400.371C392.561 400.516 392.705 398.927 392.705 397.482C392.849 391.344 398.7 385.206 405.129 384.483C412.064 383.761 418.493 387.878 420.154 394.088Z" fill="#0F76D0"/>
<path d="M345.102 367.079C346.186 376.756 334.628 383.978 327.405 380.8C326.249 380.295 324.443 380.223 325.166 378.345C325.743 376.828 326.177 374.806 328.85 375.529C332.389 376.467 335.351 375.456 337.807 372.568C340.696 369.174 340.696 365.129 337.373 361.23C336.579 360.291 335.423 359.641 336.145 357.908C337.518 354.658 338.384 354.369 340.913 356.897C343.802 359.785 345.463 363.107 345.102 367.079Z" fill="#0F76D0"/>
<path d="M272.147 408.026C272.292 409.398 272.003 410.409 270.414 410.626C268.463 410.915 267.091 410.409 266.513 408.459C265.285 404.343 262.612 402.393 258.35 402.465C254.089 402.538 251.055 404.271 249.971 408.387C249.105 411.709 246.865 410.626 245.204 410.337C243.037 409.976 244.482 408.171 244.77 407.159C246.143 401.165 251.56 396.905 257.773 396.76C264.418 396.616 270.341 400.732 272.003 406.654C272.075 407.015 272.075 407.521 272.147 408.026Z" fill="#0F76D0"/>
<path d="M309.781 223.44C305.952 223.874 302.702 222.357 300.101 219.468C299.307 218.602 298.295 217.591 299.74 216.435C300.896 215.569 301.979 214.197 303.785 215.641C306.675 218.096 309.925 219.324 313.681 217.446C317.871 215.352 319.821 211.525 318.232 207.119C317.148 203.942 319.388 203.003 321.121 202.425C323.216 201.775 323.361 204.158 323.65 205.458C326.105 214.919 319.677 224.235 309.781 223.44Z" fill="#0F76CF"/>
<path d="M205.041 308.656C203.813 307.428 202.585 306.201 201.357 305.045C207.208 296.018 218.91 297.029 223.967 302.879C224.906 303.962 226.712 305.262 225.05 306.778C223.678 308.078 222.016 309.089 219.849 306.851C215.443 302.301 211.398 302.59 206.847 307.067C206.342 307.573 205.619 308.078 205.041 308.656Z" fill="#0F76CF"/>
<path d="M350.81 279.769C349.943 278.181 349.51 276.447 349.365 274.714C357.817 269.587 367.929 275.364 369.591 282.225C369.88 283.308 370.891 284.752 369.157 285.258C367.713 285.691 365.835 286.341 364.607 284.536C360.056 277.603 358.611 277.169 350.81 279.769Z" fill="#0F76CF"/>
<path d="M259.145 266.77C260.95 259.837 262.395 252.76 266.151 246.55C268.029 245.611 268.39 247.055 268.968 248.211C272.074 255.432 267.596 263.882 259.145 266.77Z" fill="#1076CE"/>
<path d="M334.847 195.565C342.648 198.309 350.449 199.464 358.684 197.37C363.09 196.215 366.485 193.398 370.169 191.015C370.964 193.109 369.158 193.759 368.074 194.698C365.835 196.72 363.162 198.02 360.273 199.031C356.156 201.848 351.749 201.992 347.126 200.403C340.698 199.609 334.413 198.309 328.201 193.976C331.452 193.398 332.896 195.348 334.847 195.565Z" fill="#040A0F"/>
<path d="M258.35 261.643C258.134 263.954 257.339 266.193 256.4 268.287C255.317 267.131 253.872 267.059 252.499 266.698C250.044 266.12 247.588 265.398 245.998 263.304C245.204 262.221 242.82 261.354 244.77 259.693C246.215 258.465 247.949 256.732 250.116 259.404C252.138 262.076 255.317 261.787 258.35 261.643Z" fill="#0F76CF"/>
<path d="M347.27 275.364C348.353 277.675 348.715 280.13 349.22 282.658C348.137 283.236 347.776 284.247 347.92 285.402C348.353 288.58 346.259 288.58 344.092 288.435C340.986 288.219 342.069 285.836 342.214 284.391C342.791 280.78 345.103 278.108 347.27 275.364Z" fill="#0F76CF"/>
<path d="M317.438 192.604C310.721 192.604 304.075 192.604 297.141 192.604C305.809 191.376 314.332 190.076 322.928 188.849C321.411 190.582 319.533 191.665 317.438 192.604Z" fill="#E9EAEB"/>
<path d="M235.379 349.458C237.041 350.108 238.774 350.831 240.58 351.625C243.903 352.997 247.226 354.441 250.476 355.813C251.126 356.102 252.065 356.319 251.776 357.186C251.487 358.197 250.621 357.836 250.043 357.547C245.059 355.452 240.147 353.358 235.163 351.264C234.657 351.047 234.007 350.758 234.151 350.036C234.224 349.531 234.729 349.386 235.379 349.458Z" fill="#07111A"/>
<path d="M232.78 371.557C236.319 371.773 239.57 371.918 242.82 372.207C243.832 372.279 245.71 371.701 245.565 373.434C245.493 374.806 243.832 374.156 242.82 374.156C239.57 374.012 236.391 373.795 233.141 373.507C231.913 373.362 229.746 373.94 229.818 372.423C229.89 370.546 231.985 371.846 232.78 371.557Z" fill="#07121B"/>
<path d="M239.281 364.191C237.475 364.191 235.669 364.191 233.863 364.191C233.141 364.191 232.346 364.046 232.419 363.107C232.491 362.385 233.141 362.168 233.791 362.168C237.619 362.168 241.448 362.168 245.276 362.168C245.926 362.168 246.577 362.457 246.577 363.107C246.577 364.046 245.782 364.118 245.06 364.191C243.109 364.191 241.231 364.191 239.281 364.191Z" fill="#0D2132"/>
<path d="M228.445 381.089C233.791 383.111 238.486 386.289 242.82 390.044C237.547 387.878 232.635 385.061 228.445 381.089Z" fill="#061018"/>
<path d="M360.272 200.187C360.85 200.981 360.561 201.559 359.694 201.848C354.565 203.436 349.365 203.87 344.091 202.497C343.875 202.425 343.73 201.992 343.369 201.559C344.669 200.548 345.97 201.27 347.198 201.125C351.604 201.486 355.938 200.114 360.272 200.187Z" fill="#061119"/>
<path d="M228.373 388.889C228.806 389.25 229.24 389.611 229.601 390.044C232.057 392.933 234.513 395.894 236.969 398.855C237.475 399.432 238.414 400.154 237.402 400.949C236.68 401.527 236.102 400.732 235.669 400.154C233.068 397.049 230.468 393.944 227.867 390.766C227.506 390.333 227.073 389.755 227.651 389.178C227.795 389.033 228.084 389.033 228.373 388.889Z" fill="#071019"/>
<path d="M259.939 215.496C260.662 217.374 260.806 219.613 263.912 219.252C265.357 219.107 264.49 221.418 265.718 221.996C264.274 222.935 262.757 223.801 261.312 224.74C259.795 223.946 260.951 222.429 260.084 221.635C260.012 219.613 259.939 217.519 259.939 215.496Z" fill="#C5DDF2"/>
<path d="M360.272 200.187C355.938 200.764 351.676 202.714 347.197 201.125C347.197 200.909 347.125 200.62 347.125 200.403C351.531 200.259 355.938 200.259 360.272 199.031C360.272 199.392 360.272 199.825 360.272 200.187Z" fill="#2C6DA6"/>
<path d="M256.906 147.035C256.473 136.203 256.184 125.442 255.606 114.61C255.461 111.721 255.895 110.638 259.145 110.855C274.387 111.793 289.628 112.443 304.869 113.165C306.892 113.238 307.614 113.527 306.82 115.838C305.592 119.448 304.58 123.204 304.003 127.031C303.064 133.603 299.669 138.297 294.251 141.835C287.75 146.096 286.739 149.635 289.917 156.712C291.434 160.106 293.312 163.356 295.118 166.606C296.707 169.422 296.346 171.444 293.529 173.25C288.617 176.427 283.849 179.894 279.01 183.288C278.287 183.793 277.565 184.082 276.698 184.082C271.136 184.082 265.646 184.01 260.084 184.154C257.484 184.227 257.917 182.421 257.917 180.977C257.845 169.711 257.917 158.373 257.917 147.107C257.628 147.035 257.267 147.035 256.906 147.035Z" fill="#FDFFB6"/>
<path d="M361.499 151.801C361.788 148.191 363.666 144.435 367.928 142.269C371.54 140.463 375.007 142.052 376.235 145.807C377.824 150.646 374.934 157.434 370.239 159.601C365.472 161.767 361.427 158.59 361.499 151.801Z" fill="#DA33DD"/>
<path d="M160.979 336.893C159.173 339.926 159.029 342.814 161.629 345.414C161.629 346.714 161.557 348.086 161.629 349.386C161.99 354.152 161.99 354.152 157.078 354.152C136.636 354.152 116.194 354.152 95.7517 354.152C90.8398 354.152 90.7676 354.152 90.8398 349.097C91.0565 338.265 90.1897 327.504 89.9008 316.744C89.6841 306.851 89.2507 296.885 88.6006 286.991C88.3839 284.102 89.3951 283.38 92.2123 283.308C104.781 282.947 117.35 282.369 129.918 281.719C135.769 281.43 141.693 282.08 147.471 280.636C150.361 279.914 150.072 282.225 150.072 284.03C150.072 298.907 150.216 313.856 149.999 328.732C149.927 332.343 150.866 333.86 154.55 333.282C155.345 333.137 156.212 333.354 157.078 333.21C160.04 332.704 161.34 333.86 160.979 336.893Z" fill="#8CFED1"/>
<path d="M245.42 204.736C242.098 207.625 238.703 210.441 236.247 214.485C234.658 212.608 233.791 210.369 231.407 209.647C228.734 208.853 227.145 210.514 225.412 212.102C224.111 211.091 224.256 209.503 223.822 208.275C221.872 203.22 219.272 202.642 215.443 206.614C212.843 209.286 210.965 212.536 209.159 215.785C208.509 216.941 207.787 218.024 207.136 219.107C197.674 219.107 188.139 218.963 178.676 219.18C175.137 219.252 173.909 218.53 173.692 214.558C173.331 208.78 173.403 203.075 173.114 197.37C172.97 194.409 174.053 193.615 176.798 193.831C188.572 194.626 200.419 195.492 212.193 195.926C218.622 196.142 225.123 196.792 231.552 196.72C235.524 196.648 239.425 197.587 243.326 197.515C244.915 197.515 245.348 198.381 245.348 199.753C245.348 201.342 245.42 203.075 245.42 204.736Z" fill="#FEFEFE"/>
<path d="M209.953 218.313C211.759 214.124 214.143 210.225 217.465 207.047C219.199 205.314 220.716 205.314 221.727 207.986C223.172 211.813 224.328 215.496 221.366 219.107C217.538 218.674 213.637 219.902 209.953 218.313Z" fill="#FCFCFC"/>
<path d="M236.68 217.591C238.558 213.33 241.447 210.008 245.348 207.48C247.009 210.875 245.853 214.413 245.998 217.88C245.998 218.169 245.709 218.53 245.492 218.746C244.264 219.757 237.908 218.891 236.68 217.591Z" fill="#FBFCFC"/>
<path d="M226.062 219.035C225.845 217.519 224.979 215.93 225.99 214.485C227.218 212.824 228.301 210.586 231.046 211.308C233.43 211.958 234.73 215.208 233.936 218.385C231.335 219.613 228.662 218.891 226.062 219.035Z" fill="#F9FAFA"/>
<path d="M155.994 156.784C155.994 171.517 144.365 183.143 129.701 183.143C114.821 183.143 103.119 171.444 103.119 156.64C103.119 141.98 114.893 130.281 129.485 130.281C144.365 130.281 156.067 141.98 155.994 156.784Z" fill="black"/>
<path d="M170.874 135.336C169.863 128.187 170.44 120.965 169.79 113.743C169.646 111.866 170.729 111.866 172.03 111.866C176.147 111.866 180.192 111.866 184.309 111.866C202.223 111.866 220.137 111.866 238.051 111.793C240.218 111.793 241.085 112.154 241.157 114.682C241.519 130.786 242.024 146.891 242.747 162.995C242.891 166.173 241.88 166.678 238.99 166.606C218.187 166.461 197.384 166.534 176.58 166.534C171.668 166.534 171.668 166.534 171.668 161.623C171.668 161.045 171.741 160.395 171.741 159.817C173.546 154.618 176.725 150.068 178.386 144.724C179.253 141.908 178.82 140.175 176.219 138.875C174.269 138.008 172.463 136.853 170.874 135.336Z" fill="#FCFCFC"/>
<path d="M170.874 135.336C174.124 136.058 176.508 138.369 179.253 139.886C180.409 140.536 180.336 141.474 179.975 142.63C178.025 148.768 175.714 154.69 171.741 159.89C170.946 151.729 170.802 143.496 170.874 135.336Z" fill="#CFE8FD"/>
<path d="M150.072 264.532C131.219 264.604 112.293 264.604 93.4402 264.748C91.4177 264.748 91.1288 263.882 91.0565 262.221C90.2619 240.339 89.5396 218.457 88.6006 196.648C88.5283 194.337 89.2507 193.904 91.4177 193.904C113.305 193.976 135.191 193.976 157.078 193.904C159.173 193.904 160.04 194.337 160.04 196.648C159.968 201.92 160.184 207.192 160.257 212.536C160.546 213.113 160.473 213.691 160.473 214.269C160.618 219.902 160.618 220.046 154.911 220.191C152.239 220.263 150.866 221.202 151.083 224.018C151.155 225.173 151.083 226.401 150.794 227.557C150.505 228.64 149.711 229.218 148.627 228.857C145.954 228.062 143.498 226.834 141.331 225.174C139.814 224.018 140.537 222.574 141.259 221.346C143.137 218.313 145.232 215.424 147.327 212.463C146.677 211.597 145.954 212.391 145.376 212.319C141.548 213.041 138.731 216.146 134.758 216.58C132.013 214.558 132.158 211.091 130.352 208.419C129.196 209.575 129.268 211.958 127.029 212.03C126.09 211.741 126.09 210.441 125.079 210.225C124.212 211.741 123.995 213.619 122.912 214.991C122.117 215.858 121.106 216.219 120.022 216.002C118.361 215.641 118.072 216.941 117.494 217.88C115.977 218.674 114.533 217.735 112.727 217.591C113.882 221.635 118.217 226.04 111.643 229.218C110.487 230.012 109.332 230.806 108.104 232.106C110.054 232.828 111.86 232.756 113.594 233.117C117.711 233.984 118.072 234.417 117.061 238.678C116.338 241.639 115.11 244.528 114.533 247.561C115.472 246.261 116.411 245.033 118.144 244.889C118.867 244.239 117.855 247.272 119.661 245.394C121.828 243.155 123.923 240.556 127.174 239.617C130.207 240.556 131.58 243.517 133.964 245.178C134.108 245.611 134.469 244.889 134.108 245.178C132.808 243.661 133.386 242.072 133.819 240.483C136.347 238.967 136.853 241.567 138.225 242.505C139.164 239.761 136.781 236.873 138.37 234.056C139.742 232.684 141.548 232.684 143.354 232.54C144.799 232.395 146.388 232.54 147.471 231.167C148.771 230.445 149.855 230.518 150.722 231.817C151.661 234.489 151.227 237.234 151.3 239.978C151.372 246.405 151.372 252.905 151.3 259.332C151.155 261.21 151.372 263.015 150.072 264.532Z" fill="#FDFFB6"/>
<path d="M150.07 264.532C150.07 253.482 150.07 242.433 150.07 231.384C150.504 230.445 150.07 229.579 149.998 228.712C149.998 226.329 150.143 223.946 150.07 221.563C149.998 219.757 150.72 218.891 152.598 219.035C152.815 219.035 153.104 219.035 153.321 219.035C159.822 218.891 159.822 218.891 160.327 212.391C161.339 221.563 160.905 230.806 161.411 239.978C161.844 247.272 161.844 254.566 162.206 261.86C162.35 264.098 161.628 264.82 159.461 264.676C156.282 264.532 153.176 264.604 150.07 264.532Z" fill="#D0E9FE"/>
<path d="M223.823 219.18C224.834 229.29 224.762 239.328 221.512 249.077C220.789 251.172 220.067 254.421 217.611 253.988C215.372 253.555 216.238 250.233 216.383 248.211C216.816 238.028 219.489 228.351 223.823 219.18Z" fill="#8CFED1"/>
<path d="M337.879 165.017C339.613 166.1 339.107 166.822 337.446 167.256C335.062 167.906 332.678 168.483 329.789 169.278C330.584 165.45 331.306 161.984 331.956 158.445C332.173 157.29 332.823 157.145 333.762 157.795C333.906 158.734 334.051 159.673 334.051 160.612C334.123 164.873 334.051 164.873 337.879 165.017Z" fill="#1C0B1C"/>
<path d="M341.925 170.722C341.491 173.539 340.769 175.922 338.096 176.572C335.063 177.294 332.896 175.705 330.801 173.105C334.701 172.239 338.169 171.517 341.925 170.722Z" fill="#120912"/>
<path d="M337.88 165.017C336.146 165.595 334.268 167.039 332.679 165.956C332.101 165.523 332.968 162.923 333.257 161.334C333.401 160.179 333.618 159.023 333.762 157.795C335.135 160.251 336.507 162.634 337.88 165.017Z" fill="#D334D5"/>
<path d="M324.082 165.523C324.082 166.967 323.287 167.689 321.843 167.761C320.326 167.833 319.17 167.4 319.098 165.667C319.026 164.223 319.893 163.501 321.265 163.428C322.782 163.428 323.938 163.862 324.082 165.523Z" fill="#DD39DF"/>
<path d="M322.277 155.629C323.794 155.918 324.733 156.712 324.661 158.229C324.589 159.601 323.65 160.467 322.277 160.395C320.76 160.395 319.821 159.384 319.966 157.868C320.038 156.568 320.977 155.846 322.277 155.629Z" fill="#180C18"/>
<path d="M349.293 164.15C348.86 165.45 347.993 166.389 346.476 166.317C344.959 166.245 344.309 165.378 344.453 163.934C344.598 162.201 345.898 161.912 347.343 162.056C348.498 162.128 349.293 162.778 349.293 164.15Z" fill="#DC39DF"/>
<path d="M340.046 153.39C341.419 153.607 342.213 154.401 342.285 155.773C342.285 157.218 341.491 158.084 340.118 158.084C338.529 158.084 337.662 157.145 337.735 155.557C337.735 154.185 338.674 153.462 340.046 153.39Z" fill="#0E070E"/>
<path d="M340.481 144.652C341.059 144.796 341.925 144.796 342.72 145.085C344.092 145.591 346.621 145.952 346.115 147.468C345.393 149.563 343.948 146.963 342.72 146.963C341.925 146.963 341.059 146.746 340.264 146.674C339.47 146.602 338.314 146.746 338.386 145.663C338.314 144.58 339.47 144.796 340.481 144.652Z" fill="#261427"/>
<path d="M340.914 182.349C343.659 181.338 346.621 180.977 348.715 178.738C348.788 178.666 349.438 178.883 349.582 179.027C349.871 179.605 349.582 180.183 349.149 180.616C346.765 182.782 344.165 183.793 340.914 182.349Z" fill="#1A0D1A"/>
<path d="M371.251 144.652C370.746 146.385 370.312 147.83 371.323 149.202C371.829 149.852 372.19 151.007 371.323 151.44C369.879 152.163 370.023 150.502 369.59 149.852C369.229 149.346 368.94 148.841 368.651 148.335C367.134 148.985 366.484 150.285 365.617 151.44C365.256 151.946 364.822 152.524 364.172 152.235C363.594 151.946 363.594 151.224 363.956 150.646C365.761 148.118 367.495 145.519 371.251 144.652Z" fill="#1A061B"/>
<path d="M214.142 156.784C210.314 157.434 206.558 158.734 202.44 157.795C193.194 155.629 187.199 147.252 188.282 137.719C189.294 128.548 197.601 121.904 207.641 122.265C216.454 122.554 223.966 130.281 224.327 139.452C224.472 142.991 223.388 146.313 221.799 149.418C220.499 150.285 220.138 152.524 217.898 152.162C217.104 152.018 217.32 152.524 217.393 153.029C218.043 155.701 215.948 156.134 214.142 156.784Z" fill="#FEDB4D"/>
<path d="M214.143 156.784C215.443 155.268 218.766 154.546 215.298 150.935C218.26 151.657 219.849 151.513 220.499 149.057C220.86 147.613 221.366 148.985 221.799 149.418C222.161 150.79 222.738 152.018 224.472 150.863C225.122 150.501 225.844 150.068 226.422 150.718C227.072 151.44 226.278 152.018 225.917 152.596C223.605 155.701 227.867 154.979 228.228 156.857C227.145 157.073 225.917 157.145 224.833 157.651C223.1 158.445 224.833 160.034 223.894 161.551C221.149 157.579 219.199 160.828 216.31 163.212C217.971 159.384 218.404 156.857 214.143 156.784Z" fill="#050504"/>
<path d="M192.473 118.221C192.184 118.654 192.039 119.087 191.751 119.521C188.428 124.504 185.177 129.559 181.854 134.542C181.421 135.192 181.132 136.347 180.049 135.553C179.254 134.975 179.904 134.253 180.338 133.675C183.733 128.548 187.055 123.493 190.45 118.365C190.739 117.86 191.1 117.282 191.823 117.499C192.039 117.571 192.184 117.932 192.473 118.221Z" fill="#181818"/>
<path d="M142.559 319.561C143.065 320.283 144.509 320.211 144.365 321.366C144.293 321.727 143.209 321.944 142.631 322.305C141.62 322.233 140.536 322.16 139.597 322.666C138.08 323.388 136.491 323.749 134.758 323.677C133.385 323.605 132.085 323.749 131.218 324.977C130.857 328.227 132.229 331.332 131.579 334.798C129.34 334.365 128.69 331.693 126.523 331.26C126.379 332.126 125.801 331.693 125.584 331.404C123.706 328.516 121.611 329.238 119.444 330.899C117.133 332.921 114.821 334.798 112.582 336.893C110.848 338.481 110.848 337.398 110.92 335.954C110.198 333.932 111.498 332.199 111.932 330.465C113.954 323.172 113.304 324.544 107.598 323.46C106.009 323.172 104.13 323.388 103.264 321.438C104.13 318.983 106.659 318.189 108.465 316.889C110.993 315.228 111.643 313.567 110.198 310.967C109.837 310.245 109.476 309.45 109.837 308.584C108.898 306.417 108.898 304.973 111.932 305.984C112.871 306.273 113.738 306.634 114.604 305.84C117.494 307.139 118.505 304.973 119.661 303.095C121.178 301.507 121.322 299.196 122.839 297.029C124.428 300.568 125.801 303.89 127.245 307.139C131.146 306.706 134.035 303.817 137.647 302.806C138.803 302.301 139.886 301.434 141.981 301.579C139.453 305.334 137.214 308.873 134.685 312.195C133.096 314.217 133.169 315.372 135.624 316.383C138.08 317.25 140.32 318.477 142.559 319.561Z" fill="#FEDB4D"/>
<path d="M111.064 229.94C113.231 232.395 116.337 231.529 118.938 231.962C121.61 232.395 122.405 233.117 121.394 235.789C120.238 238.75 119.949 242.072 118.432 244.961C116.771 246.333 115.181 247.705 113.014 249.438C114.315 244.816 115.326 240.845 116.554 236.873C117.132 234.995 116.626 234.345 114.676 234.128C111.859 233.84 109.042 233.262 105.863 232.756C107.308 230.734 109.403 229.868 111.064 228.495C111.498 229.001 111.498 229.507 111.064 229.94Z" fill="#040403"/>
<path d="M111.064 229.94C111.064 229.507 111.064 229.001 111.064 228.568C118.721 224.74 111.064 220.624 111.715 216.435C113.376 216.796 115.398 217.23 117.493 217.663C120.672 223.657 120.744 223.657 115.037 227.557C113.737 228.351 112.365 229.145 111.064 229.94Z" fill="#090807"/>
<path d="M126.957 239.978C130.641 235.862 130.713 235.862 134.036 240.339C134.036 242.144 134.036 244.022 134.036 246.477C131.363 244.094 129.124 242.072 126.957 239.978Z" fill="#0C0C0A"/>
<path d="M127.246 212.174C127.246 213.835 126.957 215.713 125.512 216.507C124.718 216.941 122.623 216.869 122.189 214.919C123.128 212.752 123.995 210.513 124.934 208.275C126.596 209.214 126.379 210.947 127.246 212.174Z" fill="#0E0D0A"/>
<path d="M138.659 234.056C138.226 232.756 138.948 232.251 140.031 232.251C142.343 232.179 144.654 231.384 147.038 231.817C147.977 232.829 147.038 232.973 146.388 233.045C143.788 233.406 141.259 233.767 138.659 234.056Z" fill="#474332"/>
<path d="M145.232 211.813C142.415 213.98 139.02 215.063 135.841 216.724C135.336 217.013 134.975 216.724 134.758 216.219C138.297 214.774 141.331 212.175 145.232 211.813Z" fill="#928553"/>
<path d="M334.484 173.9C336.362 173.539 337.663 173.322 339.252 173.033C337.59 175.344 337.59 175.344 334.484 173.9Z" fill="#A756A8"/>
<path d="M151.226 193.831H91.416V249.511H151.226V193.831Z" fill="#FDFFB6"/>
<path d="M145.882 220.191C145.665 224.163 143.932 227.629 141.909 230.879C137.864 237.45 132.663 243.083 127.029 248.427C126.018 249.438 125.151 249.944 123.634 249.005C116.7 244.455 109.91 239.617 104.492 233.334C102.975 231.601 101.675 229.723 100.953 227.557C99.1468 222.357 102.108 218.674 107.67 219.324C112.871 219.902 117.639 221.996 122.045 224.668C124.501 226.185 125.729 226.401 126.668 223.151C127.607 219.974 129.413 217.013 131.724 214.485C134.686 211.164 137.575 210.225 140.609 211.597C144.076 213.041 146.027 216.291 145.882 220.191Z" fill="#FE0E11"/>
</g>
<defs>
<clipPath id="clip0">
<rect width="410" height="360" fill="white" transform="translate(54 98)"/>
</clipPath>
</defs>
</svg>
