<svg width="478" height="457" viewBox="0 0 478 457" fill="none" xmlns="http://www.w3.org/2000/svg">
<path fill-rule="evenodd" clip-rule="evenodd" d="M44.2802 266.13C47.3544 228.864 85.3244 206.289 99.6783 171.762C114.993 134.924 97.4479 81.6646 130.348 59.1043C162.793 36.856 208.055 58.0418 244.72 72.3033C274.507 83.8892 289.638 115.151 316.982 131.699C355.617 155.079 414.733 148.682 436.407 188.304C458.093 227.947 442.226 280.314 419.71 319.489C398.189 356.934 356.645 375.284 317.935 394.431C281.245 412.58 243.523 428.388 202.617 426.872C159.108 425.259 112.588 416.706 82.0313 385.685C51.9695 355.167 40.7583 308.824 44.2802 266.13Z" fill="#86F2C8"/>
<g clip-path="url(#clip0)">
<g clip-path="url(#clip1)">
<path d="M54.3514 158.246C56.0292 158.188 57.6925 157.974 59.3265 157.631C59.9831 157.488 59.7059 156.515 59.0493 156.644C57.5028 156.973 55.9271 157.159 54.3514 157.216C53.6949 157.259 53.6803 158.274 54.3514 158.246Z" fill="#020A13"/>
<path d="M66.0236 157.43C67.4388 157.702 68.6206 158.389 69.5543 159.461C69.992 159.962 70.7215 159.233 70.2838 158.746C69.2479 157.545 67.8619 156.744 66.3008 156.443C65.6442 156.315 65.367 157.302 66.0236 157.43Z" fill="#020A13"/>
<path d="M76.5263 159.919C76.7889 158.632 77.781 157.659 79.0941 157.416C79.7506 157.287 79.4734 156.301 78.8169 156.429C77.1682 156.744 75.8552 158.046 75.5196 159.647C75.3883 160.291 76.395 160.563 76.5263 159.919Z" fill="#020A13"/>
<path d="M87.2652 157.845C89.2786 157.345 91.3066 157.202 93.3783 157.416C94.0494 157.488 94.0348 156.458 93.3783 156.401C91.2336 156.186 89.0889 156.343 86.988 156.873C86.346 157.016 86.6086 158.003 87.2652 157.845Z" fill="#020A13"/>
<path d="M99.1687 157.302C99.7377 159.061 97.8702 160.119 96.5571 160.82C95.9735 161.135 96.4987 162.022 97.0823 161.707C98.8331 160.777 100.905 159.276 100.175 157.044C99.9711 156.415 98.9644 156.672 99.1687 157.302Z" fill="#020A13"/>
<path d="M102.978 161.492C102.555 162.794 101.913 163.967 101.008 165.011C100.571 165.511 101.315 166.227 101.738 165.726C102.759 164.553 103.503 163.237 103.985 161.764C104.174 161.149 103.168 160.877 102.978 161.492Z" fill="#020A13"/>
<path d="M100.411 172.921C101.286 173.321 102.045 173.893 102.628 174.637C103.037 175.152 103.927 174.637 103.533 174.122C102.833 173.235 101.987 172.52 100.936 172.034C100.338 171.762 99.798 172.649 100.411 172.921Z" fill="#020A13"/>
<path d="M102.671 179.872C102.335 181.216 101.635 182.375 100.599 183.333C100.118 183.791 100.847 184.506 101.329 184.048C102.481 182.976 103.284 181.645 103.663 180.129C103.838 179.5 102.831 179.228 102.671 179.872Z" fill="#020A13"/>
<path d="M100.19 189.612C100.862 190.671 101.314 191.815 101.533 193.045C101.649 193.689 102.656 193.417 102.539 192.773C102.306 191.457 101.81 190.227 101.095 189.097C100.73 188.539 99.8257 189.054 100.19 189.612Z" fill="#020A13"/>
<path d="M103.518 200.983C102.147 200.111 100.761 199.252 99.3894 198.38C98.8204 198.022 98.2952 198.909 98.8642 199.267C100.236 200.139 101.622 200.997 102.993 201.87C103.562 202.213 104.087 201.326 103.518 200.983Z" fill="#020A13"/>
<path d="M101.359 204.63C100.498 205.703 99.4036 206.533 98.0905 207.005C97.4632 207.234 97.7404 208.22 98.3677 207.992C99.8413 207.462 101.125 206.576 102.103 205.36C102.497 204.845 101.767 204.115 101.359 204.63Z" fill="#020A13"/>
<path d="M101.651 212.526C101.928 213.098 102.103 213.713 102.147 214.342C102.205 214.986 103.241 215 103.183 214.342C103.125 213.527 102.906 212.754 102.541 212.011C102.264 211.41 101.359 211.939 101.651 212.526Z" fill="#020A13"/>
<path d="M96.9674 213.212C95.8003 211.539 94.5309 209.937 93.1887 208.392C92.751 207.891 92.0215 208.621 92.4592 209.107C93.7577 210.58 94.954 212.111 96.0775 213.713C96.4422 214.271 97.3468 213.756 96.9674 213.212Z" fill="#020A13"/>
<path d="M89.7899 211.839C88.5352 212.268 87.2513 212.654 85.9528 212.983C85.3109 213.141 85.5735 214.128 86.23 213.97C87.5285 213.641 88.7978 213.269 90.0671 212.826C90.6945 212.611 90.4173 211.625 89.7899 211.839Z" fill="#020A13"/>
<path d="M78.6134 211.439C78.7885 210.08 78.9635 208.721 79.1532 207.362C79.2407 206.719 78.1903 206.719 78.1173 207.362C77.9423 208.721 77.7672 210.08 77.5775 211.439C77.49 212.082 78.5258 212.082 78.6134 211.439Z" fill="#020A13"/>
<path d="M71.945 211.382C72.835 212.354 73.5791 213.427 74.1773 214.6C74.4837 215.186 75.3736 214.671 75.0818 214.085C74.4399 212.84 73.6374 211.696 72.6891 210.652C72.2222 210.166 71.4927 210.895 71.945 211.382Z" fill="#020A13"/>
<path d="M67.1596 213.999C66.1675 213.799 65.3942 213.112 65.1316 212.154C64.9565 211.525 63.9644 211.782 64.1249 212.426C64.4751 213.713 65.5401 214.728 66.8824 214.986C67.5389 215.115 67.8161 214.128 67.1596 213.999Z" fill="#020A13"/>
<path d="M56.2317 213.87C58.2451 213.555 59.9813 212.397 61.0464 210.68C61.3965 210.123 60.4919 209.608 60.1418 210.166C59.208 211.667 57.7053 212.611 55.9399 212.883C55.298 212.983 55.5752 213.97 56.2317 213.87Z" fill="#020A13"/>
<path d="M52.0161 206.776C52.5852 207.176 53.0374 207.706 53.373 208.306C53.694 208.878 54.5985 208.363 54.2776 207.791C53.8545 207.033 53.2563 206.404 52.5414 205.889C52.3079 205.732 51.9578 205.846 51.8265 206.075C51.6806 206.332 51.7973 206.618 52.0161 206.776Z" fill="#020A13"/>
<path d="M53.2857 164.482C53.6359 163.595 54.6717 163.109 55.5909 163.338C56.2474 163.495 56.5246 162.508 55.8681 162.351C54.3508 161.979 52.8334 162.794 52.279 164.21C52.0456 164.825 53.0523 165.083 53.2857 164.482Z" fill="#020A13"/>
<path d="M64.0974 163.194C63.9077 164.053 63.5576 164.839 63.0032 165.526C62.5946 166.041 63.3241 166.756 63.7326 166.241C64.4038 165.411 64.8706 164.496 65.0895 163.466C65.25 162.823 64.2433 162.551 64.0974 163.194Z" fill="#020A13"/>
<path d="M71.1873 167.271C72.763 167.099 74.2512 166.613 75.6081 165.812C76.1771 165.469 75.6518 164.582 75.0828 164.925C73.8865 165.64 72.588 166.098 71.1873 166.255C70.5308 166.327 70.5162 167.342 71.1873 167.271Z" fill="#020A13"/>
<path d="M82.6252 163.695C83.8945 163.552 85.1638 163.423 86.4332 163.28C87.0897 163.209 87.1043 162.193 86.4332 162.265C85.1638 162.408 83.8945 162.537 82.6252 162.68C81.9687 162.737 81.9687 163.767 82.6252 163.695Z" fill="#020A13"/>
<path d="M89.1329 163.91C89.7311 165.183 90.5627 166.312 91.5986 167.271C92.0801 167.728 92.8242 166.999 92.3281 166.556C91.3506 165.655 90.5773 164.596 90.0229 163.395C89.7457 162.808 88.8557 163.323 89.1329 163.91Z" fill="#020A13"/>
<path d="M96.1497 169.102C96.0475 170.332 95.5807 171.433 94.8366 172.42C94.4427 172.949 95.3327 173.45 95.7412 172.935C96.602 171.805 97.0688 170.503 97.2001 169.102C97.2439 168.444 96.208 168.458 96.1497 169.102Z" fill="#020A13"/>
<path d="M98.1623 176.754C98.1915 177.583 97.8997 178.327 97.3161 178.914C96.8492 179.386 97.5787 180.101 98.0456 179.629C98.8188 178.856 99.2419 177.827 99.1982 176.74C99.1836 176.096 98.1331 176.096 98.1623 176.754Z" fill="#020A13"/>
<path d="M93.189 184.935C94.2833 185.851 95.1587 186.966 95.7131 188.268C95.9757 188.868 96.9824 188.597 96.7198 187.996C96.0924 186.523 95.1732 185.25 93.9331 184.22C93.4225 183.791 92.6784 184.506 93.189 184.935Z" fill="#020A13"/>
<path d="M94.5893 193.073C94.6914 194.017 94.5893 194.933 94.2829 195.834C94.064 196.449 95.0707 196.721 95.2896 196.106C95.6397 195.133 95.7565 194.103 95.6397 193.073C95.5522 192.43 94.5163 192.43 94.5893 193.073Z" fill="#020A13"/>
<path d="M92.0642 203.501C93.6691 204.044 95.4637 203.572 96.5725 202.328C97.0102 201.827 96.2807 201.112 95.843 201.613C94.953 202.614 93.6253 202.971 92.356 202.528C91.7141 202.299 91.4369 203.286 92.0642 203.501Z" fill="#020A13"/>
<path d="M87.7022 204.673C87.5709 205.188 86.3745 205.474 85.9368 205.66C85.2511 205.946 84.58 206.247 83.8942 206.533C83.2815 206.79 83.8067 207.677 84.4195 207.419C85.3824 207.005 86.3599 206.59 87.3228 206.175C87.9356 205.903 88.5046 205.646 88.6943 204.959C88.8694 204.301 87.8773 204.03 87.7022 204.673Z" fill="#020A13"/>
<path d="M89.5981 198.838C89.7586 197.937 89.8024 197.05 89.7148 196.149C89.6565 195.505 88.606 195.491 88.679 196.149C88.7519 196.964 88.7373 197.765 88.5914 198.566C88.4747 199.21 89.4814 199.481 89.5981 198.838Z" fill="#020A13"/>
<path d="M88.4907 186.938C89.0159 188.268 88.622 189.798 87.411 190.628C86.8712 191 87.3819 191.886 87.9363 191.514C89.4974 190.427 90.1977 188.454 89.4974 186.666C89.264 186.065 88.2572 186.322 88.4907 186.938Z" fill="#020A13"/>
<path d="M90.5766 175.552C90.9851 176.768 90.8538 177.969 90.1827 179.071C89.8325 179.629 90.7371 180.143 91.0872 179.586C91.8897 178.27 92.0793 176.739 91.5833 175.28C91.3644 174.651 90.3577 174.923 90.5766 175.552Z" fill="#020A13"/>
<path d="M87.66 171.49C87.7038 170.446 87.4996 169.459 87.0619 168.515C86.7846 167.914 85.8947 168.429 86.1573 169.03C86.5074 169.817 86.6533 170.646 86.6096 171.49C86.5804 172.148 87.6309 172.134 87.66 171.49Z" fill="#020A13"/>
<path d="M80 167.7C79.4894 168.501 78.5119 168.916 77.5781 168.715C76.9216 168.587 76.6444 169.574 77.3009 169.702C78.7161 169.988 80.1313 169.416 80.9046 168.215C81.2693 167.671 80.3648 167.156 80 167.7Z" fill="#020A13"/>
<path d="M63.8925 170.46C64.6949 171.104 65.6287 171.447 66.6646 171.49C67.3357 171.505 67.3357 170.489 66.6646 170.475C65.9205 170.446 65.2056 170.217 64.622 169.745C64.1113 169.331 63.3673 170.046 63.8925 170.46Z" fill="#020A13"/>
<path d="M57.7069 168.687C56.4376 169.087 55.1537 169.216 53.826 169.073C53.1549 169.002 53.1695 170.031 53.826 170.089C55.2412 170.232 56.6273 170.089 57.9841 169.66C58.6261 169.474 58.3489 168.487 57.7069 168.687Z" fill="#020A13"/>
<path d="M50.9801 173.979C51.0969 174.694 50.8051 175.452 50.2215 175.896C49.6962 176.296 50.2215 177.183 50.7467 176.782C51.7388 176.039 52.1911 174.923 51.9868 173.707C51.8847 173.064 50.878 173.335 50.9801 173.979Z" fill="#020A13"/>
<path d="M55.2266 180.33C55.2266 181.631 55.2266 182.933 55.2266 184.234C55.2266 184.892 56.2624 184.892 56.2624 184.234C56.2624 182.933 56.2624 181.631 56.2624 180.33C56.2624 179.672 55.2266 179.672 55.2266 180.33Z" fill="#020A13"/>
<path d="M51.987 190.914C51.8265 191.457 51.6806 192.001 51.5202 192.544C51.4472 192.816 51.2867 193.86 50.8928 193.917C50.2363 194.003 50.2363 195.019 50.8928 194.933C51.5785 194.847 51.9579 194.461 52.2059 193.846C52.556 193.002 52.7457 192.072 52.9937 191.186C53.1688 190.556 52.1621 190.284 51.987 190.914Z" fill="#020A13"/>
<path d="M53.6797 198.523C53.6797 199.896 53.8402 201.241 54.1466 202.585C54.2925 203.229 55.2992 202.957 55.1533 202.313C54.8615 201.069 54.7156 199.81 54.7156 198.523C54.7156 197.865 53.6797 197.865 53.6797 198.523Z" fill="#020A13"/>
<path d="M59.9963 204.816C61.3386 205.331 62.4328 206.39 62.9726 207.706C63.2206 208.306 64.2273 208.049 63.9793 207.434C63.2936 205.76 61.9951 204.502 60.2735 203.829C59.6461 203.586 59.3835 204.573 59.9963 204.816Z" fill="#020A13"/>
<path d="M67.6698 204.974C68.9975 204.444 70.3105 203.915 71.6382 203.386C72.251 203.143 71.9884 202.156 71.361 202.399C70.0333 202.928 68.7202 203.458 67.3926 203.987C66.7798 204.23 67.057 205.217 67.6698 204.974Z" fill="#020A13"/>
<path d="M79.4162 198.766C78.6575 199.167 77.9134 199.553 77.1548 199.953C76.5712 200.268 77.0964 201.14 77.68 200.84C78.4387 200.44 79.1827 200.053 79.9414 199.653C80.5396 199.338 80.0144 198.451 79.4162 198.766Z" fill="#020A13"/>
<path d="M83.8668 200.554C83.8085 199.41 83.6042 198.294 83.2687 197.193C83.079 196.563 82.0723 196.835 82.262 197.465C82.5683 198.48 82.758 199.496 82.8164 200.554C82.8601 201.212 83.896 201.212 83.8668 200.554Z" fill="#020A13"/>
<path d="M80.9328 192.873C82.917 193.345 83.0046 189.813 82.99 188.654C82.9754 187.996 81.9395 187.996 81.9541 188.654C81.9687 189.012 81.852 192.044 81.2246 191.886C80.5535 191.743 80.2763 192.73 80.9328 192.873Z" fill="#020A13"/>
<path d="M83.2969 182.546C83.8805 182.418 84.4641 182.489 84.9893 182.761C85.5875 183.061 86.1127 182.189 85.5145 181.874C84.7267 181.474 83.8805 181.359 83.0197 181.56C82.3631 181.717 82.6403 182.69 83.2969 182.546Z" fill="#020A13"/>
<path d="M85.457 177.369C84.1585 176.382 83.181 175.066 82.6411 173.55C82.4223 172.935 81.4156 173.207 81.6344 173.822C82.291 175.61 83.3998 177.097 84.9317 178.256C85.4716 178.656 85.9822 177.769 85.457 177.369Z" fill="#020A13"/>
<path d="M76.5127 175.953C75.1413 175.467 73.9449 174.694 72.9382 173.679C72.4714 173.207 71.7273 173.936 72.2087 174.394C73.3467 175.538 74.7036 176.382 76.2501 176.94C76.8629 177.154 77.1401 176.182 76.5127 175.953Z" fill="#020A13"/>
<path d="M59.0482 175.281C60.1133 175.552 60.9303 176.339 61.2075 177.383C61.3826 178.012 62.3747 177.755 62.2142 177.111C61.8495 175.724 60.7407 174.651 59.3255 174.294C58.6835 174.136 58.4063 175.123 59.0482 175.281Z" fill="#020A13"/>
<path d="M58.8587 188.654C59.6903 188.668 60.0842 188.01 60.3906 187.338C60.8283 186.337 61.1347 185.293 61.3098 184.206C61.4119 183.562 60.4198 183.29 60.3031 183.934C60.201 184.563 60.0551 185.164 59.8654 185.779C59.7487 186.165 59.3839 187.638 58.8441 187.638C58.1876 187.624 58.1876 188.654 58.8587 188.654Z" fill="#020A13"/>
<path d="M57.7639 193.646C58.6247 194.575 59.0478 195.734 59.0332 196.993C59.0186 197.651 60.0545 197.651 60.0691 196.993C60.0982 195.462 59.5438 194.046 58.4934 192.916C58.0557 192.43 57.3262 193.159 57.7639 193.646Z" fill="#020A13"/>
<path d="M63.2069 200.01C64.2719 200.125 65.2203 200.54 66.0519 201.169C66.5771 201.57 67.1024 200.683 66.5771 200.282C65.585 199.538 64.447 199.109 63.2069 198.981C62.5357 198.923 62.5503 199.953 63.2069 200.01Z" fill="#020A13"/>
<path d="M71.5651 195.777C71.8131 194.561 72.5426 193.56 73.666 192.959C74.2496 192.644 73.7244 191.758 73.1408 192.072C71.8131 192.787 70.8648 194.046 70.573 195.505C70.4271 196.149 71.4338 196.42 71.5651 195.777Z" fill="#020A13"/>
<path d="M78.3212 185.421C78.2045 183.905 77.7959 182.475 77.1102 181.116C76.8184 180.53 75.9139 181.045 76.2057 181.631C76.8038 182.833 77.1686 184.091 77.2707 185.421C77.3437 186.079 78.3795 186.079 78.3212 185.421Z" fill="#020A13"/>
<path d="M70.9247 179.028C69.9764 178.513 69.0864 177.927 68.2548 177.24C67.7442 176.825 67.0001 177.54 67.5253 177.955C68.4299 178.685 69.3782 179.343 70.3995 179.9C70.9831 180.229 71.5083 179.343 70.9247 179.028Z" fill="#020A13"/>
<path d="M65.1023 181.145C65.3941 182.346 66.1674 183.376 67.2616 184.006C67.8452 184.335 68.3704 183.462 67.7868 183.119C66.926 182.618 66.3424 181.831 66.109 180.873C65.9631 180.244 64.9564 180.501 65.1023 181.145Z" fill="#020A13"/>
<path d="M72.9081 184.034C73.2874 185.278 73.0832 186.508 72.3391 187.581C71.9598 188.125 72.8643 188.64 73.2437 188.096C74.1482 186.823 74.3817 185.25 73.9294 183.762C73.7251 183.147 72.7184 183.405 72.9081 184.034Z" fill="#020A13"/>
<path d="M63.3226 191.043C64.5774 190.499 65.5841 189.569 66.2406 188.396C66.5616 187.824 65.6716 187.309 65.336 187.882C64.7524 188.911 63.8771 189.684 62.7828 190.156C62.1846 190.427 62.7099 191.314 63.3226 191.043Z" fill="#020A13"/>
<path d="M67.8325 192.058C67.7887 192.859 67.4385 193.546 66.8258 194.075C66.3297 194.518 67.0592 195.233 67.5553 194.79C68.3577 194.075 68.81 193.102 68.8537 192.044C68.8975 191.4 67.8616 191.414 67.8325 192.058Z" fill="#020A13"/>
</g>
<path d="M70.4998 247V114.5H249.5V338H143.5V275.5C138 275.667 121.3 275.9 98.4998 275.5C75.6998 275.1 70.3332 256.333 70.4998 247Z" fill="#020A13"/>
<path d="M277.061 90.2942C281.442 87.4419 285.824 84.6224 290.565 82.393C300.963 77.4752 311.851 74.5901 323.361 74.0983C341.476 73.3443 357.825 78.2948 372.409 89.1139C373.389 89.868 373.324 90.2286 372.637 91.0811C367.504 97.3758 362.436 103.703 357.4 110.064C356.746 110.883 356.354 110.752 355.602 110.228C350.599 106.654 345.138 103.998 339.22 102.326C338.664 102.162 338.043 102.097 337.454 101.966C336.8 102.294 336.179 102.031 335.558 101.933C322.348 99.3101 310.053 101.835 298.511 108.556C297.628 109.08 296.81 109.769 295.731 109.9C293.9 109.703 292.102 109.31 290.238 109.342C284.091 109.408 280.003 112.588 278.467 118.621C277.682 121.702 277.584 124.883 277.224 127.997C277.093 129.013 276.799 130.03 276.832 131.079C276.341 132.784 275.655 134.423 274.674 135.931C272.189 137.538 269.377 138.193 266.564 138.783C261.692 139.8 259.207 142.685 258.521 147.635C257.998 151.406 258.652 155.045 259.534 158.651C260.613 163.077 262.281 167.274 264.112 171.437C264.733 172.88 264.93 172.913 266.27 172.028C268.363 170.618 270.586 169.47 272.875 168.421C278.238 166.29 283.829 165.274 289.617 165.11C301.323 164.782 312.571 167.011 323.59 170.782C329.966 173.044 336.114 175.765 342.13 178.913C344.746 180.289 347.296 181.699 349.814 183.24C357.858 188.158 365.477 193.666 372.409 200.092C372.801 200.452 373.324 200.715 373.357 201.37C370.741 205.206 367.765 208.714 364.921 212.386C358.708 220.386 352.495 228.385 346.217 236.352C345.825 236.844 345.531 237.467 344.877 237.729C342.424 237.598 340.103 236.811 337.748 236.254C331.045 234.713 324.309 233.27 317.672 231.565C316.952 231.205 316.822 230.484 316.56 229.828C314.075 223.402 311.165 217.173 307.568 211.271C307.306 210.812 307.078 210.321 306.489 209.731C305.802 211.993 305.345 214.157 305.508 216.386C305.868 221.927 308.353 226.517 311.786 230.68C313.65 232.975 315.579 235.205 317.999 236.942C320.811 238.975 321.334 242.057 321.955 245.106C323.623 253.433 324.538 261.826 324.408 270.318C324.375 272.514 323.983 274.645 324.015 276.842C324.048 278.022 323.361 278.776 322.151 278.94C321.661 279.006 321.203 279.104 320.713 279.17C313.977 280.087 310.086 284.35 309.334 291.103C308.778 296.152 309.497 301.103 309.857 306.119C310.053 309.135 310.217 312.119 309.792 315.102C309.138 319.725 306.358 322.643 302.173 324.315C300.701 324.905 299.165 325.265 297.66 325.692C293.54 326.839 289.584 328.38 286.347 331.331C282.619 334.74 281.017 339.232 279.938 343.953C278.761 349.166 278.238 354.51 277.159 359.755C276.864 360.444 276.276 360.837 275.72 361.264C265.812 368.64 255.022 374.345 243.087 377.689C241.747 378.05 240.406 378.377 239.588 378.41C240.275 378.279 241.55 378.213 242.858 378.213C252.046 378.213 261.235 378.213 270.423 378.246C271.175 378.246 272.189 377.853 272.614 378.968C271.862 379.722 270.881 379.525 269.998 379.525C261.071 379.558 252.145 379.689 243.251 379.492C237.725 379.361 232.297 380.148 226.869 380.967C225.299 381.197 223.73 381.295 222.16 381.459C221.212 381.558 220.198 381.689 219.316 381.066C219.316 372.017 219.316 362.968 219.316 353.92C219.316 351.723 219.316 351.723 221.604 351.428C221.833 351.395 222.03 351.33 222.226 351.297C222.912 350.543 223.861 350.51 224.743 350.346C231.316 349.002 237.757 347.1 243.872 344.314C245.474 343.822 246.946 343.101 248.384 342.314C256.886 338.019 264.57 332.577 271.077 325.626C283.306 312.545 290.598 297.103 292.821 279.268C293.41 274.58 293.606 269.891 293.377 265.203C292.854 255.072 290.696 245.302 286.641 235.991C284.81 231.762 282.685 227.73 280.102 223.927C279.905 223.664 279.742 223.402 279.578 223.107C279.48 222.976 279.415 222.845 279.349 222.681C277.061 219.074 274.412 215.763 271.436 212.714C270.684 211.96 269.769 211.468 268.821 211.042C266.434 209.927 264.243 208.518 262.379 206.649C259.502 204.059 257.899 200.616 256.101 197.338C251.556 189.076 247.959 180.421 245.899 171.208C244.918 166.848 244.101 162.454 244.035 157.93C244.003 156.717 243.61 155.569 243.708 154.356C243.708 154.16 243.708 153.996 243.708 153.799C243.708 153.602 243.708 153.438 243.708 153.242C243.708 153.045 243.676 152.848 243.676 152.684C243.839 145.177 244.853 137.8 247.142 130.62C247.796 128.522 247.73 128.423 245.507 128.423C236.319 128.423 227.098 128.423 217.91 128.423C217.19 128.423 216.471 128.489 215.784 128.292C215.424 128.194 214.869 128.128 215.13 127.473C215.85 126.948 216.7 127.145 217.517 127.145C226.934 127.145 236.351 127.145 245.768 127.145C246.488 127.145 247.174 127.178 247.894 127.079C248.057 127.014 248.221 126.948 248.352 126.817C248.744 126.423 248.94 125.932 249.136 125.407C251 120.784 253.256 116.358 255.97 112.162C260.581 104.916 266.434 98.7528 272.973 93.2449C274.118 92.0974 275.36 90.8516 277.061 90.2942Z" fill="#58B7FE"/>
<path d="M344.942 237.401C347.656 233.467 350.73 229.795 353.673 226.025C359.755 218.156 365.902 210.321 372.017 202.485C372.343 202.059 372.736 201.665 373.096 201.272C374.011 201.141 374.469 201.862 374.992 202.354C376.856 204.157 378.654 206.059 380.551 207.895C381.041 207.403 380.845 206.878 380.845 206.452C380.845 195.371 380.845 184.289 380.878 173.208C380.878 170.815 380.224 168.585 379.831 166.257C379.929 165.831 380.158 165.569 380.649 165.7C381.695 168.454 382.055 171.274 382.055 174.191C382.022 185.732 382.055 197.239 382.022 208.78C382.022 209.763 382.284 210.517 382.938 211.271C390.164 219.599 396.311 228.582 400.072 239.073C404.845 252.351 403.57 264.974 396.279 277.006C390.327 286.841 377.314 291.89 365.64 289.136C352.038 285.923 338.435 282.809 324.833 279.563C323.394 279.235 323.165 279.596 323.035 280.874C320.975 298.152 315.22 314.086 305.901 328.741C305.77 328.937 305.672 329.2 305.443 329.593C309.105 329.593 312.571 329.56 316.037 329.626C316.953 329.626 317.084 329.003 317.378 328.446C324.997 314.282 332.615 300.152 340.168 285.956C340.986 284.415 341.705 284.12 343.373 284.546C350.795 286.415 358.283 288.087 365.738 289.857C375.09 292.054 383.395 289.759 390.818 283.858C391.799 283.071 392.714 282.219 393.695 281.366C393.859 282.087 393.336 282.514 393.074 282.973C389.674 289.366 386.24 295.726 382.774 302.119C382.251 303.07 381.989 303.988 382.022 305.07C382.055 310.315 382.12 315.561 381.989 320.807C381.957 322.479 382.415 322.544 383.788 322.085C386.273 321.266 388.823 320.708 391.308 319.921C392.289 319.626 393.074 319.758 393.924 320.282C396.769 322.118 398.142 324.872 399.058 327.987C400.464 332.937 400.006 337.953 399.548 342.969C399.287 345.92 399.45 348.871 400.104 351.756C401.118 356.215 403.178 359.985 407.625 362.313C402.589 363.722 397.783 365.099 392.976 366.444C375.417 371.394 357.825 376.345 340.267 381.361C338.73 381.787 338.305 381.394 337.814 379.984C335.754 373.886 332.582 368.476 327.58 364.28C320.942 358.706 313.16 356.641 304.626 357.329C302.664 357.493 302.664 357.559 303.252 355.657C303.808 353.756 304.691 352.018 305.606 350.281C308.876 344.182 312.146 338.084 315.449 332.019C315.71 331.495 316.005 330.97 316.364 330.249C312.604 330.249 309.04 330.249 305.476 330.249C304.822 330.249 304.658 330.675 304.397 331.068C301.388 335.626 298.021 339.92 294.391 344.019C293.802 344.674 293.574 345.363 293.574 346.215C293.574 356.805 293.574 367.427 293.606 378.017C293.606 382.148 291.383 384.443 287.132 384.443C266.761 384.443 246.357 384.41 225.986 384.377C222.978 384.377 220.003 384.377 216.994 384.344C215.131 384.312 213.692 383.492 212.711 381.787C214.902 381.131 217.092 381.689 219.218 381.164C224.384 380.967 229.485 380.246 234.553 379.295C235.6 379.099 236.613 379.099 237.627 379.099C248.614 379.066 259.6 379.066 270.587 379.033C271.175 379.033 271.764 378.935 272.352 378.902C272.254 373.263 274.347 368.444 278.009 364.313C281.508 360.411 285.955 358.313 291.154 357.723C292.037 357.624 292.625 357.395 292.658 356.411C292.691 353.264 292.691 350.117 292.658 346.51C290.827 348.608 288.898 350.051 287.197 351.69C284.451 354.346 281.541 356.805 278.5 359.133C277.977 359.526 277.486 360.018 276.767 359.854C277.78 352.641 278.467 345.33 281.017 338.412C283.339 332.085 288.146 328.413 294.293 326.315C296.124 325.692 298.053 325.2 299.917 324.643C306.489 322.741 309.334 319.069 309.53 312.184C309.661 307.463 308.876 302.84 308.615 298.152C308.451 295.201 308.549 292.251 309.105 289.366C310.25 283.3 314.402 279.432 320.517 278.743C323.394 278.415 323.329 278.415 323.525 275.53C324.343 264.056 323.264 252.745 320.582 241.598C320.321 240.45 319.83 239.532 318.947 238.713C315.252 235.237 311.492 231.828 308.778 227.467C305.378 222.058 303.939 216.288 305.835 209.993C305.966 209.567 306.13 209.173 306.326 208.55C308.778 212.189 310.773 215.927 312.669 219.73C314.533 223.468 316.005 227.402 317.607 231.27C320.288 232.451 323.231 232.811 326.043 233.467C334.871 235.5 343.7 237.631 352.561 239.565C355.406 240.188 358.185 241.008 360.376 241.401C359.33 241.237 357.662 240.713 355.929 240.385C354.359 240.057 354.294 239.696 355.308 238.385C360.474 231.631 365.771 225.041 370.937 218.287C372.376 216.386 373.88 214.517 374.861 213.304C372.801 215.927 370.218 219.173 367.7 222.484C363.613 227.795 359.428 232.975 355.406 238.319C354.523 239.467 353.64 239.958 352.103 239.499C350.076 238.909 348.016 238.418 345.956 238.09C345.433 237.959 345.106 237.795 344.942 237.401Z" fill="#020A13"/>
<path d="M277.062 90.2942C272.157 94.0973 267.482 98.1627 263.362 102.818C260.713 105.802 258.457 109.047 256.07 112.227C255.579 112.654 254.991 112.719 254.37 112.719C253.781 112.752 253.16 112.719 252.571 112.719C195.447 112.719 138.291 112.719 81.1672 112.719C80.2517 112.719 79.3034 112.785 78.3879 112.588C78.0609 112.523 77.7666 112.359 77.5377 112.129C77.5377 107.441 77.4396 102.72 77.5377 98.0315C77.6031 93.8678 81.1018 90.4581 85.3199 90.2287C85.8104 90.1959 86.3009 90.2287 86.7913 90.2287C149.67 90.2287 212.516 90.2287 275.395 90.2287C275.983 90.2287 276.539 90.2614 277.062 90.2942Z" fill="#020A13"/>
<path d="M161.604 381.328C144.666 381.394 128.546 377.689 113.407 370.116C89.3082 358.051 71.8147 339.56 60.9589 314.84C56.5773 304.906 53.8634 294.48 52.6863 283.661C50.6263 264.81 53.1113 246.581 60.3376 229.008C64.2941 219.435 69.5258 210.583 76.0001 202.485C76.5559 201.797 77.0464 201.108 77.5696 200.42C77.7658 200.125 77.8639 199.731 78.0928 199.436C80.9702 195.994 83.9457 192.584 87.4444 189.732C87.706 189.469 88.0003 189.174 88.2619 188.912C94.7688 183.043 101.864 178.027 109.581 173.896C111.347 172.946 113.211 172.126 114.976 171.142C125.374 166.192 136.328 163.012 147.74 161.569C148.427 161.471 149.146 161.34 149.833 161.274C153.953 161.012 158.073 160.52 162.192 160.586C177.986 160.881 193.19 163.962 207.61 170.618C213.463 173.306 219.022 176.486 224.319 180.158C225.006 180.65 226.085 180.912 225.954 182.125C225.529 182.453 225.038 182.453 224.548 182.388C220.101 181.798 215.752 182.191 211.632 184.125C211.338 184.256 211.011 184.322 210.684 184.322C209.376 184.093 208.264 183.371 207.12 182.748C197.572 177.732 187.403 174.519 176.776 172.88C171.021 171.995 165.201 171.536 159.38 171.7C157.32 171.765 155.26 171.896 153.2 172.192C139.762 173.11 127.205 177.109 115.271 183.24C108.469 186.814 102.257 191.273 96.4037 196.256C93.6898 198.584 91.2047 201.174 88.687 203.731C88.3927 204.092 88.1638 204.485 87.8695 204.813C84.3381 208.583 81.2972 212.747 78.4851 217.107C78.1908 217.468 77.9947 217.894 77.5042 218.025C73.842 223.435 71.0626 229.271 68.7411 235.336C63.3132 249.466 61.2205 264.088 62.463 279.17C64.6538 305.365 75.4769 327.364 94.7034 345.133C109.058 358.411 126.061 366.542 145.32 369.853C151.337 370.87 157.419 371.296 163.533 371.197C163.893 371.591 163.795 372.017 163.664 372.443C162.814 375.033 162.356 377.722 162.029 380.443C161.964 380.804 161.833 381.066 161.604 381.328Z" fill="#FEBD00"/>
<path d="M114.879 183.076C124.067 178.06 133.844 174.716 144.144 172.847C147.12 172.323 150.128 171.765 153.202 171.765C153.757 172.29 153.856 172.978 153.954 173.7C154.019 174.421 154.019 175.109 154.019 175.831C154.019 204.813 154.019 233.828 154.019 262.81C154.019 263.892 154.281 265.006 153.496 265.957C153.202 266.154 152.875 266.154 152.548 265.99C147.872 265.957 143.196 265.957 138.52 265.924C124.558 265.892 110.596 265.892 96.601 265.859C96.3721 265.629 96.4048 265.4 96.5683 265.137C97.5492 264.613 98.661 264.613 99.7073 264.416C108.209 262.974 114.389 255.663 114.422 247.007C114.422 244.843 114.291 242.647 114.52 240.483C114.618 240.024 114.454 239.565 114.389 239.106C114.291 238.45 114.291 237.795 114.291 237.139C114.291 220.058 114.291 202.944 114.291 185.863C114.323 184.945 114.193 183.929 114.879 183.076Z" fill="#020A13"/>
<path d="M380.65 165.7C380.453 165.831 380.225 165.93 380.028 166.061C379.309 167.274 378.001 167.667 376.889 168.29C368.519 173.11 360.148 177.962 351.81 182.814C351.156 183.207 350.502 183.601 349.717 183.601C341.445 178.683 332.747 174.552 323.689 171.208C323.951 170.159 324.965 169.929 325.717 169.503C333.499 164.946 341.314 160.454 349.096 155.93C350.208 155.274 351.385 154.684 352.464 153.93C352.954 153.602 353.576 153.766 354.066 153.471C358.382 150.98 362.698 148.455 367.047 145.963C368.715 144.259 370.938 143.439 372.933 142.259C377.543 139.505 382.219 136.816 386.895 134.161C387.484 133.8 388.072 133.341 388.824 133.44C398.666 127.735 408.541 122.096 418.351 116.326C419.495 115.637 419.953 115.834 420.574 116.949C423.942 122.915 427.375 128.882 430.841 134.816C431.528 135.964 431.299 136.39 430.22 137.013C414.231 146.226 398.274 155.471 382.317 164.717C381.729 164.979 381.173 165.339 380.65 165.7Z" fill="#FEBD00"/>
<path d="M393.695 319.299C410.175 314.578 426.393 309.889 442.644 305.267C445.816 304.349 448.661 306.185 449.675 309.693C451.31 315.332 452.912 321.003 454.514 326.642C459.092 342.773 463.571 358.936 468.345 375.001C470.274 381.459 467.887 383.721 461.904 384.639C446.209 387.098 431.037 377.558 426.819 360.903C426.492 359.657 426.557 357.854 425.543 357.395C424.693 357.001 423.222 357.919 422.012 358.28C417.925 359.428 413.837 360.542 409.783 361.723C408.998 361.952 408.344 361.886 407.625 361.526C403.374 359.395 401.576 355.625 400.627 351.231C399.777 347.33 400.071 343.428 400.464 339.494C400.824 335.953 400.758 332.413 399.973 328.905C399.123 325.003 397.521 321.561 393.695 319.299Z" fill="#020A13"/>
<path d="M126.271 330.265C126.274 330.577 125.958 330.805 125.682 330.659C122.953 329.213 120.34 327.836 117.758 326.429C117.187 326.121 116.759 326.14 116.206 326.447C113.707 327.82 111.173 329.139 108.657 330.476C108.254 330.709 107.749 330.392 107.802 329.929C107.884 329.206 108.064 328.531 108.175 327.856C108.514 325.598 108.924 323.357 109.335 321.117C109.424 320.593 109.246 320.285 108.907 319.942C106.783 317.882 104.677 315.786 102.589 313.708C102.23 313.345 102.447 312.901 102.951 312.826C105.054 312.512 107.134 312.2 109.228 311.902C110.102 311.775 110.995 311.631 111.869 311.54C112.351 311.486 112.476 311.143 112.654 310.799C113.947 308.15 115.239 305.486 116.544 302.834C116.767 302.381 117.244 302.3 117.455 302.759C118.758 305.415 120.079 308.089 121.363 310.763C121.613 311.269 121.881 311.504 122.488 311.594C125.357 311.986 128.212 312.422 131.079 312.849C131.596 312.926 131.848 313.353 131.465 313.708C129.359 315.786 127.271 317.882 125.147 319.942C124.772 320.303 124.629 320.647 124.719 321.189C125.252 324.195 125.75 327.202 126.266 330.208C126.269 330.23 126.271 330.243 126.271 330.265Z" fill="#FDBD00"/>
<path d="M161.605 381.328C161.605 377.82 162.521 374.509 163.535 371.23C165.006 368.706 166.183 365.985 168.112 363.722C173.671 357.133 180.603 353.133 189.334 352.838C194.729 352.641 200.091 353.395 205.486 353.133C206.435 353.067 206.696 353.461 206.696 354.379C206.664 363.067 206.664 371.755 206.696 380.41C206.696 381.82 205.912 381.689 205.029 381.689C194.565 381.558 184.135 381.459 173.671 381.361C169.682 381.295 165.627 381.328 161.605 381.328Z" fill="#FEB2B2"/>
<path d="M388.791 133.374C381.565 137.636 374.372 141.931 366.982 145.931C365.968 142.488 365.085 139.013 365.281 135.341C365.51 131.374 366.491 127.702 369.271 124.719C369.892 124.063 369.761 123.67 369.238 123.112C368.322 122.161 367.538 121.112 366.622 120.194C366.066 119.637 365.968 119.276 366.524 118.588C371.756 112.195 376.955 105.736 382.121 99.2774C382.546 98.7528 382.742 98.3266 383.429 99.0151C388.595 104.228 392.911 109.933 394.154 117.473C395.07 123.014 393.631 127.833 389.838 131.931C389.445 132.39 388.922 132.751 388.791 133.374Z" fill="#FEB2B2"/>
<path d="M354.034 153.471C353.609 153.701 353.184 153.93 352.758 154.127C351.647 154.651 350.437 154.684 349.26 154.684C324.376 154.684 299.493 154.684 274.61 154.684C271.242 154.684 271.111 154.848 271.471 158.225C271.765 161.208 272.125 164.192 272.877 167.11C273.04 167.7 273.171 168.29 272.779 168.847C270.228 170.06 267.678 171.339 265.454 173.109C264.898 173.536 264.571 173.601 264.244 172.88C261.138 165.897 258.293 158.815 257.836 151.045C257.737 149.242 257.901 147.439 258.424 145.701C259.372 142.423 261.171 139.865 264.571 138.849C267.907 137.865 271.438 137.538 274.446 135.669C274.871 136.325 274.512 136.947 274.315 137.538C272.877 141.669 271.961 145.931 271.471 150.291C271.242 152.389 271.373 152.619 273.433 152.619C290.207 152.619 306.981 152.619 323.755 152.619C325.684 152.619 325.848 152.455 325.848 150.586C325.881 143.767 325.881 136.947 325.848 130.095C325.848 128.292 325.684 128.095 323.886 128.095C309.499 128.063 295.112 128.095 280.757 128.063C279.351 128.063 278.37 128.522 277.749 129.833C277.455 130.456 277.16 131.177 276.343 131.308C276.801 127.309 276.931 123.276 277.749 119.309C279.351 111.506 285.302 107.572 293.182 108.982C294.032 109.146 294.85 109.408 295.7 109.605C295.112 111.146 293.411 111.572 292.43 112.686C287.951 116.063 284.223 120.161 280.953 124.719C280.659 125.145 280.005 125.538 280.365 126.096C280.692 126.587 281.378 126.358 281.901 126.358C292.692 126.358 303.482 126.358 314.24 126.358C317.771 126.358 321.335 126.325 324.867 126.358C327.156 126.391 327.515 126.719 327.515 129.046C327.548 136.095 327.515 143.144 327.515 150.193C327.515 152.52 327.581 152.586 329.902 152.586C331.537 152.586 333.172 152.586 334.807 152.586C335.821 152.586 336.311 152.127 336.311 151.111C336.311 150.553 336.311 150.029 336.311 149.471C336.311 137.964 336.311 126.423 336.311 114.916C336.311 114.063 336.213 113.178 336.573 112.326C336.769 111.998 337.031 111.965 337.358 112.064C337.358 125.21 337.39 138.357 337.358 151.537C337.358 152.979 337.685 153.373 339.156 153.34C344.126 153.307 349.096 153.406 354.034 153.471Z" fill="#19014B"/>
<path d="M324.898 384.705C311.231 384.607 300.767 372.837 302.435 359.46C302.566 358.444 302.86 358.116 303.873 358.018C317.966 356.379 329.999 363.427 335.852 376.869C336.473 378.279 336.931 379.722 337.52 381.131C337.716 381.623 337.781 381.918 337.127 382.18C334.315 383.328 327.743 384.738 324.898 384.705Z" fill="#020A13"/>
<path d="M292.691 112.096C293.705 111.277 294.719 110.49 295.732 109.67C300.964 106.392 306.457 103.703 312.474 102.195C320.779 100.097 329.117 99.6708 337.455 101.999C337.455 105.375 337.423 108.752 337.423 112.162C337.194 112.195 336.997 112.227 336.769 112.26C336.147 112.85 335.363 112.752 334.61 112.752C321.4 112.752 308.19 112.752 294.948 112.752C294.13 112.719 293.28 112.85 292.691 112.096Z" fill="#020A13"/>
<path d="M243.84 344.641C242.826 345.527 241.551 345.822 240.341 346.281C234.423 348.609 228.341 350.215 222.096 351.33C222.161 350.477 222.946 350.248 223.436 349.854C230.565 344.15 236.941 337.724 242.238 330.282C242.172 329.921 242.271 329.626 242.467 329.331C244.298 326.839 245.9 324.184 247.568 321.594C247.829 321.167 248.091 319.889 248.941 321.2C249.301 325.429 249.039 329.659 249.104 333.888C249.137 335.56 249.268 337.265 248.745 338.904C247.502 341.133 245.9 343.101 243.84 344.641Z" fill="#FEBD00"/>
<path d="M242.696 329.593C242.533 329.823 242.402 330.052 242.238 330.282C239.296 330.282 236.353 330.249 233.41 330.249C207.055 330.249 180.7 330.249 154.346 330.282C152.874 330.282 152.449 329.921 152.449 328.413C152.515 307.627 152.482 286.808 152.482 266.023C152.678 265.99 152.907 265.957 153.103 265.957C153.855 266.842 153.594 267.924 153.594 268.941C153.594 287.956 153.594 306.971 153.594 325.987C153.594 329.036 153.594 329.036 156.635 329.036C184.265 329.036 211.895 329.036 239.524 329.036C240.636 329.003 241.781 328.708 242.696 329.593Z" fill="#270F56"/>
<path d="M72.666 377.197C76.8514 373.886 80.8406 370.706 84.9932 367.427C85.3529 369.657 84.797 371.591 84.7316 373.492C84.6336 376.214 84.2739 378.935 84.1104 381.623C84.045 382.705 83.6526 382.803 82.7698 382.344C79.4999 380.672 76.1974 379 72.666 377.197Z" fill="#58B7FE"/>
<path d="M78.2565 199.633C78.0276 199.895 77.7987 200.157 77.6025 200.42C77.5698 199.993 77.5371 199.534 77.5371 199.108C77.5371 170.487 77.5371 141.898 77.5371 113.277C77.5371 112.883 77.5698 112.523 77.6025 112.129C77.8314 112.162 78.0276 112.195 78.2565 112.195C79.0085 113.08 78.7796 114.162 78.7796 115.178C78.7796 135.21 78.7796 155.274 78.7796 175.306C78.7796 182.421 78.7796 189.502 78.7796 196.617C78.7796 197.666 78.7796 198.682 78.2565 199.633Z" fill="#30195D"/>
<path d="M125.211 283.661C127.009 280.088 128.808 276.481 130.704 272.711C132.306 274.252 133.778 275.727 135.315 277.17C135.838 277.661 135.511 277.858 135.086 278.12C131.881 280.055 128.677 281.989 125.473 283.956C125.407 283.858 125.309 283.759 125.211 283.661Z" fill="#FD3243"/>
<path d="M96.567 265.334C96.567 265.531 96.567 265.695 96.567 265.892C86.9537 266.318 77.7655 257.794 77.602 247.991C77.4385 238.778 77.5366 229.566 77.5366 220.353C77.5366 219.599 77.5039 218.812 77.5039 218.058C77.7328 217.73 77.929 217.369 78.1579 217.042C78.9426 217.73 78.7137 218.648 78.7137 219.501C78.7464 228.549 78.7137 237.631 78.7137 246.679C78.7137 255.761 84.9264 263.072 93.8203 264.58C94.7359 264.711 95.8149 264.547 96.567 265.334Z" fill="#230B53"/>
<path d="M279.71 222.91C279.84 223.14 279.971 223.369 280.135 223.599C280.462 224.779 279.808 225.73 279.285 226.68C275.001 234.713 268.756 240.778 260.81 245.073C257.736 246.745 254.663 248.351 251.262 249.302C249.791 249.696 249.333 250.548 249.366 252.023C249.431 260.416 249.398 268.809 249.366 277.235C249.366 278.12 249.627 279.137 248.581 279.727C247.894 279.924 247.175 279.858 246.456 279.858C222.651 279.858 198.847 279.858 175.01 279.858C174.585 279.858 174.127 279.825 173.702 279.858C172.492 279.891 171.904 279.268 171.904 278.055C171.904 277.497 171.904 276.973 171.904 276.416C171.904 256.646 171.904 236.877 171.904 217.074C171.904 216.189 171.806 215.337 172.034 214.484C172.427 213.698 173.179 213.73 173.866 213.73C183.021 213.698 192.144 213.73 201.299 213.698C202.771 213.698 203.588 214.517 204.373 215.534C207.022 219.042 210.455 221.5 214.64 222.681C223.403 225.172 230.924 222.943 236.81 216.025C238.412 214.157 239.981 213.435 242.237 213.698C242.63 213.73 242.99 213.698 243.382 213.829C243.872 213.993 244.232 214.32 244.494 214.714C247.927 219.533 250.706 224.746 253.126 230.156C253.224 230.418 253.289 230.68 253.289 230.943C252.505 233.139 251.066 235.041 250.445 237.336C249.595 240.45 249.268 243.63 249.268 246.876C249.268 248.089 249.725 248.253 250.772 247.892C256.788 245.827 262.314 242.876 267.284 238.844C272.254 234.778 276.146 229.893 278.794 224.025C279.023 223.566 279.154 223.074 279.71 222.91Z" fill="#C4C4C4"/>
<path d="M248.875 279.268C248.908 269.662 248.941 260.056 248.908 250.45C248.908 249.401 249.562 249.401 250.216 249.171C258.358 246.548 265.617 242.417 271.666 236.287C275.295 232.615 278.206 228.418 280.102 223.599C282.129 225.926 283.437 228.68 284.778 231.402C291.514 244.778 294.686 259.039 293.541 273.957C291.187 304.578 276.473 327.396 249.497 342.15C249.137 342.347 248.712 342.478 248.287 342.642C247.273 341.56 247.764 340.445 248.189 339.33C248.679 333.167 248.418 326.97 248.45 320.807C247.927 320.217 247.992 319.462 247.992 318.774C247.992 308.119 247.992 297.464 247.992 286.808C247.992 285.563 248.319 284.317 248.319 283.071C248.319 281.169 248.123 280.973 246.325 280.94C245.736 280.907 245.115 280.94 244.526 280.94C221.54 280.94 198.52 280.94 175.533 280.94C171.315 280.94 171.152 280.809 171.152 276.481C171.152 256.482 171.152 236.483 171.152 216.484C171.152 215.468 170.988 214.386 171.577 213.435C172.133 212.976 172.787 213.042 173.441 213.009C182.465 213.009 191.457 213.009 200.482 213.009C201.038 213.009 201.561 212.976 202.084 213.206C202.346 213.402 202.673 213.698 202.15 213.894C201.692 214.058 201.169 213.96 200.678 213.96C191.294 213.96 181.909 213.927 172.492 213.993C171.904 214.386 172.165 214.976 172.165 215.501C172.165 236.319 172.165 257.138 172.133 277.956C172.133 279.235 172.46 279.596 173.768 279.596C198.357 279.563 222.913 279.563 247.502 279.563C247.992 279.53 248.548 279.825 248.875 279.268Z" fill="#020A13"/>
<path d="M78.2568 199.633C78.2241 199.403 78.1914 199.207 78.1914 198.977C78.1914 170.061 78.1914 141.111 78.2241 112.195C78.7146 112.195 79.205 112.162 79.6955 112.162C137.996 112.162 196.297 112.162 254.631 112.162C255.121 112.162 255.612 112.195 256.102 112.195C254.173 115.703 252.048 119.112 250.478 122.784C249.89 124.161 249.268 125.538 248.647 126.915C247.96 127.374 247.176 127.21 246.424 127.21C236.581 127.21 226.707 127.21 216.864 127.21C216.21 127.21 215.556 127.145 214.903 127.309C214.739 127.407 214.608 127.571 214.51 127.768C214.281 130.423 214.412 133.112 214.412 135.767C214.379 140.783 214.412 145.799 214.412 150.783C214.412 151.471 214.477 152.193 214.216 152.881C214.118 153.078 213.987 153.242 213.791 153.34C210.881 153.832 207.971 153.504 205.06 153.537C203.622 153.537 202.15 153.897 200.777 153.176C200.254 152.455 200.417 151.602 200.417 150.783C200.417 143.8 200.417 136.816 200.417 129.8C200.417 129.112 200.548 128.391 200.188 127.702C199.665 127.145 198.979 127.309 198.325 127.309C162.291 127.309 126.29 127.309 90.257 127.309C89.6358 127.309 88.9164 127.145 88.4259 127.735C88.0663 128.456 88.2298 129.243 88.2298 129.997C88.2298 148.947 88.2298 167.864 88.2298 186.814C88.2298 187.797 88.3278 188.781 87.8047 189.699C84.5022 192.977 81.3304 196.256 78.2568 199.633Z" fill="#FFFAE2"/>
<path d="M226.249 182.191C222.587 179.142 218.5 176.749 214.347 174.486C197.148 165.11 178.706 160.717 159.152 161.143C156.046 161.209 152.972 161.471 149.866 161.667C149.441 161.438 149.049 161.176 148.722 160.782C146.694 158.323 144.275 156.422 141.365 155.078C141.005 154.914 139.73 154.947 140.678 153.865C141.43 153.57 142.182 153.668 142.934 153.668C175.796 153.668 208.625 153.668 241.486 153.668C242.337 153.668 243.252 153.471 244.004 154.127C244.56 171.733 250.348 187.666 259.47 202.518C260.353 203.96 261.498 205.206 262.577 206.485C261.105 208.157 259.045 208.944 257.182 210.026C253.879 211.927 254.206 212.222 251.884 208.878C248.386 203.829 244.527 199.043 240.211 194.649C239.165 193.141 238.413 191.469 237.268 189.994C235.208 187.305 232.658 185.306 229.584 183.896C228.571 183.175 227.034 183.371 226.249 182.191Z" fill="#FFFAE2"/>
<path d="M276.375 131.341C277.422 127.866 279.907 127.538 283.144 127.571C297.008 127.735 310.905 127.669 324.801 127.604C326.109 127.604 326.534 127.866 326.534 129.276C326.469 136.751 326.469 144.226 326.534 151.701C326.534 152.947 326.24 153.209 324.998 153.209C307.406 153.176 289.814 153.176 272.255 153.209C270.915 153.209 270.784 152.75 270.849 151.635C271.274 146.127 272.452 140.751 274.479 135.603C275.133 134.226 275.754 132.784 276.375 131.341Z" fill="#D0E9FE"/>
<path d="M272.78 168.847C271.537 164.421 270.883 159.897 270.785 155.307C270.752 154.16 271.177 153.996 272.158 153.996C298.644 154.029 325.129 154.029 351.615 154.029C351.975 154.029 352.367 154.127 352.727 154.16C348.28 157.078 343.538 159.536 338.993 162.258C333.892 165.274 328.759 168.257 323.658 171.241C318.524 169.733 313.391 168.126 308.094 167.143C298.35 165.372 288.605 164.651 278.829 166.979C276.801 167.438 274.807 168.192 272.78 168.847Z" fill="#FFFAE2"/>
<path d="M215.034 127.702C215.622 127.735 216.211 127.833 216.799 127.833C226.707 127.833 236.614 127.833 246.522 127.833C248.451 127.833 248.451 127.833 247.863 129.571C245.247 137.21 244.2 145.144 243.972 153.176C243.383 153.701 242.664 153.635 241.977 153.635C233.443 153.635 224.909 153.635 216.374 153.635C215.72 153.635 215.066 153.701 214.51 153.275C214.216 152.914 214.249 152.455 214.249 152.029C214.249 144.357 214.249 136.685 214.249 129.014C214.282 128.456 213.987 127.637 215.034 127.702Z" fill="#D0E9FE"/>
<path d="M349.684 183.601C359.787 177.765 369.924 171.896 380.028 166.061C380.78 167.831 381.303 169.7 381.303 171.601C381.368 184.093 381.335 196.584 381.335 209.37C378.523 206.55 375.973 203.764 373.128 201.305C365.935 194.551 357.989 188.814 349.684 183.601Z" fill="#FFFAE2"/>
<path d="M240.44 194.485C245.345 199.141 249.4 204.485 253.16 210.091C253.814 211.075 254.239 211.403 255.383 210.681C257.705 209.206 260.157 207.927 262.577 206.55C264.277 208.026 265.977 209.501 268.07 210.353C270.653 211.403 272.55 213.173 274.217 215.304C276.081 217.697 278.108 219.992 279.613 222.681C278.828 223.205 278.01 222.812 277.258 222.615C269.345 220.648 262.479 222.648 256.397 227.894C255.678 228.516 255.22 229.336 254.566 229.959C254.173 230.352 253.912 231.008 253.16 230.877C250.707 225.763 248.124 220.746 244.953 216.025C244.527 215.402 244.07 214.779 243.612 214.157C243.481 213.993 243.285 213.927 243.121 213.829C242.827 213.632 242.598 213.37 242.369 213.075C241.846 212.124 240.963 211.37 240.604 210.321C240.44 209.468 240.8 208.714 240.963 207.927C241.912 203.928 241.781 199.961 240.44 196.026C240.309 195.502 240.015 195.01 240.44 194.485Z" fill="#FEBD00"/>
<path d="M253.16 230.844C260.125 222.091 269.019 219.664 279.58 222.648C279.613 222.746 279.646 222.845 279.711 222.91C275.166 234.123 266.664 241.303 255.972 246.253C253.749 247.27 251.492 248.188 249.04 248.778C248.55 242.352 249.432 236.287 253.16 230.844Z" fill="#020A13"/>
<path d="M276.736 359.821C282.458 355.657 287.591 350.772 292.921 345.592C292.921 349.69 292.921 353.493 292.921 357.264C292.921 357.952 292.496 358.018 291.973 358.051C281.837 358.51 273.4 367.034 272.681 377.656C272.648 378.082 272.747 378.541 272.321 378.869C270.261 378.836 268.201 378.771 266.141 378.771C257.378 378.771 248.615 378.804 239.885 378.804C239.296 378.804 238.74 378.804 238.119 378.672C252.376 375.23 265.193 368.804 276.736 359.821Z" fill="#FEFEFE"/>
<path d="M215.033 127.702C214.281 128.03 214.674 128.718 214.674 129.21C214.641 137.177 214.641 145.111 214.641 153.078C215.131 153.635 215.753 153.34 216.309 153.34C224.941 153.373 233.606 153.34 242.238 153.373C242.827 153.373 243.448 153.242 244.004 153.504C244.004 153.635 244.004 153.734 244.004 153.865C243.383 154.16 242.729 153.996 242.075 153.996C208.853 153.996 175.599 153.996 142.378 153.996C141.332 153.996 140.318 154.029 139.337 154.389C138.683 154.389 137.996 154.455 137.768 153.602C138.487 152.75 139.501 153.045 140.383 153.045C159.316 153.012 178.248 153.045 197.213 153.012C197.965 153.012 198.75 153.143 199.469 152.848C199.632 152.717 199.763 152.619 199.894 152.455C200.254 151.898 200.156 151.275 200.156 150.684C200.156 143.865 200.156 137.046 200.156 130.194C200.156 129.505 200.319 128.751 199.6 128.259C198.979 127.932 198.325 128.03 197.671 128.03C162.258 128.03 126.814 128.03 91.4015 128.03C90.6494 128.03 89.8647 127.866 89.2761 128.555C88.8837 129.374 89.0145 130.259 89.0145 131.145C89.0145 149.406 89.0145 167.7 89.0145 185.961C89.0145 187.043 89.1126 188.158 88.524 189.141C88.2952 189.338 88.0663 189.535 87.8374 189.764C87.8374 180.814 87.8047 171.864 87.8047 162.913C87.8047 151.635 87.8047 140.324 87.8047 129.046C87.8047 128.456 87.8701 127.866 87.9028 127.243C88.3933 126.882 88.9491 127.046 89.505 127.046C126.094 127.046 162.716 127.046 199.306 127.046C199.829 127.046 200.385 126.882 200.908 127.21C200.94 133.21 200.973 139.177 201.006 145.177C201.006 147.799 201.006 150.389 201.006 153.012C201.104 153.111 201.202 153.275 201.398 153.275C205.518 153.275 209.638 153.307 213.758 153.242C213.856 153.242 213.954 153.143 214.02 153.078C214.379 152.52 214.183 151.898 214.216 151.34C214.216 143.865 214.216 136.39 214.216 128.948C214.216 128.358 214.118 127.735 214.314 127.178C214.903 127.014 215.491 127.079 216.112 127.079C226.38 127.079 236.647 127.079 246.947 127.079C247.535 127.079 248.157 126.915 248.712 127.243C248.287 127.932 247.633 127.571 247.11 127.571C237.072 127.604 227.034 127.604 216.963 127.604C216.243 127.637 215.622 127.669 215.033 127.702Z" fill="#2A1258"/>
<path d="M344.945 237.401C347.593 238.057 350.242 238.647 352.858 239.336C353.806 239.598 354.231 239.073 354.721 238.418C361.49 229.729 368.258 221.041 375.06 212.353C375.387 211.927 375.583 211.239 376.825 211.14C369.305 220.779 362.013 230.156 354.623 239.631C357.435 240.319 360.084 240.942 362.961 241.663C362.144 242.286 361.621 241.991 361.13 241.893C347.037 238.647 332.944 235.401 318.884 232.09C318.394 231.992 317.576 232.156 317.576 231.205C322.579 232.32 327.615 233.434 332.617 234.582C336.705 235.532 340.825 236.45 344.945 237.401Z" fill="#F6F6F9"/>
<path d="M139.074 154.094C139.695 153.602 140.448 153.865 141.134 153.865C175.435 153.832 209.702 153.832 244.003 153.832C244.035 153.93 244.035 154.029 244.003 154.16C210.127 154.16 176.252 154.16 142.409 154.16C141.723 154.16 141.003 153.963 140.317 154.356C139.794 154.75 139.434 154.52 139.074 154.094Z" fill="#877AA1"/>
<path d="M248.583 127.276C237.825 127.276 227.067 127.276 216.342 127.243C215.623 127.243 214.936 127.21 214.217 127.21C214.478 126.817 214.903 126.948 215.263 126.948C226.381 126.948 237.531 126.948 248.648 126.981C248.648 127.079 248.615 127.178 248.583 127.276Z" fill="#5E4C80"/>
<path d="M244.004 153.471C234.815 153.471 225.595 153.471 216.406 153.438C215.818 153.438 215.066 153.799 214.641 153.045C217.42 153.078 220.167 153.143 222.946 153.143C229.976 153.143 236.974 153.143 244.004 153.143C244.036 153.275 244.036 153.373 244.004 153.471Z" fill="#57457B"/>
<path d="M248.254 339.33C248.287 340.445 248.319 341.527 248.352 342.642C246.946 343.527 245.507 344.346 243.84 344.641C245.311 342.871 246.783 341.101 248.254 339.33Z" fill="#FCFDFA"/>
<path d="M292.919 368.771C292.919 371.722 292.886 374.673 292.952 377.623C292.952 378.541 292.723 378.869 291.774 378.869C285.987 378.836 280.232 378.869 274.444 378.902C273.496 378.902 273.267 378.64 273.333 377.689C273.823 368.247 281.213 360.116 290.532 358.805C292.952 358.477 292.952 358.477 292.952 360.903C292.919 363.526 292.919 366.149 292.919 368.771Z" fill="#FEFEFE"/>
<path d="M381.369 305.299C381.369 309.791 381.369 314.315 381.369 318.807C381.369 322.675 381.369 322.675 377.609 323.757C375.352 324.413 372.704 324.544 371.036 325.888C369.336 327.233 368.617 329.823 367.472 331.855C364.333 337.527 361.194 343.166 358.022 348.838C357.761 349.33 357.597 349.953 356.812 350.084C364.922 335.134 373.129 320.249 381.369 305.299Z" fill="#FEFEFE"/>
<path d="M125.375 101.244C125.343 103.31 123.937 104.687 121.877 104.687C119.751 104.687 118.378 103.212 118.411 101.048C118.476 99.0151 119.882 97.6709 122.008 97.7037C124.035 97.7365 125.408 99.1462 125.375 101.244Z" fill="#FE0E11"/>
<path d="M104.905 104.687C102.878 104.654 101.439 103.212 101.439 101.179C101.439 99.1462 102.911 97.7037 104.938 97.7037C106.998 97.7037 108.633 99.3429 108.535 101.31C108.47 103.212 106.867 104.72 104.905 104.687Z" fill="#FDD301"/>
<path d="M88.0001 104.72C86.0383 104.72 84.4687 103.146 84.436 101.212C84.4034 99.2773 85.9729 97.6709 87.9348 97.6381C89.962 97.6053 91.6296 99.2118 91.5969 101.212C91.5642 103.179 89.9947 104.72 88.0001 104.72Z" fill="#16DB93"/>
<path d="M171.838 213.501C171.805 214.025 171.707 214.583 171.707 215.107C171.707 236.188 171.707 257.269 171.675 278.317C171.675 279.956 172.165 280.251 173.669 280.251C198.062 280.219 222.455 280.219 246.848 280.186C248.417 280.186 248.81 280.579 248.81 282.153C248.679 294.447 248.646 306.709 248.548 319.004C248.548 319.594 248.515 320.217 248.483 320.807C246.586 323.757 244.919 326.872 242.662 329.593C238.085 329.593 233.507 329.56 228.929 329.56C204.275 329.56 179.588 329.56 154.933 329.593C153.56 329.593 153.135 329.331 153.135 327.823C153.2 307.824 153.167 287.858 153.167 267.859C153.167 267.203 153.135 266.547 153.135 265.892C153.429 265.334 153.298 264.711 153.298 264.121C153.298 234.254 153.298 204.387 153.298 174.519C153.298 173.601 153.233 172.651 153.2 171.733C157.091 171.175 161.015 171.11 164.906 171.274C180.503 171.831 195.185 175.732 208.951 183.076C209.539 183.371 210.095 183.699 210.651 184.027C210.585 184.814 209.899 185.043 209.376 185.404C203.653 189.338 200.58 194.781 199.991 201.665C199.762 204.583 200.318 207.436 201.332 210.157C201.626 210.911 201.953 211.665 202.182 212.452C202.215 212.845 202.313 213.271 201.692 213.271C192.307 213.271 182.923 213.271 173.538 213.271C173.015 213.337 172.394 213.14 171.838 213.501Z" fill="#FFFAE2"/>
<path d="M88.4269 189.174C88.4269 173.7 88.3942 158.192 88.3942 142.718C88.3942 138.292 88.3942 133.898 88.3942 129.472C88.3942 128.882 88.2634 128.259 88.5577 127.702C89.1463 127.8 89.7675 127.735 90.3561 127.735C126.324 127.735 162.292 127.735 198.26 127.735C198.914 127.735 199.568 127.637 200.222 127.833C200.451 128.194 200.385 128.555 200.385 128.948C200.385 136.652 200.385 144.324 200.385 152.029C200.385 152.389 200.484 152.783 200.222 153.143V153.111C199.666 153.471 199.045 153.307 198.489 153.307C179.197 153.307 159.938 153.34 140.646 153.307C138.684 153.307 136.755 153.799 134.793 153.635C124.297 153.668 117.561 161.012 115.861 168.421C115.632 169.438 115.959 170.651 115.043 171.503C105.365 176.224 96.536 182.125 88.4269 189.174Z" fill="#D0E9FE"/>
<path d="M114.878 183.076C114.878 192.945 114.911 202.813 114.911 212.714C114.911 221.73 114.911 230.713 114.911 239.729C114.322 240.286 113.603 240.188 112.916 240.188C105.396 240.188 97.908 240.188 90.3874 240.188C88.1966 240.188 87.935 239.926 87.9023 237.762C87.9023 227.238 87.9023 216.714 87.9023 206.19C87.9023 205.37 88.0331 204.551 88.3274 203.796C93.7226 197.633 99.968 192.486 106.736 187.928C109.352 186.158 112.034 184.486 114.878 183.076Z" fill="#D0E9FE"/>
<path d="M96.5668 265.334C86.8227 264.744 80.0215 258.876 78.3866 249.63C78.1577 248.417 78.1904 247.138 78.1904 245.893C78.1577 236.287 78.1577 226.68 78.125 217.042C80.8389 212.517 84.0107 208.386 87.6402 204.583C88.2287 205.173 87.9999 205.927 87.9999 206.583C87.9999 217.042 87.9999 227.5 87.9999 237.959C87.9999 240.024 87.9999 240.024 90.0598 240.024C97.6785 240.024 105.264 240.024 112.883 240.057C113.537 240.057 114.322 239.729 114.812 240.549C114.747 244.548 115.401 248.647 113.995 252.548C111.085 260.679 105.101 264.744 96.5668 265.334Z" fill="#FFFAE2"/>
<path d="M201.889 212.452C196.886 202.321 200.287 190.551 209.9 184.617C210.162 184.453 210.423 184.257 210.685 184.06C215.655 181.601 220.854 180.978 226.249 182.191C227.361 182.683 228.603 182.781 229.552 183.601C227.753 185.994 226.282 188.65 222.62 188.715C218.794 188.781 215.557 192.813 215.818 196.912C215.884 198.026 215.524 198.78 214.837 199.534C211.371 203.37 207.578 206.944 204.178 210.812C203.589 211.534 203.066 212.55 201.889 212.452Z" fill="#19004B"/>
<path d="M115.01 171.503C115.337 162.422 122.759 153.537 134.138 153.242C135.315 153.668 136.656 152.816 137.768 153.766C138.225 153.865 138.651 153.996 139.108 154.094C139.533 154.192 139.926 154.258 140.351 154.356C144.34 155.701 147.544 158.127 149.899 161.667C144.863 162.454 139.795 163.176 134.858 164.454C127.991 166.192 121.419 168.651 115.01 171.503Z" fill="#020A13"/>
<path d="M114.879 240.549C106.443 240.549 98.0065 240.483 89.5703 240.549C88.0662 240.549 87.6738 240.155 87.7065 238.647C87.7392 227.303 87.7065 215.927 87.6738 204.583C87.8373 204.255 87.9681 203.928 88.3605 203.796C88.3932 215.107 88.3932 226.385 88.4259 237.696C88.4259 239.827 88.4259 239.827 90.6167 239.827C98.7258 239.795 106.835 239.762 114.944 239.762C114.977 239.991 115.108 240.286 114.879 240.549Z" fill="#2D155A"/>
<path d="M423.256 347.002C422.765 347.559 423.19 348.051 423.321 348.51C423.942 350.772 424.564 353.034 425.283 355.264C425.577 356.182 425.545 356.608 424.465 356.838C422.373 357.329 422.373 357.428 421.784 355.297C418.057 342.445 414.394 329.593 410.634 316.774C410.274 315.528 410.569 315.102 411.746 314.807C415.016 313.955 418.253 313.004 421.457 312.02C422.406 311.725 422.831 311.824 423.223 312.84C426.918 322.511 436.989 327.921 447.06 325.724C448.172 325.495 448.531 325.757 448.858 326.839C452.194 338.609 455.594 350.412 459.028 362.149C459.354 363.231 459.093 363.526 458.079 363.821C449.872 366.149 441.665 368.509 433.49 370.935C432.378 371.263 431.986 370.902 431.463 370.05C429.37 366.64 428.226 362.87 427.114 359.034C426.035 355.329 424.923 351.625 423.844 347.92C423.713 347.592 423.681 347.199 423.256 347.002Z" fill="#FEFEFE"/>
<path d="M457.163 384.312C447.648 384.016 439.67 380.377 433.49 372.935C432.836 372.115 432.607 371.755 433.915 371.394C442.057 369.099 450.199 366.706 458.308 364.313C459.223 364.05 459.583 364.181 459.877 365.198C461.447 370.804 463.049 376.378 464.717 381.984C465.011 382.967 464.815 383.197 463.801 383.426C461.643 383.918 459.452 384.18 457.163 384.312Z" fill="#FEFEFE"/>
<path d="M443.168 325.528C434.503 325.561 427.015 320.61 423.941 313.069C423.484 311.922 423.418 311.332 424.89 310.938C430.514 309.43 436.072 307.791 441.631 306.152C442.514 305.889 442.841 306.021 443.103 306.906C444.672 312.512 446.307 318.086 447.942 323.692C448.171 324.446 448.138 324.872 447.19 325.036C445.751 325.298 444.28 325.462 443.168 325.528Z" fill="#FEFEFE"/>
<path d="M292.692 112.096C293.346 112.129 294 112.195 294.654 112.195C308.682 112.227 322.742 112.227 336.769 112.227C336.769 125.44 336.769 138.685 336.802 151.898C336.802 152.979 336.508 153.307 335.429 153.274C333.14 153.209 330.851 153.176 328.562 153.274C327.418 153.307 327.123 152.947 327.123 151.799C327.189 144.16 327.091 136.488 327.189 128.85C327.222 127.309 326.731 126.981 325.26 126.981C310.48 127.046 295.733 127.014 280.954 127.014C280.365 127.014 279.776 127.014 278.959 127.014C280.365 124.62 281.902 122.62 283.537 120.686C286.251 117.473 289.161 114.424 292.692 112.096Z" fill="#FFFAE2"/>
<path d="M201.888 212.452C206.302 207.862 210.716 203.239 215.163 198.682C215.588 198.256 215.49 197.83 215.457 197.338C215.032 192.158 218.825 188.027 223.959 188.191C224.809 188.223 225.365 187.961 225.921 187.371C227.098 186.092 228.34 184.879 229.55 183.634C234.095 185.338 237.169 188.682 239.523 192.781C239.85 193.338 240.112 193.928 240.406 194.518C242.368 199.469 242.629 204.518 241.027 209.599C240.929 209.894 240.995 210.222 240.995 210.55C240.896 211.501 240.144 212.222 239.981 213.173C241.027 213.763 242.335 213.075 243.349 213.861C243.447 213.96 243.512 214.091 243.61 214.189C240.7 213.796 238.575 214.452 236.58 217.042C232.722 221.992 227.131 224.222 220.951 224.222C213.822 224.222 207.904 221.205 203.621 215.37C202.934 214.452 202.28 214.157 201.201 214.157C191.62 214.189 182.04 214.157 172.459 214.124C172.328 214.091 172.263 214.025 172.328 213.96C172.361 213.894 172.426 213.861 172.459 213.861C181.909 213.861 191.359 213.861 200.809 213.861C201.332 213.861 201.888 214.058 202.378 213.698C202.378 213.698 202.378 213.632 202.378 213.599C202.345 213.566 202.313 213.501 202.28 213.468C202.051 213.468 202.018 213.37 202.182 213.206C202.051 212.943 201.986 212.681 201.888 212.452Z" fill="#FEB2B2"/>
<path d="M172.46 213.829C172.427 213.927 172.427 213.993 172.493 214.058C172.46 214.616 172.395 215.14 172.395 215.697C172.395 236.385 172.395 257.072 172.362 277.76C172.362 279.17 172.689 279.563 174.128 279.53C198.422 279.465 222.684 279.497 246.979 279.497C247.633 279.497 248.287 279.661 248.876 279.202C248.614 279.956 247.993 279.694 247.502 279.694C222.881 279.694 198.292 279.694 173.67 279.727C172.493 279.727 172.068 279.432 172.068 278.186C172.1 257.171 172.1 236.155 172.1 215.14C172.068 214.714 171.904 214.157 172.46 213.829Z" fill="#2E175B"/>
<path d="M202.149 213.173C202.182 213.271 202.215 213.37 202.247 213.435C192.111 213.468 181.974 213.468 171.838 213.501C172.328 212.944 172.95 213.239 173.505 213.239C183.053 213.173 192.601 213.173 202.149 213.173Z" fill="#2E175B"/>
<path d="M200.81 127.276C200.09 127.276 199.404 127.243 198.684 127.243C162.487 127.243 126.29 127.243 90.0936 127.243C89.3415 127.243 88.5567 127.276 87.8047 127.276C88.1971 126.653 88.7856 126.915 89.2761 126.915C125.963 126.915 162.618 126.915 199.306 126.915C199.829 126.948 200.417 126.653 200.81 127.276Z" fill="#5E4C81"/>
<path d="M214.214 127.21C214.214 135.472 214.247 143.701 214.247 151.963C214.247 152.389 214.378 152.848 213.92 153.143C213.92 145.045 213.92 136.98 213.953 128.882C213.953 128.358 213.659 127.702 214.214 127.21Z" fill="#513D77"/>
<path d="M213.922 153.143C209.606 153.766 205.29 153.602 200.974 153.209C200.941 153.209 200.908 153.111 200.908 153.078C205.224 153.111 209.573 153.111 213.922 153.143Z" fill="#57457B"/>
<path d="M239.459 213.173C240.015 212.288 240.113 211.173 240.996 210.517C241.617 211.403 242.238 212.255 242.86 213.14C241.748 213.698 240.603 213.632 239.459 213.173Z" fill="#FEFDFA"/>
<path d="M239.46 213.173C240.604 213.173 241.748 213.14 242.893 213.14C243.056 213.37 243.22 213.599 243.383 213.829C242.206 213.861 241.062 213.861 239.885 213.894C239.296 213.894 239.035 213.73 239.46 213.173Z" fill="#3B2463"/>
<path d="M200.09 127.768C199.6 127.768 199.109 127.8 198.619 127.8C162.422 127.8 126.192 127.8 89.9954 127.8C89.5049 127.8 89.0144 127.735 88.5566 127.702C88.8182 127.669 89.0798 127.604 89.3741 127.604C126.29 127.604 163.207 127.604 200.123 127.604C200.254 127.637 200.286 127.702 200.254 127.702C200.221 127.768 200.156 127.768 200.09 127.768Z" fill="#58B7FE"/>
<path d="M137.735 153.766C136.591 153.242 135.283 153.668 134.105 153.242C137.146 153.209 140.187 153.176 143.228 153.176C162.193 153.143 181.191 153.143 200.156 153.143C199.633 153.766 198.946 153.471 198.325 153.471C178.804 153.504 159.283 153.471 139.762 153.504C139.108 153.471 138.356 153.242 137.735 153.766Z" fill="#57457B"/>
<path d="M200.09 127.768C200.09 127.768 200.09 127.637 200.123 127.637C200.613 127.899 200.515 128.358 200.515 128.784C200.515 136.521 200.515 144.226 200.515 151.963C200.515 152.389 200.613 152.848 200.188 153.143C200.155 144.685 200.123 136.226 200.09 127.768Z" fill="#3E2868"/>
<path d="M231.283 294.382C211.468 294.382 191.653 294.382 171.838 294.382C171.838 294.283 171.838 294.152 171.838 294.054C191.653 294.054 211.468 294.054 231.283 294.054C231.25 294.152 231.25 294.251 231.283 294.382Z" fill="#291157"/>
<path d="M171.807 304.709C188.679 304.709 205.551 304.709 222.456 304.709C222.456 304.808 222.456 304.939 222.456 305.037C205.584 305.037 188.712 305.037 171.839 305.037C171.839 304.906 171.807 304.808 171.807 304.709Z" fill="#2B1459"/>
<path d="M213.596 315.463C213.563 316.381 212.844 316.086 212.386 316.118C199.241 316.118 186.097 316.118 172.952 316.118C172.494 316.118 171.775 316.381 171.742 315.463C172.135 315.2 172.592 315.299 173.017 315.299C186.129 315.299 199.209 315.299 212.321 315.299C212.746 315.299 213.204 315.2 213.596 315.463Z" fill="#7F709B"/>
<path d="M213.596 315.463C204.44 315.43 195.285 315.43 186.129 315.397C181.323 315.397 176.549 315.43 171.742 315.463C172.233 314.938 172.854 315.135 173.442 315.135C186.26 315.135 199.078 315.135 211.896 315.135C212.484 315.135 213.105 314.905 213.596 315.463Z" fill="#9A8FAF"/>
<path d="M432.837 348.838C432.183 348.707 431.725 348.346 431.758 347.625C431.823 347.035 432.215 346.609 432.837 346.641C433.523 346.674 433.948 347.1 433.916 347.822C433.883 348.412 433.425 348.74 432.837 348.838Z" fill="#2A1258"/>
<path d="M435.779 354.149C435.747 354.739 435.452 355.165 434.798 355.231C434.145 355.297 433.719 354.969 433.654 354.346C433.589 353.625 433.948 353.198 434.668 353.166C435.354 353.1 435.649 353.493 435.779 354.149Z" fill="#200851"/>
<path d="M437.61 360.641C437.578 361.231 437.283 361.657 436.629 361.69C435.877 361.723 435.518 361.296 435.518 360.608C435.518 359.952 435.91 359.624 436.564 359.624C437.218 359.624 437.578 359.985 437.61 360.641Z" fill="#1D054E"/>
<path d="M221.31 194.19C221.474 196.551 221.637 198.879 221.834 201.239C221.67 201.239 221.474 201.272 221.31 201.272C220.918 198.944 220.755 196.584 220.787 194.19C220.951 194.223 221.114 194.19 221.31 194.19Z" fill="#290C52"/>
<path d="M437.489 201.609C436.007 200.853 433.713 192.038 434.604 190.625C437.622 185.711 437.029 183.88 431.428 182.208C422.825 179.598 413.969 178.981 405.002 179.413C403.784 179.47 402.06 179.354 401.839 181.449C403.725 182.412 405.691 181.888 407.484 181.869C414.993 181.798 422.395 182.436 429.684 184.46C431.271 184.845 433.806 185.036 433.448 187.401C433.197 189.057 431.159 190.054 429.364 190.411C428.313 190.639 427.233 190.427 426.185 190.316C419.798 189.687 413.336 189.869 407.135 191.203C403.781 191.952 398.067 191.667 398.602 196.441C399.071 201.012 404.526 199.807 408.079 199.668C415.184 199.39 421.567 196.535 428.147 194.291C430.08 193.665 432.211 193.649 432.703 195.514C433.327 197.785 431.457 198.953 429.122 199.035C426.45 199.114 423.777 199.193 421.137 199.373C419.479 199.461 416.911 199.168 417.161 201.673C417.314 203.535 419.921 203.253 421.309 203.028C429.339 201.439 436.807 202.28 443.151 207.983C443.319 208.154 444.1 207.789 445.082 207.695C443.114 204.397 440.216 203.087 437.489 201.609ZM401.783 196.198C408.336 193.175 415.244 192.287 422.406 193.227C415.886 196.352 409.108 197.985 401.783 196.198Z" fill="#020A13"/>
</g>
<path d="M198.065 420.206C197.998 420.09 197.931 419.974 197.981 419.79C197.914 419.674 198.031 419.607 198.082 419.423C198.132 419.24 198.249 419.172 198.366 419.105C198.483 419.037 198.6 418.97 198.784 419.018C198.901 418.951 198.968 419.067 199.152 419.115C199.336 419.164 199.47 419.396 199.537 419.512C199.604 419.628 199.67 419.744 199.553 419.812C199.503 419.995 199.453 420.179 199.336 420.246C199.219 420.314 199.169 420.497 198.985 420.449C198.868 420.516 198.75 420.584 198.684 420.468C198.5 420.419 198.316 420.371 198.249 420.255C198.199 420.438 198.132 420.322 198.065 420.206Z" fill="black"/>
<path d="M207.23 428.527C207.179 428.71 207.179 428.71 207.129 428.894C207.079 429.077 206.845 429.212 206.611 429.347C206.243 429.25 205.992 429.086 205.624 428.989C205.557 428.873 205.49 428.757 205.54 428.573L205.59 428.39C205.691 428.022 206.042 427.82 206.343 427.801C206.878 427.647 207.263 428.044 207.23 428.527Z" fill="black"/>
<path d="M209.905 424.511C209.938 424.028 210.34 423.642 210.708 423.739C211.193 423.769 211.577 424.165 211.477 424.532C211.444 425.015 211.042 425.402 210.674 425.304C210.256 425.391 209.871 424.994 209.905 424.511Z" fill="black"/>
<path d="M201.727 424.125C201.761 423.642 202.162 423.256 202.53 423.353C203.015 423.382 203.4 423.779 203.299 424.146C203.266 424.629 202.864 425.015 202.496 424.918C202.011 424.889 201.694 424.608 201.727 424.125Z" fill="black"/>
<path d="M214.37 421.163C214.303 421.047 214.237 420.931 214.287 420.747C214.22 420.631 214.337 420.564 214.387 420.38C214.554 420.129 214.906 419.927 215.207 419.908C215.508 419.889 215.826 420.169 215.959 420.401C216.026 420.517 216.093 420.633 215.976 420.701C215.926 420.884 215.876 421.068 215.759 421.135C215.591 421.386 215.357 421.522 214.989 421.424C214.755 421.559 214.504 421.395 214.37 421.163Z" fill="black"/>
<path d="M206.193 420.776C206.126 420.66 206.059 420.544 206.109 420.361C206.042 420.245 206.159 420.177 206.209 419.994C206.377 419.743 206.728 419.54 207.029 419.521C207.33 419.502 207.648 419.783 207.782 420.015C207.849 420.131 207.915 420.247 207.798 420.314C207.748 420.498 207.698 420.682 207.581 420.749C207.414 421 207.179 421.135 206.811 421.038C206.444 420.941 206.326 421.009 206.193 420.776Z" fill="black"/>
<path d="M221.899 429.346C221.933 428.863 222.334 428.477 222.702 428.574C223.187 428.604 223.572 429 223.471 429.367L223.421 429.551C223.321 429.918 222.969 430.12 222.551 430.207C222.367 430.158 222.183 430.11 222.05 429.878C221.866 429.829 221.849 429.53 221.899 429.346Z" fill="black"/>
<path d="M226.213 425.466C226.247 424.983 226.648 424.597 227.016 424.694C227.501 424.723 227.886 425.12 227.786 425.487C227.752 425.97 227.351 426.356 226.983 426.259C226.565 426.346 226.18 425.949 226.213 425.466Z" fill="black"/>
<path d="M218.034 425.08C218.067 424.597 218.469 424.211 218.837 424.308C219.322 424.337 219.706 424.734 219.606 425.101C219.573 425.584 219.171 425.97 218.803 425.873C218.318 425.844 218 425.563 218.034 425.08Z" fill="black"/>
<path d="M230.678 422.118C230.611 422.002 230.544 421.886 230.594 421.703C230.528 421.586 230.645 421.519 230.695 421.335C230.745 421.152 230.862 421.084 230.979 421.017C231.096 420.949 231.213 420.882 231.397 420.93C231.514 420.863 231.581 420.979 231.765 421.027C231.949 421.076 232.083 421.308 232.15 421.424C232.217 421.54 232.284 421.656 232.167 421.724C232.116 421.907 232.066 422.091 231.949 422.158C231.832 422.226 231.782 422.409 231.598 422.361C231.481 422.428 231.364 422.496 231.297 422.38C231.113 422.331 230.929 422.283 230.862 422.167C230.812 422.35 230.745 422.234 230.678 422.118Z" fill="black"/>
<path d="M222.499 421.734C222.432 421.618 222.365 421.502 222.416 421.318C222.349 421.202 222.466 421.134 222.516 420.951C222.683 420.7 223.035 420.497 223.336 420.478C223.637 420.459 223.954 420.74 224.088 420.972C224.155 421.088 224.222 421.204 224.105 421.272C224.055 421.455 224.005 421.639 223.888 421.706C223.72 421.957 223.486 422.092 223.118 421.995C222.884 422.13 222.633 421.966 222.499 421.734Z" fill="black"/>
<path d="M215.292 428.981C215.258 429.464 214.857 429.85 214.489 429.753C214.004 429.723 213.619 429.326 213.719 428.959C213.753 428.476 214.154 428.09 214.522 428.187C215.007 428.217 215.325 428.497 215.292 428.981Z" fill="black"/>
<path d="M198.434 411.647C198.418 411.347 198.585 411.096 198.819 410.961C198.936 410.894 199.053 410.826 199.237 410.875C199.354 410.807 199.421 410.923 199.605 410.972C199.856 411.136 200.057 411.485 200.073 411.784C200.09 412.084 199.806 412.402 199.572 412.537C199.454 412.605 199.337 412.672 199.27 412.556C199.086 412.508 198.903 412.459 198.836 412.343C198.585 412.179 198.451 411.947 198.434 411.647Z" fill="black"/>
<path d="M192.01 411.329C191.96 411.512 191.91 411.696 191.793 411.763C191.742 411.947 191.508 412.082 191.324 412.033C191.174 411.502 190.906 411.038 190.756 410.506L190.873 410.439C190.99 410.371 190.99 410.371 191.174 410.42C191.174 410.42 191.291 410.352 191.358 410.468C191.726 410.565 192.044 410.846 192.01 411.329Z" fill="black"/>
<path d="M194.686 407.314C194.72 406.831 195.121 406.445 195.489 406.542C195.974 406.572 196.359 406.968 196.258 407.335C196.225 407.818 195.823 408.204 195.455 408.107C195.037 408.194 194.653 407.797 194.686 407.314Z" fill="black"/>
<path d="M194.116 415.526C194.149 415.043 194.551 414.657 194.919 414.754C195.404 414.783 195.788 415.18 195.688 415.547C195.655 416.03 195.253 416.416 194.885 416.319C194.4 416.289 194.082 416.009 194.116 415.526Z" fill="black"/>
<path d="M199.153 403.966C199.086 403.85 199.019 403.734 199.069 403.55C199.052 403.251 199.22 402.999 199.454 402.864C199.571 402.797 199.688 402.729 199.872 402.778C199.989 402.71 200.056 402.827 200.24 402.875C200.491 403.04 200.691 403.388 200.708 403.687C200.658 403.871 200.608 404.054 200.491 404.122C200.374 404.189 200.323 404.373 200.139 404.324C200.022 404.392 199.905 404.459 199.838 404.343C199.654 404.295 199.47 404.246 199.403 404.13C199.286 404.198 199.219 404.082 199.153 403.966Z" fill="black"/>
<path d="M190.973 403.579C190.906 403.463 190.839 403.347 190.889 403.164C190.923 402.68 191.324 402.294 191.692 402.391C192.177 402.421 192.562 402.818 192.461 403.185C192.411 403.368 192.361 403.552 192.244 403.619C192.077 403.87 191.843 404.005 191.475 403.908C191.358 403.976 191.107 403.811 190.973 403.579Z" fill="black"/>
<path d="M214.741 412.602C214.774 412.119 215.176 411.733 215.544 411.83C216.029 411.859 216.413 412.256 216.313 412.623C216.28 413.106 215.878 413.492 215.51 413.395C215.092 413.481 214.707 413.085 214.741 412.602Z" fill="black"/>
<path d="M206.678 412.149C206.712 411.666 207.113 411.28 207.481 411.377C207.966 411.407 208.351 411.803 208.251 412.17C208.217 412.653 207.816 413.039 207.448 412.942C206.963 412.913 206.645 412.632 206.678 412.149Z" fill="black"/>
<path d="M210.993 408.269C211.026 407.786 211.428 407.4 211.796 407.497C212.281 407.526 212.665 407.923 212.565 408.29C212.531 408.773 212.13 409.159 211.762 409.062C211.344 409.149 210.959 408.752 210.993 408.269Z" fill="black"/>
<path d="M210.426 416.481C210.46 415.998 210.861 415.612 211.229 415.709C211.714 415.739 212.099 416.135 211.999 416.503C211.965 416.986 211.564 417.372 211.196 417.275C210.711 417.245 210.393 416.965 210.426 416.481Z" fill="black"/>
<path d="M202.815 407.883C202.849 407.4 203.25 407.014 203.618 407.111C204.103 407.14 204.488 407.537 204.387 407.904C204.354 408.387 203.952 408.773 203.584 408.676C203.099 408.646 202.782 408.366 202.815 407.883Z" fill="black"/>
<path d="M202.297 415.912C202.331 415.429 202.732 415.043 203.1 415.14C203.585 415.17 203.97 415.566 203.87 415.933C203.836 416.416 203.435 416.802 203.067 416.705C202.649 416.792 202.264 416.395 202.297 415.912Z" fill="black"/>
<path d="M215.459 404.921C215.392 404.805 215.325 404.689 215.376 404.506C215.409 404.022 215.81 403.636 216.178 403.733C216.663 403.763 217.048 404.16 216.948 404.527C216.898 404.71 216.847 404.894 216.73 404.961C216.563 405.212 216.329 405.347 215.961 405.25C215.844 405.318 215.593 405.153 215.459 404.921Z" fill="black"/>
<path d="M207.281 404.534C207.215 404.418 207.148 404.302 207.198 404.118C207.231 403.635 207.633 403.249 208.001 403.346C208.486 403.376 208.87 403.772 208.77 404.139C208.72 404.323 208.67 404.506 208.553 404.574C208.385 404.825 208.151 404.96 207.783 404.863C207.666 404.93 207.415 404.766 207.281 404.534Z" fill="black"/>
<path d="M231.114 413.674C231.097 413.375 231.264 413.124 231.499 412.989C231.616 412.921 231.733 412.854 231.917 412.902C232.034 412.835 232.101 412.951 232.285 412.999C232.536 413.164 232.736 413.512 232.753 413.812C232.77 414.111 232.485 414.43 232.251 414.565C232.134 414.632 232.017 414.7 231.95 414.584C231.766 414.535 231.582 414.487 231.515 414.371C231.198 414.09 231.064 413.858 231.114 413.674Z" fill="black"/>
<path d="M222.986 413.104C223.02 412.621 223.421 412.235 223.789 412.332C224.157 412.429 224.659 412.758 224.559 413.125C224.525 413.608 224.124 413.994 223.756 413.897C223.338 413.984 222.953 413.587 222.986 413.104Z" fill="black"/>
<path d="M227.368 409.34C227.401 408.857 227.803 408.47 228.171 408.568C228.656 408.597 229.04 408.994 228.94 409.361C228.907 409.844 228.505 410.23 228.137 410.133C227.652 410.103 227.267 409.707 227.368 409.34Z" fill="black"/>
<path d="M226.733 417.436C226.766 416.953 227.168 416.567 227.536 416.664C228.021 416.694 228.406 417.09 228.305 417.457C228.272 417.941 227.87 418.327 227.502 418.23C227.084 418.316 226.7 417.919 226.733 417.436Z" fill="black"/>
<path d="M219.124 408.84C219.157 408.357 219.559 407.971 219.927 408.068C220.412 408.097 220.796 408.494 220.696 408.861C220.662 409.344 220.261 409.73 219.893 409.633C219.475 409.72 219.09 409.323 219.124 408.84Z" fill="black"/>
<path d="M218.604 416.868C218.638 416.385 219.039 415.999 219.407 416.096C219.892 416.125 220.277 416.522 220.176 416.889C220.143 417.372 219.741 417.758 219.373 417.661C218.955 417.747 218.571 417.351 218.604 416.868Z" fill="black"/>
<path d="M231.834 405.993C231.767 405.877 231.7 405.761 231.751 405.578C231.734 405.278 231.901 405.027 232.135 404.892C232.252 404.825 232.37 404.757 232.554 404.806C232.671 404.738 232.737 404.854 232.921 404.903C233.172 405.067 233.373 405.415 233.39 405.715C233.34 405.899 233.289 406.082 233.172 406.15C233.055 406.217 233.005 406.401 232.821 406.352C232.704 406.42 232.587 406.487 232.52 406.371C232.336 406.323 232.152 406.274 232.085 406.158C231.901 406.109 231.834 405.993 231.834 405.993Z" fill="black"/>
<path d="M223.588 405.491C223.521 405.375 223.454 405.259 223.504 405.075C223.538 404.592 223.939 404.206 224.307 404.303C224.792 404.333 225.177 404.729 225.077 405.097C225.027 405.28 224.976 405.464 224.859 405.531C224.692 405.782 224.458 405.917 224.09 405.82C223.973 405.888 223.722 405.723 223.588 405.491Z" fill="black"/>
<path d="M239.293 414.06C239.21 413.644 239.678 413.374 240.096 413.288C240.581 413.317 240.966 413.714 240.865 414.081C240.832 414.564 240.431 414.95 240.063 414.853C239.644 414.94 239.26 414.543 239.293 414.06Z" fill="black"/>
<path d="M243.675 410.296C243.725 410.113 243.658 409.997 243.775 409.929C243.943 409.678 244.177 409.543 244.478 409.524C244.327 410.075 244.11 410.509 243.959 411.06C243.708 410.896 243.508 410.547 243.675 410.296Z" fill="black"/>
<path d="M235.43 409.795C235.464 409.311 235.865 408.925 236.233 409.022C236.718 409.052 237.103 409.449 237.002 409.816C236.969 410.299 236.568 410.685 236.2 410.588C235.781 410.674 235.397 410.278 235.43 409.795Z" fill="black"/>
<path d="M234.977 417.94C235.011 417.457 235.412 417.071 235.78 417.168C236.265 417.198 236.65 417.594 236.549 417.961C236.516 418.445 236.114 418.831 235.746 418.734C235.261 418.704 234.877 418.307 234.977 417.94Z" fill="black"/>
<path d="M239.897 406.446C239.83 406.33 239.763 406.214 239.813 406.03C239.847 405.547 240.248 405.161 240.733 405.19C241.218 405.22 241.603 405.617 241.502 405.984C241.452 406.167 241.402 406.351 241.285 406.418C241.118 406.669 240.884 406.804 240.516 406.707C240.281 406.842 240.031 406.678 239.897 406.446Z" fill="black"/>
<path d="M167.877 385.977C167.693 385.928 167.559 385.696 167.542 385.397C167.542 385.397 167.475 385.281 167.592 385.213L167.643 385.03C167.643 385.03 167.76 384.962 167.693 384.846C167.743 384.663 167.86 384.595 167.977 384.528C168.094 384.46 168.211 384.393 168.395 384.441C168.512 384.374 168.579 384.49 168.763 384.538C168.947 384.587 169.081 384.819 169.148 384.935C169.215 385.051 169.282 385.167 169.165 385.234C169.165 385.234 169.232 385.35 169.114 385.418C169.064 385.601 168.897 385.852 168.663 385.987C168.546 386.055 168.429 386.122 168.362 386.006C168.362 386.006 168.362 386.006 168.245 386.074C168.128 386.141 167.944 386.093 167.877 385.977Z" fill="black"/>
<path d="M183.331 394.381C183.364 393.898 183.766 393.512 184.134 393.609C184.619 393.638 185.003 394.035 184.903 394.402C184.869 394.885 184.468 395.271 184.1 395.174C183.565 395.328 183.297 394.864 183.331 394.381Z" fill="black"/>
<path d="M179.467 390.116C179.501 389.633 179.902 389.247 180.27 389.344C180.755 389.374 181.14 389.77 181.04 390.138C181.006 390.621 180.605 391.007 180.237 390.91C179.819 390.996 179.434 390.6 179.467 390.116Z" fill="black"/>
<path d="M171.405 389.661C171.438 389.178 171.84 388.792 172.208 388.889C172.693 388.919 173.077 389.316 172.977 389.683C172.994 389.982 172.709 390.301 172.475 390.436C172.358 390.503 172.241 390.571 172.174 390.455C171.689 390.425 171.371 390.145 171.405 389.661Z" fill="black"/>
<path d="M183.916 386.468C183.916 386.468 183.849 386.352 183.966 386.285C183.9 386.169 184.017 386.101 184.067 385.918C184.234 385.667 184.585 385.464 184.886 385.445C185.187 385.426 185.505 385.707 185.639 385.939C185.706 386.055 185.773 386.171 185.656 386.238C185.656 386.238 185.723 386.354 185.606 386.422C185.505 386.789 185.154 386.991 184.736 387.078C184.201 387.232 183.883 386.951 183.916 386.468Z" fill="black"/>
<path d="M175.67 385.966C175.67 385.966 175.603 385.85 175.72 385.782C175.653 385.666 175.771 385.599 175.821 385.415C175.988 385.164 176.339 384.962 176.64 384.943C176.941 384.924 177.259 385.204 177.393 385.436C177.46 385.552 177.527 385.668 177.41 385.736C177.41 385.736 177.477 385.852 177.359 385.92C177.259 386.287 176.908 386.489 176.49 386.576C176.072 386.662 175.754 386.382 175.67 385.966Z" fill="black"/>
<path d="M199.52 395.404C199.503 395.105 199.671 394.854 199.905 394.719C200.022 394.651 200.139 394.584 200.323 394.632C200.44 394.565 200.507 394.681 200.691 394.729C200.942 394.894 201.143 395.242 201.159 395.541C201.176 395.841 200.892 396.16 200.657 396.295C200.54 396.362 200.423 396.43 200.356 396.314C200.172 396.265 199.988 396.217 199.922 396.1C199.671 395.936 199.537 395.704 199.52 395.404Z" fill="black"/>
<path d="M191.46 394.951C191.493 394.468 191.894 394.082 192.262 394.179C192.747 394.208 193.132 394.605 193.032 394.972C192.998 395.455 192.597 395.841 192.229 395.744C191.744 395.715 191.426 395.434 191.46 394.951Z" fill="black"/>
<path d="M195.774 391.072C195.808 390.589 196.209 390.203 196.577 390.3C197.062 390.329 197.447 390.726 197.346 391.093C197.313 391.576 196.911 391.962 196.543 391.865C196.125 391.951 195.741 391.555 195.774 391.072Z" fill="black"/>
<path d="M195.206 399.284C195.239 398.801 195.641 398.415 196.009 398.512C196.494 398.541 196.878 398.938 196.778 399.305C196.744 399.788 196.343 400.174 195.975 400.077C195.49 400.047 195.289 399.699 195.206 399.284Z" fill="black"/>
<path d="M187.713 390.617C187.747 390.134 188.148 389.748 188.516 389.845C189.001 389.874 189.386 390.271 189.286 390.638C189.252 391.121 188.851 391.507 188.483 391.41C187.881 391.448 187.68 391.1 187.713 390.617Z" fill="black"/>
<path d="M187.077 398.715C187.11 398.232 187.512 397.846 187.88 397.943C188.365 397.973 188.749 398.369 188.649 398.736C188.615 399.219 188.214 399.605 187.846 399.508C187.428 399.595 187.043 399.198 187.077 398.715Z" fill="black"/>
<path d="M200.107 387.492C200.107 387.492 200.04 387.376 200.157 387.308C200.09 387.192 200.207 387.125 200.257 386.941C200.307 386.758 200.425 386.69 200.542 386.623C200.659 386.555 200.776 386.488 200.96 386.536C201.077 386.469 201.144 386.585 201.328 386.633C201.512 386.682 201.646 386.914 201.712 387.03C201.779 387.146 201.846 387.262 201.729 387.329C201.729 387.329 201.796 387.445 201.679 387.513C201.629 387.696 201.461 387.947 201.227 388.083C201.11 388.15 200.993 388.218 200.926 388.101C200.742 388.053 200.558 388.004 200.491 387.888C200.307 387.84 200.241 387.724 200.107 387.492Z" fill="black"/>
<path d="M191.979 386.921C191.979 386.921 191.912 386.805 192.029 386.738C191.962 386.622 192.079 386.554 192.129 386.371C192.297 386.12 192.648 385.917 192.949 385.898C193.25 385.879 193.568 386.16 193.702 386.392C193.768 386.508 193.835 386.624 193.718 386.691C193.718 386.691 193.785 386.807 193.668 386.875C193.568 387.242 193.216 387.444 192.798 387.531C192.38 387.617 192.062 387.337 191.979 386.921Z" fill="black"/>
<path d="M215.895 396.477C215.929 395.994 216.33 395.608 216.698 395.705C217.183 395.735 217.568 396.131 217.467 396.498C217.434 396.981 217.032 397.367 216.664 397.27C216.179 397.241 215.912 396.777 215.895 396.477Z" fill="black"/>
<path d="M207.766 395.907C207.8 395.424 208.201 395.038 208.569 395.135C209.054 395.164 209.439 395.561 209.338 395.928C209.305 396.411 208.904 396.797 208.536 396.7C208.117 396.786 207.733 396.39 207.766 395.907Z" fill="black"/>
<path d="M212.149 392.143C212.182 391.66 212.584 391.273 212.952 391.371C213.437 391.4 213.822 391.797 213.721 392.164C213.688 392.647 213.286 393.033 212.918 392.936C212.433 392.906 212.049 392.51 212.149 392.143Z" fill="black"/>
<path d="M211.514 400.24C211.547 399.757 211.948 399.371 212.316 399.468C212.919 399.43 213.186 399.894 213.153 400.377C213.119 400.86 212.718 401.246 212.35 401.149C211.865 401.12 211.597 400.655 211.514 400.24Z" fill="black"/>
<path d="M203.903 391.64C203.936 391.157 204.338 390.771 204.706 390.868C205.191 390.897 205.576 391.294 205.475 391.661C205.442 392.144 205.04 392.53 204.672 392.433C204.254 392.52 203.987 392.055 203.903 391.64Z" fill="black"/>
<path d="M203.383 399.671C203.417 399.188 203.818 398.802 204.186 398.899C204.671 398.928 205.056 399.325 204.956 399.692C204.922 400.175 204.521 400.561 204.153 400.464C203.735 400.55 203.35 400.154 203.383 399.671Z" fill="black"/>
<path d="M216.414 388.447C216.414 388.447 216.347 388.331 216.465 388.263C216.398 388.147 216.515 388.08 216.565 387.896C216.732 387.645 217.083 387.443 217.384 387.424C217.686 387.405 218.003 387.685 218.137 387.917C218.204 388.033 218.271 388.15 218.154 388.217C218.154 388.217 218.221 388.333 218.104 388.401C218.003 388.768 217.652 388.97 217.234 389.057C216.816 389.143 216.498 388.863 216.414 388.447Z" fill="black"/>
<path d="M208.352 387.994C208.352 387.994 208.285 387.878 208.402 387.81C208.335 387.694 208.452 387.627 208.502 387.443C208.67 387.192 209.021 386.99 209.322 386.971C209.623 386.952 209.941 387.232 210.075 387.464C210.141 387.58 210.208 387.696 210.091 387.764C210.091 387.764 210.158 387.88 210.041 387.947C209.941 388.314 209.589 388.517 209.171 388.603C208.686 388.574 208.369 388.293 208.352 387.994Z" fill="black"/>
<path d="M232.202 397.432C232.185 397.133 232.352 396.882 232.587 396.747C232.704 396.679 232.821 396.612 233.005 396.66C233.122 396.593 233.189 396.709 233.373 396.757C233.624 396.922 233.824 397.27 233.841 397.569C233.858 397.869 233.573 398.188 233.339 398.323C233.222 398.39 233.105 398.458 233.038 398.342C232.854 398.293 232.67 398.245 232.603 398.128C232.352 397.964 232.152 397.616 232.202 397.432Z" fill="black"/>
<path d="M224.075 396.862C224.108 396.378 224.51 395.992 224.878 396.089C225.363 396.119 225.747 396.516 225.647 396.883C225.614 397.366 225.212 397.752 224.844 397.655C224.426 397.741 224.041 397.345 224.075 396.862Z" fill="black"/>
<path d="M228.456 393.1C228.489 392.617 228.891 392.231 229.259 392.328C229.744 392.357 230.128 392.754 230.028 393.121C229.994 393.604 229.593 393.99 229.225 393.893C228.74 393.863 228.355 393.467 228.456 393.1Z" fill="black"/>
<path d="M227.821 401.196C227.854 400.713 228.256 400.327 228.624 400.424C229.109 400.454 229.493 400.85 229.393 401.218C229.36 401.701 228.958 402.087 228.59 401.99C228.172 402.076 227.787 401.679 227.821 401.196Z" fill="black"/>
<path d="M220.212 392.597C220.245 392.114 220.646 391.728 221.014 391.825C221.499 391.855 221.884 392.252 221.784 392.619C221.75 393.102 221.349 393.488 220.981 393.391C220.563 393.477 220.295 393.013 220.212 392.597Z" fill="black"/>
<path d="M219.758 400.741C219.792 400.258 220.193 399.872 220.561 399.969C221.046 399.999 221.431 400.396 221.331 400.763C221.297 401.246 220.896 401.632 220.528 401.535C220.043 401.505 219.658 401.109 219.758 400.741Z" fill="black"/>
<path d="M232.722 389.404C232.722 389.404 232.655 389.288 232.772 389.22C232.705 389.104 232.822 389.037 232.873 388.853C232.923 388.67 233.04 388.602 233.157 388.535C233.274 388.467 233.391 388.4 233.575 388.448C233.692 388.381 233.759 388.497 233.943 388.545C234.127 388.594 234.261 388.826 234.328 388.942C234.395 389.058 234.461 389.174 234.344 389.241C234.344 389.241 234.411 389.357 234.294 389.425C234.244 389.608 234.077 389.859 233.843 389.994C233.725 390.062 233.608 390.129 233.541 390.013C233.358 389.965 233.174 389.916 233.107 389.8C232.923 389.752 232.856 389.636 232.722 389.404Z" fill="black"/>
<path d="M224.658 388.949C224.658 388.949 224.592 388.833 224.709 388.766C224.642 388.65 224.759 388.582 224.809 388.399C224.976 388.147 225.328 387.945 225.629 387.926C225.93 387.907 226.247 388.188 226.381 388.42C226.448 388.536 226.515 388.652 226.398 388.719C226.398 388.719 226.465 388.835 226.348 388.903C226.247 389.27 225.896 389.472 225.478 389.559C224.993 389.529 224.675 389.249 224.658 388.949Z" fill="black"/>
<path d="M240.381 397.819C240.415 397.336 240.816 396.95 241.184 397.047C241.669 397.076 242.054 397.473 241.954 397.84C241.92 398.323 241.519 398.709 241.151 398.612C240.733 398.698 240.348 398.302 240.381 397.819Z" fill="black"/>
<path d="M244.764 394.055C244.697 393.939 244.814 393.871 244.864 393.688C244.914 393.504 245.149 393.369 245.383 393.234C245.533 393.766 245.684 394.297 245.834 394.829C245.834 394.829 245.717 394.896 245.65 394.78C245.466 394.732 245.282 394.683 245.215 394.567C244.797 394.654 244.781 394.354 244.764 394.055Z" fill="black"/>
<path d="M244.128 402.153C244.161 401.67 244.563 401.284 244.931 401.381C245.232 401.362 245.298 401.478 245.482 401.526C245.733 401.691 245.867 401.923 245.767 402.29C245.783 402.589 245.616 402.84 245.265 403.043C245.148 403.11 245.031 403.178 244.847 403.129C244.479 403.032 244.094 402.636 244.128 402.153Z" fill="black"/>
<path d="M236.518 393.553C236.552 393.07 236.953 392.684 237.321 392.781C237.806 392.81 238.191 393.207 238.09 393.574C238.241 394.106 237.773 394.376 237.354 394.462C236.869 394.433 236.485 394.036 236.518 393.553Z" fill="black"/>
<path d="M236.065 401.699C236.099 401.215 236.5 400.829 236.868 400.926C237.353 400.956 237.738 401.353 237.637 401.72C237.604 402.203 237.202 402.589 236.834 402.492C236.349 402.462 235.965 402.066 236.065 401.699Z" fill="black"/>
<path d="M240.967 389.906C240.967 389.906 240.9 389.79 241.017 389.722C240.95 389.606 241.067 389.539 241.118 389.355C241.285 389.104 241.636 388.902 241.937 388.883C242.238 388.864 242.556 389.144 242.69 389.376C242.757 389.492 242.824 389.608 242.707 389.676C242.707 389.676 242.773 389.792 242.656 389.859C242.556 390.226 242.205 390.429 241.787 390.515C241.368 390.602 240.984 390.205 240.967 389.906Z" fill="black"/>
<path d="M168.11 377.184C168.093 376.885 168.261 376.634 168.495 376.499C168.612 376.431 168.729 376.364 168.913 376.412C169.03 376.345 169.097 376.461 169.281 376.509C169.532 376.674 169.732 377.022 169.749 377.321C169.766 377.621 169.481 377.939 169.247 378.074C169.13 378.142 169.013 378.209 168.946 378.093C168.762 378.045 168.578 377.996 168.511 377.88C168.143 377.783 168.127 377.484 168.11 377.184Z" fill="black"/>
<path d="M184.435 378.44C184.369 378.324 184.369 378.324 184.486 378.256C184.536 378.073 184.469 377.957 184.586 377.889L184.703 377.822C184.904 378.17 185.038 378.402 185.238 378.75C185.305 378.866 185.439 379.098 185.506 379.214C185.389 379.281 185.389 379.281 185.205 379.233C185.021 379.184 184.837 379.136 184.77 379.02C184.636 378.788 184.385 378.623 184.435 378.44Z" fill="black"/>
<path d="M176.239 377.754C176.272 377.271 176.674 376.885 177.042 376.982C177.527 377.011 177.911 377.408 177.811 377.775C177.778 378.258 177.376 378.644 177.008 378.547C176.523 378.517 176.205 378.237 176.239 377.754Z" fill="black"/>
<path d="M180.556 373.874C180.54 373.575 180.824 373.256 181.058 373.121L181.175 373.054C181.175 373.054 181.292 372.986 181.359 373.102C181.844 373.132 182.229 373.529 182.129 373.896C182.196 374.012 182.078 374.079 182.028 374.263L181.911 374.33C181.744 374.581 181.51 374.716 181.142 374.619C180.908 374.754 180.523 374.358 180.556 373.874Z" fill="black"/>
<path d="M180.104 382.02C180.138 381.537 180.539 381.151 180.907 381.248C181.392 381.278 181.777 381.674 181.676 382.041C181.643 382.525 181.241 382.911 180.873 382.814C180.388 382.784 180.071 382.503 180.104 382.02Z" fill="black"/>
<path d="M172.493 373.42C172.526 372.937 172.928 372.551 173.296 372.648C173.781 372.677 174.165 373.074 174.065 373.441C174.032 373.924 173.63 374.31 173.262 374.213C172.777 374.183 172.459 373.903 172.493 373.42Z" fill="black"/>
<path d="M171.856 381.518C171.89 381.035 172.291 380.649 172.659 380.746C173.144 380.776 173.529 381.172 173.428 381.539C173.395 382.022 172.993 382.408 172.625 382.311C172.207 382.398 171.823 382.001 171.856 381.518Z" fill="black"/>
<path d="M176.959 370.073C176.892 369.957 176.825 369.841 176.875 369.657C176.809 369.541 176.859 369.358 176.909 369.174L177.026 369.106C177.394 369.204 177.829 369.417 178.147 369.697C178.213 369.813 178.331 369.746 178.397 369.862C178.397 369.862 178.347 370.045 178.23 370.113C178.113 370.18 178.113 370.18 177.996 370.248C177.879 370.315 177.645 370.45 177.461 370.402C177.344 370.469 177.093 370.305 176.959 370.073Z" fill="black"/>
<path d="M188.249 382.889C188.182 382.773 188.182 382.773 188.232 382.59C188.282 382.406 188.282 382.406 188.333 382.223C188.65 382.503 189.085 382.716 189.587 383.045C189.587 383.045 189.654 383.161 189.771 383.094C189.604 383.345 189.487 383.412 189.186 383.431C189.186 383.431 189.186 383.431 189.069 383.499C188.634 383.286 188.383 383.121 188.249 382.889Z" fill="black"/>
<path d="M216.983 380.235C217.016 379.752 217.418 379.366 217.786 379.463C218.271 379.492 218.656 379.889 218.555 380.256C218.522 380.739 218.12 381.125 217.752 381.028C217.267 380.999 217 380.534 216.983 380.235Z" fill="black"/>
<path d="M212.6 383.999C212.634 383.516 213.035 383.13 213.403 383.227C213.888 383.257 214.273 383.653 214.172 384.02C214.139 384.503 213.737 384.889 213.37 384.792C212.951 384.879 212.684 384.415 212.6 383.999Z" fill="black"/>
<path d="M204.538 383.545C204.471 383.429 204.588 383.362 204.588 383.362C204.689 382.994 204.973 382.676 205.458 382.705C205.642 382.754 205.642 382.754 205.826 382.803C205.893 382.919 206.01 382.851 206.077 382.967C206.211 383.199 206.278 383.315 206.294 383.615C206.261 384.098 205.859 384.484 205.491 384.387C204.822 384.309 204.505 384.028 204.538 383.545Z" fill="black"/>
<path d="M233.29 381.192C233.273 380.892 233.44 380.641 233.675 380.506C233.792 380.439 233.909 380.371 234.093 380.42C234.21 380.352 234.277 380.468 234.461 380.517C234.829 380.614 234.962 380.846 234.862 381.213C234.879 381.513 234.594 381.831 234.36 381.966C234.243 382.034 234.126 382.101 234.059 381.985C233.875 381.937 233.691 381.888 233.624 381.772C233.44 381.724 233.24 381.375 233.29 381.192Z" fill="black"/>
<path d="M225.161 380.622C225.194 380.139 225.596 379.753 225.964 379.85C226.449 379.879 226.833 380.276 226.733 380.643C226.699 381.126 226.298 381.512 225.93 381.415C225.512 381.501 225.127 381.105 225.161 380.622Z" fill="black"/>
<path d="M230.314 377.651C230.013 377.67 229.946 377.554 229.762 377.506C229.946 377.554 230.13 377.603 230.314 377.651Z" fill="black"/>
<path d="M228.909 384.954C228.942 384.471 229.344 384.085 229.712 384.182C230.197 384.211 230.581 384.608 230.481 384.975C230.448 385.458 230.046 385.844 229.678 385.747C229.26 385.834 228.992 385.37 228.909 384.954Z" fill="black"/>
<path d="M221.366 376.472C221.851 376.501 222.27 376.415 222.872 376.377C222.872 376.377 222.989 376.309 223.056 376.425C223.005 376.609 222.955 376.792 222.788 377.043C222.554 377.178 222.437 377.246 222.253 377.197C221.952 377.216 221.768 377.168 221.701 377.052C221.517 377.003 221.383 376.771 221.366 376.472Z" fill="black"/>
<path d="M220.848 384.501C220.882 384.018 221.283 383.632 221.651 383.729C222.136 383.758 222.521 384.155 222.42 384.522C222.387 385.005 221.986 385.391 221.618 385.294C221.133 385.264 220.748 384.868 220.848 384.501Z" fill="black"/>
<path d="M237.153 385.456C237.186 384.973 237.588 384.587 237.956 384.684C238.441 384.714 238.826 385.11 238.725 385.477C238.692 385.96 238.29 386.346 237.922 386.249C237.437 386.22 237.119 385.939 237.153 385.456Z" fill="black"/>
<g clip-path="url(#clip2)">
<path d="M31.5446 183.134C30.6148 183.791 31.1953 185.029 31.0062 186.152C30.9083 186.623 30.8104 187.095 30.7125 187.566C30.5346 187.574 30.3989 187.591 30.2209 187.598C30.0163 186.885 29.7605 186.206 29.6827 185.52C29.3847 182.284 29.2647 179.04 28.9156 175.838C28.7688 174.422 28.3596 172.996 27.9414 171.612C27.2853 169.464 25.0475 168.776 23.3036 168.682C22.9988 168.664 22.6741 168.954 22.2826 169.141C21.7821 168.366 21.0191 168.432 20.1872 168.616C19.5421 168.751 18.897 168.885 18.2541 168.796C17.9071 168.769 17.6491 168.313 17.3466 168.071C17.6113 167.858 17.8182 167.499 18.0985 167.423C19.4487 167.077 20.8234 166.826 22.207 166.532C26.9696 165.465 29.5968 161.093 29.6681 156.503C29.7016 154.007 29.6505 151.493 29.7351 148.962C29.7396 148.516 30.1667 148.157 30.4247 147.764C30.6071 148.16 30.8918 148.487 30.9385 148.899C31.2877 151.251 31.3988 153.688 31.986 155.956C32.9557 159.779 36.3034 162.977 40.6254 163.607C40.879 163.659 41.1593 163.583 41.3528 163.713C41.7821 163.981 42.1514 164.326 42.5295 164.628C42.1869 165.004 41.9111 165.483 41.5107 165.713C39.9513 166.641 38.234 167.268 36.817 168.359C33.2067 171.096 31.5249 174.949 31.2177 179.401C31.1955 179.933 31.1221 180.499 31.1421 181.039C31.2288 181.683 31.4089 182.302 31.5446 183.134ZM24.6405 167.127C26.3867 167.847 28.2441 168.457 28.987 170.399C29.5964 172.135 30.0612 173.93 30.5194 175.545C31.0578 173.377 31.9432 171.236 33.5782 169.519C35.2043 167.845 37.0062 166.387 38.5277 165.004C37.2398 164.2 35.6383 163.42 34.4215 162.274C33.1625 161.118 32.2461 159.587 31.1495 158.286C29.5923 163.238 29.352 163.546 24.6405 167.127Z" fill="black"/>
</g>
<defs>
<clipPath id="clip0">
<rect width="417" height="311" fill="white" transform="translate(52 74)"/>
</clipPath>
<clipPath id="clip1">
<rect width="61" height="59" fill="white" transform="translate(43 156)"/>
</clipPath>
<clipPath id="clip2">
<rect width="24" height="39" fill="white" transform="translate(21.9297 146) rotate(11.7308)"/>
</clipPath>
</defs>
</svg>
